G04 #@! TF.GenerationSoftware,KiCad,Pcbnew,5.1.9+dfsg1-1*
G04 #@! TF.CreationDate,2021-03-13T21:56:33+01:00*
G04 #@! TF.ProjectId,ledStripDriver,6c656453-7472-4697-9044-72697665722e,rev?*
G04 #@! TF.SameCoordinates,Original*
G04 #@! TF.FileFunction,Paste,Top*
G04 #@! TF.FilePolarity,Positive*
%FSLAX46Y46*%
G04 Gerber Fmt 4.6, Leading zero omitted, Abs format (unit mm)*
G04 Created by KiCad (PCBNEW 5.1.9+dfsg1-1) date 2021-03-13 21:56:33*
%MOMM*%
%LPD*%
G01*
G04 APERTURE LIST*
%ADD10R,1.800000X3.500000*%
%ADD11R,3.500000X1.800000*%
%ADD12R,0.800000X0.900000*%
%ADD13R,0.900000X0.800000*%
G04 APERTURE END LIST*
D10*
X109000000Y-77000000D03*
X109000000Y-72000000D03*
D11*
X122265000Y-101435000D03*
X127265000Y-101435000D03*
X136100000Y-80000000D03*
X131100000Y-80000000D03*
G36*
G01*
X159450000Y-136050001D02*
X159450000Y-135149999D01*
G75*
G02*
X159699999Y-134900000I249999J0D01*
G01*
X160350001Y-134900000D01*
G75*
G02*
X160600000Y-135149999I0J-249999D01*
G01*
X160600000Y-136050001D01*
G75*
G02*
X160350001Y-136300000I-249999J0D01*
G01*
X159699999Y-136300000D01*
G75*
G02*
X159450000Y-136050001I0J249999D01*
G01*
G37*
G36*
G01*
X157400000Y-136050001D02*
X157400000Y-135149999D01*
G75*
G02*
X157649999Y-134900000I249999J0D01*
G01*
X158300001Y-134900000D01*
G75*
G02*
X158550000Y-135149999I0J-249999D01*
G01*
X158550000Y-136050001D01*
G75*
G02*
X158300001Y-136300000I-249999J0D01*
G01*
X157649999Y-136300000D01*
G75*
G02*
X157400000Y-136050001I0J249999D01*
G01*
G37*
G36*
G01*
X158550000Y-137349999D02*
X158550000Y-138250001D01*
G75*
G02*
X158300001Y-138500000I-249999J0D01*
G01*
X157649999Y-138500000D01*
G75*
G02*
X157400000Y-138250001I0J249999D01*
G01*
X157400000Y-137349999D01*
G75*
G02*
X157649999Y-137100000I249999J0D01*
G01*
X158300001Y-137100000D01*
G75*
G02*
X158550000Y-137349999I0J-249999D01*
G01*
G37*
G36*
G01*
X160600000Y-137349999D02*
X160600000Y-138250001D01*
G75*
G02*
X160350001Y-138500000I-249999J0D01*
G01*
X159699999Y-138500000D01*
G75*
G02*
X159450000Y-138250001I0J249999D01*
G01*
X159450000Y-137349999D01*
G75*
G02*
X159699999Y-137100000I249999J0D01*
G01*
X160350001Y-137100000D01*
G75*
G02*
X160600000Y-137349999I0J-249999D01*
G01*
G37*
G36*
G01*
X117750000Y-92949999D02*
X117750000Y-93850001D01*
G75*
G02*
X117500001Y-94100000I-249999J0D01*
G01*
X116849999Y-94100000D01*
G75*
G02*
X116600000Y-93850001I0J249999D01*
G01*
X116600000Y-92949999D01*
G75*
G02*
X116849999Y-92700000I249999J0D01*
G01*
X117500001Y-92700000D01*
G75*
G02*
X117750000Y-92949999I0J-249999D01*
G01*
G37*
G36*
G01*
X119800000Y-92949999D02*
X119800000Y-93850001D01*
G75*
G02*
X119550001Y-94100000I-249999J0D01*
G01*
X118899999Y-94100000D01*
G75*
G02*
X118650000Y-93850001I0J249999D01*
G01*
X118650000Y-92949999D01*
G75*
G02*
X118899999Y-92700000I249999J0D01*
G01*
X119550001Y-92700000D01*
G75*
G02*
X119800000Y-92949999I0J-249999D01*
G01*
G37*
G36*
G01*
X130650000Y-106850001D02*
X130650000Y-105949999D01*
G75*
G02*
X130899999Y-105700000I249999J0D01*
G01*
X131550001Y-105700000D01*
G75*
G02*
X131800000Y-105949999I0J-249999D01*
G01*
X131800000Y-106850001D01*
G75*
G02*
X131550001Y-107100000I-249999J0D01*
G01*
X130899999Y-107100000D01*
G75*
G02*
X130650000Y-106850001I0J249999D01*
G01*
G37*
G36*
G01*
X128600000Y-106850001D02*
X128600000Y-105949999D01*
G75*
G02*
X128849999Y-105700000I249999J0D01*
G01*
X129500001Y-105700000D01*
G75*
G02*
X129750000Y-105949999I0J-249999D01*
G01*
X129750000Y-106850001D01*
G75*
G02*
X129500001Y-107100000I-249999J0D01*
G01*
X128849999Y-107100000D01*
G75*
G02*
X128600000Y-106850001I0J249999D01*
G01*
G37*
G36*
G01*
X129850000Y-96150000D02*
X129850000Y-95050000D01*
G75*
G02*
X130100000Y-94800000I250000J0D01*
G01*
X133100000Y-94800000D01*
G75*
G02*
X133350000Y-95050000I0J-250000D01*
G01*
X133350000Y-96150000D01*
G75*
G02*
X133100000Y-96400000I-250000J0D01*
G01*
X130100000Y-96400000D01*
G75*
G02*
X129850000Y-96150000I0J250000D01*
G01*
G37*
G36*
G01*
X124250000Y-96150000D02*
X124250000Y-95050000D01*
G75*
G02*
X124500000Y-94800000I250000J0D01*
G01*
X127500000Y-94800000D01*
G75*
G02*
X127750000Y-95050000I0J-250000D01*
G01*
X127750000Y-96150000D01*
G75*
G02*
X127500000Y-96400000I-250000J0D01*
G01*
X124500000Y-96400000D01*
G75*
G02*
X124250000Y-96150000I0J250000D01*
G01*
G37*
G36*
G01*
X129850000Y-88350000D02*
X129850000Y-87250000D01*
G75*
G02*
X130100000Y-87000000I250000J0D01*
G01*
X133100000Y-87000000D01*
G75*
G02*
X133350000Y-87250000I0J-250000D01*
G01*
X133350000Y-88350000D01*
G75*
G02*
X133100000Y-88600000I-250000J0D01*
G01*
X130100000Y-88600000D01*
G75*
G02*
X129850000Y-88350000I0J250000D01*
G01*
G37*
G36*
G01*
X124250000Y-88350000D02*
X124250000Y-87250000D01*
G75*
G02*
X124500000Y-87000000I250000J0D01*
G01*
X127500000Y-87000000D01*
G75*
G02*
X127750000Y-87250000I0J-250000D01*
G01*
X127750000Y-88350000D01*
G75*
G02*
X127500000Y-88600000I-250000J0D01*
G01*
X124500000Y-88600000D01*
G75*
G02*
X124250000Y-88350000I0J250000D01*
G01*
G37*
G36*
G01*
X118450000Y-103750001D02*
X118450000Y-102849999D01*
G75*
G02*
X118699999Y-102600000I249999J0D01*
G01*
X119350001Y-102600000D01*
G75*
G02*
X119600000Y-102849999I0J-249999D01*
G01*
X119600000Y-103750001D01*
G75*
G02*
X119350001Y-104000000I-249999J0D01*
G01*
X118699999Y-104000000D01*
G75*
G02*
X118450000Y-103750001I0J249999D01*
G01*
G37*
G36*
G01*
X116400000Y-103750001D02*
X116400000Y-102849999D01*
G75*
G02*
X116649999Y-102600000I249999J0D01*
G01*
X117300001Y-102600000D01*
G75*
G02*
X117550000Y-102849999I0J-249999D01*
G01*
X117550000Y-103750001D01*
G75*
G02*
X117300001Y-104000000I-249999J0D01*
G01*
X116649999Y-104000000D01*
G75*
G02*
X116400000Y-103750001I0J249999D01*
G01*
G37*
G36*
G01*
X118425000Y-106050001D02*
X118425000Y-105149999D01*
G75*
G02*
X118674999Y-104900000I249999J0D01*
G01*
X119325001Y-104900000D01*
G75*
G02*
X119575000Y-105149999I0J-249999D01*
G01*
X119575000Y-106050001D01*
G75*
G02*
X119325001Y-106300000I-249999J0D01*
G01*
X118674999Y-106300000D01*
G75*
G02*
X118425000Y-106050001I0J249999D01*
G01*
G37*
G36*
G01*
X116375000Y-106050001D02*
X116375000Y-105149999D01*
G75*
G02*
X116624999Y-104900000I249999J0D01*
G01*
X117275001Y-104900000D01*
G75*
G02*
X117525000Y-105149999I0J-249999D01*
G01*
X117525000Y-106050001D01*
G75*
G02*
X117275001Y-106300000I-249999J0D01*
G01*
X116624999Y-106300000D01*
G75*
G02*
X116375000Y-106050001I0J249999D01*
G01*
G37*
G36*
G01*
X176850000Y-130550001D02*
X176850000Y-129649999D01*
G75*
G02*
X177099999Y-129400000I249999J0D01*
G01*
X177750001Y-129400000D01*
G75*
G02*
X178000000Y-129649999I0J-249999D01*
G01*
X178000000Y-130550001D01*
G75*
G02*
X177750001Y-130800000I-249999J0D01*
G01*
X177099999Y-130800000D01*
G75*
G02*
X176850000Y-130550001I0J249999D01*
G01*
G37*
G36*
G01*
X174800000Y-130550001D02*
X174800000Y-129649999D01*
G75*
G02*
X175049999Y-129400000I249999J0D01*
G01*
X175700001Y-129400000D01*
G75*
G02*
X175950000Y-129649999I0J-249999D01*
G01*
X175950000Y-130550001D01*
G75*
G02*
X175700001Y-130800000I-249999J0D01*
G01*
X175049999Y-130800000D01*
G75*
G02*
X174800000Y-130550001I0J249999D01*
G01*
G37*
G36*
G01*
X206250001Y-121350000D02*
X205349999Y-121350000D01*
G75*
G02*
X205100000Y-121100001I0J249999D01*
G01*
X205100000Y-120449999D01*
G75*
G02*
X205349999Y-120200000I249999J0D01*
G01*
X206250001Y-120200000D01*
G75*
G02*
X206500000Y-120449999I0J-249999D01*
G01*
X206500000Y-121100001D01*
G75*
G02*
X206250001Y-121350000I-249999J0D01*
G01*
G37*
G36*
G01*
X206250001Y-123400000D02*
X205349999Y-123400000D01*
G75*
G02*
X205100000Y-123150001I0J249999D01*
G01*
X205100000Y-122499999D01*
G75*
G02*
X205349999Y-122250000I249999J0D01*
G01*
X206250001Y-122250000D01*
G75*
G02*
X206500000Y-122499999I0J-249999D01*
G01*
X206500000Y-123150001D01*
G75*
G02*
X206250001Y-123400000I-249999J0D01*
G01*
G37*
G36*
G01*
X209050001Y-121350000D02*
X208149999Y-121350000D01*
G75*
G02*
X207900000Y-121100001I0J249999D01*
G01*
X207900000Y-120449999D01*
G75*
G02*
X208149999Y-120200000I249999J0D01*
G01*
X209050001Y-120200000D01*
G75*
G02*
X209300000Y-120449999I0J-249999D01*
G01*
X209300000Y-121100001D01*
G75*
G02*
X209050001Y-121350000I-249999J0D01*
G01*
G37*
G36*
G01*
X209050001Y-123400000D02*
X208149999Y-123400000D01*
G75*
G02*
X207900000Y-123150001I0J249999D01*
G01*
X207900000Y-122499999D01*
G75*
G02*
X208149999Y-122250000I249999J0D01*
G01*
X209050001Y-122250000D01*
G75*
G02*
X209300000Y-122499999I0J-249999D01*
G01*
X209300000Y-123150001D01*
G75*
G02*
X209050001Y-123400000I-249999J0D01*
G01*
G37*
G36*
G01*
X117575000Y-107449999D02*
X117575000Y-108350001D01*
G75*
G02*
X117325001Y-108600000I-249999J0D01*
G01*
X116674999Y-108600000D01*
G75*
G02*
X116425000Y-108350001I0J249999D01*
G01*
X116425000Y-107449999D01*
G75*
G02*
X116674999Y-107200000I249999J0D01*
G01*
X117325001Y-107200000D01*
G75*
G02*
X117575000Y-107449999I0J-249999D01*
G01*
G37*
G36*
G01*
X119625000Y-107449999D02*
X119625000Y-108350001D01*
G75*
G02*
X119375001Y-108600000I-249999J0D01*
G01*
X118724999Y-108600000D01*
G75*
G02*
X118475000Y-108350001I0J249999D01*
G01*
X118475000Y-107449999D01*
G75*
G02*
X118724999Y-107200000I249999J0D01*
G01*
X119375001Y-107200000D01*
G75*
G02*
X119625000Y-107449999I0J-249999D01*
G01*
G37*
G36*
G01*
X116950000Y-97449999D02*
X116950000Y-98350001D01*
G75*
G02*
X116700001Y-98600000I-249999J0D01*
G01*
X116049999Y-98600000D01*
G75*
G02*
X115800000Y-98350001I0J249999D01*
G01*
X115800000Y-97449999D01*
G75*
G02*
X116049999Y-97200000I249999J0D01*
G01*
X116700001Y-97200000D01*
G75*
G02*
X116950000Y-97449999I0J-249999D01*
G01*
G37*
G36*
G01*
X119000000Y-97449999D02*
X119000000Y-98350001D01*
G75*
G02*
X118750001Y-98600000I-249999J0D01*
G01*
X118099999Y-98600000D01*
G75*
G02*
X117850000Y-98350001I0J249999D01*
G01*
X117850000Y-97449999D01*
G75*
G02*
X118099999Y-97200000I249999J0D01*
G01*
X118750001Y-97200000D01*
G75*
G02*
X119000000Y-97449999I0J-249999D01*
G01*
G37*
G36*
G01*
X161450001Y-130675000D02*
X160549999Y-130675000D01*
G75*
G02*
X160300000Y-130425001I0J249999D01*
G01*
X160300000Y-129774999D01*
G75*
G02*
X160549999Y-129525000I249999J0D01*
G01*
X161450001Y-129525000D01*
G75*
G02*
X161700000Y-129774999I0J-249999D01*
G01*
X161700000Y-130425001D01*
G75*
G02*
X161450001Y-130675000I-249999J0D01*
G01*
G37*
G36*
G01*
X161450001Y-132725000D02*
X160549999Y-132725000D01*
G75*
G02*
X160300000Y-132475001I0J249999D01*
G01*
X160300000Y-131824999D01*
G75*
G02*
X160549999Y-131575000I249999J0D01*
G01*
X161450001Y-131575000D01*
G75*
G02*
X161700000Y-131824999I0J-249999D01*
G01*
X161700000Y-132475001D01*
G75*
G02*
X161450001Y-132725000I-249999J0D01*
G01*
G37*
G36*
G01*
X176150000Y-137149999D02*
X176150000Y-138050001D01*
G75*
G02*
X175900001Y-138300000I-249999J0D01*
G01*
X175249999Y-138300000D01*
G75*
G02*
X175000000Y-138050001I0J249999D01*
G01*
X175000000Y-137149999D01*
G75*
G02*
X175249999Y-136900000I249999J0D01*
G01*
X175900001Y-136900000D01*
G75*
G02*
X176150000Y-137149999I0J-249999D01*
G01*
G37*
G36*
G01*
X178200000Y-137149999D02*
X178200000Y-138050001D01*
G75*
G02*
X177950001Y-138300000I-249999J0D01*
G01*
X177299999Y-138300000D01*
G75*
G02*
X177050000Y-138050001I0J249999D01*
G01*
X177050000Y-137149999D01*
G75*
G02*
X177299999Y-136900000I249999J0D01*
G01*
X177950001Y-136900000D01*
G75*
G02*
X178200000Y-137149999I0J-249999D01*
G01*
G37*
G36*
G01*
X176950000Y-134350001D02*
X176950000Y-133449999D01*
G75*
G02*
X177199999Y-133200000I249999J0D01*
G01*
X177850001Y-133200000D01*
G75*
G02*
X178100000Y-133449999I0J-249999D01*
G01*
X178100000Y-134350001D01*
G75*
G02*
X177850001Y-134600000I-249999J0D01*
G01*
X177199999Y-134600000D01*
G75*
G02*
X176950000Y-134350001I0J249999D01*
G01*
G37*
G36*
G01*
X174900000Y-134350001D02*
X174900000Y-133449999D01*
G75*
G02*
X175149999Y-133200000I249999J0D01*
G01*
X175800001Y-133200000D01*
G75*
G02*
X176050000Y-133449999I0J-249999D01*
G01*
X176050000Y-134350001D01*
G75*
G02*
X175800001Y-134600000I-249999J0D01*
G01*
X175149999Y-134600000D01*
G75*
G02*
X174900000Y-134350001I0J249999D01*
G01*
G37*
G36*
G01*
X180549999Y-134475000D02*
X181450001Y-134475000D01*
G75*
G02*
X181700000Y-134724999I0J-249999D01*
G01*
X181700000Y-135375001D01*
G75*
G02*
X181450001Y-135625000I-249999J0D01*
G01*
X180549999Y-135625000D01*
G75*
G02*
X180300000Y-135375001I0J249999D01*
G01*
X180300000Y-134724999D01*
G75*
G02*
X180549999Y-134475000I249999J0D01*
G01*
G37*
G36*
G01*
X180549999Y-132425000D02*
X181450001Y-132425000D01*
G75*
G02*
X181700000Y-132674999I0J-249999D01*
G01*
X181700000Y-133325001D01*
G75*
G02*
X181450001Y-133575000I-249999J0D01*
G01*
X180549999Y-133575000D01*
G75*
G02*
X180300000Y-133325001I0J249999D01*
G01*
X180300000Y-132674999D01*
G75*
G02*
X180549999Y-132425000I249999J0D01*
G01*
G37*
G36*
G01*
X206150001Y-116850000D02*
X205249999Y-116850000D01*
G75*
G02*
X205000000Y-116600001I0J249999D01*
G01*
X205000000Y-115949999D01*
G75*
G02*
X205249999Y-115700000I249999J0D01*
G01*
X206150001Y-115700000D01*
G75*
G02*
X206400000Y-115949999I0J-249999D01*
G01*
X206400000Y-116600001D01*
G75*
G02*
X206150001Y-116850000I-249999J0D01*
G01*
G37*
G36*
G01*
X206150001Y-118900000D02*
X205249999Y-118900000D01*
G75*
G02*
X205000000Y-118650001I0J249999D01*
G01*
X205000000Y-117999999D01*
G75*
G02*
X205249999Y-117750000I249999J0D01*
G01*
X206150001Y-117750000D01*
G75*
G02*
X206400000Y-117999999I0J-249999D01*
G01*
X206400000Y-118650001D01*
G75*
G02*
X206150001Y-118900000I-249999J0D01*
G01*
G37*
G36*
G01*
X208950001Y-116875000D02*
X208049999Y-116875000D01*
G75*
G02*
X207800000Y-116625001I0J249999D01*
G01*
X207800000Y-115974999D01*
G75*
G02*
X208049999Y-115725000I249999J0D01*
G01*
X208950001Y-115725000D01*
G75*
G02*
X209200000Y-115974999I0J-249999D01*
G01*
X209200000Y-116625001D01*
G75*
G02*
X208950001Y-116875000I-249999J0D01*
G01*
G37*
G36*
G01*
X208950001Y-118925000D02*
X208049999Y-118925000D01*
G75*
G02*
X207800000Y-118675001I0J249999D01*
G01*
X207800000Y-118024999D01*
G75*
G02*
X208049999Y-117775000I249999J0D01*
G01*
X208950001Y-117775000D01*
G75*
G02*
X209200000Y-118024999I0J-249999D01*
G01*
X209200000Y-118675001D01*
G75*
G02*
X208950001Y-118925000I-249999J0D01*
G01*
G37*
G36*
G01*
X198875000Y-102250001D02*
X198875000Y-101349999D01*
G75*
G02*
X199124999Y-101100000I249999J0D01*
G01*
X199775001Y-101100000D01*
G75*
G02*
X200025000Y-101349999I0J-249999D01*
G01*
X200025000Y-102250001D01*
G75*
G02*
X199775001Y-102500000I-249999J0D01*
G01*
X199124999Y-102500000D01*
G75*
G02*
X198875000Y-102250001I0J249999D01*
G01*
G37*
G36*
G01*
X196825000Y-102250001D02*
X196825000Y-101349999D01*
G75*
G02*
X197074999Y-101100000I249999J0D01*
G01*
X197725001Y-101100000D01*
G75*
G02*
X197975000Y-101349999I0J-249999D01*
G01*
X197975000Y-102250001D01*
G75*
G02*
X197725001Y-102500000I-249999J0D01*
G01*
X197074999Y-102500000D01*
G75*
G02*
X196825000Y-102250001I0J249999D01*
G01*
G37*
G36*
G01*
X198775000Y-80550001D02*
X198775000Y-79649999D01*
G75*
G02*
X199024999Y-79400000I249999J0D01*
G01*
X199675001Y-79400000D01*
G75*
G02*
X199925000Y-79649999I0J-249999D01*
G01*
X199925000Y-80550001D01*
G75*
G02*
X199675001Y-80800000I-249999J0D01*
G01*
X199024999Y-80800000D01*
G75*
G02*
X198775000Y-80550001I0J249999D01*
G01*
G37*
G36*
G01*
X196725000Y-80550001D02*
X196725000Y-79649999D01*
G75*
G02*
X196974999Y-79400000I249999J0D01*
G01*
X197625001Y-79400000D01*
G75*
G02*
X197875000Y-79649999I0J-249999D01*
G01*
X197875000Y-80550001D01*
G75*
G02*
X197625001Y-80800000I-249999J0D01*
G01*
X196974999Y-80800000D01*
G75*
G02*
X196725000Y-80550001I0J249999D01*
G01*
G37*
G36*
G01*
X199025000Y-60150001D02*
X199025000Y-59249999D01*
G75*
G02*
X199274999Y-59000000I249999J0D01*
G01*
X199925001Y-59000000D01*
G75*
G02*
X200175000Y-59249999I0J-249999D01*
G01*
X200175000Y-60150001D01*
G75*
G02*
X199925001Y-60400000I-249999J0D01*
G01*
X199274999Y-60400000D01*
G75*
G02*
X199025000Y-60150001I0J249999D01*
G01*
G37*
G36*
G01*
X196975000Y-60150001D02*
X196975000Y-59249999D01*
G75*
G02*
X197224999Y-59000000I249999J0D01*
G01*
X197875001Y-59000000D01*
G75*
G02*
X198125000Y-59249999I0J-249999D01*
G01*
X198125000Y-60150001D01*
G75*
G02*
X197875001Y-60400000I-249999J0D01*
G01*
X197224999Y-60400000D01*
G75*
G02*
X196975000Y-60150001I0J249999D01*
G01*
G37*
G36*
G01*
X145525000Y-109049999D02*
X145525000Y-109950001D01*
G75*
G02*
X145275001Y-110200000I-249999J0D01*
G01*
X144624999Y-110200000D01*
G75*
G02*
X144375000Y-109950001I0J249999D01*
G01*
X144375000Y-109049999D01*
G75*
G02*
X144624999Y-108800000I249999J0D01*
G01*
X145275001Y-108800000D01*
G75*
G02*
X145525000Y-109049999I0J-249999D01*
G01*
G37*
G36*
G01*
X147575000Y-109049999D02*
X147575000Y-109950001D01*
G75*
G02*
X147325001Y-110200000I-249999J0D01*
G01*
X146674999Y-110200000D01*
G75*
G02*
X146425000Y-109950001I0J249999D01*
G01*
X146425000Y-109049999D01*
G75*
G02*
X146674999Y-108800000I249999J0D01*
G01*
X147325001Y-108800000D01*
G75*
G02*
X147575000Y-109049999I0J-249999D01*
G01*
G37*
G36*
G01*
X140550000Y-109049999D02*
X140550000Y-109950001D01*
G75*
G02*
X140300001Y-110200000I-249999J0D01*
G01*
X139649999Y-110200000D01*
G75*
G02*
X139400000Y-109950001I0J249999D01*
G01*
X139400000Y-109049999D01*
G75*
G02*
X139649999Y-108800000I249999J0D01*
G01*
X140300001Y-108800000D01*
G75*
G02*
X140550000Y-109049999I0J-249999D01*
G01*
G37*
G36*
G01*
X142600000Y-109049999D02*
X142600000Y-109950001D01*
G75*
G02*
X142350001Y-110200000I-249999J0D01*
G01*
X141699999Y-110200000D01*
G75*
G02*
X141450000Y-109950001I0J249999D01*
G01*
X141450000Y-109049999D01*
G75*
G02*
X141699999Y-108800000I249999J0D01*
G01*
X142350001Y-108800000D01*
G75*
G02*
X142600000Y-109049999I0J-249999D01*
G01*
G37*
G36*
G01*
X195446001Y-115590000D02*
X194545999Y-115590000D01*
G75*
G02*
X194296000Y-115340001I0J249999D01*
G01*
X194296000Y-114689999D01*
G75*
G02*
X194545999Y-114440000I249999J0D01*
G01*
X195446001Y-114440000D01*
G75*
G02*
X195696000Y-114689999I0J-249999D01*
G01*
X195696000Y-115340001D01*
G75*
G02*
X195446001Y-115590000I-249999J0D01*
G01*
G37*
G36*
G01*
X195446001Y-117640000D02*
X194545999Y-117640000D01*
G75*
G02*
X194296000Y-117390001I0J249999D01*
G01*
X194296000Y-116739999D01*
G75*
G02*
X194545999Y-116490000I249999J0D01*
G01*
X195446001Y-116490000D01*
G75*
G02*
X195696000Y-116739999I0J-249999D01*
G01*
X195696000Y-117390001D01*
G75*
G02*
X195446001Y-117640000I-249999J0D01*
G01*
G37*
G36*
G01*
X181730001Y-116098000D02*
X180829999Y-116098000D01*
G75*
G02*
X180580000Y-115848001I0J249999D01*
G01*
X180580000Y-115197999D01*
G75*
G02*
X180829999Y-114948000I249999J0D01*
G01*
X181730001Y-114948000D01*
G75*
G02*
X181980000Y-115197999I0J-249999D01*
G01*
X181980000Y-115848001D01*
G75*
G02*
X181730001Y-116098000I-249999J0D01*
G01*
G37*
G36*
G01*
X181730001Y-118148000D02*
X180829999Y-118148000D01*
G75*
G02*
X180580000Y-117898001I0J249999D01*
G01*
X180580000Y-117247999D01*
G75*
G02*
X180829999Y-116998000I249999J0D01*
G01*
X181730001Y-116998000D01*
G75*
G02*
X181980000Y-117247999I0J-249999D01*
G01*
X181980000Y-117898001D01*
G75*
G02*
X181730001Y-118148000I-249999J0D01*
G01*
G37*
G36*
G01*
X162925001Y-117749000D02*
X162024999Y-117749000D01*
G75*
G02*
X161775000Y-117499001I0J249999D01*
G01*
X161775000Y-116848999D01*
G75*
G02*
X162024999Y-116599000I249999J0D01*
G01*
X162925001Y-116599000D01*
G75*
G02*
X163175000Y-116848999I0J-249999D01*
G01*
X163175000Y-117499001D01*
G75*
G02*
X162925001Y-117749000I-249999J0D01*
G01*
G37*
G36*
G01*
X162925001Y-119799000D02*
X162024999Y-119799000D01*
G75*
G02*
X161775000Y-119549001I0J249999D01*
G01*
X161775000Y-118898999D01*
G75*
G02*
X162024999Y-118649000I249999J0D01*
G01*
X162925001Y-118649000D01*
G75*
G02*
X163175000Y-118898999I0J-249999D01*
G01*
X163175000Y-119549001D01*
G75*
G02*
X162925001Y-119799000I-249999J0D01*
G01*
G37*
G36*
G01*
X201542000Y-121062001D02*
X201542000Y-120161999D01*
G75*
G02*
X201791999Y-119912000I249999J0D01*
G01*
X202442001Y-119912000D01*
G75*
G02*
X202692000Y-120161999I0J-249999D01*
G01*
X202692000Y-121062001D01*
G75*
G02*
X202442001Y-121312000I-249999J0D01*
G01*
X201791999Y-121312000D01*
G75*
G02*
X201542000Y-121062001I0J249999D01*
G01*
G37*
G36*
G01*
X199492000Y-121062001D02*
X199492000Y-120161999D01*
G75*
G02*
X199741999Y-119912000I249999J0D01*
G01*
X200392001Y-119912000D01*
G75*
G02*
X200642000Y-120161999I0J-249999D01*
G01*
X200642000Y-121062001D01*
G75*
G02*
X200392001Y-121312000I-249999J0D01*
G01*
X199741999Y-121312000D01*
G75*
G02*
X199492000Y-121062001I0J249999D01*
G01*
G37*
G36*
G01*
X187318000Y-121062001D02*
X187318000Y-120161999D01*
G75*
G02*
X187567999Y-119912000I249999J0D01*
G01*
X188218001Y-119912000D01*
G75*
G02*
X188468000Y-120161999I0J-249999D01*
G01*
X188468000Y-121062001D01*
G75*
G02*
X188218001Y-121312000I-249999J0D01*
G01*
X187567999Y-121312000D01*
G75*
G02*
X187318000Y-121062001I0J249999D01*
G01*
G37*
G36*
G01*
X185268000Y-121062001D02*
X185268000Y-120161999D01*
G75*
G02*
X185517999Y-119912000I249999J0D01*
G01*
X186168001Y-119912000D01*
G75*
G02*
X186418000Y-120161999I0J-249999D01*
G01*
X186418000Y-121062001D01*
G75*
G02*
X186168001Y-121312000I-249999J0D01*
G01*
X185517999Y-121312000D01*
G75*
G02*
X185268000Y-121062001I0J249999D01*
G01*
G37*
G36*
G01*
X171570001Y-117114000D02*
X170669999Y-117114000D01*
G75*
G02*
X170420000Y-116864001I0J249999D01*
G01*
X170420000Y-116213999D01*
G75*
G02*
X170669999Y-115964000I249999J0D01*
G01*
X171570001Y-115964000D01*
G75*
G02*
X171820000Y-116213999I0J-249999D01*
G01*
X171820000Y-116864001D01*
G75*
G02*
X171570001Y-117114000I-249999J0D01*
G01*
G37*
G36*
G01*
X171570001Y-119164000D02*
X170669999Y-119164000D01*
G75*
G02*
X170420000Y-118914001I0J249999D01*
G01*
X170420000Y-118263999D01*
G75*
G02*
X170669999Y-118014000I249999J0D01*
G01*
X171570001Y-118014000D01*
G75*
G02*
X171820000Y-118263999I0J-249999D01*
G01*
X171820000Y-118914001D01*
G75*
G02*
X171570001Y-119164000I-249999J0D01*
G01*
G37*
G36*
G01*
X120349999Y-87275000D02*
X121250001Y-87275000D01*
G75*
G02*
X121500000Y-87524999I0J-249999D01*
G01*
X121500000Y-88175001D01*
G75*
G02*
X121250001Y-88425000I-249999J0D01*
G01*
X120349999Y-88425000D01*
G75*
G02*
X120100000Y-88175001I0J249999D01*
G01*
X120100000Y-87524999D01*
G75*
G02*
X120349999Y-87275000I249999J0D01*
G01*
G37*
G36*
G01*
X120349999Y-85225000D02*
X121250001Y-85225000D01*
G75*
G02*
X121500000Y-85474999I0J-249999D01*
G01*
X121500000Y-86125001D01*
G75*
G02*
X121250001Y-86375000I-249999J0D01*
G01*
X120349999Y-86375000D01*
G75*
G02*
X120100000Y-86125001I0J249999D01*
G01*
X120100000Y-85474999D01*
G75*
G02*
X120349999Y-85225000I249999J0D01*
G01*
G37*
D12*
X201092000Y-115040000D03*
X202042000Y-117040000D03*
X200142000Y-117040000D03*
X186868000Y-115040000D03*
X187818000Y-117040000D03*
X185918000Y-117040000D03*
D13*
X166310000Y-117564000D03*
X168310000Y-116614000D03*
X168310000Y-118514000D03*
D12*
X120000000Y-81200000D03*
X119050000Y-79200000D03*
X120950000Y-79200000D03*
M02*
