G04 #@! TF.GenerationSoftware,KiCad,Pcbnew,5.1.6+dfsg1-1*
G04 #@! TF.CreationDate,2020-08-30T09:22:09+02:00*
G04 #@! TF.ProjectId,ledStripDriver,6c656453-7472-4697-9044-72697665722e,rev?*
G04 #@! TF.SameCoordinates,Original*
G04 #@! TF.FileFunction,Copper,L2,Bot*
G04 #@! TF.FilePolarity,Positive*
%FSLAX46Y46*%
G04 Gerber Fmt 4.6, Leading zero omitted, Abs format (unit mm)*
G04 Created by KiCad (PCBNEW 5.1.6+dfsg1-1) date 2020-08-30 09:22:09*
%MOMM*%
%LPD*%
G01*
G04 APERTURE LIST*
G04 #@! TA.AperFunction,ComponentPad*
%ADD10R,2.500000X7.000000*%
G04 #@! TD*
G04 #@! TA.AperFunction,ComponentPad*
%ADD11C,3.000000*%
G04 #@! TD*
G04 #@! TA.AperFunction,ComponentPad*
%ADD12R,3.000000X3.000000*%
G04 #@! TD*
G04 #@! TA.AperFunction,ComponentPad*
%ADD13O,1.600000X1.600000*%
G04 #@! TD*
G04 #@! TA.AperFunction,ComponentPad*
%ADD14R,1.600000X1.600000*%
G04 #@! TD*
G04 #@! TA.AperFunction,ComponentPad*
%ADD15C,1.600000*%
G04 #@! TD*
G04 #@! TA.AperFunction,ComponentPad*
%ADD16C,2.000000*%
G04 #@! TD*
G04 #@! TA.AperFunction,ComponentPad*
%ADD17R,2.000000X2.000000*%
G04 #@! TD*
G04 #@! TA.AperFunction,ComponentPad*
%ADD18R,3.000000X2.500000*%
G04 #@! TD*
G04 #@! TA.AperFunction,ComponentPad*
%ADD19R,2.100000X1.400000*%
G04 #@! TD*
G04 #@! TA.AperFunction,ComponentPad*
%ADD20R,1.800000X2.300000*%
G04 #@! TD*
G04 #@! TA.AperFunction,ComponentPad*
%ADD21R,2.300000X1.800000*%
G04 #@! TD*
G04 #@! TA.AperFunction,ComponentPad*
%ADD22R,2.300000X3.200000*%
G04 #@! TD*
G04 #@! TA.AperFunction,ComponentPad*
%ADD23C,1.560000*%
G04 #@! TD*
G04 #@! TA.AperFunction,ComponentPad*
%ADD24R,1.560000X1.560000*%
G04 #@! TD*
G04 #@! TA.AperFunction,ComponentPad*
%ADD25C,1.950000*%
G04 #@! TD*
G04 #@! TA.AperFunction,ComponentPad*
%ADD26R,1.950000X1.950000*%
G04 #@! TD*
G04 #@! TA.AperFunction,ComponentPad*
%ADD27C,2.500000*%
G04 #@! TD*
G04 #@! TA.AperFunction,ComponentPad*
%ADD28R,2.500000X2.500000*%
G04 #@! TD*
G04 #@! TA.AperFunction,ViaPad*
%ADD29C,0.800000*%
G04 #@! TD*
G04 #@! TA.AperFunction,ViaPad*
%ADD30C,2.000000*%
G04 #@! TD*
G04 #@! TA.AperFunction,Conductor*
%ADD31C,5.000000*%
G04 #@! TD*
G04 #@! TA.AperFunction,Conductor*
%ADD32C,0.250000*%
G04 #@! TD*
G04 #@! TA.AperFunction,Conductor*
%ADD33C,0.500000*%
G04 #@! TD*
G04 #@! TA.AperFunction,Conductor*
%ADD34C,0.254000*%
G04 #@! TD*
G04 APERTURE END LIST*
D10*
X131400000Y-82800000D03*
X124400000Y-82800000D03*
D11*
X154075000Y-101300000D03*
X176675000Y-101300000D03*
X153440000Y-79710000D03*
X176040000Y-79710000D03*
X153440000Y-58120000D03*
X176040000Y-58120000D03*
X105080000Y-91750000D03*
D12*
X105080000Y-81750000D03*
D13*
X172320000Y-130000000D03*
X164700000Y-137620000D03*
X172320000Y-132540000D03*
X164700000Y-135080000D03*
X172320000Y-135080000D03*
X164700000Y-132540000D03*
X172320000Y-137620000D03*
D14*
X164700000Y-130000000D03*
D15*
X192075000Y-76680000D03*
D14*
X192075000Y-80480000D03*
D16*
X190500000Y-130500000D03*
X190500000Y-135000000D03*
X184000000Y-130500000D03*
X184000000Y-135000000D03*
D17*
X208500000Y-134836000D03*
D16*
X208500000Y-132336000D03*
X208500000Y-129836000D03*
D18*
X201000000Y-137936000D03*
X201000000Y-126736000D03*
D16*
X194000000Y-134836000D03*
X194000000Y-129836000D03*
D19*
X110400000Y-97900000D03*
X106900000Y-107900000D03*
D20*
X113800000Y-107400000D03*
D21*
X109400000Y-100500000D03*
D20*
X102500000Y-103100000D03*
D15*
X192075000Y-96365000D03*
D14*
X192075000Y-100165000D03*
D15*
X192075000Y-56360000D03*
D14*
X192075000Y-60160000D03*
D22*
X138580000Y-86055000D03*
X136040000Y-86055000D03*
X150320000Y-106655000D03*
X147780000Y-86055000D03*
X136040000Y-106655000D03*
X138580000Y-106655000D03*
X150320000Y-86055000D03*
X147780000Y-106655000D03*
D23*
X101980000Y-137630000D03*
X104520000Y-137630000D03*
X107060000Y-137630000D03*
X109600000Y-137630000D03*
X112140000Y-137630000D03*
X114680000Y-137630000D03*
X117220000Y-137630000D03*
X119760000Y-137630000D03*
X122300000Y-137630000D03*
X124840000Y-137630000D03*
X127380000Y-137630000D03*
X129920000Y-137630000D03*
X132460000Y-137630000D03*
X135000000Y-137630000D03*
X137540000Y-137630000D03*
X140080000Y-137630000D03*
X142620000Y-137630000D03*
X145160000Y-137630000D03*
X147700000Y-137630000D03*
X104520000Y-112230000D03*
X107060000Y-112230000D03*
X109600000Y-112230000D03*
X112140000Y-112230000D03*
X114680000Y-112230000D03*
X117220000Y-112230000D03*
X119760000Y-112230000D03*
X122300000Y-112230000D03*
X124840000Y-112230000D03*
X127380000Y-112230000D03*
X129920000Y-112230000D03*
X132460000Y-112230000D03*
X135000000Y-112230000D03*
X137540000Y-112230000D03*
X140080000Y-112230000D03*
X142620000Y-112230000D03*
X101980000Y-112230000D03*
X145160000Y-112230000D03*
D24*
X147700000Y-112230000D03*
D25*
X142010000Y-70260000D03*
X137010000Y-70260000D03*
X137010000Y-62760000D03*
X142010000Y-62760000D03*
D26*
X117010000Y-70260000D03*
D25*
X117010000Y-62760000D03*
D27*
X206000000Y-97070000D03*
X206000000Y-102070000D03*
D28*
X206000000Y-107070000D03*
D27*
X206045000Y-77465000D03*
X206045000Y-82465000D03*
D28*
X206045000Y-87465000D03*
D27*
X206000000Y-54500000D03*
X206000000Y-59500000D03*
D28*
X206000000Y-64500000D03*
D29*
X161000000Y-132300000D03*
X177600000Y-133900000D03*
X105080000Y-55080000D03*
X208475000Y-116275000D03*
X157700000Y-131800000D03*
X117010000Y-91918000D03*
X117010000Y-74138000D03*
X166900000Y-125200000D03*
X166800000Y-118764010D03*
X168310000Y-118514000D03*
X199350000Y-80100000D03*
X187893000Y-120612000D03*
X187800000Y-126000000D03*
D30*
X160452000Y-115445000D03*
D29*
X184893000Y-118800000D03*
X188843000Y-118800000D03*
X156000000Y-128000000D03*
X156000000Y-121100000D03*
X179000000Y-129400000D03*
X179200000Y-124300000D03*
X118400000Y-97800000D03*
X124100000Y-97800000D03*
X166548000Y-115024000D03*
X197550000Y-59700000D03*
X186900000Y-113499999D03*
X197300000Y-80100000D03*
X201092000Y-113500000D03*
X197675000Y-101800000D03*
X177600000Y-137400000D03*
X177800000Y-121275000D03*
X201296866Y-122129663D03*
X199000000Y-122000000D03*
X205800000Y-127600000D03*
X205800000Y-129600000D03*
X200159354Y-122979451D03*
X198007925Y-122776750D03*
D31*
X204207233Y-96364999D02*
X192075000Y-96364999D01*
X206680000Y-97070000D02*
X204912234Y-97070000D01*
X204912234Y-97070000D02*
X204207233Y-96364999D01*
X193829999Y-54605000D02*
X192075000Y-56359999D01*
X206680000Y-54605000D02*
X193829999Y-54605000D01*
X194478001Y-76679999D02*
X192075000Y-76679999D01*
X194942999Y-76215001D02*
X194478001Y-76679999D01*
X206045000Y-77465000D02*
X204795001Y-76215001D01*
X204795001Y-76215001D02*
X194942999Y-76215001D01*
D32*
X196500000Y-132336000D02*
X194000000Y-134836000D01*
X208500000Y-132336000D02*
X196500000Y-132336000D01*
X194000000Y-133912000D02*
X194000000Y-134836000D01*
D33*
X117010000Y-74138000D02*
X117010000Y-91918000D01*
D32*
X166900000Y-118864010D02*
X166800000Y-118764010D01*
X166900000Y-125200000D02*
X166900000Y-118864010D01*
X168310000Y-126390000D02*
X164700000Y-130000000D01*
X168310000Y-118514000D02*
X168310000Y-126390000D01*
X187893000Y-122718000D02*
X187893000Y-120612000D01*
X187800000Y-126000000D02*
X187893000Y-122718000D01*
X204912234Y-59605000D02*
X206680000Y-59605000D01*
X184893000Y-118800000D02*
X188843000Y-118800000D01*
X160452000Y-107677000D02*
X154075000Y-101300000D01*
X160452000Y-115445000D02*
X160452000Y-107677000D01*
X156000000Y-128000000D02*
X156000000Y-121100000D01*
X179100000Y-129300000D02*
X179000000Y-129400000D01*
X179200000Y-124300000D02*
X179100000Y-129300000D01*
X118400000Y-97800000D02*
X124100000Y-97800000D01*
X197550000Y-61345002D02*
X184000000Y-74895002D01*
X197550000Y-59700000D02*
X197550000Y-61345002D01*
X184000000Y-74895002D02*
X184000000Y-86000000D01*
X171575000Y-86000000D02*
X168400001Y-89174999D01*
X184000000Y-86000000D02*
X171575000Y-86000000D01*
X168400001Y-89174999D02*
X168325001Y-89174999D01*
X168325001Y-89174999D02*
X167500000Y-90000000D01*
X167500000Y-114072000D02*
X166548000Y-115024000D01*
X167500000Y-90000000D02*
X167500000Y-114072000D01*
X186900000Y-92575000D02*
X186900000Y-113499999D01*
X197300000Y-80100000D02*
X186900000Y-92575000D01*
X197675000Y-110083000D02*
X201092000Y-113500000D01*
X197675000Y-101800000D02*
X197675000Y-110083000D01*
X179725001Y-131198003D02*
X177800000Y-129273002D01*
X179725001Y-135274999D02*
X179725001Y-131198003D01*
X177600000Y-137400000D02*
X179725001Y-135274999D01*
X177800000Y-129273002D02*
X177800000Y-121275000D01*
X201296866Y-122129663D02*
X199129663Y-122129663D01*
X199129663Y-122129663D02*
X199000000Y-122000000D01*
X205800000Y-127600000D02*
X205800000Y-129600000D01*
X200159354Y-122979451D02*
X198179451Y-122979451D01*
X198007925Y-122807925D02*
X198007925Y-122776750D01*
X198179451Y-122979451D02*
X198007925Y-122807925D01*
D34*
G36*
X208348001Y-57835568D02*
G01*
X208234712Y-57666019D01*
X207833981Y-57265288D01*
X207362771Y-56950435D01*
X206839190Y-56733561D01*
X206283360Y-56623000D01*
X205716640Y-56623000D01*
X205160810Y-56733561D01*
X204637229Y-56950435D01*
X204166019Y-57265288D01*
X203765288Y-57666019D01*
X203450435Y-58137229D01*
X203233561Y-58660810D01*
X203123000Y-59216640D01*
X203123000Y-59783360D01*
X203233561Y-60339190D01*
X203450435Y-60862771D01*
X203765288Y-61333981D01*
X204160055Y-61728748D01*
X204124362Y-61739575D01*
X203841714Y-61890654D01*
X203593971Y-62093971D01*
X203390654Y-62341714D01*
X203239575Y-62624362D01*
X203146542Y-62931052D01*
X203115128Y-63250000D01*
X203115128Y-65750000D01*
X203146542Y-66068948D01*
X203239575Y-66375638D01*
X203390654Y-66658286D01*
X203593971Y-66906029D01*
X203841714Y-67109346D01*
X204124362Y-67260425D01*
X204431052Y-67353458D01*
X204750000Y-67384872D01*
X207250000Y-67384872D01*
X207568948Y-67353458D01*
X207875638Y-67260425D01*
X208158286Y-67109346D01*
X208348001Y-66953651D01*
X208348001Y-80733220D01*
X208279712Y-80631019D01*
X207878981Y-80230288D01*
X207407771Y-79915435D01*
X206884190Y-79698561D01*
X206328360Y-79588000D01*
X205761640Y-79588000D01*
X205205810Y-79698561D01*
X204682229Y-79915435D01*
X204211019Y-80230288D01*
X203810288Y-80631019D01*
X203495435Y-81102229D01*
X203278561Y-81625810D01*
X203168000Y-82181640D01*
X203168000Y-82748360D01*
X203278561Y-83304190D01*
X203495435Y-83827771D01*
X203810288Y-84298981D01*
X204205055Y-84693748D01*
X204169362Y-84704575D01*
X203886714Y-84855654D01*
X203638971Y-85058971D01*
X203435654Y-85306714D01*
X203284575Y-85589362D01*
X203191542Y-85896052D01*
X203160128Y-86215000D01*
X203160128Y-88715000D01*
X203191542Y-89033948D01*
X203284575Y-89340638D01*
X203435654Y-89623286D01*
X203638971Y-89871029D01*
X203886714Y-90074346D01*
X204169362Y-90225425D01*
X204476052Y-90318458D01*
X204795000Y-90349872D01*
X207295000Y-90349872D01*
X207613948Y-90318458D01*
X207920638Y-90225425D01*
X208203286Y-90074346D01*
X208348001Y-89955582D01*
X208348000Y-100405567D01*
X208234712Y-100236019D01*
X207833981Y-99835288D01*
X207362771Y-99520435D01*
X206839190Y-99303561D01*
X206283360Y-99193000D01*
X205716640Y-99193000D01*
X205160810Y-99303561D01*
X204637229Y-99520435D01*
X204166019Y-99835288D01*
X203765288Y-100236019D01*
X203450435Y-100707229D01*
X203233561Y-101230810D01*
X203123000Y-101786640D01*
X203123000Y-102353360D01*
X203233561Y-102909190D01*
X203450435Y-103432771D01*
X203765288Y-103903981D01*
X204160055Y-104298748D01*
X204124362Y-104309575D01*
X203841714Y-104460654D01*
X203593971Y-104663971D01*
X203390654Y-104911714D01*
X203239575Y-105194362D01*
X203146542Y-105501052D01*
X203115128Y-105820000D01*
X203115128Y-108320000D01*
X203146542Y-108638948D01*
X203239575Y-108945638D01*
X203390654Y-109228286D01*
X203593971Y-109476029D01*
X203841714Y-109679346D01*
X204124362Y-109830425D01*
X204431052Y-109923458D01*
X204750000Y-109954872D01*
X207250000Y-109954872D01*
X207568948Y-109923458D01*
X207875638Y-109830425D01*
X208158286Y-109679346D01*
X208348000Y-109523652D01*
X208348000Y-127209000D01*
X208241263Y-127209000D01*
X207806152Y-127295549D01*
X207749104Y-127008746D01*
X207596304Y-126639855D01*
X207374474Y-126307863D01*
X207092137Y-126025526D01*
X206760145Y-125803696D01*
X206391254Y-125650896D01*
X205999642Y-125573000D01*
X205600358Y-125573000D01*
X205208746Y-125650896D01*
X204839855Y-125803696D01*
X204507863Y-126025526D01*
X204225526Y-126307863D01*
X204134872Y-126443536D01*
X204134872Y-125486000D01*
X204103458Y-125167052D01*
X204010425Y-124860362D01*
X203859346Y-124577714D01*
X203656029Y-124329971D01*
X203408286Y-124126654D01*
X203125638Y-123975575D01*
X202818948Y-123882542D01*
X202500000Y-123851128D01*
X202369015Y-123851128D01*
X202589003Y-123704137D01*
X202871340Y-123421800D01*
X203093170Y-123089808D01*
X203245970Y-122720917D01*
X203323866Y-122329305D01*
X203323866Y-121930021D01*
X203245970Y-121538409D01*
X203093170Y-121169518D01*
X202871340Y-120837526D01*
X202589003Y-120555189D01*
X202257011Y-120333359D01*
X201888120Y-120180559D01*
X201496508Y-120102663D01*
X201097224Y-120102663D01*
X200705612Y-120180559D01*
X200336721Y-120333359D01*
X200270415Y-120377663D01*
X200220505Y-120377663D01*
X199960145Y-120203696D01*
X199591254Y-120050896D01*
X199199642Y-119973000D01*
X198800358Y-119973000D01*
X198408746Y-120050896D01*
X198039855Y-120203696D01*
X197707863Y-120425526D01*
X197425526Y-120707863D01*
X197318249Y-120868414D01*
X197047780Y-120980446D01*
X196715788Y-121202276D01*
X196433451Y-121484613D01*
X196211621Y-121816605D01*
X196058821Y-122185496D01*
X195980925Y-122577108D01*
X195980925Y-122976392D01*
X196058821Y-123368004D01*
X196211621Y-123736895D01*
X196433451Y-124068887D01*
X196715788Y-124351224D01*
X197047780Y-124573054D01*
X197416671Y-124725854D01*
X197808283Y-124803750D01*
X198019835Y-124803750D01*
X197989575Y-124860362D01*
X197896542Y-125167052D01*
X197865128Y-125486000D01*
X197865128Y-127986000D01*
X197896542Y-128304948D01*
X197989575Y-128611638D01*
X198140654Y-128894286D01*
X198343971Y-129142029D01*
X198591714Y-129345346D01*
X198874362Y-129496425D01*
X199181052Y-129589458D01*
X199500000Y-129620872D01*
X202500000Y-129620872D01*
X202818948Y-129589458D01*
X203125638Y-129496425D01*
X203408286Y-129345346D01*
X203656029Y-129142029D01*
X203859346Y-128894286D01*
X204010425Y-128611638D01*
X204019067Y-128583149D01*
X204030326Y-128600000D01*
X204003696Y-128639855D01*
X203850896Y-129008746D01*
X203773000Y-129400358D01*
X203773000Y-129799642D01*
X203850896Y-130191254D01*
X204003696Y-130560145D01*
X204225526Y-130892137D01*
X204507863Y-131174474D01*
X204839855Y-131396304D01*
X205208746Y-131549104D01*
X205600358Y-131627000D01*
X205999642Y-131627000D01*
X206391254Y-131549104D01*
X206466710Y-131517849D01*
X206825385Y-131876524D01*
X207255649Y-132164017D01*
X207374972Y-132213442D01*
X207181052Y-132232542D01*
X206874362Y-132325575D01*
X206591714Y-132476654D01*
X206343971Y-132679971D01*
X206140654Y-132927714D01*
X205989575Y-133210362D01*
X205896542Y-133517052D01*
X205865128Y-133836000D01*
X205865128Y-135836000D01*
X205896542Y-136154948D01*
X205989575Y-136461638D01*
X206140654Y-136744286D01*
X206343971Y-136992029D01*
X206591714Y-137195346D01*
X206874362Y-137346425D01*
X207181052Y-137439458D01*
X207500000Y-137470872D01*
X208348000Y-137470872D01*
X208348000Y-139348000D01*
X204118916Y-139348000D01*
X204134872Y-139186000D01*
X204134872Y-136686000D01*
X204103458Y-136367052D01*
X204010425Y-136060362D01*
X203859346Y-135777714D01*
X203656029Y-135529971D01*
X203408286Y-135326654D01*
X203125638Y-135175575D01*
X202818948Y-135082542D01*
X202500000Y-135051128D01*
X199500000Y-135051128D01*
X199181052Y-135082542D01*
X198874362Y-135175575D01*
X198591714Y-135326654D01*
X198343971Y-135529971D01*
X198140654Y-135777714D01*
X197989575Y-136060362D01*
X197896542Y-136367052D01*
X197865128Y-136686000D01*
X197865128Y-139186000D01*
X197881084Y-139348000D01*
X178193919Y-139348000D01*
X178560145Y-139196304D01*
X178892137Y-138974474D01*
X179174474Y-138692137D01*
X179396304Y-138360145D01*
X179549104Y-137991254D01*
X179564662Y-137913040D01*
X180902994Y-136574708D01*
X180969846Y-136519844D01*
X181188784Y-136253068D01*
X181351470Y-135948704D01*
X181451651Y-135618451D01*
X181477001Y-135361068D01*
X181477001Y-135361058D01*
X181485477Y-135275000D01*
X181477001Y-135188942D01*
X181477001Y-131284072D01*
X181477832Y-131275631D01*
X181671983Y-131744351D01*
X181959476Y-132174615D01*
X182325385Y-132540524D01*
X182755649Y-132828017D01*
X183233732Y-133026046D01*
X183741263Y-133127000D01*
X184258737Y-133127000D01*
X184766268Y-133026046D01*
X185244351Y-132828017D01*
X185674615Y-132540524D01*
X186040524Y-132174615D01*
X186328017Y-131744351D01*
X186526046Y-131266268D01*
X186627000Y-130758737D01*
X186627000Y-130241263D01*
X187873000Y-130241263D01*
X187873000Y-130758737D01*
X187973954Y-131266268D01*
X188171983Y-131744351D01*
X188459476Y-132174615D01*
X188825385Y-132540524D01*
X189255649Y-132828017D01*
X189733732Y-133026046D01*
X190241263Y-133127000D01*
X190758737Y-133127000D01*
X191266268Y-133026046D01*
X191744351Y-132828017D01*
X192174615Y-132540524D01*
X192540524Y-132174615D01*
X192611820Y-132067913D01*
X192755649Y-132164017D01*
X193233732Y-132362046D01*
X193741263Y-132463000D01*
X194258737Y-132463000D01*
X194766268Y-132362046D01*
X195244351Y-132164017D01*
X195674615Y-131876524D01*
X196040524Y-131510615D01*
X196328017Y-131080351D01*
X196526046Y-130602268D01*
X196627000Y-130094737D01*
X196627000Y-129577263D01*
X196526046Y-129069732D01*
X196328017Y-128591649D01*
X196040524Y-128161385D01*
X195674615Y-127795476D01*
X195244351Y-127507983D01*
X194766268Y-127309954D01*
X194258737Y-127209000D01*
X193741263Y-127209000D01*
X193233732Y-127309954D01*
X192755649Y-127507983D01*
X192325385Y-127795476D01*
X191959476Y-128161385D01*
X191888180Y-128268087D01*
X191744351Y-128171983D01*
X191266268Y-127973954D01*
X190758737Y-127873000D01*
X190241263Y-127873000D01*
X189733732Y-127973954D01*
X189255649Y-128171983D01*
X188825385Y-128459476D01*
X188459476Y-128825385D01*
X188171983Y-129255649D01*
X187973954Y-129733732D01*
X187873000Y-130241263D01*
X186627000Y-130241263D01*
X186526046Y-129733732D01*
X186328017Y-129255649D01*
X186040524Y-128825385D01*
X185674615Y-128459476D01*
X185244351Y-128171983D01*
X184766268Y-127973954D01*
X184258737Y-127873000D01*
X183741263Y-127873000D01*
X183233732Y-127973954D01*
X182755649Y-128171983D01*
X182325385Y-128459476D01*
X181959476Y-128825385D01*
X181671983Y-129255649D01*
X181473954Y-129733732D01*
X181373000Y-130241263D01*
X181373000Y-130595273D01*
X181351470Y-130524298D01*
X181188784Y-130219934D01*
X180969846Y-129953158D01*
X180958529Y-129943870D01*
X181027000Y-129599642D01*
X181027000Y-129200358D01*
X180949104Y-128808746D01*
X180866179Y-128608547D01*
X180931198Y-125357583D01*
X180996304Y-125260145D01*
X181149104Y-124891254D01*
X181227000Y-124499642D01*
X181227000Y-124100358D01*
X181149104Y-123708746D01*
X180996304Y-123339855D01*
X180774474Y-123007863D01*
X180492137Y-122725526D01*
X180160145Y-122503696D01*
X179791254Y-122350896D01*
X179552000Y-122303306D01*
X179552000Y-122301451D01*
X179596304Y-122235145D01*
X179749104Y-121866254D01*
X179827000Y-121474642D01*
X179827000Y-121075358D01*
X179749104Y-120683746D01*
X179596304Y-120314855D01*
X179374474Y-119982863D01*
X179092137Y-119700526D01*
X178760145Y-119478696D01*
X178391254Y-119325896D01*
X177999642Y-119248000D01*
X177600358Y-119248000D01*
X177208746Y-119325896D01*
X176839855Y-119478696D01*
X176507863Y-119700526D01*
X176225526Y-119982863D01*
X176003696Y-120314855D01*
X175850896Y-120683746D01*
X175773000Y-121075358D01*
X175773000Y-121474642D01*
X175850896Y-121866254D01*
X176003696Y-122235145D01*
X176048001Y-122301452D01*
X176048000Y-129186941D01*
X176039524Y-129273002D01*
X176048000Y-129359063D01*
X176048000Y-129359070D01*
X176073350Y-129616453D01*
X176173531Y-129946706D01*
X176336217Y-130251070D01*
X176555155Y-130517847D01*
X176622008Y-130572712D01*
X177973002Y-131923706D01*
X177973001Y-134549297D01*
X177086960Y-135435338D01*
X177008746Y-135450896D01*
X176639855Y-135603696D01*
X176307863Y-135825526D01*
X176025526Y-136107863D01*
X175803696Y-136439855D01*
X175650896Y-136808746D01*
X175573000Y-137200358D01*
X175573000Y-137599642D01*
X175650896Y-137991254D01*
X175803696Y-138360145D01*
X176025526Y-138692137D01*
X176307863Y-138974474D01*
X176639855Y-139196304D01*
X177006081Y-139348000D01*
X174024296Y-139348000D01*
X174205174Y-139167122D01*
X174470779Y-138769615D01*
X174653732Y-138327930D01*
X174747000Y-137859039D01*
X174747000Y-137380961D01*
X174653732Y-136912070D01*
X174470779Y-136470385D01*
X174390341Y-136350000D01*
X174470779Y-136229615D01*
X174653732Y-135787930D01*
X174747000Y-135319039D01*
X174747000Y-134840961D01*
X174653732Y-134372070D01*
X174470779Y-133930385D01*
X174390341Y-133810000D01*
X174470779Y-133689615D01*
X174653732Y-133247930D01*
X174747000Y-132779039D01*
X174747000Y-132300961D01*
X174653732Y-131832070D01*
X174470779Y-131390385D01*
X174390341Y-131270000D01*
X174470779Y-131149615D01*
X174653732Y-130707930D01*
X174747000Y-130239039D01*
X174747000Y-129760961D01*
X174653732Y-129292070D01*
X174470779Y-128850385D01*
X174205174Y-128452878D01*
X173867122Y-128114826D01*
X173469615Y-127849221D01*
X173027930Y-127666268D01*
X172559039Y-127573000D01*
X172080961Y-127573000D01*
X171612070Y-127666268D01*
X171170385Y-127849221D01*
X170772878Y-128114826D01*
X170434826Y-128452878D01*
X170169221Y-128850385D01*
X169986268Y-129292070D01*
X169893000Y-129760961D01*
X169893000Y-130239039D01*
X169986268Y-130707930D01*
X170169221Y-131149615D01*
X170249659Y-131270000D01*
X170169221Y-131390385D01*
X169986268Y-131832070D01*
X169893000Y-132300961D01*
X169893000Y-132779039D01*
X169986268Y-133247930D01*
X170169221Y-133689615D01*
X170249659Y-133810000D01*
X170169221Y-133930385D01*
X169986268Y-134372070D01*
X169893000Y-134840961D01*
X169893000Y-135319039D01*
X169986268Y-135787930D01*
X170169221Y-136229615D01*
X170249659Y-136350000D01*
X170169221Y-136470385D01*
X169986268Y-136912070D01*
X169893000Y-137380961D01*
X169893000Y-137859039D01*
X169986268Y-138327930D01*
X170169221Y-138769615D01*
X170434826Y-139167122D01*
X170615704Y-139348000D01*
X166404296Y-139348000D01*
X166585174Y-139167122D01*
X166850779Y-138769615D01*
X167033732Y-138327930D01*
X167127000Y-137859039D01*
X167127000Y-137380961D01*
X167033732Y-136912070D01*
X166850779Y-136470385D01*
X166770341Y-136350000D01*
X166850779Y-136229615D01*
X167033732Y-135787930D01*
X167127000Y-135319039D01*
X167127000Y-134840961D01*
X167033732Y-134372070D01*
X166850779Y-133930385D01*
X166585174Y-133532878D01*
X166247122Y-133194826D01*
X165849615Y-132929221D01*
X165407930Y-132746268D01*
X164939039Y-132653000D01*
X164460961Y-132653000D01*
X163992070Y-132746268D01*
X163550385Y-132929221D01*
X163152878Y-133194826D01*
X162814826Y-133532878D01*
X162549221Y-133930385D01*
X162366268Y-134372070D01*
X162273000Y-134840961D01*
X162273000Y-135319039D01*
X162366268Y-135787930D01*
X162549221Y-136229615D01*
X162629659Y-136350000D01*
X162549221Y-136470385D01*
X162366268Y-136912070D01*
X162273000Y-137380961D01*
X162273000Y-137859039D01*
X162366268Y-138327930D01*
X162549221Y-138769615D01*
X162814826Y-139167122D01*
X162995704Y-139348000D01*
X149386012Y-139348000D01*
X149569639Y-139164373D01*
X149833055Y-138770142D01*
X150014500Y-138332096D01*
X150107000Y-137867069D01*
X150107000Y-137392931D01*
X150014500Y-136927904D01*
X149833055Y-136489858D01*
X149569639Y-136095627D01*
X149234373Y-135760361D01*
X148840142Y-135496945D01*
X148402096Y-135315500D01*
X147937069Y-135223000D01*
X147462931Y-135223000D01*
X146997904Y-135315500D01*
X146559858Y-135496945D01*
X146430000Y-135583713D01*
X146300142Y-135496945D01*
X145862096Y-135315500D01*
X145397069Y-135223000D01*
X144922931Y-135223000D01*
X144457904Y-135315500D01*
X144019858Y-135496945D01*
X143890000Y-135583713D01*
X143760142Y-135496945D01*
X143322096Y-135315500D01*
X142857069Y-135223000D01*
X142382931Y-135223000D01*
X141917904Y-135315500D01*
X141479858Y-135496945D01*
X141350000Y-135583713D01*
X141220142Y-135496945D01*
X140782096Y-135315500D01*
X140317069Y-135223000D01*
X139842931Y-135223000D01*
X139377904Y-135315500D01*
X138939858Y-135496945D01*
X138810000Y-135583713D01*
X138680142Y-135496945D01*
X138242096Y-135315500D01*
X137777069Y-135223000D01*
X137302931Y-135223000D01*
X136837904Y-135315500D01*
X136399858Y-135496945D01*
X136270000Y-135583713D01*
X136140142Y-135496945D01*
X135702096Y-135315500D01*
X135237069Y-135223000D01*
X134762931Y-135223000D01*
X134297904Y-135315500D01*
X133859858Y-135496945D01*
X133730000Y-135583713D01*
X133600142Y-135496945D01*
X133162096Y-135315500D01*
X132697069Y-135223000D01*
X132222931Y-135223000D01*
X131757904Y-135315500D01*
X131319858Y-135496945D01*
X131190000Y-135583713D01*
X131060142Y-135496945D01*
X130622096Y-135315500D01*
X130157069Y-135223000D01*
X129682931Y-135223000D01*
X129217904Y-135315500D01*
X128779858Y-135496945D01*
X128650000Y-135583713D01*
X128520142Y-135496945D01*
X128082096Y-135315500D01*
X127617069Y-135223000D01*
X127142931Y-135223000D01*
X126677904Y-135315500D01*
X126239858Y-135496945D01*
X126110000Y-135583713D01*
X125980142Y-135496945D01*
X125542096Y-135315500D01*
X125077069Y-135223000D01*
X124602931Y-135223000D01*
X124137904Y-135315500D01*
X123699858Y-135496945D01*
X123570000Y-135583713D01*
X123440142Y-135496945D01*
X123002096Y-135315500D01*
X122537069Y-135223000D01*
X122062931Y-135223000D01*
X121597904Y-135315500D01*
X121159858Y-135496945D01*
X121030000Y-135583713D01*
X120900142Y-135496945D01*
X120462096Y-135315500D01*
X119997069Y-135223000D01*
X119522931Y-135223000D01*
X119057904Y-135315500D01*
X118619858Y-135496945D01*
X118490000Y-135583713D01*
X118360142Y-135496945D01*
X117922096Y-135315500D01*
X117457069Y-135223000D01*
X116982931Y-135223000D01*
X116517904Y-135315500D01*
X116079858Y-135496945D01*
X115950000Y-135583713D01*
X115820142Y-135496945D01*
X115382096Y-135315500D01*
X114917069Y-135223000D01*
X114442931Y-135223000D01*
X113977904Y-135315500D01*
X113539858Y-135496945D01*
X113410000Y-135583713D01*
X113280142Y-135496945D01*
X112842096Y-135315500D01*
X112377069Y-135223000D01*
X111902931Y-135223000D01*
X111437904Y-135315500D01*
X110999858Y-135496945D01*
X110870000Y-135583713D01*
X110740142Y-135496945D01*
X110302096Y-135315500D01*
X109837069Y-135223000D01*
X109362931Y-135223000D01*
X108897904Y-135315500D01*
X108459858Y-135496945D01*
X108330000Y-135583713D01*
X108200142Y-135496945D01*
X107762096Y-135315500D01*
X107297069Y-135223000D01*
X106822931Y-135223000D01*
X106357904Y-135315500D01*
X105919858Y-135496945D01*
X105790000Y-135583713D01*
X105660142Y-135496945D01*
X105222096Y-135315500D01*
X104757069Y-135223000D01*
X104282931Y-135223000D01*
X103817904Y-135315500D01*
X103379858Y-135496945D01*
X103250000Y-135583713D01*
X103120142Y-135496945D01*
X102682096Y-135315500D01*
X102217069Y-135223000D01*
X101742931Y-135223000D01*
X101652000Y-135241087D01*
X101652000Y-120900358D01*
X153973000Y-120900358D01*
X153973000Y-121299642D01*
X154050896Y-121691254D01*
X154203696Y-122060145D01*
X154248001Y-122126452D01*
X154248000Y-126973549D01*
X154203696Y-127039855D01*
X154050896Y-127408746D01*
X153973000Y-127800358D01*
X153973000Y-128199642D01*
X154050896Y-128591254D01*
X154203696Y-128960145D01*
X154425526Y-129292137D01*
X154707863Y-129574474D01*
X155039855Y-129796304D01*
X155408746Y-129949104D01*
X155800358Y-130027000D01*
X156199642Y-130027000D01*
X156591254Y-129949104D01*
X156960145Y-129796304D01*
X157292137Y-129574474D01*
X157574474Y-129292137D01*
X157636037Y-129200000D01*
X162265128Y-129200000D01*
X162265128Y-130800000D01*
X162296542Y-131118948D01*
X162389575Y-131425638D01*
X162540654Y-131708286D01*
X162743971Y-131956029D01*
X162991714Y-132159346D01*
X163274362Y-132310425D01*
X163581052Y-132403458D01*
X163900000Y-132434872D01*
X165500000Y-132434872D01*
X165818948Y-132403458D01*
X166125638Y-132310425D01*
X166408286Y-132159346D01*
X166656029Y-131956029D01*
X166859346Y-131708286D01*
X167010425Y-131425638D01*
X167103458Y-131118948D01*
X167134872Y-130800000D01*
X167134872Y-130042830D01*
X169487997Y-127689706D01*
X169554845Y-127634845D01*
X169609705Y-127567998D01*
X169609711Y-127567992D01*
X169773783Y-127368069D01*
X169804846Y-127309954D01*
X169936469Y-127063705D01*
X170036650Y-126733452D01*
X170062000Y-126476069D01*
X170062000Y-126476061D01*
X170070476Y-126390000D01*
X170062000Y-126303939D01*
X170062000Y-119540451D01*
X170106304Y-119474145D01*
X170259104Y-119105254D01*
X170337000Y-118713642D01*
X170337000Y-118600358D01*
X182866000Y-118600358D01*
X182866000Y-118999642D01*
X182943896Y-119391254D01*
X183096696Y-119760145D01*
X183318526Y-120092137D01*
X183600863Y-120374474D01*
X183932855Y-120596304D01*
X184301746Y-120749104D01*
X184693358Y-120827000D01*
X185092642Y-120827000D01*
X185484254Y-120749104D01*
X185853145Y-120596304D01*
X185866000Y-120587715D01*
X185866000Y-120811642D01*
X185943896Y-121203254D01*
X186096696Y-121572145D01*
X186141001Y-121638451D01*
X186141000Y-122693187D01*
X186077640Y-124929189D01*
X186003696Y-125039855D01*
X185850896Y-125408746D01*
X185773000Y-125800358D01*
X185773000Y-126199642D01*
X185850896Y-126591254D01*
X186003696Y-126960145D01*
X186225526Y-127292137D01*
X186507863Y-127574474D01*
X186839855Y-127796304D01*
X187208746Y-127949104D01*
X187600358Y-128027000D01*
X187999642Y-128027000D01*
X188391254Y-127949104D01*
X188760145Y-127796304D01*
X189092137Y-127574474D01*
X189374474Y-127292137D01*
X189596304Y-126960145D01*
X189749104Y-126591254D01*
X189827000Y-126199642D01*
X189827000Y-125800358D01*
X189749104Y-125408746D01*
X189596304Y-125039855D01*
X189580577Y-125016318D01*
X189642562Y-122828822D01*
X189645000Y-122804069D01*
X189645000Y-122742786D01*
X189646734Y-122681592D01*
X189645000Y-122656806D01*
X189645000Y-121638451D01*
X189689304Y-121572145D01*
X189842104Y-121203254D01*
X189920000Y-120811642D01*
X189920000Y-120518224D01*
X190135137Y-120374474D01*
X190417474Y-120092137D01*
X190639304Y-119760145D01*
X190792104Y-119391254D01*
X190870000Y-118999642D01*
X190870000Y-118600358D01*
X190792104Y-118208746D01*
X190639304Y-117839855D01*
X190417474Y-117507863D01*
X190135137Y-117225526D01*
X189803145Y-117003696D01*
X189434254Y-116850896D01*
X189042642Y-116773000D01*
X188643358Y-116773000D01*
X188251746Y-116850896D01*
X187882855Y-117003696D01*
X187816549Y-117048000D01*
X185919451Y-117048000D01*
X185853145Y-117003696D01*
X185484254Y-116850896D01*
X185092642Y-116773000D01*
X184693358Y-116773000D01*
X184301746Y-116850896D01*
X183932855Y-117003696D01*
X183600863Y-117225526D01*
X183318526Y-117507863D01*
X183096696Y-117839855D01*
X182943896Y-118208746D01*
X182866000Y-118600358D01*
X170337000Y-118600358D01*
X170337000Y-118314358D01*
X170259104Y-117922746D01*
X170106304Y-117553855D01*
X169884474Y-117221863D01*
X169602137Y-116939526D01*
X169270145Y-116717696D01*
X168901254Y-116564896D01*
X168509642Y-116487000D01*
X168110358Y-116487000D01*
X167912194Y-116526417D01*
X168122474Y-116316137D01*
X168344304Y-115984145D01*
X168497104Y-115615254D01*
X168512662Y-115537040D01*
X168677987Y-115371714D01*
X168744845Y-115316845D01*
X168963783Y-115050069D01*
X169126469Y-114745705D01*
X169226650Y-114415452D01*
X169252000Y-114158069D01*
X169252000Y-114158059D01*
X169260476Y-114072001D01*
X169252000Y-113985943D01*
X169252000Y-113300357D01*
X184873000Y-113300357D01*
X184873000Y-113699641D01*
X184950896Y-114091253D01*
X185103696Y-114460144D01*
X185325526Y-114792136D01*
X185607863Y-115074473D01*
X185939855Y-115296303D01*
X186308746Y-115449103D01*
X186700358Y-115526999D01*
X187099642Y-115526999D01*
X187491254Y-115449103D01*
X187860145Y-115296303D01*
X188192137Y-115074473D01*
X188474474Y-114792136D01*
X188696304Y-114460144D01*
X188849104Y-114091253D01*
X188927000Y-113699641D01*
X188927000Y-113300357D01*
X188849104Y-112908745D01*
X188696304Y-112539854D01*
X188652000Y-112473548D01*
X188652000Y-99365000D01*
X189640128Y-99365000D01*
X189640128Y-100965000D01*
X189671542Y-101283948D01*
X189764575Y-101590638D01*
X189915654Y-101873286D01*
X190118971Y-102121029D01*
X190366714Y-102324346D01*
X190649362Y-102475425D01*
X190956052Y-102568458D01*
X191275000Y-102599872D01*
X192875000Y-102599872D01*
X193193948Y-102568458D01*
X193500638Y-102475425D01*
X193783286Y-102324346D01*
X194031029Y-102121029D01*
X194234346Y-101873286D01*
X194380229Y-101600358D01*
X195648000Y-101600358D01*
X195648000Y-101999642D01*
X195725896Y-102391254D01*
X195878696Y-102760145D01*
X195923000Y-102826451D01*
X195923001Y-109996929D01*
X195914524Y-110083000D01*
X195948350Y-110426451D01*
X196048532Y-110756705D01*
X196211217Y-111061068D01*
X196375289Y-111260991D01*
X196375296Y-111260998D01*
X196430156Y-111327845D01*
X196497003Y-111382705D01*
X199127338Y-114013040D01*
X199142896Y-114091254D01*
X199295696Y-114460145D01*
X199517526Y-114792137D01*
X199799863Y-115074474D01*
X200131855Y-115296304D01*
X200500746Y-115449104D01*
X200892358Y-115527000D01*
X201291642Y-115527000D01*
X201683254Y-115449104D01*
X202052145Y-115296304D01*
X202384137Y-115074474D01*
X202666474Y-114792137D01*
X202888304Y-114460145D01*
X203041104Y-114091254D01*
X203119000Y-113699642D01*
X203119000Y-113300358D01*
X203041104Y-112908746D01*
X202888304Y-112539855D01*
X202666474Y-112207863D01*
X202384137Y-111925526D01*
X202052145Y-111703696D01*
X201683254Y-111550896D01*
X201605040Y-111535338D01*
X199427000Y-109357298D01*
X199427000Y-102826451D01*
X199471304Y-102760145D01*
X199624104Y-102391254D01*
X199702000Y-101999642D01*
X199702000Y-101600358D01*
X199624104Y-101208746D01*
X199471304Y-100839855D01*
X199249474Y-100507863D01*
X198967137Y-100225526D01*
X198635145Y-100003696D01*
X198266254Y-99850896D01*
X197874642Y-99773000D01*
X197475358Y-99773000D01*
X197083746Y-99850896D01*
X196714855Y-100003696D01*
X196382863Y-100225526D01*
X196100526Y-100507863D01*
X195878696Y-100839855D01*
X195725896Y-101208746D01*
X195648000Y-101600358D01*
X194380229Y-101600358D01*
X194385425Y-101590638D01*
X194478458Y-101283948D01*
X194509872Y-100965000D01*
X194509872Y-99365000D01*
X194478458Y-99046052D01*
X194385425Y-98739362D01*
X194234346Y-98456714D01*
X194031029Y-98208971D01*
X193783286Y-98005654D01*
X193500638Y-97854575D01*
X193193948Y-97761542D01*
X192875000Y-97730128D01*
X191275000Y-97730128D01*
X190956052Y-97761542D01*
X190649362Y-97854575D01*
X190366714Y-98005654D01*
X190118971Y-98208971D01*
X189915654Y-98456714D01*
X189764575Y-98739362D01*
X189671542Y-99046052D01*
X189640128Y-99365000D01*
X188652000Y-99365000D01*
X188652000Y-93209506D01*
X197990246Y-82008100D01*
X198260145Y-81896304D01*
X198325000Y-81852969D01*
X198389855Y-81896304D01*
X198758746Y-82049104D01*
X199150358Y-82127000D01*
X199549642Y-82127000D01*
X199941254Y-82049104D01*
X200310145Y-81896304D01*
X200642137Y-81674474D01*
X200924474Y-81392137D01*
X201146304Y-81060145D01*
X201299104Y-80691254D01*
X201377000Y-80299642D01*
X201377000Y-79900358D01*
X201299104Y-79508746D01*
X201146304Y-79139855D01*
X200924474Y-78807863D01*
X200642137Y-78525526D01*
X200310145Y-78303696D01*
X199941254Y-78150896D01*
X199549642Y-78073000D01*
X199150358Y-78073000D01*
X198758746Y-78150896D01*
X198389855Y-78303696D01*
X198325000Y-78347031D01*
X198260145Y-78303696D01*
X197891254Y-78150896D01*
X197499642Y-78073000D01*
X197100358Y-78073000D01*
X196708746Y-78150896D01*
X196339855Y-78303696D01*
X196007863Y-78525526D01*
X195725526Y-78807863D01*
X195503696Y-79139855D01*
X195350896Y-79508746D01*
X195300430Y-79762459D01*
X194509872Y-80710748D01*
X194509872Y-79680000D01*
X194478458Y-79361052D01*
X194385425Y-79054362D01*
X194234346Y-78771714D01*
X194031029Y-78523971D01*
X193783286Y-78320654D01*
X193500638Y-78169575D01*
X193193948Y-78076542D01*
X192875000Y-78045128D01*
X191275000Y-78045128D01*
X190956052Y-78076542D01*
X190649362Y-78169575D01*
X190366714Y-78320654D01*
X190118971Y-78523971D01*
X189915654Y-78771714D01*
X189764575Y-79054362D01*
X189671542Y-79361052D01*
X189640128Y-79680000D01*
X189640128Y-81280000D01*
X189671542Y-81598948D01*
X189764575Y-81905638D01*
X189915654Y-82188286D01*
X190118971Y-82436029D01*
X190366714Y-82639346D01*
X190649362Y-82790425D01*
X190956052Y-82883458D01*
X191275000Y-82914872D01*
X192672366Y-82914872D01*
X185660426Y-91325829D01*
X185655155Y-91330155D01*
X185549971Y-91458322D01*
X185499185Y-91519241D01*
X185495380Y-91524842D01*
X185436217Y-91596932D01*
X185398640Y-91667234D01*
X185353844Y-91733169D01*
X185317493Y-91819049D01*
X185273531Y-91901296D01*
X185250391Y-91977578D01*
X185219320Y-92050984D01*
X185200422Y-92142305D01*
X185173350Y-92231549D01*
X185165537Y-92310879D01*
X185149383Y-92388938D01*
X185148664Y-92482191D01*
X185148000Y-92488932D01*
X185148000Y-92568297D01*
X185146722Y-92734040D01*
X185148000Y-92740734D01*
X185148001Y-112473547D01*
X185103696Y-112539854D01*
X184950896Y-112908745D01*
X184873000Y-113300357D01*
X169252000Y-113300357D01*
X169252000Y-100992017D01*
X173548000Y-100992017D01*
X173548000Y-101607983D01*
X173668169Y-102212112D01*
X173903889Y-102781190D01*
X174246101Y-103293346D01*
X174681654Y-103728899D01*
X175193810Y-104071111D01*
X175762888Y-104306831D01*
X176367017Y-104427000D01*
X176982983Y-104427000D01*
X177587112Y-104306831D01*
X178156190Y-104071111D01*
X178668346Y-103728899D01*
X179103899Y-103293346D01*
X179446111Y-102781190D01*
X179681831Y-102212112D01*
X179802000Y-101607983D01*
X179802000Y-100992017D01*
X179681831Y-100387888D01*
X179446111Y-99818810D01*
X179103899Y-99306654D01*
X178668346Y-98871101D01*
X178156190Y-98528889D01*
X177587112Y-98293169D01*
X176982983Y-98173000D01*
X176367017Y-98173000D01*
X175762888Y-98293169D01*
X175193810Y-98528889D01*
X174681654Y-98871101D01*
X174246101Y-99306654D01*
X173903889Y-99818810D01*
X173668169Y-100387888D01*
X173548000Y-100992017D01*
X169252000Y-100992017D01*
X169252000Y-90725701D01*
X169293963Y-90683738D01*
X169378070Y-90638782D01*
X169644846Y-90419844D01*
X169699713Y-90352989D01*
X172300702Y-87752000D01*
X183913932Y-87752000D01*
X184000000Y-87760477D01*
X184343452Y-87726650D01*
X184673705Y-87626469D01*
X184978069Y-87463783D01*
X185244845Y-87244845D01*
X185463783Y-86978069D01*
X185626469Y-86673705D01*
X185726650Y-86343452D01*
X185752000Y-86086069D01*
X185760477Y-86000000D01*
X185752000Y-85913931D01*
X185752000Y-75620704D01*
X198727992Y-62644712D01*
X198794845Y-62589847D01*
X198892853Y-62470425D01*
X199013783Y-62323071D01*
X199124449Y-62116029D01*
X199176469Y-62018707D01*
X199276650Y-61688454D01*
X199302000Y-61431071D01*
X199302000Y-61431063D01*
X199310476Y-61345002D01*
X199302000Y-61258941D01*
X199302000Y-60726451D01*
X199346304Y-60660145D01*
X199499104Y-60291254D01*
X199577000Y-59899642D01*
X199577000Y-59500358D01*
X199499104Y-59108746D01*
X199346304Y-58739855D01*
X199124474Y-58407863D01*
X198842137Y-58125526D01*
X198510145Y-57903696D01*
X198141254Y-57750896D01*
X197749642Y-57673000D01*
X197350358Y-57673000D01*
X196958746Y-57750896D01*
X196589855Y-57903696D01*
X196257863Y-58125526D01*
X195975526Y-58407863D01*
X195753696Y-58739855D01*
X195600896Y-59108746D01*
X195523000Y-59500358D01*
X195523000Y-59899642D01*
X195600896Y-60291254D01*
X195753696Y-60660145D01*
X195755081Y-60662219D01*
X182822008Y-73595292D01*
X182755155Y-73650157D01*
X182700291Y-73717009D01*
X182700289Y-73717011D01*
X182536218Y-73916933D01*
X182536217Y-73916934D01*
X182373531Y-74221298D01*
X182273350Y-74551551D01*
X182248000Y-74808934D01*
X182248000Y-74808941D01*
X182239524Y-74895002D01*
X182248000Y-74981063D01*
X182248001Y-84248000D01*
X171661061Y-84248000D01*
X171575000Y-84239524D01*
X171488939Y-84248000D01*
X171488931Y-84248000D01*
X171231548Y-84273350D01*
X170901295Y-84373531D01*
X170596931Y-84536217D01*
X170330155Y-84755155D01*
X170275290Y-84822008D01*
X167431037Y-87666261D01*
X167346932Y-87711216D01*
X167080156Y-87930154D01*
X167025287Y-87997012D01*
X166322009Y-88700289D01*
X166255155Y-88755155D01*
X166200291Y-88822007D01*
X166200289Y-88822009D01*
X166192461Y-88831548D01*
X166036217Y-89021932D01*
X165873531Y-89326296D01*
X165773350Y-89656549D01*
X165748000Y-89913932D01*
X165748000Y-89913939D01*
X165739524Y-90000000D01*
X165748000Y-90086061D01*
X165748001Y-113161361D01*
X165587855Y-113227696D01*
X165255863Y-113449526D01*
X164973526Y-113731863D01*
X164751696Y-114063855D01*
X164598896Y-114432746D01*
X164521000Y-114824358D01*
X164521000Y-115223642D01*
X164598896Y-115615254D01*
X164751696Y-115984145D01*
X164973526Y-116316137D01*
X165255863Y-116598474D01*
X165587855Y-116820304D01*
X165891785Y-116946196D01*
X165839855Y-116967706D01*
X165507863Y-117189536D01*
X165225526Y-117471873D01*
X165003696Y-117803865D01*
X164850896Y-118172756D01*
X164773000Y-118564368D01*
X164773000Y-118963652D01*
X164850896Y-119355264D01*
X165003696Y-119724155D01*
X165148001Y-119940122D01*
X165148000Y-124173549D01*
X165103696Y-124239855D01*
X164950896Y-124608746D01*
X164873000Y-125000358D01*
X164873000Y-125399642D01*
X164950896Y-125791254D01*
X165103696Y-126160145D01*
X165325526Y-126492137D01*
X165527843Y-126694454D01*
X164657170Y-127565128D01*
X163900000Y-127565128D01*
X163581052Y-127596542D01*
X163274362Y-127689575D01*
X162991714Y-127840654D01*
X162743971Y-128043971D01*
X162540654Y-128291714D01*
X162389575Y-128574362D01*
X162296542Y-128881052D01*
X162265128Y-129200000D01*
X157636037Y-129200000D01*
X157796304Y-128960145D01*
X157949104Y-128591254D01*
X158027000Y-128199642D01*
X158027000Y-127800358D01*
X157949104Y-127408746D01*
X157796304Y-127039855D01*
X157752000Y-126973549D01*
X157752000Y-122126451D01*
X157796304Y-122060145D01*
X157949104Y-121691254D01*
X158027000Y-121299642D01*
X158027000Y-120900358D01*
X157949104Y-120508746D01*
X157796304Y-120139855D01*
X157574474Y-119807863D01*
X157292137Y-119525526D01*
X156960145Y-119303696D01*
X156591254Y-119150896D01*
X156199642Y-119073000D01*
X155800358Y-119073000D01*
X155408746Y-119150896D01*
X155039855Y-119303696D01*
X154707863Y-119525526D01*
X154425526Y-119807863D01*
X154203696Y-120139855D01*
X154050896Y-120508746D01*
X153973000Y-120900358D01*
X101652000Y-120900358D01*
X101652000Y-114618913D01*
X101742931Y-114637000D01*
X102217069Y-114637000D01*
X102682096Y-114544500D01*
X103120142Y-114363055D01*
X103250000Y-114276287D01*
X103379858Y-114363055D01*
X103817904Y-114544500D01*
X104282931Y-114637000D01*
X104757069Y-114637000D01*
X105222096Y-114544500D01*
X105660142Y-114363055D01*
X105790000Y-114276287D01*
X105919858Y-114363055D01*
X106357904Y-114544500D01*
X106822931Y-114637000D01*
X107297069Y-114637000D01*
X107762096Y-114544500D01*
X108200142Y-114363055D01*
X108330000Y-114276287D01*
X108459858Y-114363055D01*
X108897904Y-114544500D01*
X109362931Y-114637000D01*
X109837069Y-114637000D01*
X110302096Y-114544500D01*
X110740142Y-114363055D01*
X110870000Y-114276287D01*
X110999858Y-114363055D01*
X111437904Y-114544500D01*
X111902931Y-114637000D01*
X112377069Y-114637000D01*
X112842096Y-114544500D01*
X113280142Y-114363055D01*
X113674373Y-114099639D01*
X114009639Y-113764373D01*
X114273055Y-113370142D01*
X114454500Y-112932096D01*
X114547000Y-112467069D01*
X114547000Y-111992931D01*
X114813000Y-111992931D01*
X114813000Y-112467069D01*
X114905500Y-112932096D01*
X115086945Y-113370142D01*
X115350361Y-113764373D01*
X115685627Y-114099639D01*
X116079858Y-114363055D01*
X116517904Y-114544500D01*
X116982931Y-114637000D01*
X117457069Y-114637000D01*
X117922096Y-114544500D01*
X118360142Y-114363055D01*
X118490000Y-114276287D01*
X118619858Y-114363055D01*
X119057904Y-114544500D01*
X119522931Y-114637000D01*
X119997069Y-114637000D01*
X120462096Y-114544500D01*
X120900142Y-114363055D01*
X121030000Y-114276287D01*
X121159858Y-114363055D01*
X121597904Y-114544500D01*
X122062931Y-114637000D01*
X122537069Y-114637000D01*
X123002096Y-114544500D01*
X123440142Y-114363055D01*
X123570000Y-114276287D01*
X123699858Y-114363055D01*
X124137904Y-114544500D01*
X124602931Y-114637000D01*
X125077069Y-114637000D01*
X125542096Y-114544500D01*
X125980142Y-114363055D01*
X126110000Y-114276287D01*
X126239858Y-114363055D01*
X126677904Y-114544500D01*
X127142931Y-114637000D01*
X127617069Y-114637000D01*
X128082096Y-114544500D01*
X128520142Y-114363055D01*
X128650000Y-114276287D01*
X128779858Y-114363055D01*
X129217904Y-114544500D01*
X129682931Y-114637000D01*
X130157069Y-114637000D01*
X130622096Y-114544500D01*
X131060142Y-114363055D01*
X131190000Y-114276287D01*
X131319858Y-114363055D01*
X131757904Y-114544500D01*
X132222931Y-114637000D01*
X132697069Y-114637000D01*
X133162096Y-114544500D01*
X133600142Y-114363055D01*
X133730000Y-114276287D01*
X133859858Y-114363055D01*
X134297904Y-114544500D01*
X134762931Y-114637000D01*
X135237069Y-114637000D01*
X135702096Y-114544500D01*
X136140142Y-114363055D01*
X136270000Y-114276287D01*
X136399858Y-114363055D01*
X136837904Y-114544500D01*
X137302931Y-114637000D01*
X137777069Y-114637000D01*
X138242096Y-114544500D01*
X138680142Y-114363055D01*
X138810000Y-114276287D01*
X138939858Y-114363055D01*
X139377904Y-114544500D01*
X139842931Y-114637000D01*
X140317069Y-114637000D01*
X140782096Y-114544500D01*
X141220142Y-114363055D01*
X141350000Y-114276287D01*
X141479858Y-114363055D01*
X141917904Y-114544500D01*
X142382931Y-114637000D01*
X142857069Y-114637000D01*
X143322096Y-114544500D01*
X143760142Y-114363055D01*
X143890000Y-114276287D01*
X144019858Y-114363055D01*
X144457904Y-114544500D01*
X144922931Y-114637000D01*
X145397069Y-114637000D01*
X145862096Y-114544500D01*
X146131011Y-114433112D01*
X146294362Y-114520425D01*
X146601052Y-114613458D01*
X146920000Y-114644872D01*
X148480000Y-114644872D01*
X148798948Y-114613458D01*
X149105638Y-114520425D01*
X149388286Y-114369346D01*
X149636029Y-114166029D01*
X149839346Y-113918286D01*
X149990425Y-113635638D01*
X150083458Y-113328948D01*
X150114872Y-113010000D01*
X150114872Y-111450000D01*
X150083458Y-111131052D01*
X149990425Y-110824362D01*
X149839346Y-110541714D01*
X149636029Y-110293971D01*
X149388286Y-110090654D01*
X149105638Y-109939575D01*
X148798948Y-109846542D01*
X148480000Y-109815128D01*
X146920000Y-109815128D01*
X146601052Y-109846542D01*
X146294362Y-109939575D01*
X146131011Y-110026888D01*
X145862096Y-109915500D01*
X145397069Y-109823000D01*
X144922931Y-109823000D01*
X144457904Y-109915500D01*
X144019858Y-110096945D01*
X143890000Y-110183713D01*
X143760142Y-110096945D01*
X143322096Y-109915500D01*
X142857069Y-109823000D01*
X142382931Y-109823000D01*
X141917904Y-109915500D01*
X141479858Y-110096945D01*
X141350000Y-110183713D01*
X141220142Y-110096945D01*
X140782096Y-109915500D01*
X140317069Y-109823000D01*
X140165838Y-109823000D01*
X140355638Y-109765425D01*
X140638286Y-109614346D01*
X140886029Y-109411029D01*
X141089346Y-109163286D01*
X141240425Y-108880638D01*
X141333458Y-108573948D01*
X141364872Y-108255000D01*
X141364872Y-105055000D01*
X141333458Y-104736052D01*
X141240425Y-104429362D01*
X141089346Y-104146714D01*
X140886029Y-103898971D01*
X140638286Y-103695654D01*
X140355638Y-103544575D01*
X140048948Y-103451542D01*
X139730000Y-103420128D01*
X137430000Y-103420128D01*
X137310000Y-103431947D01*
X137190000Y-103420128D01*
X134890000Y-103420128D01*
X134571052Y-103451542D01*
X134264362Y-103544575D01*
X133981714Y-103695654D01*
X133733971Y-103898971D01*
X133530654Y-104146714D01*
X133379575Y-104429362D01*
X133286542Y-104736052D01*
X133255128Y-105055000D01*
X133255128Y-108255000D01*
X133286542Y-108573948D01*
X133379575Y-108880638D01*
X133530654Y-109163286D01*
X133733971Y-109411029D01*
X133981714Y-109614346D01*
X134264362Y-109765425D01*
X134571052Y-109858458D01*
X134580162Y-109859355D01*
X134297904Y-109915500D01*
X133859858Y-110096945D01*
X133730000Y-110183713D01*
X133600142Y-110096945D01*
X133162096Y-109915500D01*
X132697069Y-109823000D01*
X132222931Y-109823000D01*
X131757904Y-109915500D01*
X131319858Y-110096945D01*
X131190000Y-110183713D01*
X131060142Y-110096945D01*
X130622096Y-109915500D01*
X130157069Y-109823000D01*
X129682931Y-109823000D01*
X129217904Y-109915500D01*
X128779858Y-110096945D01*
X128650000Y-110183713D01*
X128520142Y-110096945D01*
X128082096Y-109915500D01*
X127617069Y-109823000D01*
X127142931Y-109823000D01*
X126677904Y-109915500D01*
X126239858Y-110096945D01*
X126110000Y-110183713D01*
X125980142Y-110096945D01*
X125542096Y-109915500D01*
X125077069Y-109823000D01*
X124602931Y-109823000D01*
X124137904Y-109915500D01*
X123699858Y-110096945D01*
X123570000Y-110183713D01*
X123440142Y-110096945D01*
X123002096Y-109915500D01*
X122537069Y-109823000D01*
X122062931Y-109823000D01*
X121597904Y-109915500D01*
X121159858Y-110096945D01*
X121030000Y-110183713D01*
X120900142Y-110096945D01*
X120462096Y-109915500D01*
X119997069Y-109823000D01*
X119522931Y-109823000D01*
X119057904Y-109915500D01*
X118619858Y-110096945D01*
X118490000Y-110183713D01*
X118360142Y-110096945D01*
X117922096Y-109915500D01*
X117457069Y-109823000D01*
X116982931Y-109823000D01*
X116517904Y-109915500D01*
X116079858Y-110096945D01*
X115685627Y-110360361D01*
X115350361Y-110695627D01*
X115086945Y-111089858D01*
X114905500Y-111527904D01*
X114813000Y-111992931D01*
X114547000Y-111992931D01*
X114454500Y-111527904D01*
X114273055Y-111089858D01*
X114009639Y-110695627D01*
X113674373Y-110360361D01*
X113411734Y-110184872D01*
X114700000Y-110184872D01*
X115018948Y-110153458D01*
X115325638Y-110060425D01*
X115608286Y-109909346D01*
X115856029Y-109706029D01*
X116059346Y-109458286D01*
X116210425Y-109175638D01*
X116303458Y-108868948D01*
X116334872Y-108550000D01*
X116334872Y-106250000D01*
X116303458Y-105931052D01*
X116210425Y-105624362D01*
X116059346Y-105341714D01*
X115856029Y-105093971D01*
X115608286Y-104890654D01*
X115325638Y-104739575D01*
X115018948Y-104646542D01*
X114700000Y-104615128D01*
X112900000Y-104615128D01*
X112581052Y-104646542D01*
X112274362Y-104739575D01*
X111991714Y-104890654D01*
X111743971Y-105093971D01*
X111540654Y-105341714D01*
X111389575Y-105624362D01*
X111296542Y-105931052D01*
X111265128Y-106250000D01*
X111265128Y-108550000D01*
X111296542Y-108868948D01*
X111389575Y-109175638D01*
X111540654Y-109458286D01*
X111743971Y-109706029D01*
X111889706Y-109825631D01*
X111437904Y-109915500D01*
X110999858Y-110096945D01*
X110870000Y-110183713D01*
X110740142Y-110096945D01*
X110302096Y-109915500D01*
X109837069Y-109823000D01*
X109362931Y-109823000D01*
X108916130Y-109911875D01*
X109106029Y-109756029D01*
X109309346Y-109508286D01*
X109460425Y-109225638D01*
X109553458Y-108918948D01*
X109584872Y-108600000D01*
X109584872Y-107200000D01*
X109553458Y-106881052D01*
X109460425Y-106574362D01*
X109309346Y-106291714D01*
X109106029Y-106043971D01*
X108858286Y-105840654D01*
X108575638Y-105689575D01*
X108268948Y-105596542D01*
X107950000Y-105565128D01*
X105850000Y-105565128D01*
X105531052Y-105596542D01*
X105224362Y-105689575D01*
X104941714Y-105840654D01*
X104693971Y-106043971D01*
X104490654Y-106291714D01*
X104339575Y-106574362D01*
X104246542Y-106881052D01*
X104215128Y-107200000D01*
X104215128Y-108600000D01*
X104246542Y-108918948D01*
X104339575Y-109225638D01*
X104490654Y-109508286D01*
X104693971Y-109756029D01*
X104781496Y-109827859D01*
X104757069Y-109823000D01*
X104282931Y-109823000D01*
X103817904Y-109915500D01*
X103379858Y-110096945D01*
X103250000Y-110183713D01*
X103120142Y-110096945D01*
X102682096Y-109915500D01*
X102217069Y-109823000D01*
X101742931Y-109823000D01*
X101652000Y-109841087D01*
X101652000Y-99600000D01*
X106615128Y-99600000D01*
X106615128Y-101400000D01*
X106646542Y-101718948D01*
X106739575Y-102025638D01*
X106890654Y-102308286D01*
X107093971Y-102556029D01*
X107341714Y-102759346D01*
X107624362Y-102910425D01*
X107931052Y-103003458D01*
X108250000Y-103034872D01*
X110550000Y-103034872D01*
X110868948Y-103003458D01*
X111175638Y-102910425D01*
X111458286Y-102759346D01*
X111706029Y-102556029D01*
X111909346Y-102308286D01*
X112060425Y-102025638D01*
X112153458Y-101718948D01*
X112184872Y-101400000D01*
X112184872Y-100992017D01*
X150948000Y-100992017D01*
X150948000Y-101607983D01*
X151068169Y-102212112D01*
X151303889Y-102781190D01*
X151646101Y-103293346D01*
X152081654Y-103728899D01*
X152593810Y-104071111D01*
X153162888Y-104306831D01*
X153767017Y-104427000D01*
X154382983Y-104427000D01*
X154667670Y-104370372D01*
X158700001Y-108402704D01*
X158700000Y-113481861D01*
X158411476Y-113770385D01*
X158123983Y-114200649D01*
X157925954Y-114678732D01*
X157825000Y-115186263D01*
X157825000Y-115703737D01*
X157925954Y-116211268D01*
X158123983Y-116689351D01*
X158411476Y-117119615D01*
X158777385Y-117485524D01*
X159207649Y-117773017D01*
X159685732Y-117971046D01*
X160193263Y-118072000D01*
X160710737Y-118072000D01*
X161218268Y-117971046D01*
X161696351Y-117773017D01*
X162126615Y-117485524D01*
X162492524Y-117119615D01*
X162780017Y-116689351D01*
X162978046Y-116211268D01*
X163079000Y-115703737D01*
X163079000Y-115186263D01*
X162978046Y-114678732D01*
X162780017Y-114200649D01*
X162492524Y-113770385D01*
X162204000Y-113481861D01*
X162204000Y-107763061D01*
X162212476Y-107677000D01*
X162204000Y-107590939D01*
X162204000Y-107590931D01*
X162178650Y-107333548D01*
X162078469Y-107003295D01*
X161915783Y-106698931D01*
X161813552Y-106574362D01*
X161751711Y-106499008D01*
X161751705Y-106499002D01*
X161696845Y-106432155D01*
X161629998Y-106377295D01*
X157145372Y-101892670D01*
X157202000Y-101607983D01*
X157202000Y-100992017D01*
X157081831Y-100387888D01*
X156846111Y-99818810D01*
X156503899Y-99306654D01*
X156068346Y-98871101D01*
X155556190Y-98528889D01*
X154987112Y-98293169D01*
X154382983Y-98173000D01*
X153767017Y-98173000D01*
X153162888Y-98293169D01*
X152593810Y-98528889D01*
X152081654Y-98871101D01*
X151646101Y-99306654D01*
X151303889Y-99818810D01*
X151068169Y-100387888D01*
X150948000Y-100992017D01*
X112184872Y-100992017D01*
X112184872Y-100052038D01*
X112358286Y-99959346D01*
X112606029Y-99756029D01*
X112809346Y-99508286D01*
X112960425Y-99225638D01*
X113053458Y-98918948D01*
X113084872Y-98600000D01*
X113084872Y-97600358D01*
X116373000Y-97600358D01*
X116373000Y-97999642D01*
X116450896Y-98391254D01*
X116603696Y-98760145D01*
X116825526Y-99092137D01*
X117107863Y-99374474D01*
X117439855Y-99596304D01*
X117808746Y-99749104D01*
X118200358Y-99827000D01*
X118599642Y-99827000D01*
X118991254Y-99749104D01*
X119360145Y-99596304D01*
X119426451Y-99552000D01*
X123073549Y-99552000D01*
X123139855Y-99596304D01*
X123508746Y-99749104D01*
X123900358Y-99827000D01*
X124299642Y-99827000D01*
X124691254Y-99749104D01*
X125060145Y-99596304D01*
X125392137Y-99374474D01*
X125674474Y-99092137D01*
X125896304Y-98760145D01*
X126049104Y-98391254D01*
X126127000Y-97999642D01*
X126127000Y-97600358D01*
X126049104Y-97208746D01*
X125896304Y-96839855D01*
X125674474Y-96507863D01*
X125392137Y-96225526D01*
X125060145Y-96003696D01*
X124691254Y-95850896D01*
X124299642Y-95773000D01*
X123900358Y-95773000D01*
X123508746Y-95850896D01*
X123139855Y-96003696D01*
X123073549Y-96048000D01*
X119426451Y-96048000D01*
X119360145Y-96003696D01*
X118991254Y-95850896D01*
X118599642Y-95773000D01*
X118200358Y-95773000D01*
X117808746Y-95850896D01*
X117439855Y-96003696D01*
X117107863Y-96225526D01*
X116825526Y-96507863D01*
X116603696Y-96839855D01*
X116450896Y-97208746D01*
X116373000Y-97600358D01*
X113084872Y-97600358D01*
X113084872Y-97200000D01*
X113053458Y-96881052D01*
X112960425Y-96574362D01*
X112809346Y-96291714D01*
X112606029Y-96043971D01*
X112358286Y-95840654D01*
X112075638Y-95689575D01*
X111768948Y-95596542D01*
X111450000Y-95565128D01*
X109350000Y-95565128D01*
X109031052Y-95596542D01*
X108724362Y-95689575D01*
X108441714Y-95840654D01*
X108193971Y-96043971D01*
X107990654Y-96291714D01*
X107839575Y-96574362D01*
X107746542Y-96881052D01*
X107715128Y-97200000D01*
X107715128Y-98062042D01*
X107624362Y-98089575D01*
X107341714Y-98240654D01*
X107093971Y-98443971D01*
X106890654Y-98691714D01*
X106739575Y-98974362D01*
X106646542Y-99281052D01*
X106615128Y-99600000D01*
X101652000Y-99600000D01*
X101652000Y-80250000D01*
X101945128Y-80250000D01*
X101945128Y-83250000D01*
X101976542Y-83568948D01*
X102069575Y-83875638D01*
X102220654Y-84158286D01*
X102423971Y-84406029D01*
X102671714Y-84609346D01*
X102954362Y-84760425D01*
X103261052Y-84853458D01*
X103580000Y-84884872D01*
X106580000Y-84884872D01*
X106898948Y-84853458D01*
X107205638Y-84760425D01*
X107488286Y-84609346D01*
X107736029Y-84406029D01*
X107939346Y-84158286D01*
X108090425Y-83875638D01*
X108183458Y-83568948D01*
X108214872Y-83250000D01*
X108214872Y-80250000D01*
X108183458Y-79931052D01*
X108090425Y-79624362D01*
X107939346Y-79341714D01*
X107736029Y-79093971D01*
X107488286Y-78890654D01*
X107205638Y-78739575D01*
X106898948Y-78646542D01*
X106580000Y-78615128D01*
X103580000Y-78615128D01*
X103261052Y-78646542D01*
X102954362Y-78739575D01*
X102671714Y-78890654D01*
X102423971Y-79093971D01*
X102220654Y-79341714D01*
X102069575Y-79624362D01*
X101976542Y-79931052D01*
X101945128Y-80250000D01*
X101652000Y-80250000D01*
X101652000Y-69285000D01*
X114400128Y-69285000D01*
X114400128Y-71235000D01*
X114431542Y-71553948D01*
X114524575Y-71860638D01*
X114675654Y-72143286D01*
X114878971Y-72391029D01*
X115126714Y-72594346D01*
X115409362Y-72745425D01*
X115506498Y-72774891D01*
X115435526Y-72845863D01*
X115213696Y-73177855D01*
X115060896Y-73546746D01*
X114983000Y-73938358D01*
X114983000Y-74337642D01*
X115060896Y-74729254D01*
X115133000Y-74903328D01*
X115133001Y-91152670D01*
X115060896Y-91326746D01*
X114983000Y-91718358D01*
X114983000Y-92117642D01*
X115060896Y-92509254D01*
X115213696Y-92878145D01*
X115435526Y-93210137D01*
X115717863Y-93492474D01*
X116049855Y-93714304D01*
X116418746Y-93867104D01*
X116810358Y-93945000D01*
X117209642Y-93945000D01*
X117601254Y-93867104D01*
X117970145Y-93714304D01*
X118302137Y-93492474D01*
X118584474Y-93210137D01*
X118806304Y-92878145D01*
X118959104Y-92509254D01*
X119037000Y-92117642D01*
X119037000Y-91718358D01*
X118959104Y-91326746D01*
X118887000Y-91152672D01*
X118887000Y-79300000D01*
X121515128Y-79300000D01*
X121515128Y-86300000D01*
X121546542Y-86618948D01*
X121639575Y-86925638D01*
X121790654Y-87208286D01*
X121993971Y-87456029D01*
X122241714Y-87659346D01*
X122524362Y-87810425D01*
X122831052Y-87903458D01*
X123150000Y-87934872D01*
X125650000Y-87934872D01*
X125968948Y-87903458D01*
X126275638Y-87810425D01*
X126558286Y-87659346D01*
X126806029Y-87456029D01*
X127009346Y-87208286D01*
X127160425Y-86925638D01*
X127253458Y-86618948D01*
X127284872Y-86300000D01*
X127284872Y-79300000D01*
X128515128Y-79300000D01*
X128515128Y-86300000D01*
X128546542Y-86618948D01*
X128639575Y-86925638D01*
X128790654Y-87208286D01*
X128993971Y-87456029D01*
X129241714Y-87659346D01*
X129524362Y-87810425D01*
X129831052Y-87903458D01*
X130150000Y-87934872D01*
X132650000Y-87934872D01*
X132968948Y-87903458D01*
X133270587Y-87811957D01*
X133286542Y-87973948D01*
X133379575Y-88280638D01*
X133530654Y-88563286D01*
X133733971Y-88811029D01*
X133981714Y-89014346D01*
X134264362Y-89165425D01*
X134571052Y-89258458D01*
X134890000Y-89289872D01*
X137190000Y-89289872D01*
X137310000Y-89278053D01*
X137430000Y-89289872D01*
X139730000Y-89289872D01*
X140048948Y-89258458D01*
X140355638Y-89165425D01*
X140638286Y-89014346D01*
X140886029Y-88811029D01*
X141089346Y-88563286D01*
X141240425Y-88280638D01*
X141333458Y-87973948D01*
X141364872Y-87655000D01*
X141364872Y-84455000D01*
X141333458Y-84136052D01*
X141240425Y-83829362D01*
X141089346Y-83546714D01*
X140886029Y-83298971D01*
X140638286Y-83095654D01*
X140355638Y-82944575D01*
X140048948Y-82851542D01*
X139730000Y-82820128D01*
X137430000Y-82820128D01*
X137310000Y-82831947D01*
X137190000Y-82820128D01*
X134890000Y-82820128D01*
X134571052Y-82851542D01*
X134284872Y-82938353D01*
X134284872Y-79402017D01*
X150313000Y-79402017D01*
X150313000Y-80017983D01*
X150433169Y-80622112D01*
X150668889Y-81191190D01*
X151011101Y-81703346D01*
X151446654Y-82138899D01*
X151958810Y-82481111D01*
X152527888Y-82716831D01*
X153132017Y-82837000D01*
X153747983Y-82837000D01*
X154352112Y-82716831D01*
X154921190Y-82481111D01*
X155433346Y-82138899D01*
X155868899Y-81703346D01*
X156211111Y-81191190D01*
X156446831Y-80622112D01*
X156567000Y-80017983D01*
X156567000Y-79402017D01*
X172913000Y-79402017D01*
X172913000Y-80017983D01*
X173033169Y-80622112D01*
X173268889Y-81191190D01*
X173611101Y-81703346D01*
X174046654Y-82138899D01*
X174558810Y-82481111D01*
X175127888Y-82716831D01*
X175732017Y-82837000D01*
X176347983Y-82837000D01*
X176952112Y-82716831D01*
X177521190Y-82481111D01*
X178033346Y-82138899D01*
X178468899Y-81703346D01*
X178811111Y-81191190D01*
X179046831Y-80622112D01*
X179167000Y-80017983D01*
X179167000Y-79402017D01*
X179046831Y-78797888D01*
X178811111Y-78228810D01*
X178468899Y-77716654D01*
X178033346Y-77281101D01*
X177521190Y-76938889D01*
X176952112Y-76703169D01*
X176347983Y-76583000D01*
X175732017Y-76583000D01*
X175127888Y-76703169D01*
X174558810Y-76938889D01*
X174046654Y-77281101D01*
X173611101Y-77716654D01*
X173268889Y-78228810D01*
X173033169Y-78797888D01*
X172913000Y-79402017D01*
X156567000Y-79402017D01*
X156446831Y-78797888D01*
X156211111Y-78228810D01*
X155868899Y-77716654D01*
X155433346Y-77281101D01*
X154921190Y-76938889D01*
X154352112Y-76703169D01*
X153747983Y-76583000D01*
X153132017Y-76583000D01*
X152527888Y-76703169D01*
X151958810Y-76938889D01*
X151446654Y-77281101D01*
X151011101Y-77716654D01*
X150668889Y-78228810D01*
X150433169Y-78797888D01*
X150313000Y-79402017D01*
X134284872Y-79402017D01*
X134284872Y-79300000D01*
X134253458Y-78981052D01*
X134160425Y-78674362D01*
X134009346Y-78391714D01*
X133806029Y-78143971D01*
X133558286Y-77940654D01*
X133275638Y-77789575D01*
X132968948Y-77696542D01*
X132650000Y-77665128D01*
X130150000Y-77665128D01*
X129831052Y-77696542D01*
X129524362Y-77789575D01*
X129241714Y-77940654D01*
X128993971Y-78143971D01*
X128790654Y-78391714D01*
X128639575Y-78674362D01*
X128546542Y-78981052D01*
X128515128Y-79300000D01*
X127284872Y-79300000D01*
X127253458Y-78981052D01*
X127160425Y-78674362D01*
X127009346Y-78391714D01*
X126806029Y-78143971D01*
X126558286Y-77940654D01*
X126275638Y-77789575D01*
X125968948Y-77696542D01*
X125650000Y-77665128D01*
X123150000Y-77665128D01*
X122831052Y-77696542D01*
X122524362Y-77789575D01*
X122241714Y-77940654D01*
X121993971Y-78143971D01*
X121790654Y-78391714D01*
X121639575Y-78674362D01*
X121546542Y-78981052D01*
X121515128Y-79300000D01*
X118887000Y-79300000D01*
X118887000Y-74903328D01*
X118959104Y-74729254D01*
X119037000Y-74337642D01*
X119037000Y-73938358D01*
X118959104Y-73546746D01*
X118806304Y-73177855D01*
X118584474Y-72845863D01*
X118513502Y-72774891D01*
X118610638Y-72745425D01*
X118893286Y-72594346D01*
X119141029Y-72391029D01*
X119344346Y-72143286D01*
X119495425Y-71860638D01*
X119588458Y-71553948D01*
X119619872Y-71235000D01*
X119619872Y-70003725D01*
X134408000Y-70003725D01*
X134408000Y-70516275D01*
X134507993Y-71018975D01*
X134704137Y-71492509D01*
X134988895Y-71918678D01*
X135351322Y-72281105D01*
X135777491Y-72565863D01*
X136251025Y-72762007D01*
X136753725Y-72862000D01*
X137266275Y-72862000D01*
X137768975Y-72762007D01*
X138242509Y-72565863D01*
X138668678Y-72281105D01*
X139031105Y-71918678D01*
X139315863Y-71492509D01*
X139510000Y-71023820D01*
X139704137Y-71492509D01*
X139988895Y-71918678D01*
X140351322Y-72281105D01*
X140777491Y-72565863D01*
X141251025Y-72762007D01*
X141753725Y-72862000D01*
X142266275Y-72862000D01*
X142768975Y-72762007D01*
X143242509Y-72565863D01*
X143668678Y-72281105D01*
X144031105Y-71918678D01*
X144315863Y-71492509D01*
X144512007Y-71018975D01*
X144612000Y-70516275D01*
X144612000Y-70003725D01*
X144512007Y-69501025D01*
X144315863Y-69027491D01*
X144031105Y-68601322D01*
X143668678Y-68238895D01*
X143242509Y-67954137D01*
X142768975Y-67757993D01*
X142266275Y-67658000D01*
X141753725Y-67658000D01*
X141251025Y-67757993D01*
X140777491Y-67954137D01*
X140351322Y-68238895D01*
X139988895Y-68601322D01*
X139704137Y-69027491D01*
X139510000Y-69496180D01*
X139315863Y-69027491D01*
X139031105Y-68601322D01*
X138668678Y-68238895D01*
X138242509Y-67954137D01*
X137768975Y-67757993D01*
X137266275Y-67658000D01*
X136753725Y-67658000D01*
X136251025Y-67757993D01*
X135777491Y-67954137D01*
X135351322Y-68238895D01*
X134988895Y-68601322D01*
X134704137Y-69027491D01*
X134507993Y-69501025D01*
X134408000Y-70003725D01*
X119619872Y-70003725D01*
X119619872Y-69285000D01*
X119588458Y-68966052D01*
X119495425Y-68659362D01*
X119344346Y-68376714D01*
X119141029Y-68128971D01*
X118893286Y-67925654D01*
X118610638Y-67774575D01*
X118303948Y-67681542D01*
X117985000Y-67650128D01*
X116035000Y-67650128D01*
X115716052Y-67681542D01*
X115409362Y-67774575D01*
X115126714Y-67925654D01*
X114878971Y-68128971D01*
X114675654Y-68376714D01*
X114524575Y-68659362D01*
X114431542Y-68966052D01*
X114400128Y-69285000D01*
X101652000Y-69285000D01*
X101652000Y-62503725D01*
X114408000Y-62503725D01*
X114408000Y-63016275D01*
X114507993Y-63518975D01*
X114704137Y-63992509D01*
X114988895Y-64418678D01*
X115351322Y-64781105D01*
X115777491Y-65065863D01*
X116251025Y-65262007D01*
X116753725Y-65362000D01*
X117266275Y-65362000D01*
X117768975Y-65262007D01*
X118242509Y-65065863D01*
X118668678Y-64781105D01*
X119031105Y-64418678D01*
X119315863Y-63992509D01*
X119512007Y-63518975D01*
X119612000Y-63016275D01*
X119612000Y-62503725D01*
X134408000Y-62503725D01*
X134408000Y-63016275D01*
X134507993Y-63518975D01*
X134704137Y-63992509D01*
X134988895Y-64418678D01*
X135351322Y-64781105D01*
X135777491Y-65065863D01*
X136251025Y-65262007D01*
X136753725Y-65362000D01*
X137266275Y-65362000D01*
X137768975Y-65262007D01*
X138242509Y-65065863D01*
X138668678Y-64781105D01*
X139031105Y-64418678D01*
X139315863Y-63992509D01*
X139510000Y-63523820D01*
X139704137Y-63992509D01*
X139988895Y-64418678D01*
X140351322Y-64781105D01*
X140777491Y-65065863D01*
X141251025Y-65262007D01*
X141753725Y-65362000D01*
X142266275Y-65362000D01*
X142768975Y-65262007D01*
X143242509Y-65065863D01*
X143668678Y-64781105D01*
X144031105Y-64418678D01*
X144315863Y-63992509D01*
X144512007Y-63518975D01*
X144612000Y-63016275D01*
X144612000Y-62503725D01*
X144512007Y-62001025D01*
X144315863Y-61527491D01*
X144031105Y-61101322D01*
X143668678Y-60738895D01*
X143242509Y-60454137D01*
X142768975Y-60257993D01*
X142266275Y-60158000D01*
X141753725Y-60158000D01*
X141251025Y-60257993D01*
X140777491Y-60454137D01*
X140351322Y-60738895D01*
X139988895Y-61101322D01*
X139704137Y-61527491D01*
X139510000Y-61996180D01*
X139315863Y-61527491D01*
X139031105Y-61101322D01*
X138668678Y-60738895D01*
X138242509Y-60454137D01*
X137768975Y-60257993D01*
X137266275Y-60158000D01*
X136753725Y-60158000D01*
X136251025Y-60257993D01*
X135777491Y-60454137D01*
X135351322Y-60738895D01*
X134988895Y-61101322D01*
X134704137Y-61527491D01*
X134507993Y-62001025D01*
X134408000Y-62503725D01*
X119612000Y-62503725D01*
X119512007Y-62001025D01*
X119315863Y-61527491D01*
X119031105Y-61101322D01*
X118668678Y-60738895D01*
X118242509Y-60454137D01*
X117768975Y-60257993D01*
X117266275Y-60158000D01*
X116753725Y-60158000D01*
X116251025Y-60257993D01*
X115777491Y-60454137D01*
X115351322Y-60738895D01*
X114988895Y-61101322D01*
X114704137Y-61527491D01*
X114507993Y-62001025D01*
X114408000Y-62503725D01*
X101652000Y-62503725D01*
X101652000Y-57812017D01*
X150313000Y-57812017D01*
X150313000Y-58427983D01*
X150433169Y-59032112D01*
X150668889Y-59601190D01*
X151011101Y-60113346D01*
X151446654Y-60548899D01*
X151958810Y-60891111D01*
X152527888Y-61126831D01*
X153132017Y-61247000D01*
X153747983Y-61247000D01*
X154352112Y-61126831D01*
X154921190Y-60891111D01*
X155433346Y-60548899D01*
X155868899Y-60113346D01*
X156211111Y-59601190D01*
X156446831Y-59032112D01*
X156567000Y-58427983D01*
X156567000Y-57812017D01*
X172913000Y-57812017D01*
X172913000Y-58427983D01*
X173033169Y-59032112D01*
X173268889Y-59601190D01*
X173611101Y-60113346D01*
X174046654Y-60548899D01*
X174558810Y-60891111D01*
X175127888Y-61126831D01*
X175732017Y-61247000D01*
X176347983Y-61247000D01*
X176952112Y-61126831D01*
X177521190Y-60891111D01*
X178033346Y-60548899D01*
X178468899Y-60113346D01*
X178811111Y-59601190D01*
X178911015Y-59360000D01*
X189640128Y-59360000D01*
X189640128Y-60960000D01*
X189671542Y-61278948D01*
X189764575Y-61585638D01*
X189915654Y-61868286D01*
X190118971Y-62116029D01*
X190366714Y-62319346D01*
X190649362Y-62470425D01*
X190956052Y-62563458D01*
X191275000Y-62594872D01*
X192875000Y-62594872D01*
X193193948Y-62563458D01*
X193500638Y-62470425D01*
X193783286Y-62319346D01*
X194031029Y-62116029D01*
X194234346Y-61868286D01*
X194385425Y-61585638D01*
X194478458Y-61278948D01*
X194509872Y-60960000D01*
X194509872Y-59360000D01*
X194478458Y-59041052D01*
X194385425Y-58734362D01*
X194234346Y-58451714D01*
X194031029Y-58203971D01*
X193783286Y-58000654D01*
X193500638Y-57849575D01*
X193193948Y-57756542D01*
X192875000Y-57725128D01*
X191275000Y-57725128D01*
X190956052Y-57756542D01*
X190649362Y-57849575D01*
X190366714Y-58000654D01*
X190118971Y-58203971D01*
X189915654Y-58451714D01*
X189764575Y-58734362D01*
X189671542Y-59041052D01*
X189640128Y-59360000D01*
X178911015Y-59360000D01*
X179046831Y-59032112D01*
X179167000Y-58427983D01*
X179167000Y-57812017D01*
X179046831Y-57207888D01*
X178811111Y-56638810D01*
X178468899Y-56126654D01*
X178033346Y-55691101D01*
X177521190Y-55348889D01*
X176952112Y-55113169D01*
X176347983Y-54993000D01*
X175732017Y-54993000D01*
X175127888Y-55113169D01*
X174558810Y-55348889D01*
X174046654Y-55691101D01*
X173611101Y-56126654D01*
X173268889Y-56638810D01*
X173033169Y-57207888D01*
X172913000Y-57812017D01*
X156567000Y-57812017D01*
X156446831Y-57207888D01*
X156211111Y-56638810D01*
X155868899Y-56126654D01*
X155433346Y-55691101D01*
X154921190Y-55348889D01*
X154352112Y-55113169D01*
X153747983Y-54993000D01*
X153132017Y-54993000D01*
X152527888Y-55113169D01*
X151958810Y-55348889D01*
X151446654Y-55691101D01*
X151011101Y-56126654D01*
X150668889Y-56638810D01*
X150433169Y-57207888D01*
X150313000Y-57812017D01*
X101652000Y-57812017D01*
X101652000Y-51652000D01*
X208348001Y-51652000D01*
X208348001Y-57835568D01*
G37*
X208348001Y-57835568D02*
X208234712Y-57666019D01*
X207833981Y-57265288D01*
X207362771Y-56950435D01*
X206839190Y-56733561D01*
X206283360Y-56623000D01*
X205716640Y-56623000D01*
X205160810Y-56733561D01*
X204637229Y-56950435D01*
X204166019Y-57265288D01*
X203765288Y-57666019D01*
X203450435Y-58137229D01*
X203233561Y-58660810D01*
X203123000Y-59216640D01*
X203123000Y-59783360D01*
X203233561Y-60339190D01*
X203450435Y-60862771D01*
X203765288Y-61333981D01*
X204160055Y-61728748D01*
X204124362Y-61739575D01*
X203841714Y-61890654D01*
X203593971Y-62093971D01*
X203390654Y-62341714D01*
X203239575Y-62624362D01*
X203146542Y-62931052D01*
X203115128Y-63250000D01*
X203115128Y-65750000D01*
X203146542Y-66068948D01*
X203239575Y-66375638D01*
X203390654Y-66658286D01*
X203593971Y-66906029D01*
X203841714Y-67109346D01*
X204124362Y-67260425D01*
X204431052Y-67353458D01*
X204750000Y-67384872D01*
X207250000Y-67384872D01*
X207568948Y-67353458D01*
X207875638Y-67260425D01*
X208158286Y-67109346D01*
X208348001Y-66953651D01*
X208348001Y-80733220D01*
X208279712Y-80631019D01*
X207878981Y-80230288D01*
X207407771Y-79915435D01*
X206884190Y-79698561D01*
X206328360Y-79588000D01*
X205761640Y-79588000D01*
X205205810Y-79698561D01*
X204682229Y-79915435D01*
X204211019Y-80230288D01*
X203810288Y-80631019D01*
X203495435Y-81102229D01*
X203278561Y-81625810D01*
X203168000Y-82181640D01*
X203168000Y-82748360D01*
X203278561Y-83304190D01*
X203495435Y-83827771D01*
X203810288Y-84298981D01*
X204205055Y-84693748D01*
X204169362Y-84704575D01*
X203886714Y-84855654D01*
X203638971Y-85058971D01*
X203435654Y-85306714D01*
X203284575Y-85589362D01*
X203191542Y-85896052D01*
X203160128Y-86215000D01*
X203160128Y-88715000D01*
X203191542Y-89033948D01*
X203284575Y-89340638D01*
X203435654Y-89623286D01*
X203638971Y-89871029D01*
X203886714Y-90074346D01*
X204169362Y-90225425D01*
X204476052Y-90318458D01*
X204795000Y-90349872D01*
X207295000Y-90349872D01*
X207613948Y-90318458D01*
X207920638Y-90225425D01*
X208203286Y-90074346D01*
X208348001Y-89955582D01*
X208348000Y-100405567D01*
X208234712Y-100236019D01*
X207833981Y-99835288D01*
X207362771Y-99520435D01*
X206839190Y-99303561D01*
X206283360Y-99193000D01*
X205716640Y-99193000D01*
X205160810Y-99303561D01*
X204637229Y-99520435D01*
X204166019Y-99835288D01*
X203765288Y-100236019D01*
X203450435Y-100707229D01*
X203233561Y-101230810D01*
X203123000Y-101786640D01*
X203123000Y-102353360D01*
X203233561Y-102909190D01*
X203450435Y-103432771D01*
X203765288Y-103903981D01*
X204160055Y-104298748D01*
X204124362Y-104309575D01*
X203841714Y-104460654D01*
X203593971Y-104663971D01*
X203390654Y-104911714D01*
X203239575Y-105194362D01*
X203146542Y-105501052D01*
X203115128Y-105820000D01*
X203115128Y-108320000D01*
X203146542Y-108638948D01*
X203239575Y-108945638D01*
X203390654Y-109228286D01*
X203593971Y-109476029D01*
X203841714Y-109679346D01*
X204124362Y-109830425D01*
X204431052Y-109923458D01*
X204750000Y-109954872D01*
X207250000Y-109954872D01*
X207568948Y-109923458D01*
X207875638Y-109830425D01*
X208158286Y-109679346D01*
X208348000Y-109523652D01*
X208348000Y-127209000D01*
X208241263Y-127209000D01*
X207806152Y-127295549D01*
X207749104Y-127008746D01*
X207596304Y-126639855D01*
X207374474Y-126307863D01*
X207092137Y-126025526D01*
X206760145Y-125803696D01*
X206391254Y-125650896D01*
X205999642Y-125573000D01*
X205600358Y-125573000D01*
X205208746Y-125650896D01*
X204839855Y-125803696D01*
X204507863Y-126025526D01*
X204225526Y-126307863D01*
X204134872Y-126443536D01*
X204134872Y-125486000D01*
X204103458Y-125167052D01*
X204010425Y-124860362D01*
X203859346Y-124577714D01*
X203656029Y-124329971D01*
X203408286Y-124126654D01*
X203125638Y-123975575D01*
X202818948Y-123882542D01*
X202500000Y-123851128D01*
X202369015Y-123851128D01*
X202589003Y-123704137D01*
X202871340Y-123421800D01*
X203093170Y-123089808D01*
X203245970Y-122720917D01*
X203323866Y-122329305D01*
X203323866Y-121930021D01*
X203245970Y-121538409D01*
X203093170Y-121169518D01*
X202871340Y-120837526D01*
X202589003Y-120555189D01*
X202257011Y-120333359D01*
X201888120Y-120180559D01*
X201496508Y-120102663D01*
X201097224Y-120102663D01*
X200705612Y-120180559D01*
X200336721Y-120333359D01*
X200270415Y-120377663D01*
X200220505Y-120377663D01*
X199960145Y-120203696D01*
X199591254Y-120050896D01*
X199199642Y-119973000D01*
X198800358Y-119973000D01*
X198408746Y-120050896D01*
X198039855Y-120203696D01*
X197707863Y-120425526D01*
X197425526Y-120707863D01*
X197318249Y-120868414D01*
X197047780Y-120980446D01*
X196715788Y-121202276D01*
X196433451Y-121484613D01*
X196211621Y-121816605D01*
X196058821Y-122185496D01*
X195980925Y-122577108D01*
X195980925Y-122976392D01*
X196058821Y-123368004D01*
X196211621Y-123736895D01*
X196433451Y-124068887D01*
X196715788Y-124351224D01*
X197047780Y-124573054D01*
X197416671Y-124725854D01*
X197808283Y-124803750D01*
X198019835Y-124803750D01*
X197989575Y-124860362D01*
X197896542Y-125167052D01*
X197865128Y-125486000D01*
X197865128Y-127986000D01*
X197896542Y-128304948D01*
X197989575Y-128611638D01*
X198140654Y-128894286D01*
X198343971Y-129142029D01*
X198591714Y-129345346D01*
X198874362Y-129496425D01*
X199181052Y-129589458D01*
X199500000Y-129620872D01*
X202500000Y-129620872D01*
X202818948Y-129589458D01*
X203125638Y-129496425D01*
X203408286Y-129345346D01*
X203656029Y-129142029D01*
X203859346Y-128894286D01*
X204010425Y-128611638D01*
X204019067Y-128583149D01*
X204030326Y-128600000D01*
X204003696Y-128639855D01*
X203850896Y-129008746D01*
X203773000Y-129400358D01*
X203773000Y-129799642D01*
X203850896Y-130191254D01*
X204003696Y-130560145D01*
X204225526Y-130892137D01*
X204507863Y-131174474D01*
X204839855Y-131396304D01*
X205208746Y-131549104D01*
X205600358Y-131627000D01*
X205999642Y-131627000D01*
X206391254Y-131549104D01*
X206466710Y-131517849D01*
X206825385Y-131876524D01*
X207255649Y-132164017D01*
X207374972Y-132213442D01*
X207181052Y-132232542D01*
X206874362Y-132325575D01*
X206591714Y-132476654D01*
X206343971Y-132679971D01*
X206140654Y-132927714D01*
X205989575Y-133210362D01*
X205896542Y-133517052D01*
X205865128Y-133836000D01*
X205865128Y-135836000D01*
X205896542Y-136154948D01*
X205989575Y-136461638D01*
X206140654Y-136744286D01*
X206343971Y-136992029D01*
X206591714Y-137195346D01*
X206874362Y-137346425D01*
X207181052Y-137439458D01*
X207500000Y-137470872D01*
X208348000Y-137470872D01*
X208348000Y-139348000D01*
X204118916Y-139348000D01*
X204134872Y-139186000D01*
X204134872Y-136686000D01*
X204103458Y-136367052D01*
X204010425Y-136060362D01*
X203859346Y-135777714D01*
X203656029Y-135529971D01*
X203408286Y-135326654D01*
X203125638Y-135175575D01*
X202818948Y-135082542D01*
X202500000Y-135051128D01*
X199500000Y-135051128D01*
X199181052Y-135082542D01*
X198874362Y-135175575D01*
X198591714Y-135326654D01*
X198343971Y-135529971D01*
X198140654Y-135777714D01*
X197989575Y-136060362D01*
X197896542Y-136367052D01*
X197865128Y-136686000D01*
X197865128Y-139186000D01*
X197881084Y-139348000D01*
X178193919Y-139348000D01*
X178560145Y-139196304D01*
X178892137Y-138974474D01*
X179174474Y-138692137D01*
X179396304Y-138360145D01*
X179549104Y-137991254D01*
X179564662Y-137913040D01*
X180902994Y-136574708D01*
X180969846Y-136519844D01*
X181188784Y-136253068D01*
X181351470Y-135948704D01*
X181451651Y-135618451D01*
X181477001Y-135361068D01*
X181477001Y-135361058D01*
X181485477Y-135275000D01*
X181477001Y-135188942D01*
X181477001Y-131284072D01*
X181477832Y-131275631D01*
X181671983Y-131744351D01*
X181959476Y-132174615D01*
X182325385Y-132540524D01*
X182755649Y-132828017D01*
X183233732Y-133026046D01*
X183741263Y-133127000D01*
X184258737Y-133127000D01*
X184766268Y-133026046D01*
X185244351Y-132828017D01*
X185674615Y-132540524D01*
X186040524Y-132174615D01*
X186328017Y-131744351D01*
X186526046Y-131266268D01*
X186627000Y-130758737D01*
X186627000Y-130241263D01*
X187873000Y-130241263D01*
X187873000Y-130758737D01*
X187973954Y-131266268D01*
X188171983Y-131744351D01*
X188459476Y-132174615D01*
X188825385Y-132540524D01*
X189255649Y-132828017D01*
X189733732Y-133026046D01*
X190241263Y-133127000D01*
X190758737Y-133127000D01*
X191266268Y-133026046D01*
X191744351Y-132828017D01*
X192174615Y-132540524D01*
X192540524Y-132174615D01*
X192611820Y-132067913D01*
X192755649Y-132164017D01*
X193233732Y-132362046D01*
X193741263Y-132463000D01*
X194258737Y-132463000D01*
X194766268Y-132362046D01*
X195244351Y-132164017D01*
X195674615Y-131876524D01*
X196040524Y-131510615D01*
X196328017Y-131080351D01*
X196526046Y-130602268D01*
X196627000Y-130094737D01*
X196627000Y-129577263D01*
X196526046Y-129069732D01*
X196328017Y-128591649D01*
X196040524Y-128161385D01*
X195674615Y-127795476D01*
X195244351Y-127507983D01*
X194766268Y-127309954D01*
X194258737Y-127209000D01*
X193741263Y-127209000D01*
X193233732Y-127309954D01*
X192755649Y-127507983D01*
X192325385Y-127795476D01*
X191959476Y-128161385D01*
X191888180Y-128268087D01*
X191744351Y-128171983D01*
X191266268Y-127973954D01*
X190758737Y-127873000D01*
X190241263Y-127873000D01*
X189733732Y-127973954D01*
X189255649Y-128171983D01*
X188825385Y-128459476D01*
X188459476Y-128825385D01*
X188171983Y-129255649D01*
X187973954Y-129733732D01*
X187873000Y-130241263D01*
X186627000Y-130241263D01*
X186526046Y-129733732D01*
X186328017Y-129255649D01*
X186040524Y-128825385D01*
X185674615Y-128459476D01*
X185244351Y-128171983D01*
X184766268Y-127973954D01*
X184258737Y-127873000D01*
X183741263Y-127873000D01*
X183233732Y-127973954D01*
X182755649Y-128171983D01*
X182325385Y-128459476D01*
X181959476Y-128825385D01*
X181671983Y-129255649D01*
X181473954Y-129733732D01*
X181373000Y-130241263D01*
X181373000Y-130595273D01*
X181351470Y-130524298D01*
X181188784Y-130219934D01*
X180969846Y-129953158D01*
X180958529Y-129943870D01*
X181027000Y-129599642D01*
X181027000Y-129200358D01*
X180949104Y-128808746D01*
X180866179Y-128608547D01*
X180931198Y-125357583D01*
X180996304Y-125260145D01*
X181149104Y-124891254D01*
X181227000Y-124499642D01*
X181227000Y-124100358D01*
X181149104Y-123708746D01*
X180996304Y-123339855D01*
X180774474Y-123007863D01*
X180492137Y-122725526D01*
X180160145Y-122503696D01*
X179791254Y-122350896D01*
X179552000Y-122303306D01*
X179552000Y-122301451D01*
X179596304Y-122235145D01*
X179749104Y-121866254D01*
X179827000Y-121474642D01*
X179827000Y-121075358D01*
X179749104Y-120683746D01*
X179596304Y-120314855D01*
X179374474Y-119982863D01*
X179092137Y-119700526D01*
X178760145Y-119478696D01*
X178391254Y-119325896D01*
X177999642Y-119248000D01*
X177600358Y-119248000D01*
X177208746Y-119325896D01*
X176839855Y-119478696D01*
X176507863Y-119700526D01*
X176225526Y-119982863D01*
X176003696Y-120314855D01*
X175850896Y-120683746D01*
X175773000Y-121075358D01*
X175773000Y-121474642D01*
X175850896Y-121866254D01*
X176003696Y-122235145D01*
X176048001Y-122301452D01*
X176048000Y-129186941D01*
X176039524Y-129273002D01*
X176048000Y-129359063D01*
X176048000Y-129359070D01*
X176073350Y-129616453D01*
X176173531Y-129946706D01*
X176336217Y-130251070D01*
X176555155Y-130517847D01*
X176622008Y-130572712D01*
X177973002Y-131923706D01*
X177973001Y-134549297D01*
X177086960Y-135435338D01*
X177008746Y-135450896D01*
X176639855Y-135603696D01*
X176307863Y-135825526D01*
X176025526Y-136107863D01*
X175803696Y-136439855D01*
X175650896Y-136808746D01*
X175573000Y-137200358D01*
X175573000Y-137599642D01*
X175650896Y-137991254D01*
X175803696Y-138360145D01*
X176025526Y-138692137D01*
X176307863Y-138974474D01*
X176639855Y-139196304D01*
X177006081Y-139348000D01*
X174024296Y-139348000D01*
X174205174Y-139167122D01*
X174470779Y-138769615D01*
X174653732Y-138327930D01*
X174747000Y-137859039D01*
X174747000Y-137380961D01*
X174653732Y-136912070D01*
X174470779Y-136470385D01*
X174390341Y-136350000D01*
X174470779Y-136229615D01*
X174653732Y-135787930D01*
X174747000Y-135319039D01*
X174747000Y-134840961D01*
X174653732Y-134372070D01*
X174470779Y-133930385D01*
X174390341Y-133810000D01*
X174470779Y-133689615D01*
X174653732Y-133247930D01*
X174747000Y-132779039D01*
X174747000Y-132300961D01*
X174653732Y-131832070D01*
X174470779Y-131390385D01*
X174390341Y-131270000D01*
X174470779Y-131149615D01*
X174653732Y-130707930D01*
X174747000Y-130239039D01*
X174747000Y-129760961D01*
X174653732Y-129292070D01*
X174470779Y-128850385D01*
X174205174Y-128452878D01*
X173867122Y-128114826D01*
X173469615Y-127849221D01*
X173027930Y-127666268D01*
X172559039Y-127573000D01*
X172080961Y-127573000D01*
X171612070Y-127666268D01*
X171170385Y-127849221D01*
X170772878Y-128114826D01*
X170434826Y-128452878D01*
X170169221Y-128850385D01*
X169986268Y-129292070D01*
X169893000Y-129760961D01*
X169893000Y-130239039D01*
X169986268Y-130707930D01*
X170169221Y-131149615D01*
X170249659Y-131270000D01*
X170169221Y-131390385D01*
X169986268Y-131832070D01*
X169893000Y-132300961D01*
X169893000Y-132779039D01*
X169986268Y-133247930D01*
X170169221Y-133689615D01*
X170249659Y-133810000D01*
X170169221Y-133930385D01*
X169986268Y-134372070D01*
X169893000Y-134840961D01*
X169893000Y-135319039D01*
X169986268Y-135787930D01*
X170169221Y-136229615D01*
X170249659Y-136350000D01*
X170169221Y-136470385D01*
X169986268Y-136912070D01*
X169893000Y-137380961D01*
X169893000Y-137859039D01*
X169986268Y-138327930D01*
X170169221Y-138769615D01*
X170434826Y-139167122D01*
X170615704Y-139348000D01*
X166404296Y-139348000D01*
X166585174Y-139167122D01*
X166850779Y-138769615D01*
X167033732Y-138327930D01*
X167127000Y-137859039D01*
X167127000Y-137380961D01*
X167033732Y-136912070D01*
X166850779Y-136470385D01*
X166770341Y-136350000D01*
X166850779Y-136229615D01*
X167033732Y-135787930D01*
X167127000Y-135319039D01*
X167127000Y-134840961D01*
X167033732Y-134372070D01*
X166850779Y-133930385D01*
X166585174Y-133532878D01*
X166247122Y-133194826D01*
X165849615Y-132929221D01*
X165407930Y-132746268D01*
X164939039Y-132653000D01*
X164460961Y-132653000D01*
X163992070Y-132746268D01*
X163550385Y-132929221D01*
X163152878Y-133194826D01*
X162814826Y-133532878D01*
X162549221Y-133930385D01*
X162366268Y-134372070D01*
X162273000Y-134840961D01*
X162273000Y-135319039D01*
X162366268Y-135787930D01*
X162549221Y-136229615D01*
X162629659Y-136350000D01*
X162549221Y-136470385D01*
X162366268Y-136912070D01*
X162273000Y-137380961D01*
X162273000Y-137859039D01*
X162366268Y-138327930D01*
X162549221Y-138769615D01*
X162814826Y-139167122D01*
X162995704Y-139348000D01*
X149386012Y-139348000D01*
X149569639Y-139164373D01*
X149833055Y-138770142D01*
X150014500Y-138332096D01*
X150107000Y-137867069D01*
X150107000Y-137392931D01*
X150014500Y-136927904D01*
X149833055Y-136489858D01*
X149569639Y-136095627D01*
X149234373Y-135760361D01*
X148840142Y-135496945D01*
X148402096Y-135315500D01*
X147937069Y-135223000D01*
X147462931Y-135223000D01*
X146997904Y-135315500D01*
X146559858Y-135496945D01*
X146430000Y-135583713D01*
X146300142Y-135496945D01*
X145862096Y-135315500D01*
X145397069Y-135223000D01*
X144922931Y-135223000D01*
X144457904Y-135315500D01*
X144019858Y-135496945D01*
X143890000Y-135583713D01*
X143760142Y-135496945D01*
X143322096Y-135315500D01*
X142857069Y-135223000D01*
X142382931Y-135223000D01*
X141917904Y-135315500D01*
X141479858Y-135496945D01*
X141350000Y-135583713D01*
X141220142Y-135496945D01*
X140782096Y-135315500D01*
X140317069Y-135223000D01*
X139842931Y-135223000D01*
X139377904Y-135315500D01*
X138939858Y-135496945D01*
X138810000Y-135583713D01*
X138680142Y-135496945D01*
X138242096Y-135315500D01*
X137777069Y-135223000D01*
X137302931Y-135223000D01*
X136837904Y-135315500D01*
X136399858Y-135496945D01*
X136270000Y-135583713D01*
X136140142Y-135496945D01*
X135702096Y-135315500D01*
X135237069Y-135223000D01*
X134762931Y-135223000D01*
X134297904Y-135315500D01*
X133859858Y-135496945D01*
X133730000Y-135583713D01*
X133600142Y-135496945D01*
X133162096Y-135315500D01*
X132697069Y-135223000D01*
X132222931Y-135223000D01*
X131757904Y-135315500D01*
X131319858Y-135496945D01*
X131190000Y-135583713D01*
X131060142Y-135496945D01*
X130622096Y-135315500D01*
X130157069Y-135223000D01*
X129682931Y-135223000D01*
X129217904Y-135315500D01*
X128779858Y-135496945D01*
X128650000Y-135583713D01*
X128520142Y-135496945D01*
X128082096Y-135315500D01*
X127617069Y-135223000D01*
X127142931Y-135223000D01*
X126677904Y-135315500D01*
X126239858Y-135496945D01*
X126110000Y-135583713D01*
X125980142Y-135496945D01*
X125542096Y-135315500D01*
X125077069Y-135223000D01*
X124602931Y-135223000D01*
X124137904Y-135315500D01*
X123699858Y-135496945D01*
X123570000Y-135583713D01*
X123440142Y-135496945D01*
X123002096Y-135315500D01*
X122537069Y-135223000D01*
X122062931Y-135223000D01*
X121597904Y-135315500D01*
X121159858Y-135496945D01*
X121030000Y-135583713D01*
X120900142Y-135496945D01*
X120462096Y-135315500D01*
X119997069Y-135223000D01*
X119522931Y-135223000D01*
X119057904Y-135315500D01*
X118619858Y-135496945D01*
X118490000Y-135583713D01*
X118360142Y-135496945D01*
X117922096Y-135315500D01*
X117457069Y-135223000D01*
X116982931Y-135223000D01*
X116517904Y-135315500D01*
X116079858Y-135496945D01*
X115950000Y-135583713D01*
X115820142Y-135496945D01*
X115382096Y-135315500D01*
X114917069Y-135223000D01*
X114442931Y-135223000D01*
X113977904Y-135315500D01*
X113539858Y-135496945D01*
X113410000Y-135583713D01*
X113280142Y-135496945D01*
X112842096Y-135315500D01*
X112377069Y-135223000D01*
X111902931Y-135223000D01*
X111437904Y-135315500D01*
X110999858Y-135496945D01*
X110870000Y-135583713D01*
X110740142Y-135496945D01*
X110302096Y-135315500D01*
X109837069Y-135223000D01*
X109362931Y-135223000D01*
X108897904Y-135315500D01*
X108459858Y-135496945D01*
X108330000Y-135583713D01*
X108200142Y-135496945D01*
X107762096Y-135315500D01*
X107297069Y-135223000D01*
X106822931Y-135223000D01*
X106357904Y-135315500D01*
X105919858Y-135496945D01*
X105790000Y-135583713D01*
X105660142Y-135496945D01*
X105222096Y-135315500D01*
X104757069Y-135223000D01*
X104282931Y-135223000D01*
X103817904Y-135315500D01*
X103379858Y-135496945D01*
X103250000Y-135583713D01*
X103120142Y-135496945D01*
X102682096Y-135315500D01*
X102217069Y-135223000D01*
X101742931Y-135223000D01*
X101652000Y-135241087D01*
X101652000Y-120900358D01*
X153973000Y-120900358D01*
X153973000Y-121299642D01*
X154050896Y-121691254D01*
X154203696Y-122060145D01*
X154248001Y-122126452D01*
X154248000Y-126973549D01*
X154203696Y-127039855D01*
X154050896Y-127408746D01*
X153973000Y-127800358D01*
X153973000Y-128199642D01*
X154050896Y-128591254D01*
X154203696Y-128960145D01*
X154425526Y-129292137D01*
X154707863Y-129574474D01*
X155039855Y-129796304D01*
X155408746Y-129949104D01*
X155800358Y-130027000D01*
X156199642Y-130027000D01*
X156591254Y-129949104D01*
X156960145Y-129796304D01*
X157292137Y-129574474D01*
X157574474Y-129292137D01*
X157636037Y-129200000D01*
X162265128Y-129200000D01*
X162265128Y-130800000D01*
X162296542Y-131118948D01*
X162389575Y-131425638D01*
X162540654Y-131708286D01*
X162743971Y-131956029D01*
X162991714Y-132159346D01*
X163274362Y-132310425D01*
X163581052Y-132403458D01*
X163900000Y-132434872D01*
X165500000Y-132434872D01*
X165818948Y-132403458D01*
X166125638Y-132310425D01*
X166408286Y-132159346D01*
X166656029Y-131956029D01*
X166859346Y-131708286D01*
X167010425Y-131425638D01*
X167103458Y-131118948D01*
X167134872Y-130800000D01*
X167134872Y-130042830D01*
X169487997Y-127689706D01*
X169554845Y-127634845D01*
X169609705Y-127567998D01*
X169609711Y-127567992D01*
X169773783Y-127368069D01*
X169804846Y-127309954D01*
X169936469Y-127063705D01*
X170036650Y-126733452D01*
X170062000Y-126476069D01*
X170062000Y-126476061D01*
X170070476Y-126390000D01*
X170062000Y-126303939D01*
X170062000Y-119540451D01*
X170106304Y-119474145D01*
X170259104Y-119105254D01*
X170337000Y-118713642D01*
X170337000Y-118600358D01*
X182866000Y-118600358D01*
X182866000Y-118999642D01*
X182943896Y-119391254D01*
X183096696Y-119760145D01*
X183318526Y-120092137D01*
X183600863Y-120374474D01*
X183932855Y-120596304D01*
X184301746Y-120749104D01*
X184693358Y-120827000D01*
X185092642Y-120827000D01*
X185484254Y-120749104D01*
X185853145Y-120596304D01*
X185866000Y-120587715D01*
X185866000Y-120811642D01*
X185943896Y-121203254D01*
X186096696Y-121572145D01*
X186141001Y-121638451D01*
X186141000Y-122693187D01*
X186077640Y-124929189D01*
X186003696Y-125039855D01*
X185850896Y-125408746D01*
X185773000Y-125800358D01*
X185773000Y-126199642D01*
X185850896Y-126591254D01*
X186003696Y-126960145D01*
X186225526Y-127292137D01*
X186507863Y-127574474D01*
X186839855Y-127796304D01*
X187208746Y-127949104D01*
X187600358Y-128027000D01*
X187999642Y-128027000D01*
X188391254Y-127949104D01*
X188760145Y-127796304D01*
X189092137Y-127574474D01*
X189374474Y-127292137D01*
X189596304Y-126960145D01*
X189749104Y-126591254D01*
X189827000Y-126199642D01*
X189827000Y-125800358D01*
X189749104Y-125408746D01*
X189596304Y-125039855D01*
X189580577Y-125016318D01*
X189642562Y-122828822D01*
X189645000Y-122804069D01*
X189645000Y-122742786D01*
X189646734Y-122681592D01*
X189645000Y-122656806D01*
X189645000Y-121638451D01*
X189689304Y-121572145D01*
X189842104Y-121203254D01*
X189920000Y-120811642D01*
X189920000Y-120518224D01*
X190135137Y-120374474D01*
X190417474Y-120092137D01*
X190639304Y-119760145D01*
X190792104Y-119391254D01*
X190870000Y-118999642D01*
X190870000Y-118600358D01*
X190792104Y-118208746D01*
X190639304Y-117839855D01*
X190417474Y-117507863D01*
X190135137Y-117225526D01*
X189803145Y-117003696D01*
X189434254Y-116850896D01*
X189042642Y-116773000D01*
X188643358Y-116773000D01*
X188251746Y-116850896D01*
X187882855Y-117003696D01*
X187816549Y-117048000D01*
X185919451Y-117048000D01*
X185853145Y-117003696D01*
X185484254Y-116850896D01*
X185092642Y-116773000D01*
X184693358Y-116773000D01*
X184301746Y-116850896D01*
X183932855Y-117003696D01*
X183600863Y-117225526D01*
X183318526Y-117507863D01*
X183096696Y-117839855D01*
X182943896Y-118208746D01*
X182866000Y-118600358D01*
X170337000Y-118600358D01*
X170337000Y-118314358D01*
X170259104Y-117922746D01*
X170106304Y-117553855D01*
X169884474Y-117221863D01*
X169602137Y-116939526D01*
X169270145Y-116717696D01*
X168901254Y-116564896D01*
X168509642Y-116487000D01*
X168110358Y-116487000D01*
X167912194Y-116526417D01*
X168122474Y-116316137D01*
X168344304Y-115984145D01*
X168497104Y-115615254D01*
X168512662Y-115537040D01*
X168677987Y-115371714D01*
X168744845Y-115316845D01*
X168963783Y-115050069D01*
X169126469Y-114745705D01*
X169226650Y-114415452D01*
X169252000Y-114158069D01*
X169252000Y-114158059D01*
X169260476Y-114072001D01*
X169252000Y-113985943D01*
X169252000Y-113300357D01*
X184873000Y-113300357D01*
X184873000Y-113699641D01*
X184950896Y-114091253D01*
X185103696Y-114460144D01*
X185325526Y-114792136D01*
X185607863Y-115074473D01*
X185939855Y-115296303D01*
X186308746Y-115449103D01*
X186700358Y-115526999D01*
X187099642Y-115526999D01*
X187491254Y-115449103D01*
X187860145Y-115296303D01*
X188192137Y-115074473D01*
X188474474Y-114792136D01*
X188696304Y-114460144D01*
X188849104Y-114091253D01*
X188927000Y-113699641D01*
X188927000Y-113300357D01*
X188849104Y-112908745D01*
X188696304Y-112539854D01*
X188652000Y-112473548D01*
X188652000Y-99365000D01*
X189640128Y-99365000D01*
X189640128Y-100965000D01*
X189671542Y-101283948D01*
X189764575Y-101590638D01*
X189915654Y-101873286D01*
X190118971Y-102121029D01*
X190366714Y-102324346D01*
X190649362Y-102475425D01*
X190956052Y-102568458D01*
X191275000Y-102599872D01*
X192875000Y-102599872D01*
X193193948Y-102568458D01*
X193500638Y-102475425D01*
X193783286Y-102324346D01*
X194031029Y-102121029D01*
X194234346Y-101873286D01*
X194380229Y-101600358D01*
X195648000Y-101600358D01*
X195648000Y-101999642D01*
X195725896Y-102391254D01*
X195878696Y-102760145D01*
X195923000Y-102826451D01*
X195923001Y-109996929D01*
X195914524Y-110083000D01*
X195948350Y-110426451D01*
X196048532Y-110756705D01*
X196211217Y-111061068D01*
X196375289Y-111260991D01*
X196375296Y-111260998D01*
X196430156Y-111327845D01*
X196497003Y-111382705D01*
X199127338Y-114013040D01*
X199142896Y-114091254D01*
X199295696Y-114460145D01*
X199517526Y-114792137D01*
X199799863Y-115074474D01*
X200131855Y-115296304D01*
X200500746Y-115449104D01*
X200892358Y-115527000D01*
X201291642Y-115527000D01*
X201683254Y-115449104D01*
X202052145Y-115296304D01*
X202384137Y-115074474D01*
X202666474Y-114792137D01*
X202888304Y-114460145D01*
X203041104Y-114091254D01*
X203119000Y-113699642D01*
X203119000Y-113300358D01*
X203041104Y-112908746D01*
X202888304Y-112539855D01*
X202666474Y-112207863D01*
X202384137Y-111925526D01*
X202052145Y-111703696D01*
X201683254Y-111550896D01*
X201605040Y-111535338D01*
X199427000Y-109357298D01*
X199427000Y-102826451D01*
X199471304Y-102760145D01*
X199624104Y-102391254D01*
X199702000Y-101999642D01*
X199702000Y-101600358D01*
X199624104Y-101208746D01*
X199471304Y-100839855D01*
X199249474Y-100507863D01*
X198967137Y-100225526D01*
X198635145Y-100003696D01*
X198266254Y-99850896D01*
X197874642Y-99773000D01*
X197475358Y-99773000D01*
X197083746Y-99850896D01*
X196714855Y-100003696D01*
X196382863Y-100225526D01*
X196100526Y-100507863D01*
X195878696Y-100839855D01*
X195725896Y-101208746D01*
X195648000Y-101600358D01*
X194380229Y-101600358D01*
X194385425Y-101590638D01*
X194478458Y-101283948D01*
X194509872Y-100965000D01*
X194509872Y-99365000D01*
X194478458Y-99046052D01*
X194385425Y-98739362D01*
X194234346Y-98456714D01*
X194031029Y-98208971D01*
X193783286Y-98005654D01*
X193500638Y-97854575D01*
X193193948Y-97761542D01*
X192875000Y-97730128D01*
X191275000Y-97730128D01*
X190956052Y-97761542D01*
X190649362Y-97854575D01*
X190366714Y-98005654D01*
X190118971Y-98208971D01*
X189915654Y-98456714D01*
X189764575Y-98739362D01*
X189671542Y-99046052D01*
X189640128Y-99365000D01*
X188652000Y-99365000D01*
X188652000Y-93209506D01*
X197990246Y-82008100D01*
X198260145Y-81896304D01*
X198325000Y-81852969D01*
X198389855Y-81896304D01*
X198758746Y-82049104D01*
X199150358Y-82127000D01*
X199549642Y-82127000D01*
X199941254Y-82049104D01*
X200310145Y-81896304D01*
X200642137Y-81674474D01*
X200924474Y-81392137D01*
X201146304Y-81060145D01*
X201299104Y-80691254D01*
X201377000Y-80299642D01*
X201377000Y-79900358D01*
X201299104Y-79508746D01*
X201146304Y-79139855D01*
X200924474Y-78807863D01*
X200642137Y-78525526D01*
X200310145Y-78303696D01*
X199941254Y-78150896D01*
X199549642Y-78073000D01*
X199150358Y-78073000D01*
X198758746Y-78150896D01*
X198389855Y-78303696D01*
X198325000Y-78347031D01*
X198260145Y-78303696D01*
X197891254Y-78150896D01*
X197499642Y-78073000D01*
X197100358Y-78073000D01*
X196708746Y-78150896D01*
X196339855Y-78303696D01*
X196007863Y-78525526D01*
X195725526Y-78807863D01*
X195503696Y-79139855D01*
X195350896Y-79508746D01*
X195300430Y-79762459D01*
X194509872Y-80710748D01*
X194509872Y-79680000D01*
X194478458Y-79361052D01*
X194385425Y-79054362D01*
X194234346Y-78771714D01*
X194031029Y-78523971D01*
X193783286Y-78320654D01*
X193500638Y-78169575D01*
X193193948Y-78076542D01*
X192875000Y-78045128D01*
X191275000Y-78045128D01*
X190956052Y-78076542D01*
X190649362Y-78169575D01*
X190366714Y-78320654D01*
X190118971Y-78523971D01*
X189915654Y-78771714D01*
X189764575Y-79054362D01*
X189671542Y-79361052D01*
X189640128Y-79680000D01*
X189640128Y-81280000D01*
X189671542Y-81598948D01*
X189764575Y-81905638D01*
X189915654Y-82188286D01*
X190118971Y-82436029D01*
X190366714Y-82639346D01*
X190649362Y-82790425D01*
X190956052Y-82883458D01*
X191275000Y-82914872D01*
X192672366Y-82914872D01*
X185660426Y-91325829D01*
X185655155Y-91330155D01*
X185549971Y-91458322D01*
X185499185Y-91519241D01*
X185495380Y-91524842D01*
X185436217Y-91596932D01*
X185398640Y-91667234D01*
X185353844Y-91733169D01*
X185317493Y-91819049D01*
X185273531Y-91901296D01*
X185250391Y-91977578D01*
X185219320Y-92050984D01*
X185200422Y-92142305D01*
X185173350Y-92231549D01*
X185165537Y-92310879D01*
X185149383Y-92388938D01*
X185148664Y-92482191D01*
X185148000Y-92488932D01*
X185148000Y-92568297D01*
X185146722Y-92734040D01*
X185148000Y-92740734D01*
X185148001Y-112473547D01*
X185103696Y-112539854D01*
X184950896Y-112908745D01*
X184873000Y-113300357D01*
X169252000Y-113300357D01*
X169252000Y-100992017D01*
X173548000Y-100992017D01*
X173548000Y-101607983D01*
X173668169Y-102212112D01*
X173903889Y-102781190D01*
X174246101Y-103293346D01*
X174681654Y-103728899D01*
X175193810Y-104071111D01*
X175762888Y-104306831D01*
X176367017Y-104427000D01*
X176982983Y-104427000D01*
X177587112Y-104306831D01*
X178156190Y-104071111D01*
X178668346Y-103728899D01*
X179103899Y-103293346D01*
X179446111Y-102781190D01*
X179681831Y-102212112D01*
X179802000Y-101607983D01*
X179802000Y-100992017D01*
X179681831Y-100387888D01*
X179446111Y-99818810D01*
X179103899Y-99306654D01*
X178668346Y-98871101D01*
X178156190Y-98528889D01*
X177587112Y-98293169D01*
X176982983Y-98173000D01*
X176367017Y-98173000D01*
X175762888Y-98293169D01*
X175193810Y-98528889D01*
X174681654Y-98871101D01*
X174246101Y-99306654D01*
X173903889Y-99818810D01*
X173668169Y-100387888D01*
X173548000Y-100992017D01*
X169252000Y-100992017D01*
X169252000Y-90725701D01*
X169293963Y-90683738D01*
X169378070Y-90638782D01*
X169644846Y-90419844D01*
X169699713Y-90352989D01*
X172300702Y-87752000D01*
X183913932Y-87752000D01*
X184000000Y-87760477D01*
X184343452Y-87726650D01*
X184673705Y-87626469D01*
X184978069Y-87463783D01*
X185244845Y-87244845D01*
X185463783Y-86978069D01*
X185626469Y-86673705D01*
X185726650Y-86343452D01*
X185752000Y-86086069D01*
X185760477Y-86000000D01*
X185752000Y-85913931D01*
X185752000Y-75620704D01*
X198727992Y-62644712D01*
X198794845Y-62589847D01*
X198892853Y-62470425D01*
X199013783Y-62323071D01*
X199124449Y-62116029D01*
X199176469Y-62018707D01*
X199276650Y-61688454D01*
X199302000Y-61431071D01*
X199302000Y-61431063D01*
X199310476Y-61345002D01*
X199302000Y-61258941D01*
X199302000Y-60726451D01*
X199346304Y-60660145D01*
X199499104Y-60291254D01*
X199577000Y-59899642D01*
X199577000Y-59500358D01*
X199499104Y-59108746D01*
X199346304Y-58739855D01*
X199124474Y-58407863D01*
X198842137Y-58125526D01*
X198510145Y-57903696D01*
X198141254Y-57750896D01*
X197749642Y-57673000D01*
X197350358Y-57673000D01*
X196958746Y-57750896D01*
X196589855Y-57903696D01*
X196257863Y-58125526D01*
X195975526Y-58407863D01*
X195753696Y-58739855D01*
X195600896Y-59108746D01*
X195523000Y-59500358D01*
X195523000Y-59899642D01*
X195600896Y-60291254D01*
X195753696Y-60660145D01*
X195755081Y-60662219D01*
X182822008Y-73595292D01*
X182755155Y-73650157D01*
X182700291Y-73717009D01*
X182700289Y-73717011D01*
X182536218Y-73916933D01*
X182536217Y-73916934D01*
X182373531Y-74221298D01*
X182273350Y-74551551D01*
X182248000Y-74808934D01*
X182248000Y-74808941D01*
X182239524Y-74895002D01*
X182248000Y-74981063D01*
X182248001Y-84248000D01*
X171661061Y-84248000D01*
X171575000Y-84239524D01*
X171488939Y-84248000D01*
X171488931Y-84248000D01*
X171231548Y-84273350D01*
X170901295Y-84373531D01*
X170596931Y-84536217D01*
X170330155Y-84755155D01*
X170275290Y-84822008D01*
X167431037Y-87666261D01*
X167346932Y-87711216D01*
X167080156Y-87930154D01*
X167025287Y-87997012D01*
X166322009Y-88700289D01*
X166255155Y-88755155D01*
X166200291Y-88822007D01*
X166200289Y-88822009D01*
X166192461Y-88831548D01*
X166036217Y-89021932D01*
X165873531Y-89326296D01*
X165773350Y-89656549D01*
X165748000Y-89913932D01*
X165748000Y-89913939D01*
X165739524Y-90000000D01*
X165748000Y-90086061D01*
X165748001Y-113161361D01*
X165587855Y-113227696D01*
X165255863Y-113449526D01*
X164973526Y-113731863D01*
X164751696Y-114063855D01*
X164598896Y-114432746D01*
X164521000Y-114824358D01*
X164521000Y-115223642D01*
X164598896Y-115615254D01*
X164751696Y-115984145D01*
X164973526Y-116316137D01*
X165255863Y-116598474D01*
X165587855Y-116820304D01*
X165891785Y-116946196D01*
X165839855Y-116967706D01*
X165507863Y-117189536D01*
X165225526Y-117471873D01*
X165003696Y-117803865D01*
X164850896Y-118172756D01*
X164773000Y-118564368D01*
X164773000Y-118963652D01*
X164850896Y-119355264D01*
X165003696Y-119724155D01*
X165148001Y-119940122D01*
X165148000Y-124173549D01*
X165103696Y-124239855D01*
X164950896Y-124608746D01*
X164873000Y-125000358D01*
X164873000Y-125399642D01*
X164950896Y-125791254D01*
X165103696Y-126160145D01*
X165325526Y-126492137D01*
X165527843Y-126694454D01*
X164657170Y-127565128D01*
X163900000Y-127565128D01*
X163581052Y-127596542D01*
X163274362Y-127689575D01*
X162991714Y-127840654D01*
X162743971Y-128043971D01*
X162540654Y-128291714D01*
X162389575Y-128574362D01*
X162296542Y-128881052D01*
X162265128Y-129200000D01*
X157636037Y-129200000D01*
X157796304Y-128960145D01*
X157949104Y-128591254D01*
X158027000Y-128199642D01*
X158027000Y-127800358D01*
X157949104Y-127408746D01*
X157796304Y-127039855D01*
X157752000Y-126973549D01*
X157752000Y-122126451D01*
X157796304Y-122060145D01*
X157949104Y-121691254D01*
X158027000Y-121299642D01*
X158027000Y-120900358D01*
X157949104Y-120508746D01*
X157796304Y-120139855D01*
X157574474Y-119807863D01*
X157292137Y-119525526D01*
X156960145Y-119303696D01*
X156591254Y-119150896D01*
X156199642Y-119073000D01*
X155800358Y-119073000D01*
X155408746Y-119150896D01*
X155039855Y-119303696D01*
X154707863Y-119525526D01*
X154425526Y-119807863D01*
X154203696Y-120139855D01*
X154050896Y-120508746D01*
X153973000Y-120900358D01*
X101652000Y-120900358D01*
X101652000Y-114618913D01*
X101742931Y-114637000D01*
X102217069Y-114637000D01*
X102682096Y-114544500D01*
X103120142Y-114363055D01*
X103250000Y-114276287D01*
X103379858Y-114363055D01*
X103817904Y-114544500D01*
X104282931Y-114637000D01*
X104757069Y-114637000D01*
X105222096Y-114544500D01*
X105660142Y-114363055D01*
X105790000Y-114276287D01*
X105919858Y-114363055D01*
X106357904Y-114544500D01*
X106822931Y-114637000D01*
X107297069Y-114637000D01*
X107762096Y-114544500D01*
X108200142Y-114363055D01*
X108330000Y-114276287D01*
X108459858Y-114363055D01*
X108897904Y-114544500D01*
X109362931Y-114637000D01*
X109837069Y-114637000D01*
X110302096Y-114544500D01*
X110740142Y-114363055D01*
X110870000Y-114276287D01*
X110999858Y-114363055D01*
X111437904Y-114544500D01*
X111902931Y-114637000D01*
X112377069Y-114637000D01*
X112842096Y-114544500D01*
X113280142Y-114363055D01*
X113674373Y-114099639D01*
X114009639Y-113764373D01*
X114273055Y-113370142D01*
X114454500Y-112932096D01*
X114547000Y-112467069D01*
X114547000Y-111992931D01*
X114813000Y-111992931D01*
X114813000Y-112467069D01*
X114905500Y-112932096D01*
X115086945Y-113370142D01*
X115350361Y-113764373D01*
X115685627Y-114099639D01*
X116079858Y-114363055D01*
X116517904Y-114544500D01*
X116982931Y-114637000D01*
X117457069Y-114637000D01*
X117922096Y-114544500D01*
X118360142Y-114363055D01*
X118490000Y-114276287D01*
X118619858Y-114363055D01*
X119057904Y-114544500D01*
X119522931Y-114637000D01*
X119997069Y-114637000D01*
X120462096Y-114544500D01*
X120900142Y-114363055D01*
X121030000Y-114276287D01*
X121159858Y-114363055D01*
X121597904Y-114544500D01*
X122062931Y-114637000D01*
X122537069Y-114637000D01*
X123002096Y-114544500D01*
X123440142Y-114363055D01*
X123570000Y-114276287D01*
X123699858Y-114363055D01*
X124137904Y-114544500D01*
X124602931Y-114637000D01*
X125077069Y-114637000D01*
X125542096Y-114544500D01*
X125980142Y-114363055D01*
X126110000Y-114276287D01*
X126239858Y-114363055D01*
X126677904Y-114544500D01*
X127142931Y-114637000D01*
X127617069Y-114637000D01*
X128082096Y-114544500D01*
X128520142Y-114363055D01*
X128650000Y-114276287D01*
X128779858Y-114363055D01*
X129217904Y-114544500D01*
X129682931Y-114637000D01*
X130157069Y-114637000D01*
X130622096Y-114544500D01*
X131060142Y-114363055D01*
X131190000Y-114276287D01*
X131319858Y-114363055D01*
X131757904Y-114544500D01*
X132222931Y-114637000D01*
X132697069Y-114637000D01*
X133162096Y-114544500D01*
X133600142Y-114363055D01*
X133730000Y-114276287D01*
X133859858Y-114363055D01*
X134297904Y-114544500D01*
X134762931Y-114637000D01*
X135237069Y-114637000D01*
X135702096Y-114544500D01*
X136140142Y-114363055D01*
X136270000Y-114276287D01*
X136399858Y-114363055D01*
X136837904Y-114544500D01*
X137302931Y-114637000D01*
X137777069Y-114637000D01*
X138242096Y-114544500D01*
X138680142Y-114363055D01*
X138810000Y-114276287D01*
X138939858Y-114363055D01*
X139377904Y-114544500D01*
X139842931Y-114637000D01*
X140317069Y-114637000D01*
X140782096Y-114544500D01*
X141220142Y-114363055D01*
X141350000Y-114276287D01*
X141479858Y-114363055D01*
X141917904Y-114544500D01*
X142382931Y-114637000D01*
X142857069Y-114637000D01*
X143322096Y-114544500D01*
X143760142Y-114363055D01*
X143890000Y-114276287D01*
X144019858Y-114363055D01*
X144457904Y-114544500D01*
X144922931Y-114637000D01*
X145397069Y-114637000D01*
X145862096Y-114544500D01*
X146131011Y-114433112D01*
X146294362Y-114520425D01*
X146601052Y-114613458D01*
X146920000Y-114644872D01*
X148480000Y-114644872D01*
X148798948Y-114613458D01*
X149105638Y-114520425D01*
X149388286Y-114369346D01*
X149636029Y-114166029D01*
X149839346Y-113918286D01*
X149990425Y-113635638D01*
X150083458Y-113328948D01*
X150114872Y-113010000D01*
X150114872Y-111450000D01*
X150083458Y-111131052D01*
X149990425Y-110824362D01*
X149839346Y-110541714D01*
X149636029Y-110293971D01*
X149388286Y-110090654D01*
X149105638Y-109939575D01*
X148798948Y-109846542D01*
X148480000Y-109815128D01*
X146920000Y-109815128D01*
X146601052Y-109846542D01*
X146294362Y-109939575D01*
X146131011Y-110026888D01*
X145862096Y-109915500D01*
X145397069Y-109823000D01*
X144922931Y-109823000D01*
X144457904Y-109915500D01*
X144019858Y-110096945D01*
X143890000Y-110183713D01*
X143760142Y-110096945D01*
X143322096Y-109915500D01*
X142857069Y-109823000D01*
X142382931Y-109823000D01*
X141917904Y-109915500D01*
X141479858Y-110096945D01*
X141350000Y-110183713D01*
X141220142Y-110096945D01*
X140782096Y-109915500D01*
X140317069Y-109823000D01*
X140165838Y-109823000D01*
X140355638Y-109765425D01*
X140638286Y-109614346D01*
X140886029Y-109411029D01*
X141089346Y-109163286D01*
X141240425Y-108880638D01*
X141333458Y-108573948D01*
X141364872Y-108255000D01*
X141364872Y-105055000D01*
X141333458Y-104736052D01*
X141240425Y-104429362D01*
X141089346Y-104146714D01*
X140886029Y-103898971D01*
X140638286Y-103695654D01*
X140355638Y-103544575D01*
X140048948Y-103451542D01*
X139730000Y-103420128D01*
X137430000Y-103420128D01*
X137310000Y-103431947D01*
X137190000Y-103420128D01*
X134890000Y-103420128D01*
X134571052Y-103451542D01*
X134264362Y-103544575D01*
X133981714Y-103695654D01*
X133733971Y-103898971D01*
X133530654Y-104146714D01*
X133379575Y-104429362D01*
X133286542Y-104736052D01*
X133255128Y-105055000D01*
X133255128Y-108255000D01*
X133286542Y-108573948D01*
X133379575Y-108880638D01*
X133530654Y-109163286D01*
X133733971Y-109411029D01*
X133981714Y-109614346D01*
X134264362Y-109765425D01*
X134571052Y-109858458D01*
X134580162Y-109859355D01*
X134297904Y-109915500D01*
X133859858Y-110096945D01*
X133730000Y-110183713D01*
X133600142Y-110096945D01*
X133162096Y-109915500D01*
X132697069Y-109823000D01*
X132222931Y-109823000D01*
X131757904Y-109915500D01*
X131319858Y-110096945D01*
X131190000Y-110183713D01*
X131060142Y-110096945D01*
X130622096Y-109915500D01*
X130157069Y-109823000D01*
X129682931Y-109823000D01*
X129217904Y-109915500D01*
X128779858Y-110096945D01*
X128650000Y-110183713D01*
X128520142Y-110096945D01*
X128082096Y-109915500D01*
X127617069Y-109823000D01*
X127142931Y-109823000D01*
X126677904Y-109915500D01*
X126239858Y-110096945D01*
X126110000Y-110183713D01*
X125980142Y-110096945D01*
X125542096Y-109915500D01*
X125077069Y-109823000D01*
X124602931Y-109823000D01*
X124137904Y-109915500D01*
X123699858Y-110096945D01*
X123570000Y-110183713D01*
X123440142Y-110096945D01*
X123002096Y-109915500D01*
X122537069Y-109823000D01*
X122062931Y-109823000D01*
X121597904Y-109915500D01*
X121159858Y-110096945D01*
X121030000Y-110183713D01*
X120900142Y-110096945D01*
X120462096Y-109915500D01*
X119997069Y-109823000D01*
X119522931Y-109823000D01*
X119057904Y-109915500D01*
X118619858Y-110096945D01*
X118490000Y-110183713D01*
X118360142Y-110096945D01*
X117922096Y-109915500D01*
X117457069Y-109823000D01*
X116982931Y-109823000D01*
X116517904Y-109915500D01*
X116079858Y-110096945D01*
X115685627Y-110360361D01*
X115350361Y-110695627D01*
X115086945Y-111089858D01*
X114905500Y-111527904D01*
X114813000Y-111992931D01*
X114547000Y-111992931D01*
X114454500Y-111527904D01*
X114273055Y-111089858D01*
X114009639Y-110695627D01*
X113674373Y-110360361D01*
X113411734Y-110184872D01*
X114700000Y-110184872D01*
X115018948Y-110153458D01*
X115325638Y-110060425D01*
X115608286Y-109909346D01*
X115856029Y-109706029D01*
X116059346Y-109458286D01*
X116210425Y-109175638D01*
X116303458Y-108868948D01*
X116334872Y-108550000D01*
X116334872Y-106250000D01*
X116303458Y-105931052D01*
X116210425Y-105624362D01*
X116059346Y-105341714D01*
X115856029Y-105093971D01*
X115608286Y-104890654D01*
X115325638Y-104739575D01*
X115018948Y-104646542D01*
X114700000Y-104615128D01*
X112900000Y-104615128D01*
X112581052Y-104646542D01*
X112274362Y-104739575D01*
X111991714Y-104890654D01*
X111743971Y-105093971D01*
X111540654Y-105341714D01*
X111389575Y-105624362D01*
X111296542Y-105931052D01*
X111265128Y-106250000D01*
X111265128Y-108550000D01*
X111296542Y-108868948D01*
X111389575Y-109175638D01*
X111540654Y-109458286D01*
X111743971Y-109706029D01*
X111889706Y-109825631D01*
X111437904Y-109915500D01*
X110999858Y-110096945D01*
X110870000Y-110183713D01*
X110740142Y-110096945D01*
X110302096Y-109915500D01*
X109837069Y-109823000D01*
X109362931Y-109823000D01*
X108916130Y-109911875D01*
X109106029Y-109756029D01*
X109309346Y-109508286D01*
X109460425Y-109225638D01*
X109553458Y-108918948D01*
X109584872Y-108600000D01*
X109584872Y-107200000D01*
X109553458Y-106881052D01*
X109460425Y-106574362D01*
X109309346Y-106291714D01*
X109106029Y-106043971D01*
X108858286Y-105840654D01*
X108575638Y-105689575D01*
X108268948Y-105596542D01*
X107950000Y-105565128D01*
X105850000Y-105565128D01*
X105531052Y-105596542D01*
X105224362Y-105689575D01*
X104941714Y-105840654D01*
X104693971Y-106043971D01*
X104490654Y-106291714D01*
X104339575Y-106574362D01*
X104246542Y-106881052D01*
X104215128Y-107200000D01*
X104215128Y-108600000D01*
X104246542Y-108918948D01*
X104339575Y-109225638D01*
X104490654Y-109508286D01*
X104693971Y-109756029D01*
X104781496Y-109827859D01*
X104757069Y-109823000D01*
X104282931Y-109823000D01*
X103817904Y-109915500D01*
X103379858Y-110096945D01*
X103250000Y-110183713D01*
X103120142Y-110096945D01*
X102682096Y-109915500D01*
X102217069Y-109823000D01*
X101742931Y-109823000D01*
X101652000Y-109841087D01*
X101652000Y-99600000D01*
X106615128Y-99600000D01*
X106615128Y-101400000D01*
X106646542Y-101718948D01*
X106739575Y-102025638D01*
X106890654Y-102308286D01*
X107093971Y-102556029D01*
X107341714Y-102759346D01*
X107624362Y-102910425D01*
X107931052Y-103003458D01*
X108250000Y-103034872D01*
X110550000Y-103034872D01*
X110868948Y-103003458D01*
X111175638Y-102910425D01*
X111458286Y-102759346D01*
X111706029Y-102556029D01*
X111909346Y-102308286D01*
X112060425Y-102025638D01*
X112153458Y-101718948D01*
X112184872Y-101400000D01*
X112184872Y-100992017D01*
X150948000Y-100992017D01*
X150948000Y-101607983D01*
X151068169Y-102212112D01*
X151303889Y-102781190D01*
X151646101Y-103293346D01*
X152081654Y-103728899D01*
X152593810Y-104071111D01*
X153162888Y-104306831D01*
X153767017Y-104427000D01*
X154382983Y-104427000D01*
X154667670Y-104370372D01*
X158700001Y-108402704D01*
X158700000Y-113481861D01*
X158411476Y-113770385D01*
X158123983Y-114200649D01*
X157925954Y-114678732D01*
X157825000Y-115186263D01*
X157825000Y-115703737D01*
X157925954Y-116211268D01*
X158123983Y-116689351D01*
X158411476Y-117119615D01*
X158777385Y-117485524D01*
X159207649Y-117773017D01*
X159685732Y-117971046D01*
X160193263Y-118072000D01*
X160710737Y-118072000D01*
X161218268Y-117971046D01*
X161696351Y-117773017D01*
X162126615Y-117485524D01*
X162492524Y-117119615D01*
X162780017Y-116689351D01*
X162978046Y-116211268D01*
X163079000Y-115703737D01*
X163079000Y-115186263D01*
X162978046Y-114678732D01*
X162780017Y-114200649D01*
X162492524Y-113770385D01*
X162204000Y-113481861D01*
X162204000Y-107763061D01*
X162212476Y-107677000D01*
X162204000Y-107590939D01*
X162204000Y-107590931D01*
X162178650Y-107333548D01*
X162078469Y-107003295D01*
X161915783Y-106698931D01*
X161813552Y-106574362D01*
X161751711Y-106499008D01*
X161751705Y-106499002D01*
X161696845Y-106432155D01*
X161629998Y-106377295D01*
X157145372Y-101892670D01*
X157202000Y-101607983D01*
X157202000Y-100992017D01*
X157081831Y-100387888D01*
X156846111Y-99818810D01*
X156503899Y-99306654D01*
X156068346Y-98871101D01*
X155556190Y-98528889D01*
X154987112Y-98293169D01*
X154382983Y-98173000D01*
X153767017Y-98173000D01*
X153162888Y-98293169D01*
X152593810Y-98528889D01*
X152081654Y-98871101D01*
X151646101Y-99306654D01*
X151303889Y-99818810D01*
X151068169Y-100387888D01*
X150948000Y-100992017D01*
X112184872Y-100992017D01*
X112184872Y-100052038D01*
X112358286Y-99959346D01*
X112606029Y-99756029D01*
X112809346Y-99508286D01*
X112960425Y-99225638D01*
X113053458Y-98918948D01*
X113084872Y-98600000D01*
X113084872Y-97600358D01*
X116373000Y-97600358D01*
X116373000Y-97999642D01*
X116450896Y-98391254D01*
X116603696Y-98760145D01*
X116825526Y-99092137D01*
X117107863Y-99374474D01*
X117439855Y-99596304D01*
X117808746Y-99749104D01*
X118200358Y-99827000D01*
X118599642Y-99827000D01*
X118991254Y-99749104D01*
X119360145Y-99596304D01*
X119426451Y-99552000D01*
X123073549Y-99552000D01*
X123139855Y-99596304D01*
X123508746Y-99749104D01*
X123900358Y-99827000D01*
X124299642Y-99827000D01*
X124691254Y-99749104D01*
X125060145Y-99596304D01*
X125392137Y-99374474D01*
X125674474Y-99092137D01*
X125896304Y-98760145D01*
X126049104Y-98391254D01*
X126127000Y-97999642D01*
X126127000Y-97600358D01*
X126049104Y-97208746D01*
X125896304Y-96839855D01*
X125674474Y-96507863D01*
X125392137Y-96225526D01*
X125060145Y-96003696D01*
X124691254Y-95850896D01*
X124299642Y-95773000D01*
X123900358Y-95773000D01*
X123508746Y-95850896D01*
X123139855Y-96003696D01*
X123073549Y-96048000D01*
X119426451Y-96048000D01*
X119360145Y-96003696D01*
X118991254Y-95850896D01*
X118599642Y-95773000D01*
X118200358Y-95773000D01*
X117808746Y-95850896D01*
X117439855Y-96003696D01*
X117107863Y-96225526D01*
X116825526Y-96507863D01*
X116603696Y-96839855D01*
X116450896Y-97208746D01*
X116373000Y-97600358D01*
X113084872Y-97600358D01*
X113084872Y-97200000D01*
X113053458Y-96881052D01*
X112960425Y-96574362D01*
X112809346Y-96291714D01*
X112606029Y-96043971D01*
X112358286Y-95840654D01*
X112075638Y-95689575D01*
X111768948Y-95596542D01*
X111450000Y-95565128D01*
X109350000Y-95565128D01*
X109031052Y-95596542D01*
X108724362Y-95689575D01*
X108441714Y-95840654D01*
X108193971Y-96043971D01*
X107990654Y-96291714D01*
X107839575Y-96574362D01*
X107746542Y-96881052D01*
X107715128Y-97200000D01*
X107715128Y-98062042D01*
X107624362Y-98089575D01*
X107341714Y-98240654D01*
X107093971Y-98443971D01*
X106890654Y-98691714D01*
X106739575Y-98974362D01*
X106646542Y-99281052D01*
X106615128Y-99600000D01*
X101652000Y-99600000D01*
X101652000Y-80250000D01*
X101945128Y-80250000D01*
X101945128Y-83250000D01*
X101976542Y-83568948D01*
X102069575Y-83875638D01*
X102220654Y-84158286D01*
X102423971Y-84406029D01*
X102671714Y-84609346D01*
X102954362Y-84760425D01*
X103261052Y-84853458D01*
X103580000Y-84884872D01*
X106580000Y-84884872D01*
X106898948Y-84853458D01*
X107205638Y-84760425D01*
X107488286Y-84609346D01*
X107736029Y-84406029D01*
X107939346Y-84158286D01*
X108090425Y-83875638D01*
X108183458Y-83568948D01*
X108214872Y-83250000D01*
X108214872Y-80250000D01*
X108183458Y-79931052D01*
X108090425Y-79624362D01*
X107939346Y-79341714D01*
X107736029Y-79093971D01*
X107488286Y-78890654D01*
X107205638Y-78739575D01*
X106898948Y-78646542D01*
X106580000Y-78615128D01*
X103580000Y-78615128D01*
X103261052Y-78646542D01*
X102954362Y-78739575D01*
X102671714Y-78890654D01*
X102423971Y-79093971D01*
X102220654Y-79341714D01*
X102069575Y-79624362D01*
X101976542Y-79931052D01*
X101945128Y-80250000D01*
X101652000Y-80250000D01*
X101652000Y-69285000D01*
X114400128Y-69285000D01*
X114400128Y-71235000D01*
X114431542Y-71553948D01*
X114524575Y-71860638D01*
X114675654Y-72143286D01*
X114878971Y-72391029D01*
X115126714Y-72594346D01*
X115409362Y-72745425D01*
X115506498Y-72774891D01*
X115435526Y-72845863D01*
X115213696Y-73177855D01*
X115060896Y-73546746D01*
X114983000Y-73938358D01*
X114983000Y-74337642D01*
X115060896Y-74729254D01*
X115133000Y-74903328D01*
X115133001Y-91152670D01*
X115060896Y-91326746D01*
X114983000Y-91718358D01*
X114983000Y-92117642D01*
X115060896Y-92509254D01*
X115213696Y-92878145D01*
X115435526Y-93210137D01*
X115717863Y-93492474D01*
X116049855Y-93714304D01*
X116418746Y-93867104D01*
X116810358Y-93945000D01*
X117209642Y-93945000D01*
X117601254Y-93867104D01*
X117970145Y-93714304D01*
X118302137Y-93492474D01*
X118584474Y-93210137D01*
X118806304Y-92878145D01*
X118959104Y-92509254D01*
X119037000Y-92117642D01*
X119037000Y-91718358D01*
X118959104Y-91326746D01*
X118887000Y-91152672D01*
X118887000Y-79300000D01*
X121515128Y-79300000D01*
X121515128Y-86300000D01*
X121546542Y-86618948D01*
X121639575Y-86925638D01*
X121790654Y-87208286D01*
X121993971Y-87456029D01*
X122241714Y-87659346D01*
X122524362Y-87810425D01*
X122831052Y-87903458D01*
X123150000Y-87934872D01*
X125650000Y-87934872D01*
X125968948Y-87903458D01*
X126275638Y-87810425D01*
X126558286Y-87659346D01*
X126806029Y-87456029D01*
X127009346Y-87208286D01*
X127160425Y-86925638D01*
X127253458Y-86618948D01*
X127284872Y-86300000D01*
X127284872Y-79300000D01*
X128515128Y-79300000D01*
X128515128Y-86300000D01*
X128546542Y-86618948D01*
X128639575Y-86925638D01*
X128790654Y-87208286D01*
X128993971Y-87456029D01*
X129241714Y-87659346D01*
X129524362Y-87810425D01*
X129831052Y-87903458D01*
X130150000Y-87934872D01*
X132650000Y-87934872D01*
X132968948Y-87903458D01*
X133270587Y-87811957D01*
X133286542Y-87973948D01*
X133379575Y-88280638D01*
X133530654Y-88563286D01*
X133733971Y-88811029D01*
X133981714Y-89014346D01*
X134264362Y-89165425D01*
X134571052Y-89258458D01*
X134890000Y-89289872D01*
X137190000Y-89289872D01*
X137310000Y-89278053D01*
X137430000Y-89289872D01*
X139730000Y-89289872D01*
X140048948Y-89258458D01*
X140355638Y-89165425D01*
X140638286Y-89014346D01*
X140886029Y-88811029D01*
X141089346Y-88563286D01*
X141240425Y-88280638D01*
X141333458Y-87973948D01*
X141364872Y-87655000D01*
X141364872Y-84455000D01*
X141333458Y-84136052D01*
X141240425Y-83829362D01*
X141089346Y-83546714D01*
X140886029Y-83298971D01*
X140638286Y-83095654D01*
X140355638Y-82944575D01*
X140048948Y-82851542D01*
X139730000Y-82820128D01*
X137430000Y-82820128D01*
X137310000Y-82831947D01*
X137190000Y-82820128D01*
X134890000Y-82820128D01*
X134571052Y-82851542D01*
X134284872Y-82938353D01*
X134284872Y-79402017D01*
X150313000Y-79402017D01*
X150313000Y-80017983D01*
X150433169Y-80622112D01*
X150668889Y-81191190D01*
X151011101Y-81703346D01*
X151446654Y-82138899D01*
X151958810Y-82481111D01*
X152527888Y-82716831D01*
X153132017Y-82837000D01*
X153747983Y-82837000D01*
X154352112Y-82716831D01*
X154921190Y-82481111D01*
X155433346Y-82138899D01*
X155868899Y-81703346D01*
X156211111Y-81191190D01*
X156446831Y-80622112D01*
X156567000Y-80017983D01*
X156567000Y-79402017D01*
X172913000Y-79402017D01*
X172913000Y-80017983D01*
X173033169Y-80622112D01*
X173268889Y-81191190D01*
X173611101Y-81703346D01*
X174046654Y-82138899D01*
X174558810Y-82481111D01*
X175127888Y-82716831D01*
X175732017Y-82837000D01*
X176347983Y-82837000D01*
X176952112Y-82716831D01*
X177521190Y-82481111D01*
X178033346Y-82138899D01*
X178468899Y-81703346D01*
X178811111Y-81191190D01*
X179046831Y-80622112D01*
X179167000Y-80017983D01*
X179167000Y-79402017D01*
X179046831Y-78797888D01*
X178811111Y-78228810D01*
X178468899Y-77716654D01*
X178033346Y-77281101D01*
X177521190Y-76938889D01*
X176952112Y-76703169D01*
X176347983Y-76583000D01*
X175732017Y-76583000D01*
X175127888Y-76703169D01*
X174558810Y-76938889D01*
X174046654Y-77281101D01*
X173611101Y-77716654D01*
X173268889Y-78228810D01*
X173033169Y-78797888D01*
X172913000Y-79402017D01*
X156567000Y-79402017D01*
X156446831Y-78797888D01*
X156211111Y-78228810D01*
X155868899Y-77716654D01*
X155433346Y-77281101D01*
X154921190Y-76938889D01*
X154352112Y-76703169D01*
X153747983Y-76583000D01*
X153132017Y-76583000D01*
X152527888Y-76703169D01*
X151958810Y-76938889D01*
X151446654Y-77281101D01*
X151011101Y-77716654D01*
X150668889Y-78228810D01*
X150433169Y-78797888D01*
X150313000Y-79402017D01*
X134284872Y-79402017D01*
X134284872Y-79300000D01*
X134253458Y-78981052D01*
X134160425Y-78674362D01*
X134009346Y-78391714D01*
X133806029Y-78143971D01*
X133558286Y-77940654D01*
X133275638Y-77789575D01*
X132968948Y-77696542D01*
X132650000Y-77665128D01*
X130150000Y-77665128D01*
X129831052Y-77696542D01*
X129524362Y-77789575D01*
X129241714Y-77940654D01*
X128993971Y-78143971D01*
X128790654Y-78391714D01*
X128639575Y-78674362D01*
X128546542Y-78981052D01*
X128515128Y-79300000D01*
X127284872Y-79300000D01*
X127253458Y-78981052D01*
X127160425Y-78674362D01*
X127009346Y-78391714D01*
X126806029Y-78143971D01*
X126558286Y-77940654D01*
X126275638Y-77789575D01*
X125968948Y-77696542D01*
X125650000Y-77665128D01*
X123150000Y-77665128D01*
X122831052Y-77696542D01*
X122524362Y-77789575D01*
X122241714Y-77940654D01*
X121993971Y-78143971D01*
X121790654Y-78391714D01*
X121639575Y-78674362D01*
X121546542Y-78981052D01*
X121515128Y-79300000D01*
X118887000Y-79300000D01*
X118887000Y-74903328D01*
X118959104Y-74729254D01*
X119037000Y-74337642D01*
X119037000Y-73938358D01*
X118959104Y-73546746D01*
X118806304Y-73177855D01*
X118584474Y-72845863D01*
X118513502Y-72774891D01*
X118610638Y-72745425D01*
X118893286Y-72594346D01*
X119141029Y-72391029D01*
X119344346Y-72143286D01*
X119495425Y-71860638D01*
X119588458Y-71553948D01*
X119619872Y-71235000D01*
X119619872Y-70003725D01*
X134408000Y-70003725D01*
X134408000Y-70516275D01*
X134507993Y-71018975D01*
X134704137Y-71492509D01*
X134988895Y-71918678D01*
X135351322Y-72281105D01*
X135777491Y-72565863D01*
X136251025Y-72762007D01*
X136753725Y-72862000D01*
X137266275Y-72862000D01*
X137768975Y-72762007D01*
X138242509Y-72565863D01*
X138668678Y-72281105D01*
X139031105Y-71918678D01*
X139315863Y-71492509D01*
X139510000Y-71023820D01*
X139704137Y-71492509D01*
X139988895Y-71918678D01*
X140351322Y-72281105D01*
X140777491Y-72565863D01*
X141251025Y-72762007D01*
X141753725Y-72862000D01*
X142266275Y-72862000D01*
X142768975Y-72762007D01*
X143242509Y-72565863D01*
X143668678Y-72281105D01*
X144031105Y-71918678D01*
X144315863Y-71492509D01*
X144512007Y-71018975D01*
X144612000Y-70516275D01*
X144612000Y-70003725D01*
X144512007Y-69501025D01*
X144315863Y-69027491D01*
X144031105Y-68601322D01*
X143668678Y-68238895D01*
X143242509Y-67954137D01*
X142768975Y-67757993D01*
X142266275Y-67658000D01*
X141753725Y-67658000D01*
X141251025Y-67757993D01*
X140777491Y-67954137D01*
X140351322Y-68238895D01*
X139988895Y-68601322D01*
X139704137Y-69027491D01*
X139510000Y-69496180D01*
X139315863Y-69027491D01*
X139031105Y-68601322D01*
X138668678Y-68238895D01*
X138242509Y-67954137D01*
X137768975Y-67757993D01*
X137266275Y-67658000D01*
X136753725Y-67658000D01*
X136251025Y-67757993D01*
X135777491Y-67954137D01*
X135351322Y-68238895D01*
X134988895Y-68601322D01*
X134704137Y-69027491D01*
X134507993Y-69501025D01*
X134408000Y-70003725D01*
X119619872Y-70003725D01*
X119619872Y-69285000D01*
X119588458Y-68966052D01*
X119495425Y-68659362D01*
X119344346Y-68376714D01*
X119141029Y-68128971D01*
X118893286Y-67925654D01*
X118610638Y-67774575D01*
X118303948Y-67681542D01*
X117985000Y-67650128D01*
X116035000Y-67650128D01*
X115716052Y-67681542D01*
X115409362Y-67774575D01*
X115126714Y-67925654D01*
X114878971Y-68128971D01*
X114675654Y-68376714D01*
X114524575Y-68659362D01*
X114431542Y-68966052D01*
X114400128Y-69285000D01*
X101652000Y-69285000D01*
X101652000Y-62503725D01*
X114408000Y-62503725D01*
X114408000Y-63016275D01*
X114507993Y-63518975D01*
X114704137Y-63992509D01*
X114988895Y-64418678D01*
X115351322Y-64781105D01*
X115777491Y-65065863D01*
X116251025Y-65262007D01*
X116753725Y-65362000D01*
X117266275Y-65362000D01*
X117768975Y-65262007D01*
X118242509Y-65065863D01*
X118668678Y-64781105D01*
X119031105Y-64418678D01*
X119315863Y-63992509D01*
X119512007Y-63518975D01*
X119612000Y-63016275D01*
X119612000Y-62503725D01*
X134408000Y-62503725D01*
X134408000Y-63016275D01*
X134507993Y-63518975D01*
X134704137Y-63992509D01*
X134988895Y-64418678D01*
X135351322Y-64781105D01*
X135777491Y-65065863D01*
X136251025Y-65262007D01*
X136753725Y-65362000D01*
X137266275Y-65362000D01*
X137768975Y-65262007D01*
X138242509Y-65065863D01*
X138668678Y-64781105D01*
X139031105Y-64418678D01*
X139315863Y-63992509D01*
X139510000Y-63523820D01*
X139704137Y-63992509D01*
X139988895Y-64418678D01*
X140351322Y-64781105D01*
X140777491Y-65065863D01*
X141251025Y-65262007D01*
X141753725Y-65362000D01*
X142266275Y-65362000D01*
X142768975Y-65262007D01*
X143242509Y-65065863D01*
X143668678Y-64781105D01*
X144031105Y-64418678D01*
X144315863Y-63992509D01*
X144512007Y-63518975D01*
X144612000Y-63016275D01*
X144612000Y-62503725D01*
X144512007Y-62001025D01*
X144315863Y-61527491D01*
X144031105Y-61101322D01*
X143668678Y-60738895D01*
X143242509Y-60454137D01*
X142768975Y-60257993D01*
X142266275Y-60158000D01*
X141753725Y-60158000D01*
X141251025Y-60257993D01*
X140777491Y-60454137D01*
X140351322Y-60738895D01*
X139988895Y-61101322D01*
X139704137Y-61527491D01*
X139510000Y-61996180D01*
X139315863Y-61527491D01*
X139031105Y-61101322D01*
X138668678Y-60738895D01*
X138242509Y-60454137D01*
X137768975Y-60257993D01*
X137266275Y-60158000D01*
X136753725Y-60158000D01*
X136251025Y-60257993D01*
X135777491Y-60454137D01*
X135351322Y-60738895D01*
X134988895Y-61101322D01*
X134704137Y-61527491D01*
X134507993Y-62001025D01*
X134408000Y-62503725D01*
X119612000Y-62503725D01*
X119512007Y-62001025D01*
X119315863Y-61527491D01*
X119031105Y-61101322D01*
X118668678Y-60738895D01*
X118242509Y-60454137D01*
X117768975Y-60257993D01*
X117266275Y-60158000D01*
X116753725Y-60158000D01*
X116251025Y-60257993D01*
X115777491Y-60454137D01*
X115351322Y-60738895D01*
X114988895Y-61101322D01*
X114704137Y-61527491D01*
X114507993Y-62001025D01*
X114408000Y-62503725D01*
X101652000Y-62503725D01*
X101652000Y-57812017D01*
X150313000Y-57812017D01*
X150313000Y-58427983D01*
X150433169Y-59032112D01*
X150668889Y-59601190D01*
X151011101Y-60113346D01*
X151446654Y-60548899D01*
X151958810Y-60891111D01*
X152527888Y-61126831D01*
X153132017Y-61247000D01*
X153747983Y-61247000D01*
X154352112Y-61126831D01*
X154921190Y-60891111D01*
X155433346Y-60548899D01*
X155868899Y-60113346D01*
X156211111Y-59601190D01*
X156446831Y-59032112D01*
X156567000Y-58427983D01*
X156567000Y-57812017D01*
X172913000Y-57812017D01*
X172913000Y-58427983D01*
X173033169Y-59032112D01*
X173268889Y-59601190D01*
X173611101Y-60113346D01*
X174046654Y-60548899D01*
X174558810Y-60891111D01*
X175127888Y-61126831D01*
X175732017Y-61247000D01*
X176347983Y-61247000D01*
X176952112Y-61126831D01*
X177521190Y-60891111D01*
X178033346Y-60548899D01*
X178468899Y-60113346D01*
X178811111Y-59601190D01*
X178911015Y-59360000D01*
X189640128Y-59360000D01*
X189640128Y-60960000D01*
X189671542Y-61278948D01*
X189764575Y-61585638D01*
X189915654Y-61868286D01*
X190118971Y-62116029D01*
X190366714Y-62319346D01*
X190649362Y-62470425D01*
X190956052Y-62563458D01*
X191275000Y-62594872D01*
X192875000Y-62594872D01*
X193193948Y-62563458D01*
X193500638Y-62470425D01*
X193783286Y-62319346D01*
X194031029Y-62116029D01*
X194234346Y-61868286D01*
X194385425Y-61585638D01*
X194478458Y-61278948D01*
X194509872Y-60960000D01*
X194509872Y-59360000D01*
X194478458Y-59041052D01*
X194385425Y-58734362D01*
X194234346Y-58451714D01*
X194031029Y-58203971D01*
X193783286Y-58000654D01*
X193500638Y-57849575D01*
X193193948Y-57756542D01*
X192875000Y-57725128D01*
X191275000Y-57725128D01*
X190956052Y-57756542D01*
X190649362Y-57849575D01*
X190366714Y-58000654D01*
X190118971Y-58203971D01*
X189915654Y-58451714D01*
X189764575Y-58734362D01*
X189671542Y-59041052D01*
X189640128Y-59360000D01*
X178911015Y-59360000D01*
X179046831Y-59032112D01*
X179167000Y-58427983D01*
X179167000Y-57812017D01*
X179046831Y-57207888D01*
X178811111Y-56638810D01*
X178468899Y-56126654D01*
X178033346Y-55691101D01*
X177521190Y-55348889D01*
X176952112Y-55113169D01*
X176347983Y-54993000D01*
X175732017Y-54993000D01*
X175127888Y-55113169D01*
X174558810Y-55348889D01*
X174046654Y-55691101D01*
X173611101Y-56126654D01*
X173268889Y-56638810D01*
X173033169Y-57207888D01*
X172913000Y-57812017D01*
X156567000Y-57812017D01*
X156446831Y-57207888D01*
X156211111Y-56638810D01*
X155868899Y-56126654D01*
X155433346Y-55691101D01*
X154921190Y-55348889D01*
X154352112Y-55113169D01*
X153747983Y-54993000D01*
X153132017Y-54993000D01*
X152527888Y-55113169D01*
X151958810Y-55348889D01*
X151446654Y-55691101D01*
X151011101Y-56126654D01*
X150668889Y-56638810D01*
X150433169Y-57207888D01*
X150313000Y-57812017D01*
X101652000Y-57812017D01*
X101652000Y-51652000D01*
X208348001Y-51652000D01*
X208348001Y-57835568D01*
M02*
