G04 #@! TF.GenerationSoftware,KiCad,Pcbnew,5.1.6+dfsg1-1*
G04 #@! TF.CreationDate,2020-10-10T18:43:38+02:00*
G04 #@! TF.ProjectId,ledStripDriver,6c656453-7472-4697-9044-72697665722e,rev?*
G04 #@! TF.SameCoordinates,Original*
G04 #@! TF.FileFunction,Legend,Top*
G04 #@! TF.FilePolarity,Positive*
%FSLAX46Y46*%
G04 Gerber Fmt 4.6, Leading zero omitted, Abs format (unit mm)*
G04 Created by KiCad (PCBNEW 5.1.6+dfsg1-1) date 2020-10-10 18:43:38*
%MOMM*%
%LPD*%
G01*
G04 APERTURE LIST*
%ADD10C,0.300000*%
%ADD11C,0.150000*%
%ADD12C,0.120000*%
%ADD13C,0.127000*%
%ADD14C,0.500000*%
%ADD15C,0.015000*%
G04 APERTURE END LIST*
D10*
X116628571Y-94707142D02*
X117771428Y-94707142D01*
D11*
X118819047Y-94671428D02*
X119580952Y-94671428D01*
X119200000Y-95052380D02*
X119200000Y-94290476D01*
X128819047Y-107871428D02*
X129580952Y-107871428D01*
X129200000Y-108252380D02*
X129200000Y-107490476D01*
D10*
X130828571Y-107907142D02*
X131971428Y-107907142D01*
D11*
X196133333Y-120504761D02*
X196133333Y-121933333D01*
X196038095Y-122219047D01*
X195847619Y-122409523D01*
X195561904Y-122504761D01*
X195371428Y-122504761D01*
X196895238Y-120504761D02*
X198133333Y-120504761D01*
X197466666Y-121266666D01*
X197752380Y-121266666D01*
X197942857Y-121361904D01*
X198038095Y-121457142D01*
X198133333Y-121647619D01*
X198133333Y-122123809D01*
X198038095Y-122314285D01*
X197942857Y-122409523D01*
X197752380Y-122504761D01*
X197180952Y-122504761D01*
X196990476Y-122409523D01*
X196895238Y-122314285D01*
X182333333Y-120304761D02*
X182333333Y-121733333D01*
X182238095Y-122019047D01*
X182047619Y-122209523D01*
X181761904Y-122304761D01*
X181571428Y-122304761D01*
X183190476Y-120495238D02*
X183285714Y-120400000D01*
X183476190Y-120304761D01*
X183952380Y-120304761D01*
X184142857Y-120400000D01*
X184238095Y-120495238D01*
X184333333Y-120685714D01*
X184333333Y-120876190D01*
X184238095Y-121161904D01*
X183095238Y-122304761D01*
X184333333Y-122304761D01*
X169133333Y-120304761D02*
X169133333Y-121733333D01*
X169038095Y-122019047D01*
X168847619Y-122209523D01*
X168561904Y-122304761D01*
X168371428Y-122304761D01*
X171133333Y-122304761D02*
X169990476Y-122304761D01*
X170561904Y-122304761D02*
X170561904Y-120304761D01*
X170371428Y-120590476D01*
X170180952Y-120780952D01*
X169990476Y-120876190D01*
D10*
X137621428Y-52678571D02*
X136907142Y-52678571D01*
X136907142Y-51178571D01*
X138692857Y-52607142D02*
X138550000Y-52678571D01*
X138264285Y-52678571D01*
X138121428Y-52607142D01*
X138050000Y-52464285D01*
X138050000Y-51892857D01*
X138121428Y-51750000D01*
X138264285Y-51678571D01*
X138550000Y-51678571D01*
X138692857Y-51750000D01*
X138764285Y-51892857D01*
X138764285Y-52035714D01*
X138050000Y-52178571D01*
X140050000Y-52678571D02*
X140050000Y-51178571D01*
X140050000Y-52607142D02*
X139907142Y-52678571D01*
X139621428Y-52678571D01*
X139478571Y-52607142D01*
X139407142Y-52535714D01*
X139335714Y-52392857D01*
X139335714Y-51964285D01*
X139407142Y-51821428D01*
X139478571Y-51750000D01*
X139621428Y-51678571D01*
X139907142Y-51678571D01*
X140050000Y-51750000D01*
X140692857Y-52607142D02*
X140907142Y-52678571D01*
X141264285Y-52678571D01*
X141407142Y-52607142D01*
X141478571Y-52535714D01*
X141550000Y-52392857D01*
X141550000Y-52250000D01*
X141478571Y-52107142D01*
X141407142Y-52035714D01*
X141264285Y-51964285D01*
X140978571Y-51892857D01*
X140835714Y-51821428D01*
X140764285Y-51750000D01*
X140692857Y-51607142D01*
X140692857Y-51464285D01*
X140764285Y-51321428D01*
X140835714Y-51250000D01*
X140978571Y-51178571D01*
X141335714Y-51178571D01*
X141550000Y-51250000D01*
X141978571Y-51678571D02*
X142550000Y-51678571D01*
X142192857Y-51178571D02*
X142192857Y-52464285D01*
X142264285Y-52607142D01*
X142407142Y-52678571D01*
X142550000Y-52678571D01*
X143050000Y-52678571D02*
X143050000Y-51678571D01*
X143050000Y-51964285D02*
X143121428Y-51821428D01*
X143192857Y-51750000D01*
X143335714Y-51678571D01*
X143478571Y-51678571D01*
X143978571Y-52678571D02*
X143978571Y-51678571D01*
X143978571Y-51178571D02*
X143907142Y-51250000D01*
X143978571Y-51321428D01*
X144050000Y-51250000D01*
X143978571Y-51178571D01*
X143978571Y-51321428D01*
X144692857Y-51678571D02*
X144692857Y-53178571D01*
X144692857Y-51750000D02*
X144835714Y-51678571D01*
X145121428Y-51678571D01*
X145264285Y-51750000D01*
X145335714Y-51821428D01*
X145407142Y-51964285D01*
X145407142Y-52392857D01*
X145335714Y-52535714D01*
X145264285Y-52607142D01*
X145121428Y-52678571D01*
X144835714Y-52678571D01*
X144692857Y-52607142D01*
X147050000Y-52821428D02*
X146907142Y-52750000D01*
X146764285Y-52607142D01*
X146550000Y-52392857D01*
X146407142Y-52321428D01*
X146264285Y-52321428D01*
X146335714Y-52678571D02*
X146192857Y-52607142D01*
X146050000Y-52464285D01*
X145978571Y-52178571D01*
X145978571Y-51678571D01*
X146050000Y-51392857D01*
X146192857Y-51250000D01*
X146335714Y-51178571D01*
X146621428Y-51178571D01*
X146764285Y-51250000D01*
X146907142Y-51392857D01*
X146978571Y-51678571D01*
X146978571Y-52178571D01*
X146907142Y-52464285D01*
X146764285Y-52607142D01*
X146621428Y-52678571D01*
X146335714Y-52678571D01*
X147478571Y-51178571D02*
X148407142Y-51178571D01*
X147907142Y-51750000D01*
X148121428Y-51750000D01*
X148264285Y-51821428D01*
X148335714Y-51892857D01*
X148407142Y-52035714D01*
X148407142Y-52392857D01*
X148335714Y-52535714D01*
X148264285Y-52607142D01*
X148121428Y-52678571D01*
X147692857Y-52678571D01*
X147550000Y-52607142D01*
X147478571Y-52535714D01*
X149121428Y-51178571D02*
X148978571Y-51464285D01*
X149692857Y-51321428D02*
X149764285Y-51250000D01*
X149907142Y-51178571D01*
X150264285Y-51178571D01*
X150407142Y-51250000D01*
X150478571Y-51321428D01*
X150550000Y-51464285D01*
X150550000Y-51607142D01*
X150478571Y-51821428D01*
X149621428Y-52678571D01*
X150550000Y-52678571D01*
X151478571Y-51178571D02*
X151621428Y-51178571D01*
X151764285Y-51250000D01*
X151835714Y-51321428D01*
X151907142Y-51464285D01*
X151978571Y-51750000D01*
X151978571Y-52107142D01*
X151907142Y-52392857D01*
X151835714Y-52535714D01*
X151764285Y-52607142D01*
X151621428Y-52678571D01*
X151478571Y-52678571D01*
X151335714Y-52607142D01*
X151264285Y-52535714D01*
X151192857Y-52392857D01*
X151121428Y-52107142D01*
X151121428Y-51750000D01*
X151192857Y-51464285D01*
X151264285Y-51321428D01*
X151335714Y-51250000D01*
X151478571Y-51178571D01*
X154192857Y-53250000D02*
X154121428Y-53178571D01*
X153978571Y-52964285D01*
X153907142Y-52821428D01*
X153835714Y-52607142D01*
X153764285Y-52250000D01*
X153764285Y-51964285D01*
X153835714Y-51607142D01*
X153907142Y-51392857D01*
X153978571Y-51250000D01*
X154121428Y-51035714D01*
X154192857Y-50964285D01*
X154621428Y-51678571D02*
X154978571Y-52678571D01*
X155335714Y-51678571D01*
X155764285Y-51178571D02*
X156692857Y-51178571D01*
X156192857Y-51750000D01*
X156407142Y-51750000D01*
X156550000Y-51821428D01*
X156621428Y-51892857D01*
X156692857Y-52035714D01*
X156692857Y-52392857D01*
X156621428Y-52535714D01*
X156550000Y-52607142D01*
X156407142Y-52678571D01*
X155978571Y-52678571D01*
X155835714Y-52607142D01*
X155764285Y-52535714D01*
X157192857Y-53250000D02*
X157264285Y-53178571D01*
X157407142Y-52964285D01*
X157478571Y-52821428D01*
X157550000Y-52607142D01*
X157621428Y-52250000D01*
X157621428Y-51964285D01*
X157550000Y-51607142D01*
X157478571Y-51392857D01*
X157407142Y-51250000D01*
X157264285Y-51035714D01*
X157192857Y-50964285D01*
X159478571Y-52107142D02*
X160621428Y-52107142D01*
X162478571Y-51678571D02*
X162478571Y-53178571D01*
X162478571Y-51750000D02*
X162621428Y-51678571D01*
X162907142Y-51678571D01*
X163050000Y-51750000D01*
X163121428Y-51821428D01*
X163192857Y-51964285D01*
X163192857Y-52392857D01*
X163121428Y-52535714D01*
X163050000Y-52607142D01*
X162907142Y-52678571D01*
X162621428Y-52678571D01*
X162478571Y-52607142D01*
X163621428Y-51678571D02*
X164192857Y-51678571D01*
X163835714Y-51178571D02*
X163835714Y-52464285D01*
X163907142Y-52607142D01*
X164050000Y-52678571D01*
X164192857Y-52678571D01*
X165335714Y-52678571D02*
X165335714Y-51892857D01*
X165264285Y-51750000D01*
X165121428Y-51678571D01*
X164835714Y-51678571D01*
X164692857Y-51750000D01*
X165335714Y-52607142D02*
X165192857Y-52678571D01*
X164835714Y-52678571D01*
X164692857Y-52607142D01*
X164621428Y-52464285D01*
X164621428Y-52321428D01*
X164692857Y-52178571D01*
X164835714Y-52107142D01*
X165192857Y-52107142D01*
X165335714Y-52035714D01*
X166050000Y-52678571D02*
X166050000Y-51178571D01*
X166050000Y-51750000D02*
X166192857Y-51678571D01*
X166478571Y-51678571D01*
X166621428Y-51750000D01*
X166692857Y-51821428D01*
X166764285Y-51964285D01*
X166764285Y-52392857D01*
X166692857Y-52535714D01*
X166621428Y-52607142D01*
X166478571Y-52678571D01*
X166192857Y-52678571D01*
X166050000Y-52607142D01*
X202114285Y-111678571D02*
X201257142Y-111678571D01*
X201685714Y-111678571D02*
X201685714Y-110178571D01*
X201542857Y-110392857D01*
X201400000Y-110535714D01*
X201257142Y-110607142D01*
X202685714Y-110321428D02*
X202757142Y-110250000D01*
X202900000Y-110178571D01*
X203257142Y-110178571D01*
X203400000Y-110250000D01*
X203471428Y-110321428D01*
X203542857Y-110464285D01*
X203542857Y-110607142D01*
X203471428Y-110821428D01*
X202614285Y-111678571D01*
X203542857Y-111678571D01*
X203971428Y-110178571D02*
X204471428Y-111678571D01*
X204971428Y-110178571D01*
X206828571Y-111678571D02*
X206685714Y-111607142D01*
X206614285Y-111535714D01*
X206542857Y-111392857D01*
X206542857Y-110964285D01*
X206614285Y-110821428D01*
X206685714Y-110750000D01*
X206828571Y-110678571D01*
X207042857Y-110678571D01*
X207185714Y-110750000D01*
X207257142Y-110821428D01*
X207328571Y-110964285D01*
X207328571Y-111392857D01*
X207257142Y-111535714D01*
X207185714Y-111607142D01*
X207042857Y-111678571D01*
X206828571Y-111678571D01*
X208614285Y-110678571D02*
X208614285Y-111678571D01*
X207971428Y-110678571D02*
X207971428Y-111464285D01*
X208042857Y-111607142D01*
X208185714Y-111678571D01*
X208400000Y-111678571D01*
X208542857Y-111607142D01*
X208614285Y-111535714D01*
X209114285Y-110678571D02*
X209685714Y-110678571D01*
X209328571Y-110178571D02*
X209328571Y-111464285D01*
X209400000Y-111607142D01*
X209542857Y-111678571D01*
X209685714Y-111678571D01*
X202632285Y-91318571D02*
X201775142Y-91318571D01*
X202203714Y-91318571D02*
X202203714Y-89818571D01*
X202060857Y-90032857D01*
X201918000Y-90175714D01*
X201775142Y-90247142D01*
X203203714Y-89961428D02*
X203275142Y-89890000D01*
X203418000Y-89818571D01*
X203775142Y-89818571D01*
X203918000Y-89890000D01*
X203989428Y-89961428D01*
X204060857Y-90104285D01*
X204060857Y-90247142D01*
X203989428Y-90461428D01*
X203132285Y-91318571D01*
X204060857Y-91318571D01*
X204489428Y-89818571D02*
X204989428Y-91318571D01*
X205489428Y-89818571D01*
X207346571Y-91318571D02*
X207203714Y-91247142D01*
X207132285Y-91175714D01*
X207060857Y-91032857D01*
X207060857Y-90604285D01*
X207132285Y-90461428D01*
X207203714Y-90390000D01*
X207346571Y-90318571D01*
X207560857Y-90318571D01*
X207703714Y-90390000D01*
X207775142Y-90461428D01*
X207846571Y-90604285D01*
X207846571Y-91032857D01*
X207775142Y-91175714D01*
X207703714Y-91247142D01*
X207560857Y-91318571D01*
X207346571Y-91318571D01*
X209132285Y-90318571D02*
X209132285Y-91318571D01*
X208489428Y-90318571D02*
X208489428Y-91104285D01*
X208560857Y-91247142D01*
X208703714Y-91318571D01*
X208918000Y-91318571D01*
X209060857Y-91247142D01*
X209132285Y-91175714D01*
X209632285Y-90318571D02*
X210203714Y-90318571D01*
X209846571Y-89818571D02*
X209846571Y-91104285D01*
X209918000Y-91247142D01*
X210060857Y-91318571D01*
X210203714Y-91318571D01*
X202632285Y-69728571D02*
X201775142Y-69728571D01*
X202203714Y-69728571D02*
X202203714Y-68228571D01*
X202060857Y-68442857D01*
X201918000Y-68585714D01*
X201775142Y-68657142D01*
X203203714Y-68371428D02*
X203275142Y-68300000D01*
X203418000Y-68228571D01*
X203775142Y-68228571D01*
X203918000Y-68300000D01*
X203989428Y-68371428D01*
X204060857Y-68514285D01*
X204060857Y-68657142D01*
X203989428Y-68871428D01*
X203132285Y-69728571D01*
X204060857Y-69728571D01*
X204489428Y-68228571D02*
X204989428Y-69728571D01*
X205489428Y-68228571D01*
X207346571Y-69728571D02*
X207203714Y-69657142D01*
X207132285Y-69585714D01*
X207060857Y-69442857D01*
X207060857Y-69014285D01*
X207132285Y-68871428D01*
X207203714Y-68800000D01*
X207346571Y-68728571D01*
X207560857Y-68728571D01*
X207703714Y-68800000D01*
X207775142Y-68871428D01*
X207846571Y-69014285D01*
X207846571Y-69442857D01*
X207775142Y-69585714D01*
X207703714Y-69657142D01*
X207560857Y-69728571D01*
X207346571Y-69728571D01*
X209132285Y-68728571D02*
X209132285Y-69728571D01*
X208489428Y-68728571D02*
X208489428Y-69514285D01*
X208560857Y-69657142D01*
X208703714Y-69728571D01*
X208918000Y-69728571D01*
X209060857Y-69657142D01*
X209132285Y-69585714D01*
X209632285Y-68728571D02*
X210203714Y-68728571D01*
X209846571Y-68228571D02*
X209846571Y-69514285D01*
X209918000Y-69657142D01*
X210060857Y-69728571D01*
X210203714Y-69728571D01*
X202743428Y-93033142D02*
X203886285Y-93033142D01*
X206529142Y-92176000D02*
X206386285Y-92104571D01*
X206172000Y-92104571D01*
X205957714Y-92176000D01*
X205814857Y-92318857D01*
X205743428Y-92461714D01*
X205672000Y-92747428D01*
X205672000Y-92961714D01*
X205743428Y-93247428D01*
X205814857Y-93390285D01*
X205957714Y-93533142D01*
X206172000Y-93604571D01*
X206314857Y-93604571D01*
X206529142Y-93533142D01*
X206600571Y-93461714D01*
X206600571Y-92961714D01*
X206314857Y-92961714D01*
X207243428Y-93604571D02*
X207243428Y-92104571D01*
X208100571Y-93604571D01*
X208100571Y-92104571D01*
X208814857Y-93604571D02*
X208814857Y-92104571D01*
X209172000Y-92104571D01*
X209386285Y-92176000D01*
X209529142Y-92318857D01*
X209600571Y-92461714D01*
X209672000Y-92747428D01*
X209672000Y-92961714D01*
X209600571Y-93247428D01*
X209529142Y-93390285D01*
X209386285Y-93533142D01*
X209172000Y-93604571D01*
X208814857Y-93604571D01*
X202997428Y-72205142D02*
X204140285Y-72205142D01*
X206783142Y-71348000D02*
X206640285Y-71276571D01*
X206426000Y-71276571D01*
X206211714Y-71348000D01*
X206068857Y-71490857D01*
X205997428Y-71633714D01*
X205926000Y-71919428D01*
X205926000Y-72133714D01*
X205997428Y-72419428D01*
X206068857Y-72562285D01*
X206211714Y-72705142D01*
X206426000Y-72776571D01*
X206568857Y-72776571D01*
X206783142Y-72705142D01*
X206854571Y-72633714D01*
X206854571Y-72133714D01*
X206568857Y-72133714D01*
X207497428Y-72776571D02*
X207497428Y-71276571D01*
X208354571Y-72776571D01*
X208354571Y-71276571D01*
X209068857Y-72776571D02*
X209068857Y-71276571D01*
X209426000Y-71276571D01*
X209640285Y-71348000D01*
X209783142Y-71490857D01*
X209854571Y-71633714D01*
X209926000Y-71919428D01*
X209926000Y-72133714D01*
X209854571Y-72419428D01*
X209783142Y-72562285D01*
X209640285Y-72705142D01*
X209426000Y-72776571D01*
X209068857Y-72776571D01*
X202997428Y-51377142D02*
X204140285Y-51377142D01*
X206783142Y-50520000D02*
X206640285Y-50448571D01*
X206426000Y-50448571D01*
X206211714Y-50520000D01*
X206068857Y-50662857D01*
X205997428Y-50805714D01*
X205926000Y-51091428D01*
X205926000Y-51305714D01*
X205997428Y-51591428D01*
X206068857Y-51734285D01*
X206211714Y-51877142D01*
X206426000Y-51948571D01*
X206568857Y-51948571D01*
X206783142Y-51877142D01*
X206854571Y-51805714D01*
X206854571Y-51305714D01*
X206568857Y-51305714D01*
X207497428Y-51948571D02*
X207497428Y-50448571D01*
X208354571Y-51948571D01*
X208354571Y-50448571D01*
X209068857Y-51948571D02*
X209068857Y-50448571D01*
X209426000Y-50448571D01*
X209640285Y-50520000D01*
X209783142Y-50662857D01*
X209854571Y-50805714D01*
X209926000Y-51091428D01*
X209926000Y-51305714D01*
X209854571Y-51591428D01*
X209783142Y-51734285D01*
X209640285Y-51877142D01*
X209426000Y-51948571D01*
X209068857Y-51948571D01*
X101428571Y-51907142D02*
X102571428Y-51907142D01*
X102000000Y-52478571D02*
X102000000Y-51335714D01*
X104071428Y-52478571D02*
X103214285Y-52478571D01*
X103642857Y-52478571D02*
X103642857Y-50978571D01*
X103500000Y-51192857D01*
X103357142Y-51335714D01*
X103214285Y-51407142D01*
X104642857Y-51121428D02*
X104714285Y-51050000D01*
X104857142Y-50978571D01*
X105214285Y-50978571D01*
X105357142Y-51050000D01*
X105428571Y-51121428D01*
X105500000Y-51264285D01*
X105500000Y-51407142D01*
X105428571Y-51621428D01*
X104571428Y-52478571D01*
X105500000Y-52478571D01*
X105928571Y-50978571D02*
X106428571Y-52478571D01*
X106928571Y-50978571D01*
X107500000Y-52407142D02*
X107500000Y-52478571D01*
X107428571Y-52621428D01*
X107357142Y-52692857D01*
X110428571Y-51478571D02*
X109285714Y-51907142D01*
X110428571Y-52335714D01*
X111928571Y-52478571D02*
X111071428Y-52478571D01*
X111500000Y-52478571D02*
X111500000Y-50978571D01*
X111357142Y-51192857D01*
X111214285Y-51335714D01*
X111071428Y-51407142D01*
X113285714Y-50978571D02*
X112571428Y-50978571D01*
X112500000Y-51692857D01*
X112571428Y-51621428D01*
X112714285Y-51550000D01*
X113071428Y-51550000D01*
X113214285Y-51621428D01*
X113285714Y-51692857D01*
X113357142Y-51835714D01*
X113357142Y-52192857D01*
X113285714Y-52335714D01*
X113214285Y-52407142D01*
X113071428Y-52478571D01*
X112714285Y-52478571D01*
X112571428Y-52407142D01*
X112500000Y-52335714D01*
X113928571Y-52050000D02*
X114642857Y-52050000D01*
X113785714Y-52478571D02*
X114285714Y-50978571D01*
X114785714Y-52478571D01*
X100771428Y-71307142D02*
X101914285Y-71307142D01*
X104557142Y-70450000D02*
X104414285Y-70378571D01*
X104200000Y-70378571D01*
X103985714Y-70450000D01*
X103842857Y-70592857D01*
X103771428Y-70735714D01*
X103700000Y-71021428D01*
X103700000Y-71235714D01*
X103771428Y-71521428D01*
X103842857Y-71664285D01*
X103985714Y-71807142D01*
X104200000Y-71878571D01*
X104342857Y-71878571D01*
X104557142Y-71807142D01*
X104628571Y-71735714D01*
X104628571Y-71235714D01*
X104342857Y-71235714D01*
X105271428Y-71878571D02*
X105271428Y-70378571D01*
X106128571Y-71878571D01*
X106128571Y-70378571D01*
X106842857Y-71878571D02*
X106842857Y-70378571D01*
X107200000Y-70378571D01*
X107414285Y-70450000D01*
X107557142Y-70592857D01*
X107628571Y-70735714D01*
X107700000Y-71021428D01*
X107700000Y-71235714D01*
X107628571Y-71521428D01*
X107557142Y-71664285D01*
X107414285Y-71807142D01*
X107200000Y-71878571D01*
X106842857Y-71878571D01*
D12*
X110550000Y-73900000D02*
X113850000Y-73900000D01*
X113850000Y-73900000D02*
X113850000Y-67000000D01*
X110550000Y-73900000D02*
X110550000Y-67000000D01*
X120365000Y-99785000D02*
X120365000Y-103085000D01*
X120365000Y-103085000D02*
X127265000Y-103085000D01*
X120365000Y-99785000D02*
X127265000Y-99785000D01*
X138000000Y-81650000D02*
X138000000Y-78350000D01*
X138000000Y-78350000D02*
X131100000Y-78350000D01*
X138000000Y-81650000D02*
X131100000Y-81650000D01*
D13*
X100690000Y-110980000D02*
X155090000Y-110980000D01*
X155090000Y-110980000D02*
X155090000Y-138880000D01*
X155090000Y-138880000D02*
X100690000Y-138880000D01*
X100690000Y-138880000D02*
X100690000Y-110980000D01*
D12*
X101270000Y-121120000D02*
X105080000Y-121120000D01*
X105080000Y-121120000D02*
X105080000Y-127470000D01*
X105080000Y-127470000D02*
X105080000Y-128740000D01*
X105080000Y-128740000D02*
X101270000Y-128740000D01*
X101270000Y-128740000D02*
X101270000Y-121120000D01*
X155245000Y-117945000D02*
X129845000Y-117945000D01*
X129845000Y-117945000D02*
X129845000Y-132550000D01*
X129845000Y-132550000D02*
X155245000Y-132550000D01*
X149530000Y-110960000D02*
X149530000Y-138900000D01*
X158738748Y-134890000D02*
X159261252Y-134890000D01*
X158738748Y-136310000D02*
X159261252Y-136310000D01*
X159261252Y-138510000D02*
X158738748Y-138510000D01*
X159261252Y-137090000D02*
X158738748Y-137090000D01*
X109840000Y-80140000D02*
X101300000Y-80140000D01*
X101300000Y-80140000D02*
X101300000Y-94860000D01*
X109840000Y-94860000D02*
X101300000Y-94860000D01*
X115520000Y-80140000D02*
X115520000Y-94860000D01*
X115520000Y-80140000D02*
X113540000Y-80140000D01*
X113540000Y-94860000D02*
X115520000Y-94860000D01*
X116400000Y-83500000D02*
X115900000Y-84000000D01*
X115900000Y-84000000D02*
X116400000Y-84500000D01*
X116400000Y-84500000D02*
X116400000Y-83500000D01*
X118461252Y-94110000D02*
X117938748Y-94110000D01*
X118461252Y-92690000D02*
X117938748Y-92690000D01*
X129938748Y-105690000D02*
X130461252Y-105690000D01*
X129938748Y-107110000D02*
X130461252Y-107110000D01*
X132210000Y-99010000D02*
X132210000Y-96660000D01*
X132210000Y-92190000D02*
X132210000Y-94540000D01*
X126454437Y-92190000D02*
X132210000Y-92190000D01*
X126454437Y-99010000D02*
X132210000Y-99010000D01*
X125390000Y-97945563D02*
X125390000Y-96660000D01*
X125390000Y-93254437D02*
X125390000Y-94540000D01*
X125390000Y-93254437D02*
X126454437Y-92190000D01*
X125390000Y-97945563D02*
X126454437Y-99010000D01*
X124362500Y-93752500D02*
X125150000Y-93752500D01*
X124756250Y-93358750D02*
X124756250Y-94146250D01*
X132210000Y-91210000D02*
X132210000Y-88860000D01*
X132210000Y-84390000D02*
X132210000Y-86740000D01*
X126454437Y-84390000D02*
X132210000Y-84390000D01*
X126454437Y-91210000D02*
X132210000Y-91210000D01*
X125390000Y-90145563D02*
X125390000Y-88860000D01*
X125390000Y-85454437D02*
X125390000Y-86740000D01*
X125390000Y-85454437D02*
X126454437Y-84390000D01*
X125390000Y-90145563D02*
X126454437Y-91210000D01*
X124362500Y-85952500D02*
X125150000Y-85952500D01*
X124756250Y-85558750D02*
X124756250Y-86346250D01*
X116800000Y-52400000D02*
X116800000Y-62400000D01*
X134800000Y-52400000D02*
X116800000Y-52400000D01*
X134800000Y-62400000D02*
X116800000Y-62400000D01*
X134800000Y-52400000D02*
X134800000Y-62400000D01*
X154075000Y-96500000D02*
X154075000Y-99300000D01*
X154075000Y-103300000D02*
X154075000Y-106100000D01*
X176675000Y-103300000D02*
X176675000Y-106100000D01*
X176675000Y-106100000D02*
X154075000Y-106100000D01*
X176675000Y-96500000D02*
X154075000Y-96500000D01*
X176675000Y-96500000D02*
X176675000Y-99300000D01*
X153440000Y-74910000D02*
X153440000Y-77710000D01*
X153440000Y-81710000D02*
X153440000Y-84510000D01*
X176040000Y-81710000D02*
X176040000Y-84510000D01*
X176040000Y-84510000D02*
X153440000Y-84510000D01*
X176040000Y-74910000D02*
X153440000Y-74910000D01*
X176040000Y-74910000D02*
X176040000Y-77710000D01*
X153440000Y-53320000D02*
X153440000Y-56120000D01*
X153440000Y-60120000D02*
X153440000Y-62920000D01*
X176040000Y-60120000D02*
X176040000Y-62920000D01*
X176040000Y-62920000D02*
X153440000Y-62920000D01*
X176040000Y-53320000D02*
X153440000Y-53320000D01*
X176040000Y-53320000D02*
X176040000Y-56120000D01*
X108400000Y-56500000D02*
G75*
G03*
X108400000Y-56500000I-900000J0D01*
G01*
X106000000Y-61500000D02*
G75*
G03*
X106000000Y-61500000I-1500000J0D01*
G01*
X108400000Y-61500000D02*
G75*
G03*
X108400000Y-61500000I-900000J0D01*
G01*
X106180000Y-66500000D02*
G75*
G03*
X106180000Y-66500000I-1680000J0D01*
G01*
X108400000Y-66500000D02*
G75*
G03*
X108400000Y-66500000I-900000J0D01*
G01*
X102000000Y-53940000D02*
X102000000Y-69060000D01*
X109560000Y-53940000D02*
X109560000Y-69060000D01*
X100440000Y-53940000D02*
X100440000Y-69060000D01*
X109560000Y-53940000D02*
X100440000Y-53940000D01*
X109560000Y-69060000D02*
X100440000Y-69060000D01*
X105569000Y-67775000D02*
X105476000Y-67681000D01*
X103284000Y-65490000D02*
X103226000Y-65431000D01*
X105775000Y-67570000D02*
X105716000Y-67511000D01*
X103524000Y-65320000D02*
X103431000Y-65226000D01*
X101940000Y-53700000D02*
X100200000Y-53700000D01*
X100200000Y-53700000D02*
X100200000Y-55200000D01*
X102819550Y-56529383D02*
G75*
G02*
X103016000Y-55711000I1680450J29383D01*
G01*
X103710912Y-55016047D02*
G75*
G02*
X105289000Y-55016000I789088J-1483953D01*
G01*
X105983953Y-55710912D02*
G75*
G02*
X105984000Y-57289000I-1483953J-789088D01*
G01*
X105289088Y-57983953D02*
G75*
G02*
X103711000Y-57984000I-789088J1483953D01*
G01*
X103016648Y-57288712D02*
G75*
G02*
X102820000Y-56500000I1483352J788712D01*
G01*
X167510000Y-128670000D02*
X165860000Y-128670000D01*
X165860000Y-128670000D02*
X165860000Y-138950000D01*
X165860000Y-138950000D02*
X171160000Y-138950000D01*
X171160000Y-138950000D02*
X171160000Y-128670000D01*
X171160000Y-128670000D02*
X169510000Y-128670000D01*
X163370000Y-128610000D02*
X163370000Y-139010000D01*
X163370000Y-139010000D02*
X173650000Y-139010000D01*
X173650000Y-139010000D02*
X173650000Y-128610000D01*
X173650000Y-128610000D02*
X163370000Y-128610000D01*
X169510000Y-128670000D02*
G75*
G02*
X167510000Y-128670000I-1000000J0D01*
G01*
X117738748Y-102590000D02*
X118261252Y-102590000D01*
X117738748Y-104010000D02*
X118261252Y-104010000D01*
X117713748Y-104890000D02*
X118236252Y-104890000D01*
X117713748Y-106310000D02*
X118236252Y-106310000D01*
X176138748Y-129390000D02*
X176661252Y-129390000D01*
X176138748Y-130810000D02*
X176661252Y-130810000D01*
X205090000Y-122061252D02*
X205090000Y-121538748D01*
X206510000Y-122061252D02*
X206510000Y-121538748D01*
X207890000Y-122061252D02*
X207890000Y-121538748D01*
X209310000Y-122061252D02*
X209310000Y-121538748D01*
X118286252Y-108610000D02*
X117763748Y-108610000D01*
X118286252Y-107190000D02*
X117763748Y-107190000D01*
X117661252Y-98610000D02*
X117138748Y-98610000D01*
X117661252Y-97190000D02*
X117138748Y-97190000D01*
X160290000Y-131386252D02*
X160290000Y-130863748D01*
X161710000Y-131386252D02*
X161710000Y-130863748D01*
X176861252Y-138310000D02*
X176338748Y-138310000D01*
X176861252Y-136890000D02*
X176338748Y-136890000D01*
X176238748Y-133190000D02*
X176761252Y-133190000D01*
X176238748Y-134610000D02*
X176761252Y-134610000D01*
X181710000Y-133763748D02*
X181710000Y-134286252D01*
X180290000Y-133763748D02*
X180290000Y-134286252D01*
X204990000Y-117561252D02*
X204990000Y-117038748D01*
X206410000Y-117561252D02*
X206410000Y-117038748D01*
X207790000Y-117586252D02*
X207790000Y-117063748D01*
X209210000Y-117586252D02*
X209210000Y-117063748D01*
X198163748Y-101090000D02*
X198686252Y-101090000D01*
X198163748Y-102510000D02*
X198686252Y-102510000D01*
X198063748Y-79390000D02*
X198586252Y-79390000D01*
X198063748Y-80810000D02*
X198586252Y-80810000D01*
X198313748Y-58990000D02*
X198836252Y-58990000D01*
X198313748Y-60410000D02*
X198836252Y-60410000D01*
X146236252Y-110210000D02*
X145713748Y-110210000D01*
X146236252Y-108790000D02*
X145713748Y-108790000D01*
X141261252Y-110210000D02*
X140738748Y-110210000D01*
X141261252Y-108790000D02*
X140738748Y-108790000D01*
X196195000Y-78580000D02*
G75*
G03*
X196195000Y-78580000I-4120000J0D01*
G01*
X187995000Y-78580000D02*
X196155000Y-78580000D01*
X187995000Y-78540000D02*
X196155000Y-78540000D01*
X187995000Y-78500000D02*
X196155000Y-78500000D01*
X187996000Y-78460000D02*
X196154000Y-78460000D01*
X187998000Y-78420000D02*
X196152000Y-78420000D01*
X187999000Y-78380000D02*
X196151000Y-78380000D01*
X188001000Y-78340000D02*
X196149000Y-78340000D01*
X188004000Y-78300000D02*
X196146000Y-78300000D01*
X188007000Y-78260000D02*
X196143000Y-78260000D01*
X188010000Y-78220000D02*
X196140000Y-78220000D01*
X188014000Y-78180000D02*
X196136000Y-78180000D01*
X188018000Y-78140000D02*
X196132000Y-78140000D01*
X188023000Y-78100000D02*
X196127000Y-78100000D01*
X188027000Y-78060000D02*
X196123000Y-78060000D01*
X188033000Y-78020000D02*
X196117000Y-78020000D01*
X188038000Y-77980000D02*
X196112000Y-77980000D01*
X188045000Y-77940000D02*
X196105000Y-77940000D01*
X188051000Y-77900000D02*
X196099000Y-77900000D01*
X188058000Y-77859000D02*
X196092000Y-77859000D01*
X188065000Y-77819000D02*
X196085000Y-77819000D01*
X188073000Y-77779000D02*
X196077000Y-77779000D01*
X188081000Y-77739000D02*
X196069000Y-77739000D01*
X188090000Y-77699000D02*
X191035000Y-77699000D01*
X193115000Y-77699000D02*
X196060000Y-77699000D01*
X188099000Y-77659000D02*
X191035000Y-77659000D01*
X193115000Y-77659000D02*
X196051000Y-77659000D01*
X188108000Y-77619000D02*
X191035000Y-77619000D01*
X193115000Y-77619000D02*
X196042000Y-77619000D01*
X188118000Y-77579000D02*
X191035000Y-77579000D01*
X193115000Y-77579000D02*
X196032000Y-77579000D01*
X188128000Y-77539000D02*
X191035000Y-77539000D01*
X193115000Y-77539000D02*
X196022000Y-77539000D01*
X188139000Y-77499000D02*
X191035000Y-77499000D01*
X193115000Y-77499000D02*
X196011000Y-77499000D01*
X188150000Y-77459000D02*
X191035000Y-77459000D01*
X193115000Y-77459000D02*
X196000000Y-77459000D01*
X188161000Y-77419000D02*
X191035000Y-77419000D01*
X193115000Y-77419000D02*
X195989000Y-77419000D01*
X188173000Y-77379000D02*
X191035000Y-77379000D01*
X193115000Y-77379000D02*
X195977000Y-77379000D01*
X188186000Y-77339000D02*
X191035000Y-77339000D01*
X193115000Y-77339000D02*
X195964000Y-77339000D01*
X188198000Y-77299000D02*
X191035000Y-77299000D01*
X193115000Y-77299000D02*
X195952000Y-77299000D01*
X188212000Y-77259000D02*
X191035000Y-77259000D01*
X193115000Y-77259000D02*
X195938000Y-77259000D01*
X188225000Y-77219000D02*
X191035000Y-77219000D01*
X193115000Y-77219000D02*
X195925000Y-77219000D01*
X188240000Y-77179000D02*
X191035000Y-77179000D01*
X193115000Y-77179000D02*
X195910000Y-77179000D01*
X188254000Y-77139000D02*
X191035000Y-77139000D01*
X193115000Y-77139000D02*
X195896000Y-77139000D01*
X188270000Y-77099000D02*
X191035000Y-77099000D01*
X193115000Y-77099000D02*
X195880000Y-77099000D01*
X188285000Y-77059000D02*
X191035000Y-77059000D01*
X193115000Y-77059000D02*
X195865000Y-77059000D01*
X188301000Y-77019000D02*
X191035000Y-77019000D01*
X193115000Y-77019000D02*
X195849000Y-77019000D01*
X188318000Y-76979000D02*
X191035000Y-76979000D01*
X193115000Y-76979000D02*
X195832000Y-76979000D01*
X188335000Y-76939000D02*
X191035000Y-76939000D01*
X193115000Y-76939000D02*
X195815000Y-76939000D01*
X188353000Y-76899000D02*
X191035000Y-76899000D01*
X193115000Y-76899000D02*
X195797000Y-76899000D01*
X188371000Y-76859000D02*
X191035000Y-76859000D01*
X193115000Y-76859000D02*
X195779000Y-76859000D01*
X188389000Y-76819000D02*
X191035000Y-76819000D01*
X193115000Y-76819000D02*
X195761000Y-76819000D01*
X188409000Y-76779000D02*
X191035000Y-76779000D01*
X193115000Y-76779000D02*
X195741000Y-76779000D01*
X188428000Y-76739000D02*
X191035000Y-76739000D01*
X193115000Y-76739000D02*
X195722000Y-76739000D01*
X188448000Y-76699000D02*
X191035000Y-76699000D01*
X193115000Y-76699000D02*
X195702000Y-76699000D01*
X188469000Y-76659000D02*
X191035000Y-76659000D01*
X193115000Y-76659000D02*
X195681000Y-76659000D01*
X188491000Y-76619000D02*
X191035000Y-76619000D01*
X193115000Y-76619000D02*
X195659000Y-76619000D01*
X188513000Y-76579000D02*
X191035000Y-76579000D01*
X193115000Y-76579000D02*
X195637000Y-76579000D01*
X188535000Y-76539000D02*
X191035000Y-76539000D01*
X193115000Y-76539000D02*
X195615000Y-76539000D01*
X188558000Y-76499000D02*
X191035000Y-76499000D01*
X193115000Y-76499000D02*
X195592000Y-76499000D01*
X188582000Y-76459000D02*
X191035000Y-76459000D01*
X193115000Y-76459000D02*
X195568000Y-76459000D01*
X188606000Y-76419000D02*
X191035000Y-76419000D01*
X193115000Y-76419000D02*
X195544000Y-76419000D01*
X188631000Y-76379000D02*
X191035000Y-76379000D01*
X193115000Y-76379000D02*
X195519000Y-76379000D01*
X188657000Y-76339000D02*
X191035000Y-76339000D01*
X193115000Y-76339000D02*
X195493000Y-76339000D01*
X188683000Y-76299000D02*
X191035000Y-76299000D01*
X193115000Y-76299000D02*
X195467000Y-76299000D01*
X188710000Y-76259000D02*
X191035000Y-76259000D01*
X193115000Y-76259000D02*
X195440000Y-76259000D01*
X188737000Y-76219000D02*
X191035000Y-76219000D01*
X193115000Y-76219000D02*
X195413000Y-76219000D01*
X188766000Y-76179000D02*
X191035000Y-76179000D01*
X193115000Y-76179000D02*
X195384000Y-76179000D01*
X188795000Y-76139000D02*
X191035000Y-76139000D01*
X193115000Y-76139000D02*
X195355000Y-76139000D01*
X188825000Y-76099000D02*
X191035000Y-76099000D01*
X193115000Y-76099000D02*
X195325000Y-76099000D01*
X188855000Y-76059000D02*
X191035000Y-76059000D01*
X193115000Y-76059000D02*
X195295000Y-76059000D01*
X188886000Y-76019000D02*
X191035000Y-76019000D01*
X193115000Y-76019000D02*
X195264000Y-76019000D01*
X188919000Y-75979000D02*
X191035000Y-75979000D01*
X193115000Y-75979000D02*
X195231000Y-75979000D01*
X188951000Y-75939000D02*
X191035000Y-75939000D01*
X193115000Y-75939000D02*
X195199000Y-75939000D01*
X188985000Y-75899000D02*
X191035000Y-75899000D01*
X193115000Y-75899000D02*
X195165000Y-75899000D01*
X189020000Y-75859000D02*
X191035000Y-75859000D01*
X193115000Y-75859000D02*
X195130000Y-75859000D01*
X189056000Y-75819000D02*
X191035000Y-75819000D01*
X193115000Y-75819000D02*
X195094000Y-75819000D01*
X189092000Y-75779000D02*
X191035000Y-75779000D01*
X193115000Y-75779000D02*
X195058000Y-75779000D01*
X189130000Y-75739000D02*
X191035000Y-75739000D01*
X193115000Y-75739000D02*
X195020000Y-75739000D01*
X189168000Y-75699000D02*
X191035000Y-75699000D01*
X193115000Y-75699000D02*
X194982000Y-75699000D01*
X189208000Y-75659000D02*
X191035000Y-75659000D01*
X193115000Y-75659000D02*
X194942000Y-75659000D01*
X189249000Y-75619000D02*
X194901000Y-75619000D01*
X189291000Y-75579000D02*
X194859000Y-75579000D01*
X189334000Y-75539000D02*
X194816000Y-75539000D01*
X189378000Y-75499000D02*
X194772000Y-75499000D01*
X189424000Y-75459000D02*
X194726000Y-75459000D01*
X189471000Y-75419000D02*
X194679000Y-75419000D01*
X189519000Y-75379000D02*
X194631000Y-75379000D01*
X189570000Y-75339000D02*
X194580000Y-75339000D01*
X189621000Y-75299000D02*
X194529000Y-75299000D01*
X189675000Y-75259000D02*
X194475000Y-75259000D01*
X189730000Y-75219000D02*
X194420000Y-75219000D01*
X189788000Y-75179000D02*
X194362000Y-75179000D01*
X189847000Y-75139000D02*
X194303000Y-75139000D01*
X189909000Y-75099000D02*
X194241000Y-75099000D01*
X189973000Y-75059000D02*
X194177000Y-75059000D01*
X190041000Y-75019000D02*
X194109000Y-75019000D01*
X190111000Y-74979000D02*
X194039000Y-74979000D01*
X190185000Y-74939000D02*
X193965000Y-74939000D01*
X190262000Y-74899000D02*
X193888000Y-74899000D01*
X190344000Y-74859000D02*
X193806000Y-74859000D01*
X190430000Y-74819000D02*
X193720000Y-74819000D01*
X190523000Y-74779000D02*
X193627000Y-74779000D01*
X190622000Y-74739000D02*
X193528000Y-74739000D01*
X190729000Y-74699000D02*
X193421000Y-74699000D01*
X190846000Y-74659000D02*
X193304000Y-74659000D01*
X190977000Y-74619000D02*
X193173000Y-74619000D01*
X191127000Y-74579000D02*
X193023000Y-74579000D01*
X191307000Y-74539000D02*
X192843000Y-74539000D01*
X191542000Y-74499000D02*
X192608000Y-74499000D01*
X189760000Y-82989698D02*
X189760000Y-82189698D01*
X189360000Y-82589698D02*
X190160000Y-82589698D01*
X185000000Y-136000000D02*
X189500000Y-136000000D01*
X183750000Y-132000000D02*
X183750000Y-133500000D01*
X189500000Y-129500000D02*
X185000000Y-129500000D01*
X190750000Y-133500000D02*
X190750000Y-132000000D01*
X201500000Y-132336000D02*
X200500000Y-132336000D01*
X201000000Y-132836000D02*
X201000000Y-131836000D01*
X194300000Y-128636000D02*
X194300000Y-126036000D01*
X194300000Y-133636000D02*
X194300000Y-131036000D01*
X194300000Y-138636000D02*
X194300000Y-136036000D01*
X208200000Y-136436000D02*
X208500000Y-136136000D01*
X208800000Y-136436000D02*
X208200000Y-136436000D01*
X208500000Y-136136000D02*
X208800000Y-136436000D01*
X207700000Y-138636000D02*
X207700000Y-136136000D01*
X202900000Y-138636000D02*
X207700000Y-138636000D01*
X207700000Y-126036000D02*
X207700000Y-128836000D01*
X202800000Y-126036000D02*
X207700000Y-126036000D01*
X194300000Y-126036000D02*
X199200000Y-126036000D01*
X199200000Y-138636000D02*
X194300000Y-138636000D01*
X204000000Y-132336000D02*
G75*
G03*
X204000000Y-132336000I-3000000J0D01*
G01*
X100800000Y-103100000D02*
X100800000Y-97600000D01*
X100800000Y-97600000D02*
X115000000Y-97600000D01*
X115000000Y-97600000D02*
X115000000Y-109100000D01*
X115000000Y-109100000D02*
X100800000Y-109100000D01*
X100800000Y-109100000D02*
X100800000Y-103100000D01*
X100800000Y-106200000D02*
X97300000Y-106200000D01*
X97300000Y-106200000D02*
X97300000Y-100000000D01*
X97300000Y-100000000D02*
X100800000Y-100000000D01*
X196195000Y-98265000D02*
G75*
G03*
X196195000Y-98265000I-4120000J0D01*
G01*
X187995000Y-98265000D02*
X196155000Y-98265000D01*
X187995000Y-98225000D02*
X196155000Y-98225000D01*
X187995000Y-98185000D02*
X196155000Y-98185000D01*
X187996000Y-98145000D02*
X196154000Y-98145000D01*
X187998000Y-98105000D02*
X196152000Y-98105000D01*
X187999000Y-98065000D02*
X196151000Y-98065000D01*
X188001000Y-98025000D02*
X196149000Y-98025000D01*
X188004000Y-97985000D02*
X196146000Y-97985000D01*
X188007000Y-97945000D02*
X196143000Y-97945000D01*
X188010000Y-97905000D02*
X196140000Y-97905000D01*
X188014000Y-97865000D02*
X196136000Y-97865000D01*
X188018000Y-97825000D02*
X196132000Y-97825000D01*
X188023000Y-97785000D02*
X196127000Y-97785000D01*
X188027000Y-97745000D02*
X196123000Y-97745000D01*
X188033000Y-97705000D02*
X196117000Y-97705000D01*
X188038000Y-97665000D02*
X196112000Y-97665000D01*
X188045000Y-97625000D02*
X196105000Y-97625000D01*
X188051000Y-97585000D02*
X196099000Y-97585000D01*
X188058000Y-97544000D02*
X196092000Y-97544000D01*
X188065000Y-97504000D02*
X196085000Y-97504000D01*
X188073000Y-97464000D02*
X196077000Y-97464000D01*
X188081000Y-97424000D02*
X196069000Y-97424000D01*
X188090000Y-97384000D02*
X191035000Y-97384000D01*
X193115000Y-97384000D02*
X196060000Y-97384000D01*
X188099000Y-97344000D02*
X191035000Y-97344000D01*
X193115000Y-97344000D02*
X196051000Y-97344000D01*
X188108000Y-97304000D02*
X191035000Y-97304000D01*
X193115000Y-97304000D02*
X196042000Y-97304000D01*
X188118000Y-97264000D02*
X191035000Y-97264000D01*
X193115000Y-97264000D02*
X196032000Y-97264000D01*
X188128000Y-97224000D02*
X191035000Y-97224000D01*
X193115000Y-97224000D02*
X196022000Y-97224000D01*
X188139000Y-97184000D02*
X191035000Y-97184000D01*
X193115000Y-97184000D02*
X196011000Y-97184000D01*
X188150000Y-97144000D02*
X191035000Y-97144000D01*
X193115000Y-97144000D02*
X196000000Y-97144000D01*
X188161000Y-97104000D02*
X191035000Y-97104000D01*
X193115000Y-97104000D02*
X195989000Y-97104000D01*
X188173000Y-97064000D02*
X191035000Y-97064000D01*
X193115000Y-97064000D02*
X195977000Y-97064000D01*
X188186000Y-97024000D02*
X191035000Y-97024000D01*
X193115000Y-97024000D02*
X195964000Y-97024000D01*
X188198000Y-96984000D02*
X191035000Y-96984000D01*
X193115000Y-96984000D02*
X195952000Y-96984000D01*
X188212000Y-96944000D02*
X191035000Y-96944000D01*
X193115000Y-96944000D02*
X195938000Y-96944000D01*
X188225000Y-96904000D02*
X191035000Y-96904000D01*
X193115000Y-96904000D02*
X195925000Y-96904000D01*
X188240000Y-96864000D02*
X191035000Y-96864000D01*
X193115000Y-96864000D02*
X195910000Y-96864000D01*
X188254000Y-96824000D02*
X191035000Y-96824000D01*
X193115000Y-96824000D02*
X195896000Y-96824000D01*
X188270000Y-96784000D02*
X191035000Y-96784000D01*
X193115000Y-96784000D02*
X195880000Y-96784000D01*
X188285000Y-96744000D02*
X191035000Y-96744000D01*
X193115000Y-96744000D02*
X195865000Y-96744000D01*
X188301000Y-96704000D02*
X191035000Y-96704000D01*
X193115000Y-96704000D02*
X195849000Y-96704000D01*
X188318000Y-96664000D02*
X191035000Y-96664000D01*
X193115000Y-96664000D02*
X195832000Y-96664000D01*
X188335000Y-96624000D02*
X191035000Y-96624000D01*
X193115000Y-96624000D02*
X195815000Y-96624000D01*
X188353000Y-96584000D02*
X191035000Y-96584000D01*
X193115000Y-96584000D02*
X195797000Y-96584000D01*
X188371000Y-96544000D02*
X191035000Y-96544000D01*
X193115000Y-96544000D02*
X195779000Y-96544000D01*
X188389000Y-96504000D02*
X191035000Y-96504000D01*
X193115000Y-96504000D02*
X195761000Y-96504000D01*
X188409000Y-96464000D02*
X191035000Y-96464000D01*
X193115000Y-96464000D02*
X195741000Y-96464000D01*
X188428000Y-96424000D02*
X191035000Y-96424000D01*
X193115000Y-96424000D02*
X195722000Y-96424000D01*
X188448000Y-96384000D02*
X191035000Y-96384000D01*
X193115000Y-96384000D02*
X195702000Y-96384000D01*
X188469000Y-96344000D02*
X191035000Y-96344000D01*
X193115000Y-96344000D02*
X195681000Y-96344000D01*
X188491000Y-96304000D02*
X191035000Y-96304000D01*
X193115000Y-96304000D02*
X195659000Y-96304000D01*
X188513000Y-96264000D02*
X191035000Y-96264000D01*
X193115000Y-96264000D02*
X195637000Y-96264000D01*
X188535000Y-96224000D02*
X191035000Y-96224000D01*
X193115000Y-96224000D02*
X195615000Y-96224000D01*
X188558000Y-96184000D02*
X191035000Y-96184000D01*
X193115000Y-96184000D02*
X195592000Y-96184000D01*
X188582000Y-96144000D02*
X191035000Y-96144000D01*
X193115000Y-96144000D02*
X195568000Y-96144000D01*
X188606000Y-96104000D02*
X191035000Y-96104000D01*
X193115000Y-96104000D02*
X195544000Y-96104000D01*
X188631000Y-96064000D02*
X191035000Y-96064000D01*
X193115000Y-96064000D02*
X195519000Y-96064000D01*
X188657000Y-96024000D02*
X191035000Y-96024000D01*
X193115000Y-96024000D02*
X195493000Y-96024000D01*
X188683000Y-95984000D02*
X191035000Y-95984000D01*
X193115000Y-95984000D02*
X195467000Y-95984000D01*
X188710000Y-95944000D02*
X191035000Y-95944000D01*
X193115000Y-95944000D02*
X195440000Y-95944000D01*
X188737000Y-95904000D02*
X191035000Y-95904000D01*
X193115000Y-95904000D02*
X195413000Y-95904000D01*
X188766000Y-95864000D02*
X191035000Y-95864000D01*
X193115000Y-95864000D02*
X195384000Y-95864000D01*
X188795000Y-95824000D02*
X191035000Y-95824000D01*
X193115000Y-95824000D02*
X195355000Y-95824000D01*
X188825000Y-95784000D02*
X191035000Y-95784000D01*
X193115000Y-95784000D02*
X195325000Y-95784000D01*
X188855000Y-95744000D02*
X191035000Y-95744000D01*
X193115000Y-95744000D02*
X195295000Y-95744000D01*
X188886000Y-95704000D02*
X191035000Y-95704000D01*
X193115000Y-95704000D02*
X195264000Y-95704000D01*
X188919000Y-95664000D02*
X191035000Y-95664000D01*
X193115000Y-95664000D02*
X195231000Y-95664000D01*
X188951000Y-95624000D02*
X191035000Y-95624000D01*
X193115000Y-95624000D02*
X195199000Y-95624000D01*
X188985000Y-95584000D02*
X191035000Y-95584000D01*
X193115000Y-95584000D02*
X195165000Y-95584000D01*
X189020000Y-95544000D02*
X191035000Y-95544000D01*
X193115000Y-95544000D02*
X195130000Y-95544000D01*
X189056000Y-95504000D02*
X191035000Y-95504000D01*
X193115000Y-95504000D02*
X195094000Y-95504000D01*
X189092000Y-95464000D02*
X191035000Y-95464000D01*
X193115000Y-95464000D02*
X195058000Y-95464000D01*
X189130000Y-95424000D02*
X191035000Y-95424000D01*
X193115000Y-95424000D02*
X195020000Y-95424000D01*
X189168000Y-95384000D02*
X191035000Y-95384000D01*
X193115000Y-95384000D02*
X194982000Y-95384000D01*
X189208000Y-95344000D02*
X191035000Y-95344000D01*
X193115000Y-95344000D02*
X194942000Y-95344000D01*
X189249000Y-95304000D02*
X194901000Y-95304000D01*
X189291000Y-95264000D02*
X194859000Y-95264000D01*
X189334000Y-95224000D02*
X194816000Y-95224000D01*
X189378000Y-95184000D02*
X194772000Y-95184000D01*
X189424000Y-95144000D02*
X194726000Y-95144000D01*
X189471000Y-95104000D02*
X194679000Y-95104000D01*
X189519000Y-95064000D02*
X194631000Y-95064000D01*
X189570000Y-95024000D02*
X194580000Y-95024000D01*
X189621000Y-94984000D02*
X194529000Y-94984000D01*
X189675000Y-94944000D02*
X194475000Y-94944000D01*
X189730000Y-94904000D02*
X194420000Y-94904000D01*
X189788000Y-94864000D02*
X194362000Y-94864000D01*
X189847000Y-94824000D02*
X194303000Y-94824000D01*
X189909000Y-94784000D02*
X194241000Y-94784000D01*
X189973000Y-94744000D02*
X194177000Y-94744000D01*
X190041000Y-94704000D02*
X194109000Y-94704000D01*
X190111000Y-94664000D02*
X194039000Y-94664000D01*
X190185000Y-94624000D02*
X193965000Y-94624000D01*
X190262000Y-94584000D02*
X193888000Y-94584000D01*
X190344000Y-94544000D02*
X193806000Y-94544000D01*
X190430000Y-94504000D02*
X193720000Y-94504000D01*
X190523000Y-94464000D02*
X193627000Y-94464000D01*
X190622000Y-94424000D02*
X193528000Y-94424000D01*
X190729000Y-94384000D02*
X193421000Y-94384000D01*
X190846000Y-94344000D02*
X193304000Y-94344000D01*
X190977000Y-94304000D02*
X193173000Y-94304000D01*
X191127000Y-94264000D02*
X193023000Y-94264000D01*
X191307000Y-94224000D02*
X192843000Y-94224000D01*
X191542000Y-94184000D02*
X192608000Y-94184000D01*
X189760000Y-102674698D02*
X189760000Y-101874698D01*
X189360000Y-102274698D02*
X190160000Y-102274698D01*
X196195000Y-58260000D02*
G75*
G03*
X196195000Y-58260000I-4120000J0D01*
G01*
X187995000Y-58260000D02*
X196155000Y-58260000D01*
X187995000Y-58220000D02*
X196155000Y-58220000D01*
X187995000Y-58180000D02*
X196155000Y-58180000D01*
X187996000Y-58140000D02*
X196154000Y-58140000D01*
X187998000Y-58100000D02*
X196152000Y-58100000D01*
X187999000Y-58060000D02*
X196151000Y-58060000D01*
X188001000Y-58020000D02*
X196149000Y-58020000D01*
X188004000Y-57980000D02*
X196146000Y-57980000D01*
X188007000Y-57940000D02*
X196143000Y-57940000D01*
X188010000Y-57900000D02*
X196140000Y-57900000D01*
X188014000Y-57860000D02*
X196136000Y-57860000D01*
X188018000Y-57820000D02*
X196132000Y-57820000D01*
X188023000Y-57780000D02*
X196127000Y-57780000D01*
X188027000Y-57740000D02*
X196123000Y-57740000D01*
X188033000Y-57700000D02*
X196117000Y-57700000D01*
X188038000Y-57660000D02*
X196112000Y-57660000D01*
X188045000Y-57620000D02*
X196105000Y-57620000D01*
X188051000Y-57580000D02*
X196099000Y-57580000D01*
X188058000Y-57539000D02*
X196092000Y-57539000D01*
X188065000Y-57499000D02*
X196085000Y-57499000D01*
X188073000Y-57459000D02*
X196077000Y-57459000D01*
X188081000Y-57419000D02*
X196069000Y-57419000D01*
X188090000Y-57379000D02*
X191035000Y-57379000D01*
X193115000Y-57379000D02*
X196060000Y-57379000D01*
X188099000Y-57339000D02*
X191035000Y-57339000D01*
X193115000Y-57339000D02*
X196051000Y-57339000D01*
X188108000Y-57299000D02*
X191035000Y-57299000D01*
X193115000Y-57299000D02*
X196042000Y-57299000D01*
X188118000Y-57259000D02*
X191035000Y-57259000D01*
X193115000Y-57259000D02*
X196032000Y-57259000D01*
X188128000Y-57219000D02*
X191035000Y-57219000D01*
X193115000Y-57219000D02*
X196022000Y-57219000D01*
X188139000Y-57179000D02*
X191035000Y-57179000D01*
X193115000Y-57179000D02*
X196011000Y-57179000D01*
X188150000Y-57139000D02*
X191035000Y-57139000D01*
X193115000Y-57139000D02*
X196000000Y-57139000D01*
X188161000Y-57099000D02*
X191035000Y-57099000D01*
X193115000Y-57099000D02*
X195989000Y-57099000D01*
X188173000Y-57059000D02*
X191035000Y-57059000D01*
X193115000Y-57059000D02*
X195977000Y-57059000D01*
X188186000Y-57019000D02*
X191035000Y-57019000D01*
X193115000Y-57019000D02*
X195964000Y-57019000D01*
X188198000Y-56979000D02*
X191035000Y-56979000D01*
X193115000Y-56979000D02*
X195952000Y-56979000D01*
X188212000Y-56939000D02*
X191035000Y-56939000D01*
X193115000Y-56939000D02*
X195938000Y-56939000D01*
X188225000Y-56899000D02*
X191035000Y-56899000D01*
X193115000Y-56899000D02*
X195925000Y-56899000D01*
X188240000Y-56859000D02*
X191035000Y-56859000D01*
X193115000Y-56859000D02*
X195910000Y-56859000D01*
X188254000Y-56819000D02*
X191035000Y-56819000D01*
X193115000Y-56819000D02*
X195896000Y-56819000D01*
X188270000Y-56779000D02*
X191035000Y-56779000D01*
X193115000Y-56779000D02*
X195880000Y-56779000D01*
X188285000Y-56739000D02*
X191035000Y-56739000D01*
X193115000Y-56739000D02*
X195865000Y-56739000D01*
X188301000Y-56699000D02*
X191035000Y-56699000D01*
X193115000Y-56699000D02*
X195849000Y-56699000D01*
X188318000Y-56659000D02*
X191035000Y-56659000D01*
X193115000Y-56659000D02*
X195832000Y-56659000D01*
X188335000Y-56619000D02*
X191035000Y-56619000D01*
X193115000Y-56619000D02*
X195815000Y-56619000D01*
X188353000Y-56579000D02*
X191035000Y-56579000D01*
X193115000Y-56579000D02*
X195797000Y-56579000D01*
X188371000Y-56539000D02*
X191035000Y-56539000D01*
X193115000Y-56539000D02*
X195779000Y-56539000D01*
X188389000Y-56499000D02*
X191035000Y-56499000D01*
X193115000Y-56499000D02*
X195761000Y-56499000D01*
X188409000Y-56459000D02*
X191035000Y-56459000D01*
X193115000Y-56459000D02*
X195741000Y-56459000D01*
X188428000Y-56419000D02*
X191035000Y-56419000D01*
X193115000Y-56419000D02*
X195722000Y-56419000D01*
X188448000Y-56379000D02*
X191035000Y-56379000D01*
X193115000Y-56379000D02*
X195702000Y-56379000D01*
X188469000Y-56339000D02*
X191035000Y-56339000D01*
X193115000Y-56339000D02*
X195681000Y-56339000D01*
X188491000Y-56299000D02*
X191035000Y-56299000D01*
X193115000Y-56299000D02*
X195659000Y-56299000D01*
X188513000Y-56259000D02*
X191035000Y-56259000D01*
X193115000Y-56259000D02*
X195637000Y-56259000D01*
X188535000Y-56219000D02*
X191035000Y-56219000D01*
X193115000Y-56219000D02*
X195615000Y-56219000D01*
X188558000Y-56179000D02*
X191035000Y-56179000D01*
X193115000Y-56179000D02*
X195592000Y-56179000D01*
X188582000Y-56139000D02*
X191035000Y-56139000D01*
X193115000Y-56139000D02*
X195568000Y-56139000D01*
X188606000Y-56099000D02*
X191035000Y-56099000D01*
X193115000Y-56099000D02*
X195544000Y-56099000D01*
X188631000Y-56059000D02*
X191035000Y-56059000D01*
X193115000Y-56059000D02*
X195519000Y-56059000D01*
X188657000Y-56019000D02*
X191035000Y-56019000D01*
X193115000Y-56019000D02*
X195493000Y-56019000D01*
X188683000Y-55979000D02*
X191035000Y-55979000D01*
X193115000Y-55979000D02*
X195467000Y-55979000D01*
X188710000Y-55939000D02*
X191035000Y-55939000D01*
X193115000Y-55939000D02*
X195440000Y-55939000D01*
X188737000Y-55899000D02*
X191035000Y-55899000D01*
X193115000Y-55899000D02*
X195413000Y-55899000D01*
X188766000Y-55859000D02*
X191035000Y-55859000D01*
X193115000Y-55859000D02*
X195384000Y-55859000D01*
X188795000Y-55819000D02*
X191035000Y-55819000D01*
X193115000Y-55819000D02*
X195355000Y-55819000D01*
X188825000Y-55779000D02*
X191035000Y-55779000D01*
X193115000Y-55779000D02*
X195325000Y-55779000D01*
X188855000Y-55739000D02*
X191035000Y-55739000D01*
X193115000Y-55739000D02*
X195295000Y-55739000D01*
X188886000Y-55699000D02*
X191035000Y-55699000D01*
X193115000Y-55699000D02*
X195264000Y-55699000D01*
X188919000Y-55659000D02*
X191035000Y-55659000D01*
X193115000Y-55659000D02*
X195231000Y-55659000D01*
X188951000Y-55619000D02*
X191035000Y-55619000D01*
X193115000Y-55619000D02*
X195199000Y-55619000D01*
X188985000Y-55579000D02*
X191035000Y-55579000D01*
X193115000Y-55579000D02*
X195165000Y-55579000D01*
X189020000Y-55539000D02*
X191035000Y-55539000D01*
X193115000Y-55539000D02*
X195130000Y-55539000D01*
X189056000Y-55499000D02*
X191035000Y-55499000D01*
X193115000Y-55499000D02*
X195094000Y-55499000D01*
X189092000Y-55459000D02*
X191035000Y-55459000D01*
X193115000Y-55459000D02*
X195058000Y-55459000D01*
X189130000Y-55419000D02*
X191035000Y-55419000D01*
X193115000Y-55419000D02*
X195020000Y-55419000D01*
X189168000Y-55379000D02*
X191035000Y-55379000D01*
X193115000Y-55379000D02*
X194982000Y-55379000D01*
X189208000Y-55339000D02*
X191035000Y-55339000D01*
X193115000Y-55339000D02*
X194942000Y-55339000D01*
X189249000Y-55299000D02*
X194901000Y-55299000D01*
X189291000Y-55259000D02*
X194859000Y-55259000D01*
X189334000Y-55219000D02*
X194816000Y-55219000D01*
X189378000Y-55179000D02*
X194772000Y-55179000D01*
X189424000Y-55139000D02*
X194726000Y-55139000D01*
X189471000Y-55099000D02*
X194679000Y-55099000D01*
X189519000Y-55059000D02*
X194631000Y-55059000D01*
X189570000Y-55019000D02*
X194580000Y-55019000D01*
X189621000Y-54979000D02*
X194529000Y-54979000D01*
X189675000Y-54939000D02*
X194475000Y-54939000D01*
X189730000Y-54899000D02*
X194420000Y-54899000D01*
X189788000Y-54859000D02*
X194362000Y-54859000D01*
X189847000Y-54819000D02*
X194303000Y-54819000D01*
X189909000Y-54779000D02*
X194241000Y-54779000D01*
X189973000Y-54739000D02*
X194177000Y-54739000D01*
X190041000Y-54699000D02*
X194109000Y-54699000D01*
X190111000Y-54659000D02*
X194039000Y-54659000D01*
X190185000Y-54619000D02*
X193965000Y-54619000D01*
X190262000Y-54579000D02*
X193888000Y-54579000D01*
X190344000Y-54539000D02*
X193806000Y-54539000D01*
X190430000Y-54499000D02*
X193720000Y-54499000D01*
X190523000Y-54459000D02*
X193627000Y-54459000D01*
X190622000Y-54419000D02*
X193528000Y-54419000D01*
X190729000Y-54379000D02*
X193421000Y-54379000D01*
X190846000Y-54339000D02*
X193304000Y-54339000D01*
X190977000Y-54299000D02*
X193173000Y-54299000D01*
X191127000Y-54259000D02*
X193023000Y-54259000D01*
X191307000Y-54219000D02*
X192843000Y-54219000D01*
X191542000Y-54179000D02*
X192608000Y-54179000D01*
X189760000Y-62669698D02*
X189760000Y-61869698D01*
X189360000Y-62269698D02*
X190160000Y-62269698D01*
X134750000Y-84100000D02*
X134750000Y-106400000D01*
X134750000Y-106400000D02*
X151750000Y-106400000D01*
X151750000Y-106400000D02*
X151750000Y-84100000D01*
X151750000Y-84100000D02*
X134750000Y-84100000D01*
X143250000Y-90170000D02*
X143250000Y-101600000D01*
X143250000Y-101600000D02*
X145790000Y-99060000D01*
X145790000Y-99060000D02*
X143250000Y-101600000D01*
X143250000Y-101600000D02*
X140710000Y-99060000D01*
X194286000Y-116301252D02*
X194286000Y-115778748D01*
X195706000Y-116301252D02*
X195706000Y-115778748D01*
X180570000Y-116809252D02*
X180570000Y-116286748D01*
X181990000Y-116809252D02*
X181990000Y-116286748D01*
X161765000Y-118460252D02*
X161765000Y-117937748D01*
X163185000Y-118460252D02*
X163185000Y-117937748D01*
X200830748Y-119902000D02*
X201353252Y-119902000D01*
X200830748Y-121322000D02*
X201353252Y-121322000D01*
X186606748Y-119902000D02*
X187129252Y-119902000D01*
X186606748Y-121322000D02*
X187129252Y-121322000D01*
X170410000Y-117825252D02*
X170410000Y-117302748D01*
X171830000Y-117825252D02*
X171830000Y-117302748D01*
X121510000Y-86563748D02*
X121510000Y-87086252D01*
X120090000Y-86563748D02*
X120090000Y-87086252D01*
X202672000Y-115280000D02*
X201742000Y-115280000D01*
X199512000Y-115280000D02*
X200442000Y-115280000D01*
X199512000Y-115280000D02*
X199512000Y-117440000D01*
X202672000Y-115280000D02*
X202672000Y-116740000D01*
X188448000Y-115280000D02*
X187518000Y-115280000D01*
X185288000Y-115280000D02*
X186218000Y-115280000D01*
X185288000Y-115280000D02*
X185288000Y-117440000D01*
X188448000Y-115280000D02*
X188448000Y-116740000D01*
X166550000Y-115984000D02*
X166550000Y-116914000D01*
X166550000Y-119144000D02*
X166550000Y-118214000D01*
X166550000Y-119144000D02*
X168710000Y-119144000D01*
X166550000Y-115984000D02*
X168010000Y-115984000D01*
X118420000Y-80960000D02*
X119350000Y-80960000D01*
X121580000Y-80960000D02*
X120650000Y-80960000D01*
X121580000Y-80960000D02*
X121580000Y-78800000D01*
X118420000Y-80960000D02*
X118420000Y-79500000D01*
D13*
X114500000Y-64400000D02*
X143500000Y-64400000D01*
X143500000Y-64400000D02*
X143500000Y-77100000D01*
X143500000Y-77100000D02*
X114500000Y-77100000D01*
X114500000Y-77100000D02*
X114500000Y-64400000D01*
D14*
X113250000Y-74500000D02*
G75*
G03*
X113250000Y-74500000I-250000J0D01*
G01*
D12*
X203900000Y-107070000D02*
G75*
G03*
X203900000Y-107070000I-900000J0D01*
G01*
X207680000Y-102070000D02*
G75*
G03*
X207680000Y-102070000I-1680000J0D01*
G01*
X203900000Y-102070000D02*
G75*
G03*
X203900000Y-102070000I-900000J0D01*
G01*
X207680000Y-97070000D02*
G75*
G03*
X207680000Y-97070000I-1680000J0D01*
G01*
X203900000Y-97070000D02*
G75*
G03*
X203900000Y-97070000I-900000J0D01*
G01*
X208500000Y-109630000D02*
X208500000Y-94510000D01*
X200940000Y-109630000D02*
X200940000Y-94510000D01*
X210060000Y-109630000D02*
X210060000Y-94510000D01*
X200940000Y-109630000D02*
X210060000Y-109630000D01*
X200940000Y-94510000D02*
X210060000Y-94510000D01*
X204931000Y-100795000D02*
X205024000Y-100889000D01*
X207216000Y-103080000D02*
X207274000Y-103139000D01*
X204725000Y-101000000D02*
X204784000Y-101059000D01*
X206976000Y-103250000D02*
X207069000Y-103344000D01*
X204931000Y-95795000D02*
X205024000Y-95889000D01*
X207216000Y-98080000D02*
X207274000Y-98139000D01*
X204725000Y-96000000D02*
X204784000Y-96059000D01*
X206976000Y-98250000D02*
X207069000Y-98344000D01*
X208560000Y-109870000D02*
X210300000Y-109870000D01*
X210300000Y-109870000D02*
X210300000Y-108370000D01*
X207680450Y-107040617D02*
G75*
G02*
X207484000Y-107859000I-1680450J-29383D01*
G01*
X206789088Y-108553953D02*
G75*
G02*
X205211000Y-108554000I-789088J1483953D01*
G01*
X204516047Y-107859088D02*
G75*
G02*
X204516000Y-106281000I1483953J789088D01*
G01*
X205210912Y-105586047D02*
G75*
G02*
X206789000Y-105586000I789088J-1483953D01*
G01*
X207483352Y-106281288D02*
G75*
G02*
X207680000Y-107070000I-1483352J-788712D01*
G01*
X203945000Y-87465000D02*
G75*
G03*
X203945000Y-87465000I-900000J0D01*
G01*
X207725000Y-82465000D02*
G75*
G03*
X207725000Y-82465000I-1680000J0D01*
G01*
X203945000Y-82465000D02*
G75*
G03*
X203945000Y-82465000I-900000J0D01*
G01*
X207725000Y-77465000D02*
G75*
G03*
X207725000Y-77465000I-1680000J0D01*
G01*
X203945000Y-77465000D02*
G75*
G03*
X203945000Y-77465000I-900000J0D01*
G01*
X208545000Y-90025000D02*
X208545000Y-74905000D01*
X200985000Y-90025000D02*
X200985000Y-74905000D01*
X210105000Y-90025000D02*
X210105000Y-74905000D01*
X200985000Y-90025000D02*
X210105000Y-90025000D01*
X200985000Y-74905000D02*
X210105000Y-74905000D01*
X204976000Y-81190000D02*
X205069000Y-81284000D01*
X207261000Y-83475000D02*
X207319000Y-83534000D01*
X204770000Y-81395000D02*
X204829000Y-81454000D01*
X207021000Y-83645000D02*
X207114000Y-83739000D01*
X204976000Y-76190000D02*
X205069000Y-76284000D01*
X207261000Y-78475000D02*
X207319000Y-78534000D01*
X204770000Y-76395000D02*
X204829000Y-76454000D01*
X207021000Y-78645000D02*
X207114000Y-78739000D01*
X208605000Y-90265000D02*
X210345000Y-90265000D01*
X210345000Y-90265000D02*
X210345000Y-88765000D01*
X207725450Y-87435617D02*
G75*
G02*
X207529000Y-88254000I-1680450J-29383D01*
G01*
X206834088Y-88948953D02*
G75*
G02*
X205256000Y-88949000I-789088J1483953D01*
G01*
X204561047Y-88254088D02*
G75*
G02*
X204561000Y-86676000I1483953J789088D01*
G01*
X205255912Y-85981047D02*
G75*
G02*
X206834000Y-85981000I789088J-1483953D01*
G01*
X207528352Y-86676288D02*
G75*
G02*
X207725000Y-87465000I-1483352J-788712D01*
G01*
X203900000Y-64500000D02*
G75*
G03*
X203900000Y-64500000I-900000J0D01*
G01*
X207680000Y-59500000D02*
G75*
G03*
X207680000Y-59500000I-1680000J0D01*
G01*
X203900000Y-59500000D02*
G75*
G03*
X203900000Y-59500000I-900000J0D01*
G01*
X207680000Y-54500000D02*
G75*
G03*
X207680000Y-54500000I-1680000J0D01*
G01*
X203900000Y-54500000D02*
G75*
G03*
X203900000Y-54500000I-900000J0D01*
G01*
X208500000Y-67060000D02*
X208500000Y-51940000D01*
X200940000Y-67060000D02*
X200940000Y-51940000D01*
X210060000Y-67060000D02*
X210060000Y-51940000D01*
X200940000Y-67060000D02*
X210060000Y-67060000D01*
X200940000Y-51940000D02*
X210060000Y-51940000D01*
X204931000Y-58225000D02*
X205024000Y-58319000D01*
X207216000Y-60510000D02*
X207274000Y-60569000D01*
X204725000Y-58430000D02*
X204784000Y-58489000D01*
X206976000Y-60680000D02*
X207069000Y-60774000D01*
X204931000Y-53225000D02*
X205024000Y-53319000D01*
X207216000Y-55510000D02*
X207274000Y-55569000D01*
X204725000Y-53430000D02*
X204784000Y-53489000D01*
X206976000Y-55680000D02*
X207069000Y-55774000D01*
X208560000Y-67300000D02*
X210300000Y-67300000D01*
X210300000Y-67300000D02*
X210300000Y-65800000D01*
X207680450Y-64470617D02*
G75*
G02*
X207484000Y-65289000I-1680450J-29383D01*
G01*
X206789088Y-65983953D02*
G75*
G02*
X205211000Y-65984000I-789088J1483953D01*
G01*
X204516047Y-65289088D02*
G75*
G02*
X204516000Y-63711000I1483953J789088D01*
G01*
X205210912Y-63016047D02*
G75*
G02*
X206789000Y-63016000I789088J-1483953D01*
G01*
X207483352Y-63711288D02*
G75*
G02*
X207680000Y-64500000I-1483352J-788712D01*
G01*
D11*
X110152380Y-70238095D02*
X109152380Y-70238095D01*
X109152380Y-70000000D01*
X109200000Y-69857142D01*
X109295238Y-69761904D01*
X109390476Y-69714285D01*
X109580952Y-69666666D01*
X109723809Y-69666666D01*
X109914285Y-69714285D01*
X110009523Y-69761904D01*
X110104761Y-69857142D01*
X110152380Y-70000000D01*
X110152380Y-70238095D01*
X109152380Y-69333333D02*
X109152380Y-68714285D01*
X109533333Y-69047619D01*
X109533333Y-68904761D01*
X109580952Y-68809523D01*
X109628571Y-68761904D01*
X109723809Y-68714285D01*
X109961904Y-68714285D01*
X110057142Y-68761904D01*
X110104761Y-68809523D01*
X110152380Y-68904761D01*
X110152380Y-69190476D01*
X110104761Y-69285714D01*
X110057142Y-69333333D01*
X124026904Y-99387380D02*
X124026904Y-98387380D01*
X124265000Y-98387380D01*
X124407857Y-98435000D01*
X124503095Y-98530238D01*
X124550714Y-98625476D01*
X124598333Y-98815952D01*
X124598333Y-98958809D01*
X124550714Y-99149285D01*
X124503095Y-99244523D01*
X124407857Y-99339761D01*
X124265000Y-99387380D01*
X124026904Y-99387380D01*
X124979285Y-98482619D02*
X125026904Y-98435000D01*
X125122142Y-98387380D01*
X125360238Y-98387380D01*
X125455476Y-98435000D01*
X125503095Y-98482619D01*
X125550714Y-98577857D01*
X125550714Y-98673095D01*
X125503095Y-98815952D01*
X124931666Y-99387380D01*
X125550714Y-99387380D01*
X132861904Y-82952380D02*
X132861904Y-81952380D01*
X133100000Y-81952380D01*
X133242857Y-82000000D01*
X133338095Y-82095238D01*
X133385714Y-82190476D01*
X133433333Y-82380952D01*
X133433333Y-82523809D01*
X133385714Y-82714285D01*
X133338095Y-82809523D01*
X133242857Y-82904761D01*
X133100000Y-82952380D01*
X132861904Y-82952380D01*
X134385714Y-82952380D02*
X133814285Y-82952380D01*
X134100000Y-82952380D02*
X134100000Y-81952380D01*
X134004761Y-82095238D01*
X133909523Y-82190476D01*
X133814285Y-82238095D01*
D15*
X155838214Y-114863023D02*
X156648050Y-114863023D01*
X156743325Y-114815386D01*
X156790963Y-114767749D01*
X156838600Y-114672474D01*
X156838600Y-114481924D01*
X156790963Y-114386649D01*
X156743325Y-114339012D01*
X156648050Y-114291374D01*
X155838214Y-114291374D01*
X156838600Y-113290988D02*
X156838600Y-113862637D01*
X156838600Y-113576813D02*
X155838214Y-113576813D01*
X155981126Y-113672088D01*
X156076401Y-113767363D01*
X156124039Y-113862637D01*
D11*
X114105000Y-116166904D02*
X114057380Y-116262142D01*
X114057380Y-116405000D01*
X114105000Y-116547857D01*
X114200238Y-116643095D01*
X114295476Y-116690714D01*
X114485952Y-116738333D01*
X114628809Y-116738333D01*
X114819285Y-116690714D01*
X114914523Y-116643095D01*
X115009761Y-116547857D01*
X115057380Y-116405000D01*
X115057380Y-116309761D01*
X115009761Y-116166904D01*
X114962142Y-116119285D01*
X114628809Y-116119285D01*
X114628809Y-116309761D01*
X115057380Y-115690714D02*
X114057380Y-115690714D01*
X115057380Y-115119285D01*
X114057380Y-115119285D01*
X115057380Y-114643095D02*
X114057380Y-114643095D01*
X114057380Y-114405000D01*
X114105000Y-114262142D01*
X114200238Y-114166904D01*
X114295476Y-114119285D01*
X114485952Y-114071666D01*
X114628809Y-114071666D01*
X114819285Y-114119285D01*
X114914523Y-114166904D01*
X115009761Y-114262142D01*
X115057380Y-114405000D01*
X115057380Y-114643095D01*
X134472619Y-134691904D02*
X134425000Y-134644285D01*
X134377380Y-134549047D01*
X134377380Y-134310952D01*
X134425000Y-134215714D01*
X134472619Y-134168095D01*
X134567857Y-134120476D01*
X134663095Y-134120476D01*
X134805952Y-134168095D01*
X135377380Y-134739523D01*
X135377380Y-134120476D01*
X135377380Y-133168095D02*
X135377380Y-133739523D01*
X135377380Y-133453809D02*
X134377380Y-133453809D01*
X134520238Y-133549047D01*
X134615476Y-133644285D01*
X134663095Y-133739523D01*
X137917380Y-136386071D02*
X137441190Y-136719404D01*
X137917380Y-136957500D02*
X136917380Y-136957500D01*
X136917380Y-136576547D01*
X136965000Y-136481309D01*
X137012619Y-136433690D01*
X137107857Y-136386071D01*
X137250714Y-136386071D01*
X137345952Y-136433690D01*
X137393571Y-136481309D01*
X137441190Y-136576547D01*
X137441190Y-136957500D01*
X136917380Y-136052738D02*
X137917380Y-135386071D01*
X136917380Y-135386071D02*
X137917380Y-136052738D01*
X138298333Y-134719404D02*
X138250714Y-134767023D01*
X138107857Y-134862261D01*
X138012619Y-134909880D01*
X137869761Y-134957500D01*
X137631666Y-135005119D01*
X137441190Y-135005119D01*
X137203095Y-134957500D01*
X137060238Y-134909880D01*
X136965000Y-134862261D01*
X136822142Y-134767023D01*
X136774523Y-134719404D01*
X136917380Y-134433690D02*
X136917380Y-133814642D01*
X137298333Y-134147976D01*
X137298333Y-134005119D01*
X137345952Y-133909880D01*
X137393571Y-133862261D01*
X137488809Y-133814642D01*
X137726904Y-133814642D01*
X137822142Y-133862261D01*
X137869761Y-133909880D01*
X137917380Y-134005119D01*
X137917380Y-134290833D01*
X137869761Y-134386071D01*
X137822142Y-134433690D01*
X138298333Y-133481309D02*
X138250714Y-133433690D01*
X138107857Y-133338452D01*
X138012619Y-133290833D01*
X137869761Y-133243214D01*
X137631666Y-133195595D01*
X137441190Y-133195595D01*
X137203095Y-133243214D01*
X137060238Y-133290833D01*
X136965000Y-133338452D01*
X136822142Y-133433690D01*
X136774523Y-133481309D01*
X139392380Y-136334761D02*
X139392380Y-135763333D01*
X140392380Y-136049047D02*
X139392380Y-136049047D01*
X139392380Y-135525238D02*
X140392380Y-134858571D01*
X139392380Y-134858571D02*
X140392380Y-135525238D01*
X140773333Y-134191904D02*
X140725714Y-134239523D01*
X140582857Y-134334761D01*
X140487619Y-134382380D01*
X140344761Y-134430000D01*
X140106666Y-134477619D01*
X139916190Y-134477619D01*
X139678095Y-134430000D01*
X139535238Y-134382380D01*
X139440000Y-134334761D01*
X139297142Y-134239523D01*
X139249523Y-134191904D01*
X140392380Y-133287142D02*
X140392380Y-133858571D01*
X140392380Y-133572857D02*
X139392380Y-133572857D01*
X139535238Y-133668095D01*
X139630476Y-133763333D01*
X139678095Y-133858571D01*
X140773333Y-132953809D02*
X140725714Y-132906190D01*
X140582857Y-132810952D01*
X140487619Y-132763333D01*
X140344761Y-132715714D01*
X140106666Y-132668095D01*
X139916190Y-132668095D01*
X139678095Y-132715714D01*
X139535238Y-132763333D01*
X139440000Y-132810952D01*
X139297142Y-132906190D01*
X139249523Y-132953809D01*
X142092619Y-134671785D02*
X142045000Y-134624166D01*
X141997380Y-134528928D01*
X141997380Y-134290833D01*
X142045000Y-134195595D01*
X142092619Y-134147976D01*
X142187857Y-134100357D01*
X142283095Y-134100357D01*
X142425952Y-134147976D01*
X142997380Y-134719404D01*
X142997380Y-134100357D01*
X142092619Y-133719404D02*
X142045000Y-133671785D01*
X141997380Y-133576547D01*
X141997380Y-133338452D01*
X142045000Y-133243214D01*
X142092619Y-133195595D01*
X142187857Y-133147976D01*
X142283095Y-133147976D01*
X142425952Y-133195595D01*
X142997380Y-133767023D01*
X142997380Y-133147976D01*
X144632619Y-134671785D02*
X144585000Y-134624166D01*
X144537380Y-134528928D01*
X144537380Y-134290833D01*
X144585000Y-134195595D01*
X144632619Y-134147976D01*
X144727857Y-134100357D01*
X144823095Y-134100357D01*
X144965952Y-134147976D01*
X145537380Y-134719404D01*
X145537380Y-134100357D01*
X144537380Y-133767023D02*
X144537380Y-133147976D01*
X144918333Y-133481309D01*
X144918333Y-133338452D01*
X144965952Y-133243214D01*
X145013571Y-133195595D01*
X145108809Y-133147976D01*
X145346904Y-133147976D01*
X145442142Y-133195595D01*
X145489761Y-133243214D01*
X145537380Y-133338452D01*
X145537380Y-133624166D01*
X145489761Y-133719404D01*
X145442142Y-133767023D01*
X147125000Y-135243214D02*
X147077380Y-135338452D01*
X147077380Y-135481309D01*
X147125000Y-135624166D01*
X147220238Y-135719404D01*
X147315476Y-135767023D01*
X147505952Y-135814642D01*
X147648809Y-135814642D01*
X147839285Y-135767023D01*
X147934523Y-135719404D01*
X148029761Y-135624166D01*
X148077380Y-135481309D01*
X148077380Y-135386071D01*
X148029761Y-135243214D01*
X147982142Y-135195595D01*
X147648809Y-135195595D01*
X147648809Y-135386071D01*
X148077380Y-134767023D02*
X147077380Y-134767023D01*
X148077380Y-134195595D01*
X147077380Y-134195595D01*
X148077380Y-133719404D02*
X147077380Y-133719404D01*
X147077380Y-133481309D01*
X147125000Y-133338452D01*
X147220238Y-133243214D01*
X147315476Y-133195595D01*
X147505952Y-133147976D01*
X147648809Y-133147976D01*
X147839285Y-133195595D01*
X147934523Y-133243214D01*
X148029761Y-133338452D01*
X148077380Y-133481309D01*
X148077380Y-133719404D01*
X130297380Y-134100357D02*
X130297380Y-134671785D01*
X130297380Y-134386071D02*
X129297380Y-134386071D01*
X129440238Y-134481309D01*
X129535476Y-134576547D01*
X129583095Y-134671785D01*
X130297380Y-133624166D02*
X130297380Y-133433690D01*
X130249761Y-133338452D01*
X130202142Y-133290833D01*
X130059285Y-133195595D01*
X129868809Y-133147976D01*
X129487857Y-133147976D01*
X129392619Y-133195595D01*
X129345000Y-133243214D01*
X129297380Y-133338452D01*
X129297380Y-133528928D01*
X129345000Y-133624166D01*
X129392619Y-133671785D01*
X129487857Y-133719404D01*
X129725952Y-133719404D01*
X129821190Y-133671785D01*
X129868809Y-133624166D01*
X129916428Y-133528928D01*
X129916428Y-133338452D01*
X129868809Y-133243214D01*
X129821190Y-133195595D01*
X129725952Y-133147976D01*
X127757380Y-134100357D02*
X127757380Y-134671785D01*
X127757380Y-134386071D02*
X126757380Y-134386071D01*
X126900238Y-134481309D01*
X126995476Y-134576547D01*
X127043095Y-134671785D01*
X127185952Y-133528928D02*
X127138333Y-133624166D01*
X127090714Y-133671785D01*
X126995476Y-133719404D01*
X126947857Y-133719404D01*
X126852619Y-133671785D01*
X126805000Y-133624166D01*
X126757380Y-133528928D01*
X126757380Y-133338452D01*
X126805000Y-133243214D01*
X126852619Y-133195595D01*
X126947857Y-133147976D01*
X126995476Y-133147976D01*
X127090714Y-133195595D01*
X127138333Y-133243214D01*
X127185952Y-133338452D01*
X127185952Y-133528928D01*
X127233571Y-133624166D01*
X127281190Y-133671785D01*
X127376428Y-133719404D01*
X127566904Y-133719404D01*
X127662142Y-133671785D01*
X127709761Y-133624166D01*
X127757380Y-133528928D01*
X127757380Y-133338452D01*
X127709761Y-133243214D01*
X127662142Y-133195595D01*
X127566904Y-133147976D01*
X127376428Y-133147976D01*
X127281190Y-133195595D01*
X127233571Y-133243214D01*
X127185952Y-133338452D01*
X124217380Y-133195595D02*
X124217380Y-133671785D01*
X124693571Y-133719404D01*
X124645952Y-133671785D01*
X124598333Y-133576547D01*
X124598333Y-133338452D01*
X124645952Y-133243214D01*
X124693571Y-133195595D01*
X124788809Y-133147976D01*
X125026904Y-133147976D01*
X125122142Y-133195595D01*
X125169761Y-133243214D01*
X125217380Y-133338452D01*
X125217380Y-133576547D01*
X125169761Y-133671785D01*
X125122142Y-133719404D01*
X122677380Y-134100357D02*
X122677380Y-134671785D01*
X122677380Y-134386071D02*
X121677380Y-134386071D01*
X121820238Y-134481309D01*
X121915476Y-134576547D01*
X121963095Y-134671785D01*
X121677380Y-133767023D02*
X121677380Y-133100357D01*
X122677380Y-133528928D01*
X120137380Y-134100357D02*
X120137380Y-134671785D01*
X120137380Y-134386071D02*
X119137380Y-134386071D01*
X119280238Y-134481309D01*
X119375476Y-134576547D01*
X119423095Y-134671785D01*
X119137380Y-133243214D02*
X119137380Y-133433690D01*
X119185000Y-133528928D01*
X119232619Y-133576547D01*
X119375476Y-133671785D01*
X119565952Y-133719404D01*
X119946904Y-133719404D01*
X120042142Y-133671785D01*
X120089761Y-133624166D01*
X120137380Y-133528928D01*
X120137380Y-133338452D01*
X120089761Y-133243214D01*
X120042142Y-133195595D01*
X119946904Y-133147976D01*
X119708809Y-133147976D01*
X119613571Y-133195595D01*
X119565952Y-133243214D01*
X119518333Y-133338452D01*
X119518333Y-133528928D01*
X119565952Y-133624166D01*
X119613571Y-133671785D01*
X119708809Y-133719404D01*
X116930714Y-133243214D02*
X117597380Y-133243214D01*
X116549761Y-133481309D02*
X117264047Y-133719404D01*
X117264047Y-133100357D01*
X114057380Y-133481309D02*
X114057380Y-133386071D01*
X114105000Y-133290833D01*
X114152619Y-133243214D01*
X114247857Y-133195595D01*
X114438333Y-133147976D01*
X114676428Y-133147976D01*
X114866904Y-133195595D01*
X114962142Y-133243214D01*
X115009761Y-133290833D01*
X115057380Y-133386071D01*
X115057380Y-133481309D01*
X115009761Y-133576547D01*
X114962142Y-133624166D01*
X114866904Y-133671785D01*
X114676428Y-133719404D01*
X114438333Y-133719404D01*
X114247857Y-133671785D01*
X114152619Y-133624166D01*
X114105000Y-133576547D01*
X114057380Y-133481309D01*
X111612619Y-133719404D02*
X111565000Y-133671785D01*
X111517380Y-133576547D01*
X111517380Y-133338452D01*
X111565000Y-133243214D01*
X111612619Y-133195595D01*
X111707857Y-133147976D01*
X111803095Y-133147976D01*
X111945952Y-133195595D01*
X112517380Y-133767023D01*
X112517380Y-133147976D01*
X109977380Y-134100357D02*
X109977380Y-134671785D01*
X109977380Y-134386071D02*
X108977380Y-134386071D01*
X109120238Y-134481309D01*
X109215476Y-134576547D01*
X109263095Y-134671785D01*
X108977380Y-133195595D02*
X108977380Y-133671785D01*
X109453571Y-133719404D01*
X109405952Y-133671785D01*
X109358333Y-133576547D01*
X109358333Y-133338452D01*
X109405952Y-133243214D01*
X109453571Y-133195595D01*
X109548809Y-133147976D01*
X109786904Y-133147976D01*
X109882142Y-133195595D01*
X109929761Y-133243214D01*
X109977380Y-133338452D01*
X109977380Y-133576547D01*
X109929761Y-133671785D01*
X109882142Y-133719404D01*
X107437380Y-136884642D02*
X106770714Y-136360833D01*
X106770714Y-136884642D02*
X107437380Y-136360833D01*
X107437380Y-135979880D02*
X106437380Y-135979880D01*
X106437380Y-135741785D01*
X106485000Y-135598928D01*
X106580238Y-135503690D01*
X106675476Y-135456071D01*
X106865952Y-135408452D01*
X107008809Y-135408452D01*
X107199285Y-135456071D01*
X107294523Y-135503690D01*
X107389761Y-135598928D01*
X107437380Y-135741785D01*
X107437380Y-135979880D01*
X107437380Y-134456071D02*
X107437380Y-135027500D01*
X107437380Y-134741785D02*
X106437380Y-134741785D01*
X106580238Y-134837023D01*
X106675476Y-134932261D01*
X106723095Y-135027500D01*
X107818333Y-133741785D02*
X107770714Y-133789404D01*
X107627857Y-133884642D01*
X107532619Y-133932261D01*
X107389761Y-133979880D01*
X107151666Y-134027500D01*
X106961190Y-134027500D01*
X106723095Y-133979880D01*
X106580238Y-133932261D01*
X106485000Y-133884642D01*
X106342142Y-133789404D01*
X106294523Y-133741785D01*
X106437380Y-133456071D02*
X106437380Y-132837023D01*
X106818333Y-133170357D01*
X106818333Y-133027500D01*
X106865952Y-132932261D01*
X106913571Y-132884642D01*
X107008809Y-132837023D01*
X107246904Y-132837023D01*
X107342142Y-132884642D01*
X107389761Y-132932261D01*
X107437380Y-133027500D01*
X107437380Y-133313214D01*
X107389761Y-133408452D01*
X107342142Y-133456071D01*
X106437380Y-132503690D02*
X106437380Y-131884642D01*
X106818333Y-132217976D01*
X106818333Y-132075119D01*
X106865952Y-131979880D01*
X106913571Y-131932261D01*
X107008809Y-131884642D01*
X107246904Y-131884642D01*
X107342142Y-131932261D01*
X107389761Y-131979880D01*
X107437380Y-132075119D01*
X107437380Y-132360833D01*
X107389761Y-132456071D01*
X107342142Y-132503690D01*
X107818333Y-131551309D02*
X107770714Y-131503690D01*
X107627857Y-131408452D01*
X107532619Y-131360833D01*
X107389761Y-131313214D01*
X107151666Y-131265595D01*
X106961190Y-131265595D01*
X106723095Y-131313214D01*
X106580238Y-131360833D01*
X106485000Y-131408452D01*
X106342142Y-131503690D01*
X106294523Y-131551309D01*
X104897380Y-136884642D02*
X104230714Y-136360833D01*
X104230714Y-136884642D02*
X104897380Y-136360833D01*
X104897380Y-135979880D02*
X103897380Y-135979880D01*
X103897380Y-135741785D01*
X103945000Y-135598928D01*
X104040238Y-135503690D01*
X104135476Y-135456071D01*
X104325952Y-135408452D01*
X104468809Y-135408452D01*
X104659285Y-135456071D01*
X104754523Y-135503690D01*
X104849761Y-135598928D01*
X104897380Y-135741785D01*
X104897380Y-135979880D01*
X103897380Y-134789404D02*
X103897380Y-134694166D01*
X103945000Y-134598928D01*
X103992619Y-134551309D01*
X104087857Y-134503690D01*
X104278333Y-134456071D01*
X104516428Y-134456071D01*
X104706904Y-134503690D01*
X104802142Y-134551309D01*
X104849761Y-134598928D01*
X104897380Y-134694166D01*
X104897380Y-134789404D01*
X104849761Y-134884642D01*
X104802142Y-134932261D01*
X104706904Y-134979880D01*
X104516428Y-135027500D01*
X104278333Y-135027500D01*
X104087857Y-134979880D01*
X103992619Y-134932261D01*
X103945000Y-134884642D01*
X103897380Y-134789404D01*
X105278333Y-133741785D02*
X105230714Y-133789404D01*
X105087857Y-133884642D01*
X104992619Y-133932261D01*
X104849761Y-133979880D01*
X104611666Y-134027500D01*
X104421190Y-134027500D01*
X104183095Y-133979880D01*
X104040238Y-133932261D01*
X103945000Y-133884642D01*
X103802142Y-133789404D01*
X103754523Y-133741785D01*
X103897380Y-133456071D02*
X103897380Y-132837023D01*
X104278333Y-133170357D01*
X104278333Y-133027500D01*
X104325952Y-132932261D01*
X104373571Y-132884642D01*
X104468809Y-132837023D01*
X104706904Y-132837023D01*
X104802142Y-132884642D01*
X104849761Y-132932261D01*
X104897380Y-133027500D01*
X104897380Y-133313214D01*
X104849761Y-133408452D01*
X104802142Y-133456071D01*
X103992619Y-132456071D02*
X103945000Y-132408452D01*
X103897380Y-132313214D01*
X103897380Y-132075119D01*
X103945000Y-131979880D01*
X103992619Y-131932261D01*
X104087857Y-131884642D01*
X104183095Y-131884642D01*
X104325952Y-131932261D01*
X104897380Y-132503690D01*
X104897380Y-131884642D01*
X105278333Y-131551309D02*
X105230714Y-131503690D01*
X105087857Y-131408452D01*
X104992619Y-131360833D01*
X104849761Y-131313214D01*
X104611666Y-131265595D01*
X104421190Y-131265595D01*
X104183095Y-131313214D01*
X104040238Y-131360833D01*
X103945000Y-131408452D01*
X103802142Y-131503690D01*
X103754523Y-131551309D01*
X102357380Y-136596666D02*
X101690714Y-136072857D01*
X101690714Y-136596666D02*
X102357380Y-136072857D01*
X102262142Y-135120476D02*
X102309761Y-135168095D01*
X102357380Y-135310952D01*
X102357380Y-135406190D01*
X102309761Y-135549047D01*
X102214523Y-135644285D01*
X102119285Y-135691904D01*
X101928809Y-135739523D01*
X101785952Y-135739523D01*
X101595476Y-135691904D01*
X101500238Y-135644285D01*
X101405000Y-135549047D01*
X101357380Y-135406190D01*
X101357380Y-135310952D01*
X101405000Y-135168095D01*
X101452619Y-135120476D01*
X102357380Y-134215714D02*
X102357380Y-134691904D01*
X101357380Y-134691904D01*
X102357380Y-133882380D02*
X101357380Y-133882380D01*
X102357380Y-133310952D02*
X101785952Y-133739523D01*
X101357380Y-133310952D02*
X101928809Y-133882380D01*
X101976428Y-119298809D02*
X101976428Y-118536904D01*
X102357380Y-118917857D02*
X101595476Y-118917857D01*
X101357380Y-117584523D02*
X101357380Y-118060714D01*
X101833571Y-118108333D01*
X101785952Y-118060714D01*
X101738333Y-117965476D01*
X101738333Y-117727380D01*
X101785952Y-117632142D01*
X101833571Y-117584523D01*
X101928809Y-117536904D01*
X102166904Y-117536904D01*
X102262142Y-117584523D01*
X102309761Y-117632142D01*
X102357380Y-117727380D01*
X102357380Y-117965476D01*
X102309761Y-118060714D01*
X102262142Y-118108333D01*
X101357380Y-117251190D02*
X102357380Y-116917857D01*
X101357380Y-116584523D01*
X102738333Y-115203571D02*
X102690714Y-115251190D01*
X102547857Y-115346428D01*
X102452619Y-115394047D01*
X102309761Y-115441666D01*
X102071666Y-115489285D01*
X101881190Y-115489285D01*
X101643095Y-115441666D01*
X101500238Y-115394047D01*
X101405000Y-115346428D01*
X101262142Y-115251190D01*
X101214523Y-115203571D01*
X102357380Y-114822619D02*
X101690714Y-114822619D01*
X101357380Y-114822619D02*
X101405000Y-114870238D01*
X101452619Y-114822619D01*
X101405000Y-114775000D01*
X101357380Y-114822619D01*
X101452619Y-114822619D01*
X101690714Y-114346428D02*
X102357380Y-114346428D01*
X101785952Y-114346428D02*
X101738333Y-114298809D01*
X101690714Y-114203571D01*
X101690714Y-114060714D01*
X101738333Y-113965476D01*
X101833571Y-113917857D01*
X102357380Y-113917857D01*
X102738333Y-113536904D02*
X102690714Y-113489285D01*
X102547857Y-113394047D01*
X102452619Y-113346428D01*
X102309761Y-113298809D01*
X102071666Y-113251190D01*
X101881190Y-113251190D01*
X101643095Y-113298809D01*
X101500238Y-113346428D01*
X101405000Y-113394047D01*
X101262142Y-113489285D01*
X101214523Y-113536904D01*
X104897380Y-116838333D02*
X104230714Y-116314523D01*
X104230714Y-116838333D02*
X104897380Y-116314523D01*
X104802142Y-115362142D02*
X104849761Y-115409761D01*
X104897380Y-115552619D01*
X104897380Y-115647857D01*
X104849761Y-115790714D01*
X104754523Y-115885952D01*
X104659285Y-115933571D01*
X104468809Y-115981190D01*
X104325952Y-115981190D01*
X104135476Y-115933571D01*
X104040238Y-115885952D01*
X103945000Y-115790714D01*
X103897380Y-115647857D01*
X103897380Y-115552619D01*
X103945000Y-115409761D01*
X103992619Y-115362142D01*
X104897380Y-114933571D02*
X103897380Y-114933571D01*
X104611666Y-114600238D01*
X103897380Y-114266904D01*
X104897380Y-114266904D01*
X104897380Y-113790714D02*
X103897380Y-113790714D01*
X103897380Y-113552619D01*
X103945000Y-113409761D01*
X104040238Y-113314523D01*
X104135476Y-113266904D01*
X104325952Y-113219285D01*
X104468809Y-113219285D01*
X104659285Y-113266904D01*
X104754523Y-113314523D01*
X104849761Y-113409761D01*
X104897380Y-113552619D01*
X104897380Y-113790714D01*
X107437380Y-119132142D02*
X106770714Y-118608333D01*
X106770714Y-119132142D02*
X107437380Y-118608333D01*
X107437380Y-118227380D02*
X106437380Y-118227380D01*
X106437380Y-117989285D01*
X106485000Y-117846428D01*
X106580238Y-117751190D01*
X106675476Y-117703571D01*
X106865952Y-117655952D01*
X107008809Y-117655952D01*
X107199285Y-117703571D01*
X107294523Y-117751190D01*
X107389761Y-117846428D01*
X107437380Y-117989285D01*
X107437380Y-118227380D01*
X106437380Y-117322619D02*
X106437380Y-116703571D01*
X106818333Y-117036904D01*
X106818333Y-116894047D01*
X106865952Y-116798809D01*
X106913571Y-116751190D01*
X107008809Y-116703571D01*
X107246904Y-116703571D01*
X107342142Y-116751190D01*
X107389761Y-116798809D01*
X107437380Y-116894047D01*
X107437380Y-117179761D01*
X107389761Y-117275000D01*
X107342142Y-117322619D01*
X107818333Y-115989285D02*
X107770714Y-116036904D01*
X107627857Y-116132142D01*
X107532619Y-116179761D01*
X107389761Y-116227380D01*
X107151666Y-116275000D01*
X106961190Y-116275000D01*
X106723095Y-116227380D01*
X106580238Y-116179761D01*
X106485000Y-116132142D01*
X106342142Y-116036904D01*
X106294523Y-115989285D01*
X107437380Y-115084523D02*
X107437380Y-115655952D01*
X107437380Y-115370238D02*
X106437380Y-115370238D01*
X106580238Y-115465476D01*
X106675476Y-115560714D01*
X106723095Y-115655952D01*
X106437380Y-114465476D02*
X106437380Y-114370238D01*
X106485000Y-114275000D01*
X106532619Y-114227380D01*
X106627857Y-114179761D01*
X106818333Y-114132142D01*
X107056428Y-114132142D01*
X107246904Y-114179761D01*
X107342142Y-114227380D01*
X107389761Y-114275000D01*
X107437380Y-114370238D01*
X107437380Y-114465476D01*
X107389761Y-114560714D01*
X107342142Y-114608333D01*
X107246904Y-114655952D01*
X107056428Y-114703571D01*
X106818333Y-114703571D01*
X106627857Y-114655952D01*
X106532619Y-114608333D01*
X106485000Y-114560714D01*
X106437380Y-114465476D01*
X107818333Y-113798809D02*
X107770714Y-113751190D01*
X107627857Y-113655952D01*
X107532619Y-113608333D01*
X107389761Y-113560714D01*
X107151666Y-113513095D01*
X106961190Y-113513095D01*
X106723095Y-113560714D01*
X106580238Y-113608333D01*
X106485000Y-113655952D01*
X106342142Y-113751190D01*
X106294523Y-113798809D01*
X109977380Y-118020952D02*
X109310714Y-117497142D01*
X109310714Y-118020952D02*
X109977380Y-117497142D01*
X109977380Y-117116190D02*
X108977380Y-117116190D01*
X108977380Y-116878095D01*
X109025000Y-116735238D01*
X109120238Y-116640000D01*
X109215476Y-116592380D01*
X109405952Y-116544761D01*
X109548809Y-116544761D01*
X109739285Y-116592380D01*
X109834523Y-116640000D01*
X109929761Y-116735238D01*
X109977380Y-116878095D01*
X109977380Y-117116190D01*
X109072619Y-116163809D02*
X109025000Y-116116190D01*
X108977380Y-116020952D01*
X108977380Y-115782857D01*
X109025000Y-115687619D01*
X109072619Y-115640000D01*
X109167857Y-115592380D01*
X109263095Y-115592380D01*
X109405952Y-115640000D01*
X109977380Y-116211428D01*
X109977380Y-115592380D01*
X110358333Y-114878095D02*
X110310714Y-114925714D01*
X110167857Y-115020952D01*
X110072619Y-115068571D01*
X109929761Y-115116190D01*
X109691666Y-115163809D01*
X109501190Y-115163809D01*
X109263095Y-115116190D01*
X109120238Y-115068571D01*
X109025000Y-115020952D01*
X108882142Y-114925714D01*
X108834523Y-114878095D01*
X109977380Y-114449523D02*
X109977380Y-114259047D01*
X109929761Y-114163809D01*
X109882142Y-114116190D01*
X109739285Y-114020952D01*
X109548809Y-113973333D01*
X109167857Y-113973333D01*
X109072619Y-114020952D01*
X109025000Y-114068571D01*
X108977380Y-114163809D01*
X108977380Y-114354285D01*
X109025000Y-114449523D01*
X109072619Y-114497142D01*
X109167857Y-114544761D01*
X109405952Y-114544761D01*
X109501190Y-114497142D01*
X109548809Y-114449523D01*
X109596428Y-114354285D01*
X109596428Y-114163809D01*
X109548809Y-114068571D01*
X109501190Y-114020952D01*
X109405952Y-113973333D01*
X110358333Y-113640000D02*
X110310714Y-113592380D01*
X110167857Y-113497142D01*
X110072619Y-113449523D01*
X109929761Y-113401904D01*
X109691666Y-113354285D01*
X109501190Y-113354285D01*
X109263095Y-113401904D01*
X109120238Y-113449523D01*
X109025000Y-113497142D01*
X108882142Y-113592380D01*
X108834523Y-113640000D01*
X112517380Y-114560476D02*
X112517380Y-115131904D01*
X112517380Y-114846190D02*
X111517380Y-114846190D01*
X111660238Y-114941428D01*
X111755476Y-115036666D01*
X111803095Y-115131904D01*
X111517380Y-114227142D02*
X111517380Y-113608095D01*
X111898333Y-113941428D01*
X111898333Y-113798571D01*
X111945952Y-113703333D01*
X111993571Y-113655714D01*
X112088809Y-113608095D01*
X112326904Y-113608095D01*
X112422142Y-113655714D01*
X112469761Y-113703333D01*
X112517380Y-113798571D01*
X112517380Y-114084285D01*
X112469761Y-114179523D01*
X112422142Y-114227142D01*
X114105000Y-116166904D02*
X114057380Y-116262142D01*
X114057380Y-116405000D01*
X114105000Y-116547857D01*
X114200238Y-116643095D01*
X114295476Y-116690714D01*
X114485952Y-116738333D01*
X114628809Y-116738333D01*
X114819285Y-116690714D01*
X114914523Y-116643095D01*
X115009761Y-116547857D01*
X115057380Y-116405000D01*
X115057380Y-116309761D01*
X115009761Y-116166904D01*
X114962142Y-116119285D01*
X114628809Y-116119285D01*
X114628809Y-116309761D01*
X115057380Y-115690714D02*
X114057380Y-115690714D01*
X115057380Y-115119285D01*
X114057380Y-115119285D01*
X115057380Y-114643095D02*
X114057380Y-114643095D01*
X114057380Y-114405000D01*
X114105000Y-114262142D01*
X114200238Y-114166904D01*
X114295476Y-114119285D01*
X114485952Y-114071666D01*
X114628809Y-114071666D01*
X114819285Y-114119285D01*
X114914523Y-114166904D01*
X115009761Y-114262142D01*
X115057380Y-114405000D01*
X115057380Y-114643095D01*
X117597380Y-114960476D02*
X117597380Y-115531904D01*
X117597380Y-115246190D02*
X116597380Y-115246190D01*
X116740238Y-115341428D01*
X116835476Y-115436666D01*
X116883095Y-115531904D01*
X116692619Y-114579523D02*
X116645000Y-114531904D01*
X116597380Y-114436666D01*
X116597380Y-114198571D01*
X116645000Y-114103333D01*
X116692619Y-114055714D01*
X116787857Y-114008095D01*
X116883095Y-114008095D01*
X117025952Y-114055714D01*
X117597380Y-114627142D01*
X117597380Y-114008095D01*
X119232619Y-115531904D02*
X119185000Y-115484285D01*
X119137380Y-115389047D01*
X119137380Y-115150952D01*
X119185000Y-115055714D01*
X119232619Y-115008095D01*
X119327857Y-114960476D01*
X119423095Y-114960476D01*
X119565952Y-115008095D01*
X120137380Y-115579523D01*
X120137380Y-114960476D01*
X119470714Y-114103333D02*
X120137380Y-114103333D01*
X119089761Y-114341428D02*
X119804047Y-114579523D01*
X119804047Y-113960476D01*
X121772619Y-115531904D02*
X121725000Y-115484285D01*
X121677380Y-115389047D01*
X121677380Y-115150952D01*
X121725000Y-115055714D01*
X121772619Y-115008095D01*
X121867857Y-114960476D01*
X121963095Y-114960476D01*
X122105952Y-115008095D01*
X122677380Y-115579523D01*
X122677380Y-114960476D01*
X121677380Y-114627142D02*
X121677380Y-113960476D01*
X122677380Y-114389047D01*
X124312619Y-115531904D02*
X124265000Y-115484285D01*
X124217380Y-115389047D01*
X124217380Y-115150952D01*
X124265000Y-115055714D01*
X124312619Y-115008095D01*
X124407857Y-114960476D01*
X124503095Y-114960476D01*
X124645952Y-115008095D01*
X125217380Y-115579523D01*
X125217380Y-114960476D01*
X124217380Y-114103333D02*
X124217380Y-114293809D01*
X124265000Y-114389047D01*
X124312619Y-114436666D01*
X124455476Y-114531904D01*
X124645952Y-114579523D01*
X125026904Y-114579523D01*
X125122142Y-114531904D01*
X125169761Y-114484285D01*
X125217380Y-114389047D01*
X125217380Y-114198571D01*
X125169761Y-114103333D01*
X125122142Y-114055714D01*
X125026904Y-114008095D01*
X124788809Y-114008095D01*
X124693571Y-114055714D01*
X124645952Y-114103333D01*
X124598333Y-114198571D01*
X124598333Y-114389047D01*
X124645952Y-114484285D01*
X124693571Y-114531904D01*
X124788809Y-114579523D01*
X126852619Y-115531904D02*
X126805000Y-115484285D01*
X126757380Y-115389047D01*
X126757380Y-115150952D01*
X126805000Y-115055714D01*
X126852619Y-115008095D01*
X126947857Y-114960476D01*
X127043095Y-114960476D01*
X127185952Y-115008095D01*
X127757380Y-115579523D01*
X127757380Y-114960476D01*
X126757380Y-114055714D02*
X126757380Y-114531904D01*
X127233571Y-114579523D01*
X127185952Y-114531904D01*
X127138333Y-114436666D01*
X127138333Y-114198571D01*
X127185952Y-114103333D01*
X127233571Y-114055714D01*
X127328809Y-114008095D01*
X127566904Y-114008095D01*
X127662142Y-114055714D01*
X127709761Y-114103333D01*
X127757380Y-114198571D01*
X127757380Y-114436666D01*
X127709761Y-114531904D01*
X127662142Y-114579523D01*
X129297380Y-115579523D02*
X129297380Y-114960476D01*
X129678333Y-115293809D01*
X129678333Y-115150952D01*
X129725952Y-115055714D01*
X129773571Y-115008095D01*
X129868809Y-114960476D01*
X130106904Y-114960476D01*
X130202142Y-115008095D01*
X130249761Y-115055714D01*
X130297380Y-115150952D01*
X130297380Y-115436666D01*
X130249761Y-115531904D01*
X130202142Y-115579523D01*
X129297380Y-114627142D02*
X129297380Y-114008095D01*
X129678333Y-114341428D01*
X129678333Y-114198571D01*
X129725952Y-114103333D01*
X129773571Y-114055714D01*
X129868809Y-114008095D01*
X130106904Y-114008095D01*
X130202142Y-114055714D01*
X130249761Y-114103333D01*
X130297380Y-114198571D01*
X130297380Y-114484285D01*
X130249761Y-114579523D01*
X130202142Y-114627142D01*
X131837380Y-115579523D02*
X131837380Y-114960476D01*
X132218333Y-115293809D01*
X132218333Y-115150952D01*
X132265952Y-115055714D01*
X132313571Y-115008095D01*
X132408809Y-114960476D01*
X132646904Y-114960476D01*
X132742142Y-115008095D01*
X132789761Y-115055714D01*
X132837380Y-115150952D01*
X132837380Y-115436666D01*
X132789761Y-115531904D01*
X132742142Y-115579523D01*
X131932619Y-114579523D02*
X131885000Y-114531904D01*
X131837380Y-114436666D01*
X131837380Y-114198571D01*
X131885000Y-114103333D01*
X131932619Y-114055714D01*
X132027857Y-114008095D01*
X132123095Y-114008095D01*
X132265952Y-114055714D01*
X132837380Y-114627142D01*
X132837380Y-114008095D01*
X134377380Y-115579523D02*
X134377380Y-114960476D01*
X134758333Y-115293809D01*
X134758333Y-115150952D01*
X134805952Y-115055714D01*
X134853571Y-115008095D01*
X134948809Y-114960476D01*
X135186904Y-114960476D01*
X135282142Y-115008095D01*
X135329761Y-115055714D01*
X135377380Y-115150952D01*
X135377380Y-115436666D01*
X135329761Y-115531904D01*
X135282142Y-115579523D01*
X134377380Y-114055714D02*
X134377380Y-114531904D01*
X134853571Y-114579523D01*
X134805952Y-114531904D01*
X134758333Y-114436666D01*
X134758333Y-114198571D01*
X134805952Y-114103333D01*
X134853571Y-114055714D01*
X134948809Y-114008095D01*
X135186904Y-114008095D01*
X135282142Y-114055714D01*
X135329761Y-114103333D01*
X135377380Y-114198571D01*
X135377380Y-114436666D01*
X135329761Y-114531904D01*
X135282142Y-114579523D01*
X136917380Y-115579523D02*
X136917380Y-114960476D01*
X137298333Y-115293809D01*
X137298333Y-115150952D01*
X137345952Y-115055714D01*
X137393571Y-115008095D01*
X137488809Y-114960476D01*
X137726904Y-114960476D01*
X137822142Y-115008095D01*
X137869761Y-115055714D01*
X137917380Y-115150952D01*
X137917380Y-115436666D01*
X137869761Y-115531904D01*
X137822142Y-115579523D01*
X137250714Y-114103333D02*
X137917380Y-114103333D01*
X136869761Y-114341428D02*
X137584047Y-114579523D01*
X137584047Y-113960476D01*
X139457380Y-118516190D02*
X140457380Y-118182857D01*
X139457380Y-117849523D01*
X140457380Y-117516190D02*
X139457380Y-117516190D01*
X140457380Y-116944761D01*
X139457380Y-116944761D01*
X140838333Y-116182857D02*
X140790714Y-116230476D01*
X140647857Y-116325714D01*
X140552619Y-116373333D01*
X140409761Y-116420952D01*
X140171666Y-116468571D01*
X139981190Y-116468571D01*
X139743095Y-116420952D01*
X139600238Y-116373333D01*
X139505000Y-116325714D01*
X139362142Y-116230476D01*
X139314523Y-116182857D01*
X139457380Y-115897142D02*
X139457380Y-115278095D01*
X139838333Y-115611428D01*
X139838333Y-115468571D01*
X139885952Y-115373333D01*
X139933571Y-115325714D01*
X140028809Y-115278095D01*
X140266904Y-115278095D01*
X140362142Y-115325714D01*
X140409761Y-115373333D01*
X140457380Y-115468571D01*
X140457380Y-115754285D01*
X140409761Y-115849523D01*
X140362142Y-115897142D01*
X140457380Y-114801904D02*
X140457380Y-114611428D01*
X140409761Y-114516190D01*
X140362142Y-114468571D01*
X140219285Y-114373333D01*
X140028809Y-114325714D01*
X139647857Y-114325714D01*
X139552619Y-114373333D01*
X139505000Y-114420952D01*
X139457380Y-114516190D01*
X139457380Y-114706666D01*
X139505000Y-114801904D01*
X139552619Y-114849523D01*
X139647857Y-114897142D01*
X139885952Y-114897142D01*
X139981190Y-114849523D01*
X140028809Y-114801904D01*
X140076428Y-114706666D01*
X140076428Y-114516190D01*
X140028809Y-114420952D01*
X139981190Y-114373333D01*
X139885952Y-114325714D01*
X140838333Y-113992380D02*
X140790714Y-113944761D01*
X140647857Y-113849523D01*
X140552619Y-113801904D01*
X140409761Y-113754285D01*
X140171666Y-113706666D01*
X139981190Y-113706666D01*
X139743095Y-113754285D01*
X139600238Y-113801904D01*
X139505000Y-113849523D01*
X139362142Y-113944761D01*
X139314523Y-113992380D01*
X141997380Y-118492380D02*
X142997380Y-118159047D01*
X141997380Y-117825714D01*
X142997380Y-117492380D02*
X141997380Y-117492380D01*
X141997380Y-117111428D01*
X142045000Y-117016190D01*
X142092619Y-116968571D01*
X142187857Y-116920952D01*
X142330714Y-116920952D01*
X142425952Y-116968571D01*
X142473571Y-117016190D01*
X142521190Y-117111428D01*
X142521190Y-117492380D01*
X143378333Y-116206666D02*
X143330714Y-116254285D01*
X143187857Y-116349523D01*
X143092619Y-116397142D01*
X142949761Y-116444761D01*
X142711666Y-116492380D01*
X142521190Y-116492380D01*
X142283095Y-116444761D01*
X142140238Y-116397142D01*
X142045000Y-116349523D01*
X141902142Y-116254285D01*
X141854523Y-116206666D01*
X141997380Y-115920952D02*
X141997380Y-115301904D01*
X142378333Y-115635238D01*
X142378333Y-115492380D01*
X142425952Y-115397142D01*
X142473571Y-115349523D01*
X142568809Y-115301904D01*
X142806904Y-115301904D01*
X142902142Y-115349523D01*
X142949761Y-115397142D01*
X142997380Y-115492380D01*
X142997380Y-115778095D01*
X142949761Y-115873333D01*
X142902142Y-115920952D01*
X141997380Y-114444761D02*
X141997380Y-114635238D01*
X142045000Y-114730476D01*
X142092619Y-114778095D01*
X142235476Y-114873333D01*
X142425952Y-114920952D01*
X142806904Y-114920952D01*
X142902142Y-114873333D01*
X142949761Y-114825714D01*
X142997380Y-114730476D01*
X142997380Y-114540000D01*
X142949761Y-114444761D01*
X142902142Y-114397142D01*
X142806904Y-114349523D01*
X142568809Y-114349523D01*
X142473571Y-114397142D01*
X142425952Y-114444761D01*
X142378333Y-114540000D01*
X142378333Y-114730476D01*
X142425952Y-114825714D01*
X142473571Y-114873333D01*
X142568809Y-114920952D01*
X143378333Y-114016190D02*
X143330714Y-113968571D01*
X143187857Y-113873333D01*
X143092619Y-113825714D01*
X142949761Y-113778095D01*
X142711666Y-113730476D01*
X142521190Y-113730476D01*
X142283095Y-113778095D01*
X142140238Y-113825714D01*
X142045000Y-113873333D01*
X141902142Y-113968571D01*
X141854523Y-114016190D01*
X144170000Y-115111190D02*
X144170000Y-114206428D01*
X145013571Y-114873095D02*
X145013571Y-114539761D01*
X145537380Y-114396904D02*
X145537380Y-114873095D01*
X144537380Y-114873095D01*
X144537380Y-114396904D01*
X144170000Y-114206428D02*
X144170000Y-113158809D01*
X145537380Y-113968333D02*
X144537380Y-113968333D01*
X145537380Y-113396904D01*
X144537380Y-113396904D01*
X147077380Y-115960476D02*
X147077380Y-115341428D01*
X147458333Y-115674761D01*
X147458333Y-115531904D01*
X147505952Y-115436666D01*
X147553571Y-115389047D01*
X147648809Y-115341428D01*
X147886904Y-115341428D01*
X147982142Y-115389047D01*
X148029761Y-115436666D01*
X148077380Y-115531904D01*
X148077380Y-115817619D01*
X148029761Y-115912857D01*
X147982142Y-115960476D01*
X147410714Y-115008095D02*
X148077380Y-114770000D01*
X147410714Y-114531904D01*
X147077380Y-114246190D02*
X147077380Y-113627142D01*
X147458333Y-113960476D01*
X147458333Y-113817619D01*
X147505952Y-113722380D01*
X147553571Y-113674761D01*
X147648809Y-113627142D01*
X147886904Y-113627142D01*
X147982142Y-113674761D01*
X148029761Y-113722380D01*
X148077380Y-113817619D01*
X148077380Y-114103333D01*
X148029761Y-114198571D01*
X147982142Y-114246190D01*
X101992380Y-126191904D02*
X102801904Y-126191904D01*
X102897142Y-126144285D01*
X102944761Y-126096666D01*
X102992380Y-126001428D01*
X102992380Y-125810952D01*
X102944761Y-125715714D01*
X102897142Y-125668095D01*
X102801904Y-125620476D01*
X101992380Y-125620476D01*
X102944761Y-125191904D02*
X102992380Y-125049047D01*
X102992380Y-124810952D01*
X102944761Y-124715714D01*
X102897142Y-124668095D01*
X102801904Y-124620476D01*
X102706666Y-124620476D01*
X102611428Y-124668095D01*
X102563809Y-124715714D01*
X102516190Y-124810952D01*
X102468571Y-125001428D01*
X102420952Y-125096666D01*
X102373333Y-125144285D01*
X102278095Y-125191904D01*
X102182857Y-125191904D01*
X102087619Y-125144285D01*
X102040000Y-125096666D01*
X101992380Y-125001428D01*
X101992380Y-124763333D01*
X102040000Y-124620476D01*
X102468571Y-123858571D02*
X102516190Y-123715714D01*
X102563809Y-123668095D01*
X102659047Y-123620476D01*
X102801904Y-123620476D01*
X102897142Y-123668095D01*
X102944761Y-123715714D01*
X102992380Y-123810952D01*
X102992380Y-124191904D01*
X101992380Y-124191904D01*
X101992380Y-123858571D01*
X102040000Y-123763333D01*
X102087619Y-123715714D01*
X102182857Y-123668095D01*
X102278095Y-123668095D01*
X102373333Y-123715714D01*
X102420952Y-123763333D01*
X102468571Y-123858571D01*
X102468571Y-124191904D01*
X114105000Y-118666904D02*
X114057380Y-118762142D01*
X114057380Y-118905000D01*
X114105000Y-119047857D01*
X114200238Y-119143095D01*
X114295476Y-119190714D01*
X114485952Y-119238333D01*
X114628809Y-119238333D01*
X114819285Y-119190714D01*
X114914523Y-119143095D01*
X115009761Y-119047857D01*
X115057380Y-118905000D01*
X115057380Y-118809761D01*
X115009761Y-118666904D01*
X114962142Y-118619285D01*
X114628809Y-118619285D01*
X114628809Y-118809761D01*
X115057380Y-118190714D02*
X114057380Y-118190714D01*
X115057380Y-117619285D01*
X114057380Y-117619285D01*
X115057380Y-117143095D02*
X114057380Y-117143095D01*
X114057380Y-116905000D01*
X114105000Y-116762142D01*
X114200238Y-116666904D01*
X114295476Y-116619285D01*
X114485952Y-116571666D01*
X114628809Y-116571666D01*
X114819285Y-116619285D01*
X114914523Y-116666904D01*
X115009761Y-116762142D01*
X115057380Y-116905000D01*
X115057380Y-117143095D01*
X155119047Y-134402380D02*
X154785714Y-133926190D01*
X154547619Y-134402380D02*
X154547619Y-133402380D01*
X154928571Y-133402380D01*
X155023809Y-133450000D01*
X155071428Y-133497619D01*
X155119047Y-133592857D01*
X155119047Y-133735714D01*
X155071428Y-133830952D01*
X155023809Y-133878571D01*
X154928571Y-133926190D01*
X154547619Y-133926190D01*
X155309523Y-134497619D02*
X156071428Y-134497619D01*
X156309523Y-133878571D02*
X156642857Y-133878571D01*
X156785714Y-134402380D02*
X156309523Y-134402380D01*
X156309523Y-133402380D01*
X156785714Y-133402380D01*
X157880952Y-134497619D02*
X157785714Y-134450000D01*
X157690476Y-134354761D01*
X157547619Y-134211904D01*
X157452380Y-134164285D01*
X157357142Y-134164285D01*
X157404761Y-134402380D02*
X157309523Y-134354761D01*
X157214285Y-134259523D01*
X157166666Y-134069047D01*
X157166666Y-133735714D01*
X157214285Y-133545238D01*
X157309523Y-133450000D01*
X157404761Y-133402380D01*
X157595238Y-133402380D01*
X157690476Y-133450000D01*
X157785714Y-133545238D01*
X157833333Y-133735714D01*
X157833333Y-134069047D01*
X157785714Y-134259523D01*
X157690476Y-134354761D01*
X157595238Y-134402380D01*
X157404761Y-134402380D01*
X158023809Y-134497619D02*
X158785714Y-134497619D01*
X158880952Y-133402380D02*
X159214285Y-134402380D01*
X159547619Y-133402380D01*
X159642857Y-134497619D02*
X160404761Y-134497619D01*
X160642857Y-134402380D02*
X160642857Y-133402380D01*
X160880952Y-133402380D01*
X161023809Y-133450000D01*
X161119047Y-133545238D01*
X161166666Y-133640476D01*
X161214285Y-133830952D01*
X161214285Y-133973809D01*
X161166666Y-134164285D01*
X161119047Y-134259523D01*
X161023809Y-134354761D01*
X160880952Y-134402380D01*
X160642857Y-134402380D01*
X161642857Y-134402380D02*
X161642857Y-133402380D01*
X161976190Y-133402380D02*
X162309523Y-134402380D01*
X162642857Y-133402380D01*
X162928571Y-133497619D02*
X162976190Y-133450000D01*
X163071428Y-133402380D01*
X163309523Y-133402380D01*
X163404761Y-133450000D01*
X163452380Y-133497619D01*
X163500000Y-133592857D01*
X163500000Y-133688095D01*
X163452380Y-133830952D01*
X162880952Y-134402380D01*
X163500000Y-134402380D01*
X155119047Y-139902380D02*
X154785714Y-139426190D01*
X154547619Y-139902380D02*
X154547619Y-138902380D01*
X154928571Y-138902380D01*
X155023809Y-138950000D01*
X155071428Y-138997619D01*
X155119047Y-139092857D01*
X155119047Y-139235714D01*
X155071428Y-139330952D01*
X155023809Y-139378571D01*
X154928571Y-139426190D01*
X154547619Y-139426190D01*
X155309523Y-139997619D02*
X156071428Y-139997619D01*
X156309523Y-139378571D02*
X156642857Y-139378571D01*
X156785714Y-139902380D02*
X156309523Y-139902380D01*
X156309523Y-138902380D01*
X156785714Y-138902380D01*
X157880952Y-139997619D02*
X157785714Y-139950000D01*
X157690476Y-139854761D01*
X157547619Y-139711904D01*
X157452380Y-139664285D01*
X157357142Y-139664285D01*
X157404761Y-139902380D02*
X157309523Y-139854761D01*
X157214285Y-139759523D01*
X157166666Y-139569047D01*
X157166666Y-139235714D01*
X157214285Y-139045238D01*
X157309523Y-138950000D01*
X157404761Y-138902380D01*
X157595238Y-138902380D01*
X157690476Y-138950000D01*
X157785714Y-139045238D01*
X157833333Y-139235714D01*
X157833333Y-139569047D01*
X157785714Y-139759523D01*
X157690476Y-139854761D01*
X157595238Y-139902380D01*
X157404761Y-139902380D01*
X158023809Y-139997619D02*
X158785714Y-139997619D01*
X158880952Y-138902380D02*
X159214285Y-139902380D01*
X159547619Y-138902380D01*
X159642857Y-139997619D02*
X160404761Y-139997619D01*
X160642857Y-139902380D02*
X160642857Y-138902380D01*
X160880952Y-138902380D01*
X161023809Y-138950000D01*
X161119047Y-139045238D01*
X161166666Y-139140476D01*
X161214285Y-139330952D01*
X161214285Y-139473809D01*
X161166666Y-139664285D01*
X161119047Y-139759523D01*
X161023809Y-139854761D01*
X160880952Y-139902380D01*
X160642857Y-139902380D01*
X161642857Y-139902380D02*
X161642857Y-138902380D01*
X161976190Y-138902380D02*
X162309523Y-139902380D01*
X162642857Y-138902380D01*
X163500000Y-139902380D02*
X162928571Y-139902380D01*
X163214285Y-139902380D02*
X163214285Y-138902380D01*
X163119047Y-139045238D01*
X163023809Y-139140476D01*
X162928571Y-139188095D01*
X102652380Y-84333333D02*
X103366666Y-84333333D01*
X103509523Y-84380952D01*
X103604761Y-84476190D01*
X103652380Y-84619047D01*
X103652380Y-84714285D01*
X102747619Y-83904761D02*
X102700000Y-83857142D01*
X102652380Y-83761904D01*
X102652380Y-83523809D01*
X102700000Y-83428571D01*
X102747619Y-83380952D01*
X102842857Y-83333333D01*
X102938095Y-83333333D01*
X103080952Y-83380952D01*
X103652380Y-83952380D01*
X103652380Y-83333333D01*
X116580952Y-91957142D02*
X116533333Y-92004761D01*
X116390476Y-92052380D01*
X116295238Y-92052380D01*
X116152380Y-92004761D01*
X116057142Y-91909523D01*
X116009523Y-91814285D01*
X115961904Y-91623809D01*
X115961904Y-91480952D01*
X116009523Y-91290476D01*
X116057142Y-91195238D01*
X116152380Y-91100000D01*
X116295238Y-91052380D01*
X116390476Y-91052380D01*
X116533333Y-91100000D01*
X116580952Y-91147619D01*
X116771428Y-92147619D02*
X117533333Y-92147619D01*
X117628571Y-91052380D02*
X118200000Y-91052380D01*
X117914285Y-92052380D02*
X117914285Y-91052380D01*
X118295238Y-92147619D02*
X119057142Y-92147619D01*
X119295238Y-91052380D02*
X119295238Y-91861904D01*
X119342857Y-91957142D01*
X119390476Y-92004761D01*
X119485714Y-92052380D01*
X119676190Y-92052380D01*
X119771428Y-92004761D01*
X119819047Y-91957142D01*
X119866666Y-91861904D01*
X119866666Y-91052380D01*
X120295238Y-92004761D02*
X120438095Y-92052380D01*
X120676190Y-92052380D01*
X120771428Y-92004761D01*
X120819047Y-91957142D01*
X120866666Y-91861904D01*
X120866666Y-91766666D01*
X120819047Y-91671428D01*
X120771428Y-91623809D01*
X120676190Y-91576190D01*
X120485714Y-91528571D01*
X120390476Y-91480952D01*
X120342857Y-91433333D01*
X120295238Y-91338095D01*
X120295238Y-91242857D01*
X120342857Y-91147619D01*
X120390476Y-91100000D01*
X120485714Y-91052380D01*
X120723809Y-91052380D01*
X120866666Y-91100000D01*
X121628571Y-91528571D02*
X121771428Y-91576190D01*
X121819047Y-91623809D01*
X121866666Y-91719047D01*
X121866666Y-91861904D01*
X121819047Y-91957142D01*
X121771428Y-92004761D01*
X121676190Y-92052380D01*
X121295238Y-92052380D01*
X121295238Y-91052380D01*
X121628571Y-91052380D01*
X121723809Y-91100000D01*
X121771428Y-91147619D01*
X121819047Y-91242857D01*
X121819047Y-91338095D01*
X121771428Y-91433333D01*
X121723809Y-91480952D01*
X121628571Y-91528571D01*
X121295238Y-91528571D01*
X122057142Y-92147619D02*
X122819047Y-92147619D01*
X123247619Y-91052380D02*
X123438095Y-91052380D01*
X123533333Y-91100000D01*
X123628571Y-91195238D01*
X123676190Y-91385714D01*
X123676190Y-91719047D01*
X123628571Y-91909523D01*
X123533333Y-92004761D01*
X123438095Y-92052380D01*
X123247619Y-92052380D01*
X123152380Y-92004761D01*
X123057142Y-91909523D01*
X123009523Y-91719047D01*
X123009523Y-91385714D01*
X123057142Y-91195238D01*
X123152380Y-91100000D01*
X123247619Y-91052380D01*
X124104761Y-91052380D02*
X124104761Y-91861904D01*
X124152380Y-91957142D01*
X124200000Y-92004761D01*
X124295238Y-92052380D01*
X124485714Y-92052380D01*
X124580952Y-92004761D01*
X124628571Y-91957142D01*
X124676190Y-91861904D01*
X124676190Y-91052380D01*
X125009523Y-91052380D02*
X125580952Y-91052380D01*
X125295238Y-92052380D02*
X125295238Y-91052380D01*
X126438095Y-92052380D02*
X125866666Y-92052380D01*
X126152380Y-92052380D02*
X126152380Y-91052380D01*
X126057142Y-91195238D01*
X125961904Y-91290476D01*
X125866666Y-91338095D01*
X127985714Y-105107142D02*
X127938095Y-105154761D01*
X127795238Y-105202380D01*
X127700000Y-105202380D01*
X127557142Y-105154761D01*
X127461904Y-105059523D01*
X127414285Y-104964285D01*
X127366666Y-104773809D01*
X127366666Y-104630952D01*
X127414285Y-104440476D01*
X127461904Y-104345238D01*
X127557142Y-104250000D01*
X127700000Y-104202380D01*
X127795238Y-104202380D01*
X127938095Y-104250000D01*
X127985714Y-104297619D01*
X128176190Y-105297619D02*
X128938095Y-105297619D01*
X129033333Y-104202380D02*
X129604761Y-104202380D01*
X129319047Y-105202380D02*
X129319047Y-104202380D01*
X129700000Y-105297619D02*
X130461904Y-105297619D01*
X131176190Y-104202380D02*
X130700000Y-104202380D01*
X130652380Y-104678571D01*
X130700000Y-104630952D01*
X130795238Y-104583333D01*
X131033333Y-104583333D01*
X131128571Y-104630952D01*
X131176190Y-104678571D01*
X131223809Y-104773809D01*
X131223809Y-105011904D01*
X131176190Y-105107142D01*
X131128571Y-105154761D01*
X131033333Y-105202380D01*
X130795238Y-105202380D01*
X130700000Y-105154761D01*
X130652380Y-105107142D01*
X131509523Y-104202380D02*
X131842857Y-105202380D01*
X132176190Y-104202380D01*
X133033333Y-105202380D02*
X132461904Y-105202380D01*
X132747619Y-105202380D02*
X132747619Y-104202380D01*
X132652380Y-104345238D01*
X132557142Y-104440476D01*
X132461904Y-104488095D01*
X126309523Y-97757142D02*
X126261904Y-97804761D01*
X126119047Y-97852380D01*
X126023809Y-97852380D01*
X125880952Y-97804761D01*
X125785714Y-97709523D01*
X125738095Y-97614285D01*
X125690476Y-97423809D01*
X125690476Y-97280952D01*
X125738095Y-97090476D01*
X125785714Y-96995238D01*
X125880952Y-96900000D01*
X126023809Y-96852380D01*
X126119047Y-96852380D01*
X126261904Y-96900000D01*
X126309523Y-96947619D01*
X126500000Y-97947619D02*
X127261904Y-97947619D01*
X127500000Y-97328571D02*
X127833333Y-97328571D01*
X127976190Y-97852380D02*
X127500000Y-97852380D01*
X127500000Y-96852380D01*
X127976190Y-96852380D01*
X128880952Y-97852380D02*
X128404761Y-97852380D01*
X128404761Y-96852380D01*
X128976190Y-97947619D02*
X129738095Y-97947619D01*
X130452380Y-96852380D02*
X129976190Y-96852380D01*
X129928571Y-97328571D01*
X129976190Y-97280952D01*
X130071428Y-97233333D01*
X130309523Y-97233333D01*
X130404761Y-97280952D01*
X130452380Y-97328571D01*
X130500000Y-97423809D01*
X130500000Y-97661904D01*
X130452380Y-97757142D01*
X130404761Y-97804761D01*
X130309523Y-97852380D01*
X130071428Y-97852380D01*
X129976190Y-97804761D01*
X129928571Y-97757142D01*
X130785714Y-96852380D02*
X131119047Y-97852380D01*
X131452380Y-96852380D01*
X132309523Y-97852380D02*
X131738095Y-97852380D01*
X132023809Y-97852380D02*
X132023809Y-96852380D01*
X131928571Y-96995238D01*
X131833333Y-97090476D01*
X131738095Y-97138095D01*
X123709523Y-89757142D02*
X123661904Y-89804761D01*
X123519047Y-89852380D01*
X123423809Y-89852380D01*
X123280952Y-89804761D01*
X123185714Y-89709523D01*
X123138095Y-89614285D01*
X123090476Y-89423809D01*
X123090476Y-89280952D01*
X123138095Y-89090476D01*
X123185714Y-88995238D01*
X123280952Y-88900000D01*
X123423809Y-88852380D01*
X123519047Y-88852380D01*
X123661904Y-88900000D01*
X123709523Y-88947619D01*
X123900000Y-89947619D02*
X124661904Y-89947619D01*
X124900000Y-89328571D02*
X125233333Y-89328571D01*
X125376190Y-89852380D02*
X124900000Y-89852380D01*
X124900000Y-88852380D01*
X125376190Y-88852380D01*
X125566666Y-89947619D02*
X126328571Y-89947619D01*
X126566666Y-88852380D02*
X126566666Y-89661904D01*
X126614285Y-89757142D01*
X126661904Y-89804761D01*
X126757142Y-89852380D01*
X126947619Y-89852380D01*
X127042857Y-89804761D01*
X127090476Y-89757142D01*
X127138095Y-89661904D01*
X127138095Y-88852380D01*
X127566666Y-89804761D02*
X127709523Y-89852380D01*
X127947619Y-89852380D01*
X128042857Y-89804761D01*
X128090476Y-89757142D01*
X128138095Y-89661904D01*
X128138095Y-89566666D01*
X128090476Y-89471428D01*
X128042857Y-89423809D01*
X127947619Y-89376190D01*
X127757142Y-89328571D01*
X127661904Y-89280952D01*
X127614285Y-89233333D01*
X127566666Y-89138095D01*
X127566666Y-89042857D01*
X127614285Y-88947619D01*
X127661904Y-88900000D01*
X127757142Y-88852380D01*
X127995238Y-88852380D01*
X128138095Y-88900000D01*
X128900000Y-89328571D02*
X129042857Y-89376190D01*
X129090476Y-89423809D01*
X129138095Y-89519047D01*
X129138095Y-89661904D01*
X129090476Y-89757142D01*
X129042857Y-89804761D01*
X128947619Y-89852380D01*
X128566666Y-89852380D01*
X128566666Y-88852380D01*
X128900000Y-88852380D01*
X128995238Y-88900000D01*
X129042857Y-88947619D01*
X129090476Y-89042857D01*
X129090476Y-89138095D01*
X129042857Y-89233333D01*
X128995238Y-89280952D01*
X128900000Y-89328571D01*
X128566666Y-89328571D01*
X129328571Y-89947619D02*
X130090476Y-89947619D01*
X130519047Y-88852380D02*
X130709523Y-88852380D01*
X130804761Y-88900000D01*
X130900000Y-88995238D01*
X130947619Y-89185714D01*
X130947619Y-89519047D01*
X130900000Y-89709523D01*
X130804761Y-89804761D01*
X130709523Y-89852380D01*
X130519047Y-89852380D01*
X130423809Y-89804761D01*
X130328571Y-89709523D01*
X130280952Y-89519047D01*
X130280952Y-89185714D01*
X130328571Y-88995238D01*
X130423809Y-88900000D01*
X130519047Y-88852380D01*
X131376190Y-88852380D02*
X131376190Y-89661904D01*
X131423809Y-89757142D01*
X131471428Y-89804761D01*
X131566666Y-89852380D01*
X131757142Y-89852380D01*
X131852380Y-89804761D01*
X131900000Y-89757142D01*
X131947619Y-89661904D01*
X131947619Y-88852380D01*
X132280952Y-88852380D02*
X132852380Y-88852380D01*
X132566666Y-89852380D02*
X132566666Y-88852380D01*
X133709523Y-89852380D02*
X133138095Y-89852380D01*
X133423809Y-89852380D02*
X133423809Y-88852380D01*
X133328571Y-88995238D01*
X133233333Y-89090476D01*
X133138095Y-89138095D01*
X123366666Y-53904761D02*
X123509523Y-53952380D01*
X123747619Y-53952380D01*
X123842857Y-53904761D01*
X123890476Y-53857142D01*
X123938095Y-53761904D01*
X123938095Y-53666666D01*
X123890476Y-53571428D01*
X123842857Y-53523809D01*
X123747619Y-53476190D01*
X123557142Y-53428571D01*
X123461904Y-53380952D01*
X123414285Y-53333333D01*
X123366666Y-53238095D01*
X123366666Y-53142857D01*
X123414285Y-53047619D01*
X123461904Y-53000000D01*
X123557142Y-52952380D01*
X123795238Y-52952380D01*
X123938095Y-53000000D01*
X124271428Y-52952380D02*
X124509523Y-53952380D01*
X124700000Y-53238095D01*
X124890476Y-53952380D01*
X125128571Y-52952380D01*
X126033333Y-53952380D02*
X125461904Y-53952380D01*
X125747619Y-53952380D02*
X125747619Y-52952380D01*
X125652380Y-53095238D01*
X125557142Y-53190476D01*
X125461904Y-53238095D01*
X129647619Y-52952380D02*
X129838095Y-52952380D01*
X129933333Y-53000000D01*
X130028571Y-53095238D01*
X130076190Y-53285714D01*
X130076190Y-53619047D01*
X130028571Y-53809523D01*
X129933333Y-53904761D01*
X129838095Y-53952380D01*
X129647619Y-53952380D01*
X129552380Y-53904761D01*
X129457142Y-53809523D01*
X129409523Y-53619047D01*
X129409523Y-53285714D01*
X129457142Y-53095238D01*
X129552380Y-53000000D01*
X129647619Y-52952380D01*
X130838095Y-53428571D02*
X130504761Y-53428571D01*
X130504761Y-53952380D02*
X130504761Y-52952380D01*
X130980952Y-52952380D01*
X131695238Y-53428571D02*
X131361904Y-53428571D01*
X131361904Y-53952380D02*
X131361904Y-52952380D01*
X131838095Y-52952380D01*
X118080952Y-52952380D02*
X118271428Y-52952380D01*
X118366666Y-53000000D01*
X118461904Y-53095238D01*
X118509523Y-53285714D01*
X118509523Y-53619047D01*
X118461904Y-53809523D01*
X118366666Y-53904761D01*
X118271428Y-53952380D01*
X118080952Y-53952380D01*
X117985714Y-53904761D01*
X117890476Y-53809523D01*
X117842857Y-53619047D01*
X117842857Y-53285714D01*
X117890476Y-53095238D01*
X117985714Y-53000000D01*
X118080952Y-52952380D01*
X118938095Y-53952380D02*
X118938095Y-52952380D01*
X119509523Y-53952380D01*
X119509523Y-52952380D01*
X165091666Y-107228571D02*
X164758333Y-107228571D01*
X164758333Y-107752380D02*
X164758333Y-106752380D01*
X165234523Y-106752380D01*
X165520238Y-106752380D02*
X166139285Y-106752380D01*
X165805952Y-107133333D01*
X165948809Y-107133333D01*
X166044047Y-107180952D01*
X166091666Y-107228571D01*
X166139285Y-107323809D01*
X166139285Y-107561904D01*
X166091666Y-107657142D01*
X166044047Y-107704761D01*
X165948809Y-107752380D01*
X165663095Y-107752380D01*
X165567857Y-107704761D01*
X165520238Y-107657142D01*
X164456666Y-85638571D02*
X164123333Y-85638571D01*
X164123333Y-86162380D02*
X164123333Y-85162380D01*
X164599523Y-85162380D01*
X164932857Y-85257619D02*
X164980476Y-85210000D01*
X165075714Y-85162380D01*
X165313809Y-85162380D01*
X165409047Y-85210000D01*
X165456666Y-85257619D01*
X165504285Y-85352857D01*
X165504285Y-85448095D01*
X165456666Y-85590952D01*
X164885238Y-86162380D01*
X165504285Y-86162380D01*
X164456666Y-64048571D02*
X164123333Y-64048571D01*
X164123333Y-64572380D02*
X164123333Y-63572380D01*
X164599523Y-63572380D01*
X165504285Y-64572380D02*
X164932857Y-64572380D01*
X165218571Y-64572380D02*
X165218571Y-63572380D01*
X165123333Y-63715238D01*
X165028095Y-63810476D01*
X164932857Y-63858095D01*
X110012380Y-62595238D02*
X110726666Y-62595238D01*
X110869523Y-62642857D01*
X110964761Y-62738095D01*
X111012380Y-62880952D01*
X111012380Y-62976190D01*
X111012380Y-62119047D02*
X110012380Y-62119047D01*
X111012380Y-61642857D02*
X110012380Y-61642857D01*
X111012380Y-61071428D01*
X110012380Y-61071428D01*
X111012380Y-60071428D02*
X111012380Y-60642857D01*
X111012380Y-60357142D02*
X110012380Y-60357142D01*
X110155238Y-60452380D01*
X110250476Y-60547619D01*
X110298095Y-60642857D01*
X167748095Y-127122380D02*
X167748095Y-127931904D01*
X167795714Y-128027142D01*
X167843333Y-128074761D01*
X167938571Y-128122380D01*
X168129047Y-128122380D01*
X168224285Y-128074761D01*
X168271904Y-128027142D01*
X168319523Y-127931904D01*
X168319523Y-127122380D01*
X168700476Y-127122380D02*
X169319523Y-127122380D01*
X168986190Y-127503333D01*
X169129047Y-127503333D01*
X169224285Y-127550952D01*
X169271904Y-127598571D01*
X169319523Y-127693809D01*
X169319523Y-127931904D01*
X169271904Y-128027142D01*
X169224285Y-128074761D01*
X169129047Y-128122380D01*
X168843333Y-128122380D01*
X168748095Y-128074761D01*
X168700476Y-128027142D01*
X105280952Y-103652380D02*
X104947619Y-103176190D01*
X104709523Y-103652380D02*
X104709523Y-102652380D01*
X105090476Y-102652380D01*
X105185714Y-102700000D01*
X105233333Y-102747619D01*
X105280952Y-102842857D01*
X105280952Y-102985714D01*
X105233333Y-103080952D01*
X105185714Y-103128571D01*
X105090476Y-103176190D01*
X104709523Y-103176190D01*
X105471428Y-103747619D02*
X106233333Y-103747619D01*
X106471428Y-103652380D02*
X106471428Y-102652380D01*
X106947619Y-103652380D02*
X106947619Y-102652380D01*
X107519047Y-103652380D01*
X107519047Y-102652380D01*
X107757142Y-103747619D02*
X108519047Y-103747619D01*
X109328571Y-103652380D02*
X108995238Y-103176190D01*
X108757142Y-103652380D02*
X108757142Y-102652380D01*
X109138095Y-102652380D01*
X109233333Y-102700000D01*
X109280952Y-102747619D01*
X109328571Y-102842857D01*
X109328571Y-102985714D01*
X109280952Y-103080952D01*
X109233333Y-103128571D01*
X109138095Y-103176190D01*
X108757142Y-103176190D01*
X109519047Y-103747619D02*
X110280952Y-103747619D01*
X110519047Y-103652380D02*
X110519047Y-102652380D01*
X110852380Y-103366666D01*
X111185714Y-102652380D01*
X111185714Y-103652380D01*
X111614285Y-103604761D02*
X111757142Y-103652380D01*
X111995238Y-103652380D01*
X112090476Y-103604761D01*
X112138095Y-103557142D01*
X112185714Y-103461904D01*
X112185714Y-103366666D01*
X112138095Y-103271428D01*
X112090476Y-103223809D01*
X111995238Y-103176190D01*
X111804761Y-103128571D01*
X111709523Y-103080952D01*
X111661904Y-103033333D01*
X111614285Y-102938095D01*
X111614285Y-102842857D01*
X111661904Y-102747619D01*
X111709523Y-102700000D01*
X111804761Y-102652380D01*
X112042857Y-102652380D01*
X112185714Y-102700000D01*
X113280952Y-103747619D02*
X113185714Y-103700000D01*
X113090476Y-103604761D01*
X112947619Y-103461904D01*
X112852380Y-103414285D01*
X112757142Y-103414285D01*
X112804761Y-103652380D02*
X112709523Y-103604761D01*
X112614285Y-103509523D01*
X112566666Y-103319047D01*
X112566666Y-102985714D01*
X112614285Y-102795238D01*
X112709523Y-102700000D01*
X112804761Y-102652380D01*
X112995238Y-102652380D01*
X113090476Y-102700000D01*
X113185714Y-102795238D01*
X113233333Y-102985714D01*
X113233333Y-103319047D01*
X113185714Y-103509523D01*
X113090476Y-103604761D01*
X112995238Y-103652380D01*
X112804761Y-103652380D01*
X113661904Y-103128571D02*
X113995238Y-103128571D01*
X114138095Y-103652380D02*
X113661904Y-103652380D01*
X113661904Y-102652380D01*
X114138095Y-102652380D01*
X115233333Y-103747619D02*
X115138095Y-103700000D01*
X115042857Y-103604761D01*
X114900000Y-103461904D01*
X114804761Y-103414285D01*
X114709523Y-103414285D01*
X114757142Y-103652380D02*
X114661904Y-103604761D01*
X114566666Y-103509523D01*
X114519047Y-103319047D01*
X114519047Y-102985714D01*
X114566666Y-102795238D01*
X114661904Y-102700000D01*
X114757142Y-102652380D01*
X114947619Y-102652380D01*
X115042857Y-102700000D01*
X115138095Y-102795238D01*
X115185714Y-102985714D01*
X115185714Y-103319047D01*
X115138095Y-103509523D01*
X115042857Y-103604761D01*
X114947619Y-103652380D01*
X114757142Y-103652380D01*
X115519047Y-102652380D02*
X116185714Y-102652380D01*
X115757142Y-103652380D01*
X105376190Y-105652380D02*
X105042857Y-105176190D01*
X104804761Y-105652380D02*
X104804761Y-104652380D01*
X105185714Y-104652380D01*
X105280952Y-104700000D01*
X105328571Y-104747619D01*
X105376190Y-104842857D01*
X105376190Y-104985714D01*
X105328571Y-105080952D01*
X105280952Y-105128571D01*
X105185714Y-105176190D01*
X104804761Y-105176190D01*
X105566666Y-105747619D02*
X106328571Y-105747619D01*
X106566666Y-105652380D02*
X106566666Y-104652380D01*
X107042857Y-105652380D02*
X107042857Y-104652380D01*
X107614285Y-105652380D01*
X107614285Y-104652380D01*
X107852380Y-105747619D02*
X108614285Y-105747619D01*
X109328571Y-105652380D02*
X108852380Y-105652380D01*
X108852380Y-104652380D01*
X109423809Y-105747619D02*
X110185714Y-105747619D01*
X110423809Y-105652380D02*
X110423809Y-104652380D01*
X110757142Y-105366666D01*
X111090476Y-104652380D01*
X111090476Y-105652380D01*
X111519047Y-105604761D02*
X111661904Y-105652380D01*
X111900000Y-105652380D01*
X111995238Y-105604761D01*
X112042857Y-105557142D01*
X112090476Y-105461904D01*
X112090476Y-105366666D01*
X112042857Y-105271428D01*
X111995238Y-105223809D01*
X111900000Y-105176190D01*
X111709523Y-105128571D01*
X111614285Y-105080952D01*
X111566666Y-105033333D01*
X111519047Y-104938095D01*
X111519047Y-104842857D01*
X111566666Y-104747619D01*
X111614285Y-104700000D01*
X111709523Y-104652380D01*
X111947619Y-104652380D01*
X112090476Y-104700000D01*
X113185714Y-105747619D02*
X113090476Y-105700000D01*
X112995238Y-105604761D01*
X112852380Y-105461904D01*
X112757142Y-105414285D01*
X112661904Y-105414285D01*
X112709523Y-105652380D02*
X112614285Y-105604761D01*
X112519047Y-105509523D01*
X112471428Y-105319047D01*
X112471428Y-104985714D01*
X112519047Y-104795238D01*
X112614285Y-104700000D01*
X112709523Y-104652380D01*
X112900000Y-104652380D01*
X112995238Y-104700000D01*
X113090476Y-104795238D01*
X113138095Y-104985714D01*
X113138095Y-105319047D01*
X113090476Y-105509523D01*
X112995238Y-105604761D01*
X112900000Y-105652380D01*
X112709523Y-105652380D01*
X113566666Y-105128571D02*
X113900000Y-105128571D01*
X114042857Y-105652380D02*
X113566666Y-105652380D01*
X113566666Y-104652380D01*
X114042857Y-104652380D01*
X115138095Y-105747619D02*
X115042857Y-105700000D01*
X114947619Y-105604761D01*
X114804761Y-105461904D01*
X114709523Y-105414285D01*
X114614285Y-105414285D01*
X114661904Y-105652380D02*
X114566666Y-105604761D01*
X114471428Y-105509523D01*
X114423809Y-105319047D01*
X114423809Y-104985714D01*
X114471428Y-104795238D01*
X114566666Y-104700000D01*
X114661904Y-104652380D01*
X114852380Y-104652380D01*
X114947619Y-104700000D01*
X115042857Y-104795238D01*
X115090476Y-104985714D01*
X115090476Y-105319047D01*
X115042857Y-105509523D01*
X114947619Y-105604761D01*
X114852380Y-105652380D01*
X114661904Y-105652380D01*
X116042857Y-105652380D02*
X115471428Y-105652380D01*
X115757142Y-105652380D02*
X115757142Y-104652380D01*
X115661904Y-104795238D01*
X115566666Y-104890476D01*
X115471428Y-104938095D01*
X171185714Y-128052380D02*
X170852380Y-127576190D01*
X170614285Y-128052380D02*
X170614285Y-127052380D01*
X170995238Y-127052380D01*
X171090476Y-127100000D01*
X171138095Y-127147619D01*
X171185714Y-127242857D01*
X171185714Y-127385714D01*
X171138095Y-127480952D01*
X171090476Y-127528571D01*
X170995238Y-127576190D01*
X170614285Y-127576190D01*
X171376190Y-128147619D02*
X172138095Y-128147619D01*
X172947619Y-127957142D02*
X172900000Y-128004761D01*
X172757142Y-128052380D01*
X172661904Y-128052380D01*
X172519047Y-128004761D01*
X172423809Y-127909523D01*
X172376190Y-127814285D01*
X172328571Y-127623809D01*
X172328571Y-127480952D01*
X172376190Y-127290476D01*
X172423809Y-127195238D01*
X172519047Y-127100000D01*
X172661904Y-127052380D01*
X172757142Y-127052380D01*
X172900000Y-127100000D01*
X172947619Y-127147619D01*
X173376190Y-128052380D02*
X173376190Y-127052380D01*
X173947619Y-128052380D02*
X173519047Y-127480952D01*
X173947619Y-127052380D02*
X173376190Y-127623809D01*
X174376190Y-128052380D02*
X174376190Y-127052380D01*
X174852380Y-128052380D02*
X174852380Y-127052380D01*
X175423809Y-128052380D01*
X175423809Y-127052380D01*
X175661904Y-128147619D02*
X176423809Y-128147619D01*
X176661904Y-128052380D02*
X176661904Y-127052380D01*
X176995238Y-127766666D01*
X177328571Y-127052380D01*
X177328571Y-128052380D01*
X177757142Y-128004761D02*
X177900000Y-128052380D01*
X178138095Y-128052380D01*
X178233333Y-128004761D01*
X178280952Y-127957142D01*
X178328571Y-127861904D01*
X178328571Y-127766666D01*
X178280952Y-127671428D01*
X178233333Y-127623809D01*
X178138095Y-127576190D01*
X177947619Y-127528571D01*
X177852380Y-127480952D01*
X177804761Y-127433333D01*
X177757142Y-127338095D01*
X177757142Y-127242857D01*
X177804761Y-127147619D01*
X177852380Y-127100000D01*
X177947619Y-127052380D01*
X178185714Y-127052380D01*
X178328571Y-127100000D01*
X179280952Y-127100000D02*
X179185714Y-127052380D01*
X179042857Y-127052380D01*
X178900000Y-127100000D01*
X178804761Y-127195238D01*
X178757142Y-127290476D01*
X178709523Y-127480952D01*
X178709523Y-127623809D01*
X178757142Y-127814285D01*
X178804761Y-127909523D01*
X178900000Y-128004761D01*
X179042857Y-128052380D01*
X179138095Y-128052380D01*
X179280952Y-128004761D01*
X179328571Y-127957142D01*
X179328571Y-127623809D01*
X179138095Y-127623809D01*
X179757142Y-127528571D02*
X180090476Y-127528571D01*
X180233333Y-128052380D02*
X179757142Y-128052380D01*
X179757142Y-127052380D01*
X180233333Y-127052380D01*
X181328571Y-128147619D02*
X181233333Y-128100000D01*
X181138095Y-128004761D01*
X180995238Y-127861904D01*
X180900000Y-127814285D01*
X180804761Y-127814285D01*
X180852380Y-128052380D02*
X180757142Y-128004761D01*
X180661904Y-127909523D01*
X180614285Y-127719047D01*
X180614285Y-127385714D01*
X180661904Y-127195238D01*
X180757142Y-127100000D01*
X180852380Y-127052380D01*
X181042857Y-127052380D01*
X181138095Y-127100000D01*
X181233333Y-127195238D01*
X181280952Y-127385714D01*
X181280952Y-127719047D01*
X181233333Y-127909523D01*
X181138095Y-128004761D01*
X181042857Y-128052380D01*
X180852380Y-128052380D01*
X181614285Y-127052380D02*
X182280952Y-127052380D01*
X181852380Y-128052380D01*
X205252380Y-130033333D02*
X204776190Y-130366666D01*
X205252380Y-130604761D02*
X204252380Y-130604761D01*
X204252380Y-130223809D01*
X204300000Y-130128571D01*
X204347619Y-130080952D01*
X204442857Y-130033333D01*
X204585714Y-130033333D01*
X204680952Y-130080952D01*
X204728571Y-130128571D01*
X204776190Y-130223809D01*
X204776190Y-130604761D01*
X205347619Y-129842857D02*
X205347619Y-129080952D01*
X204728571Y-128842857D02*
X204728571Y-128509523D01*
X205252380Y-128366666D02*
X205252380Y-128842857D01*
X204252380Y-128842857D01*
X204252380Y-128366666D01*
X205252380Y-127938095D02*
X204252380Y-127938095D01*
X205252380Y-127366666D01*
X204252380Y-127366666D01*
X205157142Y-126319047D02*
X205204761Y-126366666D01*
X205252380Y-126509523D01*
X205252380Y-126604761D01*
X205204761Y-126747619D01*
X205109523Y-126842857D01*
X205014285Y-126890476D01*
X204823809Y-126938095D01*
X204680952Y-126938095D01*
X204490476Y-126890476D01*
X204395238Y-126842857D01*
X204300000Y-126747619D01*
X204252380Y-126604761D01*
X204252380Y-126509523D01*
X204300000Y-126366666D01*
X204347619Y-126319047D01*
X205347619Y-126128571D02*
X205347619Y-125366666D01*
X204966666Y-125176190D02*
X204966666Y-124700000D01*
X205252380Y-125271428D02*
X204252380Y-124938095D01*
X205252380Y-124604761D01*
X205252380Y-123747619D02*
X205252380Y-124319047D01*
X205252380Y-124033333D02*
X204252380Y-124033333D01*
X204395238Y-124128571D01*
X204490476Y-124223809D01*
X204538095Y-124319047D01*
X207052380Y-130104761D02*
X206576190Y-130438095D01*
X207052380Y-130676190D02*
X206052380Y-130676190D01*
X206052380Y-130295238D01*
X206100000Y-130200000D01*
X206147619Y-130152380D01*
X206242857Y-130104761D01*
X206385714Y-130104761D01*
X206480952Y-130152380D01*
X206528571Y-130200000D01*
X206576190Y-130295238D01*
X206576190Y-130676190D01*
X207147619Y-129914285D02*
X207147619Y-129152380D01*
X206528571Y-128914285D02*
X206528571Y-128580952D01*
X207052380Y-128438095D02*
X207052380Y-128914285D01*
X206052380Y-128914285D01*
X206052380Y-128438095D01*
X207052380Y-128009523D02*
X206052380Y-128009523D01*
X207052380Y-127438095D01*
X206052380Y-127438095D01*
X206957142Y-126390476D02*
X207004761Y-126438095D01*
X207052380Y-126580952D01*
X207052380Y-126676190D01*
X207004761Y-126819047D01*
X206909523Y-126914285D01*
X206814285Y-126961904D01*
X206623809Y-127009523D01*
X206480952Y-127009523D01*
X206290476Y-126961904D01*
X206195238Y-126914285D01*
X206100000Y-126819047D01*
X206052380Y-126676190D01*
X206052380Y-126580952D01*
X206100000Y-126438095D01*
X206147619Y-126390476D01*
X207147619Y-126200000D02*
X207147619Y-125438095D01*
X206528571Y-124866666D02*
X206576190Y-124723809D01*
X206623809Y-124676190D01*
X206719047Y-124628571D01*
X206861904Y-124628571D01*
X206957142Y-124676190D01*
X207004761Y-124723809D01*
X207052380Y-124819047D01*
X207052380Y-125200000D01*
X206052380Y-125200000D01*
X206052380Y-124866666D01*
X206100000Y-124771428D01*
X206147619Y-124723809D01*
X206242857Y-124676190D01*
X206338095Y-124676190D01*
X206433333Y-124723809D01*
X206480952Y-124771428D01*
X206528571Y-124866666D01*
X206528571Y-125200000D01*
X207052380Y-123676190D02*
X207052380Y-124247619D01*
X207052380Y-123961904D02*
X206052380Y-123961904D01*
X206195238Y-124057142D01*
X206290476Y-124152380D01*
X206338095Y-124247619D01*
X116644047Y-110002380D02*
X116310714Y-109526190D01*
X116072619Y-110002380D02*
X116072619Y-109002380D01*
X116453571Y-109002380D01*
X116548809Y-109050000D01*
X116596428Y-109097619D01*
X116644047Y-109192857D01*
X116644047Y-109335714D01*
X116596428Y-109430952D01*
X116548809Y-109478571D01*
X116453571Y-109526190D01*
X116072619Y-109526190D01*
X116834523Y-110097619D02*
X117596428Y-110097619D01*
X118310714Y-110002380D02*
X117834523Y-110002380D01*
X117834523Y-109002380D01*
X119167857Y-110002380D02*
X118596428Y-110002380D01*
X118882142Y-110002380D02*
X118882142Y-109002380D01*
X118786904Y-109145238D01*
X118691666Y-109240476D01*
X118596428Y-109288095D01*
X119739285Y-109907142D02*
X119786904Y-109954761D01*
X119739285Y-110002380D01*
X119691666Y-109954761D01*
X119739285Y-109907142D01*
X119739285Y-110002380D01*
X119548809Y-109050000D02*
X119644047Y-109002380D01*
X119882142Y-109002380D01*
X119977380Y-109050000D01*
X120025000Y-109145238D01*
X120025000Y-109240476D01*
X119977380Y-109335714D01*
X119929761Y-109383333D01*
X119834523Y-109430952D01*
X119786904Y-109478571D01*
X119739285Y-109573809D01*
X119739285Y-109621428D01*
X115923809Y-96652380D02*
X115590476Y-96176190D01*
X115352380Y-96652380D02*
X115352380Y-95652380D01*
X115733333Y-95652380D01*
X115828571Y-95700000D01*
X115876190Y-95747619D01*
X115923809Y-95842857D01*
X115923809Y-95985714D01*
X115876190Y-96080952D01*
X115828571Y-96128571D01*
X115733333Y-96176190D01*
X115352380Y-96176190D01*
X116114285Y-96747619D02*
X116876190Y-96747619D01*
X117114285Y-96652380D02*
X117114285Y-95652380D01*
X117495238Y-95652380D01*
X117590476Y-95700000D01*
X117638095Y-95747619D01*
X117685714Y-95842857D01*
X117685714Y-95985714D01*
X117638095Y-96080952D01*
X117590476Y-96128571D01*
X117495238Y-96176190D01*
X117114285Y-96176190D01*
X118638095Y-96652380D02*
X118066666Y-96652380D01*
X118352380Y-96652380D02*
X118352380Y-95652380D01*
X118257142Y-95795238D01*
X118161904Y-95890476D01*
X118066666Y-95938095D01*
X119209523Y-96557142D02*
X119257142Y-96604761D01*
X119209523Y-96652380D01*
X119161904Y-96604761D01*
X119209523Y-96557142D01*
X119209523Y-96652380D01*
X119019047Y-95700000D02*
X119114285Y-95652380D01*
X119352380Y-95652380D01*
X119447619Y-95700000D01*
X119495238Y-95795238D01*
X119495238Y-95890476D01*
X119447619Y-95985714D01*
X119400000Y-96033333D01*
X119304761Y-96080952D01*
X119257142Y-96128571D01*
X119209523Y-96223809D01*
X119209523Y-96271428D01*
X158757142Y-131680952D02*
X158804761Y-131728571D01*
X158852380Y-131871428D01*
X158852380Y-131966666D01*
X158804761Y-132109523D01*
X158709523Y-132204761D01*
X158614285Y-132252380D01*
X158423809Y-132300000D01*
X158280952Y-132300000D01*
X158090476Y-132252380D01*
X157995238Y-132204761D01*
X157900000Y-132109523D01*
X157852380Y-131966666D01*
X157852380Y-131871428D01*
X157900000Y-131728571D01*
X157947619Y-131680952D01*
X158947619Y-131490476D02*
X158947619Y-130728571D01*
X157852380Y-130633333D02*
X158852380Y-130300000D01*
X157852380Y-129966666D01*
X158852380Y-129633333D02*
X157852380Y-129633333D01*
X157852380Y-129395238D01*
X157900000Y-129252380D01*
X157995238Y-129157142D01*
X158090476Y-129109523D01*
X158280952Y-129061904D01*
X158423809Y-129061904D01*
X158614285Y-129109523D01*
X158709523Y-129157142D01*
X158804761Y-129252380D01*
X158852380Y-129395238D01*
X158852380Y-129633333D01*
X158852380Y-128633333D02*
X157852380Y-128633333D01*
X157852380Y-128395238D01*
X157900000Y-128252380D01*
X157995238Y-128157142D01*
X158090476Y-128109523D01*
X158280952Y-128061904D01*
X158423809Y-128061904D01*
X158614285Y-128109523D01*
X158709523Y-128157142D01*
X158804761Y-128252380D01*
X158852380Y-128395238D01*
X158852380Y-128633333D01*
X158947619Y-127871428D02*
X158947619Y-127109523D01*
X158852380Y-126871428D02*
X157852380Y-126871428D01*
X158566666Y-126538095D01*
X157852380Y-126204761D01*
X158852380Y-126204761D01*
X158804761Y-125776190D02*
X158852380Y-125633333D01*
X158852380Y-125395238D01*
X158804761Y-125300000D01*
X158757142Y-125252380D01*
X158661904Y-125204761D01*
X158566666Y-125204761D01*
X158471428Y-125252380D01*
X158423809Y-125300000D01*
X158376190Y-125395238D01*
X158328571Y-125585714D01*
X158280952Y-125680952D01*
X158233333Y-125728571D01*
X158138095Y-125776190D01*
X158042857Y-125776190D01*
X157947619Y-125728571D01*
X157900000Y-125680952D01*
X157852380Y-125585714D01*
X157852380Y-125347619D01*
X157900000Y-125204761D01*
X157900000Y-124252380D02*
X157852380Y-124347619D01*
X157852380Y-124490476D01*
X157900000Y-124633333D01*
X157995238Y-124728571D01*
X158090476Y-124776190D01*
X158280952Y-124823809D01*
X158423809Y-124823809D01*
X158614285Y-124776190D01*
X158709523Y-124728571D01*
X158804761Y-124633333D01*
X158852380Y-124490476D01*
X158852380Y-124395238D01*
X158804761Y-124252380D01*
X158757142Y-124204761D01*
X158423809Y-124204761D01*
X158423809Y-124395238D01*
X158328571Y-123776190D02*
X158328571Y-123442857D01*
X158852380Y-123300000D02*
X158852380Y-123776190D01*
X157852380Y-123776190D01*
X157852380Y-123300000D01*
X158947619Y-122204761D02*
X158900000Y-122300000D01*
X158804761Y-122395238D01*
X158661904Y-122538095D01*
X158614285Y-122633333D01*
X158614285Y-122728571D01*
X158852380Y-122680952D02*
X158804761Y-122776190D01*
X158709523Y-122871428D01*
X158519047Y-122919047D01*
X158185714Y-122919047D01*
X157995238Y-122871428D01*
X157900000Y-122776190D01*
X157852380Y-122680952D01*
X157852380Y-122490476D01*
X157900000Y-122395238D01*
X157995238Y-122300000D01*
X158185714Y-122252380D01*
X158519047Y-122252380D01*
X158709523Y-122300000D01*
X158804761Y-122395238D01*
X158852380Y-122490476D01*
X158852380Y-122680952D01*
X157852380Y-121919047D02*
X157852380Y-121252380D01*
X158852380Y-121680952D01*
X172385714Y-140357142D02*
X172338095Y-140404761D01*
X172195238Y-140452380D01*
X172100000Y-140452380D01*
X171957142Y-140404761D01*
X171861904Y-140309523D01*
X171814285Y-140214285D01*
X171766666Y-140023809D01*
X171766666Y-139880952D01*
X171814285Y-139690476D01*
X171861904Y-139595238D01*
X171957142Y-139500000D01*
X172100000Y-139452380D01*
X172195238Y-139452380D01*
X172338095Y-139500000D01*
X172385714Y-139547619D01*
X172576190Y-140547619D02*
X173338095Y-140547619D01*
X173576190Y-140452380D02*
X173576190Y-139452380D01*
X174052380Y-140452380D02*
X174052380Y-139452380D01*
X174623809Y-140452380D01*
X174623809Y-139452380D01*
X174861904Y-140547619D02*
X175623809Y-140547619D01*
X175861904Y-140452380D02*
X175861904Y-139452380D01*
X176195238Y-140166666D01*
X176528571Y-139452380D01*
X176528571Y-140452380D01*
X176957142Y-140404761D02*
X177100000Y-140452380D01*
X177338095Y-140452380D01*
X177433333Y-140404761D01*
X177480952Y-140357142D01*
X177528571Y-140261904D01*
X177528571Y-140166666D01*
X177480952Y-140071428D01*
X177433333Y-140023809D01*
X177338095Y-139976190D01*
X177147619Y-139928571D01*
X177052380Y-139880952D01*
X177004761Y-139833333D01*
X176957142Y-139738095D01*
X176957142Y-139642857D01*
X177004761Y-139547619D01*
X177052380Y-139500000D01*
X177147619Y-139452380D01*
X177385714Y-139452380D01*
X177528571Y-139500000D01*
X178480952Y-139500000D02*
X178385714Y-139452380D01*
X178242857Y-139452380D01*
X178100000Y-139500000D01*
X178004761Y-139595238D01*
X177957142Y-139690476D01*
X177909523Y-139880952D01*
X177909523Y-140023809D01*
X177957142Y-140214285D01*
X178004761Y-140309523D01*
X178100000Y-140404761D01*
X178242857Y-140452380D01*
X178338095Y-140452380D01*
X178480952Y-140404761D01*
X178528571Y-140357142D01*
X178528571Y-140023809D01*
X178338095Y-140023809D01*
X178957142Y-139928571D02*
X179290476Y-139928571D01*
X179433333Y-140452380D02*
X178957142Y-140452380D01*
X178957142Y-139452380D01*
X179433333Y-139452380D01*
X180528571Y-140547619D02*
X180433333Y-140500000D01*
X180338095Y-140404761D01*
X180195238Y-140261904D01*
X180100000Y-140214285D01*
X180004761Y-140214285D01*
X180052380Y-140452380D02*
X179957142Y-140404761D01*
X179861904Y-140309523D01*
X179814285Y-140119047D01*
X179814285Y-139785714D01*
X179861904Y-139595238D01*
X179957142Y-139500000D01*
X180052380Y-139452380D01*
X180242857Y-139452380D01*
X180338095Y-139500000D01*
X180433333Y-139595238D01*
X180480952Y-139785714D01*
X180480952Y-140119047D01*
X180433333Y-140309523D01*
X180338095Y-140404761D01*
X180242857Y-140452380D01*
X180052380Y-140452380D01*
X180814285Y-139452380D02*
X181480952Y-139452380D01*
X181052380Y-140452380D01*
X174223809Y-132357142D02*
X174176190Y-132404761D01*
X174033333Y-132452380D01*
X173938095Y-132452380D01*
X173795238Y-132404761D01*
X173700000Y-132309523D01*
X173652380Y-132214285D01*
X173604761Y-132023809D01*
X173604761Y-131880952D01*
X173652380Y-131690476D01*
X173700000Y-131595238D01*
X173795238Y-131500000D01*
X173938095Y-131452380D01*
X174033333Y-131452380D01*
X174176190Y-131500000D01*
X174223809Y-131547619D01*
X174414285Y-132547619D02*
X175176190Y-132547619D01*
X175938095Y-131500000D02*
X175842857Y-131452380D01*
X175700000Y-131452380D01*
X175557142Y-131500000D01*
X175461904Y-131595238D01*
X175414285Y-131690476D01*
X175366666Y-131880952D01*
X175366666Y-132023809D01*
X175414285Y-132214285D01*
X175461904Y-132309523D01*
X175557142Y-132404761D01*
X175700000Y-132452380D01*
X175795238Y-132452380D01*
X175938095Y-132404761D01*
X175985714Y-132357142D01*
X175985714Y-132023809D01*
X175795238Y-132023809D01*
X176414285Y-132452380D02*
X176414285Y-131452380D01*
X176985714Y-132452380D01*
X176985714Y-131452380D01*
X177461904Y-132452380D02*
X177461904Y-131452380D01*
X177700000Y-131452380D01*
X177842857Y-131500000D01*
X177938095Y-131595238D01*
X177985714Y-131690476D01*
X178033333Y-131880952D01*
X178033333Y-132023809D01*
X177985714Y-132214285D01*
X177938095Y-132309523D01*
X177842857Y-132404761D01*
X177700000Y-132452380D01*
X177461904Y-132452380D01*
X178223809Y-132547619D02*
X178985714Y-132547619D01*
X179223809Y-132452380D02*
X179223809Y-131452380D01*
X179557142Y-132166666D01*
X179890476Y-131452380D01*
X179890476Y-132452380D01*
X180319047Y-132404761D02*
X180461904Y-132452380D01*
X180700000Y-132452380D01*
X180795238Y-132404761D01*
X180842857Y-132357142D01*
X180890476Y-132261904D01*
X180890476Y-132166666D01*
X180842857Y-132071428D01*
X180795238Y-132023809D01*
X180700000Y-131976190D01*
X180509523Y-131928571D01*
X180414285Y-131880952D01*
X180366666Y-131833333D01*
X180319047Y-131738095D01*
X180319047Y-131642857D01*
X180366666Y-131547619D01*
X180414285Y-131500000D01*
X180509523Y-131452380D01*
X180747619Y-131452380D01*
X180890476Y-131500000D01*
X181842857Y-131500000D02*
X181747619Y-131452380D01*
X181604761Y-131452380D01*
X181461904Y-131500000D01*
X181366666Y-131595238D01*
X181319047Y-131690476D01*
X181271428Y-131880952D01*
X181271428Y-132023809D01*
X181319047Y-132214285D01*
X181366666Y-132309523D01*
X181461904Y-132404761D01*
X181604761Y-132452380D01*
X181700000Y-132452380D01*
X181842857Y-132404761D01*
X181890476Y-132357142D01*
X181890476Y-132023809D01*
X181700000Y-132023809D01*
X182319047Y-131928571D02*
X182652380Y-131928571D01*
X182795238Y-132452380D02*
X182319047Y-132452380D01*
X182319047Y-131452380D01*
X182795238Y-131452380D01*
X183890476Y-132547619D02*
X183795238Y-132500000D01*
X183700000Y-132404761D01*
X183557142Y-132261904D01*
X183461904Y-132214285D01*
X183366666Y-132214285D01*
X183414285Y-132452380D02*
X183319047Y-132404761D01*
X183223809Y-132309523D01*
X183176190Y-132119047D01*
X183176190Y-131785714D01*
X183223809Y-131595238D01*
X183319047Y-131500000D01*
X183414285Y-131452380D01*
X183604761Y-131452380D01*
X183700000Y-131500000D01*
X183795238Y-131595238D01*
X183842857Y-131785714D01*
X183842857Y-132119047D01*
X183795238Y-132309523D01*
X183700000Y-132404761D01*
X183604761Y-132452380D01*
X183414285Y-132452380D01*
X184176190Y-131452380D02*
X184842857Y-131452380D01*
X184414285Y-132452380D01*
X180185714Y-137557142D02*
X180138095Y-137604761D01*
X179995238Y-137652380D01*
X179900000Y-137652380D01*
X179757142Y-137604761D01*
X179661904Y-137509523D01*
X179614285Y-137414285D01*
X179566666Y-137223809D01*
X179566666Y-137080952D01*
X179614285Y-136890476D01*
X179661904Y-136795238D01*
X179757142Y-136700000D01*
X179900000Y-136652380D01*
X179995238Y-136652380D01*
X180138095Y-136700000D01*
X180185714Y-136747619D01*
X180376190Y-137747619D02*
X181138095Y-137747619D01*
X181947619Y-137557142D02*
X181900000Y-137604761D01*
X181757142Y-137652380D01*
X181661904Y-137652380D01*
X181519047Y-137604761D01*
X181423809Y-137509523D01*
X181376190Y-137414285D01*
X181328571Y-137223809D01*
X181328571Y-137080952D01*
X181376190Y-136890476D01*
X181423809Y-136795238D01*
X181519047Y-136700000D01*
X181661904Y-136652380D01*
X181757142Y-136652380D01*
X181900000Y-136700000D01*
X181947619Y-136747619D01*
X182376190Y-137652380D02*
X182376190Y-136652380D01*
X182947619Y-137652380D02*
X182519047Y-137080952D01*
X182947619Y-136652380D02*
X182376190Y-137223809D01*
X183376190Y-137652380D02*
X183376190Y-136652380D01*
X183852380Y-137652380D02*
X183852380Y-136652380D01*
X184423809Y-137652380D01*
X184423809Y-136652380D01*
X184661904Y-137747619D02*
X185423809Y-137747619D01*
X185661904Y-137652380D02*
X185661904Y-136652380D01*
X185995238Y-137366666D01*
X186328571Y-136652380D01*
X186328571Y-137652380D01*
X186757142Y-137604761D02*
X186900000Y-137652380D01*
X187138095Y-137652380D01*
X187233333Y-137604761D01*
X187280952Y-137557142D01*
X187328571Y-137461904D01*
X187328571Y-137366666D01*
X187280952Y-137271428D01*
X187233333Y-137223809D01*
X187138095Y-137176190D01*
X186947619Y-137128571D01*
X186852380Y-137080952D01*
X186804761Y-137033333D01*
X186757142Y-136938095D01*
X186757142Y-136842857D01*
X186804761Y-136747619D01*
X186852380Y-136700000D01*
X186947619Y-136652380D01*
X187185714Y-136652380D01*
X187328571Y-136700000D01*
X188280952Y-136700000D02*
X188185714Y-136652380D01*
X188042857Y-136652380D01*
X187900000Y-136700000D01*
X187804761Y-136795238D01*
X187757142Y-136890476D01*
X187709523Y-137080952D01*
X187709523Y-137223809D01*
X187757142Y-137414285D01*
X187804761Y-137509523D01*
X187900000Y-137604761D01*
X188042857Y-137652380D01*
X188138095Y-137652380D01*
X188280952Y-137604761D01*
X188328571Y-137557142D01*
X188328571Y-137223809D01*
X188138095Y-137223809D01*
X188757142Y-137128571D02*
X189090476Y-137128571D01*
X189233333Y-137652380D02*
X188757142Y-137652380D01*
X188757142Y-136652380D01*
X189233333Y-136652380D01*
X190328571Y-137747619D02*
X190233333Y-137700000D01*
X190138095Y-137604761D01*
X189995238Y-137461904D01*
X189900000Y-137414285D01*
X189804761Y-137414285D01*
X189852380Y-137652380D02*
X189757142Y-137604761D01*
X189661904Y-137509523D01*
X189614285Y-137319047D01*
X189614285Y-136985714D01*
X189661904Y-136795238D01*
X189757142Y-136700000D01*
X189852380Y-136652380D01*
X190042857Y-136652380D01*
X190138095Y-136700000D01*
X190233333Y-136795238D01*
X190280952Y-136985714D01*
X190280952Y-137319047D01*
X190233333Y-137509523D01*
X190138095Y-137604761D01*
X190042857Y-137652380D01*
X189852380Y-137652380D01*
X190614285Y-136652380D02*
X191280952Y-136652380D01*
X190852380Y-137652380D01*
X204357142Y-118433333D02*
X204404761Y-118480952D01*
X204452380Y-118623809D01*
X204452380Y-118719047D01*
X204404761Y-118861904D01*
X204309523Y-118957142D01*
X204214285Y-119004761D01*
X204023809Y-119052380D01*
X203880952Y-119052380D01*
X203690476Y-119004761D01*
X203595238Y-118957142D01*
X203500000Y-118861904D01*
X203452380Y-118719047D01*
X203452380Y-118623809D01*
X203500000Y-118480952D01*
X203547619Y-118433333D01*
X204547619Y-118242857D02*
X204547619Y-117480952D01*
X203928571Y-117242857D02*
X203928571Y-116909523D01*
X204452380Y-116766666D02*
X204452380Y-117242857D01*
X203452380Y-117242857D01*
X203452380Y-116766666D01*
X204452380Y-116338095D02*
X203452380Y-116338095D01*
X204452380Y-115766666D01*
X203452380Y-115766666D01*
X204357142Y-114719047D02*
X204404761Y-114766666D01*
X204452380Y-114909523D01*
X204452380Y-115004761D01*
X204404761Y-115147619D01*
X204309523Y-115242857D01*
X204214285Y-115290476D01*
X204023809Y-115338095D01*
X203880952Y-115338095D01*
X203690476Y-115290476D01*
X203595238Y-115242857D01*
X203500000Y-115147619D01*
X203452380Y-115004761D01*
X203452380Y-114909523D01*
X203500000Y-114766666D01*
X203547619Y-114719047D01*
X204547619Y-114528571D02*
X204547619Y-113766666D01*
X204166666Y-113576190D02*
X204166666Y-113100000D01*
X204452380Y-113671428D02*
X203452380Y-113338095D01*
X204452380Y-113004761D01*
X204452380Y-112147619D02*
X204452380Y-112719047D01*
X204452380Y-112433333D02*
X203452380Y-112433333D01*
X203595238Y-112528571D01*
X203690476Y-112623809D01*
X203738095Y-112719047D01*
X207557142Y-118504761D02*
X207604761Y-118552380D01*
X207652380Y-118695238D01*
X207652380Y-118790476D01*
X207604761Y-118933333D01*
X207509523Y-119028571D01*
X207414285Y-119076190D01*
X207223809Y-119123809D01*
X207080952Y-119123809D01*
X206890476Y-119076190D01*
X206795238Y-119028571D01*
X206700000Y-118933333D01*
X206652380Y-118790476D01*
X206652380Y-118695238D01*
X206700000Y-118552380D01*
X206747619Y-118504761D01*
X207747619Y-118314285D02*
X207747619Y-117552380D01*
X207128571Y-117314285D02*
X207128571Y-116980952D01*
X207652380Y-116838095D02*
X207652380Y-117314285D01*
X206652380Y-117314285D01*
X206652380Y-116838095D01*
X207652380Y-116409523D02*
X206652380Y-116409523D01*
X207652380Y-115838095D01*
X206652380Y-115838095D01*
X207557142Y-114790476D02*
X207604761Y-114838095D01*
X207652380Y-114980952D01*
X207652380Y-115076190D01*
X207604761Y-115219047D01*
X207509523Y-115314285D01*
X207414285Y-115361904D01*
X207223809Y-115409523D01*
X207080952Y-115409523D01*
X206890476Y-115361904D01*
X206795238Y-115314285D01*
X206700000Y-115219047D01*
X206652380Y-115076190D01*
X206652380Y-114980952D01*
X206700000Y-114838095D01*
X206747619Y-114790476D01*
X207747619Y-114600000D02*
X207747619Y-113838095D01*
X207128571Y-113266666D02*
X207176190Y-113123809D01*
X207223809Y-113076190D01*
X207319047Y-113028571D01*
X207461904Y-113028571D01*
X207557142Y-113076190D01*
X207604761Y-113123809D01*
X207652380Y-113219047D01*
X207652380Y-113600000D01*
X206652380Y-113600000D01*
X206652380Y-113266666D01*
X206700000Y-113171428D01*
X206747619Y-113123809D01*
X206842857Y-113076190D01*
X206938095Y-113076190D01*
X207033333Y-113123809D01*
X207080952Y-113171428D01*
X207128571Y-113266666D01*
X207128571Y-113600000D01*
X207652380Y-112076190D02*
X207652380Y-112647619D01*
X207652380Y-112361904D02*
X206652380Y-112361904D01*
X206795238Y-112457142D01*
X206890476Y-112552380D01*
X206938095Y-112647619D01*
X197852380Y-99190476D02*
X197376190Y-99523809D01*
X197852380Y-99761904D02*
X196852380Y-99761904D01*
X196852380Y-99380952D01*
X196900000Y-99285714D01*
X196947619Y-99238095D01*
X197042857Y-99190476D01*
X197185714Y-99190476D01*
X197280952Y-99238095D01*
X197328571Y-99285714D01*
X197376190Y-99380952D01*
X197376190Y-99761904D01*
X197947619Y-99000000D02*
X197947619Y-98238095D01*
X197852380Y-97523809D02*
X197852380Y-98000000D01*
X196852380Y-98000000D01*
X196852380Y-97285714D02*
X196852380Y-96666666D01*
X197233333Y-97000000D01*
X197233333Y-96857142D01*
X197280952Y-96761904D01*
X197328571Y-96714285D01*
X197423809Y-96666666D01*
X197661904Y-96666666D01*
X197757142Y-96714285D01*
X197804761Y-96761904D01*
X197852380Y-96857142D01*
X197852380Y-97142857D01*
X197804761Y-97238095D01*
X197757142Y-97285714D01*
X197947619Y-96476190D02*
X197947619Y-95714285D01*
X197852380Y-94952380D02*
X197852380Y-95523809D01*
X197852380Y-95238095D02*
X196852380Y-95238095D01*
X196995238Y-95333333D01*
X197090476Y-95428571D01*
X197138095Y-95523809D01*
X196947619Y-94571428D02*
X196900000Y-94523809D01*
X196852380Y-94428571D01*
X196852380Y-94190476D01*
X196900000Y-94095238D01*
X196947619Y-94047619D01*
X197042857Y-94000000D01*
X197138095Y-94000000D01*
X197280952Y-94047619D01*
X197852380Y-94619047D01*
X197852380Y-94000000D01*
X196852380Y-93714285D02*
X197852380Y-93380952D01*
X196852380Y-93047619D01*
X197852380Y-92190476D02*
X197852380Y-92761904D01*
X197852380Y-92476190D02*
X196852380Y-92476190D01*
X196995238Y-92571428D01*
X197090476Y-92666666D01*
X197138095Y-92761904D01*
X197852380Y-77966666D02*
X197376190Y-78300000D01*
X197852380Y-78538095D02*
X196852380Y-78538095D01*
X196852380Y-78157142D01*
X196900000Y-78061904D01*
X196947619Y-78014285D01*
X197042857Y-77966666D01*
X197185714Y-77966666D01*
X197280952Y-78014285D01*
X197328571Y-78061904D01*
X197376190Y-78157142D01*
X197376190Y-78538095D01*
X197852380Y-77490476D02*
X197852380Y-77300000D01*
X197804761Y-77204761D01*
X197757142Y-77157142D01*
X197614285Y-77061904D01*
X197423809Y-77014285D01*
X197042857Y-77014285D01*
X196947619Y-77061904D01*
X196900000Y-77109523D01*
X196852380Y-77204761D01*
X196852380Y-77395238D01*
X196900000Y-77490476D01*
X196947619Y-77538095D01*
X197042857Y-77585714D01*
X197280952Y-77585714D01*
X197376190Y-77538095D01*
X197423809Y-77490476D01*
X197471428Y-77395238D01*
X197471428Y-77204761D01*
X197423809Y-77109523D01*
X197376190Y-77061904D01*
X197280952Y-77014285D01*
X198052380Y-57990476D02*
X197576190Y-58323809D01*
X198052380Y-58561904D02*
X197052380Y-58561904D01*
X197052380Y-58180952D01*
X197100000Y-58085714D01*
X197147619Y-58038095D01*
X197242857Y-57990476D01*
X197385714Y-57990476D01*
X197480952Y-58038095D01*
X197528571Y-58085714D01*
X197576190Y-58180952D01*
X197576190Y-58561904D01*
X198147619Y-57800000D02*
X198147619Y-57038095D01*
X198052380Y-56323809D02*
X198052380Y-56800000D01*
X197052380Y-56800000D01*
X198052380Y-55466666D02*
X198052380Y-56038095D01*
X198052380Y-55752380D02*
X197052380Y-55752380D01*
X197195238Y-55847619D01*
X197290476Y-55942857D01*
X197338095Y-56038095D01*
X198147619Y-55276190D02*
X198147619Y-54514285D01*
X198052380Y-53752380D02*
X198052380Y-54323809D01*
X198052380Y-54038095D02*
X197052380Y-54038095D01*
X197195238Y-54133333D01*
X197290476Y-54228571D01*
X197338095Y-54323809D01*
X197147619Y-53371428D02*
X197100000Y-53323809D01*
X197052380Y-53228571D01*
X197052380Y-52990476D01*
X197100000Y-52895238D01*
X197147619Y-52847619D01*
X197242857Y-52800000D01*
X197338095Y-52800000D01*
X197480952Y-52847619D01*
X198052380Y-53419047D01*
X198052380Y-52800000D01*
X197052380Y-52514285D02*
X198052380Y-52180952D01*
X197052380Y-51847619D01*
X198052380Y-50990476D02*
X198052380Y-51561904D01*
X198052380Y-51276190D02*
X197052380Y-51276190D01*
X197195238Y-51371428D01*
X197290476Y-51466666D01*
X197338095Y-51561904D01*
X148633333Y-109957142D02*
X148585714Y-110004761D01*
X148442857Y-110052380D01*
X148347619Y-110052380D01*
X148204761Y-110004761D01*
X148109523Y-109909523D01*
X148061904Y-109814285D01*
X148014285Y-109623809D01*
X148014285Y-109480952D01*
X148061904Y-109290476D01*
X148109523Y-109195238D01*
X148204761Y-109100000D01*
X148347619Y-109052380D01*
X148442857Y-109052380D01*
X148585714Y-109100000D01*
X148633333Y-109147619D01*
X149490476Y-109385714D02*
X149490476Y-110052380D01*
X149252380Y-109004761D02*
X149014285Y-109719047D01*
X149633333Y-109719047D01*
X137833333Y-109757142D02*
X137785714Y-109804761D01*
X137642857Y-109852380D01*
X137547619Y-109852380D01*
X137404761Y-109804761D01*
X137309523Y-109709523D01*
X137261904Y-109614285D01*
X137214285Y-109423809D01*
X137214285Y-109280952D01*
X137261904Y-109090476D01*
X137309523Y-108995238D01*
X137404761Y-108900000D01*
X137547619Y-108852380D01*
X137642857Y-108852380D01*
X137785714Y-108900000D01*
X137833333Y-108947619D01*
X138214285Y-108947619D02*
X138261904Y-108900000D01*
X138357142Y-108852380D01*
X138595238Y-108852380D01*
X138690476Y-108900000D01*
X138738095Y-108947619D01*
X138785714Y-109042857D01*
X138785714Y-109138095D01*
X138738095Y-109280952D01*
X138166666Y-109852380D01*
X138785714Y-109852380D01*
X187182142Y-78746666D02*
X187229761Y-78794285D01*
X187277380Y-78937142D01*
X187277380Y-79032380D01*
X187229761Y-79175238D01*
X187134523Y-79270476D01*
X187039285Y-79318095D01*
X186848809Y-79365714D01*
X186705952Y-79365714D01*
X186515476Y-79318095D01*
X186420238Y-79270476D01*
X186325000Y-79175238D01*
X186277380Y-79032380D01*
X186277380Y-78937142D01*
X186325000Y-78794285D01*
X186372619Y-78746666D01*
X186277380Y-78127619D02*
X186277380Y-78032380D01*
X186325000Y-77937142D01*
X186372619Y-77889523D01*
X186467857Y-77841904D01*
X186658333Y-77794285D01*
X186896428Y-77794285D01*
X187086904Y-77841904D01*
X187182142Y-77889523D01*
X187229761Y-77937142D01*
X187277380Y-78032380D01*
X187277380Y-78127619D01*
X187229761Y-78222857D01*
X187182142Y-78270476D01*
X187086904Y-78318095D01*
X186896428Y-78365714D01*
X186658333Y-78365714D01*
X186467857Y-78318095D01*
X186372619Y-78270476D01*
X186325000Y-78222857D01*
X186277380Y-78127619D01*
X185916666Y-128904761D02*
X186059523Y-128952380D01*
X186297619Y-128952380D01*
X186392857Y-128904761D01*
X186440476Y-128857142D01*
X186488095Y-128761904D01*
X186488095Y-128666666D01*
X186440476Y-128571428D01*
X186392857Y-128523809D01*
X186297619Y-128476190D01*
X186107142Y-128428571D01*
X186011904Y-128380952D01*
X185964285Y-128333333D01*
X185916666Y-128238095D01*
X185916666Y-128142857D01*
X185964285Y-128047619D01*
X186011904Y-128000000D01*
X186107142Y-127952380D01*
X186345238Y-127952380D01*
X186488095Y-128000000D01*
X186821428Y-127952380D02*
X187059523Y-128952380D01*
X187250000Y-128238095D01*
X187440476Y-128952380D01*
X187678571Y-127952380D01*
X187964285Y-127952380D02*
X188583333Y-127952380D01*
X188250000Y-128333333D01*
X188392857Y-128333333D01*
X188488095Y-128380952D01*
X188535714Y-128428571D01*
X188583333Y-128523809D01*
X188583333Y-128761904D01*
X188535714Y-128857142D01*
X188488095Y-128904761D01*
X188392857Y-128952380D01*
X188107142Y-128952380D01*
X188011904Y-128904761D01*
X187964285Y-128857142D01*
X204366666Y-139940761D02*
X204509523Y-139988380D01*
X204747619Y-139988380D01*
X204842857Y-139940761D01*
X204890476Y-139893142D01*
X204938095Y-139797904D01*
X204938095Y-139702666D01*
X204890476Y-139607428D01*
X204842857Y-139559809D01*
X204747619Y-139512190D01*
X204557142Y-139464571D01*
X204461904Y-139416952D01*
X204414285Y-139369333D01*
X204366666Y-139274095D01*
X204366666Y-139178857D01*
X204414285Y-139083619D01*
X204461904Y-139036000D01*
X204557142Y-138988380D01*
X204795238Y-138988380D01*
X204938095Y-139036000D01*
X205271428Y-138988380D02*
X205509523Y-139988380D01*
X205700000Y-139274095D01*
X205890476Y-139988380D01*
X206128571Y-138988380D01*
X206461904Y-139083619D02*
X206509523Y-139036000D01*
X206604761Y-138988380D01*
X206842857Y-138988380D01*
X206938095Y-139036000D01*
X206985714Y-139083619D01*
X207033333Y-139178857D01*
X207033333Y-139274095D01*
X206985714Y-139416952D01*
X206414285Y-139988380D01*
X207033333Y-139988380D01*
X103466666Y-98252380D02*
X103466666Y-98966666D01*
X103419047Y-99109523D01*
X103323809Y-99204761D01*
X103180952Y-99252380D01*
X103085714Y-99252380D01*
X104466666Y-99252380D02*
X103895238Y-99252380D01*
X104180952Y-99252380D02*
X104180952Y-98252380D01*
X104085714Y-98395238D01*
X103990476Y-98490476D01*
X103895238Y-98538095D01*
X187182142Y-98431666D02*
X187229761Y-98479285D01*
X187277380Y-98622142D01*
X187277380Y-98717380D01*
X187229761Y-98860238D01*
X187134523Y-98955476D01*
X187039285Y-99003095D01*
X186848809Y-99050714D01*
X186705952Y-99050714D01*
X186515476Y-99003095D01*
X186420238Y-98955476D01*
X186325000Y-98860238D01*
X186277380Y-98717380D01*
X186277380Y-98622142D01*
X186325000Y-98479285D01*
X186372619Y-98431666D01*
X186277380Y-98098333D02*
X186277380Y-97479285D01*
X186658333Y-97812619D01*
X186658333Y-97669761D01*
X186705952Y-97574523D01*
X186753571Y-97526904D01*
X186848809Y-97479285D01*
X187086904Y-97479285D01*
X187182142Y-97526904D01*
X187229761Y-97574523D01*
X187277380Y-97669761D01*
X187277380Y-97955476D01*
X187229761Y-98050714D01*
X187182142Y-98098333D01*
X187182142Y-58426666D02*
X187229761Y-58474285D01*
X187277380Y-58617142D01*
X187277380Y-58712380D01*
X187229761Y-58855238D01*
X187134523Y-58950476D01*
X187039285Y-58998095D01*
X186848809Y-59045714D01*
X186705952Y-59045714D01*
X186515476Y-58998095D01*
X186420238Y-58950476D01*
X186325000Y-58855238D01*
X186277380Y-58712380D01*
X186277380Y-58617142D01*
X186325000Y-58474285D01*
X186372619Y-58426666D01*
X187277380Y-57474285D02*
X187277380Y-58045714D01*
X187277380Y-57760000D02*
X186277380Y-57760000D01*
X186420238Y-57855238D01*
X186515476Y-57950476D01*
X186563095Y-58045714D01*
X149052380Y-95961904D02*
X149861904Y-95961904D01*
X149957142Y-95914285D01*
X150004761Y-95866666D01*
X150052380Y-95771428D01*
X150052380Y-95580952D01*
X150004761Y-95485714D01*
X149957142Y-95438095D01*
X149861904Y-95390476D01*
X149052380Y-95390476D01*
X149147619Y-94961904D02*
X149100000Y-94914285D01*
X149052380Y-94819047D01*
X149052380Y-94580952D01*
X149100000Y-94485714D01*
X149147619Y-94438095D01*
X149242857Y-94390476D01*
X149338095Y-94390476D01*
X149480952Y-94438095D01*
X150052380Y-95009523D01*
X150052380Y-94390476D01*
X136352380Y-102163333D02*
X136352380Y-101972857D01*
X136400000Y-101877619D01*
X136495238Y-101782380D01*
X136685714Y-101734761D01*
X137019047Y-101734761D01*
X137209523Y-101782380D01*
X137304761Y-101877619D01*
X137352380Y-101972857D01*
X137352380Y-102163333D01*
X137304761Y-102258571D01*
X137209523Y-102353809D01*
X137019047Y-102401428D01*
X136685714Y-102401428D01*
X136495238Y-102353809D01*
X136400000Y-102258571D01*
X136352380Y-102163333D01*
X136685714Y-100877619D02*
X137352380Y-100877619D01*
X136685714Y-101306190D02*
X137209523Y-101306190D01*
X137304761Y-101258571D01*
X137352380Y-101163333D01*
X137352380Y-101020476D01*
X137304761Y-100925238D01*
X137257142Y-100877619D01*
X136685714Y-100544285D02*
X136685714Y-100163333D01*
X136352380Y-100401428D02*
X137209523Y-100401428D01*
X137304761Y-100353809D01*
X137352380Y-100258571D01*
X137352380Y-100163333D01*
X136971428Y-99068095D02*
X136971428Y-98306190D01*
X137352380Y-98687142D02*
X136590476Y-98687142D01*
X137352380Y-90352380D02*
X136352380Y-90352380D01*
X136685714Y-89876190D02*
X137352380Y-89876190D01*
X136780952Y-89876190D02*
X136733333Y-89828571D01*
X136685714Y-89733333D01*
X136685714Y-89590476D01*
X136733333Y-89495238D01*
X136828571Y-89447619D01*
X137352380Y-89447619D01*
X136971428Y-88209523D02*
X136971428Y-87447619D01*
X137352380Y-87828571D02*
X136590476Y-87828571D01*
X148401428Y-101980952D02*
X148401428Y-101219047D01*
X148782380Y-90352380D02*
X147782380Y-90352380D01*
X148115714Y-89876190D02*
X148782380Y-89876190D01*
X148210952Y-89876190D02*
X148163333Y-89828571D01*
X148115714Y-89733333D01*
X148115714Y-89590476D01*
X148163333Y-89495238D01*
X148258571Y-89447619D01*
X148782380Y-89447619D01*
X148401428Y-88209523D02*
X148401428Y-87447619D01*
X148528380Y-97916666D02*
X148528380Y-98488095D01*
X148528380Y-98202380D02*
X147528380Y-98202380D01*
X147671238Y-98297619D01*
X147766476Y-98392857D01*
X147814095Y-98488095D01*
X147623619Y-97535714D02*
X147576000Y-97488095D01*
X147528380Y-97392857D01*
X147528380Y-97154761D01*
X147576000Y-97059523D01*
X147623619Y-97011904D01*
X147718857Y-96964285D01*
X147814095Y-96964285D01*
X147956952Y-97011904D01*
X148528380Y-97583333D01*
X148528380Y-96964285D01*
X147861714Y-96630952D02*
X148528380Y-96392857D01*
X147861714Y-96154761D01*
X148147428Y-95773809D02*
X148147428Y-95011904D01*
X147861714Y-94535714D02*
X148147428Y-93773809D01*
X148433142Y-94535714D01*
X147528380Y-92821428D02*
X147528380Y-93297619D01*
X148004571Y-93345238D01*
X147956952Y-93297619D01*
X147909333Y-93202380D01*
X147909333Y-92964285D01*
X147956952Y-92869047D01*
X148004571Y-92821428D01*
X148099809Y-92773809D01*
X148337904Y-92773809D01*
X148433142Y-92821428D01*
X148480761Y-92869047D01*
X148528380Y-92964285D01*
X148528380Y-93202380D01*
X148480761Y-93297619D01*
X148433142Y-93345238D01*
X147861714Y-92440476D02*
X148528380Y-92202380D01*
X147861714Y-91964285D01*
X193798380Y-119706666D02*
X193322190Y-120040000D01*
X193798380Y-120278095D02*
X192798380Y-120278095D01*
X192798380Y-119897142D01*
X192846000Y-119801904D01*
X192893619Y-119754285D01*
X192988857Y-119706666D01*
X193131714Y-119706666D01*
X193226952Y-119754285D01*
X193274571Y-119801904D01*
X193322190Y-119897142D01*
X193322190Y-120278095D01*
X193893619Y-119516190D02*
X193893619Y-118754285D01*
X193798380Y-118040000D02*
X193798380Y-118516190D01*
X192798380Y-118516190D01*
X193750761Y-117754285D02*
X193798380Y-117611428D01*
X193798380Y-117373333D01*
X193750761Y-117278095D01*
X193703142Y-117230476D01*
X193607904Y-117182857D01*
X193512666Y-117182857D01*
X193417428Y-117230476D01*
X193369809Y-117278095D01*
X193322190Y-117373333D01*
X193274571Y-117563809D01*
X193226952Y-117659047D01*
X193179333Y-117706666D01*
X193084095Y-117754285D01*
X192988857Y-117754285D01*
X192893619Y-117706666D01*
X192846000Y-117659047D01*
X192798380Y-117563809D01*
X192798380Y-117325714D01*
X192846000Y-117182857D01*
X192798380Y-116849523D02*
X192798380Y-116230476D01*
X193179333Y-116563809D01*
X193179333Y-116420952D01*
X193226952Y-116325714D01*
X193274571Y-116278095D01*
X193369809Y-116230476D01*
X193607904Y-116230476D01*
X193703142Y-116278095D01*
X193750761Y-116325714D01*
X193798380Y-116420952D01*
X193798380Y-116706666D01*
X193750761Y-116801904D01*
X193703142Y-116849523D01*
X193893619Y-116040000D02*
X193893619Y-115278095D01*
X193798380Y-114516190D02*
X193798380Y-115087619D01*
X193798380Y-114801904D02*
X192798380Y-114801904D01*
X192941238Y-114897142D01*
X193036476Y-114992380D01*
X193084095Y-115087619D01*
X192893619Y-114135238D02*
X192846000Y-114087619D01*
X192798380Y-113992380D01*
X192798380Y-113754285D01*
X192846000Y-113659047D01*
X192893619Y-113611428D01*
X192988857Y-113563809D01*
X193084095Y-113563809D01*
X193226952Y-113611428D01*
X193798380Y-114182857D01*
X193798380Y-113563809D01*
X192798380Y-113278095D02*
X193798380Y-112944761D01*
X192798380Y-112611428D01*
X193798380Y-111754285D02*
X193798380Y-112325714D01*
X193798380Y-112040000D02*
X192798380Y-112040000D01*
X192941238Y-112135238D01*
X193036476Y-112230476D01*
X193084095Y-112325714D01*
X180082380Y-120214666D02*
X179606190Y-120548000D01*
X180082380Y-120786095D02*
X179082380Y-120786095D01*
X179082380Y-120405142D01*
X179130000Y-120309904D01*
X179177619Y-120262285D01*
X179272857Y-120214666D01*
X179415714Y-120214666D01*
X179510952Y-120262285D01*
X179558571Y-120309904D01*
X179606190Y-120405142D01*
X179606190Y-120786095D01*
X180177619Y-120024190D02*
X180177619Y-119262285D01*
X180082380Y-118548000D02*
X180082380Y-119024190D01*
X179082380Y-119024190D01*
X180034761Y-118262285D02*
X180082380Y-118119428D01*
X180082380Y-117881333D01*
X180034761Y-117786095D01*
X179987142Y-117738476D01*
X179891904Y-117690857D01*
X179796666Y-117690857D01*
X179701428Y-117738476D01*
X179653809Y-117786095D01*
X179606190Y-117881333D01*
X179558571Y-118071809D01*
X179510952Y-118167047D01*
X179463333Y-118214666D01*
X179368095Y-118262285D01*
X179272857Y-118262285D01*
X179177619Y-118214666D01*
X179130000Y-118167047D01*
X179082380Y-118071809D01*
X179082380Y-117833714D01*
X179130000Y-117690857D01*
X179177619Y-117309904D02*
X179130000Y-117262285D01*
X179082380Y-117167047D01*
X179082380Y-116928952D01*
X179130000Y-116833714D01*
X179177619Y-116786095D01*
X179272857Y-116738476D01*
X179368095Y-116738476D01*
X179510952Y-116786095D01*
X180082380Y-117357523D01*
X180082380Y-116738476D01*
X180177619Y-116548000D02*
X180177619Y-115786095D01*
X180082380Y-115024190D02*
X180082380Y-115595619D01*
X180082380Y-115309904D02*
X179082380Y-115309904D01*
X179225238Y-115405142D01*
X179320476Y-115500380D01*
X179368095Y-115595619D01*
X179177619Y-114643238D02*
X179130000Y-114595619D01*
X179082380Y-114500380D01*
X179082380Y-114262285D01*
X179130000Y-114167047D01*
X179177619Y-114119428D01*
X179272857Y-114071809D01*
X179368095Y-114071809D01*
X179510952Y-114119428D01*
X180082380Y-114690857D01*
X180082380Y-114071809D01*
X179082380Y-113786095D02*
X180082380Y-113452761D01*
X179082380Y-113119428D01*
X180082380Y-112262285D02*
X180082380Y-112833714D01*
X180082380Y-112548000D02*
X179082380Y-112548000D01*
X179225238Y-112643238D01*
X179320476Y-112738476D01*
X179368095Y-112833714D01*
X161277380Y-121865666D02*
X160801190Y-122199000D01*
X161277380Y-122437095D02*
X160277380Y-122437095D01*
X160277380Y-122056142D01*
X160325000Y-121960904D01*
X160372619Y-121913285D01*
X160467857Y-121865666D01*
X160610714Y-121865666D01*
X160705952Y-121913285D01*
X160753571Y-121960904D01*
X160801190Y-122056142D01*
X160801190Y-122437095D01*
X161372619Y-121675190D02*
X161372619Y-120913285D01*
X161277380Y-120199000D02*
X161277380Y-120675190D01*
X160277380Y-120675190D01*
X161229761Y-119913285D02*
X161277380Y-119770428D01*
X161277380Y-119532333D01*
X161229761Y-119437095D01*
X161182142Y-119389476D01*
X161086904Y-119341857D01*
X160991666Y-119341857D01*
X160896428Y-119389476D01*
X160848809Y-119437095D01*
X160801190Y-119532333D01*
X160753571Y-119722809D01*
X160705952Y-119818047D01*
X160658333Y-119865666D01*
X160563095Y-119913285D01*
X160467857Y-119913285D01*
X160372619Y-119865666D01*
X160325000Y-119818047D01*
X160277380Y-119722809D01*
X160277380Y-119484714D01*
X160325000Y-119341857D01*
X161277380Y-118389476D02*
X161277380Y-118960904D01*
X161277380Y-118675190D02*
X160277380Y-118675190D01*
X160420238Y-118770428D01*
X160515476Y-118865666D01*
X160563095Y-118960904D01*
X161372619Y-118199000D02*
X161372619Y-117437095D01*
X161277380Y-116675190D02*
X161277380Y-117246619D01*
X161277380Y-116960904D02*
X160277380Y-116960904D01*
X160420238Y-117056142D01*
X160515476Y-117151380D01*
X160563095Y-117246619D01*
X160372619Y-116294238D02*
X160325000Y-116246619D01*
X160277380Y-116151380D01*
X160277380Y-115913285D01*
X160325000Y-115818047D01*
X160372619Y-115770428D01*
X160467857Y-115722809D01*
X160563095Y-115722809D01*
X160705952Y-115770428D01*
X161277380Y-116341857D01*
X161277380Y-115722809D01*
X160277380Y-115437095D02*
X161277380Y-115103761D01*
X160277380Y-114770428D01*
X161277380Y-113913285D02*
X161277380Y-114484714D01*
X161277380Y-114199000D02*
X160277380Y-114199000D01*
X160420238Y-114294238D01*
X160515476Y-114389476D01*
X160563095Y-114484714D01*
X196209523Y-119414380D02*
X195876190Y-118938190D01*
X195638095Y-119414380D02*
X195638095Y-118414380D01*
X196019047Y-118414380D01*
X196114285Y-118462000D01*
X196161904Y-118509619D01*
X196209523Y-118604857D01*
X196209523Y-118747714D01*
X196161904Y-118842952D01*
X196114285Y-118890571D01*
X196019047Y-118938190D01*
X195638095Y-118938190D01*
X196400000Y-119509619D02*
X197161904Y-119509619D01*
X197876190Y-119414380D02*
X197400000Y-119414380D01*
X197400000Y-118414380D01*
X198161904Y-119366761D02*
X198304761Y-119414380D01*
X198542857Y-119414380D01*
X198638095Y-119366761D01*
X198685714Y-119319142D01*
X198733333Y-119223904D01*
X198733333Y-119128666D01*
X198685714Y-119033428D01*
X198638095Y-118985809D01*
X198542857Y-118938190D01*
X198352380Y-118890571D01*
X198257142Y-118842952D01*
X198209523Y-118795333D01*
X198161904Y-118700095D01*
X198161904Y-118604857D01*
X198209523Y-118509619D01*
X198257142Y-118462000D01*
X198352380Y-118414380D01*
X198590476Y-118414380D01*
X198733333Y-118462000D01*
X199066666Y-118414380D02*
X199685714Y-118414380D01*
X199352380Y-118795333D01*
X199495238Y-118795333D01*
X199590476Y-118842952D01*
X199638095Y-118890571D01*
X199685714Y-118985809D01*
X199685714Y-119223904D01*
X199638095Y-119319142D01*
X199590476Y-119366761D01*
X199495238Y-119414380D01*
X199209523Y-119414380D01*
X199114285Y-119366761D01*
X199066666Y-119319142D01*
X199876190Y-119509619D02*
X200638095Y-119509619D01*
X200780952Y-118414380D02*
X201400000Y-118414380D01*
X201066666Y-118795333D01*
X201209523Y-118795333D01*
X201304761Y-118842952D01*
X201352380Y-118890571D01*
X201400000Y-118985809D01*
X201400000Y-119223904D01*
X201352380Y-119319142D01*
X201304761Y-119366761D01*
X201209523Y-119414380D01*
X200923809Y-119414380D01*
X200828571Y-119366761D01*
X200780952Y-119319142D01*
X201685714Y-118414380D02*
X202019047Y-119414380D01*
X202352380Y-118414380D01*
X203209523Y-119414380D02*
X202638095Y-119414380D01*
X202923809Y-119414380D02*
X202923809Y-118414380D01*
X202828571Y-118557238D01*
X202733333Y-118652476D01*
X202638095Y-118700095D01*
X183677523Y-119414380D02*
X183344190Y-118938190D01*
X183106095Y-119414380D02*
X183106095Y-118414380D01*
X183487047Y-118414380D01*
X183582285Y-118462000D01*
X183629904Y-118509619D01*
X183677523Y-118604857D01*
X183677523Y-118747714D01*
X183629904Y-118842952D01*
X183582285Y-118890571D01*
X183487047Y-118938190D01*
X183106095Y-118938190D01*
X183868000Y-119509619D02*
X184629904Y-119509619D01*
X185344190Y-119414380D02*
X184868000Y-119414380D01*
X184868000Y-118414380D01*
X185629904Y-119366761D02*
X185772761Y-119414380D01*
X186010857Y-119414380D01*
X186106095Y-119366761D01*
X186153714Y-119319142D01*
X186201333Y-119223904D01*
X186201333Y-119128666D01*
X186153714Y-119033428D01*
X186106095Y-118985809D01*
X186010857Y-118938190D01*
X185820380Y-118890571D01*
X185725142Y-118842952D01*
X185677523Y-118795333D01*
X185629904Y-118700095D01*
X185629904Y-118604857D01*
X185677523Y-118509619D01*
X185725142Y-118462000D01*
X185820380Y-118414380D01*
X186058476Y-118414380D01*
X186201333Y-118462000D01*
X186582285Y-118509619D02*
X186629904Y-118462000D01*
X186725142Y-118414380D01*
X186963238Y-118414380D01*
X187058476Y-118462000D01*
X187106095Y-118509619D01*
X187153714Y-118604857D01*
X187153714Y-118700095D01*
X187106095Y-118842952D01*
X186534666Y-119414380D01*
X187153714Y-119414380D01*
X187344190Y-119509619D02*
X188106095Y-119509619D01*
X188248952Y-118414380D02*
X188868000Y-118414380D01*
X188534666Y-118795333D01*
X188677523Y-118795333D01*
X188772761Y-118842952D01*
X188820380Y-118890571D01*
X188868000Y-118985809D01*
X188868000Y-119223904D01*
X188820380Y-119319142D01*
X188772761Y-119366761D01*
X188677523Y-119414380D01*
X188391809Y-119414380D01*
X188296571Y-119366761D01*
X188248952Y-119319142D01*
X189153714Y-118414380D02*
X189487047Y-119414380D01*
X189820380Y-118414380D01*
X190677523Y-119414380D02*
X190106095Y-119414380D01*
X190391809Y-119414380D02*
X190391809Y-118414380D01*
X190296571Y-118557238D01*
X190201333Y-118652476D01*
X190106095Y-118700095D01*
X173652380Y-120590476D02*
X173176190Y-120923809D01*
X173652380Y-121161904D02*
X172652380Y-121161904D01*
X172652380Y-120780952D01*
X172700000Y-120685714D01*
X172747619Y-120638095D01*
X172842857Y-120590476D01*
X172985714Y-120590476D01*
X173080952Y-120638095D01*
X173128571Y-120685714D01*
X173176190Y-120780952D01*
X173176190Y-121161904D01*
X173747619Y-120400000D02*
X173747619Y-119638095D01*
X173652380Y-118923809D02*
X173652380Y-119400000D01*
X172652380Y-119400000D01*
X173604761Y-118638095D02*
X173652380Y-118495238D01*
X173652380Y-118257142D01*
X173604761Y-118161904D01*
X173557142Y-118114285D01*
X173461904Y-118066666D01*
X173366666Y-118066666D01*
X173271428Y-118114285D01*
X173223809Y-118161904D01*
X173176190Y-118257142D01*
X173128571Y-118447619D01*
X173080952Y-118542857D01*
X173033333Y-118590476D01*
X172938095Y-118638095D01*
X172842857Y-118638095D01*
X172747619Y-118590476D01*
X172700000Y-118542857D01*
X172652380Y-118447619D01*
X172652380Y-118209523D01*
X172700000Y-118066666D01*
X173652380Y-117114285D02*
X173652380Y-117685714D01*
X173652380Y-117400000D02*
X172652380Y-117400000D01*
X172795238Y-117495238D01*
X172890476Y-117590476D01*
X172938095Y-117685714D01*
X173747619Y-116923809D02*
X173747619Y-116161904D01*
X172652380Y-116019047D02*
X172652380Y-115400000D01*
X173033333Y-115733333D01*
X173033333Y-115590476D01*
X173080952Y-115495238D01*
X173128571Y-115447619D01*
X173223809Y-115400000D01*
X173461904Y-115400000D01*
X173557142Y-115447619D01*
X173604761Y-115495238D01*
X173652380Y-115590476D01*
X173652380Y-115876190D01*
X173604761Y-115971428D01*
X173557142Y-116019047D01*
X172652380Y-115114285D02*
X173652380Y-114780952D01*
X172652380Y-114447619D01*
X173652380Y-113590476D02*
X173652380Y-114161904D01*
X173652380Y-113876190D02*
X172652380Y-113876190D01*
X172795238Y-113971428D01*
X172890476Y-114066666D01*
X172938095Y-114161904D01*
X122902380Y-86991666D02*
X122426190Y-87325000D01*
X122902380Y-87563095D02*
X121902380Y-87563095D01*
X121902380Y-87182142D01*
X121950000Y-87086904D01*
X121997619Y-87039285D01*
X122092857Y-86991666D01*
X122235714Y-86991666D01*
X122330952Y-87039285D01*
X122378571Y-87086904D01*
X122426190Y-87182142D01*
X122426190Y-87563095D01*
X122902380Y-86039285D02*
X122902380Y-86610714D01*
X122902380Y-86325000D02*
X121902380Y-86325000D01*
X122045238Y-86420238D01*
X122140476Y-86515476D01*
X122188095Y-86610714D01*
X199139619Y-116135238D02*
X199092000Y-116230476D01*
X198996761Y-116325714D01*
X198853904Y-116468571D01*
X198806285Y-116563809D01*
X198806285Y-116659047D01*
X199044380Y-116611428D02*
X198996761Y-116706666D01*
X198901523Y-116801904D01*
X198711047Y-116849523D01*
X198377714Y-116849523D01*
X198187238Y-116801904D01*
X198092000Y-116706666D01*
X198044380Y-116611428D01*
X198044380Y-116420952D01*
X198092000Y-116325714D01*
X198187238Y-116230476D01*
X198377714Y-116182857D01*
X198711047Y-116182857D01*
X198901523Y-116230476D01*
X198996761Y-116325714D01*
X199044380Y-116420952D01*
X199044380Y-116611428D01*
X198377714Y-115325714D02*
X199044380Y-115325714D01*
X197996761Y-115563809D02*
X198711047Y-115801904D01*
X198711047Y-115182857D01*
X184915619Y-116135238D02*
X184868000Y-116230476D01*
X184772761Y-116325714D01*
X184629904Y-116468571D01*
X184582285Y-116563809D01*
X184582285Y-116659047D01*
X184820380Y-116611428D02*
X184772761Y-116706666D01*
X184677523Y-116801904D01*
X184487047Y-116849523D01*
X184153714Y-116849523D01*
X183963238Y-116801904D01*
X183868000Y-116706666D01*
X183820380Y-116611428D01*
X183820380Y-116420952D01*
X183868000Y-116325714D01*
X183963238Y-116230476D01*
X184153714Y-116182857D01*
X184487047Y-116182857D01*
X184677523Y-116230476D01*
X184772761Y-116325714D01*
X184820380Y-116420952D01*
X184820380Y-116611428D01*
X183820380Y-115849523D02*
X183820380Y-115230476D01*
X184201333Y-115563809D01*
X184201333Y-115420952D01*
X184248952Y-115325714D01*
X184296571Y-115278095D01*
X184391809Y-115230476D01*
X184629904Y-115230476D01*
X184725142Y-115278095D01*
X184772761Y-115325714D01*
X184820380Y-115420952D01*
X184820380Y-115706666D01*
X184772761Y-115801904D01*
X184725142Y-115849523D01*
X167214761Y-120611619D02*
X167119523Y-120564000D01*
X167024285Y-120468761D01*
X166881428Y-120325904D01*
X166786190Y-120278285D01*
X166690952Y-120278285D01*
X166738571Y-120516380D02*
X166643333Y-120468761D01*
X166548095Y-120373523D01*
X166500476Y-120183047D01*
X166500476Y-119849714D01*
X166548095Y-119659238D01*
X166643333Y-119564000D01*
X166738571Y-119516380D01*
X166929047Y-119516380D01*
X167024285Y-119564000D01*
X167119523Y-119659238D01*
X167167142Y-119849714D01*
X167167142Y-120183047D01*
X167119523Y-120373523D01*
X167024285Y-120468761D01*
X166929047Y-120516380D01*
X166738571Y-120516380D01*
X167548095Y-119611619D02*
X167595714Y-119564000D01*
X167690952Y-119516380D01*
X167929047Y-119516380D01*
X168024285Y-119564000D01*
X168071904Y-119611619D01*
X168119523Y-119706857D01*
X168119523Y-119802095D01*
X168071904Y-119944952D01*
X167500476Y-120516380D01*
X168119523Y-120516380D01*
X123047619Y-80295238D02*
X123000000Y-80390476D01*
X122904761Y-80485714D01*
X122761904Y-80628571D01*
X122714285Y-80723809D01*
X122714285Y-80819047D01*
X122952380Y-80771428D02*
X122904761Y-80866666D01*
X122809523Y-80961904D01*
X122619047Y-81009523D01*
X122285714Y-81009523D01*
X122095238Y-80961904D01*
X122000000Y-80866666D01*
X121952380Y-80771428D01*
X121952380Y-80580952D01*
X122000000Y-80485714D01*
X122095238Y-80390476D01*
X122285714Y-80342857D01*
X122619047Y-80342857D01*
X122809523Y-80390476D01*
X122904761Y-80485714D01*
X122952380Y-80580952D01*
X122952380Y-80771428D01*
X122952380Y-79390476D02*
X122952380Y-79961904D01*
X122952380Y-79676190D02*
X121952380Y-79676190D01*
X122095238Y-79771428D01*
X122190476Y-79866666D01*
X122238095Y-79961904D01*
D15*
X124766486Y-73233443D02*
X124766486Y-71833199D01*
X125566626Y-73233443D02*
X124966521Y-72433304D01*
X125566626Y-71833199D02*
X124766486Y-72633339D01*
X126900191Y-73233443D02*
X126100052Y-73233443D01*
X126500122Y-73233443D02*
X126500122Y-71833199D01*
X126366765Y-72033234D01*
X126233408Y-72166591D01*
X126100052Y-72233269D01*
D11*
X199252380Y-108761904D02*
X199966666Y-108761904D01*
X200109523Y-108809523D01*
X200204761Y-108904761D01*
X200252380Y-109047619D01*
X200252380Y-109142857D01*
X199252380Y-108095238D02*
X199252380Y-107904761D01*
X199300000Y-107809523D01*
X199395238Y-107714285D01*
X199585714Y-107666666D01*
X199919047Y-107666666D01*
X200109523Y-107714285D01*
X200204761Y-107809523D01*
X200252380Y-107904761D01*
X200252380Y-108095238D01*
X200204761Y-108190476D01*
X200109523Y-108285714D01*
X199919047Y-108333333D01*
X199585714Y-108333333D01*
X199395238Y-108285714D01*
X199300000Y-108190476D01*
X199252380Y-108095238D01*
X199252380Y-107238095D02*
X200061904Y-107238095D01*
X200157142Y-107190476D01*
X200204761Y-107142857D01*
X200252380Y-107047619D01*
X200252380Y-106857142D01*
X200204761Y-106761904D01*
X200157142Y-106714285D01*
X200061904Y-106666666D01*
X199252380Y-106666666D01*
X199252380Y-106333333D02*
X199252380Y-105761904D01*
X200252380Y-106047619D02*
X199252380Y-106047619D01*
X199252380Y-105523809D02*
X199252380Y-104904761D01*
X199633333Y-105238095D01*
X199633333Y-105095238D01*
X199680952Y-105000000D01*
X199728571Y-104952380D01*
X199823809Y-104904761D01*
X200061904Y-104904761D01*
X200157142Y-104952380D01*
X200204761Y-105000000D01*
X200252380Y-105095238D01*
X200252380Y-105380952D01*
X200204761Y-105476190D01*
X200157142Y-105523809D01*
X198652380Y-89161904D02*
X199366666Y-89161904D01*
X199509523Y-89209523D01*
X199604761Y-89304761D01*
X199652380Y-89447619D01*
X199652380Y-89542857D01*
X198652380Y-88495238D02*
X198652380Y-88304761D01*
X198700000Y-88209523D01*
X198795238Y-88114285D01*
X198985714Y-88066666D01*
X199319047Y-88066666D01*
X199509523Y-88114285D01*
X199604761Y-88209523D01*
X199652380Y-88304761D01*
X199652380Y-88495238D01*
X199604761Y-88590476D01*
X199509523Y-88685714D01*
X199319047Y-88733333D01*
X198985714Y-88733333D01*
X198795238Y-88685714D01*
X198700000Y-88590476D01*
X198652380Y-88495238D01*
X198652380Y-87638095D02*
X199461904Y-87638095D01*
X199557142Y-87590476D01*
X199604761Y-87542857D01*
X199652380Y-87447619D01*
X199652380Y-87257142D01*
X199604761Y-87161904D01*
X199557142Y-87114285D01*
X199461904Y-87066666D01*
X198652380Y-87066666D01*
X198652380Y-86733333D02*
X198652380Y-86161904D01*
X199652380Y-86447619D02*
X198652380Y-86447619D01*
X198747619Y-85876190D02*
X198700000Y-85828571D01*
X198652380Y-85733333D01*
X198652380Y-85495238D01*
X198700000Y-85400000D01*
X198747619Y-85352380D01*
X198842857Y-85304761D01*
X198938095Y-85304761D01*
X199080952Y-85352380D01*
X199652380Y-85923809D01*
X199652380Y-85304761D01*
X199252380Y-66361904D02*
X199966666Y-66361904D01*
X200109523Y-66409523D01*
X200204761Y-66504761D01*
X200252380Y-66647619D01*
X200252380Y-66742857D01*
X199252380Y-65695238D02*
X199252380Y-65504761D01*
X199300000Y-65409523D01*
X199395238Y-65314285D01*
X199585714Y-65266666D01*
X199919047Y-65266666D01*
X200109523Y-65314285D01*
X200204761Y-65409523D01*
X200252380Y-65504761D01*
X200252380Y-65695238D01*
X200204761Y-65790476D01*
X200109523Y-65885714D01*
X199919047Y-65933333D01*
X199585714Y-65933333D01*
X199395238Y-65885714D01*
X199300000Y-65790476D01*
X199252380Y-65695238D01*
X199252380Y-64838095D02*
X200061904Y-64838095D01*
X200157142Y-64790476D01*
X200204761Y-64742857D01*
X200252380Y-64647619D01*
X200252380Y-64457142D01*
X200204761Y-64361904D01*
X200157142Y-64314285D01*
X200061904Y-64266666D01*
X199252380Y-64266666D01*
X199252380Y-63933333D02*
X199252380Y-63361904D01*
X200252380Y-63647619D02*
X199252380Y-63647619D01*
X200252380Y-62504761D02*
X200252380Y-63076190D01*
X200252380Y-62790476D02*
X199252380Y-62790476D01*
X199395238Y-62885714D01*
X199490476Y-62980952D01*
X199538095Y-63076190D01*
M02*
