G04 #@! TF.GenerationSoftware,KiCad,Pcbnew,5.1.9+dfsg1-1*
G04 #@! TF.CreationDate,2021-03-13T21:56:33+01:00*
G04 #@! TF.ProjectId,ledStripDriver,6c656453-7472-4697-9044-72697665722e,rev?*
G04 #@! TF.SameCoordinates,Original*
G04 #@! TF.FileFunction,Soldermask,Bot*
G04 #@! TF.FilePolarity,Negative*
%FSLAX46Y46*%
G04 Gerber Fmt 4.6, Leading zero omitted, Abs format (unit mm)*
G04 Created by KiCad (PCBNEW 5.1.9+dfsg1-1) date 2021-03-13 21:56:33*
%MOMM*%
%LPD*%
G01*
G04 APERTURE LIST*
%ADD10C,1.662000*%
%ADD11C,1.626000*%
%ADD12C,3.602000*%
%ADD13C,3.102000*%
%ADD14O,1.702000X1.702000*%
%ADD15C,1.702000*%
%ADD16C,2.102000*%
%ADD17C,2.052000*%
%ADD18C,2.602000*%
%ADD19C,0.100000*%
G04 APERTURE END LIST*
D10*
X101980000Y-137630000D03*
X104520000Y-137630000D03*
X107060000Y-137630000D03*
X109600000Y-137630000D03*
X112140000Y-137630000D03*
X114680000Y-137630000D03*
X117220000Y-137630000D03*
X119760000Y-137630000D03*
X122300000Y-137630000D03*
X124840000Y-137630000D03*
X127380000Y-137630000D03*
X129920000Y-137630000D03*
X132460000Y-137630000D03*
X135000000Y-137630000D03*
X137540000Y-137630000D03*
X140080000Y-137630000D03*
X142620000Y-137630000D03*
X145160000Y-137630000D03*
X147700000Y-137630000D03*
X104520000Y-112230000D03*
X107060000Y-112230000D03*
X109600000Y-112230000D03*
X112140000Y-112230000D03*
X114680000Y-112230000D03*
X117220000Y-112230000D03*
X119760000Y-112230000D03*
X122300000Y-112230000D03*
X124840000Y-112230000D03*
X127380000Y-112230000D03*
X129920000Y-112230000D03*
X132460000Y-112230000D03*
X135000000Y-112230000D03*
X137540000Y-112230000D03*
X140080000Y-112230000D03*
X142620000Y-112230000D03*
X101980000Y-112230000D03*
X145160000Y-112230000D03*
G36*
G01*
X146920000Y-111399000D02*
X148480000Y-111399000D01*
G75*
G02*
X148531000Y-111450000I0J-51000D01*
G01*
X148531000Y-113010000D01*
G75*
G02*
X148480000Y-113061000I-51000J0D01*
G01*
X146920000Y-113061000D01*
G75*
G02*
X146869000Y-113010000I0J51000D01*
G01*
X146869000Y-111450000D01*
G75*
G02*
X146920000Y-111399000I51000J0D01*
G01*
G37*
D11*
X114400000Y-91000000D03*
X114400000Y-88500000D03*
X114400000Y-86500000D03*
G36*
G01*
X113638000Y-83187000D02*
X115162000Y-83187000D01*
G75*
G02*
X115213000Y-83238000I0J-51000D01*
G01*
X115213000Y-84762000D01*
G75*
G02*
X115162000Y-84813000I-51000J0D01*
G01*
X113638000Y-84813000D01*
G75*
G02*
X113587000Y-84762000I0J51000D01*
G01*
X113587000Y-83238000D01*
G75*
G02*
X113638000Y-83187000I51000J0D01*
G01*
G37*
D12*
X111690000Y-80930000D03*
X111690000Y-94070000D03*
G36*
G01*
X133050000Y-60951000D02*
X130550000Y-60951000D01*
G75*
G02*
X130499000Y-60900000I0J51000D01*
G01*
X130499000Y-53900000D01*
G75*
G02*
X130550000Y-53849000I51000J0D01*
G01*
X133050000Y-53849000D01*
G75*
G02*
X133101000Y-53900000I0J-51000D01*
G01*
X133101000Y-60900000D01*
G75*
G02*
X133050000Y-60951000I-51000J0D01*
G01*
G37*
G36*
G01*
X126050000Y-60951000D02*
X123550000Y-60951000D01*
G75*
G02*
X123499000Y-60900000I0J51000D01*
G01*
X123499000Y-53900000D01*
G75*
G02*
X123550000Y-53849000I51000J0D01*
G01*
X126050000Y-53849000D01*
G75*
G02*
X126101000Y-53900000I0J-51000D01*
G01*
X126101000Y-60900000D01*
G75*
G02*
X126050000Y-60951000I-51000J0D01*
G01*
G37*
D13*
X154075000Y-101300000D03*
X176675000Y-101300000D03*
X153440000Y-79710000D03*
X176040000Y-79710000D03*
X153440000Y-58120000D03*
X176040000Y-58120000D03*
X104500000Y-66500000D03*
G36*
G01*
X103000000Y-54949000D02*
X106000000Y-54949000D01*
G75*
G02*
X106051000Y-55000000I0J-51000D01*
G01*
X106051000Y-58000000D01*
G75*
G02*
X106000000Y-58051000I-51000J0D01*
G01*
X103000000Y-58051000D01*
G75*
G02*
X102949000Y-58000000I0J51000D01*
G01*
X102949000Y-55000000D01*
G75*
G02*
X103000000Y-54949000I51000J0D01*
G01*
G37*
D14*
X172320000Y-130000000D03*
X164700000Y-137620000D03*
X172320000Y-132540000D03*
X164700000Y-135080000D03*
X172320000Y-135080000D03*
X164700000Y-132540000D03*
X172320000Y-137620000D03*
G36*
G01*
X163849000Y-130800000D02*
X163849000Y-129200000D01*
G75*
G02*
X163900000Y-129149000I51000J0D01*
G01*
X165500000Y-129149000D01*
G75*
G02*
X165551000Y-129200000I0J-51000D01*
G01*
X165551000Y-130800000D01*
G75*
G02*
X165500000Y-130851000I-51000J0D01*
G01*
X163900000Y-130851000D01*
G75*
G02*
X163849000Y-130800000I0J51000D01*
G01*
G37*
D15*
X192075000Y-76680000D03*
G36*
G01*
X192875000Y-81331000D02*
X191275000Y-81331000D01*
G75*
G02*
X191224000Y-81280000I0J51000D01*
G01*
X191224000Y-79680000D01*
G75*
G02*
X191275000Y-79629000I51000J0D01*
G01*
X192875000Y-79629000D01*
G75*
G02*
X192926000Y-79680000I0J-51000D01*
G01*
X192926000Y-81280000D01*
G75*
G02*
X192875000Y-81331000I-51000J0D01*
G01*
G37*
D16*
X190500000Y-130500000D03*
X190500000Y-135000000D03*
X184000000Y-130500000D03*
X184000000Y-135000000D03*
G36*
G01*
X209551000Y-133836000D02*
X209551000Y-135836000D01*
G75*
G02*
X209500000Y-135887000I-51000J0D01*
G01*
X207500000Y-135887000D01*
G75*
G02*
X207449000Y-135836000I0J51000D01*
G01*
X207449000Y-133836000D01*
G75*
G02*
X207500000Y-133785000I51000J0D01*
G01*
X209500000Y-133785000D01*
G75*
G02*
X209551000Y-133836000I0J-51000D01*
G01*
G37*
X208500000Y-132336000D03*
X208500000Y-129836000D03*
G36*
G01*
X202551000Y-136686000D02*
X202551000Y-139186000D01*
G75*
G02*
X202500000Y-139237000I-51000J0D01*
G01*
X199500000Y-139237000D01*
G75*
G02*
X199449000Y-139186000I0J51000D01*
G01*
X199449000Y-136686000D01*
G75*
G02*
X199500000Y-136635000I51000J0D01*
G01*
X202500000Y-136635000D01*
G75*
G02*
X202551000Y-136686000I0J-51000D01*
G01*
G37*
G36*
G01*
X202551000Y-125486000D02*
X202551000Y-127986000D01*
G75*
G02*
X202500000Y-128037000I-51000J0D01*
G01*
X199500000Y-128037000D01*
G75*
G02*
X199449000Y-127986000I0J51000D01*
G01*
X199449000Y-125486000D01*
G75*
G02*
X199500000Y-125435000I51000J0D01*
G01*
X202500000Y-125435000D01*
G75*
G02*
X202551000Y-125486000I0J-51000D01*
G01*
G37*
X194000000Y-134836000D03*
X194000000Y-129836000D03*
G36*
G01*
X109299000Y-98600000D02*
X109299000Y-97200000D01*
G75*
G02*
X109350000Y-97149000I51000J0D01*
G01*
X111450000Y-97149000D01*
G75*
G02*
X111501000Y-97200000I0J-51000D01*
G01*
X111501000Y-98600000D01*
G75*
G02*
X111450000Y-98651000I-51000J0D01*
G01*
X109350000Y-98651000D01*
G75*
G02*
X109299000Y-98600000I0J51000D01*
G01*
G37*
G36*
G01*
X105799000Y-108600000D02*
X105799000Y-107200000D01*
G75*
G02*
X105850000Y-107149000I51000J0D01*
G01*
X107950000Y-107149000D01*
G75*
G02*
X108001000Y-107200000I0J-51000D01*
G01*
X108001000Y-108600000D01*
G75*
G02*
X107950000Y-108651000I-51000J0D01*
G01*
X105850000Y-108651000D01*
G75*
G02*
X105799000Y-108600000I0J51000D01*
G01*
G37*
G36*
G01*
X114700000Y-108601000D02*
X112900000Y-108601000D01*
G75*
G02*
X112849000Y-108550000I0J51000D01*
G01*
X112849000Y-106250000D01*
G75*
G02*
X112900000Y-106199000I51000J0D01*
G01*
X114700000Y-106199000D01*
G75*
G02*
X114751000Y-106250000I0J-51000D01*
G01*
X114751000Y-108550000D01*
G75*
G02*
X114700000Y-108601000I-51000J0D01*
G01*
G37*
G36*
G01*
X110601000Y-99600000D02*
X110601000Y-101400000D01*
G75*
G02*
X110550000Y-101451000I-51000J0D01*
G01*
X108250000Y-101451000D01*
G75*
G02*
X108199000Y-101400000I0J51000D01*
G01*
X108199000Y-99600000D01*
G75*
G02*
X108250000Y-99549000I51000J0D01*
G01*
X110550000Y-99549000D01*
G75*
G02*
X110601000Y-99600000I0J-51000D01*
G01*
G37*
G36*
G01*
X101600000Y-101899000D02*
X103400000Y-101899000D01*
G75*
G02*
X103451000Y-101950000I0J-51000D01*
G01*
X103451000Y-104250000D01*
G75*
G02*
X103400000Y-104301000I-51000J0D01*
G01*
X101600000Y-104301000D01*
G75*
G02*
X101549000Y-104250000I0J51000D01*
G01*
X101549000Y-101950000D01*
G75*
G02*
X101600000Y-101899000I51000J0D01*
G01*
G37*
D15*
X192075000Y-96365000D03*
G36*
G01*
X192875000Y-101016000D02*
X191275000Y-101016000D01*
G75*
G02*
X191224000Y-100965000I0J51000D01*
G01*
X191224000Y-99365000D01*
G75*
G02*
X191275000Y-99314000I51000J0D01*
G01*
X192875000Y-99314000D01*
G75*
G02*
X192926000Y-99365000I0J-51000D01*
G01*
X192926000Y-100965000D01*
G75*
G02*
X192875000Y-101016000I-51000J0D01*
G01*
G37*
X192075000Y-56360000D03*
G36*
G01*
X192875000Y-61011000D02*
X191275000Y-61011000D01*
G75*
G02*
X191224000Y-60960000I0J51000D01*
G01*
X191224000Y-59360000D01*
G75*
G02*
X191275000Y-59309000I51000J0D01*
G01*
X192875000Y-59309000D01*
G75*
G02*
X192926000Y-59360000I0J-51000D01*
G01*
X192926000Y-60960000D01*
G75*
G02*
X192875000Y-61011000I-51000J0D01*
G01*
G37*
G36*
G01*
X137500000Y-83299000D02*
X139800000Y-83299000D01*
G75*
G02*
X139851000Y-83350000I0J-51000D01*
G01*
X139851000Y-86550000D01*
G75*
G02*
X139800000Y-86601000I-51000J0D01*
G01*
X137500000Y-86601000D01*
G75*
G02*
X137449000Y-86550000I0J51000D01*
G01*
X137449000Y-83350000D01*
G75*
G02*
X137500000Y-83299000I51000J0D01*
G01*
G37*
G36*
G01*
X134960000Y-83299000D02*
X137260000Y-83299000D01*
G75*
G02*
X137311000Y-83350000I0J-51000D01*
G01*
X137311000Y-86550000D01*
G75*
G02*
X137260000Y-86601000I-51000J0D01*
G01*
X134960000Y-86601000D01*
G75*
G02*
X134909000Y-86550000I0J51000D01*
G01*
X134909000Y-83350000D01*
G75*
G02*
X134960000Y-83299000I51000J0D01*
G01*
G37*
G36*
G01*
X149240000Y-103899000D02*
X151540000Y-103899000D01*
G75*
G02*
X151591000Y-103950000I0J-51000D01*
G01*
X151591000Y-107150000D01*
G75*
G02*
X151540000Y-107201000I-51000J0D01*
G01*
X149240000Y-107201000D01*
G75*
G02*
X149189000Y-107150000I0J51000D01*
G01*
X149189000Y-103950000D01*
G75*
G02*
X149240000Y-103899000I51000J0D01*
G01*
G37*
G36*
G01*
X146700000Y-83299000D02*
X149000000Y-83299000D01*
G75*
G02*
X149051000Y-83350000I0J-51000D01*
G01*
X149051000Y-86550000D01*
G75*
G02*
X149000000Y-86601000I-51000J0D01*
G01*
X146700000Y-86601000D01*
G75*
G02*
X146649000Y-86550000I0J51000D01*
G01*
X146649000Y-83350000D01*
G75*
G02*
X146700000Y-83299000I51000J0D01*
G01*
G37*
G36*
G01*
X134960000Y-103899000D02*
X137260000Y-103899000D01*
G75*
G02*
X137311000Y-103950000I0J-51000D01*
G01*
X137311000Y-107150000D01*
G75*
G02*
X137260000Y-107201000I-51000J0D01*
G01*
X134960000Y-107201000D01*
G75*
G02*
X134909000Y-107150000I0J51000D01*
G01*
X134909000Y-103950000D01*
G75*
G02*
X134960000Y-103899000I51000J0D01*
G01*
G37*
G36*
G01*
X137500000Y-103899000D02*
X139800000Y-103899000D01*
G75*
G02*
X139851000Y-103950000I0J-51000D01*
G01*
X139851000Y-107150000D01*
G75*
G02*
X139800000Y-107201000I-51000J0D01*
G01*
X137500000Y-107201000D01*
G75*
G02*
X137449000Y-107150000I0J51000D01*
G01*
X137449000Y-103950000D01*
G75*
G02*
X137500000Y-103899000I51000J0D01*
G01*
G37*
G36*
G01*
X149240000Y-83299000D02*
X151540000Y-83299000D01*
G75*
G02*
X151591000Y-83350000I0J-51000D01*
G01*
X151591000Y-86550000D01*
G75*
G02*
X151540000Y-86601000I-51000J0D01*
G01*
X149240000Y-86601000D01*
G75*
G02*
X149189000Y-86550000I0J51000D01*
G01*
X149189000Y-83350000D01*
G75*
G02*
X149240000Y-83299000I51000J0D01*
G01*
G37*
G36*
G01*
X146700000Y-103899000D02*
X149000000Y-103899000D01*
G75*
G02*
X149051000Y-103950000I0J-51000D01*
G01*
X149051000Y-107150000D01*
G75*
G02*
X149000000Y-107201000I-51000J0D01*
G01*
X146700000Y-107201000D01*
G75*
G02*
X146649000Y-107150000I0J51000D01*
G01*
X146649000Y-103950000D01*
G75*
G02*
X146700000Y-103899000I51000J0D01*
G01*
G37*
D17*
X141800000Y-74500000D03*
X136800000Y-74500000D03*
X136800000Y-67000000D03*
X141800000Y-67000000D03*
G36*
G01*
X115774000Y-75475000D02*
X115774000Y-73525000D01*
G75*
G02*
X115825000Y-73474000I51000J0D01*
G01*
X117775000Y-73474000D01*
G75*
G02*
X117826000Y-73525000I0J-51000D01*
G01*
X117826000Y-75475000D01*
G75*
G02*
X117775000Y-75526000I-51000J0D01*
G01*
X115825000Y-75526000D01*
G75*
G02*
X115774000Y-75475000I0J51000D01*
G01*
G37*
X116800000Y-67000000D03*
D18*
X206000000Y-97070000D03*
X206000000Y-102070000D03*
G36*
G01*
X207250000Y-108371000D02*
X204750000Y-108371000D01*
G75*
G02*
X204699000Y-108320000I0J51000D01*
G01*
X204699000Y-105820000D01*
G75*
G02*
X204750000Y-105769000I51000J0D01*
G01*
X207250000Y-105769000D01*
G75*
G02*
X207301000Y-105820000I0J-51000D01*
G01*
X207301000Y-108320000D01*
G75*
G02*
X207250000Y-108371000I-51000J0D01*
G01*
G37*
X206045000Y-77465000D03*
X206045000Y-82465000D03*
G36*
G01*
X207295000Y-88766000D02*
X204795000Y-88766000D01*
G75*
G02*
X204744000Y-88715000I0J51000D01*
G01*
X204744000Y-86215000D01*
G75*
G02*
X204795000Y-86164000I51000J0D01*
G01*
X207295000Y-86164000D01*
G75*
G02*
X207346000Y-86215000I0J-51000D01*
G01*
X207346000Y-88715000D01*
G75*
G02*
X207295000Y-88766000I-51000J0D01*
G01*
G37*
X206000000Y-54500000D03*
X206000000Y-59500000D03*
G36*
G01*
X207250000Y-65801000D02*
X204750000Y-65801000D01*
G75*
G02*
X204699000Y-65750000I0J51000D01*
G01*
X204699000Y-63250000D01*
G75*
G02*
X204750000Y-63199000I51000J0D01*
G01*
X207250000Y-63199000D01*
G75*
G02*
X207301000Y-63250000I0J-51000D01*
G01*
X207301000Y-65750000D01*
G75*
G02*
X207250000Y-65801000I-51000J0D01*
G01*
G37*
D19*
G36*
X149190732Y-103898000D02*
G01*
X149191000Y-103899000D01*
X149191000Y-107201000D01*
X149190000Y-107202732D01*
X149189000Y-107203000D01*
X149051000Y-107203000D01*
X149049268Y-107202000D01*
X149049000Y-107201000D01*
X149049000Y-103899000D01*
X149050000Y-103897268D01*
X149051000Y-103897000D01*
X149189000Y-103897000D01*
X149190732Y-103898000D01*
G37*
G36*
X137450732Y-103898000D02*
G01*
X137451000Y-103899000D01*
X137451000Y-107201000D01*
X137450000Y-107202732D01*
X137449000Y-107203000D01*
X137311000Y-107203000D01*
X137309268Y-107202000D01*
X137309000Y-107201000D01*
X137309000Y-103899000D01*
X137310000Y-103897268D01*
X137311000Y-103897000D01*
X137449000Y-103897000D01*
X137450732Y-103898000D01*
G37*
G36*
X137450732Y-83298000D02*
G01*
X137451000Y-83299000D01*
X137451000Y-86601000D01*
X137450000Y-86602732D01*
X137449000Y-86603000D01*
X137311000Y-86603000D01*
X137309268Y-86602000D01*
X137309000Y-86601000D01*
X137309000Y-83299000D01*
X137310000Y-83297268D01*
X137311000Y-83297000D01*
X137449000Y-83297000D01*
X137450732Y-83298000D01*
G37*
G36*
X149190732Y-83298000D02*
G01*
X149191000Y-83299000D01*
X149191000Y-86601000D01*
X149190000Y-86602732D01*
X149189000Y-86603000D01*
X149051000Y-86603000D01*
X149049268Y-86602000D01*
X149049000Y-86601000D01*
X149049000Y-83299000D01*
X149050000Y-83297268D01*
X149051000Y-83297000D01*
X149189000Y-83297000D01*
X149190732Y-83298000D01*
G37*
M02*
