G04 #@! TF.GenerationSoftware,KiCad,Pcbnew,5.1.9+dfsg1-1*
G04 #@! TF.CreationDate,2021-03-13T21:56:33+01:00*
G04 #@! TF.ProjectId,ledStripDriver,6c656453-7472-4697-9044-72697665722e,rev?*
G04 #@! TF.SameCoordinates,Original*
G04 #@! TF.FileFunction,Legend,Bot*
G04 #@! TF.FilePolarity,Positive*
%FSLAX46Y46*%
G04 Gerber Fmt 4.6, Leading zero omitted, Abs format (unit mm)*
G04 Created by KiCad (PCBNEW 5.1.9+dfsg1-1) date 2021-03-13 21:56:33*
%MOMM*%
%LPD*%
G01*
G04 APERTURE LIST*
%ADD10C,0.150000*%
G04 APERTURE END LIST*
D10*
X131837380Y-113780476D02*
X131837380Y-114399523D01*
X132218333Y-114066190D01*
X132218333Y-114209047D01*
X132265952Y-114304285D01*
X132313571Y-114351904D01*
X132408809Y-114399523D01*
X132646904Y-114399523D01*
X132742142Y-114351904D01*
X132789761Y-114304285D01*
X132837380Y-114209047D01*
X132837380Y-113923333D01*
X132789761Y-113828095D01*
X132742142Y-113780476D01*
X131932619Y-114780476D02*
X131885000Y-114828095D01*
X131837380Y-114923333D01*
X131837380Y-115161428D01*
X131885000Y-115256666D01*
X131932619Y-115304285D01*
X132027857Y-115351904D01*
X132123095Y-115351904D01*
X132265952Y-115304285D01*
X132837380Y-114732857D01*
X132837380Y-115351904D01*
X147077380Y-113399523D02*
X147077380Y-114018571D01*
X147458333Y-113685238D01*
X147458333Y-113828095D01*
X147505952Y-113923333D01*
X147553571Y-113970952D01*
X147648809Y-114018571D01*
X147886904Y-114018571D01*
X147982142Y-113970952D01*
X148029761Y-113923333D01*
X148077380Y-113828095D01*
X148077380Y-113542380D01*
X148029761Y-113447142D01*
X147982142Y-113399523D01*
X147410714Y-114351904D02*
X148077380Y-114590000D01*
X147410714Y-114828095D01*
X147077380Y-115113809D02*
X147077380Y-115732857D01*
X147458333Y-115399523D01*
X147458333Y-115542380D01*
X147505952Y-115637619D01*
X147553571Y-115685238D01*
X147648809Y-115732857D01*
X147886904Y-115732857D01*
X147982142Y-115685238D01*
X148029761Y-115637619D01*
X148077380Y-115542380D01*
X148077380Y-115256666D01*
X148029761Y-115161428D01*
X147982142Y-115113809D01*
X134377380Y-113780476D02*
X134377380Y-114399523D01*
X134758333Y-114066190D01*
X134758333Y-114209047D01*
X134805952Y-114304285D01*
X134853571Y-114351904D01*
X134948809Y-114399523D01*
X135186904Y-114399523D01*
X135282142Y-114351904D01*
X135329761Y-114304285D01*
X135377380Y-114209047D01*
X135377380Y-113923333D01*
X135329761Y-113828095D01*
X135282142Y-113780476D01*
X134377380Y-115304285D02*
X134377380Y-114828095D01*
X134853571Y-114780476D01*
X134805952Y-114828095D01*
X134758333Y-114923333D01*
X134758333Y-115161428D01*
X134805952Y-115256666D01*
X134853571Y-115304285D01*
X134948809Y-115351904D01*
X135186904Y-115351904D01*
X135282142Y-115304285D01*
X135329761Y-115256666D01*
X135377380Y-115161428D01*
X135377380Y-114923333D01*
X135329761Y-114828095D01*
X135282142Y-114780476D01*
X129297380Y-113780476D02*
X129297380Y-114399523D01*
X129678333Y-114066190D01*
X129678333Y-114209047D01*
X129725952Y-114304285D01*
X129773571Y-114351904D01*
X129868809Y-114399523D01*
X130106904Y-114399523D01*
X130202142Y-114351904D01*
X130249761Y-114304285D01*
X130297380Y-114209047D01*
X130297380Y-113923333D01*
X130249761Y-113828095D01*
X130202142Y-113780476D01*
X129297380Y-114732857D02*
X129297380Y-115351904D01*
X129678333Y-115018571D01*
X129678333Y-115161428D01*
X129725952Y-115256666D01*
X129773571Y-115304285D01*
X129868809Y-115351904D01*
X130106904Y-115351904D01*
X130202142Y-115304285D01*
X130249761Y-115256666D01*
X130297380Y-115161428D01*
X130297380Y-114875714D01*
X130249761Y-114780476D01*
X130202142Y-114732857D01*
X136917380Y-113780476D02*
X136917380Y-114399523D01*
X137298333Y-114066190D01*
X137298333Y-114209047D01*
X137345952Y-114304285D01*
X137393571Y-114351904D01*
X137488809Y-114399523D01*
X137726904Y-114399523D01*
X137822142Y-114351904D01*
X137869761Y-114304285D01*
X137917380Y-114209047D01*
X137917380Y-113923333D01*
X137869761Y-113828095D01*
X137822142Y-113780476D01*
X137250714Y-115256666D02*
X137917380Y-115256666D01*
X136869761Y-115018571D02*
X137584047Y-114780476D01*
X137584047Y-115399523D01*
X139457380Y-113343809D02*
X140457380Y-113677142D01*
X139457380Y-114010476D01*
X140457380Y-114343809D02*
X139457380Y-114343809D01*
X140457380Y-114915238D01*
X139457380Y-114915238D01*
X140838333Y-115677142D02*
X140790714Y-115629523D01*
X140647857Y-115534285D01*
X140552619Y-115486666D01*
X140409761Y-115439047D01*
X140171666Y-115391428D01*
X139981190Y-115391428D01*
X139743095Y-115439047D01*
X139600238Y-115486666D01*
X139505000Y-115534285D01*
X139362142Y-115629523D01*
X139314523Y-115677142D01*
X139457380Y-115962857D02*
X139457380Y-116581904D01*
X139838333Y-116248571D01*
X139838333Y-116391428D01*
X139885952Y-116486666D01*
X139933571Y-116534285D01*
X140028809Y-116581904D01*
X140266904Y-116581904D01*
X140362142Y-116534285D01*
X140409761Y-116486666D01*
X140457380Y-116391428D01*
X140457380Y-116105714D01*
X140409761Y-116010476D01*
X140362142Y-115962857D01*
X140457380Y-117058095D02*
X140457380Y-117248571D01*
X140409761Y-117343809D01*
X140362142Y-117391428D01*
X140219285Y-117486666D01*
X140028809Y-117534285D01*
X139647857Y-117534285D01*
X139552619Y-117486666D01*
X139505000Y-117439047D01*
X139457380Y-117343809D01*
X139457380Y-117153333D01*
X139505000Y-117058095D01*
X139552619Y-117010476D01*
X139647857Y-116962857D01*
X139885952Y-116962857D01*
X139981190Y-117010476D01*
X140028809Y-117058095D01*
X140076428Y-117153333D01*
X140076428Y-117343809D01*
X140028809Y-117439047D01*
X139981190Y-117486666D01*
X139885952Y-117534285D01*
X140838333Y-117867619D02*
X140790714Y-117915238D01*
X140647857Y-118010476D01*
X140552619Y-118058095D01*
X140409761Y-118105714D01*
X140171666Y-118153333D01*
X139981190Y-118153333D01*
X139743095Y-118105714D01*
X139600238Y-118058095D01*
X139505000Y-118010476D01*
X139362142Y-117915238D01*
X139314523Y-117867619D01*
X144170000Y-114248809D02*
X144170000Y-115153571D01*
X145013571Y-114486904D02*
X145013571Y-114820238D01*
X145537380Y-114963095D02*
X145537380Y-114486904D01*
X144537380Y-114486904D01*
X144537380Y-114963095D01*
X144170000Y-115153571D02*
X144170000Y-116201190D01*
X145537380Y-115391666D02*
X144537380Y-115391666D01*
X145537380Y-115963095D01*
X144537380Y-115963095D01*
X141997380Y-113367619D02*
X142997380Y-113700952D01*
X141997380Y-114034285D01*
X142997380Y-114367619D02*
X141997380Y-114367619D01*
X141997380Y-114748571D01*
X142045000Y-114843809D01*
X142092619Y-114891428D01*
X142187857Y-114939047D01*
X142330714Y-114939047D01*
X142425952Y-114891428D01*
X142473571Y-114843809D01*
X142521190Y-114748571D01*
X142521190Y-114367619D01*
X143378333Y-115653333D02*
X143330714Y-115605714D01*
X143187857Y-115510476D01*
X143092619Y-115462857D01*
X142949761Y-115415238D01*
X142711666Y-115367619D01*
X142521190Y-115367619D01*
X142283095Y-115415238D01*
X142140238Y-115462857D01*
X142045000Y-115510476D01*
X141902142Y-115605714D01*
X141854523Y-115653333D01*
X141997380Y-115939047D02*
X141997380Y-116558095D01*
X142378333Y-116224761D01*
X142378333Y-116367619D01*
X142425952Y-116462857D01*
X142473571Y-116510476D01*
X142568809Y-116558095D01*
X142806904Y-116558095D01*
X142902142Y-116510476D01*
X142949761Y-116462857D01*
X142997380Y-116367619D01*
X142997380Y-116081904D01*
X142949761Y-115986666D01*
X142902142Y-115939047D01*
X141997380Y-117415238D02*
X141997380Y-117224761D01*
X142045000Y-117129523D01*
X142092619Y-117081904D01*
X142235476Y-116986666D01*
X142425952Y-116939047D01*
X142806904Y-116939047D01*
X142902142Y-116986666D01*
X142949761Y-117034285D01*
X142997380Y-117129523D01*
X142997380Y-117320000D01*
X142949761Y-117415238D01*
X142902142Y-117462857D01*
X142806904Y-117510476D01*
X142568809Y-117510476D01*
X142473571Y-117462857D01*
X142425952Y-117415238D01*
X142378333Y-117320000D01*
X142378333Y-117129523D01*
X142425952Y-117034285D01*
X142473571Y-116986666D01*
X142568809Y-116939047D01*
X143378333Y-117843809D02*
X143330714Y-117891428D01*
X143187857Y-117986666D01*
X143092619Y-118034285D01*
X142949761Y-118081904D01*
X142711666Y-118129523D01*
X142521190Y-118129523D01*
X142283095Y-118081904D01*
X142140238Y-118034285D01*
X142045000Y-117986666D01*
X141902142Y-117891428D01*
X141854523Y-117843809D01*
X124312619Y-114008095D02*
X124265000Y-114055714D01*
X124217380Y-114150952D01*
X124217380Y-114389047D01*
X124265000Y-114484285D01*
X124312619Y-114531904D01*
X124407857Y-114579523D01*
X124503095Y-114579523D01*
X124645952Y-114531904D01*
X125217380Y-113960476D01*
X125217380Y-114579523D01*
X124217380Y-115436666D02*
X124217380Y-115246190D01*
X124265000Y-115150952D01*
X124312619Y-115103333D01*
X124455476Y-115008095D01*
X124645952Y-114960476D01*
X125026904Y-114960476D01*
X125122142Y-115008095D01*
X125169761Y-115055714D01*
X125217380Y-115150952D01*
X125217380Y-115341428D01*
X125169761Y-115436666D01*
X125122142Y-115484285D01*
X125026904Y-115531904D01*
X124788809Y-115531904D01*
X124693571Y-115484285D01*
X124645952Y-115436666D01*
X124598333Y-115341428D01*
X124598333Y-115150952D01*
X124645952Y-115055714D01*
X124693571Y-115008095D01*
X124788809Y-114960476D01*
X101976428Y-113251190D02*
X101976428Y-114013095D01*
X102357380Y-113632142D02*
X101595476Y-113632142D01*
X101357380Y-114965476D02*
X101357380Y-114489285D01*
X101833571Y-114441666D01*
X101785952Y-114489285D01*
X101738333Y-114584523D01*
X101738333Y-114822619D01*
X101785952Y-114917857D01*
X101833571Y-114965476D01*
X101928809Y-115013095D01*
X102166904Y-115013095D01*
X102262142Y-114965476D01*
X102309761Y-114917857D01*
X102357380Y-114822619D01*
X102357380Y-114584523D01*
X102309761Y-114489285D01*
X102262142Y-114441666D01*
X101357380Y-115298809D02*
X102357380Y-115632142D01*
X101357380Y-115965476D01*
X102738333Y-117346428D02*
X102690714Y-117298809D01*
X102547857Y-117203571D01*
X102452619Y-117155952D01*
X102309761Y-117108333D01*
X102071666Y-117060714D01*
X101881190Y-117060714D01*
X101643095Y-117108333D01*
X101500238Y-117155952D01*
X101405000Y-117203571D01*
X101262142Y-117298809D01*
X101214523Y-117346428D01*
X102357380Y-117727380D02*
X101690714Y-117727380D01*
X101357380Y-117727380D02*
X101405000Y-117679761D01*
X101452619Y-117727380D01*
X101405000Y-117775000D01*
X101357380Y-117727380D01*
X101452619Y-117727380D01*
X101690714Y-118203571D02*
X102357380Y-118203571D01*
X101785952Y-118203571D02*
X101738333Y-118251190D01*
X101690714Y-118346428D01*
X101690714Y-118489285D01*
X101738333Y-118584523D01*
X101833571Y-118632142D01*
X102357380Y-118632142D01*
X102738333Y-119013095D02*
X102690714Y-119060714D01*
X102547857Y-119155952D01*
X102452619Y-119203571D01*
X102309761Y-119251190D01*
X102071666Y-119298809D01*
X101881190Y-119298809D01*
X101643095Y-119251190D01*
X101500238Y-119203571D01*
X101405000Y-119155952D01*
X101262142Y-119060714D01*
X101214523Y-119013095D01*
X112517380Y-114179523D02*
X112517380Y-113608095D01*
X112517380Y-113893809D02*
X111517380Y-113893809D01*
X111660238Y-113798571D01*
X111755476Y-113703333D01*
X111803095Y-113608095D01*
X111517380Y-114512857D02*
X111517380Y-115131904D01*
X111898333Y-114798571D01*
X111898333Y-114941428D01*
X111945952Y-115036666D01*
X111993571Y-115084285D01*
X112088809Y-115131904D01*
X112326904Y-115131904D01*
X112422142Y-115084285D01*
X112469761Y-115036666D01*
X112517380Y-114941428D01*
X112517380Y-114655714D01*
X112469761Y-114560476D01*
X112422142Y-114512857D01*
X107437380Y-113417857D02*
X106770714Y-113941666D01*
X106770714Y-113417857D02*
X107437380Y-113941666D01*
X107437380Y-114322619D02*
X106437380Y-114322619D01*
X106437380Y-114560714D01*
X106485000Y-114703571D01*
X106580238Y-114798809D01*
X106675476Y-114846428D01*
X106865952Y-114894047D01*
X107008809Y-114894047D01*
X107199285Y-114846428D01*
X107294523Y-114798809D01*
X107389761Y-114703571D01*
X107437380Y-114560714D01*
X107437380Y-114322619D01*
X106437380Y-115227380D02*
X106437380Y-115846428D01*
X106818333Y-115513095D01*
X106818333Y-115655952D01*
X106865952Y-115751190D01*
X106913571Y-115798809D01*
X107008809Y-115846428D01*
X107246904Y-115846428D01*
X107342142Y-115798809D01*
X107389761Y-115751190D01*
X107437380Y-115655952D01*
X107437380Y-115370238D01*
X107389761Y-115275000D01*
X107342142Y-115227380D01*
X107818333Y-116560714D02*
X107770714Y-116513095D01*
X107627857Y-116417857D01*
X107532619Y-116370238D01*
X107389761Y-116322619D01*
X107151666Y-116275000D01*
X106961190Y-116275000D01*
X106723095Y-116322619D01*
X106580238Y-116370238D01*
X106485000Y-116417857D01*
X106342142Y-116513095D01*
X106294523Y-116560714D01*
X107437380Y-117465476D02*
X107437380Y-116894047D01*
X107437380Y-117179761D02*
X106437380Y-117179761D01*
X106580238Y-117084523D01*
X106675476Y-116989285D01*
X106723095Y-116894047D01*
X106437380Y-118084523D02*
X106437380Y-118179761D01*
X106485000Y-118275000D01*
X106532619Y-118322619D01*
X106627857Y-118370238D01*
X106818333Y-118417857D01*
X107056428Y-118417857D01*
X107246904Y-118370238D01*
X107342142Y-118322619D01*
X107389761Y-118275000D01*
X107437380Y-118179761D01*
X107437380Y-118084523D01*
X107389761Y-117989285D01*
X107342142Y-117941666D01*
X107246904Y-117894047D01*
X107056428Y-117846428D01*
X106818333Y-117846428D01*
X106627857Y-117894047D01*
X106532619Y-117941666D01*
X106485000Y-117989285D01*
X106437380Y-118084523D01*
X107818333Y-118751190D02*
X107770714Y-118798809D01*
X107627857Y-118894047D01*
X107532619Y-118941666D01*
X107389761Y-118989285D01*
X107151666Y-119036904D01*
X106961190Y-119036904D01*
X106723095Y-118989285D01*
X106580238Y-118941666D01*
X106485000Y-118894047D01*
X106342142Y-118798809D01*
X106294523Y-118751190D01*
X109977380Y-113259047D02*
X109310714Y-113782857D01*
X109310714Y-113259047D02*
X109977380Y-113782857D01*
X109977380Y-114163809D02*
X108977380Y-114163809D01*
X108977380Y-114401904D01*
X109025000Y-114544761D01*
X109120238Y-114640000D01*
X109215476Y-114687619D01*
X109405952Y-114735238D01*
X109548809Y-114735238D01*
X109739285Y-114687619D01*
X109834523Y-114640000D01*
X109929761Y-114544761D01*
X109977380Y-114401904D01*
X109977380Y-114163809D01*
X109072619Y-115116190D02*
X109025000Y-115163809D01*
X108977380Y-115259047D01*
X108977380Y-115497142D01*
X109025000Y-115592380D01*
X109072619Y-115640000D01*
X109167857Y-115687619D01*
X109263095Y-115687619D01*
X109405952Y-115640000D01*
X109977380Y-115068571D01*
X109977380Y-115687619D01*
X110358333Y-116401904D02*
X110310714Y-116354285D01*
X110167857Y-116259047D01*
X110072619Y-116211428D01*
X109929761Y-116163809D01*
X109691666Y-116116190D01*
X109501190Y-116116190D01*
X109263095Y-116163809D01*
X109120238Y-116211428D01*
X109025000Y-116259047D01*
X108882142Y-116354285D01*
X108834523Y-116401904D01*
X109977380Y-116830476D02*
X109977380Y-117020952D01*
X109929761Y-117116190D01*
X109882142Y-117163809D01*
X109739285Y-117259047D01*
X109548809Y-117306666D01*
X109167857Y-117306666D01*
X109072619Y-117259047D01*
X109025000Y-117211428D01*
X108977380Y-117116190D01*
X108977380Y-116925714D01*
X109025000Y-116830476D01*
X109072619Y-116782857D01*
X109167857Y-116735238D01*
X109405952Y-116735238D01*
X109501190Y-116782857D01*
X109548809Y-116830476D01*
X109596428Y-116925714D01*
X109596428Y-117116190D01*
X109548809Y-117211428D01*
X109501190Y-117259047D01*
X109405952Y-117306666D01*
X110358333Y-117640000D02*
X110310714Y-117687619D01*
X110167857Y-117782857D01*
X110072619Y-117830476D01*
X109929761Y-117878095D01*
X109691666Y-117925714D01*
X109501190Y-117925714D01*
X109263095Y-117878095D01*
X109120238Y-117830476D01*
X109025000Y-117782857D01*
X108882142Y-117687619D01*
X108834523Y-117640000D01*
X104897380Y-113171666D02*
X104230714Y-113695476D01*
X104230714Y-113171666D02*
X104897380Y-113695476D01*
X104802142Y-114647857D02*
X104849761Y-114600238D01*
X104897380Y-114457380D01*
X104897380Y-114362142D01*
X104849761Y-114219285D01*
X104754523Y-114124047D01*
X104659285Y-114076428D01*
X104468809Y-114028809D01*
X104325952Y-114028809D01*
X104135476Y-114076428D01*
X104040238Y-114124047D01*
X103945000Y-114219285D01*
X103897380Y-114362142D01*
X103897380Y-114457380D01*
X103945000Y-114600238D01*
X103992619Y-114647857D01*
X104897380Y-115076428D02*
X103897380Y-115076428D01*
X104611666Y-115409761D01*
X103897380Y-115743095D01*
X104897380Y-115743095D01*
X104897380Y-116219285D02*
X103897380Y-116219285D01*
X103897380Y-116457380D01*
X103945000Y-116600238D01*
X104040238Y-116695476D01*
X104135476Y-116743095D01*
X104325952Y-116790714D01*
X104468809Y-116790714D01*
X104659285Y-116743095D01*
X104754523Y-116695476D01*
X104849761Y-116600238D01*
X104897380Y-116457380D01*
X104897380Y-116219285D01*
X121772619Y-114008095D02*
X121725000Y-114055714D01*
X121677380Y-114150952D01*
X121677380Y-114389047D01*
X121725000Y-114484285D01*
X121772619Y-114531904D01*
X121867857Y-114579523D01*
X121963095Y-114579523D01*
X122105952Y-114531904D01*
X122677380Y-113960476D01*
X122677380Y-114579523D01*
X121677380Y-114912857D02*
X121677380Y-115579523D01*
X122677380Y-115150952D01*
X117597380Y-114579523D02*
X117597380Y-114008095D01*
X117597380Y-114293809D02*
X116597380Y-114293809D01*
X116740238Y-114198571D01*
X116835476Y-114103333D01*
X116883095Y-114008095D01*
X116692619Y-114960476D02*
X116645000Y-115008095D01*
X116597380Y-115103333D01*
X116597380Y-115341428D01*
X116645000Y-115436666D01*
X116692619Y-115484285D01*
X116787857Y-115531904D01*
X116883095Y-115531904D01*
X117025952Y-115484285D01*
X117597380Y-114912857D01*
X117597380Y-115531904D01*
X119232619Y-114008095D02*
X119185000Y-114055714D01*
X119137380Y-114150952D01*
X119137380Y-114389047D01*
X119185000Y-114484285D01*
X119232619Y-114531904D01*
X119327857Y-114579523D01*
X119423095Y-114579523D01*
X119565952Y-114531904D01*
X120137380Y-113960476D01*
X120137380Y-114579523D01*
X119470714Y-115436666D02*
X120137380Y-115436666D01*
X119089761Y-115198571D02*
X119804047Y-114960476D01*
X119804047Y-115579523D01*
X126852619Y-114008095D02*
X126805000Y-114055714D01*
X126757380Y-114150952D01*
X126757380Y-114389047D01*
X126805000Y-114484285D01*
X126852619Y-114531904D01*
X126947857Y-114579523D01*
X127043095Y-114579523D01*
X127185952Y-114531904D01*
X127757380Y-113960476D01*
X127757380Y-114579523D01*
X126757380Y-115484285D02*
X126757380Y-115008095D01*
X127233571Y-114960476D01*
X127185952Y-115008095D01*
X127138333Y-115103333D01*
X127138333Y-115341428D01*
X127185952Y-115436666D01*
X127233571Y-115484285D01*
X127328809Y-115531904D01*
X127566904Y-115531904D01*
X127662142Y-115484285D01*
X127709761Y-115436666D01*
X127757380Y-115341428D01*
X127757380Y-115103333D01*
X127709761Y-115008095D01*
X127662142Y-114960476D01*
X114105000Y-114643095D02*
X114057380Y-114547857D01*
X114057380Y-114405000D01*
X114105000Y-114262142D01*
X114200238Y-114166904D01*
X114295476Y-114119285D01*
X114485952Y-114071666D01*
X114628809Y-114071666D01*
X114819285Y-114119285D01*
X114914523Y-114166904D01*
X115009761Y-114262142D01*
X115057380Y-114405000D01*
X115057380Y-114500238D01*
X115009761Y-114643095D01*
X114962142Y-114690714D01*
X114628809Y-114690714D01*
X114628809Y-114500238D01*
X115057380Y-115119285D02*
X114057380Y-115119285D01*
X115057380Y-115690714D01*
X114057380Y-115690714D01*
X115057380Y-116166904D02*
X114057380Y-116166904D01*
X114057380Y-116405000D01*
X114105000Y-116547857D01*
X114200238Y-116643095D01*
X114295476Y-116690714D01*
X114485952Y-116738333D01*
X114628809Y-116738333D01*
X114819285Y-116690714D01*
X114914523Y-116643095D01*
X115009761Y-116547857D01*
X115057380Y-116405000D01*
X115057380Y-116166904D01*
X107437380Y-131170357D02*
X106770714Y-131694166D01*
X106770714Y-131170357D02*
X107437380Y-131694166D01*
X107437380Y-132075119D02*
X106437380Y-132075119D01*
X106437380Y-132313214D01*
X106485000Y-132456071D01*
X106580238Y-132551309D01*
X106675476Y-132598928D01*
X106865952Y-132646547D01*
X107008809Y-132646547D01*
X107199285Y-132598928D01*
X107294523Y-132551309D01*
X107389761Y-132456071D01*
X107437380Y-132313214D01*
X107437380Y-132075119D01*
X107437380Y-133598928D02*
X107437380Y-133027500D01*
X107437380Y-133313214D02*
X106437380Y-133313214D01*
X106580238Y-133217976D01*
X106675476Y-133122738D01*
X106723095Y-133027500D01*
X107818333Y-134313214D02*
X107770714Y-134265595D01*
X107627857Y-134170357D01*
X107532619Y-134122738D01*
X107389761Y-134075119D01*
X107151666Y-134027500D01*
X106961190Y-134027500D01*
X106723095Y-134075119D01*
X106580238Y-134122738D01*
X106485000Y-134170357D01*
X106342142Y-134265595D01*
X106294523Y-134313214D01*
X106437380Y-134598928D02*
X106437380Y-135217976D01*
X106818333Y-134884642D01*
X106818333Y-135027500D01*
X106865952Y-135122738D01*
X106913571Y-135170357D01*
X107008809Y-135217976D01*
X107246904Y-135217976D01*
X107342142Y-135170357D01*
X107389761Y-135122738D01*
X107437380Y-135027500D01*
X107437380Y-134741785D01*
X107389761Y-134646547D01*
X107342142Y-134598928D01*
X106437380Y-135551309D02*
X106437380Y-136170357D01*
X106818333Y-135837023D01*
X106818333Y-135979880D01*
X106865952Y-136075119D01*
X106913571Y-136122738D01*
X107008809Y-136170357D01*
X107246904Y-136170357D01*
X107342142Y-136122738D01*
X107389761Y-136075119D01*
X107437380Y-135979880D01*
X107437380Y-135694166D01*
X107389761Y-135598928D01*
X107342142Y-135551309D01*
X107818333Y-136503690D02*
X107770714Y-136551309D01*
X107627857Y-136646547D01*
X107532619Y-136694166D01*
X107389761Y-136741785D01*
X107151666Y-136789404D01*
X106961190Y-136789404D01*
X106723095Y-136741785D01*
X106580238Y-136694166D01*
X106485000Y-136646547D01*
X106342142Y-136551309D01*
X106294523Y-136503690D01*
X109977380Y-133719404D02*
X109977380Y-133147976D01*
X109977380Y-133433690D02*
X108977380Y-133433690D01*
X109120238Y-133338452D01*
X109215476Y-133243214D01*
X109263095Y-133147976D01*
X108977380Y-134624166D02*
X108977380Y-134147976D01*
X109453571Y-134100357D01*
X109405952Y-134147976D01*
X109358333Y-134243214D01*
X109358333Y-134481309D01*
X109405952Y-134576547D01*
X109453571Y-134624166D01*
X109548809Y-134671785D01*
X109786904Y-134671785D01*
X109882142Y-134624166D01*
X109929761Y-134576547D01*
X109977380Y-134481309D01*
X109977380Y-134243214D01*
X109929761Y-134147976D01*
X109882142Y-134100357D01*
X147125000Y-133719404D02*
X147077380Y-133624166D01*
X147077380Y-133481309D01*
X147125000Y-133338452D01*
X147220238Y-133243214D01*
X147315476Y-133195595D01*
X147505952Y-133147976D01*
X147648809Y-133147976D01*
X147839285Y-133195595D01*
X147934523Y-133243214D01*
X148029761Y-133338452D01*
X148077380Y-133481309D01*
X148077380Y-133576547D01*
X148029761Y-133719404D01*
X147982142Y-133767023D01*
X147648809Y-133767023D01*
X147648809Y-133576547D01*
X148077380Y-134195595D02*
X147077380Y-134195595D01*
X148077380Y-134767023D01*
X147077380Y-134767023D01*
X148077380Y-135243214D02*
X147077380Y-135243214D01*
X147077380Y-135481309D01*
X147125000Y-135624166D01*
X147220238Y-135719404D01*
X147315476Y-135767023D01*
X147505952Y-135814642D01*
X147648809Y-135814642D01*
X147839285Y-135767023D01*
X147934523Y-135719404D01*
X148029761Y-135624166D01*
X148077380Y-135481309D01*
X148077380Y-135243214D01*
X144632619Y-133147976D02*
X144585000Y-133195595D01*
X144537380Y-133290833D01*
X144537380Y-133528928D01*
X144585000Y-133624166D01*
X144632619Y-133671785D01*
X144727857Y-133719404D01*
X144823095Y-133719404D01*
X144965952Y-133671785D01*
X145537380Y-133100357D01*
X145537380Y-133719404D01*
X144537380Y-134052738D02*
X144537380Y-134671785D01*
X144918333Y-134338452D01*
X144918333Y-134481309D01*
X144965952Y-134576547D01*
X145013571Y-134624166D01*
X145108809Y-134671785D01*
X145346904Y-134671785D01*
X145442142Y-134624166D01*
X145489761Y-134576547D01*
X145537380Y-134481309D01*
X145537380Y-134195595D01*
X145489761Y-134100357D01*
X145442142Y-134052738D01*
X130297380Y-133719404D02*
X130297380Y-133147976D01*
X130297380Y-133433690D02*
X129297380Y-133433690D01*
X129440238Y-133338452D01*
X129535476Y-133243214D01*
X129583095Y-133147976D01*
X130297380Y-134195595D02*
X130297380Y-134386071D01*
X130249761Y-134481309D01*
X130202142Y-134528928D01*
X130059285Y-134624166D01*
X129868809Y-134671785D01*
X129487857Y-134671785D01*
X129392619Y-134624166D01*
X129345000Y-134576547D01*
X129297380Y-134481309D01*
X129297380Y-134290833D01*
X129345000Y-134195595D01*
X129392619Y-134147976D01*
X129487857Y-134100357D01*
X129725952Y-134100357D01*
X129821190Y-134147976D01*
X129868809Y-134195595D01*
X129916428Y-134290833D01*
X129916428Y-134481309D01*
X129868809Y-134576547D01*
X129821190Y-134624166D01*
X129725952Y-134671785D01*
X137917380Y-133767023D02*
X137441190Y-133433690D01*
X137917380Y-133195595D02*
X136917380Y-133195595D01*
X136917380Y-133576547D01*
X136965000Y-133671785D01*
X137012619Y-133719404D01*
X137107857Y-133767023D01*
X137250714Y-133767023D01*
X137345952Y-133719404D01*
X137393571Y-133671785D01*
X137441190Y-133576547D01*
X137441190Y-133195595D01*
X136917380Y-134100357D02*
X137917380Y-134767023D01*
X136917380Y-134767023D02*
X137917380Y-134100357D01*
X138298333Y-135433690D02*
X138250714Y-135386071D01*
X138107857Y-135290833D01*
X138012619Y-135243214D01*
X137869761Y-135195595D01*
X137631666Y-135147976D01*
X137441190Y-135147976D01*
X137203095Y-135195595D01*
X137060238Y-135243214D01*
X136965000Y-135290833D01*
X136822142Y-135386071D01*
X136774523Y-135433690D01*
X136917380Y-135719404D02*
X136917380Y-136338452D01*
X137298333Y-136005119D01*
X137298333Y-136147976D01*
X137345952Y-136243214D01*
X137393571Y-136290833D01*
X137488809Y-136338452D01*
X137726904Y-136338452D01*
X137822142Y-136290833D01*
X137869761Y-136243214D01*
X137917380Y-136147976D01*
X137917380Y-135862261D01*
X137869761Y-135767023D01*
X137822142Y-135719404D01*
X138298333Y-136671785D02*
X138250714Y-136719404D01*
X138107857Y-136814642D01*
X138012619Y-136862261D01*
X137869761Y-136909880D01*
X137631666Y-136957500D01*
X137441190Y-136957500D01*
X137203095Y-136909880D01*
X137060238Y-136862261D01*
X136965000Y-136814642D01*
X136822142Y-136719404D01*
X136774523Y-136671785D01*
X139392380Y-132525238D02*
X139392380Y-133096666D01*
X140392380Y-132810952D02*
X139392380Y-132810952D01*
X139392380Y-133334761D02*
X140392380Y-134001428D01*
X139392380Y-134001428D02*
X140392380Y-133334761D01*
X140773333Y-134668095D02*
X140725714Y-134620476D01*
X140582857Y-134525238D01*
X140487619Y-134477619D01*
X140344761Y-134430000D01*
X140106666Y-134382380D01*
X139916190Y-134382380D01*
X139678095Y-134430000D01*
X139535238Y-134477619D01*
X139440000Y-134525238D01*
X139297142Y-134620476D01*
X139249523Y-134668095D01*
X140392380Y-135572857D02*
X140392380Y-135001428D01*
X140392380Y-135287142D02*
X139392380Y-135287142D01*
X139535238Y-135191904D01*
X139630476Y-135096666D01*
X139678095Y-135001428D01*
X140773333Y-135906190D02*
X140725714Y-135953809D01*
X140582857Y-136049047D01*
X140487619Y-136096666D01*
X140344761Y-136144285D01*
X140106666Y-136191904D01*
X139916190Y-136191904D01*
X139678095Y-136144285D01*
X139535238Y-136096666D01*
X139440000Y-136049047D01*
X139297142Y-135953809D01*
X139249523Y-135906190D01*
X122677380Y-133719404D02*
X122677380Y-133147976D01*
X122677380Y-133433690D02*
X121677380Y-133433690D01*
X121820238Y-133338452D01*
X121915476Y-133243214D01*
X121963095Y-133147976D01*
X121677380Y-134052738D02*
X121677380Y-134719404D01*
X122677380Y-134290833D01*
X111612619Y-133147976D02*
X111565000Y-133195595D01*
X111517380Y-133290833D01*
X111517380Y-133528928D01*
X111565000Y-133624166D01*
X111612619Y-133671785D01*
X111707857Y-133719404D01*
X111803095Y-133719404D01*
X111945952Y-133671785D01*
X112517380Y-133100357D01*
X112517380Y-133719404D01*
X142092619Y-133147976D02*
X142045000Y-133195595D01*
X141997380Y-133290833D01*
X141997380Y-133528928D01*
X142045000Y-133624166D01*
X142092619Y-133671785D01*
X142187857Y-133719404D01*
X142283095Y-133719404D01*
X142425952Y-133671785D01*
X142997380Y-133100357D01*
X142997380Y-133719404D01*
X142092619Y-134100357D02*
X142045000Y-134147976D01*
X141997380Y-134243214D01*
X141997380Y-134481309D01*
X142045000Y-134576547D01*
X142092619Y-134624166D01*
X142187857Y-134671785D01*
X142283095Y-134671785D01*
X142425952Y-134624166D01*
X142997380Y-134052738D01*
X142997380Y-134671785D01*
X102357380Y-133263333D02*
X101690714Y-133787142D01*
X101690714Y-133263333D02*
X102357380Y-133787142D01*
X102262142Y-134739523D02*
X102309761Y-134691904D01*
X102357380Y-134549047D01*
X102357380Y-134453809D01*
X102309761Y-134310952D01*
X102214523Y-134215714D01*
X102119285Y-134168095D01*
X101928809Y-134120476D01*
X101785952Y-134120476D01*
X101595476Y-134168095D01*
X101500238Y-134215714D01*
X101405000Y-134310952D01*
X101357380Y-134453809D01*
X101357380Y-134549047D01*
X101405000Y-134691904D01*
X101452619Y-134739523D01*
X102357380Y-135644285D02*
X102357380Y-135168095D01*
X101357380Y-135168095D01*
X102357380Y-135977619D02*
X101357380Y-135977619D01*
X102357380Y-136549047D02*
X101785952Y-136120476D01*
X101357380Y-136549047D02*
X101928809Y-135977619D01*
X124217380Y-133671785D02*
X124217380Y-133195595D01*
X124693571Y-133147976D01*
X124645952Y-133195595D01*
X124598333Y-133290833D01*
X124598333Y-133528928D01*
X124645952Y-133624166D01*
X124693571Y-133671785D01*
X124788809Y-133719404D01*
X125026904Y-133719404D01*
X125122142Y-133671785D01*
X125169761Y-133624166D01*
X125217380Y-133528928D01*
X125217380Y-133290833D01*
X125169761Y-133195595D01*
X125122142Y-133147976D01*
X120137380Y-133719404D02*
X120137380Y-133147976D01*
X120137380Y-133433690D02*
X119137380Y-133433690D01*
X119280238Y-133338452D01*
X119375476Y-133243214D01*
X119423095Y-133147976D01*
X119137380Y-134576547D02*
X119137380Y-134386071D01*
X119185000Y-134290833D01*
X119232619Y-134243214D01*
X119375476Y-134147976D01*
X119565952Y-134100357D01*
X119946904Y-134100357D01*
X120042142Y-134147976D01*
X120089761Y-134195595D01*
X120137380Y-134290833D01*
X120137380Y-134481309D01*
X120089761Y-134576547D01*
X120042142Y-134624166D01*
X119946904Y-134671785D01*
X119708809Y-134671785D01*
X119613571Y-134624166D01*
X119565952Y-134576547D01*
X119518333Y-134481309D01*
X119518333Y-134290833D01*
X119565952Y-134195595D01*
X119613571Y-134147976D01*
X119708809Y-134100357D01*
X104897380Y-131170357D02*
X104230714Y-131694166D01*
X104230714Y-131170357D02*
X104897380Y-131694166D01*
X104897380Y-132075119D02*
X103897380Y-132075119D01*
X103897380Y-132313214D01*
X103945000Y-132456071D01*
X104040238Y-132551309D01*
X104135476Y-132598928D01*
X104325952Y-132646547D01*
X104468809Y-132646547D01*
X104659285Y-132598928D01*
X104754523Y-132551309D01*
X104849761Y-132456071D01*
X104897380Y-132313214D01*
X104897380Y-132075119D01*
X103897380Y-133265595D02*
X103897380Y-133360833D01*
X103945000Y-133456071D01*
X103992619Y-133503690D01*
X104087857Y-133551309D01*
X104278333Y-133598928D01*
X104516428Y-133598928D01*
X104706904Y-133551309D01*
X104802142Y-133503690D01*
X104849761Y-133456071D01*
X104897380Y-133360833D01*
X104897380Y-133265595D01*
X104849761Y-133170357D01*
X104802142Y-133122738D01*
X104706904Y-133075119D01*
X104516428Y-133027500D01*
X104278333Y-133027500D01*
X104087857Y-133075119D01*
X103992619Y-133122738D01*
X103945000Y-133170357D01*
X103897380Y-133265595D01*
X105278333Y-134313214D02*
X105230714Y-134265595D01*
X105087857Y-134170357D01*
X104992619Y-134122738D01*
X104849761Y-134075119D01*
X104611666Y-134027500D01*
X104421190Y-134027500D01*
X104183095Y-134075119D01*
X104040238Y-134122738D01*
X103945000Y-134170357D01*
X103802142Y-134265595D01*
X103754523Y-134313214D01*
X103897380Y-134598928D02*
X103897380Y-135217976D01*
X104278333Y-134884642D01*
X104278333Y-135027500D01*
X104325952Y-135122738D01*
X104373571Y-135170357D01*
X104468809Y-135217976D01*
X104706904Y-135217976D01*
X104802142Y-135170357D01*
X104849761Y-135122738D01*
X104897380Y-135027500D01*
X104897380Y-134741785D01*
X104849761Y-134646547D01*
X104802142Y-134598928D01*
X103992619Y-135598928D02*
X103945000Y-135646547D01*
X103897380Y-135741785D01*
X103897380Y-135979880D01*
X103945000Y-136075119D01*
X103992619Y-136122738D01*
X104087857Y-136170357D01*
X104183095Y-136170357D01*
X104325952Y-136122738D01*
X104897380Y-135551309D01*
X104897380Y-136170357D01*
X105278333Y-136503690D02*
X105230714Y-136551309D01*
X105087857Y-136646547D01*
X104992619Y-136694166D01*
X104849761Y-136741785D01*
X104611666Y-136789404D01*
X104421190Y-136789404D01*
X104183095Y-136741785D01*
X104040238Y-136694166D01*
X103945000Y-136646547D01*
X103802142Y-136551309D01*
X103754523Y-136503690D01*
X127757380Y-133719404D02*
X127757380Y-133147976D01*
X127757380Y-133433690D02*
X126757380Y-133433690D01*
X126900238Y-133338452D01*
X126995476Y-133243214D01*
X127043095Y-133147976D01*
X127185952Y-134290833D02*
X127138333Y-134195595D01*
X127090714Y-134147976D01*
X126995476Y-134100357D01*
X126947857Y-134100357D01*
X126852619Y-134147976D01*
X126805000Y-134195595D01*
X126757380Y-134290833D01*
X126757380Y-134481309D01*
X126805000Y-134576547D01*
X126852619Y-134624166D01*
X126947857Y-134671785D01*
X126995476Y-134671785D01*
X127090714Y-134624166D01*
X127138333Y-134576547D01*
X127185952Y-134481309D01*
X127185952Y-134290833D01*
X127233571Y-134195595D01*
X127281190Y-134147976D01*
X127376428Y-134100357D01*
X127566904Y-134100357D01*
X127662142Y-134147976D01*
X127709761Y-134195595D01*
X127757380Y-134290833D01*
X127757380Y-134481309D01*
X127709761Y-134576547D01*
X127662142Y-134624166D01*
X127566904Y-134671785D01*
X127376428Y-134671785D01*
X127281190Y-134624166D01*
X127233571Y-134576547D01*
X127185952Y-134481309D01*
X114057380Y-133386071D02*
X114057380Y-133481309D01*
X114105000Y-133576547D01*
X114152619Y-133624166D01*
X114247857Y-133671785D01*
X114438333Y-133719404D01*
X114676428Y-133719404D01*
X114866904Y-133671785D01*
X114962142Y-133624166D01*
X115009761Y-133576547D01*
X115057380Y-133481309D01*
X115057380Y-133386071D01*
X115009761Y-133290833D01*
X114962142Y-133243214D01*
X114866904Y-133195595D01*
X114676428Y-133147976D01*
X114438333Y-133147976D01*
X114247857Y-133195595D01*
X114152619Y-133243214D01*
X114105000Y-133290833D01*
X114057380Y-133386071D01*
X134472619Y-133168095D02*
X134425000Y-133215714D01*
X134377380Y-133310952D01*
X134377380Y-133549047D01*
X134425000Y-133644285D01*
X134472619Y-133691904D01*
X134567857Y-133739523D01*
X134663095Y-133739523D01*
X134805952Y-133691904D01*
X135377380Y-133120476D01*
X135377380Y-133739523D01*
X135377380Y-134691904D02*
X135377380Y-134120476D01*
X135377380Y-134406190D02*
X134377380Y-134406190D01*
X134520238Y-134310952D01*
X134615476Y-134215714D01*
X134663095Y-134120476D01*
X116930714Y-133624166D02*
X117597380Y-133624166D01*
X116549761Y-133386071D02*
X117264047Y-133147976D01*
X117264047Y-133767023D01*
M02*
