G04 #@! TF.GenerationSoftware,KiCad,Pcbnew,5.1.4+dfsg1-1*
G04 #@! TF.CreationDate,2020-02-21T11:40:22+01:00*
G04 #@! TF.ProjectId,ledStripDriver,6c656453-7472-4697-9044-72697665722e,rev?*
G04 #@! TF.SameCoordinates,Original*
G04 #@! TF.FileFunction,Copper,L1,Top*
G04 #@! TF.FilePolarity,Positive*
%FSLAX46Y46*%
G04 Gerber Fmt 4.6, Leading zero omitted, Abs format (unit mm)*
G04 Created by KiCad (PCBNEW 5.1.4+dfsg1-1) date 2020-02-21 11:40:22*
%MOMM*%
%LPD*%
G04 APERTURE LIST*
%ADD10C,0.100000*%
%ADD11C,1.150000*%
%ADD12C,1.600000*%
%ADD13R,1.600000X1.600000*%
%ADD14C,2.000000*%
%ADD15R,2.000000X2.000000*%
%ADD16R,3.000000X2.500000*%
%ADD17R,2.100000X1.400000*%
%ADD18R,1.800000X2.300000*%
%ADD19R,2.300000X1.800000*%
%ADD20R,2.300000X3.200000*%
%ADD21C,1.560000*%
%ADD22R,1.560000X1.560000*%
%ADD23R,2.500000X6.000000*%
%ADD24R,0.800000X0.900000*%
%ADD25R,0.900000X0.800000*%
%ADD26C,1.950000*%
%ADD27R,1.950000X1.950000*%
%ADD28R,2.500000X2.500000*%
%ADD29C,2.500000*%
%ADD30R,3.500000X2.300000*%
%ADD31R,1.800000X3.500000*%
%ADD32R,3.500000X1.800000*%
%ADD33C,0.800000*%
%ADD34C,0.250000*%
%ADD35C,0.500000*%
%ADD36C,4.000000*%
%ADD37C,5.000000*%
%ADD38C,0.600000*%
%ADD39C,0.254000*%
G04 APERTURE END LIST*
D10*
G36*
X145299505Y-108801204D02*
G01*
X145323773Y-108804804D01*
X145347572Y-108810765D01*
X145370671Y-108819030D01*
X145392850Y-108829520D01*
X145413893Y-108842132D01*
X145433599Y-108856747D01*
X145451777Y-108873223D01*
X145468253Y-108891401D01*
X145482868Y-108911107D01*
X145495480Y-108932150D01*
X145505970Y-108954329D01*
X145514235Y-108977428D01*
X145520196Y-109001227D01*
X145523796Y-109025495D01*
X145525000Y-109049999D01*
X145525000Y-109950001D01*
X145523796Y-109974505D01*
X145520196Y-109998773D01*
X145514235Y-110022572D01*
X145505970Y-110045671D01*
X145495480Y-110067850D01*
X145482868Y-110088893D01*
X145468253Y-110108599D01*
X145451777Y-110126777D01*
X145433599Y-110143253D01*
X145413893Y-110157868D01*
X145392850Y-110170480D01*
X145370671Y-110180970D01*
X145347572Y-110189235D01*
X145323773Y-110195196D01*
X145299505Y-110198796D01*
X145275001Y-110200000D01*
X144624999Y-110200000D01*
X144600495Y-110198796D01*
X144576227Y-110195196D01*
X144552428Y-110189235D01*
X144529329Y-110180970D01*
X144507150Y-110170480D01*
X144486107Y-110157868D01*
X144466401Y-110143253D01*
X144448223Y-110126777D01*
X144431747Y-110108599D01*
X144417132Y-110088893D01*
X144404520Y-110067850D01*
X144394030Y-110045671D01*
X144385765Y-110022572D01*
X144379804Y-109998773D01*
X144376204Y-109974505D01*
X144375000Y-109950001D01*
X144375000Y-109049999D01*
X144376204Y-109025495D01*
X144379804Y-109001227D01*
X144385765Y-108977428D01*
X144394030Y-108954329D01*
X144404520Y-108932150D01*
X144417132Y-108911107D01*
X144431747Y-108891401D01*
X144448223Y-108873223D01*
X144466401Y-108856747D01*
X144486107Y-108842132D01*
X144507150Y-108829520D01*
X144529329Y-108819030D01*
X144552428Y-108810765D01*
X144576227Y-108804804D01*
X144600495Y-108801204D01*
X144624999Y-108800000D01*
X145275001Y-108800000D01*
X145299505Y-108801204D01*
X145299505Y-108801204D01*
G37*
D11*
X144950000Y-109500000D03*
D10*
G36*
X147349505Y-108801204D02*
G01*
X147373773Y-108804804D01*
X147397572Y-108810765D01*
X147420671Y-108819030D01*
X147442850Y-108829520D01*
X147463893Y-108842132D01*
X147483599Y-108856747D01*
X147501777Y-108873223D01*
X147518253Y-108891401D01*
X147532868Y-108911107D01*
X147545480Y-108932150D01*
X147555970Y-108954329D01*
X147564235Y-108977428D01*
X147570196Y-109001227D01*
X147573796Y-109025495D01*
X147575000Y-109049999D01*
X147575000Y-109950001D01*
X147573796Y-109974505D01*
X147570196Y-109998773D01*
X147564235Y-110022572D01*
X147555970Y-110045671D01*
X147545480Y-110067850D01*
X147532868Y-110088893D01*
X147518253Y-110108599D01*
X147501777Y-110126777D01*
X147483599Y-110143253D01*
X147463893Y-110157868D01*
X147442850Y-110170480D01*
X147420671Y-110180970D01*
X147397572Y-110189235D01*
X147373773Y-110195196D01*
X147349505Y-110198796D01*
X147325001Y-110200000D01*
X146674999Y-110200000D01*
X146650495Y-110198796D01*
X146626227Y-110195196D01*
X146602428Y-110189235D01*
X146579329Y-110180970D01*
X146557150Y-110170480D01*
X146536107Y-110157868D01*
X146516401Y-110143253D01*
X146498223Y-110126777D01*
X146481747Y-110108599D01*
X146467132Y-110088893D01*
X146454520Y-110067850D01*
X146444030Y-110045671D01*
X146435765Y-110022572D01*
X146429804Y-109998773D01*
X146426204Y-109974505D01*
X146425000Y-109950001D01*
X146425000Y-109049999D01*
X146426204Y-109025495D01*
X146429804Y-109001227D01*
X146435765Y-108977428D01*
X146444030Y-108954329D01*
X146454520Y-108932150D01*
X146467132Y-108911107D01*
X146481747Y-108891401D01*
X146498223Y-108873223D01*
X146516401Y-108856747D01*
X146536107Y-108842132D01*
X146557150Y-108829520D01*
X146579329Y-108819030D01*
X146602428Y-108810765D01*
X146626227Y-108804804D01*
X146650495Y-108801204D01*
X146674999Y-108800000D01*
X147325001Y-108800000D01*
X147349505Y-108801204D01*
X147349505Y-108801204D01*
G37*
D11*
X147000000Y-109500000D03*
D10*
G36*
X140324505Y-108801204D02*
G01*
X140348773Y-108804804D01*
X140372572Y-108810765D01*
X140395671Y-108819030D01*
X140417850Y-108829520D01*
X140438893Y-108842132D01*
X140458599Y-108856747D01*
X140476777Y-108873223D01*
X140493253Y-108891401D01*
X140507868Y-108911107D01*
X140520480Y-108932150D01*
X140530970Y-108954329D01*
X140539235Y-108977428D01*
X140545196Y-109001227D01*
X140548796Y-109025495D01*
X140550000Y-109049999D01*
X140550000Y-109950001D01*
X140548796Y-109974505D01*
X140545196Y-109998773D01*
X140539235Y-110022572D01*
X140530970Y-110045671D01*
X140520480Y-110067850D01*
X140507868Y-110088893D01*
X140493253Y-110108599D01*
X140476777Y-110126777D01*
X140458599Y-110143253D01*
X140438893Y-110157868D01*
X140417850Y-110170480D01*
X140395671Y-110180970D01*
X140372572Y-110189235D01*
X140348773Y-110195196D01*
X140324505Y-110198796D01*
X140300001Y-110200000D01*
X139649999Y-110200000D01*
X139625495Y-110198796D01*
X139601227Y-110195196D01*
X139577428Y-110189235D01*
X139554329Y-110180970D01*
X139532150Y-110170480D01*
X139511107Y-110157868D01*
X139491401Y-110143253D01*
X139473223Y-110126777D01*
X139456747Y-110108599D01*
X139442132Y-110088893D01*
X139429520Y-110067850D01*
X139419030Y-110045671D01*
X139410765Y-110022572D01*
X139404804Y-109998773D01*
X139401204Y-109974505D01*
X139400000Y-109950001D01*
X139400000Y-109049999D01*
X139401204Y-109025495D01*
X139404804Y-109001227D01*
X139410765Y-108977428D01*
X139419030Y-108954329D01*
X139429520Y-108932150D01*
X139442132Y-108911107D01*
X139456747Y-108891401D01*
X139473223Y-108873223D01*
X139491401Y-108856747D01*
X139511107Y-108842132D01*
X139532150Y-108829520D01*
X139554329Y-108819030D01*
X139577428Y-108810765D01*
X139601227Y-108804804D01*
X139625495Y-108801204D01*
X139649999Y-108800000D01*
X140300001Y-108800000D01*
X140324505Y-108801204D01*
X140324505Y-108801204D01*
G37*
D11*
X139975000Y-109500000D03*
D10*
G36*
X142374505Y-108801204D02*
G01*
X142398773Y-108804804D01*
X142422572Y-108810765D01*
X142445671Y-108819030D01*
X142467850Y-108829520D01*
X142488893Y-108842132D01*
X142508599Y-108856747D01*
X142526777Y-108873223D01*
X142543253Y-108891401D01*
X142557868Y-108911107D01*
X142570480Y-108932150D01*
X142580970Y-108954329D01*
X142589235Y-108977428D01*
X142595196Y-109001227D01*
X142598796Y-109025495D01*
X142600000Y-109049999D01*
X142600000Y-109950001D01*
X142598796Y-109974505D01*
X142595196Y-109998773D01*
X142589235Y-110022572D01*
X142580970Y-110045671D01*
X142570480Y-110067850D01*
X142557868Y-110088893D01*
X142543253Y-110108599D01*
X142526777Y-110126777D01*
X142508599Y-110143253D01*
X142488893Y-110157868D01*
X142467850Y-110170480D01*
X142445671Y-110180970D01*
X142422572Y-110189235D01*
X142398773Y-110195196D01*
X142374505Y-110198796D01*
X142350001Y-110200000D01*
X141699999Y-110200000D01*
X141675495Y-110198796D01*
X141651227Y-110195196D01*
X141627428Y-110189235D01*
X141604329Y-110180970D01*
X141582150Y-110170480D01*
X141561107Y-110157868D01*
X141541401Y-110143253D01*
X141523223Y-110126777D01*
X141506747Y-110108599D01*
X141492132Y-110088893D01*
X141479520Y-110067850D01*
X141469030Y-110045671D01*
X141460765Y-110022572D01*
X141454804Y-109998773D01*
X141451204Y-109974505D01*
X141450000Y-109950001D01*
X141450000Y-109049999D01*
X141451204Y-109025495D01*
X141454804Y-109001227D01*
X141460765Y-108977428D01*
X141469030Y-108954329D01*
X141479520Y-108932150D01*
X141492132Y-108911107D01*
X141506747Y-108891401D01*
X141523223Y-108873223D01*
X141541401Y-108856747D01*
X141561107Y-108842132D01*
X141582150Y-108829520D01*
X141604329Y-108819030D01*
X141627428Y-108810765D01*
X141651227Y-108804804D01*
X141675495Y-108801204D01*
X141699999Y-108800000D01*
X142350001Y-108800000D01*
X142374505Y-108801204D01*
X142374505Y-108801204D01*
G37*
D11*
X142025000Y-109500000D03*
D12*
X192075000Y-76680000D03*
D13*
X192075000Y-80480000D03*
D14*
X183924000Y-134836000D03*
X183924000Y-130336000D03*
X190424000Y-134836000D03*
X190424000Y-130336000D03*
D15*
X208500000Y-134836000D03*
D14*
X208500000Y-132336000D03*
X208500000Y-129836000D03*
D16*
X201000000Y-137936000D03*
X201000000Y-126736000D03*
D14*
X194000000Y-134836000D03*
X194000000Y-129836000D03*
D17*
X110616000Y-107524000D03*
X107116000Y-97524000D03*
D18*
X114016000Y-98024000D03*
D19*
X109616000Y-104924000D03*
D18*
X102716000Y-102324000D03*
D12*
X192075000Y-96365000D03*
D13*
X192075000Y-100165000D03*
D12*
X192075000Y-56360000D03*
D13*
X192075000Y-60160000D03*
D20*
X138580000Y-86055000D03*
X136040000Y-86055000D03*
X150320000Y-106655000D03*
X147780000Y-86055000D03*
X136040000Y-106655000D03*
X138580000Y-106655000D03*
X150320000Y-86055000D03*
X147780000Y-106655000D03*
D21*
X101980000Y-137630000D03*
X104520000Y-137630000D03*
X107060000Y-137630000D03*
X109600000Y-137630000D03*
X112140000Y-137630000D03*
X114680000Y-137630000D03*
X117220000Y-137630000D03*
X119760000Y-137630000D03*
X122300000Y-137630000D03*
X124840000Y-137630000D03*
X127380000Y-137630000D03*
X129920000Y-137630000D03*
X132460000Y-137630000D03*
X135000000Y-137630000D03*
X137540000Y-137630000D03*
X140080000Y-137630000D03*
X142620000Y-137630000D03*
X145160000Y-137630000D03*
X147700000Y-137630000D03*
X104520000Y-112230000D03*
X107060000Y-112230000D03*
X109600000Y-112230000D03*
X112140000Y-112230000D03*
X114680000Y-112230000D03*
X117220000Y-112230000D03*
X119760000Y-112230000D03*
X122300000Y-112230000D03*
X124840000Y-112230000D03*
X127380000Y-112230000D03*
X129920000Y-112230000D03*
X132460000Y-112230000D03*
X135000000Y-112230000D03*
X137540000Y-112230000D03*
X140080000Y-112230000D03*
X142620000Y-112230000D03*
X101980000Y-112230000D03*
X145160000Y-112230000D03*
D22*
X147700000Y-112230000D03*
D23*
X127610000Y-84290000D03*
X122860000Y-84290000D03*
D10*
G36*
X195470505Y-114441204D02*
G01*
X195494773Y-114444804D01*
X195518572Y-114450765D01*
X195541671Y-114459030D01*
X195563850Y-114469520D01*
X195584893Y-114482132D01*
X195604599Y-114496747D01*
X195622777Y-114513223D01*
X195639253Y-114531401D01*
X195653868Y-114551107D01*
X195666480Y-114572150D01*
X195676970Y-114594329D01*
X195685235Y-114617428D01*
X195691196Y-114641227D01*
X195694796Y-114665495D01*
X195696000Y-114689999D01*
X195696000Y-115340001D01*
X195694796Y-115364505D01*
X195691196Y-115388773D01*
X195685235Y-115412572D01*
X195676970Y-115435671D01*
X195666480Y-115457850D01*
X195653868Y-115478893D01*
X195639253Y-115498599D01*
X195622777Y-115516777D01*
X195604599Y-115533253D01*
X195584893Y-115547868D01*
X195563850Y-115560480D01*
X195541671Y-115570970D01*
X195518572Y-115579235D01*
X195494773Y-115585196D01*
X195470505Y-115588796D01*
X195446001Y-115590000D01*
X194545999Y-115590000D01*
X194521495Y-115588796D01*
X194497227Y-115585196D01*
X194473428Y-115579235D01*
X194450329Y-115570970D01*
X194428150Y-115560480D01*
X194407107Y-115547868D01*
X194387401Y-115533253D01*
X194369223Y-115516777D01*
X194352747Y-115498599D01*
X194338132Y-115478893D01*
X194325520Y-115457850D01*
X194315030Y-115435671D01*
X194306765Y-115412572D01*
X194300804Y-115388773D01*
X194297204Y-115364505D01*
X194296000Y-115340001D01*
X194296000Y-114689999D01*
X194297204Y-114665495D01*
X194300804Y-114641227D01*
X194306765Y-114617428D01*
X194315030Y-114594329D01*
X194325520Y-114572150D01*
X194338132Y-114551107D01*
X194352747Y-114531401D01*
X194369223Y-114513223D01*
X194387401Y-114496747D01*
X194407107Y-114482132D01*
X194428150Y-114469520D01*
X194450329Y-114459030D01*
X194473428Y-114450765D01*
X194497227Y-114444804D01*
X194521495Y-114441204D01*
X194545999Y-114440000D01*
X195446001Y-114440000D01*
X195470505Y-114441204D01*
X195470505Y-114441204D01*
G37*
D11*
X194996000Y-115015000D03*
D10*
G36*
X195470505Y-116491204D02*
G01*
X195494773Y-116494804D01*
X195518572Y-116500765D01*
X195541671Y-116509030D01*
X195563850Y-116519520D01*
X195584893Y-116532132D01*
X195604599Y-116546747D01*
X195622777Y-116563223D01*
X195639253Y-116581401D01*
X195653868Y-116601107D01*
X195666480Y-116622150D01*
X195676970Y-116644329D01*
X195685235Y-116667428D01*
X195691196Y-116691227D01*
X195694796Y-116715495D01*
X195696000Y-116739999D01*
X195696000Y-117390001D01*
X195694796Y-117414505D01*
X195691196Y-117438773D01*
X195685235Y-117462572D01*
X195676970Y-117485671D01*
X195666480Y-117507850D01*
X195653868Y-117528893D01*
X195639253Y-117548599D01*
X195622777Y-117566777D01*
X195604599Y-117583253D01*
X195584893Y-117597868D01*
X195563850Y-117610480D01*
X195541671Y-117620970D01*
X195518572Y-117629235D01*
X195494773Y-117635196D01*
X195470505Y-117638796D01*
X195446001Y-117640000D01*
X194545999Y-117640000D01*
X194521495Y-117638796D01*
X194497227Y-117635196D01*
X194473428Y-117629235D01*
X194450329Y-117620970D01*
X194428150Y-117610480D01*
X194407107Y-117597868D01*
X194387401Y-117583253D01*
X194369223Y-117566777D01*
X194352747Y-117548599D01*
X194338132Y-117528893D01*
X194325520Y-117507850D01*
X194315030Y-117485671D01*
X194306765Y-117462572D01*
X194300804Y-117438773D01*
X194297204Y-117414505D01*
X194296000Y-117390001D01*
X194296000Y-116739999D01*
X194297204Y-116715495D01*
X194300804Y-116691227D01*
X194306765Y-116667428D01*
X194315030Y-116644329D01*
X194325520Y-116622150D01*
X194338132Y-116601107D01*
X194352747Y-116581401D01*
X194369223Y-116563223D01*
X194387401Y-116546747D01*
X194407107Y-116532132D01*
X194428150Y-116519520D01*
X194450329Y-116509030D01*
X194473428Y-116500765D01*
X194497227Y-116494804D01*
X194521495Y-116491204D01*
X194545999Y-116490000D01*
X195446001Y-116490000D01*
X195470505Y-116491204D01*
X195470505Y-116491204D01*
G37*
D11*
X194996000Y-117065000D03*
D10*
G36*
X181754505Y-114949204D02*
G01*
X181778773Y-114952804D01*
X181802572Y-114958765D01*
X181825671Y-114967030D01*
X181847850Y-114977520D01*
X181868893Y-114990132D01*
X181888599Y-115004747D01*
X181906777Y-115021223D01*
X181923253Y-115039401D01*
X181937868Y-115059107D01*
X181950480Y-115080150D01*
X181960970Y-115102329D01*
X181969235Y-115125428D01*
X181975196Y-115149227D01*
X181978796Y-115173495D01*
X181980000Y-115197999D01*
X181980000Y-115848001D01*
X181978796Y-115872505D01*
X181975196Y-115896773D01*
X181969235Y-115920572D01*
X181960970Y-115943671D01*
X181950480Y-115965850D01*
X181937868Y-115986893D01*
X181923253Y-116006599D01*
X181906777Y-116024777D01*
X181888599Y-116041253D01*
X181868893Y-116055868D01*
X181847850Y-116068480D01*
X181825671Y-116078970D01*
X181802572Y-116087235D01*
X181778773Y-116093196D01*
X181754505Y-116096796D01*
X181730001Y-116098000D01*
X180829999Y-116098000D01*
X180805495Y-116096796D01*
X180781227Y-116093196D01*
X180757428Y-116087235D01*
X180734329Y-116078970D01*
X180712150Y-116068480D01*
X180691107Y-116055868D01*
X180671401Y-116041253D01*
X180653223Y-116024777D01*
X180636747Y-116006599D01*
X180622132Y-115986893D01*
X180609520Y-115965850D01*
X180599030Y-115943671D01*
X180590765Y-115920572D01*
X180584804Y-115896773D01*
X180581204Y-115872505D01*
X180580000Y-115848001D01*
X180580000Y-115197999D01*
X180581204Y-115173495D01*
X180584804Y-115149227D01*
X180590765Y-115125428D01*
X180599030Y-115102329D01*
X180609520Y-115080150D01*
X180622132Y-115059107D01*
X180636747Y-115039401D01*
X180653223Y-115021223D01*
X180671401Y-115004747D01*
X180691107Y-114990132D01*
X180712150Y-114977520D01*
X180734329Y-114967030D01*
X180757428Y-114958765D01*
X180781227Y-114952804D01*
X180805495Y-114949204D01*
X180829999Y-114948000D01*
X181730001Y-114948000D01*
X181754505Y-114949204D01*
X181754505Y-114949204D01*
G37*
D11*
X181280000Y-115523000D03*
D10*
G36*
X181754505Y-116999204D02*
G01*
X181778773Y-117002804D01*
X181802572Y-117008765D01*
X181825671Y-117017030D01*
X181847850Y-117027520D01*
X181868893Y-117040132D01*
X181888599Y-117054747D01*
X181906777Y-117071223D01*
X181923253Y-117089401D01*
X181937868Y-117109107D01*
X181950480Y-117130150D01*
X181960970Y-117152329D01*
X181969235Y-117175428D01*
X181975196Y-117199227D01*
X181978796Y-117223495D01*
X181980000Y-117247999D01*
X181980000Y-117898001D01*
X181978796Y-117922505D01*
X181975196Y-117946773D01*
X181969235Y-117970572D01*
X181960970Y-117993671D01*
X181950480Y-118015850D01*
X181937868Y-118036893D01*
X181923253Y-118056599D01*
X181906777Y-118074777D01*
X181888599Y-118091253D01*
X181868893Y-118105868D01*
X181847850Y-118118480D01*
X181825671Y-118128970D01*
X181802572Y-118137235D01*
X181778773Y-118143196D01*
X181754505Y-118146796D01*
X181730001Y-118148000D01*
X180829999Y-118148000D01*
X180805495Y-118146796D01*
X180781227Y-118143196D01*
X180757428Y-118137235D01*
X180734329Y-118128970D01*
X180712150Y-118118480D01*
X180691107Y-118105868D01*
X180671401Y-118091253D01*
X180653223Y-118074777D01*
X180636747Y-118056599D01*
X180622132Y-118036893D01*
X180609520Y-118015850D01*
X180599030Y-117993671D01*
X180590765Y-117970572D01*
X180584804Y-117946773D01*
X180581204Y-117922505D01*
X180580000Y-117898001D01*
X180580000Y-117247999D01*
X180581204Y-117223495D01*
X180584804Y-117199227D01*
X180590765Y-117175428D01*
X180599030Y-117152329D01*
X180609520Y-117130150D01*
X180622132Y-117109107D01*
X180636747Y-117089401D01*
X180653223Y-117071223D01*
X180671401Y-117054747D01*
X180691107Y-117040132D01*
X180712150Y-117027520D01*
X180734329Y-117017030D01*
X180757428Y-117008765D01*
X180781227Y-117002804D01*
X180805495Y-116999204D01*
X180829999Y-116998000D01*
X181730001Y-116998000D01*
X181754505Y-116999204D01*
X181754505Y-116999204D01*
G37*
D11*
X181280000Y-117573000D03*
D10*
G36*
X162949505Y-116600204D02*
G01*
X162973773Y-116603804D01*
X162997572Y-116609765D01*
X163020671Y-116618030D01*
X163042850Y-116628520D01*
X163063893Y-116641132D01*
X163083599Y-116655747D01*
X163101777Y-116672223D01*
X163118253Y-116690401D01*
X163132868Y-116710107D01*
X163145480Y-116731150D01*
X163155970Y-116753329D01*
X163164235Y-116776428D01*
X163170196Y-116800227D01*
X163173796Y-116824495D01*
X163175000Y-116848999D01*
X163175000Y-117499001D01*
X163173796Y-117523505D01*
X163170196Y-117547773D01*
X163164235Y-117571572D01*
X163155970Y-117594671D01*
X163145480Y-117616850D01*
X163132868Y-117637893D01*
X163118253Y-117657599D01*
X163101777Y-117675777D01*
X163083599Y-117692253D01*
X163063893Y-117706868D01*
X163042850Y-117719480D01*
X163020671Y-117729970D01*
X162997572Y-117738235D01*
X162973773Y-117744196D01*
X162949505Y-117747796D01*
X162925001Y-117749000D01*
X162024999Y-117749000D01*
X162000495Y-117747796D01*
X161976227Y-117744196D01*
X161952428Y-117738235D01*
X161929329Y-117729970D01*
X161907150Y-117719480D01*
X161886107Y-117706868D01*
X161866401Y-117692253D01*
X161848223Y-117675777D01*
X161831747Y-117657599D01*
X161817132Y-117637893D01*
X161804520Y-117616850D01*
X161794030Y-117594671D01*
X161785765Y-117571572D01*
X161779804Y-117547773D01*
X161776204Y-117523505D01*
X161775000Y-117499001D01*
X161775000Y-116848999D01*
X161776204Y-116824495D01*
X161779804Y-116800227D01*
X161785765Y-116776428D01*
X161794030Y-116753329D01*
X161804520Y-116731150D01*
X161817132Y-116710107D01*
X161831747Y-116690401D01*
X161848223Y-116672223D01*
X161866401Y-116655747D01*
X161886107Y-116641132D01*
X161907150Y-116628520D01*
X161929329Y-116618030D01*
X161952428Y-116609765D01*
X161976227Y-116603804D01*
X162000495Y-116600204D01*
X162024999Y-116599000D01*
X162925001Y-116599000D01*
X162949505Y-116600204D01*
X162949505Y-116600204D01*
G37*
D11*
X162475000Y-117174000D03*
D10*
G36*
X162949505Y-118650204D02*
G01*
X162973773Y-118653804D01*
X162997572Y-118659765D01*
X163020671Y-118668030D01*
X163042850Y-118678520D01*
X163063893Y-118691132D01*
X163083599Y-118705747D01*
X163101777Y-118722223D01*
X163118253Y-118740401D01*
X163132868Y-118760107D01*
X163145480Y-118781150D01*
X163155970Y-118803329D01*
X163164235Y-118826428D01*
X163170196Y-118850227D01*
X163173796Y-118874495D01*
X163175000Y-118898999D01*
X163175000Y-119549001D01*
X163173796Y-119573505D01*
X163170196Y-119597773D01*
X163164235Y-119621572D01*
X163155970Y-119644671D01*
X163145480Y-119666850D01*
X163132868Y-119687893D01*
X163118253Y-119707599D01*
X163101777Y-119725777D01*
X163083599Y-119742253D01*
X163063893Y-119756868D01*
X163042850Y-119769480D01*
X163020671Y-119779970D01*
X162997572Y-119788235D01*
X162973773Y-119794196D01*
X162949505Y-119797796D01*
X162925001Y-119799000D01*
X162024999Y-119799000D01*
X162000495Y-119797796D01*
X161976227Y-119794196D01*
X161952428Y-119788235D01*
X161929329Y-119779970D01*
X161907150Y-119769480D01*
X161886107Y-119756868D01*
X161866401Y-119742253D01*
X161848223Y-119725777D01*
X161831747Y-119707599D01*
X161817132Y-119687893D01*
X161804520Y-119666850D01*
X161794030Y-119644671D01*
X161785765Y-119621572D01*
X161779804Y-119597773D01*
X161776204Y-119573505D01*
X161775000Y-119549001D01*
X161775000Y-118898999D01*
X161776204Y-118874495D01*
X161779804Y-118850227D01*
X161785765Y-118826428D01*
X161794030Y-118803329D01*
X161804520Y-118781150D01*
X161817132Y-118760107D01*
X161831747Y-118740401D01*
X161848223Y-118722223D01*
X161866401Y-118705747D01*
X161886107Y-118691132D01*
X161907150Y-118678520D01*
X161929329Y-118668030D01*
X161952428Y-118659765D01*
X161976227Y-118653804D01*
X162000495Y-118650204D01*
X162024999Y-118649000D01*
X162925001Y-118649000D01*
X162949505Y-118650204D01*
X162949505Y-118650204D01*
G37*
D11*
X162475000Y-119224000D03*
D10*
G36*
X202466505Y-119913204D02*
G01*
X202490773Y-119916804D01*
X202514572Y-119922765D01*
X202537671Y-119931030D01*
X202559850Y-119941520D01*
X202580893Y-119954132D01*
X202600599Y-119968747D01*
X202618777Y-119985223D01*
X202635253Y-120003401D01*
X202649868Y-120023107D01*
X202662480Y-120044150D01*
X202672970Y-120066329D01*
X202681235Y-120089428D01*
X202687196Y-120113227D01*
X202690796Y-120137495D01*
X202692000Y-120161999D01*
X202692000Y-121062001D01*
X202690796Y-121086505D01*
X202687196Y-121110773D01*
X202681235Y-121134572D01*
X202672970Y-121157671D01*
X202662480Y-121179850D01*
X202649868Y-121200893D01*
X202635253Y-121220599D01*
X202618777Y-121238777D01*
X202600599Y-121255253D01*
X202580893Y-121269868D01*
X202559850Y-121282480D01*
X202537671Y-121292970D01*
X202514572Y-121301235D01*
X202490773Y-121307196D01*
X202466505Y-121310796D01*
X202442001Y-121312000D01*
X201791999Y-121312000D01*
X201767495Y-121310796D01*
X201743227Y-121307196D01*
X201719428Y-121301235D01*
X201696329Y-121292970D01*
X201674150Y-121282480D01*
X201653107Y-121269868D01*
X201633401Y-121255253D01*
X201615223Y-121238777D01*
X201598747Y-121220599D01*
X201584132Y-121200893D01*
X201571520Y-121179850D01*
X201561030Y-121157671D01*
X201552765Y-121134572D01*
X201546804Y-121110773D01*
X201543204Y-121086505D01*
X201542000Y-121062001D01*
X201542000Y-120161999D01*
X201543204Y-120137495D01*
X201546804Y-120113227D01*
X201552765Y-120089428D01*
X201561030Y-120066329D01*
X201571520Y-120044150D01*
X201584132Y-120023107D01*
X201598747Y-120003401D01*
X201615223Y-119985223D01*
X201633401Y-119968747D01*
X201653107Y-119954132D01*
X201674150Y-119941520D01*
X201696329Y-119931030D01*
X201719428Y-119922765D01*
X201743227Y-119916804D01*
X201767495Y-119913204D01*
X201791999Y-119912000D01*
X202442001Y-119912000D01*
X202466505Y-119913204D01*
X202466505Y-119913204D01*
G37*
D11*
X202117000Y-120612000D03*
D10*
G36*
X200416505Y-119913204D02*
G01*
X200440773Y-119916804D01*
X200464572Y-119922765D01*
X200487671Y-119931030D01*
X200509850Y-119941520D01*
X200530893Y-119954132D01*
X200550599Y-119968747D01*
X200568777Y-119985223D01*
X200585253Y-120003401D01*
X200599868Y-120023107D01*
X200612480Y-120044150D01*
X200622970Y-120066329D01*
X200631235Y-120089428D01*
X200637196Y-120113227D01*
X200640796Y-120137495D01*
X200642000Y-120161999D01*
X200642000Y-121062001D01*
X200640796Y-121086505D01*
X200637196Y-121110773D01*
X200631235Y-121134572D01*
X200622970Y-121157671D01*
X200612480Y-121179850D01*
X200599868Y-121200893D01*
X200585253Y-121220599D01*
X200568777Y-121238777D01*
X200550599Y-121255253D01*
X200530893Y-121269868D01*
X200509850Y-121282480D01*
X200487671Y-121292970D01*
X200464572Y-121301235D01*
X200440773Y-121307196D01*
X200416505Y-121310796D01*
X200392001Y-121312000D01*
X199741999Y-121312000D01*
X199717495Y-121310796D01*
X199693227Y-121307196D01*
X199669428Y-121301235D01*
X199646329Y-121292970D01*
X199624150Y-121282480D01*
X199603107Y-121269868D01*
X199583401Y-121255253D01*
X199565223Y-121238777D01*
X199548747Y-121220599D01*
X199534132Y-121200893D01*
X199521520Y-121179850D01*
X199511030Y-121157671D01*
X199502765Y-121134572D01*
X199496804Y-121110773D01*
X199493204Y-121086505D01*
X199492000Y-121062001D01*
X199492000Y-120161999D01*
X199493204Y-120137495D01*
X199496804Y-120113227D01*
X199502765Y-120089428D01*
X199511030Y-120066329D01*
X199521520Y-120044150D01*
X199534132Y-120023107D01*
X199548747Y-120003401D01*
X199565223Y-119985223D01*
X199583401Y-119968747D01*
X199603107Y-119954132D01*
X199624150Y-119941520D01*
X199646329Y-119931030D01*
X199669428Y-119922765D01*
X199693227Y-119916804D01*
X199717495Y-119913204D01*
X199741999Y-119912000D01*
X200392001Y-119912000D01*
X200416505Y-119913204D01*
X200416505Y-119913204D01*
G37*
D11*
X200067000Y-120612000D03*
D10*
G36*
X188242505Y-119913204D02*
G01*
X188266773Y-119916804D01*
X188290572Y-119922765D01*
X188313671Y-119931030D01*
X188335850Y-119941520D01*
X188356893Y-119954132D01*
X188376599Y-119968747D01*
X188394777Y-119985223D01*
X188411253Y-120003401D01*
X188425868Y-120023107D01*
X188438480Y-120044150D01*
X188448970Y-120066329D01*
X188457235Y-120089428D01*
X188463196Y-120113227D01*
X188466796Y-120137495D01*
X188468000Y-120161999D01*
X188468000Y-121062001D01*
X188466796Y-121086505D01*
X188463196Y-121110773D01*
X188457235Y-121134572D01*
X188448970Y-121157671D01*
X188438480Y-121179850D01*
X188425868Y-121200893D01*
X188411253Y-121220599D01*
X188394777Y-121238777D01*
X188376599Y-121255253D01*
X188356893Y-121269868D01*
X188335850Y-121282480D01*
X188313671Y-121292970D01*
X188290572Y-121301235D01*
X188266773Y-121307196D01*
X188242505Y-121310796D01*
X188218001Y-121312000D01*
X187567999Y-121312000D01*
X187543495Y-121310796D01*
X187519227Y-121307196D01*
X187495428Y-121301235D01*
X187472329Y-121292970D01*
X187450150Y-121282480D01*
X187429107Y-121269868D01*
X187409401Y-121255253D01*
X187391223Y-121238777D01*
X187374747Y-121220599D01*
X187360132Y-121200893D01*
X187347520Y-121179850D01*
X187337030Y-121157671D01*
X187328765Y-121134572D01*
X187322804Y-121110773D01*
X187319204Y-121086505D01*
X187318000Y-121062001D01*
X187318000Y-120161999D01*
X187319204Y-120137495D01*
X187322804Y-120113227D01*
X187328765Y-120089428D01*
X187337030Y-120066329D01*
X187347520Y-120044150D01*
X187360132Y-120023107D01*
X187374747Y-120003401D01*
X187391223Y-119985223D01*
X187409401Y-119968747D01*
X187429107Y-119954132D01*
X187450150Y-119941520D01*
X187472329Y-119931030D01*
X187495428Y-119922765D01*
X187519227Y-119916804D01*
X187543495Y-119913204D01*
X187567999Y-119912000D01*
X188218001Y-119912000D01*
X188242505Y-119913204D01*
X188242505Y-119913204D01*
G37*
D11*
X187893000Y-120612000D03*
D10*
G36*
X186192505Y-119913204D02*
G01*
X186216773Y-119916804D01*
X186240572Y-119922765D01*
X186263671Y-119931030D01*
X186285850Y-119941520D01*
X186306893Y-119954132D01*
X186326599Y-119968747D01*
X186344777Y-119985223D01*
X186361253Y-120003401D01*
X186375868Y-120023107D01*
X186388480Y-120044150D01*
X186398970Y-120066329D01*
X186407235Y-120089428D01*
X186413196Y-120113227D01*
X186416796Y-120137495D01*
X186418000Y-120161999D01*
X186418000Y-121062001D01*
X186416796Y-121086505D01*
X186413196Y-121110773D01*
X186407235Y-121134572D01*
X186398970Y-121157671D01*
X186388480Y-121179850D01*
X186375868Y-121200893D01*
X186361253Y-121220599D01*
X186344777Y-121238777D01*
X186326599Y-121255253D01*
X186306893Y-121269868D01*
X186285850Y-121282480D01*
X186263671Y-121292970D01*
X186240572Y-121301235D01*
X186216773Y-121307196D01*
X186192505Y-121310796D01*
X186168001Y-121312000D01*
X185517999Y-121312000D01*
X185493495Y-121310796D01*
X185469227Y-121307196D01*
X185445428Y-121301235D01*
X185422329Y-121292970D01*
X185400150Y-121282480D01*
X185379107Y-121269868D01*
X185359401Y-121255253D01*
X185341223Y-121238777D01*
X185324747Y-121220599D01*
X185310132Y-121200893D01*
X185297520Y-121179850D01*
X185287030Y-121157671D01*
X185278765Y-121134572D01*
X185272804Y-121110773D01*
X185269204Y-121086505D01*
X185268000Y-121062001D01*
X185268000Y-120161999D01*
X185269204Y-120137495D01*
X185272804Y-120113227D01*
X185278765Y-120089428D01*
X185287030Y-120066329D01*
X185297520Y-120044150D01*
X185310132Y-120023107D01*
X185324747Y-120003401D01*
X185341223Y-119985223D01*
X185359401Y-119968747D01*
X185379107Y-119954132D01*
X185400150Y-119941520D01*
X185422329Y-119931030D01*
X185445428Y-119922765D01*
X185469227Y-119916804D01*
X185493495Y-119913204D01*
X185517999Y-119912000D01*
X186168001Y-119912000D01*
X186192505Y-119913204D01*
X186192505Y-119913204D01*
G37*
D11*
X185843000Y-120612000D03*
D10*
G36*
X171594505Y-115965204D02*
G01*
X171618773Y-115968804D01*
X171642572Y-115974765D01*
X171665671Y-115983030D01*
X171687850Y-115993520D01*
X171708893Y-116006132D01*
X171728599Y-116020747D01*
X171746777Y-116037223D01*
X171763253Y-116055401D01*
X171777868Y-116075107D01*
X171790480Y-116096150D01*
X171800970Y-116118329D01*
X171809235Y-116141428D01*
X171815196Y-116165227D01*
X171818796Y-116189495D01*
X171820000Y-116213999D01*
X171820000Y-116864001D01*
X171818796Y-116888505D01*
X171815196Y-116912773D01*
X171809235Y-116936572D01*
X171800970Y-116959671D01*
X171790480Y-116981850D01*
X171777868Y-117002893D01*
X171763253Y-117022599D01*
X171746777Y-117040777D01*
X171728599Y-117057253D01*
X171708893Y-117071868D01*
X171687850Y-117084480D01*
X171665671Y-117094970D01*
X171642572Y-117103235D01*
X171618773Y-117109196D01*
X171594505Y-117112796D01*
X171570001Y-117114000D01*
X170669999Y-117114000D01*
X170645495Y-117112796D01*
X170621227Y-117109196D01*
X170597428Y-117103235D01*
X170574329Y-117094970D01*
X170552150Y-117084480D01*
X170531107Y-117071868D01*
X170511401Y-117057253D01*
X170493223Y-117040777D01*
X170476747Y-117022599D01*
X170462132Y-117002893D01*
X170449520Y-116981850D01*
X170439030Y-116959671D01*
X170430765Y-116936572D01*
X170424804Y-116912773D01*
X170421204Y-116888505D01*
X170420000Y-116864001D01*
X170420000Y-116213999D01*
X170421204Y-116189495D01*
X170424804Y-116165227D01*
X170430765Y-116141428D01*
X170439030Y-116118329D01*
X170449520Y-116096150D01*
X170462132Y-116075107D01*
X170476747Y-116055401D01*
X170493223Y-116037223D01*
X170511401Y-116020747D01*
X170531107Y-116006132D01*
X170552150Y-115993520D01*
X170574329Y-115983030D01*
X170597428Y-115974765D01*
X170621227Y-115968804D01*
X170645495Y-115965204D01*
X170669999Y-115964000D01*
X171570001Y-115964000D01*
X171594505Y-115965204D01*
X171594505Y-115965204D01*
G37*
D11*
X171120000Y-116539000D03*
D10*
G36*
X171594505Y-118015204D02*
G01*
X171618773Y-118018804D01*
X171642572Y-118024765D01*
X171665671Y-118033030D01*
X171687850Y-118043520D01*
X171708893Y-118056132D01*
X171728599Y-118070747D01*
X171746777Y-118087223D01*
X171763253Y-118105401D01*
X171777868Y-118125107D01*
X171790480Y-118146150D01*
X171800970Y-118168329D01*
X171809235Y-118191428D01*
X171815196Y-118215227D01*
X171818796Y-118239495D01*
X171820000Y-118263999D01*
X171820000Y-118914001D01*
X171818796Y-118938505D01*
X171815196Y-118962773D01*
X171809235Y-118986572D01*
X171800970Y-119009671D01*
X171790480Y-119031850D01*
X171777868Y-119052893D01*
X171763253Y-119072599D01*
X171746777Y-119090777D01*
X171728599Y-119107253D01*
X171708893Y-119121868D01*
X171687850Y-119134480D01*
X171665671Y-119144970D01*
X171642572Y-119153235D01*
X171618773Y-119159196D01*
X171594505Y-119162796D01*
X171570001Y-119164000D01*
X170669999Y-119164000D01*
X170645495Y-119162796D01*
X170621227Y-119159196D01*
X170597428Y-119153235D01*
X170574329Y-119144970D01*
X170552150Y-119134480D01*
X170531107Y-119121868D01*
X170511401Y-119107253D01*
X170493223Y-119090777D01*
X170476747Y-119072599D01*
X170462132Y-119052893D01*
X170449520Y-119031850D01*
X170439030Y-119009671D01*
X170430765Y-118986572D01*
X170424804Y-118962773D01*
X170421204Y-118938505D01*
X170420000Y-118914001D01*
X170420000Y-118263999D01*
X170421204Y-118239495D01*
X170424804Y-118215227D01*
X170430765Y-118191428D01*
X170439030Y-118168329D01*
X170449520Y-118146150D01*
X170462132Y-118125107D01*
X170476747Y-118105401D01*
X170493223Y-118087223D01*
X170511401Y-118070747D01*
X170531107Y-118056132D01*
X170552150Y-118043520D01*
X170574329Y-118033030D01*
X170597428Y-118024765D01*
X170621227Y-118018804D01*
X170645495Y-118015204D01*
X170669999Y-118014000D01*
X171570001Y-118014000D01*
X171594505Y-118015204D01*
X171594505Y-118015204D01*
G37*
D11*
X171120000Y-118589000D03*
D10*
G36*
X103649505Y-56801204D02*
G01*
X103673773Y-56804804D01*
X103697572Y-56810765D01*
X103720671Y-56819030D01*
X103742850Y-56829520D01*
X103763893Y-56842132D01*
X103783599Y-56856747D01*
X103801777Y-56873223D01*
X103818253Y-56891401D01*
X103832868Y-56911107D01*
X103845480Y-56932150D01*
X103855970Y-56954329D01*
X103864235Y-56977428D01*
X103870196Y-57001227D01*
X103873796Y-57025495D01*
X103875000Y-57049999D01*
X103875000Y-57700001D01*
X103873796Y-57724505D01*
X103870196Y-57748773D01*
X103864235Y-57772572D01*
X103855970Y-57795671D01*
X103845480Y-57817850D01*
X103832868Y-57838893D01*
X103818253Y-57858599D01*
X103801777Y-57876777D01*
X103783599Y-57893253D01*
X103763893Y-57907868D01*
X103742850Y-57920480D01*
X103720671Y-57930970D01*
X103697572Y-57939235D01*
X103673773Y-57945196D01*
X103649505Y-57948796D01*
X103625001Y-57950000D01*
X102724999Y-57950000D01*
X102700495Y-57948796D01*
X102676227Y-57945196D01*
X102652428Y-57939235D01*
X102629329Y-57930970D01*
X102607150Y-57920480D01*
X102586107Y-57907868D01*
X102566401Y-57893253D01*
X102548223Y-57876777D01*
X102531747Y-57858599D01*
X102517132Y-57838893D01*
X102504520Y-57817850D01*
X102494030Y-57795671D01*
X102485765Y-57772572D01*
X102479804Y-57748773D01*
X102476204Y-57724505D01*
X102475000Y-57700001D01*
X102475000Y-57049999D01*
X102476204Y-57025495D01*
X102479804Y-57001227D01*
X102485765Y-56977428D01*
X102494030Y-56954329D01*
X102504520Y-56932150D01*
X102517132Y-56911107D01*
X102531747Y-56891401D01*
X102548223Y-56873223D01*
X102566401Y-56856747D01*
X102586107Y-56842132D01*
X102607150Y-56829520D01*
X102629329Y-56819030D01*
X102652428Y-56810765D01*
X102676227Y-56804804D01*
X102700495Y-56801204D01*
X102724999Y-56800000D01*
X103625001Y-56800000D01*
X103649505Y-56801204D01*
X103649505Y-56801204D01*
G37*
D11*
X103175000Y-57375000D03*
D10*
G36*
X103649505Y-54751204D02*
G01*
X103673773Y-54754804D01*
X103697572Y-54760765D01*
X103720671Y-54769030D01*
X103742850Y-54779520D01*
X103763893Y-54792132D01*
X103783599Y-54806747D01*
X103801777Y-54823223D01*
X103818253Y-54841401D01*
X103832868Y-54861107D01*
X103845480Y-54882150D01*
X103855970Y-54904329D01*
X103864235Y-54927428D01*
X103870196Y-54951227D01*
X103873796Y-54975495D01*
X103875000Y-54999999D01*
X103875000Y-55650001D01*
X103873796Y-55674505D01*
X103870196Y-55698773D01*
X103864235Y-55722572D01*
X103855970Y-55745671D01*
X103845480Y-55767850D01*
X103832868Y-55788893D01*
X103818253Y-55808599D01*
X103801777Y-55826777D01*
X103783599Y-55843253D01*
X103763893Y-55857868D01*
X103742850Y-55870480D01*
X103720671Y-55880970D01*
X103697572Y-55889235D01*
X103673773Y-55895196D01*
X103649505Y-55898796D01*
X103625001Y-55900000D01*
X102724999Y-55900000D01*
X102700495Y-55898796D01*
X102676227Y-55895196D01*
X102652428Y-55889235D01*
X102629329Y-55880970D01*
X102607150Y-55870480D01*
X102586107Y-55857868D01*
X102566401Y-55843253D01*
X102548223Y-55826777D01*
X102531747Y-55808599D01*
X102517132Y-55788893D01*
X102504520Y-55767850D01*
X102494030Y-55745671D01*
X102485765Y-55722572D01*
X102479804Y-55698773D01*
X102476204Y-55674505D01*
X102475000Y-55650001D01*
X102475000Y-54999999D01*
X102476204Y-54975495D01*
X102479804Y-54951227D01*
X102485765Y-54927428D01*
X102494030Y-54904329D01*
X102504520Y-54882150D01*
X102517132Y-54861107D01*
X102531747Y-54841401D01*
X102548223Y-54823223D01*
X102566401Y-54806747D01*
X102586107Y-54792132D01*
X102607150Y-54779520D01*
X102629329Y-54769030D01*
X102652428Y-54760765D01*
X102676227Y-54754804D01*
X102700495Y-54751204D01*
X102724999Y-54750000D01*
X103625001Y-54750000D01*
X103649505Y-54751204D01*
X103649505Y-54751204D01*
G37*
D11*
X103175000Y-55325000D03*
D24*
X201092000Y-115040000D03*
X202042000Y-117040000D03*
X200142000Y-117040000D03*
X186868000Y-115040000D03*
X187818000Y-117040000D03*
X185918000Y-117040000D03*
D25*
X166310000Y-117564000D03*
X168310000Y-116614000D03*
X168310000Y-118514000D03*
D24*
X107620000Y-57350000D03*
X106670000Y-55350000D03*
X108570000Y-55350000D03*
D26*
X142010000Y-70260000D03*
X137010000Y-70260000D03*
X137010000Y-62760000D03*
X142010000Y-62760000D03*
D27*
X117010000Y-70260000D03*
D26*
X117010000Y-62760000D03*
D28*
X206000000Y-107070000D03*
D29*
X206000000Y-102070000D03*
X206000000Y-97070000D03*
D28*
X206045000Y-87465000D03*
D29*
X206045000Y-82465000D03*
X206045000Y-77465000D03*
X206000000Y-54500000D03*
X206000000Y-59500000D03*
D28*
X206000000Y-64500000D03*
D29*
X105080000Y-91750000D03*
D28*
X105080000Y-81750000D03*
D30*
X161850000Y-101700000D03*
X171500000Y-101700000D03*
X161215000Y-80110000D03*
X170865000Y-80110000D03*
X161215000Y-58520000D03*
X170865000Y-58520000D03*
D31*
X108890000Y-64010000D03*
X108890000Y-69010000D03*
D32*
X127265000Y-101435000D03*
X122265000Y-101435000D03*
X137505000Y-79210000D03*
X142505000Y-79210000D03*
D33*
X105080000Y-55080000D03*
X205918000Y-132042000D03*
X117010000Y-74138000D03*
X117010000Y-91918000D03*
X201092000Y-113500000D03*
X167564000Y-121628000D03*
X186868000Y-113500000D03*
X187884000Y-123660000D03*
X202117000Y-124159000D03*
X166548000Y-115024000D03*
D14*
X160452000Y-115445000D03*
D33*
X192000000Y-126500000D03*
D34*
X105350000Y-55350000D02*
X105080000Y-55080000D01*
X106670000Y-55350000D02*
X105350000Y-55350000D01*
X147623372Y-105911628D02*
X147780000Y-105755000D01*
X147623372Y-108876628D02*
X147623372Y-105911628D01*
X147000000Y-109500000D02*
X147623372Y-108876628D01*
X145770000Y-105755000D02*
X147780000Y-105755000D01*
X142025000Y-109500000D02*
X145770000Y-105755000D01*
X140045000Y-85490000D02*
X138580000Y-86955000D01*
X142505000Y-83030000D02*
X142505000Y-79210000D01*
X138580000Y-86955000D02*
X142505000Y-83030000D01*
X136040000Y-86955000D02*
X138580000Y-86955000D01*
D35*
X115760000Y-69010000D02*
X117010000Y-70260000D01*
X108890000Y-69010000D02*
X115760000Y-69010000D01*
X117010000Y-92030000D02*
X117010000Y-91918000D01*
X126415000Y-101435000D02*
X117010000Y-92030000D01*
X127265000Y-101435000D02*
X126415000Y-101435000D01*
X138580000Y-105755000D02*
X136040000Y-105755000D01*
X117010000Y-74138000D02*
X117010000Y-70260000D01*
X136000000Y-101500000D02*
X127265000Y-101435000D01*
X136040000Y-105755000D02*
X136000000Y-101500000D01*
D34*
X107366000Y-101308000D02*
X122265000Y-101435000D01*
X101980000Y-112230000D02*
X107366000Y-101308000D01*
D35*
X110140000Y-62760000D02*
X108890000Y-64010000D01*
X117010000Y-62760000D02*
X110140000Y-62760000D01*
X107620000Y-62740000D02*
X108890000Y-64010000D01*
X107620000Y-57350000D02*
X107620000Y-62740000D01*
D34*
X107624999Y-54354999D02*
X104145001Y-54354999D01*
X108570000Y-55300000D02*
X107624999Y-54354999D01*
X104145001Y-54354999D02*
X103175000Y-55325000D01*
X108570000Y-55350000D02*
X108570000Y-55300000D01*
D35*
X201092000Y-113500000D02*
X201092000Y-115040000D01*
D34*
X201067000Y-115015000D02*
X201092000Y-115040000D01*
X194996000Y-115015000D02*
X201067000Y-115015000D01*
X171045000Y-116614000D02*
X171120000Y-116539000D01*
X168310000Y-116614000D02*
X171045000Y-116614000D01*
X167534999Y-117339001D02*
X167534999Y-121598999D01*
X168310000Y-116614000D02*
X168260000Y-116614000D01*
X168260000Y-116614000D02*
X167534999Y-117339001D01*
X167534999Y-121598999D02*
X167564000Y-121628000D01*
X147700000Y-113260000D02*
X148260000Y-113820000D01*
X147700000Y-112230000D02*
X147700000Y-113260000D01*
X171045000Y-118514000D02*
X171120000Y-118589000D01*
X168310000Y-118514000D02*
X171045000Y-118514000D01*
X171120000Y-118589000D02*
X172644000Y-117065000D01*
X172644000Y-114008000D02*
X172456000Y-113820000D01*
X172644000Y-117065000D02*
X172644000Y-114008000D01*
X148260000Y-113820000D02*
X172456000Y-113820000D01*
X185918000Y-120537000D02*
X185843000Y-120612000D01*
X185918000Y-117040000D02*
X185918000Y-120537000D01*
X172456000Y-113820000D02*
X173501001Y-112774999D01*
X188609001Y-114734001D02*
X188609001Y-112774999D01*
X187528001Y-115815001D02*
X188609001Y-114734001D01*
X187092999Y-115815001D02*
X187528001Y-115815001D01*
X185918000Y-116990000D02*
X187092999Y-115815001D01*
X185918000Y-117040000D02*
X185918000Y-116990000D01*
X173501001Y-112774999D02*
X188609001Y-112774999D01*
X200142000Y-116990000D02*
X200142000Y-117040000D01*
X200792000Y-116340000D02*
X200142000Y-116990000D01*
X201227002Y-116340000D02*
X200792000Y-116340000D01*
X201817001Y-115750001D02*
X201227002Y-116340000D01*
X201817001Y-113151999D02*
X201817001Y-115750001D01*
X201440001Y-112774999D02*
X201817001Y-113151999D01*
X188609001Y-112774999D02*
X201440001Y-112774999D01*
X200142000Y-120537000D02*
X200067000Y-120612000D01*
X200142000Y-117040000D02*
X200142000Y-120537000D01*
X186868000Y-113500000D02*
X186868000Y-115040000D01*
X186852000Y-115024000D02*
X186868000Y-115040000D01*
X182305000Y-115024000D02*
X186852000Y-115024000D01*
X182180628Y-114899628D02*
X182305000Y-115024000D01*
X181903372Y-114899628D02*
X182180628Y-114899628D01*
X181280000Y-115523000D02*
X181903372Y-114899628D01*
X187818000Y-120537000D02*
X187893000Y-120612000D01*
X187818000Y-117040000D02*
X187818000Y-120537000D01*
X187893000Y-120612000D02*
X187893000Y-123651000D01*
X187893000Y-123651000D02*
X187884000Y-123660000D01*
X202042000Y-120537000D02*
X202117000Y-120612000D01*
X202042000Y-117040000D02*
X202042000Y-120537000D01*
X202117000Y-120612000D02*
X202117000Y-124159000D01*
X100874999Y-128904999D02*
X109600000Y-137630000D01*
X100874999Y-59675001D02*
X100874999Y-128904999D01*
X103175000Y-57375000D02*
X100874999Y-59675001D01*
X165920000Y-117174000D02*
X166310000Y-117564000D01*
X162475000Y-117174000D02*
X165920000Y-117174000D01*
X166548000Y-117326000D02*
X166310000Y-117564000D01*
X166548000Y-115024000D02*
X166548000Y-117326000D01*
D36*
X170865000Y-80110000D02*
X171465000Y-80110000D01*
D37*
X199060000Y-87465000D02*
X206045000Y-87465000D01*
X192075000Y-80480000D02*
X199060000Y-87465000D01*
D36*
X170865000Y-58520000D02*
X171465000Y-58520000D01*
D37*
X190250999Y-61960001D02*
X192075000Y-61960001D01*
X181055001Y-61960001D02*
X190250999Y-61960001D01*
X170865000Y-58520000D02*
X177615000Y-58520000D01*
X177615000Y-58520000D02*
X181055001Y-61960001D01*
X192895998Y-64605000D02*
X206680000Y-64605000D01*
X190250999Y-61960001D02*
X192895998Y-64605000D01*
X192075000Y-103789002D02*
X192075000Y-101965001D01*
X188014002Y-107850000D02*
X192075000Y-103789002D01*
X178250000Y-107850000D02*
X188014002Y-107850000D01*
X171500000Y-101700000D02*
X172100000Y-101700000D01*
X172100000Y-101700000D02*
X178250000Y-107850000D01*
X195355998Y-107070000D02*
X206680000Y-107070000D01*
X192075000Y-103789002D02*
X195355998Y-107070000D01*
D34*
X194996000Y-118065002D02*
X194996000Y-117065000D01*
X188376001Y-124685001D02*
X194996000Y-118065002D01*
X181289001Y-124685001D02*
X188376001Y-124685001D01*
X181280000Y-124676000D02*
X181289001Y-124685001D01*
X181280000Y-117573000D02*
X181280000Y-124676000D01*
X165904001Y-122653001D02*
X162475000Y-119224000D01*
X176199999Y-122653001D02*
X165904001Y-122653001D01*
X181280000Y-117573000D02*
X176199999Y-122653001D01*
X165904001Y-122653001D02*
X160452000Y-117201000D01*
X160452000Y-117201000D02*
X160452000Y-115445000D01*
X123079999Y-113009999D02*
X122300000Y-112230000D01*
X143580999Y-133510999D02*
X122300000Y-112230000D01*
X209220000Y-134836000D02*
X201484998Y-134836000D01*
X200159997Y-133510999D02*
X143580999Y-133510999D01*
X201484998Y-134836000D02*
X200159997Y-133510999D01*
X141120999Y-128510999D02*
X124840000Y-112230000D01*
X207894999Y-128510999D02*
X141120999Y-128510999D01*
X209220000Y-129836000D02*
X207894999Y-128510999D01*
X192000000Y-126500000D02*
X141650000Y-126500000D01*
X127380000Y-112230000D02*
X141650000Y-126500000D01*
X142366000Y-134836000D02*
X183924000Y-134836000D01*
X119760000Y-112230000D02*
X142366000Y-134836000D01*
X189424001Y-135835999D02*
X190424000Y-134836000D01*
X184923999Y-135835999D02*
X189424001Y-135835999D01*
X183924000Y-134836000D02*
X184923999Y-135835999D01*
X140080000Y-109605000D02*
X139975000Y-109500000D01*
X140080000Y-112230000D02*
X140080000Y-109605000D01*
X144950000Y-109900000D02*
X144950000Y-109500000D01*
X142620000Y-112230000D02*
X144950000Y-109900000D01*
D38*
G36*
X114960000Y-73338260D02*
G01*
X114894545Y-73496284D01*
X114810000Y-73921319D01*
X114810000Y-74354681D01*
X114894545Y-74779716D01*
X115060385Y-75180091D01*
X115301148Y-75540418D01*
X115607582Y-75846852D01*
X115967909Y-76087615D01*
X116368284Y-76253455D01*
X116793319Y-76338000D01*
X117226681Y-76338000D01*
X117651716Y-76253455D01*
X118052091Y-76087615D01*
X118412418Y-75846852D01*
X118718852Y-75540418D01*
X118959615Y-75180091D01*
X119125455Y-74779716D01*
X119210000Y-74354681D01*
X119210000Y-73921319D01*
X119125455Y-73496284D01*
X119060000Y-73338261D01*
X119060000Y-73160000D01*
X123830000Y-73160000D01*
X123830000Y-89324000D01*
X106939090Y-89324000D01*
X106524717Y-89047125D01*
X105969652Y-88817209D01*
X105380399Y-88700000D01*
X104779601Y-88700000D01*
X104190348Y-88817209D01*
X103635283Y-89047125D01*
X103220910Y-89324000D01*
X102799999Y-89324000D01*
X102799999Y-73160000D01*
X114960000Y-73160000D01*
X114960000Y-73338260D01*
X114960000Y-73338260D01*
G37*
X114960000Y-73338260D02*
X114894545Y-73496284D01*
X114810000Y-73921319D01*
X114810000Y-74354681D01*
X114894545Y-74779716D01*
X115060385Y-75180091D01*
X115301148Y-75540418D01*
X115607582Y-75846852D01*
X115967909Y-76087615D01*
X116368284Y-76253455D01*
X116793319Y-76338000D01*
X117226681Y-76338000D01*
X117651716Y-76253455D01*
X118052091Y-76087615D01*
X118412418Y-75846852D01*
X118718852Y-75540418D01*
X118959615Y-75180091D01*
X119125455Y-74779716D01*
X119210000Y-74354681D01*
X119210000Y-73921319D01*
X119125455Y-73496284D01*
X119060000Y-73338261D01*
X119060000Y-73160000D01*
X123830000Y-73160000D01*
X123830000Y-89324000D01*
X106939090Y-89324000D01*
X106524717Y-89047125D01*
X105969652Y-88817209D01*
X105380399Y-88700000D01*
X104779601Y-88700000D01*
X104190348Y-88817209D01*
X103635283Y-89047125D01*
X103220910Y-89324000D01*
X102799999Y-89324000D01*
X102799999Y-73160000D01*
X114960000Y-73160000D01*
X114960000Y-73338260D01*
D39*
G36*
X138161435Y-82820128D02*
G01*
X137430000Y-82820128D01*
X137310000Y-82831947D01*
X137190000Y-82820128D01*
X134890000Y-82820128D01*
X134571052Y-82851542D01*
X134264362Y-82944575D01*
X133981714Y-83095654D01*
X133733971Y-83298971D01*
X133530654Y-83546714D01*
X133379575Y-83829362D01*
X133286542Y-84136052D01*
X133255128Y-84455000D01*
X133255128Y-87655000D01*
X133261432Y-87719000D01*
X126033354Y-87719000D01*
X125655667Y-58763000D01*
X137847646Y-58763000D01*
X138161435Y-82820128D01*
X138161435Y-82820128D01*
G37*
X138161435Y-82820128D02*
X137430000Y-82820128D01*
X137310000Y-82831947D01*
X137190000Y-82820128D01*
X134890000Y-82820128D01*
X134571052Y-82851542D01*
X134264362Y-82944575D01*
X133981714Y-83095654D01*
X133733971Y-83298971D01*
X133530654Y-83546714D01*
X133379575Y-83829362D01*
X133286542Y-84136052D01*
X133255128Y-84455000D01*
X133255128Y-87655000D01*
X133261432Y-87719000D01*
X126033354Y-87719000D01*
X125655667Y-58763000D01*
X137847646Y-58763000D01*
X138161435Y-82820128D01*
G36*
X165913000Y-54593000D02*
G01*
X165741867Y-54593000D01*
X165157057Y-54709326D01*
X164606178Y-54937508D01*
X164110400Y-55268776D01*
X163688776Y-55690400D01*
X163357508Y-56186178D01*
X163129326Y-56737057D01*
X163013000Y-57321867D01*
X163013000Y-57918133D01*
X163129326Y-58502943D01*
X163357508Y-59053822D01*
X163688776Y-59549600D01*
X164110400Y-59971224D01*
X164606178Y-60302492D01*
X165157057Y-60530674D01*
X165741867Y-60647000D01*
X165913000Y-60647000D01*
X165913000Y-76183000D01*
X165741867Y-76183000D01*
X165157057Y-76299326D01*
X164606178Y-76527508D01*
X164110400Y-76858776D01*
X163688776Y-77280400D01*
X163357508Y-77776178D01*
X163129326Y-78327057D01*
X163013000Y-78911867D01*
X163013000Y-79508133D01*
X163129326Y-80092943D01*
X163357508Y-80643822D01*
X163688776Y-81139600D01*
X164110400Y-81561224D01*
X164606178Y-81892492D01*
X165157057Y-82120674D01*
X165741867Y-82237000D01*
X165913000Y-82237000D01*
X165913000Y-97865269D01*
X165792057Y-97889326D01*
X165241178Y-98117508D01*
X164745400Y-98448776D01*
X164323776Y-98870400D01*
X163992508Y-99366178D01*
X163764326Y-99917057D01*
X163648000Y-100501867D01*
X163648000Y-101098133D01*
X163764326Y-101682943D01*
X163992508Y-102233822D01*
X164323776Y-102729600D01*
X164745400Y-103151224D01*
X165241178Y-103482492D01*
X165792057Y-103710674D01*
X165913000Y-103734731D01*
X165913000Y-106337976D01*
X140258758Y-97660806D01*
X140236260Y-89201638D01*
X140355638Y-89165425D01*
X140638286Y-89014346D01*
X140886029Y-88811029D01*
X141089346Y-88563286D01*
X141240425Y-88280638D01*
X141333458Y-87973948D01*
X141364872Y-87655000D01*
X141364872Y-86647830D01*
X143557702Y-84455000D01*
X144995128Y-84455000D01*
X144995128Y-87655000D01*
X145026542Y-87973948D01*
X145119575Y-88280638D01*
X145270654Y-88563286D01*
X145473971Y-88811029D01*
X145721714Y-89014346D01*
X146004362Y-89165425D01*
X146311052Y-89258458D01*
X146630000Y-89289872D01*
X148930000Y-89289872D01*
X149050000Y-89278053D01*
X149170000Y-89289872D01*
X151470000Y-89289872D01*
X151788948Y-89258458D01*
X152095638Y-89165425D01*
X152378286Y-89014346D01*
X152626029Y-88811029D01*
X152829346Y-88563286D01*
X152980425Y-88280638D01*
X153073458Y-87973948D01*
X153104872Y-87655000D01*
X153104872Y-84455000D01*
X153073458Y-84136052D01*
X152980425Y-83829362D01*
X152829346Y-83546714D01*
X152626029Y-83298971D01*
X152378286Y-83095654D01*
X152095638Y-82944575D01*
X151788948Y-82851542D01*
X151470000Y-82820128D01*
X149170000Y-82820128D01*
X149050000Y-82831947D01*
X148930000Y-82820128D01*
X146630000Y-82820128D01*
X146311052Y-82851542D01*
X146004362Y-82944575D01*
X145721714Y-83095654D01*
X145473971Y-83298971D01*
X145270654Y-83546714D01*
X145119575Y-83829362D01*
X145026542Y-84136052D01*
X144995128Y-84455000D01*
X143557702Y-84455000D01*
X143682993Y-84329709D01*
X143749845Y-84274845D01*
X143968783Y-84008069D01*
X144131469Y-83703705D01*
X144231650Y-83373452D01*
X144257000Y-83116069D01*
X144257000Y-83116059D01*
X144265476Y-83030001D01*
X144257000Y-82943943D01*
X144257000Y-81744675D01*
X144573948Y-81713458D01*
X144880638Y-81620425D01*
X145163286Y-81469346D01*
X145411029Y-81266029D01*
X145614346Y-81018286D01*
X145765425Y-80735638D01*
X145858458Y-80428948D01*
X145889872Y-80110000D01*
X145889872Y-78310000D01*
X145858458Y-77991052D01*
X145765425Y-77684362D01*
X145614346Y-77401714D01*
X145411029Y-77153971D01*
X145163286Y-76950654D01*
X144880638Y-76799575D01*
X144573948Y-76706542D01*
X144255000Y-76675128D01*
X140755000Y-76675128D01*
X140436052Y-76706542D01*
X140203217Y-76777172D01*
X140136395Y-51652000D01*
X165913000Y-51652000D01*
X165913000Y-54593000D01*
X165913000Y-54593000D01*
G37*
X165913000Y-54593000D02*
X165741867Y-54593000D01*
X165157057Y-54709326D01*
X164606178Y-54937508D01*
X164110400Y-55268776D01*
X163688776Y-55690400D01*
X163357508Y-56186178D01*
X163129326Y-56737057D01*
X163013000Y-57321867D01*
X163013000Y-57918133D01*
X163129326Y-58502943D01*
X163357508Y-59053822D01*
X163688776Y-59549600D01*
X164110400Y-59971224D01*
X164606178Y-60302492D01*
X165157057Y-60530674D01*
X165741867Y-60647000D01*
X165913000Y-60647000D01*
X165913000Y-76183000D01*
X165741867Y-76183000D01*
X165157057Y-76299326D01*
X164606178Y-76527508D01*
X164110400Y-76858776D01*
X163688776Y-77280400D01*
X163357508Y-77776178D01*
X163129326Y-78327057D01*
X163013000Y-78911867D01*
X163013000Y-79508133D01*
X163129326Y-80092943D01*
X163357508Y-80643822D01*
X163688776Y-81139600D01*
X164110400Y-81561224D01*
X164606178Y-81892492D01*
X165157057Y-82120674D01*
X165741867Y-82237000D01*
X165913000Y-82237000D01*
X165913000Y-97865269D01*
X165792057Y-97889326D01*
X165241178Y-98117508D01*
X164745400Y-98448776D01*
X164323776Y-98870400D01*
X163992508Y-99366178D01*
X163764326Y-99917057D01*
X163648000Y-100501867D01*
X163648000Y-101098133D01*
X163764326Y-101682943D01*
X163992508Y-102233822D01*
X164323776Y-102729600D01*
X164745400Y-103151224D01*
X165241178Y-103482492D01*
X165792057Y-103710674D01*
X165913000Y-103734731D01*
X165913000Y-106337976D01*
X140258758Y-97660806D01*
X140236260Y-89201638D01*
X140355638Y-89165425D01*
X140638286Y-89014346D01*
X140886029Y-88811029D01*
X141089346Y-88563286D01*
X141240425Y-88280638D01*
X141333458Y-87973948D01*
X141364872Y-87655000D01*
X141364872Y-86647830D01*
X143557702Y-84455000D01*
X144995128Y-84455000D01*
X144995128Y-87655000D01*
X145026542Y-87973948D01*
X145119575Y-88280638D01*
X145270654Y-88563286D01*
X145473971Y-88811029D01*
X145721714Y-89014346D01*
X146004362Y-89165425D01*
X146311052Y-89258458D01*
X146630000Y-89289872D01*
X148930000Y-89289872D01*
X149050000Y-89278053D01*
X149170000Y-89289872D01*
X151470000Y-89289872D01*
X151788948Y-89258458D01*
X152095638Y-89165425D01*
X152378286Y-89014346D01*
X152626029Y-88811029D01*
X152829346Y-88563286D01*
X152980425Y-88280638D01*
X153073458Y-87973948D01*
X153104872Y-87655000D01*
X153104872Y-84455000D01*
X153073458Y-84136052D01*
X152980425Y-83829362D01*
X152829346Y-83546714D01*
X152626029Y-83298971D01*
X152378286Y-83095654D01*
X152095638Y-82944575D01*
X151788948Y-82851542D01*
X151470000Y-82820128D01*
X149170000Y-82820128D01*
X149050000Y-82831947D01*
X148930000Y-82820128D01*
X146630000Y-82820128D01*
X146311052Y-82851542D01*
X146004362Y-82944575D01*
X145721714Y-83095654D01*
X145473971Y-83298971D01*
X145270654Y-83546714D01*
X145119575Y-83829362D01*
X145026542Y-84136052D01*
X144995128Y-84455000D01*
X143557702Y-84455000D01*
X143682993Y-84329709D01*
X143749845Y-84274845D01*
X143968783Y-84008069D01*
X144131469Y-83703705D01*
X144231650Y-83373452D01*
X144257000Y-83116069D01*
X144257000Y-83116059D01*
X144265476Y-83030001D01*
X144257000Y-82943943D01*
X144257000Y-81744675D01*
X144573948Y-81713458D01*
X144880638Y-81620425D01*
X145163286Y-81469346D01*
X145411029Y-81266029D01*
X145614346Y-81018286D01*
X145765425Y-80735638D01*
X145858458Y-80428948D01*
X145889872Y-80110000D01*
X145889872Y-78310000D01*
X145858458Y-77991052D01*
X145765425Y-77684362D01*
X145614346Y-77401714D01*
X145411029Y-77153971D01*
X145163286Y-76950654D01*
X144880638Y-76799575D01*
X144573948Y-76706542D01*
X144255000Y-76675128D01*
X140755000Y-76675128D01*
X140436052Y-76706542D01*
X140203217Y-76777172D01*
X140136395Y-51652000D01*
X165913000Y-51652000D01*
X165913000Y-54593000D01*
G36*
X205160810Y-51733561D02*
G01*
X204637229Y-51950435D01*
X204166019Y-52265288D01*
X203765288Y-52666019D01*
X203450435Y-53137229D01*
X203233561Y-53660810D01*
X203123000Y-54216640D01*
X203123000Y-54783360D01*
X203233561Y-55339190D01*
X203450435Y-55862771D01*
X203765288Y-56333981D01*
X204166019Y-56734712D01*
X204563050Y-57000000D01*
X204166019Y-57265288D01*
X203765288Y-57666019D01*
X203450435Y-58137229D01*
X203233561Y-58660810D01*
X203123000Y-59216640D01*
X203123000Y-59783360D01*
X203233561Y-60339190D01*
X203450435Y-60862771D01*
X203765288Y-61333981D01*
X204166019Y-61734712D01*
X204637229Y-62049565D01*
X205160810Y-62266439D01*
X205716640Y-62377000D01*
X206283360Y-62377000D01*
X206839190Y-62266439D01*
X207362771Y-62049565D01*
X207833981Y-61734712D01*
X208234712Y-61333981D01*
X208348001Y-61164433D01*
X208348001Y-69558000D01*
X168707000Y-69558000D01*
X168707000Y-59077007D01*
X168722492Y-59053822D01*
X168950674Y-58502943D01*
X169067000Y-57918133D01*
X169067000Y-57321867D01*
X168950674Y-56737057D01*
X168722492Y-56186178D01*
X168707000Y-56162993D01*
X168707000Y-56120961D01*
X189648000Y-56120961D01*
X189648000Y-56599039D01*
X189741268Y-57067930D01*
X189924221Y-57509615D01*
X190189826Y-57907122D01*
X190527878Y-58245174D01*
X190925385Y-58510779D01*
X191367070Y-58693732D01*
X191835961Y-58787000D01*
X192314039Y-58787000D01*
X192782930Y-58693732D01*
X193224615Y-58510779D01*
X193622122Y-58245174D01*
X193960174Y-57907122D01*
X194225779Y-57509615D01*
X194408732Y-57067930D01*
X194502000Y-56599039D01*
X194502000Y-56120961D01*
X194408732Y-55652070D01*
X194225779Y-55210385D01*
X193960174Y-54812878D01*
X193622122Y-54474826D01*
X193224615Y-54209221D01*
X192782930Y-54026268D01*
X192314039Y-53933000D01*
X191835961Y-53933000D01*
X191367070Y-54026268D01*
X190925385Y-54209221D01*
X190527878Y-54474826D01*
X190189826Y-54812878D01*
X189924221Y-55210385D01*
X189741268Y-55652070D01*
X189648000Y-56120961D01*
X168707000Y-56120961D01*
X168707000Y-51652000D01*
X205570847Y-51652000D01*
X205160810Y-51733561D01*
X205160810Y-51733561D01*
G37*
X205160810Y-51733561D02*
X204637229Y-51950435D01*
X204166019Y-52265288D01*
X203765288Y-52666019D01*
X203450435Y-53137229D01*
X203233561Y-53660810D01*
X203123000Y-54216640D01*
X203123000Y-54783360D01*
X203233561Y-55339190D01*
X203450435Y-55862771D01*
X203765288Y-56333981D01*
X204166019Y-56734712D01*
X204563050Y-57000000D01*
X204166019Y-57265288D01*
X203765288Y-57666019D01*
X203450435Y-58137229D01*
X203233561Y-58660810D01*
X203123000Y-59216640D01*
X203123000Y-59783360D01*
X203233561Y-60339190D01*
X203450435Y-60862771D01*
X203765288Y-61333981D01*
X204166019Y-61734712D01*
X204637229Y-62049565D01*
X205160810Y-62266439D01*
X205716640Y-62377000D01*
X206283360Y-62377000D01*
X206839190Y-62266439D01*
X207362771Y-62049565D01*
X207833981Y-61734712D01*
X208234712Y-61333981D01*
X208348001Y-61164433D01*
X208348001Y-69558000D01*
X168707000Y-69558000D01*
X168707000Y-59077007D01*
X168722492Y-59053822D01*
X168950674Y-58502943D01*
X169067000Y-57918133D01*
X169067000Y-57321867D01*
X168950674Y-56737057D01*
X168722492Y-56186178D01*
X168707000Y-56162993D01*
X168707000Y-56120961D01*
X189648000Y-56120961D01*
X189648000Y-56599039D01*
X189741268Y-57067930D01*
X189924221Y-57509615D01*
X190189826Y-57907122D01*
X190527878Y-58245174D01*
X190925385Y-58510779D01*
X191367070Y-58693732D01*
X191835961Y-58787000D01*
X192314039Y-58787000D01*
X192782930Y-58693732D01*
X193224615Y-58510779D01*
X193622122Y-58245174D01*
X193960174Y-57907122D01*
X194225779Y-57509615D01*
X194408732Y-57067930D01*
X194502000Y-56599039D01*
X194502000Y-56120961D01*
X194408732Y-55652070D01*
X194225779Y-55210385D01*
X193960174Y-54812878D01*
X193622122Y-54474826D01*
X193224615Y-54209221D01*
X192782930Y-54026268D01*
X192314039Y-53933000D01*
X191835961Y-53933000D01*
X191367070Y-54026268D01*
X190925385Y-54209221D01*
X190527878Y-54474826D01*
X190189826Y-54812878D01*
X189924221Y-55210385D01*
X189741268Y-55652070D01*
X189648000Y-56120961D01*
X168707000Y-56120961D01*
X168707000Y-51652000D01*
X205570847Y-51652000D01*
X205160810Y-51733561D01*
G36*
X208348001Y-75733220D02*
G01*
X208279712Y-75631019D01*
X207878981Y-75230288D01*
X207407771Y-74915435D01*
X206884190Y-74698561D01*
X206328360Y-74588000D01*
X205761640Y-74588000D01*
X205205810Y-74698561D01*
X204682229Y-74915435D01*
X204211019Y-75230288D01*
X203810288Y-75631019D01*
X203495435Y-76102229D01*
X203278561Y-76625810D01*
X203168000Y-77181640D01*
X203168000Y-77748360D01*
X203278561Y-78304190D01*
X203495435Y-78827771D01*
X203810288Y-79298981D01*
X204211019Y-79699712D01*
X204608050Y-79965000D01*
X204211019Y-80230288D01*
X203810288Y-80631019D01*
X203495435Y-81102229D01*
X203278561Y-81625810D01*
X203168000Y-82181640D01*
X203168000Y-82748360D01*
X203278561Y-83304190D01*
X203495435Y-83827771D01*
X203810288Y-84298981D01*
X204211019Y-84699712D01*
X204682229Y-85014565D01*
X205205810Y-85231439D01*
X205761640Y-85342000D01*
X206328360Y-85342000D01*
X206884190Y-85231439D01*
X207407771Y-85014565D01*
X207878981Y-84699712D01*
X208279712Y-84298981D01*
X208348001Y-84196780D01*
X208348001Y-91148000D01*
X168707000Y-91148000D01*
X168707000Y-80667007D01*
X168722492Y-80643822D01*
X168950674Y-80092943D01*
X169067000Y-79508133D01*
X169067000Y-78911867D01*
X168950674Y-78327057D01*
X168722492Y-77776178D01*
X168707000Y-77752993D01*
X168707000Y-76440961D01*
X189648000Y-76440961D01*
X189648000Y-76919039D01*
X189741268Y-77387930D01*
X189924221Y-77829615D01*
X190189826Y-78227122D01*
X190527878Y-78565174D01*
X190925385Y-78830779D01*
X191367070Y-79013732D01*
X191835961Y-79107000D01*
X192314039Y-79107000D01*
X192782930Y-79013732D01*
X193224615Y-78830779D01*
X193622122Y-78565174D01*
X193960174Y-78227122D01*
X194225779Y-77829615D01*
X194408732Y-77387930D01*
X194502000Y-76919039D01*
X194502000Y-76440961D01*
X194408732Y-75972070D01*
X194225779Y-75530385D01*
X193960174Y-75132878D01*
X193622122Y-74794826D01*
X193224615Y-74529221D01*
X192782930Y-74346268D01*
X192314039Y-74253000D01*
X191835961Y-74253000D01*
X191367070Y-74346268D01*
X190925385Y-74529221D01*
X190527878Y-74794826D01*
X190189826Y-75132878D01*
X189924221Y-75530385D01*
X189741268Y-75972070D01*
X189648000Y-76440961D01*
X168707000Y-76440961D01*
X168707000Y-71717000D01*
X208348001Y-71717000D01*
X208348001Y-75733220D01*
X208348001Y-75733220D01*
G37*
X208348001Y-75733220D02*
X208279712Y-75631019D01*
X207878981Y-75230288D01*
X207407771Y-74915435D01*
X206884190Y-74698561D01*
X206328360Y-74588000D01*
X205761640Y-74588000D01*
X205205810Y-74698561D01*
X204682229Y-74915435D01*
X204211019Y-75230288D01*
X203810288Y-75631019D01*
X203495435Y-76102229D01*
X203278561Y-76625810D01*
X203168000Y-77181640D01*
X203168000Y-77748360D01*
X203278561Y-78304190D01*
X203495435Y-78827771D01*
X203810288Y-79298981D01*
X204211019Y-79699712D01*
X204608050Y-79965000D01*
X204211019Y-80230288D01*
X203810288Y-80631019D01*
X203495435Y-81102229D01*
X203278561Y-81625810D01*
X203168000Y-82181640D01*
X203168000Y-82748360D01*
X203278561Y-83304190D01*
X203495435Y-83827771D01*
X203810288Y-84298981D01*
X204211019Y-84699712D01*
X204682229Y-85014565D01*
X205205810Y-85231439D01*
X205761640Y-85342000D01*
X206328360Y-85342000D01*
X206884190Y-85231439D01*
X207407771Y-85014565D01*
X207878981Y-84699712D01*
X208279712Y-84298981D01*
X208348001Y-84196780D01*
X208348001Y-91148000D01*
X168707000Y-91148000D01*
X168707000Y-80667007D01*
X168722492Y-80643822D01*
X168950674Y-80092943D01*
X169067000Y-79508133D01*
X169067000Y-78911867D01*
X168950674Y-78327057D01*
X168722492Y-77776178D01*
X168707000Y-77752993D01*
X168707000Y-76440961D01*
X189648000Y-76440961D01*
X189648000Y-76919039D01*
X189741268Y-77387930D01*
X189924221Y-77829615D01*
X190189826Y-78227122D01*
X190527878Y-78565174D01*
X190925385Y-78830779D01*
X191367070Y-79013732D01*
X191835961Y-79107000D01*
X192314039Y-79107000D01*
X192782930Y-79013732D01*
X193224615Y-78830779D01*
X193622122Y-78565174D01*
X193960174Y-78227122D01*
X194225779Y-77829615D01*
X194408732Y-77387930D01*
X194502000Y-76919039D01*
X194502000Y-76440961D01*
X194408732Y-75972070D01*
X194225779Y-75530385D01*
X193960174Y-75132878D01*
X193622122Y-74794826D01*
X193224615Y-74529221D01*
X192782930Y-74346268D01*
X192314039Y-74253000D01*
X191835961Y-74253000D01*
X191367070Y-74346268D01*
X190925385Y-74529221D01*
X190527878Y-74794826D01*
X190189826Y-75132878D01*
X189924221Y-75530385D01*
X189741268Y-75972070D01*
X189648000Y-76440961D01*
X168707000Y-76440961D01*
X168707000Y-71717000D01*
X208348001Y-71717000D01*
X208348001Y-75733220D01*
G36*
X208348001Y-95405567D02*
G01*
X208234712Y-95236019D01*
X207833981Y-94835288D01*
X207362771Y-94520435D01*
X206839190Y-94303561D01*
X206283360Y-94193000D01*
X205716640Y-94193000D01*
X205160810Y-94303561D01*
X204637229Y-94520435D01*
X204166019Y-94835288D01*
X203765288Y-95236019D01*
X203450435Y-95707229D01*
X203233561Y-96230810D01*
X203123000Y-96786640D01*
X203123000Y-97353360D01*
X203233561Y-97909190D01*
X203450435Y-98432771D01*
X203765288Y-98903981D01*
X204166019Y-99304712D01*
X204563050Y-99570000D01*
X204166019Y-99835288D01*
X203765288Y-100236019D01*
X203450435Y-100707229D01*
X203233561Y-101230810D01*
X203123000Y-101786640D01*
X203123000Y-102353360D01*
X203233561Y-102909190D01*
X203450435Y-103432771D01*
X203765288Y-103903981D01*
X204166019Y-104304712D01*
X204637229Y-104619565D01*
X205160810Y-104836439D01*
X205716640Y-104947000D01*
X206283360Y-104947000D01*
X206839190Y-104836439D01*
X207362771Y-104619565D01*
X207833981Y-104304712D01*
X208234712Y-103903981D01*
X208348000Y-103734433D01*
X208348000Y-112103000D01*
X203222573Y-112103000D01*
X203061846Y-111907154D01*
X202994990Y-111852287D01*
X202739712Y-111597008D01*
X202684846Y-111530154D01*
X202418070Y-111311216D01*
X202113706Y-111148530D01*
X201783453Y-111048349D01*
X201526070Y-111022999D01*
X201526062Y-111022999D01*
X201440001Y-111014523D01*
X201353940Y-111022999D01*
X188695070Y-111022999D01*
X188609001Y-111014522D01*
X188522933Y-111022999D01*
X173587062Y-111022999D01*
X173501001Y-111014523D01*
X173414940Y-111022999D01*
X173414932Y-111022999D01*
X173157549Y-111048349D01*
X172827296Y-111148530D01*
X172522932Y-111311216D01*
X172256156Y-111530154D01*
X172201287Y-111597012D01*
X171730298Y-112068000D01*
X168707000Y-112068000D01*
X168707000Y-103048824D01*
X169026224Y-102729600D01*
X169357492Y-102233822D01*
X169585674Y-101682943D01*
X169702000Y-101098133D01*
X169702000Y-100501867D01*
X169585674Y-99917057D01*
X169357492Y-99366178D01*
X169026224Y-98870400D01*
X168707000Y-98551176D01*
X168707000Y-96125961D01*
X189648000Y-96125961D01*
X189648000Y-96604039D01*
X189741268Y-97072930D01*
X189924221Y-97514615D01*
X190189826Y-97912122D01*
X190527878Y-98250174D01*
X190925385Y-98515779D01*
X191367070Y-98698732D01*
X191835961Y-98792000D01*
X192314039Y-98792000D01*
X192782930Y-98698732D01*
X193224615Y-98515779D01*
X193622122Y-98250174D01*
X193960174Y-97912122D01*
X194225779Y-97514615D01*
X194408732Y-97072930D01*
X194502000Y-96604039D01*
X194502000Y-96125961D01*
X194408732Y-95657070D01*
X194225779Y-95215385D01*
X193960174Y-94817878D01*
X193622122Y-94479826D01*
X193224615Y-94214221D01*
X192782930Y-94031268D01*
X192314039Y-93938000D01*
X191835961Y-93938000D01*
X191367070Y-94031268D01*
X190925385Y-94214221D01*
X190527878Y-94479826D01*
X190189826Y-94817878D01*
X189924221Y-95215385D01*
X189741268Y-95657070D01*
X189648000Y-96125961D01*
X168707000Y-96125961D01*
X168707000Y-93307000D01*
X208348001Y-93307000D01*
X208348001Y-95405567D01*
X208348001Y-95405567D01*
G37*
X208348001Y-95405567D02*
X208234712Y-95236019D01*
X207833981Y-94835288D01*
X207362771Y-94520435D01*
X206839190Y-94303561D01*
X206283360Y-94193000D01*
X205716640Y-94193000D01*
X205160810Y-94303561D01*
X204637229Y-94520435D01*
X204166019Y-94835288D01*
X203765288Y-95236019D01*
X203450435Y-95707229D01*
X203233561Y-96230810D01*
X203123000Y-96786640D01*
X203123000Y-97353360D01*
X203233561Y-97909190D01*
X203450435Y-98432771D01*
X203765288Y-98903981D01*
X204166019Y-99304712D01*
X204563050Y-99570000D01*
X204166019Y-99835288D01*
X203765288Y-100236019D01*
X203450435Y-100707229D01*
X203233561Y-101230810D01*
X203123000Y-101786640D01*
X203123000Y-102353360D01*
X203233561Y-102909190D01*
X203450435Y-103432771D01*
X203765288Y-103903981D01*
X204166019Y-104304712D01*
X204637229Y-104619565D01*
X205160810Y-104836439D01*
X205716640Y-104947000D01*
X206283360Y-104947000D01*
X206839190Y-104836439D01*
X207362771Y-104619565D01*
X207833981Y-104304712D01*
X208234712Y-103903981D01*
X208348000Y-103734433D01*
X208348000Y-112103000D01*
X203222573Y-112103000D01*
X203061846Y-111907154D01*
X202994990Y-111852287D01*
X202739712Y-111597008D01*
X202684846Y-111530154D01*
X202418070Y-111311216D01*
X202113706Y-111148530D01*
X201783453Y-111048349D01*
X201526070Y-111022999D01*
X201526062Y-111022999D01*
X201440001Y-111014523D01*
X201353940Y-111022999D01*
X188695070Y-111022999D01*
X188609001Y-111014522D01*
X188522933Y-111022999D01*
X173587062Y-111022999D01*
X173501001Y-111014523D01*
X173414940Y-111022999D01*
X173414932Y-111022999D01*
X173157549Y-111048349D01*
X172827296Y-111148530D01*
X172522932Y-111311216D01*
X172256156Y-111530154D01*
X172201287Y-111597012D01*
X171730298Y-112068000D01*
X168707000Y-112068000D01*
X168707000Y-103048824D01*
X169026224Y-102729600D01*
X169357492Y-102233822D01*
X169585674Y-101682943D01*
X169702000Y-101098133D01*
X169702000Y-100501867D01*
X169585674Y-99917057D01*
X169357492Y-99366178D01*
X169026224Y-98870400D01*
X168707000Y-98551176D01*
X168707000Y-96125961D01*
X189648000Y-96125961D01*
X189648000Y-96604039D01*
X189741268Y-97072930D01*
X189924221Y-97514615D01*
X190189826Y-97912122D01*
X190527878Y-98250174D01*
X190925385Y-98515779D01*
X191367070Y-98698732D01*
X191835961Y-98792000D01*
X192314039Y-98792000D01*
X192782930Y-98698732D01*
X193224615Y-98515779D01*
X193622122Y-98250174D01*
X193960174Y-97912122D01*
X194225779Y-97514615D01*
X194408732Y-97072930D01*
X194502000Y-96604039D01*
X194502000Y-96125961D01*
X194408732Y-95657070D01*
X194225779Y-95215385D01*
X193960174Y-94817878D01*
X193622122Y-94479826D01*
X193224615Y-94214221D01*
X192782930Y-94031268D01*
X192314039Y-93938000D01*
X191835961Y-93938000D01*
X191367070Y-94031268D01*
X190925385Y-94214221D01*
X190527878Y-94479826D01*
X190189826Y-94817878D01*
X189924221Y-95215385D01*
X189741268Y-95657070D01*
X189648000Y-96125961D01*
X168707000Y-96125961D01*
X168707000Y-93307000D01*
X208348001Y-93307000D01*
X208348001Y-95405567D01*
M02*
