G04 #@! TF.GenerationSoftware,KiCad,Pcbnew,5.1.6+dfsg1-1*
G04 #@! TF.CreationDate,2020-10-16T23:20:34+02:00*
G04 #@! TF.ProjectId,ledStripDriver,6c656453-7472-4697-9044-72697665722e,rev?*
G04 #@! TF.SameCoordinates,Original*
G04 #@! TF.FileFunction,Copper,L2,Bot*
G04 #@! TF.FilePolarity,Positive*
%FSLAX46Y46*%
G04 Gerber Fmt 4.6, Leading zero omitted, Abs format (unit mm)*
G04 Created by KiCad (PCBNEW 5.1.6+dfsg1-1) date 2020-10-16 23:20:34*
%MOMM*%
%LPD*%
G01*
G04 APERTURE LIST*
G04 #@! TA.AperFunction,ComponentPad*
%ADD10C,1.560000*%
G04 #@! TD*
G04 #@! TA.AperFunction,ComponentPad*
%ADD11R,1.560000X1.560000*%
G04 #@! TD*
G04 #@! TA.AperFunction,ComponentPad*
%ADD12C,1.524000*%
G04 #@! TD*
G04 #@! TA.AperFunction,ComponentPad*
%ADD13R,1.524000X1.524000*%
G04 #@! TD*
G04 #@! TA.AperFunction,ComponentPad*
%ADD14C,3.500000*%
G04 #@! TD*
G04 #@! TA.AperFunction,ComponentPad*
%ADD15R,2.500000X7.000000*%
G04 #@! TD*
G04 #@! TA.AperFunction,ComponentPad*
%ADD16C,3.000000*%
G04 #@! TD*
G04 #@! TA.AperFunction,ComponentPad*
%ADD17R,3.000000X3.000000*%
G04 #@! TD*
G04 #@! TA.AperFunction,ComponentPad*
%ADD18O,1.600000X1.600000*%
G04 #@! TD*
G04 #@! TA.AperFunction,ComponentPad*
%ADD19R,1.600000X1.600000*%
G04 #@! TD*
G04 #@! TA.AperFunction,ComponentPad*
%ADD20C,1.600000*%
G04 #@! TD*
G04 #@! TA.AperFunction,ComponentPad*
%ADD21C,2.000000*%
G04 #@! TD*
G04 #@! TA.AperFunction,ComponentPad*
%ADD22R,2.000000X2.000000*%
G04 #@! TD*
G04 #@! TA.AperFunction,ComponentPad*
%ADD23R,3.000000X2.500000*%
G04 #@! TD*
G04 #@! TA.AperFunction,ComponentPad*
%ADD24R,2.100000X1.400000*%
G04 #@! TD*
G04 #@! TA.AperFunction,ComponentPad*
%ADD25R,1.800000X2.300000*%
G04 #@! TD*
G04 #@! TA.AperFunction,ComponentPad*
%ADD26R,2.300000X1.800000*%
G04 #@! TD*
G04 #@! TA.AperFunction,ComponentPad*
%ADD27R,2.300000X3.200000*%
G04 #@! TD*
G04 #@! TA.AperFunction,ComponentPad*
%ADD28C,1.950000*%
G04 #@! TD*
G04 #@! TA.AperFunction,ComponentPad*
%ADD29R,1.950000X1.950000*%
G04 #@! TD*
G04 #@! TA.AperFunction,ComponentPad*
%ADD30C,2.500000*%
G04 #@! TD*
G04 #@! TA.AperFunction,ComponentPad*
%ADD31R,2.500000X2.500000*%
G04 #@! TD*
G04 #@! TA.AperFunction,ViaPad*
%ADD32C,0.800000*%
G04 #@! TD*
G04 #@! TA.AperFunction,Conductor*
%ADD33C,5.000000*%
G04 #@! TD*
G04 #@! TA.AperFunction,Conductor*
%ADD34C,0.250000*%
G04 #@! TD*
G04 #@! TA.AperFunction,Conductor*
%ADD35C,0.254000*%
G04 #@! TD*
G04 APERTURE END LIST*
D10*
X101980000Y-137630000D03*
X104520000Y-137630000D03*
X107060000Y-137630000D03*
X109600000Y-137630000D03*
X112140000Y-137630000D03*
X114680000Y-137630000D03*
X117220000Y-137630000D03*
X119760000Y-137630000D03*
X122300000Y-137630000D03*
X124840000Y-137630000D03*
X127380000Y-137630000D03*
X129920000Y-137630000D03*
X132460000Y-137630000D03*
X135000000Y-137630000D03*
X137540000Y-137630000D03*
X140080000Y-137630000D03*
X142620000Y-137630000D03*
X145160000Y-137630000D03*
X147700000Y-137630000D03*
X104520000Y-112230000D03*
X107060000Y-112230000D03*
X109600000Y-112230000D03*
X112140000Y-112230000D03*
X114680000Y-112230000D03*
X117220000Y-112230000D03*
X119760000Y-112230000D03*
X122300000Y-112230000D03*
X124840000Y-112230000D03*
X127380000Y-112230000D03*
X129920000Y-112230000D03*
X132460000Y-112230000D03*
X135000000Y-112230000D03*
X137540000Y-112230000D03*
X140080000Y-112230000D03*
X142620000Y-112230000D03*
X101980000Y-112230000D03*
X145160000Y-112230000D03*
D11*
X147700000Y-112230000D03*
D12*
X114400000Y-91000000D03*
X114400000Y-88500000D03*
X114400000Y-86500000D03*
D13*
X114400000Y-84000000D03*
D14*
X111690000Y-80930000D03*
X111690000Y-94070000D03*
D15*
X131800000Y-57400000D03*
X124800000Y-57400000D03*
D16*
X154075000Y-101300000D03*
X176675000Y-101300000D03*
X153440000Y-79710000D03*
X176040000Y-79710000D03*
X153440000Y-58120000D03*
X176040000Y-58120000D03*
X104500000Y-66500000D03*
D17*
X104500000Y-56500000D03*
D18*
X172320000Y-130000000D03*
X164700000Y-137620000D03*
X172320000Y-132540000D03*
X164700000Y-135080000D03*
X172320000Y-135080000D03*
X164700000Y-132540000D03*
X172320000Y-137620000D03*
D19*
X164700000Y-130000000D03*
D20*
X192075000Y-76680000D03*
D19*
X192075000Y-80480000D03*
D21*
X190500000Y-130500000D03*
X190500000Y-135000000D03*
X184000000Y-130500000D03*
X184000000Y-135000000D03*
D22*
X208500000Y-134836000D03*
D21*
X208500000Y-132336000D03*
X208500000Y-129836000D03*
D23*
X201000000Y-137936000D03*
X201000000Y-126736000D03*
D21*
X194000000Y-134836000D03*
X194000000Y-129836000D03*
D24*
X110400000Y-97900000D03*
X106900000Y-107900000D03*
D25*
X113800000Y-107400000D03*
D26*
X109400000Y-100500000D03*
D25*
X102500000Y-103100000D03*
D20*
X192075000Y-96365000D03*
D19*
X192075000Y-100165000D03*
D20*
X192075000Y-56360000D03*
D19*
X192075000Y-60160000D03*
D27*
X138650000Y-84950000D03*
X136110000Y-84950000D03*
X150390000Y-105550000D03*
X147850000Y-84950000D03*
X136110000Y-105550000D03*
X138650000Y-105550000D03*
X150390000Y-84950000D03*
X147850000Y-105550000D03*
D28*
X141800000Y-74500000D03*
X136800000Y-74500000D03*
X136800000Y-67000000D03*
X141800000Y-67000000D03*
D29*
X116800000Y-74500000D03*
D28*
X116800000Y-67000000D03*
D30*
X206000000Y-97070000D03*
X206000000Y-102070000D03*
D31*
X206000000Y-107070000D03*
D30*
X206045000Y-77465000D03*
X206045000Y-82465000D03*
D31*
X206045000Y-87465000D03*
D30*
X206000000Y-54500000D03*
X206000000Y-59500000D03*
D31*
X206000000Y-64500000D03*
D32*
X131400000Y-106400000D03*
X160000000Y-137800000D03*
X142200000Y-109200000D03*
X131800000Y-95600000D03*
X131400000Y-87800000D03*
X161000000Y-132300000D03*
X177600000Y-133900000D03*
X208475000Y-116275000D03*
X147050000Y-109450000D03*
X161000000Y-130100000D03*
X166900000Y-125200000D03*
X166800000Y-118764010D03*
X168310000Y-118514000D03*
X199350000Y-80100000D03*
X187893000Y-120612000D03*
X187800000Y-126000000D03*
X202117000Y-120612000D03*
X202000000Y-124800000D03*
X120800000Y-88000000D03*
X111000000Y-117400000D03*
X156000000Y-128000000D03*
X156000000Y-121100000D03*
X179000000Y-129400000D03*
X179200000Y-124300000D03*
X118400000Y-97800000D03*
X133000000Y-97800000D03*
X166548000Y-115024000D03*
X197550000Y-59700000D03*
X186900000Y-113499999D03*
X197300000Y-80100000D03*
X201092000Y-113500000D03*
X197675000Y-101800000D03*
X177600000Y-137400000D03*
X177800000Y-121275000D03*
X205587500Y-120987500D03*
X204400000Y-128400000D03*
D33*
X204207233Y-96364999D02*
X192075000Y-96364999D01*
X206680000Y-97070000D02*
X204912234Y-97070000D01*
X204912234Y-97070000D02*
X204207233Y-96364999D01*
X193829999Y-54605000D02*
X192075000Y-56359999D01*
X206680000Y-54605000D02*
X193829999Y-54605000D01*
X194478001Y-76679999D02*
X192075000Y-76679999D01*
X194942999Y-76215001D02*
X194478001Y-76679999D01*
X206045000Y-77465000D02*
X204795001Y-76215001D01*
X204795001Y-76215001D02*
X194942999Y-76215001D01*
D34*
X194000000Y-133912000D02*
X194000000Y-134836000D01*
X208500000Y-132336000D02*
X196500000Y-132336000D01*
X196500000Y-132336000D02*
X194000000Y-134836000D01*
X150390000Y-85850000D02*
X147850000Y-85850000D01*
X150390000Y-104650000D02*
X147850000Y-104650000D01*
X143624999Y-104650000D02*
X138650000Y-104650000D01*
X161000000Y-118000000D02*
X156974999Y-118000000D01*
X156974999Y-118000000D02*
X143624999Y-104650000D01*
X161000000Y-130100000D02*
X161000000Y-118000000D01*
X166900000Y-118864010D02*
X166800000Y-118764010D01*
X166900000Y-125200000D02*
X166900000Y-118864010D01*
X187893000Y-122718000D02*
X187893000Y-120612000D01*
X187800000Y-126000000D02*
X187893000Y-122718000D01*
X202117000Y-120612000D02*
X202117000Y-124683000D01*
X202117000Y-124683000D02*
X202000000Y-124800000D01*
X112574999Y-110159599D02*
X111000000Y-111734598D01*
X112574999Y-96225001D02*
X112574999Y-110159599D01*
X120800000Y-88000000D02*
X112574999Y-96225001D01*
X111000000Y-111734598D02*
X111000000Y-117400000D01*
X204912234Y-59605000D02*
X206680000Y-59605000D01*
X156000000Y-128000000D02*
X156000000Y-121100000D01*
X179100000Y-129300000D02*
X179000000Y-129400000D01*
X179200000Y-124300000D02*
X179100000Y-129300000D01*
X118400000Y-97800000D02*
X133000000Y-97800000D01*
X197550000Y-64850000D02*
X197550000Y-59700000D01*
X166548000Y-95852000D02*
X197550000Y-64850000D01*
X166548000Y-115024000D02*
X166548000Y-95852000D01*
X186900000Y-92575000D02*
X186900000Y-113499999D01*
X197300000Y-80100000D02*
X186900000Y-92575000D01*
X197675000Y-110083000D02*
X201092000Y-113500000D01*
X197675000Y-101800000D02*
X197675000Y-110083000D01*
X179725001Y-131198003D02*
X177800000Y-129273002D01*
X179725001Y-135274999D02*
X179725001Y-131198003D01*
X177600000Y-137400000D02*
X179725001Y-135274999D01*
X177800000Y-129273002D02*
X177800000Y-121275000D01*
X205587500Y-120987500D02*
X204412500Y-120987500D01*
X204412500Y-120987500D02*
X204400000Y-121000000D01*
X204400000Y-121000000D02*
X204400000Y-128400000D01*
D35*
G36*
X183533148Y-51990219D02*
G01*
X183403406Y-52642480D01*
X183403406Y-53307520D01*
X183533148Y-53959781D01*
X183787648Y-54574197D01*
X184157124Y-55127157D01*
X184627378Y-55597411D01*
X185180338Y-55966887D01*
X185794754Y-56221387D01*
X186447015Y-56351129D01*
X187112055Y-56351129D01*
X187764316Y-56221387D01*
X188378732Y-55966887D01*
X188931692Y-55597411D01*
X189401946Y-55127157D01*
X189771422Y-54574197D01*
X190025922Y-53959781D01*
X190155664Y-53307520D01*
X190155664Y-52642480D01*
X190025922Y-51990219D01*
X189885827Y-51652000D01*
X208348001Y-51652000D01*
X208348001Y-57835568D01*
X208234712Y-57666019D01*
X207833981Y-57265288D01*
X207362771Y-56950435D01*
X206839190Y-56733561D01*
X206283360Y-56623000D01*
X205716640Y-56623000D01*
X205160810Y-56733561D01*
X204637229Y-56950435D01*
X204166019Y-57265288D01*
X203765288Y-57666019D01*
X203450435Y-58137229D01*
X203233561Y-58660810D01*
X203123000Y-59216640D01*
X203123000Y-59783360D01*
X203233561Y-60339190D01*
X203450435Y-60862771D01*
X203765288Y-61333981D01*
X204160055Y-61728748D01*
X204124362Y-61739575D01*
X203841714Y-61890654D01*
X203593971Y-62093971D01*
X203390654Y-62341714D01*
X203239575Y-62624362D01*
X203146542Y-62931052D01*
X203115128Y-63250000D01*
X203115128Y-65750000D01*
X203146542Y-66068948D01*
X203239575Y-66375638D01*
X203390654Y-66658286D01*
X203593971Y-66906029D01*
X203841714Y-67109346D01*
X204124362Y-67260425D01*
X204431052Y-67353458D01*
X204750000Y-67384872D01*
X207250000Y-67384872D01*
X207568948Y-67353458D01*
X207875638Y-67260425D01*
X208158286Y-67109346D01*
X208348001Y-66953651D01*
X208348001Y-80733220D01*
X208279712Y-80631019D01*
X207878981Y-80230288D01*
X207407771Y-79915435D01*
X206884190Y-79698561D01*
X206328360Y-79588000D01*
X205761640Y-79588000D01*
X205205810Y-79698561D01*
X204682229Y-79915435D01*
X204211019Y-80230288D01*
X203810288Y-80631019D01*
X203495435Y-81102229D01*
X203278561Y-81625810D01*
X203168000Y-82181640D01*
X203168000Y-82748360D01*
X203278561Y-83304190D01*
X203495435Y-83827771D01*
X203810288Y-84298981D01*
X204205055Y-84693748D01*
X204169362Y-84704575D01*
X203886714Y-84855654D01*
X203638971Y-85058971D01*
X203435654Y-85306714D01*
X203284575Y-85589362D01*
X203191542Y-85896052D01*
X203160128Y-86215000D01*
X203160128Y-88715000D01*
X203191542Y-89033948D01*
X203284575Y-89340638D01*
X203435654Y-89623286D01*
X203638971Y-89871029D01*
X203886714Y-90074346D01*
X204169362Y-90225425D01*
X204476052Y-90318458D01*
X204795000Y-90349872D01*
X207295000Y-90349872D01*
X207613948Y-90318458D01*
X207920638Y-90225425D01*
X208203286Y-90074346D01*
X208348001Y-89955582D01*
X208348000Y-100405567D01*
X208234712Y-100236019D01*
X207833981Y-99835288D01*
X207362771Y-99520435D01*
X206839190Y-99303561D01*
X206283360Y-99193000D01*
X205716640Y-99193000D01*
X205160810Y-99303561D01*
X204637229Y-99520435D01*
X204166019Y-99835288D01*
X203765288Y-100236019D01*
X203450435Y-100707229D01*
X203233561Y-101230810D01*
X203123000Y-101786640D01*
X203123000Y-102353360D01*
X203233561Y-102909190D01*
X203450435Y-103432771D01*
X203765288Y-103903981D01*
X204160055Y-104298748D01*
X204124362Y-104309575D01*
X203841714Y-104460654D01*
X203593971Y-104663971D01*
X203390654Y-104911714D01*
X203239575Y-105194362D01*
X203146542Y-105501052D01*
X203115128Y-105820000D01*
X203115128Y-108320000D01*
X203146542Y-108638948D01*
X203239575Y-108945638D01*
X203390654Y-109228286D01*
X203593971Y-109476029D01*
X203841714Y-109679346D01*
X204124362Y-109830425D01*
X204431052Y-109923458D01*
X204750000Y-109954872D01*
X207250000Y-109954872D01*
X207568948Y-109923458D01*
X207875638Y-109830425D01*
X208158286Y-109679346D01*
X208348000Y-109523652D01*
X208348000Y-127209000D01*
X208241263Y-127209000D01*
X207733732Y-127309954D01*
X207255649Y-127507983D01*
X206825385Y-127795476D01*
X206459476Y-128161385D01*
X206427000Y-128209989D01*
X206427000Y-128200358D01*
X206349104Y-127808746D01*
X206196304Y-127439855D01*
X206152000Y-127373549D01*
X206152000Y-122941926D01*
X206178754Y-122936604D01*
X206547645Y-122783804D01*
X206879637Y-122561974D01*
X207161974Y-122279637D01*
X207383804Y-121947645D01*
X207536604Y-121578754D01*
X207614500Y-121187142D01*
X207614500Y-120787858D01*
X207536604Y-120396246D01*
X207383804Y-120027355D01*
X207161974Y-119695363D01*
X206879637Y-119413026D01*
X206547645Y-119191196D01*
X206178754Y-119038396D01*
X205787142Y-118960500D01*
X205387858Y-118960500D01*
X204996246Y-119038396D01*
X204627355Y-119191196D01*
X204561049Y-119235500D01*
X204498561Y-119235500D01*
X204412500Y-119227024D01*
X204326439Y-119235500D01*
X204326431Y-119235500D01*
X204069048Y-119260850D01*
X203738795Y-119361031D01*
X203724196Y-119368834D01*
X203691474Y-119319863D01*
X203409137Y-119037526D01*
X203077145Y-118815696D01*
X202708254Y-118662896D01*
X202316642Y-118585000D01*
X201917358Y-118585000D01*
X201525746Y-118662896D01*
X201156855Y-118815696D01*
X200824863Y-119037526D01*
X200542526Y-119319863D01*
X200320696Y-119651855D01*
X200167896Y-120020746D01*
X200090000Y-120412358D01*
X200090000Y-120811642D01*
X200167896Y-121203254D01*
X200320696Y-121572145D01*
X200365000Y-121638451D01*
X200365001Y-123598445D01*
X200203696Y-123839855D01*
X200199027Y-123851128D01*
X199500000Y-123851128D01*
X199181052Y-123882542D01*
X198874362Y-123975575D01*
X198591714Y-124126654D01*
X198343971Y-124329971D01*
X198140654Y-124577714D01*
X197989575Y-124860362D01*
X197896542Y-125167052D01*
X197865128Y-125486000D01*
X197865128Y-127986000D01*
X197896542Y-128304948D01*
X197989575Y-128611638D01*
X198140654Y-128894286D01*
X198343971Y-129142029D01*
X198591714Y-129345346D01*
X198874362Y-129496425D01*
X199181052Y-129589458D01*
X199500000Y-129620872D01*
X202500000Y-129620872D01*
X202760748Y-129595190D01*
X202825526Y-129692137D01*
X203107863Y-129974474D01*
X203439855Y-130196304D01*
X203808746Y-130349104D01*
X204200358Y-130427000D01*
X204599642Y-130427000D01*
X204991254Y-130349104D01*
X205360145Y-130196304D01*
X205692137Y-129974474D01*
X205873000Y-129793611D01*
X205873000Y-130094737D01*
X205973954Y-130602268D01*
X206171983Y-131080351D01*
X206459476Y-131510615D01*
X206825385Y-131876524D01*
X207255649Y-132164017D01*
X207374972Y-132213442D01*
X207181052Y-132232542D01*
X206874362Y-132325575D01*
X206591714Y-132476654D01*
X206343971Y-132679971D01*
X206140654Y-132927714D01*
X205989575Y-133210362D01*
X205896542Y-133517052D01*
X205865128Y-133836000D01*
X205865128Y-135836000D01*
X205896542Y-136154948D01*
X205989575Y-136461638D01*
X206140654Y-136744286D01*
X206343971Y-136992029D01*
X206591714Y-137195346D01*
X206874362Y-137346425D01*
X207181052Y-137439458D01*
X207500000Y-137470872D01*
X208348000Y-137470872D01*
X208348000Y-139348000D01*
X204118916Y-139348000D01*
X204134872Y-139186000D01*
X204134872Y-136686000D01*
X204103458Y-136367052D01*
X204010425Y-136060362D01*
X203859346Y-135777714D01*
X203656029Y-135529971D01*
X203408286Y-135326654D01*
X203125638Y-135175575D01*
X202818948Y-135082542D01*
X202500000Y-135051128D01*
X199500000Y-135051128D01*
X199181052Y-135082542D01*
X198874362Y-135175575D01*
X198591714Y-135326654D01*
X198343971Y-135529971D01*
X198140654Y-135777714D01*
X197989575Y-136060362D01*
X197896542Y-136367052D01*
X197865128Y-136686000D01*
X197865128Y-139186000D01*
X197881084Y-139348000D01*
X190552984Y-139348000D01*
X190775922Y-138809781D01*
X190905664Y-138157520D01*
X190905664Y-137492480D01*
X190775922Y-136840219D01*
X190521422Y-136225803D01*
X190151946Y-135672843D01*
X189681692Y-135202589D01*
X189128732Y-134833113D01*
X188514316Y-134578613D01*
X187862055Y-134448871D01*
X187197015Y-134448871D01*
X186544754Y-134578613D01*
X185930338Y-134833113D01*
X185377378Y-135202589D01*
X184907124Y-135672843D01*
X184537648Y-136225803D01*
X184283148Y-136840219D01*
X184153406Y-137492480D01*
X184153406Y-138157520D01*
X184283148Y-138809781D01*
X184506086Y-139348000D01*
X178193919Y-139348000D01*
X178560145Y-139196304D01*
X178892137Y-138974474D01*
X179174474Y-138692137D01*
X179396304Y-138360145D01*
X179549104Y-137991254D01*
X179564662Y-137913040D01*
X180902994Y-136574708D01*
X180969846Y-136519844D01*
X181188784Y-136253068D01*
X181351470Y-135948704D01*
X181451651Y-135618451D01*
X181477001Y-135361068D01*
X181477001Y-135361058D01*
X181485477Y-135275000D01*
X181477001Y-135188942D01*
X181477001Y-131284072D01*
X181477832Y-131275631D01*
X181671983Y-131744351D01*
X181959476Y-132174615D01*
X182325385Y-132540524D01*
X182755649Y-132828017D01*
X183233732Y-133026046D01*
X183741263Y-133127000D01*
X184258737Y-133127000D01*
X184766268Y-133026046D01*
X185244351Y-132828017D01*
X185674615Y-132540524D01*
X186040524Y-132174615D01*
X186328017Y-131744351D01*
X186526046Y-131266268D01*
X186627000Y-130758737D01*
X186627000Y-130241263D01*
X187873000Y-130241263D01*
X187873000Y-130758737D01*
X187973954Y-131266268D01*
X188171983Y-131744351D01*
X188459476Y-132174615D01*
X188825385Y-132540524D01*
X189255649Y-132828017D01*
X189733732Y-133026046D01*
X190241263Y-133127000D01*
X190758737Y-133127000D01*
X191266268Y-133026046D01*
X191744351Y-132828017D01*
X192174615Y-132540524D01*
X192540524Y-132174615D01*
X192611820Y-132067913D01*
X192755649Y-132164017D01*
X193233732Y-132362046D01*
X193741263Y-132463000D01*
X194258737Y-132463000D01*
X194766268Y-132362046D01*
X195244351Y-132164017D01*
X195674615Y-131876524D01*
X196040524Y-131510615D01*
X196328017Y-131080351D01*
X196526046Y-130602268D01*
X196627000Y-130094737D01*
X196627000Y-129577263D01*
X196526046Y-129069732D01*
X196328017Y-128591649D01*
X196040524Y-128161385D01*
X195674615Y-127795476D01*
X195244351Y-127507983D01*
X194766268Y-127309954D01*
X194258737Y-127209000D01*
X193741263Y-127209000D01*
X193233732Y-127309954D01*
X192755649Y-127507983D01*
X192325385Y-127795476D01*
X191959476Y-128161385D01*
X191888180Y-128268087D01*
X191744351Y-128171983D01*
X191266268Y-127973954D01*
X190758737Y-127873000D01*
X190241263Y-127873000D01*
X189733732Y-127973954D01*
X189255649Y-128171983D01*
X188825385Y-128459476D01*
X188459476Y-128825385D01*
X188171983Y-129255649D01*
X187973954Y-129733732D01*
X187873000Y-130241263D01*
X186627000Y-130241263D01*
X186526046Y-129733732D01*
X186328017Y-129255649D01*
X186040524Y-128825385D01*
X185674615Y-128459476D01*
X185244351Y-128171983D01*
X184766268Y-127973954D01*
X184258737Y-127873000D01*
X183741263Y-127873000D01*
X183233732Y-127973954D01*
X182755649Y-128171983D01*
X182325385Y-128459476D01*
X181959476Y-128825385D01*
X181671983Y-129255649D01*
X181473954Y-129733732D01*
X181373000Y-130241263D01*
X181373000Y-130595273D01*
X181351470Y-130524298D01*
X181188784Y-130219934D01*
X180969846Y-129953158D01*
X180958529Y-129943870D01*
X181027000Y-129599642D01*
X181027000Y-129200358D01*
X180949104Y-128808746D01*
X180866179Y-128608547D01*
X180922342Y-125800358D01*
X185773000Y-125800358D01*
X185773000Y-126199642D01*
X185850896Y-126591254D01*
X186003696Y-126960145D01*
X186225526Y-127292137D01*
X186507863Y-127574474D01*
X186839855Y-127796304D01*
X187208746Y-127949104D01*
X187600358Y-128027000D01*
X187999642Y-128027000D01*
X188391254Y-127949104D01*
X188760145Y-127796304D01*
X189092137Y-127574474D01*
X189374474Y-127292137D01*
X189596304Y-126960145D01*
X189749104Y-126591254D01*
X189827000Y-126199642D01*
X189827000Y-125800358D01*
X189749104Y-125408746D01*
X189596304Y-125039855D01*
X189580577Y-125016318D01*
X189642562Y-122828822D01*
X189645000Y-122804069D01*
X189645000Y-122742786D01*
X189646734Y-122681592D01*
X189645000Y-122656806D01*
X189645000Y-121638451D01*
X189689304Y-121572145D01*
X189842104Y-121203254D01*
X189920000Y-120811642D01*
X189920000Y-120412358D01*
X189842104Y-120020746D01*
X189689304Y-119651855D01*
X189467474Y-119319863D01*
X189185137Y-119037526D01*
X188853145Y-118815696D01*
X188484254Y-118662896D01*
X188092642Y-118585000D01*
X187693358Y-118585000D01*
X187301746Y-118662896D01*
X186932855Y-118815696D01*
X186600863Y-119037526D01*
X186318526Y-119319863D01*
X186096696Y-119651855D01*
X185943896Y-120020746D01*
X185866000Y-120412358D01*
X185866000Y-120811642D01*
X185943896Y-121203254D01*
X186096696Y-121572145D01*
X186141001Y-121638451D01*
X186141000Y-122693187D01*
X186077640Y-124929189D01*
X186003696Y-125039855D01*
X185850896Y-125408746D01*
X185773000Y-125800358D01*
X180922342Y-125800358D01*
X180931198Y-125357583D01*
X180996304Y-125260145D01*
X181149104Y-124891254D01*
X181227000Y-124499642D01*
X181227000Y-124100358D01*
X181149104Y-123708746D01*
X180996304Y-123339855D01*
X180774474Y-123007863D01*
X180492137Y-122725526D01*
X180160145Y-122503696D01*
X179791254Y-122350896D01*
X179552000Y-122303306D01*
X179552000Y-122301451D01*
X179596304Y-122235145D01*
X179749104Y-121866254D01*
X179827000Y-121474642D01*
X179827000Y-121075358D01*
X179749104Y-120683746D01*
X179596304Y-120314855D01*
X179374474Y-119982863D01*
X179092137Y-119700526D01*
X178760145Y-119478696D01*
X178391254Y-119325896D01*
X177999642Y-119248000D01*
X177600358Y-119248000D01*
X177208746Y-119325896D01*
X176839855Y-119478696D01*
X176507863Y-119700526D01*
X176225526Y-119982863D01*
X176003696Y-120314855D01*
X175850896Y-120683746D01*
X175773000Y-121075358D01*
X175773000Y-121474642D01*
X175850896Y-121866254D01*
X176003696Y-122235145D01*
X176048001Y-122301452D01*
X176048000Y-129186941D01*
X176039524Y-129273002D01*
X176048000Y-129359063D01*
X176048000Y-129359070D01*
X176073350Y-129616453D01*
X176173531Y-129946706D01*
X176329786Y-130239039D01*
X176336217Y-130251070D01*
X176494101Y-130443452D01*
X176555155Y-130517847D01*
X176622008Y-130572712D01*
X177973002Y-131923706D01*
X177973001Y-134549297D01*
X177086960Y-135435338D01*
X177008746Y-135450896D01*
X176639855Y-135603696D01*
X176307863Y-135825526D01*
X176025526Y-136107863D01*
X175803696Y-136439855D01*
X175650896Y-136808746D01*
X175573000Y-137200358D01*
X175573000Y-137599642D01*
X175650896Y-137991254D01*
X175803696Y-138360145D01*
X176025526Y-138692137D01*
X176307863Y-138974474D01*
X176639855Y-139196304D01*
X177006081Y-139348000D01*
X174024296Y-139348000D01*
X174205174Y-139167122D01*
X174470779Y-138769615D01*
X174653732Y-138327930D01*
X174747000Y-137859039D01*
X174747000Y-137380961D01*
X174653732Y-136912070D01*
X174470779Y-136470385D01*
X174390341Y-136350000D01*
X174470779Y-136229615D01*
X174653732Y-135787930D01*
X174747000Y-135319039D01*
X174747000Y-134840961D01*
X174653732Y-134372070D01*
X174470779Y-133930385D01*
X174390341Y-133810000D01*
X174470779Y-133689615D01*
X174653732Y-133247930D01*
X174747000Y-132779039D01*
X174747000Y-132300961D01*
X174653732Y-131832070D01*
X174470779Y-131390385D01*
X174390341Y-131270000D01*
X174470779Y-131149615D01*
X174653732Y-130707930D01*
X174747000Y-130239039D01*
X174747000Y-129760961D01*
X174653732Y-129292070D01*
X174470779Y-128850385D01*
X174205174Y-128452878D01*
X173867122Y-128114826D01*
X173469615Y-127849221D01*
X173027930Y-127666268D01*
X172559039Y-127573000D01*
X172080961Y-127573000D01*
X171612070Y-127666268D01*
X171170385Y-127849221D01*
X170772878Y-128114826D01*
X170434826Y-128452878D01*
X170169221Y-128850385D01*
X169986268Y-129292070D01*
X169893000Y-129760961D01*
X169893000Y-130239039D01*
X169986268Y-130707930D01*
X170169221Y-131149615D01*
X170249659Y-131270000D01*
X170169221Y-131390385D01*
X169986268Y-131832070D01*
X169893000Y-132300961D01*
X169893000Y-132779039D01*
X169986268Y-133247930D01*
X170169221Y-133689615D01*
X170249659Y-133810000D01*
X170169221Y-133930385D01*
X169986268Y-134372070D01*
X169893000Y-134840961D01*
X169893000Y-135319039D01*
X169986268Y-135787930D01*
X170169221Y-136229615D01*
X170249659Y-136350000D01*
X170169221Y-136470385D01*
X169986268Y-136912070D01*
X169893000Y-137380961D01*
X169893000Y-137859039D01*
X169986268Y-138327930D01*
X170169221Y-138769615D01*
X170434826Y-139167122D01*
X170615704Y-139348000D01*
X166404296Y-139348000D01*
X166585174Y-139167122D01*
X166850779Y-138769615D01*
X167033732Y-138327930D01*
X167127000Y-137859039D01*
X167127000Y-137380961D01*
X167033732Y-136912070D01*
X166850779Y-136470385D01*
X166770341Y-136350000D01*
X166850779Y-136229615D01*
X167033732Y-135787930D01*
X167127000Y-135319039D01*
X167127000Y-134840961D01*
X167033732Y-134372070D01*
X166850779Y-133930385D01*
X166585174Y-133532878D01*
X166247122Y-133194826D01*
X165849615Y-132929221D01*
X165407930Y-132746268D01*
X164939039Y-132653000D01*
X164460961Y-132653000D01*
X163992070Y-132746268D01*
X163550385Y-132929221D01*
X163152878Y-133194826D01*
X162814826Y-133532878D01*
X162549221Y-133930385D01*
X162366268Y-134372070D01*
X162273000Y-134840961D01*
X162273000Y-135319039D01*
X162366268Y-135787930D01*
X162549221Y-136229615D01*
X162629659Y-136350000D01*
X162549221Y-136470385D01*
X162366268Y-136912070D01*
X162273000Y-137380961D01*
X162273000Y-137859039D01*
X162366268Y-138327930D01*
X162549221Y-138769615D01*
X162814826Y-139167122D01*
X162995704Y-139348000D01*
X149386012Y-139348000D01*
X149457297Y-139276715D01*
X156900635Y-139239498D01*
X156924557Y-139237103D01*
X156948394Y-139229918D01*
X156970372Y-139218221D01*
X156989644Y-139202460D01*
X157005472Y-139183243D01*
X157017247Y-139161307D01*
X157024516Y-139137496D01*
X157027000Y-139112723D01*
X157043486Y-129740618D01*
X157292137Y-129574474D01*
X157574474Y-129292137D01*
X157796304Y-128960145D01*
X157949104Y-128591254D01*
X158027000Y-128199642D01*
X158027000Y-127800358D01*
X157949104Y-127408746D01*
X157796304Y-127039855D01*
X157752000Y-126973549D01*
X157752000Y-122126451D01*
X157796304Y-122060145D01*
X157949104Y-121691254D01*
X158027000Y-121299642D01*
X158027000Y-120900358D01*
X157949104Y-120508746D01*
X157796304Y-120139855D01*
X157574474Y-119807863D01*
X157518611Y-119752000D01*
X159248001Y-119752000D01*
X159248000Y-129073549D01*
X159203696Y-129139855D01*
X159050896Y-129508746D01*
X158973000Y-129900358D01*
X158973000Y-130299642D01*
X159050896Y-130691254D01*
X159203696Y-131060145D01*
X159425526Y-131392137D01*
X159707863Y-131674474D01*
X160039855Y-131896304D01*
X160408746Y-132049104D01*
X160800358Y-132127000D01*
X161199642Y-132127000D01*
X161591254Y-132049104D01*
X161960145Y-131896304D01*
X162292137Y-131674474D01*
X162442311Y-131524300D01*
X162540654Y-131708286D01*
X162743971Y-131956029D01*
X162991714Y-132159346D01*
X163274362Y-132310425D01*
X163581052Y-132403458D01*
X163900000Y-132434872D01*
X165500000Y-132434872D01*
X165818948Y-132403458D01*
X166125638Y-132310425D01*
X166408286Y-132159346D01*
X166656029Y-131956029D01*
X166859346Y-131708286D01*
X167010425Y-131425638D01*
X167103458Y-131118948D01*
X167134872Y-130800000D01*
X167134872Y-129200000D01*
X167103458Y-128881052D01*
X167010425Y-128574362D01*
X166859346Y-128291714D01*
X166656029Y-128043971D01*
X166408286Y-127840654D01*
X166125638Y-127689575D01*
X165818948Y-127596542D01*
X165500000Y-127565128D01*
X163900000Y-127565128D01*
X163581052Y-127596542D01*
X163274362Y-127689575D01*
X162991714Y-127840654D01*
X162752000Y-128037382D01*
X162752000Y-118086069D01*
X162760477Y-118000000D01*
X162726650Y-117656548D01*
X162626469Y-117326295D01*
X162463783Y-117021931D01*
X162244845Y-116755155D01*
X161978069Y-116536217D01*
X161673705Y-116373531D01*
X161343452Y-116273350D01*
X161086069Y-116248000D01*
X161000000Y-116239523D01*
X160913932Y-116248000D01*
X157700702Y-116248000D01*
X157068332Y-115615630D01*
X157069723Y-114824358D01*
X164521000Y-114824358D01*
X164521000Y-115223642D01*
X164598896Y-115615254D01*
X164751696Y-115984145D01*
X164973526Y-116316137D01*
X165255863Y-116598474D01*
X165587855Y-116820304D01*
X165891785Y-116946196D01*
X165839855Y-116967706D01*
X165507863Y-117189536D01*
X165225526Y-117471873D01*
X165003696Y-117803865D01*
X164850896Y-118172756D01*
X164773000Y-118564368D01*
X164773000Y-118963652D01*
X164850896Y-119355264D01*
X165003696Y-119724155D01*
X165148001Y-119940122D01*
X165148000Y-124173549D01*
X165103696Y-124239855D01*
X164950896Y-124608746D01*
X164873000Y-125000358D01*
X164873000Y-125399642D01*
X164950896Y-125791254D01*
X165103696Y-126160145D01*
X165325526Y-126492137D01*
X165607863Y-126774474D01*
X165939855Y-126996304D01*
X166308746Y-127149104D01*
X166700358Y-127227000D01*
X167099642Y-127227000D01*
X167491254Y-127149104D01*
X167860145Y-126996304D01*
X168192137Y-126774474D01*
X168474474Y-126492137D01*
X168696304Y-126160145D01*
X168849104Y-125791254D01*
X168927000Y-125399642D01*
X168927000Y-125000358D01*
X168849104Y-124608746D01*
X168696304Y-124239855D01*
X168652000Y-124173549D01*
X168652000Y-120512683D01*
X168901254Y-120463104D01*
X169270145Y-120310304D01*
X169602137Y-120088474D01*
X169884474Y-119806137D01*
X170106304Y-119474145D01*
X170259104Y-119105254D01*
X170337000Y-118713642D01*
X170337000Y-118314358D01*
X170259104Y-117922746D01*
X170106304Y-117553855D01*
X169884474Y-117221863D01*
X169602137Y-116939526D01*
X169270145Y-116717696D01*
X168901254Y-116564896D01*
X168509642Y-116487000D01*
X168110358Y-116487000D01*
X167912194Y-116526417D01*
X168122474Y-116316137D01*
X168344304Y-115984145D01*
X168497104Y-115615254D01*
X168575000Y-115223642D01*
X168575000Y-114824358D01*
X168497104Y-114432746D01*
X168344304Y-114063855D01*
X168300000Y-113997549D01*
X168300000Y-113300357D01*
X184873000Y-113300357D01*
X184873000Y-113699641D01*
X184950896Y-114091253D01*
X185103696Y-114460144D01*
X185325526Y-114792136D01*
X185607863Y-115074473D01*
X185939855Y-115296303D01*
X186308746Y-115449103D01*
X186700358Y-115526999D01*
X187099642Y-115526999D01*
X187491254Y-115449103D01*
X187860145Y-115296303D01*
X188192137Y-115074473D01*
X188474474Y-114792136D01*
X188696304Y-114460144D01*
X188849104Y-114091253D01*
X188927000Y-113699641D01*
X188927000Y-113300357D01*
X188849104Y-112908745D01*
X188696304Y-112539854D01*
X188652000Y-112473548D01*
X188652000Y-99365000D01*
X189640128Y-99365000D01*
X189640128Y-100965000D01*
X189671542Y-101283948D01*
X189764575Y-101590638D01*
X189915654Y-101873286D01*
X190118971Y-102121029D01*
X190366714Y-102324346D01*
X190649362Y-102475425D01*
X190956052Y-102568458D01*
X191275000Y-102599872D01*
X192875000Y-102599872D01*
X193193948Y-102568458D01*
X193500638Y-102475425D01*
X193783286Y-102324346D01*
X194031029Y-102121029D01*
X194234346Y-101873286D01*
X194380229Y-101600358D01*
X195648000Y-101600358D01*
X195648000Y-101999642D01*
X195725896Y-102391254D01*
X195878696Y-102760145D01*
X195923000Y-102826451D01*
X195923001Y-109996929D01*
X195914524Y-110083000D01*
X195948350Y-110426451D01*
X196048532Y-110756705D01*
X196211217Y-111061068D01*
X196375289Y-111260991D01*
X196375296Y-111260998D01*
X196430156Y-111327845D01*
X196497003Y-111382705D01*
X199127338Y-114013040D01*
X199142896Y-114091254D01*
X199295696Y-114460145D01*
X199517526Y-114792137D01*
X199799863Y-115074474D01*
X200131855Y-115296304D01*
X200500746Y-115449104D01*
X200892358Y-115527000D01*
X201291642Y-115527000D01*
X201683254Y-115449104D01*
X202052145Y-115296304D01*
X202384137Y-115074474D01*
X202666474Y-114792137D01*
X202888304Y-114460145D01*
X203041104Y-114091254D01*
X203119000Y-113699642D01*
X203119000Y-113300358D01*
X203041104Y-112908746D01*
X202888304Y-112539855D01*
X202666474Y-112207863D01*
X202384137Y-111925526D01*
X202052145Y-111703696D01*
X201683254Y-111550896D01*
X201605040Y-111535338D01*
X199427000Y-109357298D01*
X199427000Y-102826451D01*
X199471304Y-102760145D01*
X199624104Y-102391254D01*
X199702000Y-101999642D01*
X199702000Y-101600358D01*
X199624104Y-101208746D01*
X199471304Y-100839855D01*
X199249474Y-100507863D01*
X198967137Y-100225526D01*
X198635145Y-100003696D01*
X198266254Y-99850896D01*
X197874642Y-99773000D01*
X197475358Y-99773000D01*
X197083746Y-99850896D01*
X196714855Y-100003696D01*
X196382863Y-100225526D01*
X196100526Y-100507863D01*
X195878696Y-100839855D01*
X195725896Y-101208746D01*
X195648000Y-101600358D01*
X194380229Y-101600358D01*
X194385425Y-101590638D01*
X194478458Y-101283948D01*
X194509872Y-100965000D01*
X194509872Y-99365000D01*
X194478458Y-99046052D01*
X194385425Y-98739362D01*
X194234346Y-98456714D01*
X194031029Y-98208971D01*
X193783286Y-98005654D01*
X193500638Y-97854575D01*
X193193948Y-97761542D01*
X192875000Y-97730128D01*
X191275000Y-97730128D01*
X190956052Y-97761542D01*
X190649362Y-97854575D01*
X190366714Y-98005654D01*
X190118971Y-98208971D01*
X189915654Y-98456714D01*
X189764575Y-98739362D01*
X189671542Y-99046052D01*
X189640128Y-99365000D01*
X188652000Y-99365000D01*
X188652000Y-93209506D01*
X197990246Y-82008100D01*
X198260145Y-81896304D01*
X198325000Y-81852969D01*
X198389855Y-81896304D01*
X198758746Y-82049104D01*
X199150358Y-82127000D01*
X199549642Y-82127000D01*
X199941254Y-82049104D01*
X200310145Y-81896304D01*
X200642137Y-81674474D01*
X200924474Y-81392137D01*
X201146304Y-81060145D01*
X201299104Y-80691254D01*
X201377000Y-80299642D01*
X201377000Y-79900358D01*
X201299104Y-79508746D01*
X201146304Y-79139855D01*
X200924474Y-78807863D01*
X200642137Y-78525526D01*
X200310145Y-78303696D01*
X199941254Y-78150896D01*
X199549642Y-78073000D01*
X199150358Y-78073000D01*
X198758746Y-78150896D01*
X198389855Y-78303696D01*
X198325000Y-78347031D01*
X198260145Y-78303696D01*
X197891254Y-78150896D01*
X197499642Y-78073000D01*
X197100358Y-78073000D01*
X196708746Y-78150896D01*
X196339855Y-78303696D01*
X196007863Y-78525526D01*
X195725526Y-78807863D01*
X195503696Y-79139855D01*
X195350896Y-79508746D01*
X195300430Y-79762459D01*
X194509872Y-80710748D01*
X194509872Y-79680000D01*
X194478458Y-79361052D01*
X194385425Y-79054362D01*
X194234346Y-78771714D01*
X194031029Y-78523971D01*
X193783286Y-78320654D01*
X193500638Y-78169575D01*
X193193948Y-78076542D01*
X192875000Y-78045128D01*
X191275000Y-78045128D01*
X190956052Y-78076542D01*
X190649362Y-78169575D01*
X190366714Y-78320654D01*
X190118971Y-78523971D01*
X189915654Y-78771714D01*
X189764575Y-79054362D01*
X189671542Y-79361052D01*
X189640128Y-79680000D01*
X189640128Y-81280000D01*
X189671542Y-81598948D01*
X189764575Y-81905638D01*
X189915654Y-82188286D01*
X190118971Y-82436029D01*
X190366714Y-82639346D01*
X190649362Y-82790425D01*
X190956052Y-82883458D01*
X191275000Y-82914872D01*
X192672366Y-82914872D01*
X185660426Y-91325829D01*
X185655155Y-91330155D01*
X185549971Y-91458322D01*
X185499185Y-91519241D01*
X185495380Y-91524842D01*
X185436217Y-91596932D01*
X185398640Y-91667234D01*
X185353844Y-91733169D01*
X185317493Y-91819049D01*
X185273531Y-91901296D01*
X185250391Y-91977578D01*
X185219320Y-92050984D01*
X185200422Y-92142305D01*
X185173350Y-92231549D01*
X185165537Y-92310879D01*
X185149383Y-92388938D01*
X185148664Y-92482191D01*
X185148000Y-92488932D01*
X185148000Y-92568297D01*
X185146722Y-92734040D01*
X185148000Y-92740734D01*
X185148001Y-112473547D01*
X185103696Y-112539854D01*
X184950896Y-112908745D01*
X184873000Y-113300357D01*
X168300000Y-113300357D01*
X168300000Y-100992017D01*
X173548000Y-100992017D01*
X173548000Y-101607983D01*
X173668169Y-102212112D01*
X173903889Y-102781190D01*
X174246101Y-103293346D01*
X174681654Y-103728899D01*
X175193810Y-104071111D01*
X175762888Y-104306831D01*
X176367017Y-104427000D01*
X176982983Y-104427000D01*
X177587112Y-104306831D01*
X178156190Y-104071111D01*
X178668346Y-103728899D01*
X179103899Y-103293346D01*
X179446111Y-102781190D01*
X179681831Y-102212112D01*
X179802000Y-101607983D01*
X179802000Y-100992017D01*
X179681831Y-100387888D01*
X179446111Y-99818810D01*
X179103899Y-99306654D01*
X178668346Y-98871101D01*
X178156190Y-98528889D01*
X177587112Y-98293169D01*
X176982983Y-98173000D01*
X176367017Y-98173000D01*
X175762888Y-98293169D01*
X175193810Y-98528889D01*
X174681654Y-98871101D01*
X174246101Y-99306654D01*
X173903889Y-99818810D01*
X173668169Y-100387888D01*
X173548000Y-100992017D01*
X168300000Y-100992017D01*
X168300000Y-96577702D01*
X198727999Y-66149704D01*
X198794845Y-66094845D01*
X198849705Y-66027998D01*
X198849711Y-66027992D01*
X199013783Y-65828069D01*
X199176468Y-65523706D01*
X199176469Y-65523705D01*
X199276650Y-65193452D01*
X199302000Y-64936069D01*
X199302000Y-64936061D01*
X199310476Y-64850000D01*
X199302000Y-64763939D01*
X199302000Y-60726451D01*
X199346304Y-60660145D01*
X199499104Y-60291254D01*
X199577000Y-59899642D01*
X199577000Y-59500358D01*
X199499104Y-59108746D01*
X199346304Y-58739855D01*
X199124474Y-58407863D01*
X198842137Y-58125526D01*
X198510145Y-57903696D01*
X198141254Y-57750896D01*
X197749642Y-57673000D01*
X197350358Y-57673000D01*
X196958746Y-57750896D01*
X196589855Y-57903696D01*
X196257863Y-58125526D01*
X195975526Y-58407863D01*
X195753696Y-58739855D01*
X195600896Y-59108746D01*
X195523000Y-59500358D01*
X195523000Y-59899642D01*
X195600896Y-60291254D01*
X195753696Y-60660145D01*
X195798001Y-60726452D01*
X195798000Y-64124297D01*
X178867682Y-81054616D01*
X179046831Y-80622112D01*
X179167000Y-80017983D01*
X179167000Y-79402017D01*
X179046831Y-78797888D01*
X178811111Y-78228810D01*
X178468899Y-77716654D01*
X178033346Y-77281101D01*
X177521190Y-76938889D01*
X176952112Y-76703169D01*
X176347983Y-76583000D01*
X175732017Y-76583000D01*
X175127888Y-76703169D01*
X174558810Y-76938889D01*
X174046654Y-77281101D01*
X173611101Y-77716654D01*
X173268889Y-78228810D01*
X173033169Y-78797888D01*
X172913000Y-79402017D01*
X172913000Y-80017983D01*
X173033169Y-80622112D01*
X173268889Y-81191190D01*
X173611101Y-81703346D01*
X174046654Y-82138899D01*
X174558810Y-82481111D01*
X175127888Y-82716831D01*
X175732017Y-82837000D01*
X176347983Y-82837000D01*
X176952112Y-82716831D01*
X177384616Y-82537682D01*
X165370003Y-94552295D01*
X165303156Y-94607155D01*
X165248296Y-94674002D01*
X165248289Y-94674009D01*
X165084217Y-94873932D01*
X164921532Y-95178295D01*
X164821350Y-95508549D01*
X164787524Y-95852000D01*
X164796001Y-95938071D01*
X164796000Y-113997549D01*
X164751696Y-114063855D01*
X164598896Y-114432746D01*
X164521000Y-114824358D01*
X157069723Y-114824358D01*
X157077000Y-110687723D01*
X157074437Y-110662113D01*
X157067093Y-110638325D01*
X157055250Y-110616426D01*
X157039361Y-110597258D01*
X157020039Y-110581559D01*
X156998025Y-110569930D01*
X156974166Y-110562820D01*
X156949377Y-110560502D01*
X152037282Y-110584581D01*
X144924709Y-103472008D01*
X144869844Y-103405155D01*
X144603068Y-103186217D01*
X144298704Y-103023531D01*
X143968451Y-102923350D01*
X143711068Y-102898000D01*
X143711060Y-102898000D01*
X143624999Y-102889524D01*
X143538938Y-102898000D01*
X141041403Y-102898000D01*
X140956029Y-102793971D01*
X140708286Y-102590654D01*
X140425638Y-102439575D01*
X140118948Y-102346542D01*
X139800000Y-102315128D01*
X137500000Y-102315128D01*
X137380000Y-102326947D01*
X137260000Y-102315128D01*
X134960000Y-102315128D01*
X134641052Y-102346542D01*
X134334362Y-102439575D01*
X134051714Y-102590654D01*
X133803971Y-102793971D01*
X133600654Y-103041714D01*
X133449575Y-103324362D01*
X133356542Y-103631052D01*
X133325128Y-103950000D01*
X133325128Y-107150000D01*
X133356542Y-107468948D01*
X133449575Y-107775638D01*
X133600654Y-108058286D01*
X133803971Y-108306029D01*
X134051714Y-108509346D01*
X134334362Y-108660425D01*
X134641052Y-108753458D01*
X134960000Y-108784872D01*
X137260000Y-108784872D01*
X137380000Y-108773053D01*
X137500000Y-108784872D01*
X139800000Y-108784872D01*
X140118948Y-108753458D01*
X140425638Y-108660425D01*
X140708286Y-108509346D01*
X140956029Y-108306029D01*
X141159346Y-108058286D01*
X141310425Y-107775638D01*
X141403458Y-107468948D01*
X141434872Y-107150000D01*
X141434872Y-106402000D01*
X142899297Y-106402000D01*
X146403703Y-109906407D01*
X146294362Y-109939575D01*
X146131011Y-110026888D01*
X145862096Y-109915500D01*
X145397069Y-109823000D01*
X144922931Y-109823000D01*
X144457904Y-109915500D01*
X144019858Y-110096945D01*
X143890000Y-110183713D01*
X143760142Y-110096945D01*
X143322096Y-109915500D01*
X142857069Y-109823000D01*
X142382931Y-109823000D01*
X141917904Y-109915500D01*
X141479858Y-110096945D01*
X141350000Y-110183713D01*
X141220142Y-110096945D01*
X140782096Y-109915500D01*
X140317069Y-109823000D01*
X139842931Y-109823000D01*
X139377904Y-109915500D01*
X138939858Y-110096945D01*
X138810000Y-110183713D01*
X138680142Y-110096945D01*
X138242096Y-109915500D01*
X137777069Y-109823000D01*
X137302931Y-109823000D01*
X136837904Y-109915500D01*
X136399858Y-110096945D01*
X136270000Y-110183713D01*
X136140142Y-110096945D01*
X135702096Y-109915500D01*
X135237069Y-109823000D01*
X134762931Y-109823000D01*
X134297904Y-109915500D01*
X133859858Y-110096945D01*
X133730000Y-110183713D01*
X133600142Y-110096945D01*
X133162096Y-109915500D01*
X132697069Y-109823000D01*
X132222931Y-109823000D01*
X131757904Y-109915500D01*
X131319858Y-110096945D01*
X131190000Y-110183713D01*
X131060142Y-110096945D01*
X130622096Y-109915500D01*
X130157069Y-109823000D01*
X129682931Y-109823000D01*
X129217904Y-109915500D01*
X128779858Y-110096945D01*
X128650000Y-110183713D01*
X128520142Y-110096945D01*
X128082096Y-109915500D01*
X127617069Y-109823000D01*
X127142931Y-109823000D01*
X126677904Y-109915500D01*
X126239858Y-110096945D01*
X126110000Y-110183713D01*
X125980142Y-110096945D01*
X125542096Y-109915500D01*
X125077069Y-109823000D01*
X124602931Y-109823000D01*
X124137904Y-109915500D01*
X123699858Y-110096945D01*
X123570000Y-110183713D01*
X123440142Y-110096945D01*
X123002096Y-109915500D01*
X122537069Y-109823000D01*
X122062931Y-109823000D01*
X121597904Y-109915500D01*
X121159858Y-110096945D01*
X121030000Y-110183713D01*
X120900142Y-110096945D01*
X120462096Y-109915500D01*
X119997069Y-109823000D01*
X119522931Y-109823000D01*
X119057904Y-109915500D01*
X118619858Y-110096945D01*
X118490000Y-110183713D01*
X118360142Y-110096945D01*
X117922096Y-109915500D01*
X117457069Y-109823000D01*
X116982931Y-109823000D01*
X116517904Y-109915500D01*
X116079858Y-110096945D01*
X115950000Y-110183713D01*
X115820142Y-110096945D01*
X115503045Y-109965599D01*
X115608286Y-109909346D01*
X115856029Y-109706029D01*
X116059346Y-109458286D01*
X116210425Y-109175638D01*
X116303458Y-108868948D01*
X116334872Y-108550000D01*
X116334872Y-106250000D01*
X116303458Y-105931052D01*
X116210425Y-105624362D01*
X116059346Y-105341714D01*
X115856029Y-105093971D01*
X115608286Y-104890654D01*
X115325638Y-104739575D01*
X115018948Y-104646542D01*
X114700000Y-104615128D01*
X114326999Y-104615128D01*
X114326999Y-100992017D01*
X150948000Y-100992017D01*
X150948000Y-101607983D01*
X151068169Y-102212112D01*
X151303889Y-102781190D01*
X151646101Y-103293346D01*
X152081654Y-103728899D01*
X152593810Y-104071111D01*
X153162888Y-104306831D01*
X153767017Y-104427000D01*
X154382983Y-104427000D01*
X154987112Y-104306831D01*
X155556190Y-104071111D01*
X156068346Y-103728899D01*
X156503899Y-103293346D01*
X156846111Y-102781190D01*
X157081831Y-102212112D01*
X157202000Y-101607983D01*
X157202000Y-100992017D01*
X157081831Y-100387888D01*
X156846111Y-99818810D01*
X156503899Y-99306654D01*
X156068346Y-98871101D01*
X155556190Y-98528889D01*
X154987112Y-98293169D01*
X154382983Y-98173000D01*
X153767017Y-98173000D01*
X153162888Y-98293169D01*
X152593810Y-98528889D01*
X152081654Y-98871101D01*
X151646101Y-99306654D01*
X151303889Y-99818810D01*
X151068169Y-100387888D01*
X150948000Y-100992017D01*
X114326999Y-100992017D01*
X114326999Y-97600358D01*
X116373000Y-97600358D01*
X116373000Y-97999642D01*
X116450896Y-98391254D01*
X116603696Y-98760145D01*
X116825526Y-99092137D01*
X117107863Y-99374474D01*
X117439855Y-99596304D01*
X117808746Y-99749104D01*
X118200358Y-99827000D01*
X118599642Y-99827000D01*
X118991254Y-99749104D01*
X119360145Y-99596304D01*
X119426451Y-99552000D01*
X131973549Y-99552000D01*
X132039855Y-99596304D01*
X132408746Y-99749104D01*
X132800358Y-99827000D01*
X133199642Y-99827000D01*
X133591254Y-99749104D01*
X133960145Y-99596304D01*
X134292137Y-99374474D01*
X134574474Y-99092137D01*
X134796304Y-98760145D01*
X134949104Y-98391254D01*
X135027000Y-97999642D01*
X135027000Y-97600358D01*
X134949104Y-97208746D01*
X134796304Y-96839855D01*
X134574474Y-96507863D01*
X134292137Y-96225526D01*
X133960145Y-96003696D01*
X133591254Y-95850896D01*
X133199642Y-95773000D01*
X132800358Y-95773000D01*
X132408746Y-95850896D01*
X132039855Y-96003696D01*
X131973549Y-96048000D01*
X119426451Y-96048000D01*
X119360145Y-96003696D01*
X118991254Y-95850896D01*
X118599642Y-95773000D01*
X118200358Y-95773000D01*
X117808746Y-95850896D01*
X117439855Y-96003696D01*
X117107863Y-96225526D01*
X116825526Y-96507863D01*
X116603696Y-96839855D01*
X116450896Y-97208746D01*
X116373000Y-97600358D01*
X114326999Y-97600358D01*
X114326999Y-96950703D01*
X121313042Y-89964661D01*
X121391254Y-89949104D01*
X121760145Y-89796304D01*
X122092137Y-89574474D01*
X122374474Y-89292137D01*
X122596304Y-88960145D01*
X122749104Y-88591254D01*
X122827000Y-88199642D01*
X122827000Y-87800358D01*
X122749104Y-87408746D01*
X122596304Y-87039855D01*
X122374474Y-86707863D01*
X122092137Y-86425526D01*
X121760145Y-86203696D01*
X121391254Y-86050896D01*
X120999642Y-85973000D01*
X120600358Y-85973000D01*
X120208746Y-86050896D01*
X119839855Y-86203696D01*
X119507863Y-86425526D01*
X119225526Y-86707863D01*
X119003696Y-87039855D01*
X118850896Y-87408746D01*
X118835339Y-87486958D01*
X111397007Y-94925291D01*
X111330154Y-94980156D01*
X111111216Y-95246933D01*
X110948530Y-95551297D01*
X110944334Y-95565128D01*
X109350000Y-95565128D01*
X109031052Y-95596542D01*
X108724362Y-95689575D01*
X108441714Y-95840654D01*
X108193971Y-96043971D01*
X107990654Y-96291714D01*
X107839575Y-96574362D01*
X107746542Y-96881052D01*
X107715128Y-97200000D01*
X107715128Y-98062042D01*
X107624362Y-98089575D01*
X107341714Y-98240654D01*
X107093971Y-98443971D01*
X106890654Y-98691714D01*
X106739575Y-98974362D01*
X106646542Y-99281052D01*
X106615128Y-99600000D01*
X106615128Y-101400000D01*
X106646542Y-101718948D01*
X106739575Y-102025638D01*
X106890654Y-102308286D01*
X107093971Y-102556029D01*
X107341714Y-102759346D01*
X107624362Y-102910425D01*
X107931052Y-103003458D01*
X108250000Y-103034872D01*
X110550000Y-103034872D01*
X110822999Y-103007984D01*
X110823000Y-109433895D01*
X110329885Y-109927011D01*
X110302096Y-109915500D01*
X109837069Y-109823000D01*
X109362931Y-109823000D01*
X108916130Y-109911875D01*
X109106029Y-109756029D01*
X109309346Y-109508286D01*
X109460425Y-109225638D01*
X109553458Y-108918948D01*
X109584872Y-108600000D01*
X109584872Y-107200000D01*
X109553458Y-106881052D01*
X109460425Y-106574362D01*
X109309346Y-106291714D01*
X109106029Y-106043971D01*
X108858286Y-105840654D01*
X108575638Y-105689575D01*
X108268948Y-105596542D01*
X107950000Y-105565128D01*
X105850000Y-105565128D01*
X105531052Y-105596542D01*
X105224362Y-105689575D01*
X104941714Y-105840654D01*
X104693971Y-106043971D01*
X104490654Y-106291714D01*
X104339575Y-106574362D01*
X104246542Y-106881052D01*
X104215128Y-107200000D01*
X104215128Y-108600000D01*
X104246542Y-108918948D01*
X104339575Y-109225638D01*
X104490654Y-109508286D01*
X104693971Y-109756029D01*
X104781496Y-109827859D01*
X104757069Y-109823000D01*
X104282931Y-109823000D01*
X103817904Y-109915500D01*
X103379858Y-110096945D01*
X103250000Y-110183713D01*
X103120142Y-110096945D01*
X102682096Y-109915500D01*
X102217069Y-109823000D01*
X101742931Y-109823000D01*
X101652000Y-109841087D01*
X101652000Y-83238000D01*
X112003128Y-83238000D01*
X112003128Y-84762000D01*
X112034542Y-85080948D01*
X112127575Y-85387638D01*
X112210590Y-85542947D01*
X112102808Y-85803155D01*
X112011000Y-86264704D01*
X112011000Y-86735296D01*
X112102808Y-87196845D01*
X112228379Y-87500000D01*
X112102808Y-87803155D01*
X112011000Y-88264704D01*
X112011000Y-88735296D01*
X112102808Y-89196845D01*
X112282896Y-89631616D01*
X112544343Y-90022899D01*
X112877101Y-90355657D01*
X113268384Y-90617104D01*
X113703155Y-90797192D01*
X114164704Y-90889000D01*
X114635296Y-90889000D01*
X115096845Y-90797192D01*
X115531616Y-90617104D01*
X115922899Y-90355657D01*
X116255657Y-90022899D01*
X116517104Y-89631616D01*
X116697192Y-89196845D01*
X116789000Y-88735296D01*
X116789000Y-88264704D01*
X116697192Y-87803155D01*
X116571621Y-87500000D01*
X116697192Y-87196845D01*
X116789000Y-86735296D01*
X116789000Y-86264704D01*
X116697192Y-85803155D01*
X116589410Y-85542947D01*
X116672425Y-85387638D01*
X116765458Y-85080948D01*
X116796872Y-84762000D01*
X116796872Y-83350000D01*
X133325128Y-83350000D01*
X133325128Y-86550000D01*
X133356542Y-86868948D01*
X133449575Y-87175638D01*
X133600654Y-87458286D01*
X133803971Y-87706029D01*
X134051714Y-87909346D01*
X134334362Y-88060425D01*
X134641052Y-88153458D01*
X134960000Y-88184872D01*
X137260000Y-88184872D01*
X137380000Y-88173053D01*
X137500000Y-88184872D01*
X139800000Y-88184872D01*
X140118948Y-88153458D01*
X140425638Y-88060425D01*
X140708286Y-87909346D01*
X140956029Y-87706029D01*
X141159346Y-87458286D01*
X141310425Y-87175638D01*
X141403458Y-86868948D01*
X141434872Y-86550000D01*
X141434872Y-83350000D01*
X141403458Y-83031052D01*
X141310425Y-82724362D01*
X141159346Y-82441714D01*
X140956029Y-82193971D01*
X140708286Y-81990654D01*
X140425638Y-81839575D01*
X140118948Y-81746542D01*
X139800000Y-81715128D01*
X137500000Y-81715128D01*
X137380000Y-81726947D01*
X137260000Y-81715128D01*
X134960000Y-81715128D01*
X134641052Y-81746542D01*
X134334362Y-81839575D01*
X134051714Y-81990654D01*
X133803971Y-82193971D01*
X133600654Y-82441714D01*
X133449575Y-82724362D01*
X133356542Y-83031052D01*
X133325128Y-83350000D01*
X116796872Y-83350000D01*
X116796872Y-83238000D01*
X116765458Y-82919052D01*
X116672425Y-82612362D01*
X116521346Y-82329714D01*
X116318029Y-82081971D01*
X116070286Y-81878654D01*
X115787638Y-81727575D01*
X115480948Y-81634542D01*
X115162000Y-81603128D01*
X113638000Y-81603128D01*
X113319052Y-81634542D01*
X113012362Y-81727575D01*
X112729714Y-81878654D01*
X112481971Y-82081971D01*
X112278654Y-82329714D01*
X112127575Y-82612362D01*
X112034542Y-82919052D01*
X112003128Y-83238000D01*
X101652000Y-83238000D01*
X101652000Y-79402017D01*
X150313000Y-79402017D01*
X150313000Y-80017983D01*
X150433169Y-80622112D01*
X150668889Y-81191190D01*
X151011101Y-81703346D01*
X151446654Y-82138899D01*
X151958810Y-82481111D01*
X152527888Y-82716831D01*
X153132017Y-82837000D01*
X153747983Y-82837000D01*
X154352112Y-82716831D01*
X154921190Y-82481111D01*
X155433346Y-82138899D01*
X155868899Y-81703346D01*
X156211111Y-81191190D01*
X156446831Y-80622112D01*
X156567000Y-80017983D01*
X156567000Y-79402017D01*
X156446831Y-78797888D01*
X156211111Y-78228810D01*
X155868899Y-77716654D01*
X155433346Y-77281101D01*
X154921190Y-76938889D01*
X154352112Y-76703169D01*
X153747983Y-76583000D01*
X153132017Y-76583000D01*
X152527888Y-76703169D01*
X151958810Y-76938889D01*
X151446654Y-77281101D01*
X151011101Y-77716654D01*
X150668889Y-78228810D01*
X150433169Y-78797888D01*
X150313000Y-79402017D01*
X101652000Y-79402017D01*
X101652000Y-77651785D01*
X101802589Y-77877157D01*
X102272843Y-78347411D01*
X102825803Y-78716887D01*
X103440219Y-78971387D01*
X104092480Y-79101129D01*
X104757520Y-79101129D01*
X105409781Y-78971387D01*
X106024197Y-78716887D01*
X106577157Y-78347411D01*
X107047411Y-77877157D01*
X107416887Y-77324197D01*
X107671387Y-76709781D01*
X107801129Y-76057520D01*
X107801129Y-75392480D01*
X107671387Y-74740219D01*
X107416887Y-74125803D01*
X107047411Y-73572843D01*
X106999568Y-73525000D01*
X114190128Y-73525000D01*
X114190128Y-75475000D01*
X114221542Y-75793948D01*
X114314575Y-76100638D01*
X114465654Y-76383286D01*
X114668971Y-76631029D01*
X114916714Y-76834346D01*
X115199362Y-76985425D01*
X115506052Y-77078458D01*
X115825000Y-77109872D01*
X117775000Y-77109872D01*
X118093948Y-77078458D01*
X118400638Y-76985425D01*
X118683286Y-76834346D01*
X118931029Y-76631029D01*
X119134346Y-76383286D01*
X119285425Y-76100638D01*
X119378458Y-75793948D01*
X119409872Y-75475000D01*
X119409872Y-74243725D01*
X134198000Y-74243725D01*
X134198000Y-74756275D01*
X134297993Y-75258975D01*
X134494137Y-75732509D01*
X134778895Y-76158678D01*
X135141322Y-76521105D01*
X135567491Y-76805863D01*
X136041025Y-77002007D01*
X136543725Y-77102000D01*
X137056275Y-77102000D01*
X137558975Y-77002007D01*
X138032509Y-76805863D01*
X138458678Y-76521105D01*
X138821105Y-76158678D01*
X139105863Y-75732509D01*
X139300000Y-75263820D01*
X139494137Y-75732509D01*
X139778895Y-76158678D01*
X140141322Y-76521105D01*
X140567491Y-76805863D01*
X141041025Y-77002007D01*
X141543725Y-77102000D01*
X142056275Y-77102000D01*
X142558975Y-77002007D01*
X143032509Y-76805863D01*
X143458678Y-76521105D01*
X143821105Y-76158678D01*
X144105863Y-75732509D01*
X144302007Y-75258975D01*
X144402000Y-74756275D01*
X144402000Y-74243725D01*
X144302007Y-73741025D01*
X144105863Y-73267491D01*
X143821105Y-72841322D01*
X143458678Y-72478895D01*
X143032509Y-72194137D01*
X142558975Y-71997993D01*
X142056275Y-71898000D01*
X141543725Y-71898000D01*
X141041025Y-71997993D01*
X140567491Y-72194137D01*
X140141322Y-72478895D01*
X139778895Y-72841322D01*
X139494137Y-73267491D01*
X139300000Y-73736180D01*
X139105863Y-73267491D01*
X138821105Y-72841322D01*
X138458678Y-72478895D01*
X138032509Y-72194137D01*
X137558975Y-71997993D01*
X137056275Y-71898000D01*
X136543725Y-71898000D01*
X136041025Y-71997993D01*
X135567491Y-72194137D01*
X135141322Y-72478895D01*
X134778895Y-72841322D01*
X134494137Y-73267491D01*
X134297993Y-73741025D01*
X134198000Y-74243725D01*
X119409872Y-74243725D01*
X119409872Y-73525000D01*
X119378458Y-73206052D01*
X119285425Y-72899362D01*
X119134346Y-72616714D01*
X118931029Y-72368971D01*
X118683286Y-72165654D01*
X118400638Y-72014575D01*
X118093948Y-71921542D01*
X117775000Y-71890128D01*
X115825000Y-71890128D01*
X115506052Y-71921542D01*
X115199362Y-72014575D01*
X114916714Y-72165654D01*
X114668971Y-72368971D01*
X114465654Y-72616714D01*
X114314575Y-72899362D01*
X114221542Y-73206052D01*
X114190128Y-73525000D01*
X106999568Y-73525000D01*
X106577157Y-73102589D01*
X106024197Y-72733113D01*
X105409781Y-72478613D01*
X104757520Y-72348871D01*
X104092480Y-72348871D01*
X103440219Y-72478613D01*
X102825803Y-72733113D01*
X102272843Y-73102589D01*
X101802589Y-73572843D01*
X101652000Y-73798215D01*
X101652000Y-66743725D01*
X134198000Y-66743725D01*
X134198000Y-67256275D01*
X134297993Y-67758975D01*
X134494137Y-68232509D01*
X134778895Y-68658678D01*
X135141322Y-69021105D01*
X135567491Y-69305863D01*
X136041025Y-69502007D01*
X136543725Y-69602000D01*
X137056275Y-69602000D01*
X137558975Y-69502007D01*
X138032509Y-69305863D01*
X138458678Y-69021105D01*
X138821105Y-68658678D01*
X139105863Y-68232509D01*
X139300000Y-67763820D01*
X139494137Y-68232509D01*
X139778895Y-68658678D01*
X140141322Y-69021105D01*
X140567491Y-69305863D01*
X141041025Y-69502007D01*
X141543725Y-69602000D01*
X142056275Y-69602000D01*
X142558975Y-69502007D01*
X143032509Y-69305863D01*
X143458678Y-69021105D01*
X143821105Y-68658678D01*
X144105863Y-68232509D01*
X144302007Y-67758975D01*
X144402000Y-67256275D01*
X144402000Y-66743725D01*
X144302007Y-66241025D01*
X144105863Y-65767491D01*
X143821105Y-65341322D01*
X143458678Y-64978895D01*
X143032509Y-64694137D01*
X142558975Y-64497993D01*
X142056275Y-64398000D01*
X141543725Y-64398000D01*
X141041025Y-64497993D01*
X140567491Y-64694137D01*
X140141322Y-64978895D01*
X139778895Y-65341322D01*
X139494137Y-65767491D01*
X139300000Y-66236180D01*
X139105863Y-65767491D01*
X138821105Y-65341322D01*
X138458678Y-64978895D01*
X138032509Y-64694137D01*
X137558975Y-64497993D01*
X137056275Y-64398000D01*
X136543725Y-64398000D01*
X136041025Y-64497993D01*
X135567491Y-64694137D01*
X135141322Y-64978895D01*
X134778895Y-65341322D01*
X134494137Y-65767491D01*
X134297993Y-66241025D01*
X134198000Y-66743725D01*
X101652000Y-66743725D01*
X101652000Y-58922111D01*
X101843971Y-59156029D01*
X102091714Y-59359346D01*
X102374362Y-59510425D01*
X102681052Y-59603458D01*
X103000000Y-59634872D01*
X106000000Y-59634872D01*
X106318948Y-59603458D01*
X106625638Y-59510425D01*
X106908286Y-59359346D01*
X107156029Y-59156029D01*
X107359346Y-58908286D01*
X107510425Y-58625638D01*
X107603458Y-58318948D01*
X107634872Y-58000000D01*
X107634872Y-55000000D01*
X107603458Y-54681052D01*
X107510425Y-54374362D01*
X107359346Y-54091714D01*
X107202011Y-53900000D01*
X121915128Y-53900000D01*
X121915128Y-60900000D01*
X121946542Y-61218948D01*
X122039575Y-61525638D01*
X122190654Y-61808286D01*
X122393971Y-62056029D01*
X122641714Y-62259346D01*
X122924362Y-62410425D01*
X123231052Y-62503458D01*
X123550000Y-62534872D01*
X126050000Y-62534872D01*
X126368948Y-62503458D01*
X126675638Y-62410425D01*
X126958286Y-62259346D01*
X127206029Y-62056029D01*
X127409346Y-61808286D01*
X127560425Y-61525638D01*
X127653458Y-61218948D01*
X127684872Y-60900000D01*
X127684872Y-53900000D01*
X128915128Y-53900000D01*
X128915128Y-60900000D01*
X128946542Y-61218948D01*
X129039575Y-61525638D01*
X129190654Y-61808286D01*
X129393971Y-62056029D01*
X129641714Y-62259346D01*
X129924362Y-62410425D01*
X130231052Y-62503458D01*
X130550000Y-62534872D01*
X133050000Y-62534872D01*
X133368948Y-62503458D01*
X133675638Y-62410425D01*
X133958286Y-62259346D01*
X134206029Y-62056029D01*
X134409346Y-61808286D01*
X134560425Y-61525638D01*
X134653458Y-61218948D01*
X134684872Y-60900000D01*
X134684872Y-57812017D01*
X150313000Y-57812017D01*
X150313000Y-58427983D01*
X150433169Y-59032112D01*
X150668889Y-59601190D01*
X151011101Y-60113346D01*
X151446654Y-60548899D01*
X151958810Y-60891111D01*
X152527888Y-61126831D01*
X153132017Y-61247000D01*
X153747983Y-61247000D01*
X154352112Y-61126831D01*
X154921190Y-60891111D01*
X155433346Y-60548899D01*
X155868899Y-60113346D01*
X156211111Y-59601190D01*
X156446831Y-59032112D01*
X156567000Y-58427983D01*
X156567000Y-57812017D01*
X172913000Y-57812017D01*
X172913000Y-58427983D01*
X173033169Y-59032112D01*
X173268889Y-59601190D01*
X173611101Y-60113346D01*
X174046654Y-60548899D01*
X174558810Y-60891111D01*
X175127888Y-61126831D01*
X175732017Y-61247000D01*
X176347983Y-61247000D01*
X176952112Y-61126831D01*
X177521190Y-60891111D01*
X178033346Y-60548899D01*
X178468899Y-60113346D01*
X178811111Y-59601190D01*
X178911015Y-59360000D01*
X189640128Y-59360000D01*
X189640128Y-60960000D01*
X189671542Y-61278948D01*
X189764575Y-61585638D01*
X189915654Y-61868286D01*
X190118971Y-62116029D01*
X190366714Y-62319346D01*
X190649362Y-62470425D01*
X190956052Y-62563458D01*
X191275000Y-62594872D01*
X192875000Y-62594872D01*
X193193948Y-62563458D01*
X193500638Y-62470425D01*
X193783286Y-62319346D01*
X194031029Y-62116029D01*
X194234346Y-61868286D01*
X194385425Y-61585638D01*
X194478458Y-61278948D01*
X194509872Y-60960000D01*
X194509872Y-59360000D01*
X194478458Y-59041052D01*
X194385425Y-58734362D01*
X194234346Y-58451714D01*
X194031029Y-58203971D01*
X193783286Y-58000654D01*
X193500638Y-57849575D01*
X193193948Y-57756542D01*
X192875000Y-57725128D01*
X191275000Y-57725128D01*
X190956052Y-57756542D01*
X190649362Y-57849575D01*
X190366714Y-58000654D01*
X190118971Y-58203971D01*
X189915654Y-58451714D01*
X189764575Y-58734362D01*
X189671542Y-59041052D01*
X189640128Y-59360000D01*
X178911015Y-59360000D01*
X179046831Y-59032112D01*
X179167000Y-58427983D01*
X179167000Y-57812017D01*
X179046831Y-57207888D01*
X178811111Y-56638810D01*
X178468899Y-56126654D01*
X178033346Y-55691101D01*
X177521190Y-55348889D01*
X176952112Y-55113169D01*
X176347983Y-54993000D01*
X175732017Y-54993000D01*
X175127888Y-55113169D01*
X174558810Y-55348889D01*
X174046654Y-55691101D01*
X173611101Y-56126654D01*
X173268889Y-56638810D01*
X173033169Y-57207888D01*
X172913000Y-57812017D01*
X156567000Y-57812017D01*
X156446831Y-57207888D01*
X156211111Y-56638810D01*
X155868899Y-56126654D01*
X155433346Y-55691101D01*
X154921190Y-55348889D01*
X154352112Y-55113169D01*
X153747983Y-54993000D01*
X153132017Y-54993000D01*
X152527888Y-55113169D01*
X151958810Y-55348889D01*
X151446654Y-55691101D01*
X151011101Y-56126654D01*
X150668889Y-56638810D01*
X150433169Y-57207888D01*
X150313000Y-57812017D01*
X134684872Y-57812017D01*
X134684872Y-53900000D01*
X134653458Y-53581052D01*
X134560425Y-53274362D01*
X134409346Y-52991714D01*
X134206029Y-52743971D01*
X133958286Y-52540654D01*
X133675638Y-52389575D01*
X133368948Y-52296542D01*
X133050000Y-52265128D01*
X130550000Y-52265128D01*
X130231052Y-52296542D01*
X129924362Y-52389575D01*
X129641714Y-52540654D01*
X129393971Y-52743971D01*
X129190654Y-52991714D01*
X129039575Y-53274362D01*
X128946542Y-53581052D01*
X128915128Y-53900000D01*
X127684872Y-53900000D01*
X127653458Y-53581052D01*
X127560425Y-53274362D01*
X127409346Y-52991714D01*
X127206029Y-52743971D01*
X126958286Y-52540654D01*
X126675638Y-52389575D01*
X126368948Y-52296542D01*
X126050000Y-52265128D01*
X123550000Y-52265128D01*
X123231052Y-52296542D01*
X122924362Y-52389575D01*
X122641714Y-52540654D01*
X122393971Y-52743971D01*
X122190654Y-52991714D01*
X122039575Y-53274362D01*
X121946542Y-53581052D01*
X121915128Y-53900000D01*
X107202011Y-53900000D01*
X107156029Y-53843971D01*
X106908286Y-53640654D01*
X106625638Y-53489575D01*
X106318948Y-53396542D01*
X106000000Y-53365128D01*
X103000000Y-53365128D01*
X102681052Y-53396542D01*
X102374362Y-53489575D01*
X102091714Y-53640654D01*
X101843971Y-53843971D01*
X101652000Y-54077889D01*
X101652000Y-51652000D01*
X183673243Y-51652000D01*
X183533148Y-51990219D01*
G37*
X183533148Y-51990219D02*
X183403406Y-52642480D01*
X183403406Y-53307520D01*
X183533148Y-53959781D01*
X183787648Y-54574197D01*
X184157124Y-55127157D01*
X184627378Y-55597411D01*
X185180338Y-55966887D01*
X185794754Y-56221387D01*
X186447015Y-56351129D01*
X187112055Y-56351129D01*
X187764316Y-56221387D01*
X188378732Y-55966887D01*
X188931692Y-55597411D01*
X189401946Y-55127157D01*
X189771422Y-54574197D01*
X190025922Y-53959781D01*
X190155664Y-53307520D01*
X190155664Y-52642480D01*
X190025922Y-51990219D01*
X189885827Y-51652000D01*
X208348001Y-51652000D01*
X208348001Y-57835568D01*
X208234712Y-57666019D01*
X207833981Y-57265288D01*
X207362771Y-56950435D01*
X206839190Y-56733561D01*
X206283360Y-56623000D01*
X205716640Y-56623000D01*
X205160810Y-56733561D01*
X204637229Y-56950435D01*
X204166019Y-57265288D01*
X203765288Y-57666019D01*
X203450435Y-58137229D01*
X203233561Y-58660810D01*
X203123000Y-59216640D01*
X203123000Y-59783360D01*
X203233561Y-60339190D01*
X203450435Y-60862771D01*
X203765288Y-61333981D01*
X204160055Y-61728748D01*
X204124362Y-61739575D01*
X203841714Y-61890654D01*
X203593971Y-62093971D01*
X203390654Y-62341714D01*
X203239575Y-62624362D01*
X203146542Y-62931052D01*
X203115128Y-63250000D01*
X203115128Y-65750000D01*
X203146542Y-66068948D01*
X203239575Y-66375638D01*
X203390654Y-66658286D01*
X203593971Y-66906029D01*
X203841714Y-67109346D01*
X204124362Y-67260425D01*
X204431052Y-67353458D01*
X204750000Y-67384872D01*
X207250000Y-67384872D01*
X207568948Y-67353458D01*
X207875638Y-67260425D01*
X208158286Y-67109346D01*
X208348001Y-66953651D01*
X208348001Y-80733220D01*
X208279712Y-80631019D01*
X207878981Y-80230288D01*
X207407771Y-79915435D01*
X206884190Y-79698561D01*
X206328360Y-79588000D01*
X205761640Y-79588000D01*
X205205810Y-79698561D01*
X204682229Y-79915435D01*
X204211019Y-80230288D01*
X203810288Y-80631019D01*
X203495435Y-81102229D01*
X203278561Y-81625810D01*
X203168000Y-82181640D01*
X203168000Y-82748360D01*
X203278561Y-83304190D01*
X203495435Y-83827771D01*
X203810288Y-84298981D01*
X204205055Y-84693748D01*
X204169362Y-84704575D01*
X203886714Y-84855654D01*
X203638971Y-85058971D01*
X203435654Y-85306714D01*
X203284575Y-85589362D01*
X203191542Y-85896052D01*
X203160128Y-86215000D01*
X203160128Y-88715000D01*
X203191542Y-89033948D01*
X203284575Y-89340638D01*
X203435654Y-89623286D01*
X203638971Y-89871029D01*
X203886714Y-90074346D01*
X204169362Y-90225425D01*
X204476052Y-90318458D01*
X204795000Y-90349872D01*
X207295000Y-90349872D01*
X207613948Y-90318458D01*
X207920638Y-90225425D01*
X208203286Y-90074346D01*
X208348001Y-89955582D01*
X208348000Y-100405567D01*
X208234712Y-100236019D01*
X207833981Y-99835288D01*
X207362771Y-99520435D01*
X206839190Y-99303561D01*
X206283360Y-99193000D01*
X205716640Y-99193000D01*
X205160810Y-99303561D01*
X204637229Y-99520435D01*
X204166019Y-99835288D01*
X203765288Y-100236019D01*
X203450435Y-100707229D01*
X203233561Y-101230810D01*
X203123000Y-101786640D01*
X203123000Y-102353360D01*
X203233561Y-102909190D01*
X203450435Y-103432771D01*
X203765288Y-103903981D01*
X204160055Y-104298748D01*
X204124362Y-104309575D01*
X203841714Y-104460654D01*
X203593971Y-104663971D01*
X203390654Y-104911714D01*
X203239575Y-105194362D01*
X203146542Y-105501052D01*
X203115128Y-105820000D01*
X203115128Y-108320000D01*
X203146542Y-108638948D01*
X203239575Y-108945638D01*
X203390654Y-109228286D01*
X203593971Y-109476029D01*
X203841714Y-109679346D01*
X204124362Y-109830425D01*
X204431052Y-109923458D01*
X204750000Y-109954872D01*
X207250000Y-109954872D01*
X207568948Y-109923458D01*
X207875638Y-109830425D01*
X208158286Y-109679346D01*
X208348000Y-109523652D01*
X208348000Y-127209000D01*
X208241263Y-127209000D01*
X207733732Y-127309954D01*
X207255649Y-127507983D01*
X206825385Y-127795476D01*
X206459476Y-128161385D01*
X206427000Y-128209989D01*
X206427000Y-128200358D01*
X206349104Y-127808746D01*
X206196304Y-127439855D01*
X206152000Y-127373549D01*
X206152000Y-122941926D01*
X206178754Y-122936604D01*
X206547645Y-122783804D01*
X206879637Y-122561974D01*
X207161974Y-122279637D01*
X207383804Y-121947645D01*
X207536604Y-121578754D01*
X207614500Y-121187142D01*
X207614500Y-120787858D01*
X207536604Y-120396246D01*
X207383804Y-120027355D01*
X207161974Y-119695363D01*
X206879637Y-119413026D01*
X206547645Y-119191196D01*
X206178754Y-119038396D01*
X205787142Y-118960500D01*
X205387858Y-118960500D01*
X204996246Y-119038396D01*
X204627355Y-119191196D01*
X204561049Y-119235500D01*
X204498561Y-119235500D01*
X204412500Y-119227024D01*
X204326439Y-119235500D01*
X204326431Y-119235500D01*
X204069048Y-119260850D01*
X203738795Y-119361031D01*
X203724196Y-119368834D01*
X203691474Y-119319863D01*
X203409137Y-119037526D01*
X203077145Y-118815696D01*
X202708254Y-118662896D01*
X202316642Y-118585000D01*
X201917358Y-118585000D01*
X201525746Y-118662896D01*
X201156855Y-118815696D01*
X200824863Y-119037526D01*
X200542526Y-119319863D01*
X200320696Y-119651855D01*
X200167896Y-120020746D01*
X200090000Y-120412358D01*
X200090000Y-120811642D01*
X200167896Y-121203254D01*
X200320696Y-121572145D01*
X200365000Y-121638451D01*
X200365001Y-123598445D01*
X200203696Y-123839855D01*
X200199027Y-123851128D01*
X199500000Y-123851128D01*
X199181052Y-123882542D01*
X198874362Y-123975575D01*
X198591714Y-124126654D01*
X198343971Y-124329971D01*
X198140654Y-124577714D01*
X197989575Y-124860362D01*
X197896542Y-125167052D01*
X197865128Y-125486000D01*
X197865128Y-127986000D01*
X197896542Y-128304948D01*
X197989575Y-128611638D01*
X198140654Y-128894286D01*
X198343971Y-129142029D01*
X198591714Y-129345346D01*
X198874362Y-129496425D01*
X199181052Y-129589458D01*
X199500000Y-129620872D01*
X202500000Y-129620872D01*
X202760748Y-129595190D01*
X202825526Y-129692137D01*
X203107863Y-129974474D01*
X203439855Y-130196304D01*
X203808746Y-130349104D01*
X204200358Y-130427000D01*
X204599642Y-130427000D01*
X204991254Y-130349104D01*
X205360145Y-130196304D01*
X205692137Y-129974474D01*
X205873000Y-129793611D01*
X205873000Y-130094737D01*
X205973954Y-130602268D01*
X206171983Y-131080351D01*
X206459476Y-131510615D01*
X206825385Y-131876524D01*
X207255649Y-132164017D01*
X207374972Y-132213442D01*
X207181052Y-132232542D01*
X206874362Y-132325575D01*
X206591714Y-132476654D01*
X206343971Y-132679971D01*
X206140654Y-132927714D01*
X205989575Y-133210362D01*
X205896542Y-133517052D01*
X205865128Y-133836000D01*
X205865128Y-135836000D01*
X205896542Y-136154948D01*
X205989575Y-136461638D01*
X206140654Y-136744286D01*
X206343971Y-136992029D01*
X206591714Y-137195346D01*
X206874362Y-137346425D01*
X207181052Y-137439458D01*
X207500000Y-137470872D01*
X208348000Y-137470872D01*
X208348000Y-139348000D01*
X204118916Y-139348000D01*
X204134872Y-139186000D01*
X204134872Y-136686000D01*
X204103458Y-136367052D01*
X204010425Y-136060362D01*
X203859346Y-135777714D01*
X203656029Y-135529971D01*
X203408286Y-135326654D01*
X203125638Y-135175575D01*
X202818948Y-135082542D01*
X202500000Y-135051128D01*
X199500000Y-135051128D01*
X199181052Y-135082542D01*
X198874362Y-135175575D01*
X198591714Y-135326654D01*
X198343971Y-135529971D01*
X198140654Y-135777714D01*
X197989575Y-136060362D01*
X197896542Y-136367052D01*
X197865128Y-136686000D01*
X197865128Y-139186000D01*
X197881084Y-139348000D01*
X190552984Y-139348000D01*
X190775922Y-138809781D01*
X190905664Y-138157520D01*
X190905664Y-137492480D01*
X190775922Y-136840219D01*
X190521422Y-136225803D01*
X190151946Y-135672843D01*
X189681692Y-135202589D01*
X189128732Y-134833113D01*
X188514316Y-134578613D01*
X187862055Y-134448871D01*
X187197015Y-134448871D01*
X186544754Y-134578613D01*
X185930338Y-134833113D01*
X185377378Y-135202589D01*
X184907124Y-135672843D01*
X184537648Y-136225803D01*
X184283148Y-136840219D01*
X184153406Y-137492480D01*
X184153406Y-138157520D01*
X184283148Y-138809781D01*
X184506086Y-139348000D01*
X178193919Y-139348000D01*
X178560145Y-139196304D01*
X178892137Y-138974474D01*
X179174474Y-138692137D01*
X179396304Y-138360145D01*
X179549104Y-137991254D01*
X179564662Y-137913040D01*
X180902994Y-136574708D01*
X180969846Y-136519844D01*
X181188784Y-136253068D01*
X181351470Y-135948704D01*
X181451651Y-135618451D01*
X181477001Y-135361068D01*
X181477001Y-135361058D01*
X181485477Y-135275000D01*
X181477001Y-135188942D01*
X181477001Y-131284072D01*
X181477832Y-131275631D01*
X181671983Y-131744351D01*
X181959476Y-132174615D01*
X182325385Y-132540524D01*
X182755649Y-132828017D01*
X183233732Y-133026046D01*
X183741263Y-133127000D01*
X184258737Y-133127000D01*
X184766268Y-133026046D01*
X185244351Y-132828017D01*
X185674615Y-132540524D01*
X186040524Y-132174615D01*
X186328017Y-131744351D01*
X186526046Y-131266268D01*
X186627000Y-130758737D01*
X186627000Y-130241263D01*
X187873000Y-130241263D01*
X187873000Y-130758737D01*
X187973954Y-131266268D01*
X188171983Y-131744351D01*
X188459476Y-132174615D01*
X188825385Y-132540524D01*
X189255649Y-132828017D01*
X189733732Y-133026046D01*
X190241263Y-133127000D01*
X190758737Y-133127000D01*
X191266268Y-133026046D01*
X191744351Y-132828017D01*
X192174615Y-132540524D01*
X192540524Y-132174615D01*
X192611820Y-132067913D01*
X192755649Y-132164017D01*
X193233732Y-132362046D01*
X193741263Y-132463000D01*
X194258737Y-132463000D01*
X194766268Y-132362046D01*
X195244351Y-132164017D01*
X195674615Y-131876524D01*
X196040524Y-131510615D01*
X196328017Y-131080351D01*
X196526046Y-130602268D01*
X196627000Y-130094737D01*
X196627000Y-129577263D01*
X196526046Y-129069732D01*
X196328017Y-128591649D01*
X196040524Y-128161385D01*
X195674615Y-127795476D01*
X195244351Y-127507983D01*
X194766268Y-127309954D01*
X194258737Y-127209000D01*
X193741263Y-127209000D01*
X193233732Y-127309954D01*
X192755649Y-127507983D01*
X192325385Y-127795476D01*
X191959476Y-128161385D01*
X191888180Y-128268087D01*
X191744351Y-128171983D01*
X191266268Y-127973954D01*
X190758737Y-127873000D01*
X190241263Y-127873000D01*
X189733732Y-127973954D01*
X189255649Y-128171983D01*
X188825385Y-128459476D01*
X188459476Y-128825385D01*
X188171983Y-129255649D01*
X187973954Y-129733732D01*
X187873000Y-130241263D01*
X186627000Y-130241263D01*
X186526046Y-129733732D01*
X186328017Y-129255649D01*
X186040524Y-128825385D01*
X185674615Y-128459476D01*
X185244351Y-128171983D01*
X184766268Y-127973954D01*
X184258737Y-127873000D01*
X183741263Y-127873000D01*
X183233732Y-127973954D01*
X182755649Y-128171983D01*
X182325385Y-128459476D01*
X181959476Y-128825385D01*
X181671983Y-129255649D01*
X181473954Y-129733732D01*
X181373000Y-130241263D01*
X181373000Y-130595273D01*
X181351470Y-130524298D01*
X181188784Y-130219934D01*
X180969846Y-129953158D01*
X180958529Y-129943870D01*
X181027000Y-129599642D01*
X181027000Y-129200358D01*
X180949104Y-128808746D01*
X180866179Y-128608547D01*
X180922342Y-125800358D01*
X185773000Y-125800358D01*
X185773000Y-126199642D01*
X185850896Y-126591254D01*
X186003696Y-126960145D01*
X186225526Y-127292137D01*
X186507863Y-127574474D01*
X186839855Y-127796304D01*
X187208746Y-127949104D01*
X187600358Y-128027000D01*
X187999642Y-128027000D01*
X188391254Y-127949104D01*
X188760145Y-127796304D01*
X189092137Y-127574474D01*
X189374474Y-127292137D01*
X189596304Y-126960145D01*
X189749104Y-126591254D01*
X189827000Y-126199642D01*
X189827000Y-125800358D01*
X189749104Y-125408746D01*
X189596304Y-125039855D01*
X189580577Y-125016318D01*
X189642562Y-122828822D01*
X189645000Y-122804069D01*
X189645000Y-122742786D01*
X189646734Y-122681592D01*
X189645000Y-122656806D01*
X189645000Y-121638451D01*
X189689304Y-121572145D01*
X189842104Y-121203254D01*
X189920000Y-120811642D01*
X189920000Y-120412358D01*
X189842104Y-120020746D01*
X189689304Y-119651855D01*
X189467474Y-119319863D01*
X189185137Y-119037526D01*
X188853145Y-118815696D01*
X188484254Y-118662896D01*
X188092642Y-118585000D01*
X187693358Y-118585000D01*
X187301746Y-118662896D01*
X186932855Y-118815696D01*
X186600863Y-119037526D01*
X186318526Y-119319863D01*
X186096696Y-119651855D01*
X185943896Y-120020746D01*
X185866000Y-120412358D01*
X185866000Y-120811642D01*
X185943896Y-121203254D01*
X186096696Y-121572145D01*
X186141001Y-121638451D01*
X186141000Y-122693187D01*
X186077640Y-124929189D01*
X186003696Y-125039855D01*
X185850896Y-125408746D01*
X185773000Y-125800358D01*
X180922342Y-125800358D01*
X180931198Y-125357583D01*
X180996304Y-125260145D01*
X181149104Y-124891254D01*
X181227000Y-124499642D01*
X181227000Y-124100358D01*
X181149104Y-123708746D01*
X180996304Y-123339855D01*
X180774474Y-123007863D01*
X180492137Y-122725526D01*
X180160145Y-122503696D01*
X179791254Y-122350896D01*
X179552000Y-122303306D01*
X179552000Y-122301451D01*
X179596304Y-122235145D01*
X179749104Y-121866254D01*
X179827000Y-121474642D01*
X179827000Y-121075358D01*
X179749104Y-120683746D01*
X179596304Y-120314855D01*
X179374474Y-119982863D01*
X179092137Y-119700526D01*
X178760145Y-119478696D01*
X178391254Y-119325896D01*
X177999642Y-119248000D01*
X177600358Y-119248000D01*
X177208746Y-119325896D01*
X176839855Y-119478696D01*
X176507863Y-119700526D01*
X176225526Y-119982863D01*
X176003696Y-120314855D01*
X175850896Y-120683746D01*
X175773000Y-121075358D01*
X175773000Y-121474642D01*
X175850896Y-121866254D01*
X176003696Y-122235145D01*
X176048001Y-122301452D01*
X176048000Y-129186941D01*
X176039524Y-129273002D01*
X176048000Y-129359063D01*
X176048000Y-129359070D01*
X176073350Y-129616453D01*
X176173531Y-129946706D01*
X176329786Y-130239039D01*
X176336217Y-130251070D01*
X176494101Y-130443452D01*
X176555155Y-130517847D01*
X176622008Y-130572712D01*
X177973002Y-131923706D01*
X177973001Y-134549297D01*
X177086960Y-135435338D01*
X177008746Y-135450896D01*
X176639855Y-135603696D01*
X176307863Y-135825526D01*
X176025526Y-136107863D01*
X175803696Y-136439855D01*
X175650896Y-136808746D01*
X175573000Y-137200358D01*
X175573000Y-137599642D01*
X175650896Y-137991254D01*
X175803696Y-138360145D01*
X176025526Y-138692137D01*
X176307863Y-138974474D01*
X176639855Y-139196304D01*
X177006081Y-139348000D01*
X174024296Y-139348000D01*
X174205174Y-139167122D01*
X174470779Y-138769615D01*
X174653732Y-138327930D01*
X174747000Y-137859039D01*
X174747000Y-137380961D01*
X174653732Y-136912070D01*
X174470779Y-136470385D01*
X174390341Y-136350000D01*
X174470779Y-136229615D01*
X174653732Y-135787930D01*
X174747000Y-135319039D01*
X174747000Y-134840961D01*
X174653732Y-134372070D01*
X174470779Y-133930385D01*
X174390341Y-133810000D01*
X174470779Y-133689615D01*
X174653732Y-133247930D01*
X174747000Y-132779039D01*
X174747000Y-132300961D01*
X174653732Y-131832070D01*
X174470779Y-131390385D01*
X174390341Y-131270000D01*
X174470779Y-131149615D01*
X174653732Y-130707930D01*
X174747000Y-130239039D01*
X174747000Y-129760961D01*
X174653732Y-129292070D01*
X174470779Y-128850385D01*
X174205174Y-128452878D01*
X173867122Y-128114826D01*
X173469615Y-127849221D01*
X173027930Y-127666268D01*
X172559039Y-127573000D01*
X172080961Y-127573000D01*
X171612070Y-127666268D01*
X171170385Y-127849221D01*
X170772878Y-128114826D01*
X170434826Y-128452878D01*
X170169221Y-128850385D01*
X169986268Y-129292070D01*
X169893000Y-129760961D01*
X169893000Y-130239039D01*
X169986268Y-130707930D01*
X170169221Y-131149615D01*
X170249659Y-131270000D01*
X170169221Y-131390385D01*
X169986268Y-131832070D01*
X169893000Y-132300961D01*
X169893000Y-132779039D01*
X169986268Y-133247930D01*
X170169221Y-133689615D01*
X170249659Y-133810000D01*
X170169221Y-133930385D01*
X169986268Y-134372070D01*
X169893000Y-134840961D01*
X169893000Y-135319039D01*
X169986268Y-135787930D01*
X170169221Y-136229615D01*
X170249659Y-136350000D01*
X170169221Y-136470385D01*
X169986268Y-136912070D01*
X169893000Y-137380961D01*
X169893000Y-137859039D01*
X169986268Y-138327930D01*
X170169221Y-138769615D01*
X170434826Y-139167122D01*
X170615704Y-139348000D01*
X166404296Y-139348000D01*
X166585174Y-139167122D01*
X166850779Y-138769615D01*
X167033732Y-138327930D01*
X167127000Y-137859039D01*
X167127000Y-137380961D01*
X167033732Y-136912070D01*
X166850779Y-136470385D01*
X166770341Y-136350000D01*
X166850779Y-136229615D01*
X167033732Y-135787930D01*
X167127000Y-135319039D01*
X167127000Y-134840961D01*
X167033732Y-134372070D01*
X166850779Y-133930385D01*
X166585174Y-133532878D01*
X166247122Y-133194826D01*
X165849615Y-132929221D01*
X165407930Y-132746268D01*
X164939039Y-132653000D01*
X164460961Y-132653000D01*
X163992070Y-132746268D01*
X163550385Y-132929221D01*
X163152878Y-133194826D01*
X162814826Y-133532878D01*
X162549221Y-133930385D01*
X162366268Y-134372070D01*
X162273000Y-134840961D01*
X162273000Y-135319039D01*
X162366268Y-135787930D01*
X162549221Y-136229615D01*
X162629659Y-136350000D01*
X162549221Y-136470385D01*
X162366268Y-136912070D01*
X162273000Y-137380961D01*
X162273000Y-137859039D01*
X162366268Y-138327930D01*
X162549221Y-138769615D01*
X162814826Y-139167122D01*
X162995704Y-139348000D01*
X149386012Y-139348000D01*
X149457297Y-139276715D01*
X156900635Y-139239498D01*
X156924557Y-139237103D01*
X156948394Y-139229918D01*
X156970372Y-139218221D01*
X156989644Y-139202460D01*
X157005472Y-139183243D01*
X157017247Y-139161307D01*
X157024516Y-139137496D01*
X157027000Y-139112723D01*
X157043486Y-129740618D01*
X157292137Y-129574474D01*
X157574474Y-129292137D01*
X157796304Y-128960145D01*
X157949104Y-128591254D01*
X158027000Y-128199642D01*
X158027000Y-127800358D01*
X157949104Y-127408746D01*
X157796304Y-127039855D01*
X157752000Y-126973549D01*
X157752000Y-122126451D01*
X157796304Y-122060145D01*
X157949104Y-121691254D01*
X158027000Y-121299642D01*
X158027000Y-120900358D01*
X157949104Y-120508746D01*
X157796304Y-120139855D01*
X157574474Y-119807863D01*
X157518611Y-119752000D01*
X159248001Y-119752000D01*
X159248000Y-129073549D01*
X159203696Y-129139855D01*
X159050896Y-129508746D01*
X158973000Y-129900358D01*
X158973000Y-130299642D01*
X159050896Y-130691254D01*
X159203696Y-131060145D01*
X159425526Y-131392137D01*
X159707863Y-131674474D01*
X160039855Y-131896304D01*
X160408746Y-132049104D01*
X160800358Y-132127000D01*
X161199642Y-132127000D01*
X161591254Y-132049104D01*
X161960145Y-131896304D01*
X162292137Y-131674474D01*
X162442311Y-131524300D01*
X162540654Y-131708286D01*
X162743971Y-131956029D01*
X162991714Y-132159346D01*
X163274362Y-132310425D01*
X163581052Y-132403458D01*
X163900000Y-132434872D01*
X165500000Y-132434872D01*
X165818948Y-132403458D01*
X166125638Y-132310425D01*
X166408286Y-132159346D01*
X166656029Y-131956029D01*
X166859346Y-131708286D01*
X167010425Y-131425638D01*
X167103458Y-131118948D01*
X167134872Y-130800000D01*
X167134872Y-129200000D01*
X167103458Y-128881052D01*
X167010425Y-128574362D01*
X166859346Y-128291714D01*
X166656029Y-128043971D01*
X166408286Y-127840654D01*
X166125638Y-127689575D01*
X165818948Y-127596542D01*
X165500000Y-127565128D01*
X163900000Y-127565128D01*
X163581052Y-127596542D01*
X163274362Y-127689575D01*
X162991714Y-127840654D01*
X162752000Y-128037382D01*
X162752000Y-118086069D01*
X162760477Y-118000000D01*
X162726650Y-117656548D01*
X162626469Y-117326295D01*
X162463783Y-117021931D01*
X162244845Y-116755155D01*
X161978069Y-116536217D01*
X161673705Y-116373531D01*
X161343452Y-116273350D01*
X161086069Y-116248000D01*
X161000000Y-116239523D01*
X160913932Y-116248000D01*
X157700702Y-116248000D01*
X157068332Y-115615630D01*
X157069723Y-114824358D01*
X164521000Y-114824358D01*
X164521000Y-115223642D01*
X164598896Y-115615254D01*
X164751696Y-115984145D01*
X164973526Y-116316137D01*
X165255863Y-116598474D01*
X165587855Y-116820304D01*
X165891785Y-116946196D01*
X165839855Y-116967706D01*
X165507863Y-117189536D01*
X165225526Y-117471873D01*
X165003696Y-117803865D01*
X164850896Y-118172756D01*
X164773000Y-118564368D01*
X164773000Y-118963652D01*
X164850896Y-119355264D01*
X165003696Y-119724155D01*
X165148001Y-119940122D01*
X165148000Y-124173549D01*
X165103696Y-124239855D01*
X164950896Y-124608746D01*
X164873000Y-125000358D01*
X164873000Y-125399642D01*
X164950896Y-125791254D01*
X165103696Y-126160145D01*
X165325526Y-126492137D01*
X165607863Y-126774474D01*
X165939855Y-126996304D01*
X166308746Y-127149104D01*
X166700358Y-127227000D01*
X167099642Y-127227000D01*
X167491254Y-127149104D01*
X167860145Y-126996304D01*
X168192137Y-126774474D01*
X168474474Y-126492137D01*
X168696304Y-126160145D01*
X168849104Y-125791254D01*
X168927000Y-125399642D01*
X168927000Y-125000358D01*
X168849104Y-124608746D01*
X168696304Y-124239855D01*
X168652000Y-124173549D01*
X168652000Y-120512683D01*
X168901254Y-120463104D01*
X169270145Y-120310304D01*
X169602137Y-120088474D01*
X169884474Y-119806137D01*
X170106304Y-119474145D01*
X170259104Y-119105254D01*
X170337000Y-118713642D01*
X170337000Y-118314358D01*
X170259104Y-117922746D01*
X170106304Y-117553855D01*
X169884474Y-117221863D01*
X169602137Y-116939526D01*
X169270145Y-116717696D01*
X168901254Y-116564896D01*
X168509642Y-116487000D01*
X168110358Y-116487000D01*
X167912194Y-116526417D01*
X168122474Y-116316137D01*
X168344304Y-115984145D01*
X168497104Y-115615254D01*
X168575000Y-115223642D01*
X168575000Y-114824358D01*
X168497104Y-114432746D01*
X168344304Y-114063855D01*
X168300000Y-113997549D01*
X168300000Y-113300357D01*
X184873000Y-113300357D01*
X184873000Y-113699641D01*
X184950896Y-114091253D01*
X185103696Y-114460144D01*
X185325526Y-114792136D01*
X185607863Y-115074473D01*
X185939855Y-115296303D01*
X186308746Y-115449103D01*
X186700358Y-115526999D01*
X187099642Y-115526999D01*
X187491254Y-115449103D01*
X187860145Y-115296303D01*
X188192137Y-115074473D01*
X188474474Y-114792136D01*
X188696304Y-114460144D01*
X188849104Y-114091253D01*
X188927000Y-113699641D01*
X188927000Y-113300357D01*
X188849104Y-112908745D01*
X188696304Y-112539854D01*
X188652000Y-112473548D01*
X188652000Y-99365000D01*
X189640128Y-99365000D01*
X189640128Y-100965000D01*
X189671542Y-101283948D01*
X189764575Y-101590638D01*
X189915654Y-101873286D01*
X190118971Y-102121029D01*
X190366714Y-102324346D01*
X190649362Y-102475425D01*
X190956052Y-102568458D01*
X191275000Y-102599872D01*
X192875000Y-102599872D01*
X193193948Y-102568458D01*
X193500638Y-102475425D01*
X193783286Y-102324346D01*
X194031029Y-102121029D01*
X194234346Y-101873286D01*
X194380229Y-101600358D01*
X195648000Y-101600358D01*
X195648000Y-101999642D01*
X195725896Y-102391254D01*
X195878696Y-102760145D01*
X195923000Y-102826451D01*
X195923001Y-109996929D01*
X195914524Y-110083000D01*
X195948350Y-110426451D01*
X196048532Y-110756705D01*
X196211217Y-111061068D01*
X196375289Y-111260991D01*
X196375296Y-111260998D01*
X196430156Y-111327845D01*
X196497003Y-111382705D01*
X199127338Y-114013040D01*
X199142896Y-114091254D01*
X199295696Y-114460145D01*
X199517526Y-114792137D01*
X199799863Y-115074474D01*
X200131855Y-115296304D01*
X200500746Y-115449104D01*
X200892358Y-115527000D01*
X201291642Y-115527000D01*
X201683254Y-115449104D01*
X202052145Y-115296304D01*
X202384137Y-115074474D01*
X202666474Y-114792137D01*
X202888304Y-114460145D01*
X203041104Y-114091254D01*
X203119000Y-113699642D01*
X203119000Y-113300358D01*
X203041104Y-112908746D01*
X202888304Y-112539855D01*
X202666474Y-112207863D01*
X202384137Y-111925526D01*
X202052145Y-111703696D01*
X201683254Y-111550896D01*
X201605040Y-111535338D01*
X199427000Y-109357298D01*
X199427000Y-102826451D01*
X199471304Y-102760145D01*
X199624104Y-102391254D01*
X199702000Y-101999642D01*
X199702000Y-101600358D01*
X199624104Y-101208746D01*
X199471304Y-100839855D01*
X199249474Y-100507863D01*
X198967137Y-100225526D01*
X198635145Y-100003696D01*
X198266254Y-99850896D01*
X197874642Y-99773000D01*
X197475358Y-99773000D01*
X197083746Y-99850896D01*
X196714855Y-100003696D01*
X196382863Y-100225526D01*
X196100526Y-100507863D01*
X195878696Y-100839855D01*
X195725896Y-101208746D01*
X195648000Y-101600358D01*
X194380229Y-101600358D01*
X194385425Y-101590638D01*
X194478458Y-101283948D01*
X194509872Y-100965000D01*
X194509872Y-99365000D01*
X194478458Y-99046052D01*
X194385425Y-98739362D01*
X194234346Y-98456714D01*
X194031029Y-98208971D01*
X193783286Y-98005654D01*
X193500638Y-97854575D01*
X193193948Y-97761542D01*
X192875000Y-97730128D01*
X191275000Y-97730128D01*
X190956052Y-97761542D01*
X190649362Y-97854575D01*
X190366714Y-98005654D01*
X190118971Y-98208971D01*
X189915654Y-98456714D01*
X189764575Y-98739362D01*
X189671542Y-99046052D01*
X189640128Y-99365000D01*
X188652000Y-99365000D01*
X188652000Y-93209506D01*
X197990246Y-82008100D01*
X198260145Y-81896304D01*
X198325000Y-81852969D01*
X198389855Y-81896304D01*
X198758746Y-82049104D01*
X199150358Y-82127000D01*
X199549642Y-82127000D01*
X199941254Y-82049104D01*
X200310145Y-81896304D01*
X200642137Y-81674474D01*
X200924474Y-81392137D01*
X201146304Y-81060145D01*
X201299104Y-80691254D01*
X201377000Y-80299642D01*
X201377000Y-79900358D01*
X201299104Y-79508746D01*
X201146304Y-79139855D01*
X200924474Y-78807863D01*
X200642137Y-78525526D01*
X200310145Y-78303696D01*
X199941254Y-78150896D01*
X199549642Y-78073000D01*
X199150358Y-78073000D01*
X198758746Y-78150896D01*
X198389855Y-78303696D01*
X198325000Y-78347031D01*
X198260145Y-78303696D01*
X197891254Y-78150896D01*
X197499642Y-78073000D01*
X197100358Y-78073000D01*
X196708746Y-78150896D01*
X196339855Y-78303696D01*
X196007863Y-78525526D01*
X195725526Y-78807863D01*
X195503696Y-79139855D01*
X195350896Y-79508746D01*
X195300430Y-79762459D01*
X194509872Y-80710748D01*
X194509872Y-79680000D01*
X194478458Y-79361052D01*
X194385425Y-79054362D01*
X194234346Y-78771714D01*
X194031029Y-78523971D01*
X193783286Y-78320654D01*
X193500638Y-78169575D01*
X193193948Y-78076542D01*
X192875000Y-78045128D01*
X191275000Y-78045128D01*
X190956052Y-78076542D01*
X190649362Y-78169575D01*
X190366714Y-78320654D01*
X190118971Y-78523971D01*
X189915654Y-78771714D01*
X189764575Y-79054362D01*
X189671542Y-79361052D01*
X189640128Y-79680000D01*
X189640128Y-81280000D01*
X189671542Y-81598948D01*
X189764575Y-81905638D01*
X189915654Y-82188286D01*
X190118971Y-82436029D01*
X190366714Y-82639346D01*
X190649362Y-82790425D01*
X190956052Y-82883458D01*
X191275000Y-82914872D01*
X192672366Y-82914872D01*
X185660426Y-91325829D01*
X185655155Y-91330155D01*
X185549971Y-91458322D01*
X185499185Y-91519241D01*
X185495380Y-91524842D01*
X185436217Y-91596932D01*
X185398640Y-91667234D01*
X185353844Y-91733169D01*
X185317493Y-91819049D01*
X185273531Y-91901296D01*
X185250391Y-91977578D01*
X185219320Y-92050984D01*
X185200422Y-92142305D01*
X185173350Y-92231549D01*
X185165537Y-92310879D01*
X185149383Y-92388938D01*
X185148664Y-92482191D01*
X185148000Y-92488932D01*
X185148000Y-92568297D01*
X185146722Y-92734040D01*
X185148000Y-92740734D01*
X185148001Y-112473547D01*
X185103696Y-112539854D01*
X184950896Y-112908745D01*
X184873000Y-113300357D01*
X168300000Y-113300357D01*
X168300000Y-100992017D01*
X173548000Y-100992017D01*
X173548000Y-101607983D01*
X173668169Y-102212112D01*
X173903889Y-102781190D01*
X174246101Y-103293346D01*
X174681654Y-103728899D01*
X175193810Y-104071111D01*
X175762888Y-104306831D01*
X176367017Y-104427000D01*
X176982983Y-104427000D01*
X177587112Y-104306831D01*
X178156190Y-104071111D01*
X178668346Y-103728899D01*
X179103899Y-103293346D01*
X179446111Y-102781190D01*
X179681831Y-102212112D01*
X179802000Y-101607983D01*
X179802000Y-100992017D01*
X179681831Y-100387888D01*
X179446111Y-99818810D01*
X179103899Y-99306654D01*
X178668346Y-98871101D01*
X178156190Y-98528889D01*
X177587112Y-98293169D01*
X176982983Y-98173000D01*
X176367017Y-98173000D01*
X175762888Y-98293169D01*
X175193810Y-98528889D01*
X174681654Y-98871101D01*
X174246101Y-99306654D01*
X173903889Y-99818810D01*
X173668169Y-100387888D01*
X173548000Y-100992017D01*
X168300000Y-100992017D01*
X168300000Y-96577702D01*
X198727999Y-66149704D01*
X198794845Y-66094845D01*
X198849705Y-66027998D01*
X198849711Y-66027992D01*
X199013783Y-65828069D01*
X199176468Y-65523706D01*
X199176469Y-65523705D01*
X199276650Y-65193452D01*
X199302000Y-64936069D01*
X199302000Y-64936061D01*
X199310476Y-64850000D01*
X199302000Y-64763939D01*
X199302000Y-60726451D01*
X199346304Y-60660145D01*
X199499104Y-60291254D01*
X199577000Y-59899642D01*
X199577000Y-59500358D01*
X199499104Y-59108746D01*
X199346304Y-58739855D01*
X199124474Y-58407863D01*
X198842137Y-58125526D01*
X198510145Y-57903696D01*
X198141254Y-57750896D01*
X197749642Y-57673000D01*
X197350358Y-57673000D01*
X196958746Y-57750896D01*
X196589855Y-57903696D01*
X196257863Y-58125526D01*
X195975526Y-58407863D01*
X195753696Y-58739855D01*
X195600896Y-59108746D01*
X195523000Y-59500358D01*
X195523000Y-59899642D01*
X195600896Y-60291254D01*
X195753696Y-60660145D01*
X195798001Y-60726452D01*
X195798000Y-64124297D01*
X178867682Y-81054616D01*
X179046831Y-80622112D01*
X179167000Y-80017983D01*
X179167000Y-79402017D01*
X179046831Y-78797888D01*
X178811111Y-78228810D01*
X178468899Y-77716654D01*
X178033346Y-77281101D01*
X177521190Y-76938889D01*
X176952112Y-76703169D01*
X176347983Y-76583000D01*
X175732017Y-76583000D01*
X175127888Y-76703169D01*
X174558810Y-76938889D01*
X174046654Y-77281101D01*
X173611101Y-77716654D01*
X173268889Y-78228810D01*
X173033169Y-78797888D01*
X172913000Y-79402017D01*
X172913000Y-80017983D01*
X173033169Y-80622112D01*
X173268889Y-81191190D01*
X173611101Y-81703346D01*
X174046654Y-82138899D01*
X174558810Y-82481111D01*
X175127888Y-82716831D01*
X175732017Y-82837000D01*
X176347983Y-82837000D01*
X176952112Y-82716831D01*
X177384616Y-82537682D01*
X165370003Y-94552295D01*
X165303156Y-94607155D01*
X165248296Y-94674002D01*
X165248289Y-94674009D01*
X165084217Y-94873932D01*
X164921532Y-95178295D01*
X164821350Y-95508549D01*
X164787524Y-95852000D01*
X164796001Y-95938071D01*
X164796000Y-113997549D01*
X164751696Y-114063855D01*
X164598896Y-114432746D01*
X164521000Y-114824358D01*
X157069723Y-114824358D01*
X157077000Y-110687723D01*
X157074437Y-110662113D01*
X157067093Y-110638325D01*
X157055250Y-110616426D01*
X157039361Y-110597258D01*
X157020039Y-110581559D01*
X156998025Y-110569930D01*
X156974166Y-110562820D01*
X156949377Y-110560502D01*
X152037282Y-110584581D01*
X144924709Y-103472008D01*
X144869844Y-103405155D01*
X144603068Y-103186217D01*
X144298704Y-103023531D01*
X143968451Y-102923350D01*
X143711068Y-102898000D01*
X143711060Y-102898000D01*
X143624999Y-102889524D01*
X143538938Y-102898000D01*
X141041403Y-102898000D01*
X140956029Y-102793971D01*
X140708286Y-102590654D01*
X140425638Y-102439575D01*
X140118948Y-102346542D01*
X139800000Y-102315128D01*
X137500000Y-102315128D01*
X137380000Y-102326947D01*
X137260000Y-102315128D01*
X134960000Y-102315128D01*
X134641052Y-102346542D01*
X134334362Y-102439575D01*
X134051714Y-102590654D01*
X133803971Y-102793971D01*
X133600654Y-103041714D01*
X133449575Y-103324362D01*
X133356542Y-103631052D01*
X133325128Y-103950000D01*
X133325128Y-107150000D01*
X133356542Y-107468948D01*
X133449575Y-107775638D01*
X133600654Y-108058286D01*
X133803971Y-108306029D01*
X134051714Y-108509346D01*
X134334362Y-108660425D01*
X134641052Y-108753458D01*
X134960000Y-108784872D01*
X137260000Y-108784872D01*
X137380000Y-108773053D01*
X137500000Y-108784872D01*
X139800000Y-108784872D01*
X140118948Y-108753458D01*
X140425638Y-108660425D01*
X140708286Y-108509346D01*
X140956029Y-108306029D01*
X141159346Y-108058286D01*
X141310425Y-107775638D01*
X141403458Y-107468948D01*
X141434872Y-107150000D01*
X141434872Y-106402000D01*
X142899297Y-106402000D01*
X146403703Y-109906407D01*
X146294362Y-109939575D01*
X146131011Y-110026888D01*
X145862096Y-109915500D01*
X145397069Y-109823000D01*
X144922931Y-109823000D01*
X144457904Y-109915500D01*
X144019858Y-110096945D01*
X143890000Y-110183713D01*
X143760142Y-110096945D01*
X143322096Y-109915500D01*
X142857069Y-109823000D01*
X142382931Y-109823000D01*
X141917904Y-109915500D01*
X141479858Y-110096945D01*
X141350000Y-110183713D01*
X141220142Y-110096945D01*
X140782096Y-109915500D01*
X140317069Y-109823000D01*
X139842931Y-109823000D01*
X139377904Y-109915500D01*
X138939858Y-110096945D01*
X138810000Y-110183713D01*
X138680142Y-110096945D01*
X138242096Y-109915500D01*
X137777069Y-109823000D01*
X137302931Y-109823000D01*
X136837904Y-109915500D01*
X136399858Y-110096945D01*
X136270000Y-110183713D01*
X136140142Y-110096945D01*
X135702096Y-109915500D01*
X135237069Y-109823000D01*
X134762931Y-109823000D01*
X134297904Y-109915500D01*
X133859858Y-110096945D01*
X133730000Y-110183713D01*
X133600142Y-110096945D01*
X133162096Y-109915500D01*
X132697069Y-109823000D01*
X132222931Y-109823000D01*
X131757904Y-109915500D01*
X131319858Y-110096945D01*
X131190000Y-110183713D01*
X131060142Y-110096945D01*
X130622096Y-109915500D01*
X130157069Y-109823000D01*
X129682931Y-109823000D01*
X129217904Y-109915500D01*
X128779858Y-110096945D01*
X128650000Y-110183713D01*
X128520142Y-110096945D01*
X128082096Y-109915500D01*
X127617069Y-109823000D01*
X127142931Y-109823000D01*
X126677904Y-109915500D01*
X126239858Y-110096945D01*
X126110000Y-110183713D01*
X125980142Y-110096945D01*
X125542096Y-109915500D01*
X125077069Y-109823000D01*
X124602931Y-109823000D01*
X124137904Y-109915500D01*
X123699858Y-110096945D01*
X123570000Y-110183713D01*
X123440142Y-110096945D01*
X123002096Y-109915500D01*
X122537069Y-109823000D01*
X122062931Y-109823000D01*
X121597904Y-109915500D01*
X121159858Y-110096945D01*
X121030000Y-110183713D01*
X120900142Y-110096945D01*
X120462096Y-109915500D01*
X119997069Y-109823000D01*
X119522931Y-109823000D01*
X119057904Y-109915500D01*
X118619858Y-110096945D01*
X118490000Y-110183713D01*
X118360142Y-110096945D01*
X117922096Y-109915500D01*
X117457069Y-109823000D01*
X116982931Y-109823000D01*
X116517904Y-109915500D01*
X116079858Y-110096945D01*
X115950000Y-110183713D01*
X115820142Y-110096945D01*
X115503045Y-109965599D01*
X115608286Y-109909346D01*
X115856029Y-109706029D01*
X116059346Y-109458286D01*
X116210425Y-109175638D01*
X116303458Y-108868948D01*
X116334872Y-108550000D01*
X116334872Y-106250000D01*
X116303458Y-105931052D01*
X116210425Y-105624362D01*
X116059346Y-105341714D01*
X115856029Y-105093971D01*
X115608286Y-104890654D01*
X115325638Y-104739575D01*
X115018948Y-104646542D01*
X114700000Y-104615128D01*
X114326999Y-104615128D01*
X114326999Y-100992017D01*
X150948000Y-100992017D01*
X150948000Y-101607983D01*
X151068169Y-102212112D01*
X151303889Y-102781190D01*
X151646101Y-103293346D01*
X152081654Y-103728899D01*
X152593810Y-104071111D01*
X153162888Y-104306831D01*
X153767017Y-104427000D01*
X154382983Y-104427000D01*
X154987112Y-104306831D01*
X155556190Y-104071111D01*
X156068346Y-103728899D01*
X156503899Y-103293346D01*
X156846111Y-102781190D01*
X157081831Y-102212112D01*
X157202000Y-101607983D01*
X157202000Y-100992017D01*
X157081831Y-100387888D01*
X156846111Y-99818810D01*
X156503899Y-99306654D01*
X156068346Y-98871101D01*
X155556190Y-98528889D01*
X154987112Y-98293169D01*
X154382983Y-98173000D01*
X153767017Y-98173000D01*
X153162888Y-98293169D01*
X152593810Y-98528889D01*
X152081654Y-98871101D01*
X151646101Y-99306654D01*
X151303889Y-99818810D01*
X151068169Y-100387888D01*
X150948000Y-100992017D01*
X114326999Y-100992017D01*
X114326999Y-97600358D01*
X116373000Y-97600358D01*
X116373000Y-97999642D01*
X116450896Y-98391254D01*
X116603696Y-98760145D01*
X116825526Y-99092137D01*
X117107863Y-99374474D01*
X117439855Y-99596304D01*
X117808746Y-99749104D01*
X118200358Y-99827000D01*
X118599642Y-99827000D01*
X118991254Y-99749104D01*
X119360145Y-99596304D01*
X119426451Y-99552000D01*
X131973549Y-99552000D01*
X132039855Y-99596304D01*
X132408746Y-99749104D01*
X132800358Y-99827000D01*
X133199642Y-99827000D01*
X133591254Y-99749104D01*
X133960145Y-99596304D01*
X134292137Y-99374474D01*
X134574474Y-99092137D01*
X134796304Y-98760145D01*
X134949104Y-98391254D01*
X135027000Y-97999642D01*
X135027000Y-97600358D01*
X134949104Y-97208746D01*
X134796304Y-96839855D01*
X134574474Y-96507863D01*
X134292137Y-96225526D01*
X133960145Y-96003696D01*
X133591254Y-95850896D01*
X133199642Y-95773000D01*
X132800358Y-95773000D01*
X132408746Y-95850896D01*
X132039855Y-96003696D01*
X131973549Y-96048000D01*
X119426451Y-96048000D01*
X119360145Y-96003696D01*
X118991254Y-95850896D01*
X118599642Y-95773000D01*
X118200358Y-95773000D01*
X117808746Y-95850896D01*
X117439855Y-96003696D01*
X117107863Y-96225526D01*
X116825526Y-96507863D01*
X116603696Y-96839855D01*
X116450896Y-97208746D01*
X116373000Y-97600358D01*
X114326999Y-97600358D01*
X114326999Y-96950703D01*
X121313042Y-89964661D01*
X121391254Y-89949104D01*
X121760145Y-89796304D01*
X122092137Y-89574474D01*
X122374474Y-89292137D01*
X122596304Y-88960145D01*
X122749104Y-88591254D01*
X122827000Y-88199642D01*
X122827000Y-87800358D01*
X122749104Y-87408746D01*
X122596304Y-87039855D01*
X122374474Y-86707863D01*
X122092137Y-86425526D01*
X121760145Y-86203696D01*
X121391254Y-86050896D01*
X120999642Y-85973000D01*
X120600358Y-85973000D01*
X120208746Y-86050896D01*
X119839855Y-86203696D01*
X119507863Y-86425526D01*
X119225526Y-86707863D01*
X119003696Y-87039855D01*
X118850896Y-87408746D01*
X118835339Y-87486958D01*
X111397007Y-94925291D01*
X111330154Y-94980156D01*
X111111216Y-95246933D01*
X110948530Y-95551297D01*
X110944334Y-95565128D01*
X109350000Y-95565128D01*
X109031052Y-95596542D01*
X108724362Y-95689575D01*
X108441714Y-95840654D01*
X108193971Y-96043971D01*
X107990654Y-96291714D01*
X107839575Y-96574362D01*
X107746542Y-96881052D01*
X107715128Y-97200000D01*
X107715128Y-98062042D01*
X107624362Y-98089575D01*
X107341714Y-98240654D01*
X107093971Y-98443971D01*
X106890654Y-98691714D01*
X106739575Y-98974362D01*
X106646542Y-99281052D01*
X106615128Y-99600000D01*
X106615128Y-101400000D01*
X106646542Y-101718948D01*
X106739575Y-102025638D01*
X106890654Y-102308286D01*
X107093971Y-102556029D01*
X107341714Y-102759346D01*
X107624362Y-102910425D01*
X107931052Y-103003458D01*
X108250000Y-103034872D01*
X110550000Y-103034872D01*
X110822999Y-103007984D01*
X110823000Y-109433895D01*
X110329885Y-109927011D01*
X110302096Y-109915500D01*
X109837069Y-109823000D01*
X109362931Y-109823000D01*
X108916130Y-109911875D01*
X109106029Y-109756029D01*
X109309346Y-109508286D01*
X109460425Y-109225638D01*
X109553458Y-108918948D01*
X109584872Y-108600000D01*
X109584872Y-107200000D01*
X109553458Y-106881052D01*
X109460425Y-106574362D01*
X109309346Y-106291714D01*
X109106029Y-106043971D01*
X108858286Y-105840654D01*
X108575638Y-105689575D01*
X108268948Y-105596542D01*
X107950000Y-105565128D01*
X105850000Y-105565128D01*
X105531052Y-105596542D01*
X105224362Y-105689575D01*
X104941714Y-105840654D01*
X104693971Y-106043971D01*
X104490654Y-106291714D01*
X104339575Y-106574362D01*
X104246542Y-106881052D01*
X104215128Y-107200000D01*
X104215128Y-108600000D01*
X104246542Y-108918948D01*
X104339575Y-109225638D01*
X104490654Y-109508286D01*
X104693971Y-109756029D01*
X104781496Y-109827859D01*
X104757069Y-109823000D01*
X104282931Y-109823000D01*
X103817904Y-109915500D01*
X103379858Y-110096945D01*
X103250000Y-110183713D01*
X103120142Y-110096945D01*
X102682096Y-109915500D01*
X102217069Y-109823000D01*
X101742931Y-109823000D01*
X101652000Y-109841087D01*
X101652000Y-83238000D01*
X112003128Y-83238000D01*
X112003128Y-84762000D01*
X112034542Y-85080948D01*
X112127575Y-85387638D01*
X112210590Y-85542947D01*
X112102808Y-85803155D01*
X112011000Y-86264704D01*
X112011000Y-86735296D01*
X112102808Y-87196845D01*
X112228379Y-87500000D01*
X112102808Y-87803155D01*
X112011000Y-88264704D01*
X112011000Y-88735296D01*
X112102808Y-89196845D01*
X112282896Y-89631616D01*
X112544343Y-90022899D01*
X112877101Y-90355657D01*
X113268384Y-90617104D01*
X113703155Y-90797192D01*
X114164704Y-90889000D01*
X114635296Y-90889000D01*
X115096845Y-90797192D01*
X115531616Y-90617104D01*
X115922899Y-90355657D01*
X116255657Y-90022899D01*
X116517104Y-89631616D01*
X116697192Y-89196845D01*
X116789000Y-88735296D01*
X116789000Y-88264704D01*
X116697192Y-87803155D01*
X116571621Y-87500000D01*
X116697192Y-87196845D01*
X116789000Y-86735296D01*
X116789000Y-86264704D01*
X116697192Y-85803155D01*
X116589410Y-85542947D01*
X116672425Y-85387638D01*
X116765458Y-85080948D01*
X116796872Y-84762000D01*
X116796872Y-83350000D01*
X133325128Y-83350000D01*
X133325128Y-86550000D01*
X133356542Y-86868948D01*
X133449575Y-87175638D01*
X133600654Y-87458286D01*
X133803971Y-87706029D01*
X134051714Y-87909346D01*
X134334362Y-88060425D01*
X134641052Y-88153458D01*
X134960000Y-88184872D01*
X137260000Y-88184872D01*
X137380000Y-88173053D01*
X137500000Y-88184872D01*
X139800000Y-88184872D01*
X140118948Y-88153458D01*
X140425638Y-88060425D01*
X140708286Y-87909346D01*
X140956029Y-87706029D01*
X141159346Y-87458286D01*
X141310425Y-87175638D01*
X141403458Y-86868948D01*
X141434872Y-86550000D01*
X141434872Y-83350000D01*
X141403458Y-83031052D01*
X141310425Y-82724362D01*
X141159346Y-82441714D01*
X140956029Y-82193971D01*
X140708286Y-81990654D01*
X140425638Y-81839575D01*
X140118948Y-81746542D01*
X139800000Y-81715128D01*
X137500000Y-81715128D01*
X137380000Y-81726947D01*
X137260000Y-81715128D01*
X134960000Y-81715128D01*
X134641052Y-81746542D01*
X134334362Y-81839575D01*
X134051714Y-81990654D01*
X133803971Y-82193971D01*
X133600654Y-82441714D01*
X133449575Y-82724362D01*
X133356542Y-83031052D01*
X133325128Y-83350000D01*
X116796872Y-83350000D01*
X116796872Y-83238000D01*
X116765458Y-82919052D01*
X116672425Y-82612362D01*
X116521346Y-82329714D01*
X116318029Y-82081971D01*
X116070286Y-81878654D01*
X115787638Y-81727575D01*
X115480948Y-81634542D01*
X115162000Y-81603128D01*
X113638000Y-81603128D01*
X113319052Y-81634542D01*
X113012362Y-81727575D01*
X112729714Y-81878654D01*
X112481971Y-82081971D01*
X112278654Y-82329714D01*
X112127575Y-82612362D01*
X112034542Y-82919052D01*
X112003128Y-83238000D01*
X101652000Y-83238000D01*
X101652000Y-79402017D01*
X150313000Y-79402017D01*
X150313000Y-80017983D01*
X150433169Y-80622112D01*
X150668889Y-81191190D01*
X151011101Y-81703346D01*
X151446654Y-82138899D01*
X151958810Y-82481111D01*
X152527888Y-82716831D01*
X153132017Y-82837000D01*
X153747983Y-82837000D01*
X154352112Y-82716831D01*
X154921190Y-82481111D01*
X155433346Y-82138899D01*
X155868899Y-81703346D01*
X156211111Y-81191190D01*
X156446831Y-80622112D01*
X156567000Y-80017983D01*
X156567000Y-79402017D01*
X156446831Y-78797888D01*
X156211111Y-78228810D01*
X155868899Y-77716654D01*
X155433346Y-77281101D01*
X154921190Y-76938889D01*
X154352112Y-76703169D01*
X153747983Y-76583000D01*
X153132017Y-76583000D01*
X152527888Y-76703169D01*
X151958810Y-76938889D01*
X151446654Y-77281101D01*
X151011101Y-77716654D01*
X150668889Y-78228810D01*
X150433169Y-78797888D01*
X150313000Y-79402017D01*
X101652000Y-79402017D01*
X101652000Y-77651785D01*
X101802589Y-77877157D01*
X102272843Y-78347411D01*
X102825803Y-78716887D01*
X103440219Y-78971387D01*
X104092480Y-79101129D01*
X104757520Y-79101129D01*
X105409781Y-78971387D01*
X106024197Y-78716887D01*
X106577157Y-78347411D01*
X107047411Y-77877157D01*
X107416887Y-77324197D01*
X107671387Y-76709781D01*
X107801129Y-76057520D01*
X107801129Y-75392480D01*
X107671387Y-74740219D01*
X107416887Y-74125803D01*
X107047411Y-73572843D01*
X106999568Y-73525000D01*
X114190128Y-73525000D01*
X114190128Y-75475000D01*
X114221542Y-75793948D01*
X114314575Y-76100638D01*
X114465654Y-76383286D01*
X114668971Y-76631029D01*
X114916714Y-76834346D01*
X115199362Y-76985425D01*
X115506052Y-77078458D01*
X115825000Y-77109872D01*
X117775000Y-77109872D01*
X118093948Y-77078458D01*
X118400638Y-76985425D01*
X118683286Y-76834346D01*
X118931029Y-76631029D01*
X119134346Y-76383286D01*
X119285425Y-76100638D01*
X119378458Y-75793948D01*
X119409872Y-75475000D01*
X119409872Y-74243725D01*
X134198000Y-74243725D01*
X134198000Y-74756275D01*
X134297993Y-75258975D01*
X134494137Y-75732509D01*
X134778895Y-76158678D01*
X135141322Y-76521105D01*
X135567491Y-76805863D01*
X136041025Y-77002007D01*
X136543725Y-77102000D01*
X137056275Y-77102000D01*
X137558975Y-77002007D01*
X138032509Y-76805863D01*
X138458678Y-76521105D01*
X138821105Y-76158678D01*
X139105863Y-75732509D01*
X139300000Y-75263820D01*
X139494137Y-75732509D01*
X139778895Y-76158678D01*
X140141322Y-76521105D01*
X140567491Y-76805863D01*
X141041025Y-77002007D01*
X141543725Y-77102000D01*
X142056275Y-77102000D01*
X142558975Y-77002007D01*
X143032509Y-76805863D01*
X143458678Y-76521105D01*
X143821105Y-76158678D01*
X144105863Y-75732509D01*
X144302007Y-75258975D01*
X144402000Y-74756275D01*
X144402000Y-74243725D01*
X144302007Y-73741025D01*
X144105863Y-73267491D01*
X143821105Y-72841322D01*
X143458678Y-72478895D01*
X143032509Y-72194137D01*
X142558975Y-71997993D01*
X142056275Y-71898000D01*
X141543725Y-71898000D01*
X141041025Y-71997993D01*
X140567491Y-72194137D01*
X140141322Y-72478895D01*
X139778895Y-72841322D01*
X139494137Y-73267491D01*
X139300000Y-73736180D01*
X139105863Y-73267491D01*
X138821105Y-72841322D01*
X138458678Y-72478895D01*
X138032509Y-72194137D01*
X137558975Y-71997993D01*
X137056275Y-71898000D01*
X136543725Y-71898000D01*
X136041025Y-71997993D01*
X135567491Y-72194137D01*
X135141322Y-72478895D01*
X134778895Y-72841322D01*
X134494137Y-73267491D01*
X134297993Y-73741025D01*
X134198000Y-74243725D01*
X119409872Y-74243725D01*
X119409872Y-73525000D01*
X119378458Y-73206052D01*
X119285425Y-72899362D01*
X119134346Y-72616714D01*
X118931029Y-72368971D01*
X118683286Y-72165654D01*
X118400638Y-72014575D01*
X118093948Y-71921542D01*
X117775000Y-71890128D01*
X115825000Y-71890128D01*
X115506052Y-71921542D01*
X115199362Y-72014575D01*
X114916714Y-72165654D01*
X114668971Y-72368971D01*
X114465654Y-72616714D01*
X114314575Y-72899362D01*
X114221542Y-73206052D01*
X114190128Y-73525000D01*
X106999568Y-73525000D01*
X106577157Y-73102589D01*
X106024197Y-72733113D01*
X105409781Y-72478613D01*
X104757520Y-72348871D01*
X104092480Y-72348871D01*
X103440219Y-72478613D01*
X102825803Y-72733113D01*
X102272843Y-73102589D01*
X101802589Y-73572843D01*
X101652000Y-73798215D01*
X101652000Y-66743725D01*
X134198000Y-66743725D01*
X134198000Y-67256275D01*
X134297993Y-67758975D01*
X134494137Y-68232509D01*
X134778895Y-68658678D01*
X135141322Y-69021105D01*
X135567491Y-69305863D01*
X136041025Y-69502007D01*
X136543725Y-69602000D01*
X137056275Y-69602000D01*
X137558975Y-69502007D01*
X138032509Y-69305863D01*
X138458678Y-69021105D01*
X138821105Y-68658678D01*
X139105863Y-68232509D01*
X139300000Y-67763820D01*
X139494137Y-68232509D01*
X139778895Y-68658678D01*
X140141322Y-69021105D01*
X140567491Y-69305863D01*
X141041025Y-69502007D01*
X141543725Y-69602000D01*
X142056275Y-69602000D01*
X142558975Y-69502007D01*
X143032509Y-69305863D01*
X143458678Y-69021105D01*
X143821105Y-68658678D01*
X144105863Y-68232509D01*
X144302007Y-67758975D01*
X144402000Y-67256275D01*
X144402000Y-66743725D01*
X144302007Y-66241025D01*
X144105863Y-65767491D01*
X143821105Y-65341322D01*
X143458678Y-64978895D01*
X143032509Y-64694137D01*
X142558975Y-64497993D01*
X142056275Y-64398000D01*
X141543725Y-64398000D01*
X141041025Y-64497993D01*
X140567491Y-64694137D01*
X140141322Y-64978895D01*
X139778895Y-65341322D01*
X139494137Y-65767491D01*
X139300000Y-66236180D01*
X139105863Y-65767491D01*
X138821105Y-65341322D01*
X138458678Y-64978895D01*
X138032509Y-64694137D01*
X137558975Y-64497993D01*
X137056275Y-64398000D01*
X136543725Y-64398000D01*
X136041025Y-64497993D01*
X135567491Y-64694137D01*
X135141322Y-64978895D01*
X134778895Y-65341322D01*
X134494137Y-65767491D01*
X134297993Y-66241025D01*
X134198000Y-66743725D01*
X101652000Y-66743725D01*
X101652000Y-58922111D01*
X101843971Y-59156029D01*
X102091714Y-59359346D01*
X102374362Y-59510425D01*
X102681052Y-59603458D01*
X103000000Y-59634872D01*
X106000000Y-59634872D01*
X106318948Y-59603458D01*
X106625638Y-59510425D01*
X106908286Y-59359346D01*
X107156029Y-59156029D01*
X107359346Y-58908286D01*
X107510425Y-58625638D01*
X107603458Y-58318948D01*
X107634872Y-58000000D01*
X107634872Y-55000000D01*
X107603458Y-54681052D01*
X107510425Y-54374362D01*
X107359346Y-54091714D01*
X107202011Y-53900000D01*
X121915128Y-53900000D01*
X121915128Y-60900000D01*
X121946542Y-61218948D01*
X122039575Y-61525638D01*
X122190654Y-61808286D01*
X122393971Y-62056029D01*
X122641714Y-62259346D01*
X122924362Y-62410425D01*
X123231052Y-62503458D01*
X123550000Y-62534872D01*
X126050000Y-62534872D01*
X126368948Y-62503458D01*
X126675638Y-62410425D01*
X126958286Y-62259346D01*
X127206029Y-62056029D01*
X127409346Y-61808286D01*
X127560425Y-61525638D01*
X127653458Y-61218948D01*
X127684872Y-60900000D01*
X127684872Y-53900000D01*
X128915128Y-53900000D01*
X128915128Y-60900000D01*
X128946542Y-61218948D01*
X129039575Y-61525638D01*
X129190654Y-61808286D01*
X129393971Y-62056029D01*
X129641714Y-62259346D01*
X129924362Y-62410425D01*
X130231052Y-62503458D01*
X130550000Y-62534872D01*
X133050000Y-62534872D01*
X133368948Y-62503458D01*
X133675638Y-62410425D01*
X133958286Y-62259346D01*
X134206029Y-62056029D01*
X134409346Y-61808286D01*
X134560425Y-61525638D01*
X134653458Y-61218948D01*
X134684872Y-60900000D01*
X134684872Y-57812017D01*
X150313000Y-57812017D01*
X150313000Y-58427983D01*
X150433169Y-59032112D01*
X150668889Y-59601190D01*
X151011101Y-60113346D01*
X151446654Y-60548899D01*
X151958810Y-60891111D01*
X152527888Y-61126831D01*
X153132017Y-61247000D01*
X153747983Y-61247000D01*
X154352112Y-61126831D01*
X154921190Y-60891111D01*
X155433346Y-60548899D01*
X155868899Y-60113346D01*
X156211111Y-59601190D01*
X156446831Y-59032112D01*
X156567000Y-58427983D01*
X156567000Y-57812017D01*
X172913000Y-57812017D01*
X172913000Y-58427983D01*
X173033169Y-59032112D01*
X173268889Y-59601190D01*
X173611101Y-60113346D01*
X174046654Y-60548899D01*
X174558810Y-60891111D01*
X175127888Y-61126831D01*
X175732017Y-61247000D01*
X176347983Y-61247000D01*
X176952112Y-61126831D01*
X177521190Y-60891111D01*
X178033346Y-60548899D01*
X178468899Y-60113346D01*
X178811111Y-59601190D01*
X178911015Y-59360000D01*
X189640128Y-59360000D01*
X189640128Y-60960000D01*
X189671542Y-61278948D01*
X189764575Y-61585638D01*
X189915654Y-61868286D01*
X190118971Y-62116029D01*
X190366714Y-62319346D01*
X190649362Y-62470425D01*
X190956052Y-62563458D01*
X191275000Y-62594872D01*
X192875000Y-62594872D01*
X193193948Y-62563458D01*
X193500638Y-62470425D01*
X193783286Y-62319346D01*
X194031029Y-62116029D01*
X194234346Y-61868286D01*
X194385425Y-61585638D01*
X194478458Y-61278948D01*
X194509872Y-60960000D01*
X194509872Y-59360000D01*
X194478458Y-59041052D01*
X194385425Y-58734362D01*
X194234346Y-58451714D01*
X194031029Y-58203971D01*
X193783286Y-58000654D01*
X193500638Y-57849575D01*
X193193948Y-57756542D01*
X192875000Y-57725128D01*
X191275000Y-57725128D01*
X190956052Y-57756542D01*
X190649362Y-57849575D01*
X190366714Y-58000654D01*
X190118971Y-58203971D01*
X189915654Y-58451714D01*
X189764575Y-58734362D01*
X189671542Y-59041052D01*
X189640128Y-59360000D01*
X178911015Y-59360000D01*
X179046831Y-59032112D01*
X179167000Y-58427983D01*
X179167000Y-57812017D01*
X179046831Y-57207888D01*
X178811111Y-56638810D01*
X178468899Y-56126654D01*
X178033346Y-55691101D01*
X177521190Y-55348889D01*
X176952112Y-55113169D01*
X176347983Y-54993000D01*
X175732017Y-54993000D01*
X175127888Y-55113169D01*
X174558810Y-55348889D01*
X174046654Y-55691101D01*
X173611101Y-56126654D01*
X173268889Y-56638810D01*
X173033169Y-57207888D01*
X172913000Y-57812017D01*
X156567000Y-57812017D01*
X156446831Y-57207888D01*
X156211111Y-56638810D01*
X155868899Y-56126654D01*
X155433346Y-55691101D01*
X154921190Y-55348889D01*
X154352112Y-55113169D01*
X153747983Y-54993000D01*
X153132017Y-54993000D01*
X152527888Y-55113169D01*
X151958810Y-55348889D01*
X151446654Y-55691101D01*
X151011101Y-56126654D01*
X150668889Y-56638810D01*
X150433169Y-57207888D01*
X150313000Y-57812017D01*
X134684872Y-57812017D01*
X134684872Y-53900000D01*
X134653458Y-53581052D01*
X134560425Y-53274362D01*
X134409346Y-52991714D01*
X134206029Y-52743971D01*
X133958286Y-52540654D01*
X133675638Y-52389575D01*
X133368948Y-52296542D01*
X133050000Y-52265128D01*
X130550000Y-52265128D01*
X130231052Y-52296542D01*
X129924362Y-52389575D01*
X129641714Y-52540654D01*
X129393971Y-52743971D01*
X129190654Y-52991714D01*
X129039575Y-53274362D01*
X128946542Y-53581052D01*
X128915128Y-53900000D01*
X127684872Y-53900000D01*
X127653458Y-53581052D01*
X127560425Y-53274362D01*
X127409346Y-52991714D01*
X127206029Y-52743971D01*
X126958286Y-52540654D01*
X126675638Y-52389575D01*
X126368948Y-52296542D01*
X126050000Y-52265128D01*
X123550000Y-52265128D01*
X123231052Y-52296542D01*
X122924362Y-52389575D01*
X122641714Y-52540654D01*
X122393971Y-52743971D01*
X122190654Y-52991714D01*
X122039575Y-53274362D01*
X121946542Y-53581052D01*
X121915128Y-53900000D01*
X107202011Y-53900000D01*
X107156029Y-53843971D01*
X106908286Y-53640654D01*
X106625638Y-53489575D01*
X106318948Y-53396542D01*
X106000000Y-53365128D01*
X103000000Y-53365128D01*
X102681052Y-53396542D01*
X102374362Y-53489575D01*
X102091714Y-53640654D01*
X101843971Y-53843971D01*
X101652000Y-54077889D01*
X101652000Y-51652000D01*
X183673243Y-51652000D01*
X183533148Y-51990219D01*
M02*
