M48
; DRILL file {KiCad 5.1.4+dfsg1-1} date Fri 21 Feb 2020 11:40:19 AM CET
; FORMAT={-:-/ absolute / inch / decimal}
; #@! TF.CreationDate,2020-02-21T11:40:19+01:00
; #@! TF.GenerationSoftware,Kicad,Pcbnew,5.1.4+dfsg1-1
; #@! TF.FileFunction,Plated,1,2,PTH
FMAT,2
INCH
T1C0.0157
T2C0.0315
T3C0.0394
T4C0.0409
T5C0.0433
T6C0.0472
T7C0.0512
T8C0.0669
T9C0.0787
%
G90
G05
T1
X4.137Y-2.1685
X4.6067Y-2.9188
X4.6067Y-3.6188
X6.317Y-4.5451
X6.557Y-4.5285
X6.597Y-4.7885
X7.357Y-4.4685
X7.397Y-4.8685
X7.5591Y-4.9803
X7.917Y-4.4685
X7.9574Y-4.8881
X8.107Y-5.1985
T2
X7.562Y-2.2189
X7.562Y-2.3685
X7.562Y-3.0189
X7.562Y-3.1685
X7.562Y-3.7939
X7.562Y-3.9435
T3
X7.6378Y-5.1117
X7.6378Y-5.3085
X8.2087Y-5.1117
X8.2087Y-5.2101
X8.2087Y-5.3085
T4
X4.015Y-4.4185
X4.015Y-5.4185
X4.115Y-4.4185
X4.115Y-5.4185
X4.215Y-4.4185
X4.215Y-5.4185
X4.315Y-4.4185
X4.315Y-5.4185
X4.415Y-4.4185
X4.415Y-5.4185
X4.515Y-4.4185
X4.515Y-5.4185
X4.615Y-4.4185
X4.615Y-5.4185
X4.715Y-4.4185
X4.715Y-5.4185
X4.815Y-4.4185
X4.815Y-5.4185
X4.915Y-4.4185
X4.915Y-5.4185
X5.015Y-4.4185
X5.015Y-5.4185
X5.115Y-4.4185
X5.115Y-5.4185
X5.215Y-4.4185
X5.215Y-5.4185
X5.315Y-4.4185
X5.315Y-5.4185
X5.415Y-4.4185
X5.415Y-5.4185
X5.515Y-4.4185
X5.515Y-5.4185
X5.615Y-4.4185
X5.615Y-5.4185
X5.715Y-4.4185
X5.715Y-5.4185
X5.815Y-4.4185
X5.815Y-5.4185
T5
X7.2411Y-5.1313
X7.2411Y-5.3085
X7.497Y-5.1313
X7.497Y-5.3085
T6
X5.3559Y-3.4234
X5.3559Y-4.1636
X5.4559Y-3.4234
X5.4559Y-4.1636
X5.8181Y-3.4234
X5.8181Y-4.1636
X5.9181Y-3.4234
X5.9181Y-4.1636
T7
X8.1102Y-3.8217
X8.1102Y-4.0185
X8.1102Y-4.2154
X8.112Y-3.0498
X8.112Y-3.2467
X8.112Y-3.4435
X4.6067Y-2.4709
X4.6067Y-2.7661
X5.3941Y-2.4709
X5.3941Y-2.7661
X5.5909Y-2.4709
X5.5909Y-2.7661
X4.137Y-3.2185
X4.137Y-3.6122
X8.1102Y-2.1457
X8.1102Y-2.3425
X8.1102Y-2.5394
T2
G00X4.837Y-3.3874
M15
G01X4.837Y-3.2496
M16
G05
G00X5.024Y-3.3874
M15
G01X5.024Y-3.2496
M16
G05
G00X4.1994Y-3.8395
M15
G01X4.2349Y-3.8395
M16
G05
G00X4.3372Y-4.2332
M15
G01X4.3727Y-4.2332
M16
G05
T7
G00X4.0439Y-4.0423
M15
G01X4.0439Y-4.0147
M16
G05
G00X4.3294Y-4.1309
M15
G01X4.3018Y-4.1309
M16
G05
G00X4.4888Y-3.8454
M15
G01X4.4888Y-3.873
M16
G05
T8
G00X6.3707Y-3.1539
M15
G01X6.3234Y-3.1539
M16
G05
G00X6.7506Y-3.1539
M15
G01X6.7033Y-3.1539
M16
G05
G00X6.3707Y-2.3039
M15
G01X6.3234Y-2.3039
M16
G05
G00X6.7506Y-2.3039
M15
G01X6.7033Y-2.3039
M16
G05
G00X6.3957Y-4.0039
M15
G01X6.3484Y-4.0039
M16
G05
G00X6.7756Y-4.0039
M15
G01X6.7283Y-4.0039
M16
G05
T9
G00X7.9232Y-4.9896
M15
G01X7.9035Y-4.9896
M16
G05
G00X7.9232Y-5.4306
M15
G01X7.9035Y-5.4306
M16
G05
T0
M30
