G04 #@! TF.GenerationSoftware,KiCad,Pcbnew,5.1.9+dfsg1-1*
G04 #@! TF.CreationDate,2021-03-13T21:56:33+01:00*
G04 #@! TF.ProjectId,ledStripDriver,6c656453-7472-4697-9044-72697665722e,rev?*
G04 #@! TF.SameCoordinates,Original*
G04 #@! TF.FileFunction,Soldermask,Top*
G04 #@! TF.FilePolarity,Negative*
%FSLAX46Y46*%
G04 Gerber Fmt 4.6, Leading zero omitted, Abs format (unit mm)*
G04 Created by KiCad (PCBNEW 5.1.9+dfsg1-1) date 2021-03-13 21:56:33*
%MOMM*%
%LPD*%
G01*
G04 APERTURE LIST*
%ADD10C,0.500000*%
%ADD11C,1.662000*%
%ADD12C,1.626000*%
%ADD13C,3.602000*%
%ADD14C,3.102000*%
%ADD15O,1.702000X1.702000*%
%ADD16C,1.702000*%
%ADD17C,2.102000*%
%ADD18C,2.052000*%
%ADD19C,2.602000*%
%ADD20C,0.100000*%
G04 APERTURE END LIST*
G36*
G01*
X109900000Y-78801000D02*
X108100000Y-78801000D01*
G75*
G02*
X108049000Y-78750000I0J51000D01*
G01*
X108049000Y-75250000D01*
G75*
G02*
X108100000Y-75199000I51000J0D01*
G01*
X109900000Y-75199000D01*
G75*
G02*
X109951000Y-75250000I0J-51000D01*
G01*
X109951000Y-78750000D01*
G75*
G02*
X109900000Y-78801000I-51000J0D01*
G01*
G37*
G36*
G01*
X109900000Y-73801000D02*
X108100000Y-73801000D01*
G75*
G02*
X108049000Y-73750000I0J51000D01*
G01*
X108049000Y-70250000D01*
G75*
G02*
X108100000Y-70199000I51000J0D01*
G01*
X109900000Y-70199000D01*
G75*
G02*
X109951000Y-70250000I0J-51000D01*
G01*
X109951000Y-73750000D01*
G75*
G02*
X109900000Y-73801000I-51000J0D01*
G01*
G37*
G36*
G01*
X120464000Y-102335000D02*
X120464000Y-100535000D01*
G75*
G02*
X120515000Y-100484000I51000J0D01*
G01*
X124015000Y-100484000D01*
G75*
G02*
X124066000Y-100535000I0J-51000D01*
G01*
X124066000Y-102335000D01*
G75*
G02*
X124015000Y-102386000I-51000J0D01*
G01*
X120515000Y-102386000D01*
G75*
G02*
X120464000Y-102335000I0J51000D01*
G01*
G37*
G36*
G01*
X125464000Y-102335000D02*
X125464000Y-100535000D01*
G75*
G02*
X125515000Y-100484000I51000J0D01*
G01*
X129015000Y-100484000D01*
G75*
G02*
X129066000Y-100535000I0J-51000D01*
G01*
X129066000Y-102335000D01*
G75*
G02*
X129015000Y-102386000I-51000J0D01*
G01*
X125515000Y-102386000D01*
G75*
G02*
X125464000Y-102335000I0J51000D01*
G01*
G37*
G36*
G01*
X137901000Y-79100000D02*
X137901000Y-80900000D01*
G75*
G02*
X137850000Y-80951000I-51000J0D01*
G01*
X134350000Y-80951000D01*
G75*
G02*
X134299000Y-80900000I0J51000D01*
G01*
X134299000Y-79100000D01*
G75*
G02*
X134350000Y-79049000I51000J0D01*
G01*
X137850000Y-79049000D01*
G75*
G02*
X137901000Y-79100000I0J-51000D01*
G01*
G37*
G36*
G01*
X132901000Y-79100000D02*
X132901000Y-80900000D01*
G75*
G02*
X132850000Y-80951000I-51000J0D01*
G01*
X129350000Y-80951000D01*
G75*
G02*
X129299000Y-80900000I0J51000D01*
G01*
X129299000Y-79100000D01*
G75*
G02*
X129350000Y-79049000I51000J0D01*
G01*
X132850000Y-79049000D01*
G75*
G02*
X132901000Y-79100000I0J-51000D01*
G01*
G37*
D10*
X112700000Y-126200000D03*
X112700000Y-123660000D03*
D11*
X101980000Y-137630000D03*
X104520000Y-137630000D03*
X107060000Y-137630000D03*
X109600000Y-137630000D03*
X112140000Y-137630000D03*
X114680000Y-137630000D03*
X117220000Y-137630000D03*
X119760000Y-137630000D03*
X122300000Y-137630000D03*
X124840000Y-137630000D03*
X127380000Y-137630000D03*
X129920000Y-137630000D03*
X132460000Y-137630000D03*
X135000000Y-137630000D03*
X137540000Y-137630000D03*
X140080000Y-137630000D03*
X142620000Y-137630000D03*
X145160000Y-137630000D03*
X147700000Y-137630000D03*
X104520000Y-112230000D03*
X107060000Y-112230000D03*
X109600000Y-112230000D03*
X112140000Y-112230000D03*
X114680000Y-112230000D03*
X117220000Y-112230000D03*
X119760000Y-112230000D03*
X122300000Y-112230000D03*
X124840000Y-112230000D03*
X127380000Y-112230000D03*
X129920000Y-112230000D03*
X132460000Y-112230000D03*
X135000000Y-112230000D03*
X137540000Y-112230000D03*
X140080000Y-112230000D03*
X142620000Y-112230000D03*
X101980000Y-112230000D03*
X145160000Y-112230000D03*
G36*
G01*
X146920000Y-111399000D02*
X148480000Y-111399000D01*
G75*
G02*
X148531000Y-111450000I0J-51000D01*
G01*
X148531000Y-113010000D01*
G75*
G02*
X148480000Y-113061000I-51000J0D01*
G01*
X146920000Y-113061000D01*
G75*
G02*
X146869000Y-113010000I0J51000D01*
G01*
X146869000Y-111450000D01*
G75*
G02*
X146920000Y-111399000I51000J0D01*
G01*
G37*
G36*
G01*
X159399000Y-136078828D02*
X159399000Y-135121172D01*
G75*
G02*
X159671172Y-134849000I272172J0D01*
G01*
X160378828Y-134849000D01*
G75*
G02*
X160651000Y-135121172I0J-272172D01*
G01*
X160651000Y-136078828D01*
G75*
G02*
X160378828Y-136351000I-272172J0D01*
G01*
X159671172Y-136351000D01*
G75*
G02*
X159399000Y-136078828I0J272172D01*
G01*
G37*
G36*
G01*
X157349000Y-136078828D02*
X157349000Y-135121172D01*
G75*
G02*
X157621172Y-134849000I272172J0D01*
G01*
X158328828Y-134849000D01*
G75*
G02*
X158601000Y-135121172I0J-272172D01*
G01*
X158601000Y-136078828D01*
G75*
G02*
X158328828Y-136351000I-272172J0D01*
G01*
X157621172Y-136351000D01*
G75*
G02*
X157349000Y-136078828I0J272172D01*
G01*
G37*
G36*
G01*
X158601000Y-137321172D02*
X158601000Y-138278828D01*
G75*
G02*
X158328828Y-138551000I-272172J0D01*
G01*
X157621172Y-138551000D01*
G75*
G02*
X157349000Y-138278828I0J272172D01*
G01*
X157349000Y-137321172D01*
G75*
G02*
X157621172Y-137049000I272172J0D01*
G01*
X158328828Y-137049000D01*
G75*
G02*
X158601000Y-137321172I0J-272172D01*
G01*
G37*
G36*
G01*
X160651000Y-137321172D02*
X160651000Y-138278828D01*
G75*
G02*
X160378828Y-138551000I-272172J0D01*
G01*
X159671172Y-138551000D01*
G75*
G02*
X159399000Y-138278828I0J272172D01*
G01*
X159399000Y-137321172D01*
G75*
G02*
X159671172Y-137049000I272172J0D01*
G01*
X160378828Y-137049000D01*
G75*
G02*
X160651000Y-137321172I0J-272172D01*
G01*
G37*
D12*
X114400000Y-91000000D03*
X114400000Y-88500000D03*
X114400000Y-86500000D03*
G36*
G01*
X113638000Y-83187000D02*
X115162000Y-83187000D01*
G75*
G02*
X115213000Y-83238000I0J-51000D01*
G01*
X115213000Y-84762000D01*
G75*
G02*
X115162000Y-84813000I-51000J0D01*
G01*
X113638000Y-84813000D01*
G75*
G02*
X113587000Y-84762000I0J51000D01*
G01*
X113587000Y-83238000D01*
G75*
G02*
X113638000Y-83187000I51000J0D01*
G01*
G37*
D13*
X111690000Y-80930000D03*
X111690000Y-94070000D03*
G36*
G01*
X117801000Y-92921172D02*
X117801000Y-93878828D01*
G75*
G02*
X117528828Y-94151000I-272172J0D01*
G01*
X116821172Y-94151000D01*
G75*
G02*
X116549000Y-93878828I0J272172D01*
G01*
X116549000Y-92921172D01*
G75*
G02*
X116821172Y-92649000I272172J0D01*
G01*
X117528828Y-92649000D01*
G75*
G02*
X117801000Y-92921172I0J-272172D01*
G01*
G37*
G36*
G01*
X119851000Y-92921172D02*
X119851000Y-93878828D01*
G75*
G02*
X119578828Y-94151000I-272172J0D01*
G01*
X118871172Y-94151000D01*
G75*
G02*
X118599000Y-93878828I0J272172D01*
G01*
X118599000Y-92921172D01*
G75*
G02*
X118871172Y-92649000I272172J0D01*
G01*
X119578828Y-92649000D01*
G75*
G02*
X119851000Y-92921172I0J-272172D01*
G01*
G37*
G36*
G01*
X130599000Y-106878828D02*
X130599000Y-105921172D01*
G75*
G02*
X130871172Y-105649000I272172J0D01*
G01*
X131578828Y-105649000D01*
G75*
G02*
X131851000Y-105921172I0J-272172D01*
G01*
X131851000Y-106878828D01*
G75*
G02*
X131578828Y-107151000I-272172J0D01*
G01*
X130871172Y-107151000D01*
G75*
G02*
X130599000Y-106878828I0J272172D01*
G01*
G37*
G36*
G01*
X128549000Y-106878828D02*
X128549000Y-105921172D01*
G75*
G02*
X128821172Y-105649000I272172J0D01*
G01*
X129528828Y-105649000D01*
G75*
G02*
X129801000Y-105921172I0J-272172D01*
G01*
X129801000Y-106878828D01*
G75*
G02*
X129528828Y-107151000I-272172J0D01*
G01*
X128821172Y-107151000D01*
G75*
G02*
X128549000Y-106878828I0J272172D01*
G01*
G37*
G36*
G01*
X129799000Y-96185063D02*
X129799000Y-95014937D01*
G75*
G02*
X130064937Y-94749000I265937J0D01*
G01*
X133135063Y-94749000D01*
G75*
G02*
X133401000Y-95014937I0J-265937D01*
G01*
X133401000Y-96185063D01*
G75*
G02*
X133135063Y-96451000I-265937J0D01*
G01*
X130064937Y-96451000D01*
G75*
G02*
X129799000Y-96185063I0J265937D01*
G01*
G37*
G36*
G01*
X124199000Y-96185063D02*
X124199000Y-95014937D01*
G75*
G02*
X124464937Y-94749000I265937J0D01*
G01*
X127535063Y-94749000D01*
G75*
G02*
X127801000Y-95014937I0J-265937D01*
G01*
X127801000Y-96185063D01*
G75*
G02*
X127535063Y-96451000I-265937J0D01*
G01*
X124464937Y-96451000D01*
G75*
G02*
X124199000Y-96185063I0J265937D01*
G01*
G37*
G36*
G01*
X129799000Y-88385063D02*
X129799000Y-87214937D01*
G75*
G02*
X130064937Y-86949000I265937J0D01*
G01*
X133135063Y-86949000D01*
G75*
G02*
X133401000Y-87214937I0J-265937D01*
G01*
X133401000Y-88385063D01*
G75*
G02*
X133135063Y-88651000I-265937J0D01*
G01*
X130064937Y-88651000D01*
G75*
G02*
X129799000Y-88385063I0J265937D01*
G01*
G37*
G36*
G01*
X124199000Y-88385063D02*
X124199000Y-87214937D01*
G75*
G02*
X124464937Y-86949000I265937J0D01*
G01*
X127535063Y-86949000D01*
G75*
G02*
X127801000Y-87214937I0J-265937D01*
G01*
X127801000Y-88385063D01*
G75*
G02*
X127535063Y-88651000I-265937J0D01*
G01*
X124464937Y-88651000D01*
G75*
G02*
X124199000Y-88385063I0J265937D01*
G01*
G37*
G36*
G01*
X133050000Y-60951000D02*
X130550000Y-60951000D01*
G75*
G02*
X130499000Y-60900000I0J51000D01*
G01*
X130499000Y-53900000D01*
G75*
G02*
X130550000Y-53849000I51000J0D01*
G01*
X133050000Y-53849000D01*
G75*
G02*
X133101000Y-53900000I0J-51000D01*
G01*
X133101000Y-60900000D01*
G75*
G02*
X133050000Y-60951000I-51000J0D01*
G01*
G37*
G36*
G01*
X126050000Y-60951000D02*
X123550000Y-60951000D01*
G75*
G02*
X123499000Y-60900000I0J51000D01*
G01*
X123499000Y-53900000D01*
G75*
G02*
X123550000Y-53849000I51000J0D01*
G01*
X126050000Y-53849000D01*
G75*
G02*
X126101000Y-53900000I0J-51000D01*
G01*
X126101000Y-60900000D01*
G75*
G02*
X126050000Y-60951000I-51000J0D01*
G01*
G37*
D14*
X154075000Y-101300000D03*
X176675000Y-101300000D03*
X153440000Y-79710000D03*
X176040000Y-79710000D03*
X153440000Y-58120000D03*
X176040000Y-58120000D03*
X104500000Y-66500000D03*
G36*
G01*
X103000000Y-54949000D02*
X106000000Y-54949000D01*
G75*
G02*
X106051000Y-55000000I0J-51000D01*
G01*
X106051000Y-58000000D01*
G75*
G02*
X106000000Y-58051000I-51000J0D01*
G01*
X103000000Y-58051000D01*
G75*
G02*
X102949000Y-58000000I0J51000D01*
G01*
X102949000Y-55000000D01*
G75*
G02*
X103000000Y-54949000I51000J0D01*
G01*
G37*
D15*
X172320000Y-130000000D03*
X164700000Y-137620000D03*
X172320000Y-132540000D03*
X164700000Y-135080000D03*
X172320000Y-135080000D03*
X164700000Y-132540000D03*
X172320000Y-137620000D03*
G36*
G01*
X163849000Y-130800000D02*
X163849000Y-129200000D01*
G75*
G02*
X163900000Y-129149000I51000J0D01*
G01*
X165500000Y-129149000D01*
G75*
G02*
X165551000Y-129200000I0J-51000D01*
G01*
X165551000Y-130800000D01*
G75*
G02*
X165500000Y-130851000I-51000J0D01*
G01*
X163900000Y-130851000D01*
G75*
G02*
X163849000Y-130800000I0J51000D01*
G01*
G37*
G36*
G01*
X118399000Y-103778828D02*
X118399000Y-102821172D01*
G75*
G02*
X118671172Y-102549000I272172J0D01*
G01*
X119378828Y-102549000D01*
G75*
G02*
X119651000Y-102821172I0J-272172D01*
G01*
X119651000Y-103778828D01*
G75*
G02*
X119378828Y-104051000I-272172J0D01*
G01*
X118671172Y-104051000D01*
G75*
G02*
X118399000Y-103778828I0J272172D01*
G01*
G37*
G36*
G01*
X116349000Y-103778828D02*
X116349000Y-102821172D01*
G75*
G02*
X116621172Y-102549000I272172J0D01*
G01*
X117328828Y-102549000D01*
G75*
G02*
X117601000Y-102821172I0J-272172D01*
G01*
X117601000Y-103778828D01*
G75*
G02*
X117328828Y-104051000I-272172J0D01*
G01*
X116621172Y-104051000D01*
G75*
G02*
X116349000Y-103778828I0J272172D01*
G01*
G37*
G36*
G01*
X118374000Y-106078828D02*
X118374000Y-105121172D01*
G75*
G02*
X118646172Y-104849000I272172J0D01*
G01*
X119353828Y-104849000D01*
G75*
G02*
X119626000Y-105121172I0J-272172D01*
G01*
X119626000Y-106078828D01*
G75*
G02*
X119353828Y-106351000I-272172J0D01*
G01*
X118646172Y-106351000D01*
G75*
G02*
X118374000Y-106078828I0J272172D01*
G01*
G37*
G36*
G01*
X116324000Y-106078828D02*
X116324000Y-105121172D01*
G75*
G02*
X116596172Y-104849000I272172J0D01*
G01*
X117303828Y-104849000D01*
G75*
G02*
X117576000Y-105121172I0J-272172D01*
G01*
X117576000Y-106078828D01*
G75*
G02*
X117303828Y-106351000I-272172J0D01*
G01*
X116596172Y-106351000D01*
G75*
G02*
X116324000Y-106078828I0J272172D01*
G01*
G37*
G36*
G01*
X176799000Y-130578828D02*
X176799000Y-129621172D01*
G75*
G02*
X177071172Y-129349000I272172J0D01*
G01*
X177778828Y-129349000D01*
G75*
G02*
X178051000Y-129621172I0J-272172D01*
G01*
X178051000Y-130578828D01*
G75*
G02*
X177778828Y-130851000I-272172J0D01*
G01*
X177071172Y-130851000D01*
G75*
G02*
X176799000Y-130578828I0J272172D01*
G01*
G37*
G36*
G01*
X174749000Y-130578828D02*
X174749000Y-129621172D01*
G75*
G02*
X175021172Y-129349000I272172J0D01*
G01*
X175728828Y-129349000D01*
G75*
G02*
X176001000Y-129621172I0J-272172D01*
G01*
X176001000Y-130578828D01*
G75*
G02*
X175728828Y-130851000I-272172J0D01*
G01*
X175021172Y-130851000D01*
G75*
G02*
X174749000Y-130578828I0J272172D01*
G01*
G37*
G36*
G01*
X206278828Y-121401000D02*
X205321172Y-121401000D01*
G75*
G02*
X205049000Y-121128828I0J272172D01*
G01*
X205049000Y-120421172D01*
G75*
G02*
X205321172Y-120149000I272172J0D01*
G01*
X206278828Y-120149000D01*
G75*
G02*
X206551000Y-120421172I0J-272172D01*
G01*
X206551000Y-121128828D01*
G75*
G02*
X206278828Y-121401000I-272172J0D01*
G01*
G37*
G36*
G01*
X206278828Y-123451000D02*
X205321172Y-123451000D01*
G75*
G02*
X205049000Y-123178828I0J272172D01*
G01*
X205049000Y-122471172D01*
G75*
G02*
X205321172Y-122199000I272172J0D01*
G01*
X206278828Y-122199000D01*
G75*
G02*
X206551000Y-122471172I0J-272172D01*
G01*
X206551000Y-123178828D01*
G75*
G02*
X206278828Y-123451000I-272172J0D01*
G01*
G37*
G36*
G01*
X209078828Y-121401000D02*
X208121172Y-121401000D01*
G75*
G02*
X207849000Y-121128828I0J272172D01*
G01*
X207849000Y-120421172D01*
G75*
G02*
X208121172Y-120149000I272172J0D01*
G01*
X209078828Y-120149000D01*
G75*
G02*
X209351000Y-120421172I0J-272172D01*
G01*
X209351000Y-121128828D01*
G75*
G02*
X209078828Y-121401000I-272172J0D01*
G01*
G37*
G36*
G01*
X209078828Y-123451000D02*
X208121172Y-123451000D01*
G75*
G02*
X207849000Y-123178828I0J272172D01*
G01*
X207849000Y-122471172D01*
G75*
G02*
X208121172Y-122199000I272172J0D01*
G01*
X209078828Y-122199000D01*
G75*
G02*
X209351000Y-122471172I0J-272172D01*
G01*
X209351000Y-123178828D01*
G75*
G02*
X209078828Y-123451000I-272172J0D01*
G01*
G37*
G36*
G01*
X117626000Y-107421172D02*
X117626000Y-108378828D01*
G75*
G02*
X117353828Y-108651000I-272172J0D01*
G01*
X116646172Y-108651000D01*
G75*
G02*
X116374000Y-108378828I0J272172D01*
G01*
X116374000Y-107421172D01*
G75*
G02*
X116646172Y-107149000I272172J0D01*
G01*
X117353828Y-107149000D01*
G75*
G02*
X117626000Y-107421172I0J-272172D01*
G01*
G37*
G36*
G01*
X119676000Y-107421172D02*
X119676000Y-108378828D01*
G75*
G02*
X119403828Y-108651000I-272172J0D01*
G01*
X118696172Y-108651000D01*
G75*
G02*
X118424000Y-108378828I0J272172D01*
G01*
X118424000Y-107421172D01*
G75*
G02*
X118696172Y-107149000I272172J0D01*
G01*
X119403828Y-107149000D01*
G75*
G02*
X119676000Y-107421172I0J-272172D01*
G01*
G37*
G36*
G01*
X117001000Y-97421172D02*
X117001000Y-98378828D01*
G75*
G02*
X116728828Y-98651000I-272172J0D01*
G01*
X116021172Y-98651000D01*
G75*
G02*
X115749000Y-98378828I0J272172D01*
G01*
X115749000Y-97421172D01*
G75*
G02*
X116021172Y-97149000I272172J0D01*
G01*
X116728828Y-97149000D01*
G75*
G02*
X117001000Y-97421172I0J-272172D01*
G01*
G37*
G36*
G01*
X119051000Y-97421172D02*
X119051000Y-98378828D01*
G75*
G02*
X118778828Y-98651000I-272172J0D01*
G01*
X118071172Y-98651000D01*
G75*
G02*
X117799000Y-98378828I0J272172D01*
G01*
X117799000Y-97421172D01*
G75*
G02*
X118071172Y-97149000I272172J0D01*
G01*
X118778828Y-97149000D01*
G75*
G02*
X119051000Y-97421172I0J-272172D01*
G01*
G37*
G36*
G01*
X161478828Y-130726000D02*
X160521172Y-130726000D01*
G75*
G02*
X160249000Y-130453828I0J272172D01*
G01*
X160249000Y-129746172D01*
G75*
G02*
X160521172Y-129474000I272172J0D01*
G01*
X161478828Y-129474000D01*
G75*
G02*
X161751000Y-129746172I0J-272172D01*
G01*
X161751000Y-130453828D01*
G75*
G02*
X161478828Y-130726000I-272172J0D01*
G01*
G37*
G36*
G01*
X161478828Y-132776000D02*
X160521172Y-132776000D01*
G75*
G02*
X160249000Y-132503828I0J272172D01*
G01*
X160249000Y-131796172D01*
G75*
G02*
X160521172Y-131524000I272172J0D01*
G01*
X161478828Y-131524000D01*
G75*
G02*
X161751000Y-131796172I0J-272172D01*
G01*
X161751000Y-132503828D01*
G75*
G02*
X161478828Y-132776000I-272172J0D01*
G01*
G37*
G36*
G01*
X176201000Y-137121172D02*
X176201000Y-138078828D01*
G75*
G02*
X175928828Y-138351000I-272172J0D01*
G01*
X175221172Y-138351000D01*
G75*
G02*
X174949000Y-138078828I0J272172D01*
G01*
X174949000Y-137121172D01*
G75*
G02*
X175221172Y-136849000I272172J0D01*
G01*
X175928828Y-136849000D01*
G75*
G02*
X176201000Y-137121172I0J-272172D01*
G01*
G37*
G36*
G01*
X178251000Y-137121172D02*
X178251000Y-138078828D01*
G75*
G02*
X177978828Y-138351000I-272172J0D01*
G01*
X177271172Y-138351000D01*
G75*
G02*
X176999000Y-138078828I0J272172D01*
G01*
X176999000Y-137121172D01*
G75*
G02*
X177271172Y-136849000I272172J0D01*
G01*
X177978828Y-136849000D01*
G75*
G02*
X178251000Y-137121172I0J-272172D01*
G01*
G37*
G36*
G01*
X176899000Y-134378828D02*
X176899000Y-133421172D01*
G75*
G02*
X177171172Y-133149000I272172J0D01*
G01*
X177878828Y-133149000D01*
G75*
G02*
X178151000Y-133421172I0J-272172D01*
G01*
X178151000Y-134378828D01*
G75*
G02*
X177878828Y-134651000I-272172J0D01*
G01*
X177171172Y-134651000D01*
G75*
G02*
X176899000Y-134378828I0J272172D01*
G01*
G37*
G36*
G01*
X174849000Y-134378828D02*
X174849000Y-133421172D01*
G75*
G02*
X175121172Y-133149000I272172J0D01*
G01*
X175828828Y-133149000D01*
G75*
G02*
X176101000Y-133421172I0J-272172D01*
G01*
X176101000Y-134378828D01*
G75*
G02*
X175828828Y-134651000I-272172J0D01*
G01*
X175121172Y-134651000D01*
G75*
G02*
X174849000Y-134378828I0J272172D01*
G01*
G37*
G36*
G01*
X180521172Y-134424000D02*
X181478828Y-134424000D01*
G75*
G02*
X181751000Y-134696172I0J-272172D01*
G01*
X181751000Y-135403828D01*
G75*
G02*
X181478828Y-135676000I-272172J0D01*
G01*
X180521172Y-135676000D01*
G75*
G02*
X180249000Y-135403828I0J272172D01*
G01*
X180249000Y-134696172D01*
G75*
G02*
X180521172Y-134424000I272172J0D01*
G01*
G37*
G36*
G01*
X180521172Y-132374000D02*
X181478828Y-132374000D01*
G75*
G02*
X181751000Y-132646172I0J-272172D01*
G01*
X181751000Y-133353828D01*
G75*
G02*
X181478828Y-133626000I-272172J0D01*
G01*
X180521172Y-133626000D01*
G75*
G02*
X180249000Y-133353828I0J272172D01*
G01*
X180249000Y-132646172D01*
G75*
G02*
X180521172Y-132374000I272172J0D01*
G01*
G37*
G36*
G01*
X206178828Y-116901000D02*
X205221172Y-116901000D01*
G75*
G02*
X204949000Y-116628828I0J272172D01*
G01*
X204949000Y-115921172D01*
G75*
G02*
X205221172Y-115649000I272172J0D01*
G01*
X206178828Y-115649000D01*
G75*
G02*
X206451000Y-115921172I0J-272172D01*
G01*
X206451000Y-116628828D01*
G75*
G02*
X206178828Y-116901000I-272172J0D01*
G01*
G37*
G36*
G01*
X206178828Y-118951000D02*
X205221172Y-118951000D01*
G75*
G02*
X204949000Y-118678828I0J272172D01*
G01*
X204949000Y-117971172D01*
G75*
G02*
X205221172Y-117699000I272172J0D01*
G01*
X206178828Y-117699000D01*
G75*
G02*
X206451000Y-117971172I0J-272172D01*
G01*
X206451000Y-118678828D01*
G75*
G02*
X206178828Y-118951000I-272172J0D01*
G01*
G37*
G36*
G01*
X208978828Y-116926000D02*
X208021172Y-116926000D01*
G75*
G02*
X207749000Y-116653828I0J272172D01*
G01*
X207749000Y-115946172D01*
G75*
G02*
X208021172Y-115674000I272172J0D01*
G01*
X208978828Y-115674000D01*
G75*
G02*
X209251000Y-115946172I0J-272172D01*
G01*
X209251000Y-116653828D01*
G75*
G02*
X208978828Y-116926000I-272172J0D01*
G01*
G37*
G36*
G01*
X208978828Y-118976000D02*
X208021172Y-118976000D01*
G75*
G02*
X207749000Y-118703828I0J272172D01*
G01*
X207749000Y-117996172D01*
G75*
G02*
X208021172Y-117724000I272172J0D01*
G01*
X208978828Y-117724000D01*
G75*
G02*
X209251000Y-117996172I0J-272172D01*
G01*
X209251000Y-118703828D01*
G75*
G02*
X208978828Y-118976000I-272172J0D01*
G01*
G37*
G36*
G01*
X198824000Y-102278828D02*
X198824000Y-101321172D01*
G75*
G02*
X199096172Y-101049000I272172J0D01*
G01*
X199803828Y-101049000D01*
G75*
G02*
X200076000Y-101321172I0J-272172D01*
G01*
X200076000Y-102278828D01*
G75*
G02*
X199803828Y-102551000I-272172J0D01*
G01*
X199096172Y-102551000D01*
G75*
G02*
X198824000Y-102278828I0J272172D01*
G01*
G37*
G36*
G01*
X196774000Y-102278828D02*
X196774000Y-101321172D01*
G75*
G02*
X197046172Y-101049000I272172J0D01*
G01*
X197753828Y-101049000D01*
G75*
G02*
X198026000Y-101321172I0J-272172D01*
G01*
X198026000Y-102278828D01*
G75*
G02*
X197753828Y-102551000I-272172J0D01*
G01*
X197046172Y-102551000D01*
G75*
G02*
X196774000Y-102278828I0J272172D01*
G01*
G37*
G36*
G01*
X198724000Y-80578828D02*
X198724000Y-79621172D01*
G75*
G02*
X198996172Y-79349000I272172J0D01*
G01*
X199703828Y-79349000D01*
G75*
G02*
X199976000Y-79621172I0J-272172D01*
G01*
X199976000Y-80578828D01*
G75*
G02*
X199703828Y-80851000I-272172J0D01*
G01*
X198996172Y-80851000D01*
G75*
G02*
X198724000Y-80578828I0J272172D01*
G01*
G37*
G36*
G01*
X196674000Y-80578828D02*
X196674000Y-79621172D01*
G75*
G02*
X196946172Y-79349000I272172J0D01*
G01*
X197653828Y-79349000D01*
G75*
G02*
X197926000Y-79621172I0J-272172D01*
G01*
X197926000Y-80578828D01*
G75*
G02*
X197653828Y-80851000I-272172J0D01*
G01*
X196946172Y-80851000D01*
G75*
G02*
X196674000Y-80578828I0J272172D01*
G01*
G37*
G36*
G01*
X198974000Y-60178828D02*
X198974000Y-59221172D01*
G75*
G02*
X199246172Y-58949000I272172J0D01*
G01*
X199953828Y-58949000D01*
G75*
G02*
X200226000Y-59221172I0J-272172D01*
G01*
X200226000Y-60178828D01*
G75*
G02*
X199953828Y-60451000I-272172J0D01*
G01*
X199246172Y-60451000D01*
G75*
G02*
X198974000Y-60178828I0J272172D01*
G01*
G37*
G36*
G01*
X196924000Y-60178828D02*
X196924000Y-59221172D01*
G75*
G02*
X197196172Y-58949000I272172J0D01*
G01*
X197903828Y-58949000D01*
G75*
G02*
X198176000Y-59221172I0J-272172D01*
G01*
X198176000Y-60178828D01*
G75*
G02*
X197903828Y-60451000I-272172J0D01*
G01*
X197196172Y-60451000D01*
G75*
G02*
X196924000Y-60178828I0J272172D01*
G01*
G37*
G36*
G01*
X145576000Y-109021172D02*
X145576000Y-109978828D01*
G75*
G02*
X145303828Y-110251000I-272172J0D01*
G01*
X144596172Y-110251000D01*
G75*
G02*
X144324000Y-109978828I0J272172D01*
G01*
X144324000Y-109021172D01*
G75*
G02*
X144596172Y-108749000I272172J0D01*
G01*
X145303828Y-108749000D01*
G75*
G02*
X145576000Y-109021172I0J-272172D01*
G01*
G37*
G36*
G01*
X147626000Y-109021172D02*
X147626000Y-109978828D01*
G75*
G02*
X147353828Y-110251000I-272172J0D01*
G01*
X146646172Y-110251000D01*
G75*
G02*
X146374000Y-109978828I0J272172D01*
G01*
X146374000Y-109021172D01*
G75*
G02*
X146646172Y-108749000I272172J0D01*
G01*
X147353828Y-108749000D01*
G75*
G02*
X147626000Y-109021172I0J-272172D01*
G01*
G37*
G36*
G01*
X140601000Y-109021172D02*
X140601000Y-109978828D01*
G75*
G02*
X140328828Y-110251000I-272172J0D01*
G01*
X139621172Y-110251000D01*
G75*
G02*
X139349000Y-109978828I0J272172D01*
G01*
X139349000Y-109021172D01*
G75*
G02*
X139621172Y-108749000I272172J0D01*
G01*
X140328828Y-108749000D01*
G75*
G02*
X140601000Y-109021172I0J-272172D01*
G01*
G37*
G36*
G01*
X142651000Y-109021172D02*
X142651000Y-109978828D01*
G75*
G02*
X142378828Y-110251000I-272172J0D01*
G01*
X141671172Y-110251000D01*
G75*
G02*
X141399000Y-109978828I0J272172D01*
G01*
X141399000Y-109021172D01*
G75*
G02*
X141671172Y-108749000I272172J0D01*
G01*
X142378828Y-108749000D01*
G75*
G02*
X142651000Y-109021172I0J-272172D01*
G01*
G37*
D16*
X192075000Y-76680000D03*
G36*
G01*
X192875000Y-81331000D02*
X191275000Y-81331000D01*
G75*
G02*
X191224000Y-81280000I0J51000D01*
G01*
X191224000Y-79680000D01*
G75*
G02*
X191275000Y-79629000I51000J0D01*
G01*
X192875000Y-79629000D01*
G75*
G02*
X192926000Y-79680000I0J-51000D01*
G01*
X192926000Y-81280000D01*
G75*
G02*
X192875000Y-81331000I-51000J0D01*
G01*
G37*
D17*
X190500000Y-130500000D03*
X190500000Y-135000000D03*
X184000000Y-130500000D03*
X184000000Y-135000000D03*
G36*
G01*
X209551000Y-133836000D02*
X209551000Y-135836000D01*
G75*
G02*
X209500000Y-135887000I-51000J0D01*
G01*
X207500000Y-135887000D01*
G75*
G02*
X207449000Y-135836000I0J51000D01*
G01*
X207449000Y-133836000D01*
G75*
G02*
X207500000Y-133785000I51000J0D01*
G01*
X209500000Y-133785000D01*
G75*
G02*
X209551000Y-133836000I0J-51000D01*
G01*
G37*
X208500000Y-132336000D03*
X208500000Y-129836000D03*
G36*
G01*
X202551000Y-136686000D02*
X202551000Y-139186000D01*
G75*
G02*
X202500000Y-139237000I-51000J0D01*
G01*
X199500000Y-139237000D01*
G75*
G02*
X199449000Y-139186000I0J51000D01*
G01*
X199449000Y-136686000D01*
G75*
G02*
X199500000Y-136635000I51000J0D01*
G01*
X202500000Y-136635000D01*
G75*
G02*
X202551000Y-136686000I0J-51000D01*
G01*
G37*
G36*
G01*
X202551000Y-125486000D02*
X202551000Y-127986000D01*
G75*
G02*
X202500000Y-128037000I-51000J0D01*
G01*
X199500000Y-128037000D01*
G75*
G02*
X199449000Y-127986000I0J51000D01*
G01*
X199449000Y-125486000D01*
G75*
G02*
X199500000Y-125435000I51000J0D01*
G01*
X202500000Y-125435000D01*
G75*
G02*
X202551000Y-125486000I0J-51000D01*
G01*
G37*
X194000000Y-134836000D03*
X194000000Y-129836000D03*
G36*
G01*
X109299000Y-98600000D02*
X109299000Y-97200000D01*
G75*
G02*
X109350000Y-97149000I51000J0D01*
G01*
X111450000Y-97149000D01*
G75*
G02*
X111501000Y-97200000I0J-51000D01*
G01*
X111501000Y-98600000D01*
G75*
G02*
X111450000Y-98651000I-51000J0D01*
G01*
X109350000Y-98651000D01*
G75*
G02*
X109299000Y-98600000I0J51000D01*
G01*
G37*
G36*
G01*
X105799000Y-108600000D02*
X105799000Y-107200000D01*
G75*
G02*
X105850000Y-107149000I51000J0D01*
G01*
X107950000Y-107149000D01*
G75*
G02*
X108001000Y-107200000I0J-51000D01*
G01*
X108001000Y-108600000D01*
G75*
G02*
X107950000Y-108651000I-51000J0D01*
G01*
X105850000Y-108651000D01*
G75*
G02*
X105799000Y-108600000I0J51000D01*
G01*
G37*
G36*
G01*
X114700000Y-108601000D02*
X112900000Y-108601000D01*
G75*
G02*
X112849000Y-108550000I0J51000D01*
G01*
X112849000Y-106250000D01*
G75*
G02*
X112900000Y-106199000I51000J0D01*
G01*
X114700000Y-106199000D01*
G75*
G02*
X114751000Y-106250000I0J-51000D01*
G01*
X114751000Y-108550000D01*
G75*
G02*
X114700000Y-108601000I-51000J0D01*
G01*
G37*
G36*
G01*
X110601000Y-99600000D02*
X110601000Y-101400000D01*
G75*
G02*
X110550000Y-101451000I-51000J0D01*
G01*
X108250000Y-101451000D01*
G75*
G02*
X108199000Y-101400000I0J51000D01*
G01*
X108199000Y-99600000D01*
G75*
G02*
X108250000Y-99549000I51000J0D01*
G01*
X110550000Y-99549000D01*
G75*
G02*
X110601000Y-99600000I0J-51000D01*
G01*
G37*
G36*
G01*
X101600000Y-101899000D02*
X103400000Y-101899000D01*
G75*
G02*
X103451000Y-101950000I0J-51000D01*
G01*
X103451000Y-104250000D01*
G75*
G02*
X103400000Y-104301000I-51000J0D01*
G01*
X101600000Y-104301000D01*
G75*
G02*
X101549000Y-104250000I0J51000D01*
G01*
X101549000Y-101950000D01*
G75*
G02*
X101600000Y-101899000I51000J0D01*
G01*
G37*
D16*
X192075000Y-96365000D03*
G36*
G01*
X192875000Y-101016000D02*
X191275000Y-101016000D01*
G75*
G02*
X191224000Y-100965000I0J51000D01*
G01*
X191224000Y-99365000D01*
G75*
G02*
X191275000Y-99314000I51000J0D01*
G01*
X192875000Y-99314000D01*
G75*
G02*
X192926000Y-99365000I0J-51000D01*
G01*
X192926000Y-100965000D01*
G75*
G02*
X192875000Y-101016000I-51000J0D01*
G01*
G37*
X192075000Y-56360000D03*
G36*
G01*
X192875000Y-61011000D02*
X191275000Y-61011000D01*
G75*
G02*
X191224000Y-60960000I0J51000D01*
G01*
X191224000Y-59360000D01*
G75*
G02*
X191275000Y-59309000I51000J0D01*
G01*
X192875000Y-59309000D01*
G75*
G02*
X192926000Y-59360000I0J-51000D01*
G01*
X192926000Y-60960000D01*
G75*
G02*
X192875000Y-61011000I-51000J0D01*
G01*
G37*
G36*
G01*
X137500000Y-83299000D02*
X139800000Y-83299000D01*
G75*
G02*
X139851000Y-83350000I0J-51000D01*
G01*
X139851000Y-86550000D01*
G75*
G02*
X139800000Y-86601000I-51000J0D01*
G01*
X137500000Y-86601000D01*
G75*
G02*
X137449000Y-86550000I0J51000D01*
G01*
X137449000Y-83350000D01*
G75*
G02*
X137500000Y-83299000I51000J0D01*
G01*
G37*
G36*
G01*
X134960000Y-83299000D02*
X137260000Y-83299000D01*
G75*
G02*
X137311000Y-83350000I0J-51000D01*
G01*
X137311000Y-86550000D01*
G75*
G02*
X137260000Y-86601000I-51000J0D01*
G01*
X134960000Y-86601000D01*
G75*
G02*
X134909000Y-86550000I0J51000D01*
G01*
X134909000Y-83350000D01*
G75*
G02*
X134960000Y-83299000I51000J0D01*
G01*
G37*
G36*
G01*
X149240000Y-103899000D02*
X151540000Y-103899000D01*
G75*
G02*
X151591000Y-103950000I0J-51000D01*
G01*
X151591000Y-107150000D01*
G75*
G02*
X151540000Y-107201000I-51000J0D01*
G01*
X149240000Y-107201000D01*
G75*
G02*
X149189000Y-107150000I0J51000D01*
G01*
X149189000Y-103950000D01*
G75*
G02*
X149240000Y-103899000I51000J0D01*
G01*
G37*
G36*
G01*
X146700000Y-83299000D02*
X149000000Y-83299000D01*
G75*
G02*
X149051000Y-83350000I0J-51000D01*
G01*
X149051000Y-86550000D01*
G75*
G02*
X149000000Y-86601000I-51000J0D01*
G01*
X146700000Y-86601000D01*
G75*
G02*
X146649000Y-86550000I0J51000D01*
G01*
X146649000Y-83350000D01*
G75*
G02*
X146700000Y-83299000I51000J0D01*
G01*
G37*
G36*
G01*
X134960000Y-103899000D02*
X137260000Y-103899000D01*
G75*
G02*
X137311000Y-103950000I0J-51000D01*
G01*
X137311000Y-107150000D01*
G75*
G02*
X137260000Y-107201000I-51000J0D01*
G01*
X134960000Y-107201000D01*
G75*
G02*
X134909000Y-107150000I0J51000D01*
G01*
X134909000Y-103950000D01*
G75*
G02*
X134960000Y-103899000I51000J0D01*
G01*
G37*
G36*
G01*
X137500000Y-103899000D02*
X139800000Y-103899000D01*
G75*
G02*
X139851000Y-103950000I0J-51000D01*
G01*
X139851000Y-107150000D01*
G75*
G02*
X139800000Y-107201000I-51000J0D01*
G01*
X137500000Y-107201000D01*
G75*
G02*
X137449000Y-107150000I0J51000D01*
G01*
X137449000Y-103950000D01*
G75*
G02*
X137500000Y-103899000I51000J0D01*
G01*
G37*
G36*
G01*
X149240000Y-83299000D02*
X151540000Y-83299000D01*
G75*
G02*
X151591000Y-83350000I0J-51000D01*
G01*
X151591000Y-86550000D01*
G75*
G02*
X151540000Y-86601000I-51000J0D01*
G01*
X149240000Y-86601000D01*
G75*
G02*
X149189000Y-86550000I0J51000D01*
G01*
X149189000Y-83350000D01*
G75*
G02*
X149240000Y-83299000I51000J0D01*
G01*
G37*
G36*
G01*
X146700000Y-103899000D02*
X149000000Y-103899000D01*
G75*
G02*
X149051000Y-103950000I0J-51000D01*
G01*
X149051000Y-107150000D01*
G75*
G02*
X149000000Y-107201000I-51000J0D01*
G01*
X146700000Y-107201000D01*
G75*
G02*
X146649000Y-107150000I0J51000D01*
G01*
X146649000Y-103950000D01*
G75*
G02*
X146700000Y-103899000I51000J0D01*
G01*
G37*
G36*
G01*
X195474828Y-115641000D02*
X194517172Y-115641000D01*
G75*
G02*
X194245000Y-115368828I0J272172D01*
G01*
X194245000Y-114661172D01*
G75*
G02*
X194517172Y-114389000I272172J0D01*
G01*
X195474828Y-114389000D01*
G75*
G02*
X195747000Y-114661172I0J-272172D01*
G01*
X195747000Y-115368828D01*
G75*
G02*
X195474828Y-115641000I-272172J0D01*
G01*
G37*
G36*
G01*
X195474828Y-117691000D02*
X194517172Y-117691000D01*
G75*
G02*
X194245000Y-117418828I0J272172D01*
G01*
X194245000Y-116711172D01*
G75*
G02*
X194517172Y-116439000I272172J0D01*
G01*
X195474828Y-116439000D01*
G75*
G02*
X195747000Y-116711172I0J-272172D01*
G01*
X195747000Y-117418828D01*
G75*
G02*
X195474828Y-117691000I-272172J0D01*
G01*
G37*
G36*
G01*
X181758828Y-116149000D02*
X180801172Y-116149000D01*
G75*
G02*
X180529000Y-115876828I0J272172D01*
G01*
X180529000Y-115169172D01*
G75*
G02*
X180801172Y-114897000I272172J0D01*
G01*
X181758828Y-114897000D01*
G75*
G02*
X182031000Y-115169172I0J-272172D01*
G01*
X182031000Y-115876828D01*
G75*
G02*
X181758828Y-116149000I-272172J0D01*
G01*
G37*
G36*
G01*
X181758828Y-118199000D02*
X180801172Y-118199000D01*
G75*
G02*
X180529000Y-117926828I0J272172D01*
G01*
X180529000Y-117219172D01*
G75*
G02*
X180801172Y-116947000I272172J0D01*
G01*
X181758828Y-116947000D01*
G75*
G02*
X182031000Y-117219172I0J-272172D01*
G01*
X182031000Y-117926828D01*
G75*
G02*
X181758828Y-118199000I-272172J0D01*
G01*
G37*
G36*
G01*
X162953828Y-117800000D02*
X161996172Y-117800000D01*
G75*
G02*
X161724000Y-117527828I0J272172D01*
G01*
X161724000Y-116820172D01*
G75*
G02*
X161996172Y-116548000I272172J0D01*
G01*
X162953828Y-116548000D01*
G75*
G02*
X163226000Y-116820172I0J-272172D01*
G01*
X163226000Y-117527828D01*
G75*
G02*
X162953828Y-117800000I-272172J0D01*
G01*
G37*
G36*
G01*
X162953828Y-119850000D02*
X161996172Y-119850000D01*
G75*
G02*
X161724000Y-119577828I0J272172D01*
G01*
X161724000Y-118870172D01*
G75*
G02*
X161996172Y-118598000I272172J0D01*
G01*
X162953828Y-118598000D01*
G75*
G02*
X163226000Y-118870172I0J-272172D01*
G01*
X163226000Y-119577828D01*
G75*
G02*
X162953828Y-119850000I-272172J0D01*
G01*
G37*
G36*
G01*
X201491000Y-121090828D02*
X201491000Y-120133172D01*
G75*
G02*
X201763172Y-119861000I272172J0D01*
G01*
X202470828Y-119861000D01*
G75*
G02*
X202743000Y-120133172I0J-272172D01*
G01*
X202743000Y-121090828D01*
G75*
G02*
X202470828Y-121363000I-272172J0D01*
G01*
X201763172Y-121363000D01*
G75*
G02*
X201491000Y-121090828I0J272172D01*
G01*
G37*
G36*
G01*
X199441000Y-121090828D02*
X199441000Y-120133172D01*
G75*
G02*
X199713172Y-119861000I272172J0D01*
G01*
X200420828Y-119861000D01*
G75*
G02*
X200693000Y-120133172I0J-272172D01*
G01*
X200693000Y-121090828D01*
G75*
G02*
X200420828Y-121363000I-272172J0D01*
G01*
X199713172Y-121363000D01*
G75*
G02*
X199441000Y-121090828I0J272172D01*
G01*
G37*
G36*
G01*
X187267000Y-121090828D02*
X187267000Y-120133172D01*
G75*
G02*
X187539172Y-119861000I272172J0D01*
G01*
X188246828Y-119861000D01*
G75*
G02*
X188519000Y-120133172I0J-272172D01*
G01*
X188519000Y-121090828D01*
G75*
G02*
X188246828Y-121363000I-272172J0D01*
G01*
X187539172Y-121363000D01*
G75*
G02*
X187267000Y-121090828I0J272172D01*
G01*
G37*
G36*
G01*
X185217000Y-121090828D02*
X185217000Y-120133172D01*
G75*
G02*
X185489172Y-119861000I272172J0D01*
G01*
X186196828Y-119861000D01*
G75*
G02*
X186469000Y-120133172I0J-272172D01*
G01*
X186469000Y-121090828D01*
G75*
G02*
X186196828Y-121363000I-272172J0D01*
G01*
X185489172Y-121363000D01*
G75*
G02*
X185217000Y-121090828I0J272172D01*
G01*
G37*
G36*
G01*
X171598828Y-117165000D02*
X170641172Y-117165000D01*
G75*
G02*
X170369000Y-116892828I0J272172D01*
G01*
X170369000Y-116185172D01*
G75*
G02*
X170641172Y-115913000I272172J0D01*
G01*
X171598828Y-115913000D01*
G75*
G02*
X171871000Y-116185172I0J-272172D01*
G01*
X171871000Y-116892828D01*
G75*
G02*
X171598828Y-117165000I-272172J0D01*
G01*
G37*
G36*
G01*
X171598828Y-119215000D02*
X170641172Y-119215000D01*
G75*
G02*
X170369000Y-118942828I0J272172D01*
G01*
X170369000Y-118235172D01*
G75*
G02*
X170641172Y-117963000I272172J0D01*
G01*
X171598828Y-117963000D01*
G75*
G02*
X171871000Y-118235172I0J-272172D01*
G01*
X171871000Y-118942828D01*
G75*
G02*
X171598828Y-119215000I-272172J0D01*
G01*
G37*
G36*
G01*
X120321172Y-87224000D02*
X121278828Y-87224000D01*
G75*
G02*
X121551000Y-87496172I0J-272172D01*
G01*
X121551000Y-88203828D01*
G75*
G02*
X121278828Y-88476000I-272172J0D01*
G01*
X120321172Y-88476000D01*
G75*
G02*
X120049000Y-88203828I0J272172D01*
G01*
X120049000Y-87496172D01*
G75*
G02*
X120321172Y-87224000I272172J0D01*
G01*
G37*
G36*
G01*
X120321172Y-85174000D02*
X121278828Y-85174000D01*
G75*
G02*
X121551000Y-85446172I0J-272172D01*
G01*
X121551000Y-86153828D01*
G75*
G02*
X121278828Y-86426000I-272172J0D01*
G01*
X120321172Y-86426000D01*
G75*
G02*
X120049000Y-86153828I0J272172D01*
G01*
X120049000Y-85446172D01*
G75*
G02*
X120321172Y-85174000I272172J0D01*
G01*
G37*
G36*
G01*
X201492000Y-115541000D02*
X200692000Y-115541000D01*
G75*
G02*
X200641000Y-115490000I0J51000D01*
G01*
X200641000Y-114590000D01*
G75*
G02*
X200692000Y-114539000I51000J0D01*
G01*
X201492000Y-114539000D01*
G75*
G02*
X201543000Y-114590000I0J-51000D01*
G01*
X201543000Y-115490000D01*
G75*
G02*
X201492000Y-115541000I-51000J0D01*
G01*
G37*
G36*
G01*
X202442000Y-117541000D02*
X201642000Y-117541000D01*
G75*
G02*
X201591000Y-117490000I0J51000D01*
G01*
X201591000Y-116590000D01*
G75*
G02*
X201642000Y-116539000I51000J0D01*
G01*
X202442000Y-116539000D01*
G75*
G02*
X202493000Y-116590000I0J-51000D01*
G01*
X202493000Y-117490000D01*
G75*
G02*
X202442000Y-117541000I-51000J0D01*
G01*
G37*
G36*
G01*
X200542000Y-117541000D02*
X199742000Y-117541000D01*
G75*
G02*
X199691000Y-117490000I0J51000D01*
G01*
X199691000Y-116590000D01*
G75*
G02*
X199742000Y-116539000I51000J0D01*
G01*
X200542000Y-116539000D01*
G75*
G02*
X200593000Y-116590000I0J-51000D01*
G01*
X200593000Y-117490000D01*
G75*
G02*
X200542000Y-117541000I-51000J0D01*
G01*
G37*
G36*
G01*
X187268000Y-115541000D02*
X186468000Y-115541000D01*
G75*
G02*
X186417000Y-115490000I0J51000D01*
G01*
X186417000Y-114590000D01*
G75*
G02*
X186468000Y-114539000I51000J0D01*
G01*
X187268000Y-114539000D01*
G75*
G02*
X187319000Y-114590000I0J-51000D01*
G01*
X187319000Y-115490000D01*
G75*
G02*
X187268000Y-115541000I-51000J0D01*
G01*
G37*
G36*
G01*
X188218000Y-117541000D02*
X187418000Y-117541000D01*
G75*
G02*
X187367000Y-117490000I0J51000D01*
G01*
X187367000Y-116590000D01*
G75*
G02*
X187418000Y-116539000I51000J0D01*
G01*
X188218000Y-116539000D01*
G75*
G02*
X188269000Y-116590000I0J-51000D01*
G01*
X188269000Y-117490000D01*
G75*
G02*
X188218000Y-117541000I-51000J0D01*
G01*
G37*
G36*
G01*
X186318000Y-117541000D02*
X185518000Y-117541000D01*
G75*
G02*
X185467000Y-117490000I0J51000D01*
G01*
X185467000Y-116590000D01*
G75*
G02*
X185518000Y-116539000I51000J0D01*
G01*
X186318000Y-116539000D01*
G75*
G02*
X186369000Y-116590000I0J-51000D01*
G01*
X186369000Y-117490000D01*
G75*
G02*
X186318000Y-117541000I-51000J0D01*
G01*
G37*
G36*
G01*
X166811000Y-117164000D02*
X166811000Y-117964000D01*
G75*
G02*
X166760000Y-118015000I-51000J0D01*
G01*
X165860000Y-118015000D01*
G75*
G02*
X165809000Y-117964000I0J51000D01*
G01*
X165809000Y-117164000D01*
G75*
G02*
X165860000Y-117113000I51000J0D01*
G01*
X166760000Y-117113000D01*
G75*
G02*
X166811000Y-117164000I0J-51000D01*
G01*
G37*
G36*
G01*
X168811000Y-116214000D02*
X168811000Y-117014000D01*
G75*
G02*
X168760000Y-117065000I-51000J0D01*
G01*
X167860000Y-117065000D01*
G75*
G02*
X167809000Y-117014000I0J51000D01*
G01*
X167809000Y-116214000D01*
G75*
G02*
X167860000Y-116163000I51000J0D01*
G01*
X168760000Y-116163000D01*
G75*
G02*
X168811000Y-116214000I0J-51000D01*
G01*
G37*
G36*
G01*
X168811000Y-118114000D02*
X168811000Y-118914000D01*
G75*
G02*
X168760000Y-118965000I-51000J0D01*
G01*
X167860000Y-118965000D01*
G75*
G02*
X167809000Y-118914000I0J51000D01*
G01*
X167809000Y-118114000D01*
G75*
G02*
X167860000Y-118063000I51000J0D01*
G01*
X168760000Y-118063000D01*
G75*
G02*
X168811000Y-118114000I0J-51000D01*
G01*
G37*
G36*
G01*
X119600000Y-80699000D02*
X120400000Y-80699000D01*
G75*
G02*
X120451000Y-80750000I0J-51000D01*
G01*
X120451000Y-81650000D01*
G75*
G02*
X120400000Y-81701000I-51000J0D01*
G01*
X119600000Y-81701000D01*
G75*
G02*
X119549000Y-81650000I0J51000D01*
G01*
X119549000Y-80750000D01*
G75*
G02*
X119600000Y-80699000I51000J0D01*
G01*
G37*
G36*
G01*
X118650000Y-78699000D02*
X119450000Y-78699000D01*
G75*
G02*
X119501000Y-78750000I0J-51000D01*
G01*
X119501000Y-79650000D01*
G75*
G02*
X119450000Y-79701000I-51000J0D01*
G01*
X118650000Y-79701000D01*
G75*
G02*
X118599000Y-79650000I0J51000D01*
G01*
X118599000Y-78750000D01*
G75*
G02*
X118650000Y-78699000I51000J0D01*
G01*
G37*
G36*
G01*
X120550000Y-78699000D02*
X121350000Y-78699000D01*
G75*
G02*
X121401000Y-78750000I0J-51000D01*
G01*
X121401000Y-79650000D01*
G75*
G02*
X121350000Y-79701000I-51000J0D01*
G01*
X120550000Y-79701000D01*
G75*
G02*
X120499000Y-79650000I0J51000D01*
G01*
X120499000Y-78750000D01*
G75*
G02*
X120550000Y-78699000I51000J0D01*
G01*
G37*
D18*
X141800000Y-74500000D03*
X136800000Y-74500000D03*
X136800000Y-67000000D03*
X141800000Y-67000000D03*
G36*
G01*
X115774000Y-75475000D02*
X115774000Y-73525000D01*
G75*
G02*
X115825000Y-73474000I51000J0D01*
G01*
X117775000Y-73474000D01*
G75*
G02*
X117826000Y-73525000I0J-51000D01*
G01*
X117826000Y-75475000D01*
G75*
G02*
X117775000Y-75526000I-51000J0D01*
G01*
X115825000Y-75526000D01*
G75*
G02*
X115774000Y-75475000I0J51000D01*
G01*
G37*
X116800000Y-67000000D03*
D19*
X206000000Y-97070000D03*
X206000000Y-102070000D03*
G36*
G01*
X207250000Y-108371000D02*
X204750000Y-108371000D01*
G75*
G02*
X204699000Y-108320000I0J51000D01*
G01*
X204699000Y-105820000D01*
G75*
G02*
X204750000Y-105769000I51000J0D01*
G01*
X207250000Y-105769000D01*
G75*
G02*
X207301000Y-105820000I0J-51000D01*
G01*
X207301000Y-108320000D01*
G75*
G02*
X207250000Y-108371000I-51000J0D01*
G01*
G37*
X206045000Y-77465000D03*
X206045000Y-82465000D03*
G36*
G01*
X207295000Y-88766000D02*
X204795000Y-88766000D01*
G75*
G02*
X204744000Y-88715000I0J51000D01*
G01*
X204744000Y-86215000D01*
G75*
G02*
X204795000Y-86164000I51000J0D01*
G01*
X207295000Y-86164000D01*
G75*
G02*
X207346000Y-86215000I0J-51000D01*
G01*
X207346000Y-88715000D01*
G75*
G02*
X207295000Y-88766000I-51000J0D01*
G01*
G37*
X206000000Y-54500000D03*
X206000000Y-59500000D03*
G36*
G01*
X207250000Y-65801000D02*
X204750000Y-65801000D01*
G75*
G02*
X204699000Y-65750000I0J51000D01*
G01*
X204699000Y-63250000D01*
G75*
G02*
X204750000Y-63199000I51000J0D01*
G01*
X207250000Y-63199000D01*
G75*
G02*
X207301000Y-63250000I0J-51000D01*
G01*
X207301000Y-65750000D01*
G75*
G02*
X207250000Y-65801000I-51000J0D01*
G01*
G37*
D20*
G36*
X137450732Y-103898000D02*
G01*
X137451000Y-103899000D01*
X137451000Y-107201000D01*
X137450000Y-107202732D01*
X137449000Y-107203000D01*
X137311000Y-107203000D01*
X137309268Y-107202000D01*
X137309000Y-107201000D01*
X137309000Y-103899000D01*
X137310000Y-103897268D01*
X137311000Y-103897000D01*
X137449000Y-103897000D01*
X137450732Y-103898000D01*
G37*
G36*
X149190732Y-103898000D02*
G01*
X149191000Y-103899000D01*
X149191000Y-107201000D01*
X149190000Y-107202732D01*
X149189000Y-107203000D01*
X149051000Y-107203000D01*
X149049268Y-107202000D01*
X149049000Y-107201000D01*
X149049000Y-103899000D01*
X149050000Y-103897268D01*
X149051000Y-103897000D01*
X149189000Y-103897000D01*
X149190732Y-103898000D01*
G37*
G36*
X137450732Y-83298000D02*
G01*
X137451000Y-83299000D01*
X137451000Y-86601000D01*
X137450000Y-86602732D01*
X137449000Y-86603000D01*
X137311000Y-86603000D01*
X137309268Y-86602000D01*
X137309000Y-86601000D01*
X137309000Y-83299000D01*
X137310000Y-83297268D01*
X137311000Y-83297000D01*
X137449000Y-83297000D01*
X137450732Y-83298000D01*
G37*
G36*
X149190732Y-83298000D02*
G01*
X149191000Y-83299000D01*
X149191000Y-86601000D01*
X149190000Y-86602732D01*
X149189000Y-86603000D01*
X149051000Y-86603000D01*
X149049268Y-86602000D01*
X149049000Y-86601000D01*
X149049000Y-83299000D01*
X149050000Y-83297268D01*
X149051000Y-83297000D01*
X149189000Y-83297000D01*
X149190732Y-83298000D01*
G37*
M02*
