M48
; DRILL file {KiCad 5.1.9+dfsg1-1} date Sat Mar 13 21:56:29 2021
; FORMAT={-:-/ absolute / inch / decimal}
; #@! TF.CreationDate,2021-03-13T21:56:29+01:00
; #@! TF.GenerationSoftware,Kicad,Pcbnew,5.1.9+dfsg1-1
; #@! TF.FileFunction,Plated,1,2,PTH
FMAT,2
INCH
T1C0.0157
T2C0.0315
T3C0.0362
T4C0.0394
T5C0.0409
T6C0.0433
T7C0.0472
T8C0.0512
T9C0.0591
T10C0.0709
T11C0.0787
T12C0.0906
%
G90
G05
T1
X4.3701Y-4.622
X4.6614Y-3.8504
X4.7559Y-3.4646
X5.1732Y-3.4567
X5.1732Y-4.189
X5.189Y-3.7638
X5.2362Y-3.8504
X5.5984Y-4.2992
X5.7894Y-4.3091
X6.1417Y-4.7677
X6.1417Y-5.0394
X6.2795Y-4.4171
X6.2795Y-4.5451
X6.2992Y-5.4252
X6.3386Y-5.122
X6.3386Y-5.2087
X6.557Y-4.5285
X6.5669Y-4.6757
X6.5709Y-4.9291
X6.6264Y-4.6659
X6.9921Y-5.2717
X6.9921Y-5.4094
X7.0Y-4.7746
X7.0472Y-5.0945
X7.0551Y-4.8937
X7.2441Y-4.685
X7.3583Y-4.4685
X7.3937Y-4.9606
X7.3974Y-4.7485
X7.4889Y-4.6743
X7.7677Y-3.1535
X7.7776Y-2.3504
X7.7825Y-4.0079
X7.8484Y-3.1535
X7.917Y-4.4685
X7.9528Y-4.9134
X7.9574Y-4.7485
X8.0472Y-5.0551
X8.094Y-4.7633
X8.2077Y-4.5778
T2
X6.4843Y-5.1181
X6.4843Y-5.2181
X6.4843Y-5.3181
X6.4843Y-5.4181
X6.7843Y-5.1181
X6.7843Y-5.2181
X6.7843Y-5.3181
X6.7843Y-5.4181
X7.562Y-2.2189
X7.562Y-2.3685
X7.562Y-3.0189
X7.562Y-3.1685
X7.562Y-3.7939
X7.562Y-3.9435
T3
X4.5039Y-3.3071
X4.5039Y-3.4055
X4.5039Y-3.4843
X4.5039Y-3.5827
T4
X7.6378Y-5.1117
X7.6378Y-5.3085
X8.2087Y-5.1117
X8.2087Y-5.2101
X8.2087Y-5.3085
T5
X4.015Y-4.4185
X4.015Y-5.4185
X4.115Y-4.4185
X4.115Y-5.4185
X4.215Y-4.4185
X4.215Y-5.4185
X4.315Y-4.4185
X4.315Y-5.4185
X4.415Y-4.4185
X4.415Y-5.4185
X4.515Y-4.4185
X4.515Y-5.4185
X4.615Y-4.4185
X4.615Y-5.4185
X4.715Y-4.4185
X4.715Y-5.4185
X4.815Y-4.4185
X4.815Y-5.4185
X4.915Y-4.4185
X4.915Y-5.4185
X5.015Y-4.4185
X5.015Y-5.4185
X5.115Y-4.4185
X5.115Y-5.4185
X5.215Y-4.4185
X5.215Y-5.4185
X5.315Y-4.4185
X5.315Y-5.4185
X5.415Y-4.4185
X5.415Y-5.4185
X5.515Y-4.4185
X5.515Y-5.4185
X5.615Y-4.4185
X5.615Y-5.4185
X5.715Y-4.4185
X5.715Y-5.4185
X5.815Y-4.4185
X5.815Y-5.4185
T6
X7.2441Y-5.1378
X7.2441Y-5.315
X7.5Y-5.1378
X7.5Y-5.315
T7
X5.3587Y-3.3799
X5.3587Y-4.1201
X5.4587Y-3.3799
X5.4587Y-4.1201
X5.8209Y-3.3799
X5.8209Y-4.1201
X5.9209Y-3.3799
X5.9209Y-4.1201
T8
X4.5984Y-2.6378
X4.5984Y-2.9331
X5.3858Y-2.6378
X5.3858Y-2.9331
X5.5827Y-2.6378
X5.5827Y-2.9331
X8.1102Y-2.1457
X8.1102Y-2.3425
X8.1102Y-2.5394
X8.1102Y-3.8217
X8.1102Y-4.0185
X8.1102Y-4.2154
X8.112Y-3.0498
X8.112Y-3.2467
X8.112Y-3.4435
T9
X6.0409Y-2.2882
X6.0409Y-3.1382
X6.0659Y-3.9882
X6.9307Y-2.2882
X6.9307Y-3.1382
X6.9557Y-3.9882
T10
X4.1142Y-2.2244
X4.1142Y-2.6181
T12
X4.3972Y-3.1862
X4.3972Y-3.7035
T2
G00X4.1909Y-4.248
M15
G01X4.2264Y-4.248
M16
G05
G00X4.3287Y-3.8543
M15
G01X4.3642Y-3.8543
M16
G05
T4
G00X4.9134Y-2.3583
M15
G01X4.9134Y-2.1614
M16
G05
G00X5.189Y-2.3583
M15
G01X5.189Y-2.1614
M16
G05
T8
G00X4.0354Y-4.0453
M15
G01X4.0354Y-4.0728
M16
G05
G00X4.3209Y-3.9567
M15
G01X4.2933Y-3.9567
M16
G05
G00X4.4803Y-4.2421
M15
G01X4.4803Y-4.2146
M16
G05
T11
G00X7.9232Y-4.9896
M15
G01X7.9035Y-4.9896
M16
G05
G00X7.9232Y-5.4306
M15
G01X7.9035Y-5.4306
M16
G05
T0
M30
