G04 #@! TF.GenerationSoftware,KiCad,Pcbnew,5.1.4+dfsg1-1*
G04 #@! TF.CreationDate,2020-02-21T11:40:22+01:00*
G04 #@! TF.ProjectId,ledStripDriver,6c656453-7472-4697-9044-72697665722e,rev?*
G04 #@! TF.SameCoordinates,Original*
G04 #@! TF.FileFunction,Soldermask,Bot*
G04 #@! TF.FilePolarity,Negative*
%FSLAX46Y46*%
G04 Gerber Fmt 4.6, Leading zero omitted, Abs format (unit mm)*
G04 Created by KiCad (PCBNEW 5.1.4+dfsg1-1) date 2020-02-21 11:40:22*
%MOMM*%
%LPD*%
G04 APERTURE LIST*
%ADD10C,0.100000*%
G04 APERTURE END LIST*
D10*
G36*
X202551000Y-139237000D02*
G01*
X199449000Y-139237000D01*
X199449000Y-136635000D01*
X202551000Y-136635000D01*
X202551000Y-139237000D01*
X202551000Y-139237000D01*
G37*
G36*
X145402394Y-136830934D02*
G01*
X145553624Y-136893576D01*
X145553626Y-136893577D01*
X145689732Y-136984520D01*
X145805480Y-137100268D01*
X145896423Y-137236374D01*
X145896424Y-137236376D01*
X145959066Y-137387606D01*
X145991000Y-137548152D01*
X145991000Y-137711848D01*
X145959066Y-137872394D01*
X145896424Y-138023624D01*
X145896423Y-138023626D01*
X145805480Y-138159732D01*
X145689732Y-138275480D01*
X145553626Y-138366423D01*
X145553625Y-138366424D01*
X145553624Y-138366424D01*
X145402394Y-138429066D01*
X145241848Y-138461000D01*
X145078152Y-138461000D01*
X144917606Y-138429066D01*
X144766376Y-138366424D01*
X144766375Y-138366424D01*
X144766374Y-138366423D01*
X144630268Y-138275480D01*
X144514520Y-138159732D01*
X144423577Y-138023626D01*
X144423576Y-138023624D01*
X144360934Y-137872394D01*
X144329000Y-137711848D01*
X144329000Y-137548152D01*
X144360934Y-137387606D01*
X144423576Y-137236376D01*
X144423577Y-137236374D01*
X144514520Y-137100268D01*
X144630268Y-136984520D01*
X144766374Y-136893577D01*
X144766376Y-136893576D01*
X144917606Y-136830934D01*
X145078152Y-136799000D01*
X145241848Y-136799000D01*
X145402394Y-136830934D01*
X145402394Y-136830934D01*
G37*
G36*
X147942394Y-136830934D02*
G01*
X148093624Y-136893576D01*
X148093626Y-136893577D01*
X148229732Y-136984520D01*
X148345480Y-137100268D01*
X148436423Y-137236374D01*
X148436424Y-137236376D01*
X148499066Y-137387606D01*
X148531000Y-137548152D01*
X148531000Y-137711848D01*
X148499066Y-137872394D01*
X148436424Y-138023624D01*
X148436423Y-138023626D01*
X148345480Y-138159732D01*
X148229732Y-138275480D01*
X148093626Y-138366423D01*
X148093625Y-138366424D01*
X148093624Y-138366424D01*
X147942394Y-138429066D01*
X147781848Y-138461000D01*
X147618152Y-138461000D01*
X147457606Y-138429066D01*
X147306376Y-138366424D01*
X147306375Y-138366424D01*
X147306374Y-138366423D01*
X147170268Y-138275480D01*
X147054520Y-138159732D01*
X146963577Y-138023626D01*
X146963576Y-138023624D01*
X146900934Y-137872394D01*
X146869000Y-137711848D01*
X146869000Y-137548152D01*
X146900934Y-137387606D01*
X146963576Y-137236376D01*
X146963577Y-137236374D01*
X147054520Y-137100268D01*
X147170268Y-136984520D01*
X147306374Y-136893577D01*
X147306376Y-136893576D01*
X147457606Y-136830934D01*
X147618152Y-136799000D01*
X147781848Y-136799000D01*
X147942394Y-136830934D01*
X147942394Y-136830934D01*
G37*
G36*
X102222394Y-136830934D02*
G01*
X102373624Y-136893576D01*
X102373626Y-136893577D01*
X102509732Y-136984520D01*
X102625480Y-137100268D01*
X102716423Y-137236374D01*
X102716424Y-137236376D01*
X102779066Y-137387606D01*
X102811000Y-137548152D01*
X102811000Y-137711848D01*
X102779066Y-137872394D01*
X102716424Y-138023624D01*
X102716423Y-138023626D01*
X102625480Y-138159732D01*
X102509732Y-138275480D01*
X102373626Y-138366423D01*
X102373625Y-138366424D01*
X102373624Y-138366424D01*
X102222394Y-138429066D01*
X102061848Y-138461000D01*
X101898152Y-138461000D01*
X101737606Y-138429066D01*
X101586376Y-138366424D01*
X101586375Y-138366424D01*
X101586374Y-138366423D01*
X101450268Y-138275480D01*
X101334520Y-138159732D01*
X101243577Y-138023626D01*
X101243576Y-138023624D01*
X101180934Y-137872394D01*
X101149000Y-137711848D01*
X101149000Y-137548152D01*
X101180934Y-137387606D01*
X101243576Y-137236376D01*
X101243577Y-137236374D01*
X101334520Y-137100268D01*
X101450268Y-136984520D01*
X101586374Y-136893577D01*
X101586376Y-136893576D01*
X101737606Y-136830934D01*
X101898152Y-136799000D01*
X102061848Y-136799000D01*
X102222394Y-136830934D01*
X102222394Y-136830934D01*
G37*
G36*
X104762394Y-136830934D02*
G01*
X104913624Y-136893576D01*
X104913626Y-136893577D01*
X105049732Y-136984520D01*
X105165480Y-137100268D01*
X105256423Y-137236374D01*
X105256424Y-137236376D01*
X105319066Y-137387606D01*
X105351000Y-137548152D01*
X105351000Y-137711848D01*
X105319066Y-137872394D01*
X105256424Y-138023624D01*
X105256423Y-138023626D01*
X105165480Y-138159732D01*
X105049732Y-138275480D01*
X104913626Y-138366423D01*
X104913625Y-138366424D01*
X104913624Y-138366424D01*
X104762394Y-138429066D01*
X104601848Y-138461000D01*
X104438152Y-138461000D01*
X104277606Y-138429066D01*
X104126376Y-138366424D01*
X104126375Y-138366424D01*
X104126374Y-138366423D01*
X103990268Y-138275480D01*
X103874520Y-138159732D01*
X103783577Y-138023626D01*
X103783576Y-138023624D01*
X103720934Y-137872394D01*
X103689000Y-137711848D01*
X103689000Y-137548152D01*
X103720934Y-137387606D01*
X103783576Y-137236376D01*
X103783577Y-137236374D01*
X103874520Y-137100268D01*
X103990268Y-136984520D01*
X104126374Y-136893577D01*
X104126376Y-136893576D01*
X104277606Y-136830934D01*
X104438152Y-136799000D01*
X104601848Y-136799000D01*
X104762394Y-136830934D01*
X104762394Y-136830934D01*
G37*
G36*
X107302394Y-136830934D02*
G01*
X107453624Y-136893576D01*
X107453626Y-136893577D01*
X107589732Y-136984520D01*
X107705480Y-137100268D01*
X107796423Y-137236374D01*
X107796424Y-137236376D01*
X107859066Y-137387606D01*
X107891000Y-137548152D01*
X107891000Y-137711848D01*
X107859066Y-137872394D01*
X107796424Y-138023624D01*
X107796423Y-138023626D01*
X107705480Y-138159732D01*
X107589732Y-138275480D01*
X107453626Y-138366423D01*
X107453625Y-138366424D01*
X107453624Y-138366424D01*
X107302394Y-138429066D01*
X107141848Y-138461000D01*
X106978152Y-138461000D01*
X106817606Y-138429066D01*
X106666376Y-138366424D01*
X106666375Y-138366424D01*
X106666374Y-138366423D01*
X106530268Y-138275480D01*
X106414520Y-138159732D01*
X106323577Y-138023626D01*
X106323576Y-138023624D01*
X106260934Y-137872394D01*
X106229000Y-137711848D01*
X106229000Y-137548152D01*
X106260934Y-137387606D01*
X106323576Y-137236376D01*
X106323577Y-137236374D01*
X106414520Y-137100268D01*
X106530268Y-136984520D01*
X106666374Y-136893577D01*
X106666376Y-136893576D01*
X106817606Y-136830934D01*
X106978152Y-136799000D01*
X107141848Y-136799000D01*
X107302394Y-136830934D01*
X107302394Y-136830934D01*
G37*
G36*
X109842394Y-136830934D02*
G01*
X109993624Y-136893576D01*
X109993626Y-136893577D01*
X110129732Y-136984520D01*
X110245480Y-137100268D01*
X110336423Y-137236374D01*
X110336424Y-137236376D01*
X110399066Y-137387606D01*
X110431000Y-137548152D01*
X110431000Y-137711848D01*
X110399066Y-137872394D01*
X110336424Y-138023624D01*
X110336423Y-138023626D01*
X110245480Y-138159732D01*
X110129732Y-138275480D01*
X109993626Y-138366423D01*
X109993625Y-138366424D01*
X109993624Y-138366424D01*
X109842394Y-138429066D01*
X109681848Y-138461000D01*
X109518152Y-138461000D01*
X109357606Y-138429066D01*
X109206376Y-138366424D01*
X109206375Y-138366424D01*
X109206374Y-138366423D01*
X109070268Y-138275480D01*
X108954520Y-138159732D01*
X108863577Y-138023626D01*
X108863576Y-138023624D01*
X108800934Y-137872394D01*
X108769000Y-137711848D01*
X108769000Y-137548152D01*
X108800934Y-137387606D01*
X108863576Y-137236376D01*
X108863577Y-137236374D01*
X108954520Y-137100268D01*
X109070268Y-136984520D01*
X109206374Y-136893577D01*
X109206376Y-136893576D01*
X109357606Y-136830934D01*
X109518152Y-136799000D01*
X109681848Y-136799000D01*
X109842394Y-136830934D01*
X109842394Y-136830934D01*
G37*
G36*
X112382394Y-136830934D02*
G01*
X112533624Y-136893576D01*
X112533626Y-136893577D01*
X112669732Y-136984520D01*
X112785480Y-137100268D01*
X112876423Y-137236374D01*
X112876424Y-137236376D01*
X112939066Y-137387606D01*
X112971000Y-137548152D01*
X112971000Y-137711848D01*
X112939066Y-137872394D01*
X112876424Y-138023624D01*
X112876423Y-138023626D01*
X112785480Y-138159732D01*
X112669732Y-138275480D01*
X112533626Y-138366423D01*
X112533625Y-138366424D01*
X112533624Y-138366424D01*
X112382394Y-138429066D01*
X112221848Y-138461000D01*
X112058152Y-138461000D01*
X111897606Y-138429066D01*
X111746376Y-138366424D01*
X111746375Y-138366424D01*
X111746374Y-138366423D01*
X111610268Y-138275480D01*
X111494520Y-138159732D01*
X111403577Y-138023626D01*
X111403576Y-138023624D01*
X111340934Y-137872394D01*
X111309000Y-137711848D01*
X111309000Y-137548152D01*
X111340934Y-137387606D01*
X111403576Y-137236376D01*
X111403577Y-137236374D01*
X111494520Y-137100268D01*
X111610268Y-136984520D01*
X111746374Y-136893577D01*
X111746376Y-136893576D01*
X111897606Y-136830934D01*
X112058152Y-136799000D01*
X112221848Y-136799000D01*
X112382394Y-136830934D01*
X112382394Y-136830934D01*
G37*
G36*
X114922394Y-136830934D02*
G01*
X115073624Y-136893576D01*
X115073626Y-136893577D01*
X115209732Y-136984520D01*
X115325480Y-137100268D01*
X115416423Y-137236374D01*
X115416424Y-137236376D01*
X115479066Y-137387606D01*
X115511000Y-137548152D01*
X115511000Y-137711848D01*
X115479066Y-137872394D01*
X115416424Y-138023624D01*
X115416423Y-138023626D01*
X115325480Y-138159732D01*
X115209732Y-138275480D01*
X115073626Y-138366423D01*
X115073625Y-138366424D01*
X115073624Y-138366424D01*
X114922394Y-138429066D01*
X114761848Y-138461000D01*
X114598152Y-138461000D01*
X114437606Y-138429066D01*
X114286376Y-138366424D01*
X114286375Y-138366424D01*
X114286374Y-138366423D01*
X114150268Y-138275480D01*
X114034520Y-138159732D01*
X113943577Y-138023626D01*
X113943576Y-138023624D01*
X113880934Y-137872394D01*
X113849000Y-137711848D01*
X113849000Y-137548152D01*
X113880934Y-137387606D01*
X113943576Y-137236376D01*
X113943577Y-137236374D01*
X114034520Y-137100268D01*
X114150268Y-136984520D01*
X114286374Y-136893577D01*
X114286376Y-136893576D01*
X114437606Y-136830934D01*
X114598152Y-136799000D01*
X114761848Y-136799000D01*
X114922394Y-136830934D01*
X114922394Y-136830934D01*
G37*
G36*
X117462394Y-136830934D02*
G01*
X117613624Y-136893576D01*
X117613626Y-136893577D01*
X117749732Y-136984520D01*
X117865480Y-137100268D01*
X117956423Y-137236374D01*
X117956424Y-137236376D01*
X118019066Y-137387606D01*
X118051000Y-137548152D01*
X118051000Y-137711848D01*
X118019066Y-137872394D01*
X117956424Y-138023624D01*
X117956423Y-138023626D01*
X117865480Y-138159732D01*
X117749732Y-138275480D01*
X117613626Y-138366423D01*
X117613625Y-138366424D01*
X117613624Y-138366424D01*
X117462394Y-138429066D01*
X117301848Y-138461000D01*
X117138152Y-138461000D01*
X116977606Y-138429066D01*
X116826376Y-138366424D01*
X116826375Y-138366424D01*
X116826374Y-138366423D01*
X116690268Y-138275480D01*
X116574520Y-138159732D01*
X116483577Y-138023626D01*
X116483576Y-138023624D01*
X116420934Y-137872394D01*
X116389000Y-137711848D01*
X116389000Y-137548152D01*
X116420934Y-137387606D01*
X116483576Y-137236376D01*
X116483577Y-137236374D01*
X116574520Y-137100268D01*
X116690268Y-136984520D01*
X116826374Y-136893577D01*
X116826376Y-136893576D01*
X116977606Y-136830934D01*
X117138152Y-136799000D01*
X117301848Y-136799000D01*
X117462394Y-136830934D01*
X117462394Y-136830934D01*
G37*
G36*
X120002394Y-136830934D02*
G01*
X120153624Y-136893576D01*
X120153626Y-136893577D01*
X120289732Y-136984520D01*
X120405480Y-137100268D01*
X120496423Y-137236374D01*
X120496424Y-137236376D01*
X120559066Y-137387606D01*
X120591000Y-137548152D01*
X120591000Y-137711848D01*
X120559066Y-137872394D01*
X120496424Y-138023624D01*
X120496423Y-138023626D01*
X120405480Y-138159732D01*
X120289732Y-138275480D01*
X120153626Y-138366423D01*
X120153625Y-138366424D01*
X120153624Y-138366424D01*
X120002394Y-138429066D01*
X119841848Y-138461000D01*
X119678152Y-138461000D01*
X119517606Y-138429066D01*
X119366376Y-138366424D01*
X119366375Y-138366424D01*
X119366374Y-138366423D01*
X119230268Y-138275480D01*
X119114520Y-138159732D01*
X119023577Y-138023626D01*
X119023576Y-138023624D01*
X118960934Y-137872394D01*
X118929000Y-137711848D01*
X118929000Y-137548152D01*
X118960934Y-137387606D01*
X119023576Y-137236376D01*
X119023577Y-137236374D01*
X119114520Y-137100268D01*
X119230268Y-136984520D01*
X119366374Y-136893577D01*
X119366376Y-136893576D01*
X119517606Y-136830934D01*
X119678152Y-136799000D01*
X119841848Y-136799000D01*
X120002394Y-136830934D01*
X120002394Y-136830934D01*
G37*
G36*
X125082394Y-136830934D02*
G01*
X125233624Y-136893576D01*
X125233626Y-136893577D01*
X125369732Y-136984520D01*
X125485480Y-137100268D01*
X125576423Y-137236374D01*
X125576424Y-137236376D01*
X125639066Y-137387606D01*
X125671000Y-137548152D01*
X125671000Y-137711848D01*
X125639066Y-137872394D01*
X125576424Y-138023624D01*
X125576423Y-138023626D01*
X125485480Y-138159732D01*
X125369732Y-138275480D01*
X125233626Y-138366423D01*
X125233625Y-138366424D01*
X125233624Y-138366424D01*
X125082394Y-138429066D01*
X124921848Y-138461000D01*
X124758152Y-138461000D01*
X124597606Y-138429066D01*
X124446376Y-138366424D01*
X124446375Y-138366424D01*
X124446374Y-138366423D01*
X124310268Y-138275480D01*
X124194520Y-138159732D01*
X124103577Y-138023626D01*
X124103576Y-138023624D01*
X124040934Y-137872394D01*
X124009000Y-137711848D01*
X124009000Y-137548152D01*
X124040934Y-137387606D01*
X124103576Y-137236376D01*
X124103577Y-137236374D01*
X124194520Y-137100268D01*
X124310268Y-136984520D01*
X124446374Y-136893577D01*
X124446376Y-136893576D01*
X124597606Y-136830934D01*
X124758152Y-136799000D01*
X124921848Y-136799000D01*
X125082394Y-136830934D01*
X125082394Y-136830934D01*
G37*
G36*
X127622394Y-136830934D02*
G01*
X127773624Y-136893576D01*
X127773626Y-136893577D01*
X127909732Y-136984520D01*
X128025480Y-137100268D01*
X128116423Y-137236374D01*
X128116424Y-137236376D01*
X128179066Y-137387606D01*
X128211000Y-137548152D01*
X128211000Y-137711848D01*
X128179066Y-137872394D01*
X128116424Y-138023624D01*
X128116423Y-138023626D01*
X128025480Y-138159732D01*
X127909732Y-138275480D01*
X127773626Y-138366423D01*
X127773625Y-138366424D01*
X127773624Y-138366424D01*
X127622394Y-138429066D01*
X127461848Y-138461000D01*
X127298152Y-138461000D01*
X127137606Y-138429066D01*
X126986376Y-138366424D01*
X126986375Y-138366424D01*
X126986374Y-138366423D01*
X126850268Y-138275480D01*
X126734520Y-138159732D01*
X126643577Y-138023626D01*
X126643576Y-138023624D01*
X126580934Y-137872394D01*
X126549000Y-137711848D01*
X126549000Y-137548152D01*
X126580934Y-137387606D01*
X126643576Y-137236376D01*
X126643577Y-137236374D01*
X126734520Y-137100268D01*
X126850268Y-136984520D01*
X126986374Y-136893577D01*
X126986376Y-136893576D01*
X127137606Y-136830934D01*
X127298152Y-136799000D01*
X127461848Y-136799000D01*
X127622394Y-136830934D01*
X127622394Y-136830934D01*
G37*
G36*
X130162394Y-136830934D02*
G01*
X130313624Y-136893576D01*
X130313626Y-136893577D01*
X130449732Y-136984520D01*
X130565480Y-137100268D01*
X130656423Y-137236374D01*
X130656424Y-137236376D01*
X130719066Y-137387606D01*
X130751000Y-137548152D01*
X130751000Y-137711848D01*
X130719066Y-137872394D01*
X130656424Y-138023624D01*
X130656423Y-138023626D01*
X130565480Y-138159732D01*
X130449732Y-138275480D01*
X130313626Y-138366423D01*
X130313625Y-138366424D01*
X130313624Y-138366424D01*
X130162394Y-138429066D01*
X130001848Y-138461000D01*
X129838152Y-138461000D01*
X129677606Y-138429066D01*
X129526376Y-138366424D01*
X129526375Y-138366424D01*
X129526374Y-138366423D01*
X129390268Y-138275480D01*
X129274520Y-138159732D01*
X129183577Y-138023626D01*
X129183576Y-138023624D01*
X129120934Y-137872394D01*
X129089000Y-137711848D01*
X129089000Y-137548152D01*
X129120934Y-137387606D01*
X129183576Y-137236376D01*
X129183577Y-137236374D01*
X129274520Y-137100268D01*
X129390268Y-136984520D01*
X129526374Y-136893577D01*
X129526376Y-136893576D01*
X129677606Y-136830934D01*
X129838152Y-136799000D01*
X130001848Y-136799000D01*
X130162394Y-136830934D01*
X130162394Y-136830934D01*
G37*
G36*
X132702394Y-136830934D02*
G01*
X132853624Y-136893576D01*
X132853626Y-136893577D01*
X132989732Y-136984520D01*
X133105480Y-137100268D01*
X133196423Y-137236374D01*
X133196424Y-137236376D01*
X133259066Y-137387606D01*
X133291000Y-137548152D01*
X133291000Y-137711848D01*
X133259066Y-137872394D01*
X133196424Y-138023624D01*
X133196423Y-138023626D01*
X133105480Y-138159732D01*
X132989732Y-138275480D01*
X132853626Y-138366423D01*
X132853625Y-138366424D01*
X132853624Y-138366424D01*
X132702394Y-138429066D01*
X132541848Y-138461000D01*
X132378152Y-138461000D01*
X132217606Y-138429066D01*
X132066376Y-138366424D01*
X132066375Y-138366424D01*
X132066374Y-138366423D01*
X131930268Y-138275480D01*
X131814520Y-138159732D01*
X131723577Y-138023626D01*
X131723576Y-138023624D01*
X131660934Y-137872394D01*
X131629000Y-137711848D01*
X131629000Y-137548152D01*
X131660934Y-137387606D01*
X131723576Y-137236376D01*
X131723577Y-137236374D01*
X131814520Y-137100268D01*
X131930268Y-136984520D01*
X132066374Y-136893577D01*
X132066376Y-136893576D01*
X132217606Y-136830934D01*
X132378152Y-136799000D01*
X132541848Y-136799000D01*
X132702394Y-136830934D01*
X132702394Y-136830934D01*
G37*
G36*
X135242394Y-136830934D02*
G01*
X135393624Y-136893576D01*
X135393626Y-136893577D01*
X135529732Y-136984520D01*
X135645480Y-137100268D01*
X135736423Y-137236374D01*
X135736424Y-137236376D01*
X135799066Y-137387606D01*
X135831000Y-137548152D01*
X135831000Y-137711848D01*
X135799066Y-137872394D01*
X135736424Y-138023624D01*
X135736423Y-138023626D01*
X135645480Y-138159732D01*
X135529732Y-138275480D01*
X135393626Y-138366423D01*
X135393625Y-138366424D01*
X135393624Y-138366424D01*
X135242394Y-138429066D01*
X135081848Y-138461000D01*
X134918152Y-138461000D01*
X134757606Y-138429066D01*
X134606376Y-138366424D01*
X134606375Y-138366424D01*
X134606374Y-138366423D01*
X134470268Y-138275480D01*
X134354520Y-138159732D01*
X134263577Y-138023626D01*
X134263576Y-138023624D01*
X134200934Y-137872394D01*
X134169000Y-137711848D01*
X134169000Y-137548152D01*
X134200934Y-137387606D01*
X134263576Y-137236376D01*
X134263577Y-137236374D01*
X134354520Y-137100268D01*
X134470268Y-136984520D01*
X134606374Y-136893577D01*
X134606376Y-136893576D01*
X134757606Y-136830934D01*
X134918152Y-136799000D01*
X135081848Y-136799000D01*
X135242394Y-136830934D01*
X135242394Y-136830934D01*
G37*
G36*
X137782394Y-136830934D02*
G01*
X137933624Y-136893576D01*
X137933626Y-136893577D01*
X138069732Y-136984520D01*
X138185480Y-137100268D01*
X138276423Y-137236374D01*
X138276424Y-137236376D01*
X138339066Y-137387606D01*
X138371000Y-137548152D01*
X138371000Y-137711848D01*
X138339066Y-137872394D01*
X138276424Y-138023624D01*
X138276423Y-138023626D01*
X138185480Y-138159732D01*
X138069732Y-138275480D01*
X137933626Y-138366423D01*
X137933625Y-138366424D01*
X137933624Y-138366424D01*
X137782394Y-138429066D01*
X137621848Y-138461000D01*
X137458152Y-138461000D01*
X137297606Y-138429066D01*
X137146376Y-138366424D01*
X137146375Y-138366424D01*
X137146374Y-138366423D01*
X137010268Y-138275480D01*
X136894520Y-138159732D01*
X136803577Y-138023626D01*
X136803576Y-138023624D01*
X136740934Y-137872394D01*
X136709000Y-137711848D01*
X136709000Y-137548152D01*
X136740934Y-137387606D01*
X136803576Y-137236376D01*
X136803577Y-137236374D01*
X136894520Y-137100268D01*
X137010268Y-136984520D01*
X137146374Y-136893577D01*
X137146376Y-136893576D01*
X137297606Y-136830934D01*
X137458152Y-136799000D01*
X137621848Y-136799000D01*
X137782394Y-136830934D01*
X137782394Y-136830934D01*
G37*
G36*
X140322394Y-136830934D02*
G01*
X140473624Y-136893576D01*
X140473626Y-136893577D01*
X140609732Y-136984520D01*
X140725480Y-137100268D01*
X140816423Y-137236374D01*
X140816424Y-137236376D01*
X140879066Y-137387606D01*
X140911000Y-137548152D01*
X140911000Y-137711848D01*
X140879066Y-137872394D01*
X140816424Y-138023624D01*
X140816423Y-138023626D01*
X140725480Y-138159732D01*
X140609732Y-138275480D01*
X140473626Y-138366423D01*
X140473625Y-138366424D01*
X140473624Y-138366424D01*
X140322394Y-138429066D01*
X140161848Y-138461000D01*
X139998152Y-138461000D01*
X139837606Y-138429066D01*
X139686376Y-138366424D01*
X139686375Y-138366424D01*
X139686374Y-138366423D01*
X139550268Y-138275480D01*
X139434520Y-138159732D01*
X139343577Y-138023626D01*
X139343576Y-138023624D01*
X139280934Y-137872394D01*
X139249000Y-137711848D01*
X139249000Y-137548152D01*
X139280934Y-137387606D01*
X139343576Y-137236376D01*
X139343577Y-137236374D01*
X139434520Y-137100268D01*
X139550268Y-136984520D01*
X139686374Y-136893577D01*
X139686376Y-136893576D01*
X139837606Y-136830934D01*
X139998152Y-136799000D01*
X140161848Y-136799000D01*
X140322394Y-136830934D01*
X140322394Y-136830934D01*
G37*
G36*
X142862394Y-136830934D02*
G01*
X143013624Y-136893576D01*
X143013626Y-136893577D01*
X143149732Y-136984520D01*
X143265480Y-137100268D01*
X143356423Y-137236374D01*
X143356424Y-137236376D01*
X143419066Y-137387606D01*
X143451000Y-137548152D01*
X143451000Y-137711848D01*
X143419066Y-137872394D01*
X143356424Y-138023624D01*
X143356423Y-138023626D01*
X143265480Y-138159732D01*
X143149732Y-138275480D01*
X143013626Y-138366423D01*
X143013625Y-138366424D01*
X143013624Y-138366424D01*
X142862394Y-138429066D01*
X142701848Y-138461000D01*
X142538152Y-138461000D01*
X142377606Y-138429066D01*
X142226376Y-138366424D01*
X142226375Y-138366424D01*
X142226374Y-138366423D01*
X142090268Y-138275480D01*
X141974520Y-138159732D01*
X141883577Y-138023626D01*
X141883576Y-138023624D01*
X141820934Y-137872394D01*
X141789000Y-137711848D01*
X141789000Y-137548152D01*
X141820934Y-137387606D01*
X141883576Y-137236376D01*
X141883577Y-137236374D01*
X141974520Y-137100268D01*
X142090268Y-136984520D01*
X142226374Y-136893577D01*
X142226376Y-136893576D01*
X142377606Y-136830934D01*
X142538152Y-136799000D01*
X142701848Y-136799000D01*
X142862394Y-136830934D01*
X142862394Y-136830934D01*
G37*
G36*
X122542394Y-136830934D02*
G01*
X122693624Y-136893576D01*
X122693626Y-136893577D01*
X122829732Y-136984520D01*
X122945480Y-137100268D01*
X123036423Y-137236374D01*
X123036424Y-137236376D01*
X123099066Y-137387606D01*
X123131000Y-137548152D01*
X123131000Y-137711848D01*
X123099066Y-137872394D01*
X123036424Y-138023624D01*
X123036423Y-138023626D01*
X122945480Y-138159732D01*
X122829732Y-138275480D01*
X122693626Y-138366423D01*
X122693625Y-138366424D01*
X122693624Y-138366424D01*
X122542394Y-138429066D01*
X122381848Y-138461000D01*
X122218152Y-138461000D01*
X122057606Y-138429066D01*
X121906376Y-138366424D01*
X121906375Y-138366424D01*
X121906374Y-138366423D01*
X121770268Y-138275480D01*
X121654520Y-138159732D01*
X121563577Y-138023626D01*
X121563576Y-138023624D01*
X121500934Y-137872394D01*
X121469000Y-137711848D01*
X121469000Y-137548152D01*
X121500934Y-137387606D01*
X121563576Y-137236376D01*
X121563577Y-137236374D01*
X121654520Y-137100268D01*
X121770268Y-136984520D01*
X121906374Y-136893577D01*
X121906376Y-136893576D01*
X122057606Y-136830934D01*
X122218152Y-136799000D01*
X122381848Y-136799000D01*
X122542394Y-136830934D01*
X122542394Y-136830934D01*
G37*
G36*
X194306564Y-133825389D02*
G01*
X194497833Y-133904615D01*
X194497835Y-133904616D01*
X194669973Y-134019635D01*
X194816365Y-134166027D01*
X194931385Y-134338167D01*
X195010611Y-134529436D01*
X195051000Y-134732484D01*
X195051000Y-134939516D01*
X195010611Y-135142564D01*
X194931385Y-135333833D01*
X194931384Y-135333835D01*
X194816365Y-135505973D01*
X194669973Y-135652365D01*
X194497835Y-135767384D01*
X194497834Y-135767385D01*
X194497833Y-135767385D01*
X194306564Y-135846611D01*
X194103516Y-135887000D01*
X193896484Y-135887000D01*
X193693436Y-135846611D01*
X193502167Y-135767385D01*
X193502166Y-135767385D01*
X193502165Y-135767384D01*
X193330027Y-135652365D01*
X193183635Y-135505973D01*
X193068616Y-135333835D01*
X193068615Y-135333833D01*
X192989389Y-135142564D01*
X192949000Y-134939516D01*
X192949000Y-134732484D01*
X192989389Y-134529436D01*
X193068615Y-134338167D01*
X193183635Y-134166027D01*
X193330027Y-134019635D01*
X193502165Y-133904616D01*
X193502167Y-133904615D01*
X193693436Y-133825389D01*
X193896484Y-133785000D01*
X194103516Y-133785000D01*
X194306564Y-133825389D01*
X194306564Y-133825389D01*
G37*
G36*
X184230564Y-133825389D02*
G01*
X184421833Y-133904615D01*
X184421835Y-133904616D01*
X184593973Y-134019635D01*
X184740365Y-134166027D01*
X184855385Y-134338167D01*
X184934611Y-134529436D01*
X184975000Y-134732484D01*
X184975000Y-134939516D01*
X184934611Y-135142564D01*
X184855385Y-135333833D01*
X184855384Y-135333835D01*
X184740365Y-135505973D01*
X184593973Y-135652365D01*
X184421835Y-135767384D01*
X184421834Y-135767385D01*
X184421833Y-135767385D01*
X184230564Y-135846611D01*
X184027516Y-135887000D01*
X183820484Y-135887000D01*
X183617436Y-135846611D01*
X183426167Y-135767385D01*
X183426166Y-135767385D01*
X183426165Y-135767384D01*
X183254027Y-135652365D01*
X183107635Y-135505973D01*
X182992616Y-135333835D01*
X182992615Y-135333833D01*
X182913389Y-135142564D01*
X182873000Y-134939516D01*
X182873000Y-134732484D01*
X182913389Y-134529436D01*
X182992615Y-134338167D01*
X183107635Y-134166027D01*
X183254027Y-134019635D01*
X183426165Y-133904616D01*
X183426167Y-133904615D01*
X183617436Y-133825389D01*
X183820484Y-133785000D01*
X184027516Y-133785000D01*
X184230564Y-133825389D01*
X184230564Y-133825389D01*
G37*
G36*
X209551000Y-135887000D02*
G01*
X207449000Y-135887000D01*
X207449000Y-133785000D01*
X209551000Y-133785000D01*
X209551000Y-135887000D01*
X209551000Y-135887000D01*
G37*
G36*
X190730564Y-133825389D02*
G01*
X190921833Y-133904615D01*
X190921835Y-133904616D01*
X191093973Y-134019635D01*
X191240365Y-134166027D01*
X191355385Y-134338167D01*
X191434611Y-134529436D01*
X191475000Y-134732484D01*
X191475000Y-134939516D01*
X191434611Y-135142564D01*
X191355385Y-135333833D01*
X191355384Y-135333835D01*
X191240365Y-135505973D01*
X191093973Y-135652365D01*
X190921835Y-135767384D01*
X190921834Y-135767385D01*
X190921833Y-135767385D01*
X190730564Y-135846611D01*
X190527516Y-135887000D01*
X190320484Y-135887000D01*
X190117436Y-135846611D01*
X189926167Y-135767385D01*
X189926166Y-135767385D01*
X189926165Y-135767384D01*
X189754027Y-135652365D01*
X189607635Y-135505973D01*
X189492616Y-135333835D01*
X189492615Y-135333833D01*
X189413389Y-135142564D01*
X189373000Y-134939516D01*
X189373000Y-134732484D01*
X189413389Y-134529436D01*
X189492615Y-134338167D01*
X189607635Y-134166027D01*
X189754027Y-134019635D01*
X189926165Y-133904616D01*
X189926167Y-133904615D01*
X190117436Y-133825389D01*
X190320484Y-133785000D01*
X190527516Y-133785000D01*
X190730564Y-133825389D01*
X190730564Y-133825389D01*
G37*
G36*
X208806564Y-131325389D02*
G01*
X208997833Y-131404615D01*
X208997835Y-131404616D01*
X209169973Y-131519635D01*
X209316365Y-131666027D01*
X209431385Y-131838167D01*
X209510611Y-132029436D01*
X209551000Y-132232484D01*
X209551000Y-132439516D01*
X209510611Y-132642564D01*
X209431385Y-132833833D01*
X209431384Y-132833835D01*
X209316365Y-133005973D01*
X209169973Y-133152365D01*
X208997835Y-133267384D01*
X208997834Y-133267385D01*
X208997833Y-133267385D01*
X208806564Y-133346611D01*
X208603516Y-133387000D01*
X208396484Y-133387000D01*
X208193436Y-133346611D01*
X208002167Y-133267385D01*
X208002166Y-133267385D01*
X208002165Y-133267384D01*
X207830027Y-133152365D01*
X207683635Y-133005973D01*
X207568616Y-132833835D01*
X207568615Y-132833833D01*
X207489389Y-132642564D01*
X207449000Y-132439516D01*
X207449000Y-132232484D01*
X207489389Y-132029436D01*
X207568615Y-131838167D01*
X207683635Y-131666027D01*
X207830027Y-131519635D01*
X208002165Y-131404616D01*
X208002167Y-131404615D01*
X208193436Y-131325389D01*
X208396484Y-131285000D01*
X208603516Y-131285000D01*
X208806564Y-131325389D01*
X208806564Y-131325389D01*
G37*
G36*
X190730564Y-129325389D02*
G01*
X190921833Y-129404615D01*
X190921835Y-129404616D01*
X191093973Y-129519635D01*
X191240365Y-129666027D01*
X191284772Y-129732486D01*
X191355385Y-129838167D01*
X191434611Y-130029436D01*
X191475000Y-130232484D01*
X191475000Y-130439516D01*
X191434611Y-130642564D01*
X191355385Y-130833833D01*
X191355384Y-130833835D01*
X191240365Y-131005973D01*
X191093973Y-131152365D01*
X190921835Y-131267384D01*
X190921834Y-131267385D01*
X190921833Y-131267385D01*
X190730564Y-131346611D01*
X190527516Y-131387000D01*
X190320484Y-131387000D01*
X190117436Y-131346611D01*
X189926167Y-131267385D01*
X189926166Y-131267385D01*
X189926165Y-131267384D01*
X189754027Y-131152365D01*
X189607635Y-131005973D01*
X189492616Y-130833835D01*
X189492615Y-130833833D01*
X189413389Y-130642564D01*
X189373000Y-130439516D01*
X189373000Y-130232484D01*
X189413389Y-130029436D01*
X189492615Y-129838167D01*
X189563229Y-129732486D01*
X189607635Y-129666027D01*
X189754027Y-129519635D01*
X189926165Y-129404616D01*
X189926167Y-129404615D01*
X190117436Y-129325389D01*
X190320484Y-129285000D01*
X190527516Y-129285000D01*
X190730564Y-129325389D01*
X190730564Y-129325389D01*
G37*
G36*
X184230564Y-129325389D02*
G01*
X184421833Y-129404615D01*
X184421835Y-129404616D01*
X184593973Y-129519635D01*
X184740365Y-129666027D01*
X184784772Y-129732486D01*
X184855385Y-129838167D01*
X184934611Y-130029436D01*
X184975000Y-130232484D01*
X184975000Y-130439516D01*
X184934611Y-130642564D01*
X184855385Y-130833833D01*
X184855384Y-130833835D01*
X184740365Y-131005973D01*
X184593973Y-131152365D01*
X184421835Y-131267384D01*
X184421834Y-131267385D01*
X184421833Y-131267385D01*
X184230564Y-131346611D01*
X184027516Y-131387000D01*
X183820484Y-131387000D01*
X183617436Y-131346611D01*
X183426167Y-131267385D01*
X183426166Y-131267385D01*
X183426165Y-131267384D01*
X183254027Y-131152365D01*
X183107635Y-131005973D01*
X182992616Y-130833835D01*
X182992615Y-130833833D01*
X182913389Y-130642564D01*
X182873000Y-130439516D01*
X182873000Y-130232484D01*
X182913389Y-130029436D01*
X182992615Y-129838167D01*
X183063229Y-129732486D01*
X183107635Y-129666027D01*
X183254027Y-129519635D01*
X183426165Y-129404616D01*
X183426167Y-129404615D01*
X183617436Y-129325389D01*
X183820484Y-129285000D01*
X184027516Y-129285000D01*
X184230564Y-129325389D01*
X184230564Y-129325389D01*
G37*
G36*
X208806564Y-128825389D02*
G01*
X208997833Y-128904615D01*
X208997835Y-128904616D01*
X209169973Y-129019635D01*
X209316365Y-129166027D01*
X209431385Y-129338167D01*
X209510611Y-129529436D01*
X209551000Y-129732484D01*
X209551000Y-129939516D01*
X209510611Y-130142564D01*
X209473365Y-130232484D01*
X209431384Y-130333835D01*
X209316365Y-130505973D01*
X209169973Y-130652365D01*
X208997835Y-130767384D01*
X208997834Y-130767385D01*
X208997833Y-130767385D01*
X208806564Y-130846611D01*
X208603516Y-130887000D01*
X208396484Y-130887000D01*
X208193436Y-130846611D01*
X208002167Y-130767385D01*
X208002166Y-130767385D01*
X208002165Y-130767384D01*
X207830027Y-130652365D01*
X207683635Y-130505973D01*
X207568616Y-130333835D01*
X207526635Y-130232484D01*
X207489389Y-130142564D01*
X207449000Y-129939516D01*
X207449000Y-129732484D01*
X207489389Y-129529436D01*
X207568615Y-129338167D01*
X207683635Y-129166027D01*
X207830027Y-129019635D01*
X208002165Y-128904616D01*
X208002167Y-128904615D01*
X208193436Y-128825389D01*
X208396484Y-128785000D01*
X208603516Y-128785000D01*
X208806564Y-128825389D01*
X208806564Y-128825389D01*
G37*
G36*
X194306564Y-128825389D02*
G01*
X194497833Y-128904615D01*
X194497835Y-128904616D01*
X194669973Y-129019635D01*
X194816365Y-129166027D01*
X194931385Y-129338167D01*
X195010611Y-129529436D01*
X195051000Y-129732484D01*
X195051000Y-129939516D01*
X195010611Y-130142564D01*
X194973365Y-130232484D01*
X194931384Y-130333835D01*
X194816365Y-130505973D01*
X194669973Y-130652365D01*
X194497835Y-130767384D01*
X194497834Y-130767385D01*
X194497833Y-130767385D01*
X194306564Y-130846611D01*
X194103516Y-130887000D01*
X193896484Y-130887000D01*
X193693436Y-130846611D01*
X193502167Y-130767385D01*
X193502166Y-130767385D01*
X193502165Y-130767384D01*
X193330027Y-130652365D01*
X193183635Y-130505973D01*
X193068616Y-130333835D01*
X193026635Y-130232484D01*
X192989389Y-130142564D01*
X192949000Y-129939516D01*
X192949000Y-129732484D01*
X192989389Y-129529436D01*
X193068615Y-129338167D01*
X193183635Y-129166027D01*
X193330027Y-129019635D01*
X193502165Y-128904616D01*
X193502167Y-128904615D01*
X193693436Y-128825389D01*
X193896484Y-128785000D01*
X194103516Y-128785000D01*
X194306564Y-128825389D01*
X194306564Y-128825389D01*
G37*
G36*
X202551000Y-128037000D02*
G01*
X199449000Y-128037000D01*
X199449000Y-125435000D01*
X202551000Y-125435000D01*
X202551000Y-128037000D01*
X202551000Y-128037000D01*
G37*
G36*
X109842394Y-111430934D02*
G01*
X109993624Y-111493576D01*
X109993626Y-111493577D01*
X110129732Y-111584520D01*
X110245480Y-111700268D01*
X110336423Y-111836374D01*
X110336424Y-111836376D01*
X110399066Y-111987606D01*
X110431000Y-112148152D01*
X110431000Y-112311848D01*
X110399066Y-112472394D01*
X110336424Y-112623624D01*
X110336423Y-112623626D01*
X110245480Y-112759732D01*
X110129732Y-112875480D01*
X109993626Y-112966423D01*
X109993625Y-112966424D01*
X109993624Y-112966424D01*
X109842394Y-113029066D01*
X109681848Y-113061000D01*
X109518152Y-113061000D01*
X109357606Y-113029066D01*
X109206376Y-112966424D01*
X109206375Y-112966424D01*
X109206374Y-112966423D01*
X109070268Y-112875480D01*
X108954520Y-112759732D01*
X108863577Y-112623626D01*
X108863576Y-112623624D01*
X108800934Y-112472394D01*
X108769000Y-112311848D01*
X108769000Y-112148152D01*
X108800934Y-111987606D01*
X108863576Y-111836376D01*
X108863577Y-111836374D01*
X108954520Y-111700268D01*
X109070268Y-111584520D01*
X109206374Y-111493577D01*
X109206376Y-111493576D01*
X109357606Y-111430934D01*
X109518152Y-111399000D01*
X109681848Y-111399000D01*
X109842394Y-111430934D01*
X109842394Y-111430934D01*
G37*
G36*
X107302394Y-111430934D02*
G01*
X107453624Y-111493576D01*
X107453626Y-111493577D01*
X107589732Y-111584520D01*
X107705480Y-111700268D01*
X107796423Y-111836374D01*
X107796424Y-111836376D01*
X107859066Y-111987606D01*
X107891000Y-112148152D01*
X107891000Y-112311848D01*
X107859066Y-112472394D01*
X107796424Y-112623624D01*
X107796423Y-112623626D01*
X107705480Y-112759732D01*
X107589732Y-112875480D01*
X107453626Y-112966423D01*
X107453625Y-112966424D01*
X107453624Y-112966424D01*
X107302394Y-113029066D01*
X107141848Y-113061000D01*
X106978152Y-113061000D01*
X106817606Y-113029066D01*
X106666376Y-112966424D01*
X106666375Y-112966424D01*
X106666374Y-112966423D01*
X106530268Y-112875480D01*
X106414520Y-112759732D01*
X106323577Y-112623626D01*
X106323576Y-112623624D01*
X106260934Y-112472394D01*
X106229000Y-112311848D01*
X106229000Y-112148152D01*
X106260934Y-111987606D01*
X106323576Y-111836376D01*
X106323577Y-111836374D01*
X106414520Y-111700268D01*
X106530268Y-111584520D01*
X106666374Y-111493577D01*
X106666376Y-111493576D01*
X106817606Y-111430934D01*
X106978152Y-111399000D01*
X107141848Y-111399000D01*
X107302394Y-111430934D01*
X107302394Y-111430934D01*
G37*
G36*
X102222394Y-111430934D02*
G01*
X102373624Y-111493576D01*
X102373626Y-111493577D01*
X102509732Y-111584520D01*
X102625480Y-111700268D01*
X102716423Y-111836374D01*
X102716424Y-111836376D01*
X102779066Y-111987606D01*
X102811000Y-112148152D01*
X102811000Y-112311848D01*
X102779066Y-112472394D01*
X102716424Y-112623624D01*
X102716423Y-112623626D01*
X102625480Y-112759732D01*
X102509732Y-112875480D01*
X102373626Y-112966423D01*
X102373625Y-112966424D01*
X102373624Y-112966424D01*
X102222394Y-113029066D01*
X102061848Y-113061000D01*
X101898152Y-113061000D01*
X101737606Y-113029066D01*
X101586376Y-112966424D01*
X101586375Y-112966424D01*
X101586374Y-112966423D01*
X101450268Y-112875480D01*
X101334520Y-112759732D01*
X101243577Y-112623626D01*
X101243576Y-112623624D01*
X101180934Y-112472394D01*
X101149000Y-112311848D01*
X101149000Y-112148152D01*
X101180934Y-111987606D01*
X101243576Y-111836376D01*
X101243577Y-111836374D01*
X101334520Y-111700268D01*
X101450268Y-111584520D01*
X101586374Y-111493577D01*
X101586376Y-111493576D01*
X101737606Y-111430934D01*
X101898152Y-111399000D01*
X102061848Y-111399000D01*
X102222394Y-111430934D01*
X102222394Y-111430934D01*
G37*
G36*
X104762394Y-111430934D02*
G01*
X104913624Y-111493576D01*
X104913626Y-111493577D01*
X105049732Y-111584520D01*
X105165480Y-111700268D01*
X105256423Y-111836374D01*
X105256424Y-111836376D01*
X105319066Y-111987606D01*
X105351000Y-112148152D01*
X105351000Y-112311848D01*
X105319066Y-112472394D01*
X105256424Y-112623624D01*
X105256423Y-112623626D01*
X105165480Y-112759732D01*
X105049732Y-112875480D01*
X104913626Y-112966423D01*
X104913625Y-112966424D01*
X104913624Y-112966424D01*
X104762394Y-113029066D01*
X104601848Y-113061000D01*
X104438152Y-113061000D01*
X104277606Y-113029066D01*
X104126376Y-112966424D01*
X104126375Y-112966424D01*
X104126374Y-112966423D01*
X103990268Y-112875480D01*
X103874520Y-112759732D01*
X103783577Y-112623626D01*
X103783576Y-112623624D01*
X103720934Y-112472394D01*
X103689000Y-112311848D01*
X103689000Y-112148152D01*
X103720934Y-111987606D01*
X103783576Y-111836376D01*
X103783577Y-111836374D01*
X103874520Y-111700268D01*
X103990268Y-111584520D01*
X104126374Y-111493577D01*
X104126376Y-111493576D01*
X104277606Y-111430934D01*
X104438152Y-111399000D01*
X104601848Y-111399000D01*
X104762394Y-111430934D01*
X104762394Y-111430934D01*
G37*
G36*
X125082394Y-111430934D02*
G01*
X125233624Y-111493576D01*
X125233626Y-111493577D01*
X125369732Y-111584520D01*
X125485480Y-111700268D01*
X125576423Y-111836374D01*
X125576424Y-111836376D01*
X125639066Y-111987606D01*
X125671000Y-112148152D01*
X125671000Y-112311848D01*
X125639066Y-112472394D01*
X125576424Y-112623624D01*
X125576423Y-112623626D01*
X125485480Y-112759732D01*
X125369732Y-112875480D01*
X125233626Y-112966423D01*
X125233625Y-112966424D01*
X125233624Y-112966424D01*
X125082394Y-113029066D01*
X124921848Y-113061000D01*
X124758152Y-113061000D01*
X124597606Y-113029066D01*
X124446376Y-112966424D01*
X124446375Y-112966424D01*
X124446374Y-112966423D01*
X124310268Y-112875480D01*
X124194520Y-112759732D01*
X124103577Y-112623626D01*
X124103576Y-112623624D01*
X124040934Y-112472394D01*
X124009000Y-112311848D01*
X124009000Y-112148152D01*
X124040934Y-111987606D01*
X124103576Y-111836376D01*
X124103577Y-111836374D01*
X124194520Y-111700268D01*
X124310268Y-111584520D01*
X124446374Y-111493577D01*
X124446376Y-111493576D01*
X124597606Y-111430934D01*
X124758152Y-111399000D01*
X124921848Y-111399000D01*
X125082394Y-111430934D01*
X125082394Y-111430934D01*
G37*
G36*
X122542394Y-111430934D02*
G01*
X122693624Y-111493576D01*
X122693626Y-111493577D01*
X122829732Y-111584520D01*
X122945480Y-111700268D01*
X123036423Y-111836374D01*
X123036424Y-111836376D01*
X123099066Y-111987606D01*
X123131000Y-112148152D01*
X123131000Y-112311848D01*
X123099066Y-112472394D01*
X123036424Y-112623624D01*
X123036423Y-112623626D01*
X122945480Y-112759732D01*
X122829732Y-112875480D01*
X122693626Y-112966423D01*
X122693625Y-112966424D01*
X122693624Y-112966424D01*
X122542394Y-113029066D01*
X122381848Y-113061000D01*
X122218152Y-113061000D01*
X122057606Y-113029066D01*
X121906376Y-112966424D01*
X121906375Y-112966424D01*
X121906374Y-112966423D01*
X121770268Y-112875480D01*
X121654520Y-112759732D01*
X121563577Y-112623626D01*
X121563576Y-112623624D01*
X121500934Y-112472394D01*
X121469000Y-112311848D01*
X121469000Y-112148152D01*
X121500934Y-111987606D01*
X121563576Y-111836376D01*
X121563577Y-111836374D01*
X121654520Y-111700268D01*
X121770268Y-111584520D01*
X121906374Y-111493577D01*
X121906376Y-111493576D01*
X122057606Y-111430934D01*
X122218152Y-111399000D01*
X122381848Y-111399000D01*
X122542394Y-111430934D01*
X122542394Y-111430934D01*
G37*
G36*
X120002394Y-111430934D02*
G01*
X120153624Y-111493576D01*
X120153626Y-111493577D01*
X120289732Y-111584520D01*
X120405480Y-111700268D01*
X120496423Y-111836374D01*
X120496424Y-111836376D01*
X120559066Y-111987606D01*
X120591000Y-112148152D01*
X120591000Y-112311848D01*
X120559066Y-112472394D01*
X120496424Y-112623624D01*
X120496423Y-112623626D01*
X120405480Y-112759732D01*
X120289732Y-112875480D01*
X120153626Y-112966423D01*
X120153625Y-112966424D01*
X120153624Y-112966424D01*
X120002394Y-113029066D01*
X119841848Y-113061000D01*
X119678152Y-113061000D01*
X119517606Y-113029066D01*
X119366376Y-112966424D01*
X119366375Y-112966424D01*
X119366374Y-112966423D01*
X119230268Y-112875480D01*
X119114520Y-112759732D01*
X119023577Y-112623626D01*
X119023576Y-112623624D01*
X118960934Y-112472394D01*
X118929000Y-112311848D01*
X118929000Y-112148152D01*
X118960934Y-111987606D01*
X119023576Y-111836376D01*
X119023577Y-111836374D01*
X119114520Y-111700268D01*
X119230268Y-111584520D01*
X119366374Y-111493577D01*
X119366376Y-111493576D01*
X119517606Y-111430934D01*
X119678152Y-111399000D01*
X119841848Y-111399000D01*
X120002394Y-111430934D01*
X120002394Y-111430934D01*
G37*
G36*
X117462394Y-111430934D02*
G01*
X117613624Y-111493576D01*
X117613626Y-111493577D01*
X117749732Y-111584520D01*
X117865480Y-111700268D01*
X117956423Y-111836374D01*
X117956424Y-111836376D01*
X118019066Y-111987606D01*
X118051000Y-112148152D01*
X118051000Y-112311848D01*
X118019066Y-112472394D01*
X117956424Y-112623624D01*
X117956423Y-112623626D01*
X117865480Y-112759732D01*
X117749732Y-112875480D01*
X117613626Y-112966423D01*
X117613625Y-112966424D01*
X117613624Y-112966424D01*
X117462394Y-113029066D01*
X117301848Y-113061000D01*
X117138152Y-113061000D01*
X116977606Y-113029066D01*
X116826376Y-112966424D01*
X116826375Y-112966424D01*
X116826374Y-112966423D01*
X116690268Y-112875480D01*
X116574520Y-112759732D01*
X116483577Y-112623626D01*
X116483576Y-112623624D01*
X116420934Y-112472394D01*
X116389000Y-112311848D01*
X116389000Y-112148152D01*
X116420934Y-111987606D01*
X116483576Y-111836376D01*
X116483577Y-111836374D01*
X116574520Y-111700268D01*
X116690268Y-111584520D01*
X116826374Y-111493577D01*
X116826376Y-111493576D01*
X116977606Y-111430934D01*
X117138152Y-111399000D01*
X117301848Y-111399000D01*
X117462394Y-111430934D01*
X117462394Y-111430934D01*
G37*
G36*
X114922394Y-111430934D02*
G01*
X115073624Y-111493576D01*
X115073626Y-111493577D01*
X115209732Y-111584520D01*
X115325480Y-111700268D01*
X115416423Y-111836374D01*
X115416424Y-111836376D01*
X115479066Y-111987606D01*
X115511000Y-112148152D01*
X115511000Y-112311848D01*
X115479066Y-112472394D01*
X115416424Y-112623624D01*
X115416423Y-112623626D01*
X115325480Y-112759732D01*
X115209732Y-112875480D01*
X115073626Y-112966423D01*
X115073625Y-112966424D01*
X115073624Y-112966424D01*
X114922394Y-113029066D01*
X114761848Y-113061000D01*
X114598152Y-113061000D01*
X114437606Y-113029066D01*
X114286376Y-112966424D01*
X114286375Y-112966424D01*
X114286374Y-112966423D01*
X114150268Y-112875480D01*
X114034520Y-112759732D01*
X113943577Y-112623626D01*
X113943576Y-112623624D01*
X113880934Y-112472394D01*
X113849000Y-112311848D01*
X113849000Y-112148152D01*
X113880934Y-111987606D01*
X113943576Y-111836376D01*
X113943577Y-111836374D01*
X114034520Y-111700268D01*
X114150268Y-111584520D01*
X114286374Y-111493577D01*
X114286376Y-111493576D01*
X114437606Y-111430934D01*
X114598152Y-111399000D01*
X114761848Y-111399000D01*
X114922394Y-111430934D01*
X114922394Y-111430934D01*
G37*
G36*
X127622394Y-111430934D02*
G01*
X127773624Y-111493576D01*
X127773626Y-111493577D01*
X127909732Y-111584520D01*
X128025480Y-111700268D01*
X128116423Y-111836374D01*
X128116424Y-111836376D01*
X128179066Y-111987606D01*
X128211000Y-112148152D01*
X128211000Y-112311848D01*
X128179066Y-112472394D01*
X128116424Y-112623624D01*
X128116423Y-112623626D01*
X128025480Y-112759732D01*
X127909732Y-112875480D01*
X127773626Y-112966423D01*
X127773625Y-112966424D01*
X127773624Y-112966424D01*
X127622394Y-113029066D01*
X127461848Y-113061000D01*
X127298152Y-113061000D01*
X127137606Y-113029066D01*
X126986376Y-112966424D01*
X126986375Y-112966424D01*
X126986374Y-112966423D01*
X126850268Y-112875480D01*
X126734520Y-112759732D01*
X126643577Y-112623626D01*
X126643576Y-112623624D01*
X126580934Y-112472394D01*
X126549000Y-112311848D01*
X126549000Y-112148152D01*
X126580934Y-111987606D01*
X126643576Y-111836376D01*
X126643577Y-111836374D01*
X126734520Y-111700268D01*
X126850268Y-111584520D01*
X126986374Y-111493577D01*
X126986376Y-111493576D01*
X127137606Y-111430934D01*
X127298152Y-111399000D01*
X127461848Y-111399000D01*
X127622394Y-111430934D01*
X127622394Y-111430934D01*
G37*
G36*
X112382394Y-111430934D02*
G01*
X112533624Y-111493576D01*
X112533626Y-111493577D01*
X112669732Y-111584520D01*
X112785480Y-111700268D01*
X112876423Y-111836374D01*
X112876424Y-111836376D01*
X112939066Y-111987606D01*
X112971000Y-112148152D01*
X112971000Y-112311848D01*
X112939066Y-112472394D01*
X112876424Y-112623624D01*
X112876423Y-112623626D01*
X112785480Y-112759732D01*
X112669732Y-112875480D01*
X112533626Y-112966423D01*
X112533625Y-112966424D01*
X112533624Y-112966424D01*
X112382394Y-113029066D01*
X112221848Y-113061000D01*
X112058152Y-113061000D01*
X111897606Y-113029066D01*
X111746376Y-112966424D01*
X111746375Y-112966424D01*
X111746374Y-112966423D01*
X111610268Y-112875480D01*
X111494520Y-112759732D01*
X111403577Y-112623626D01*
X111403576Y-112623624D01*
X111340934Y-112472394D01*
X111309000Y-112311848D01*
X111309000Y-112148152D01*
X111340934Y-111987606D01*
X111403576Y-111836376D01*
X111403577Y-111836374D01*
X111494520Y-111700268D01*
X111610268Y-111584520D01*
X111746374Y-111493577D01*
X111746376Y-111493576D01*
X111897606Y-111430934D01*
X112058152Y-111399000D01*
X112221848Y-111399000D01*
X112382394Y-111430934D01*
X112382394Y-111430934D01*
G37*
G36*
X137782394Y-111430934D02*
G01*
X137933624Y-111493576D01*
X137933626Y-111493577D01*
X138069732Y-111584520D01*
X138185480Y-111700268D01*
X138276423Y-111836374D01*
X138276424Y-111836376D01*
X138339066Y-111987606D01*
X138371000Y-112148152D01*
X138371000Y-112311848D01*
X138339066Y-112472394D01*
X138276424Y-112623624D01*
X138276423Y-112623626D01*
X138185480Y-112759732D01*
X138069732Y-112875480D01*
X137933626Y-112966423D01*
X137933625Y-112966424D01*
X137933624Y-112966424D01*
X137782394Y-113029066D01*
X137621848Y-113061000D01*
X137458152Y-113061000D01*
X137297606Y-113029066D01*
X137146376Y-112966424D01*
X137146375Y-112966424D01*
X137146374Y-112966423D01*
X137010268Y-112875480D01*
X136894520Y-112759732D01*
X136803577Y-112623626D01*
X136803576Y-112623624D01*
X136740934Y-112472394D01*
X136709000Y-112311848D01*
X136709000Y-112148152D01*
X136740934Y-111987606D01*
X136803576Y-111836376D01*
X136803577Y-111836374D01*
X136894520Y-111700268D01*
X137010268Y-111584520D01*
X137146374Y-111493577D01*
X137146376Y-111493576D01*
X137297606Y-111430934D01*
X137458152Y-111399000D01*
X137621848Y-111399000D01*
X137782394Y-111430934D01*
X137782394Y-111430934D01*
G37*
G36*
X140322394Y-111430934D02*
G01*
X140473624Y-111493576D01*
X140473626Y-111493577D01*
X140609732Y-111584520D01*
X140725480Y-111700268D01*
X140816423Y-111836374D01*
X140816424Y-111836376D01*
X140879066Y-111987606D01*
X140911000Y-112148152D01*
X140911000Y-112311848D01*
X140879066Y-112472394D01*
X140816424Y-112623624D01*
X140816423Y-112623626D01*
X140725480Y-112759732D01*
X140609732Y-112875480D01*
X140473626Y-112966423D01*
X140473625Y-112966424D01*
X140473624Y-112966424D01*
X140322394Y-113029066D01*
X140161848Y-113061000D01*
X139998152Y-113061000D01*
X139837606Y-113029066D01*
X139686376Y-112966424D01*
X139686375Y-112966424D01*
X139686374Y-112966423D01*
X139550268Y-112875480D01*
X139434520Y-112759732D01*
X139343577Y-112623626D01*
X139343576Y-112623624D01*
X139280934Y-112472394D01*
X139249000Y-112311848D01*
X139249000Y-112148152D01*
X139280934Y-111987606D01*
X139343576Y-111836376D01*
X139343577Y-111836374D01*
X139434520Y-111700268D01*
X139550268Y-111584520D01*
X139686374Y-111493577D01*
X139686376Y-111493576D01*
X139837606Y-111430934D01*
X139998152Y-111399000D01*
X140161848Y-111399000D01*
X140322394Y-111430934D01*
X140322394Y-111430934D01*
G37*
G36*
X142862394Y-111430934D02*
G01*
X143013624Y-111493576D01*
X143013626Y-111493577D01*
X143149732Y-111584520D01*
X143265480Y-111700268D01*
X143356423Y-111836374D01*
X143356424Y-111836376D01*
X143419066Y-111987606D01*
X143451000Y-112148152D01*
X143451000Y-112311848D01*
X143419066Y-112472394D01*
X143356424Y-112623624D01*
X143356423Y-112623626D01*
X143265480Y-112759732D01*
X143149732Y-112875480D01*
X143013626Y-112966423D01*
X143013625Y-112966424D01*
X143013624Y-112966424D01*
X142862394Y-113029066D01*
X142701848Y-113061000D01*
X142538152Y-113061000D01*
X142377606Y-113029066D01*
X142226376Y-112966424D01*
X142226375Y-112966424D01*
X142226374Y-112966423D01*
X142090268Y-112875480D01*
X141974520Y-112759732D01*
X141883577Y-112623626D01*
X141883576Y-112623624D01*
X141820934Y-112472394D01*
X141789000Y-112311848D01*
X141789000Y-112148152D01*
X141820934Y-111987606D01*
X141883576Y-111836376D01*
X141883577Y-111836374D01*
X141974520Y-111700268D01*
X142090268Y-111584520D01*
X142226374Y-111493577D01*
X142226376Y-111493576D01*
X142377606Y-111430934D01*
X142538152Y-111399000D01*
X142701848Y-111399000D01*
X142862394Y-111430934D01*
X142862394Y-111430934D01*
G37*
G36*
X145402394Y-111430934D02*
G01*
X145553624Y-111493576D01*
X145553626Y-111493577D01*
X145689732Y-111584520D01*
X145805480Y-111700268D01*
X145896423Y-111836374D01*
X145896424Y-111836376D01*
X145959066Y-111987606D01*
X145991000Y-112148152D01*
X145991000Y-112311848D01*
X145959066Y-112472394D01*
X145896424Y-112623624D01*
X145896423Y-112623626D01*
X145805480Y-112759732D01*
X145689732Y-112875480D01*
X145553626Y-112966423D01*
X145553625Y-112966424D01*
X145553624Y-112966424D01*
X145402394Y-113029066D01*
X145241848Y-113061000D01*
X145078152Y-113061000D01*
X144917606Y-113029066D01*
X144766376Y-112966424D01*
X144766375Y-112966424D01*
X144766374Y-112966423D01*
X144630268Y-112875480D01*
X144514520Y-112759732D01*
X144423577Y-112623626D01*
X144423576Y-112623624D01*
X144360934Y-112472394D01*
X144329000Y-112311848D01*
X144329000Y-112148152D01*
X144360934Y-111987606D01*
X144423576Y-111836376D01*
X144423577Y-111836374D01*
X144514520Y-111700268D01*
X144630268Y-111584520D01*
X144766374Y-111493577D01*
X144766376Y-111493576D01*
X144917606Y-111430934D01*
X145078152Y-111399000D01*
X145241848Y-111399000D01*
X145402394Y-111430934D01*
X145402394Y-111430934D01*
G37*
G36*
X135242394Y-111430934D02*
G01*
X135393624Y-111493576D01*
X135393626Y-111493577D01*
X135529732Y-111584520D01*
X135645480Y-111700268D01*
X135736423Y-111836374D01*
X135736424Y-111836376D01*
X135799066Y-111987606D01*
X135831000Y-112148152D01*
X135831000Y-112311848D01*
X135799066Y-112472394D01*
X135736424Y-112623624D01*
X135736423Y-112623626D01*
X135645480Y-112759732D01*
X135529732Y-112875480D01*
X135393626Y-112966423D01*
X135393625Y-112966424D01*
X135393624Y-112966424D01*
X135242394Y-113029066D01*
X135081848Y-113061000D01*
X134918152Y-113061000D01*
X134757606Y-113029066D01*
X134606376Y-112966424D01*
X134606375Y-112966424D01*
X134606374Y-112966423D01*
X134470268Y-112875480D01*
X134354520Y-112759732D01*
X134263577Y-112623626D01*
X134263576Y-112623624D01*
X134200934Y-112472394D01*
X134169000Y-112311848D01*
X134169000Y-112148152D01*
X134200934Y-111987606D01*
X134263576Y-111836376D01*
X134263577Y-111836374D01*
X134354520Y-111700268D01*
X134470268Y-111584520D01*
X134606374Y-111493577D01*
X134606376Y-111493576D01*
X134757606Y-111430934D01*
X134918152Y-111399000D01*
X135081848Y-111399000D01*
X135242394Y-111430934D01*
X135242394Y-111430934D01*
G37*
G36*
X132702394Y-111430934D02*
G01*
X132853624Y-111493576D01*
X132853626Y-111493577D01*
X132989732Y-111584520D01*
X133105480Y-111700268D01*
X133196423Y-111836374D01*
X133196424Y-111836376D01*
X133259066Y-111987606D01*
X133291000Y-112148152D01*
X133291000Y-112311848D01*
X133259066Y-112472394D01*
X133196424Y-112623624D01*
X133196423Y-112623626D01*
X133105480Y-112759732D01*
X132989732Y-112875480D01*
X132853626Y-112966423D01*
X132853625Y-112966424D01*
X132853624Y-112966424D01*
X132702394Y-113029066D01*
X132541848Y-113061000D01*
X132378152Y-113061000D01*
X132217606Y-113029066D01*
X132066376Y-112966424D01*
X132066375Y-112966424D01*
X132066374Y-112966423D01*
X131930268Y-112875480D01*
X131814520Y-112759732D01*
X131723577Y-112623626D01*
X131723576Y-112623624D01*
X131660934Y-112472394D01*
X131629000Y-112311848D01*
X131629000Y-112148152D01*
X131660934Y-111987606D01*
X131723576Y-111836376D01*
X131723577Y-111836374D01*
X131814520Y-111700268D01*
X131930268Y-111584520D01*
X132066374Y-111493577D01*
X132066376Y-111493576D01*
X132217606Y-111430934D01*
X132378152Y-111399000D01*
X132541848Y-111399000D01*
X132702394Y-111430934D01*
X132702394Y-111430934D01*
G37*
G36*
X130162394Y-111430934D02*
G01*
X130313624Y-111493576D01*
X130313626Y-111493577D01*
X130449732Y-111584520D01*
X130565480Y-111700268D01*
X130656423Y-111836374D01*
X130656424Y-111836376D01*
X130719066Y-111987606D01*
X130751000Y-112148152D01*
X130751000Y-112311848D01*
X130719066Y-112472394D01*
X130656424Y-112623624D01*
X130656423Y-112623626D01*
X130565480Y-112759732D01*
X130449732Y-112875480D01*
X130313626Y-112966423D01*
X130313625Y-112966424D01*
X130313624Y-112966424D01*
X130162394Y-113029066D01*
X130001848Y-113061000D01*
X129838152Y-113061000D01*
X129677606Y-113029066D01*
X129526376Y-112966424D01*
X129526375Y-112966424D01*
X129526374Y-112966423D01*
X129390268Y-112875480D01*
X129274520Y-112759732D01*
X129183577Y-112623626D01*
X129183576Y-112623624D01*
X129120934Y-112472394D01*
X129089000Y-112311848D01*
X129089000Y-112148152D01*
X129120934Y-111987606D01*
X129183576Y-111836376D01*
X129183577Y-111836374D01*
X129274520Y-111700268D01*
X129390268Y-111584520D01*
X129526374Y-111493577D01*
X129526376Y-111493576D01*
X129677606Y-111430934D01*
X129838152Y-111399000D01*
X130001848Y-111399000D01*
X130162394Y-111430934D01*
X130162394Y-111430934D01*
G37*
G36*
X148531000Y-113061000D02*
G01*
X146869000Y-113061000D01*
X146869000Y-111399000D01*
X148531000Y-111399000D01*
X148531000Y-113061000D01*
X148531000Y-113061000D01*
G37*
G36*
X207301000Y-108371000D02*
G01*
X204699000Y-108371000D01*
X204699000Y-105769000D01*
X207301000Y-105769000D01*
X207301000Y-108371000D01*
X207301000Y-108371000D01*
G37*
G36*
X151521000Y-108306000D02*
G01*
X146579000Y-108306000D01*
X146579000Y-105004000D01*
X151521000Y-105004000D01*
X151521000Y-108306000D01*
X151521000Y-108306000D01*
G37*
G36*
X139781000Y-108306000D02*
G01*
X134839000Y-108306000D01*
X134839000Y-105004000D01*
X139781000Y-105004000D01*
X139781000Y-108306000D01*
X139781000Y-108306000D01*
G37*
G36*
X111717000Y-108275000D02*
G01*
X109515000Y-108275000D01*
X109515000Y-106773000D01*
X111717000Y-106773000D01*
X111717000Y-108275000D01*
X111717000Y-108275000D01*
G37*
G36*
X110817000Y-105875000D02*
G01*
X108415000Y-105875000D01*
X108415000Y-103973000D01*
X110817000Y-103973000D01*
X110817000Y-105875000D01*
X110817000Y-105875000D01*
G37*
G36*
X103667000Y-103525000D02*
G01*
X101765000Y-103525000D01*
X101765000Y-101123000D01*
X103667000Y-101123000D01*
X103667000Y-103525000D01*
X103667000Y-103525000D01*
G37*
G36*
X206379487Y-100818996D02*
G01*
X206616253Y-100917068D01*
X206616255Y-100917069D01*
X206764316Y-101016000D01*
X206829339Y-101059447D01*
X207010553Y-101240661D01*
X207152932Y-101453747D01*
X207251004Y-101690513D01*
X207301000Y-101941861D01*
X207301000Y-102198139D01*
X207251004Y-102449487D01*
X207152932Y-102686253D01*
X207152931Y-102686255D01*
X207010553Y-102899339D01*
X206829339Y-103080553D01*
X206616255Y-103222931D01*
X206616254Y-103222932D01*
X206616253Y-103222932D01*
X206379487Y-103321004D01*
X206128139Y-103371000D01*
X205871861Y-103371000D01*
X205620513Y-103321004D01*
X205383747Y-103222932D01*
X205383746Y-103222932D01*
X205383745Y-103222931D01*
X205170661Y-103080553D01*
X204989447Y-102899339D01*
X204847069Y-102686255D01*
X204847068Y-102686253D01*
X204748996Y-102449487D01*
X204699000Y-102198139D01*
X204699000Y-101941861D01*
X204748996Y-101690513D01*
X204847068Y-101453747D01*
X204989447Y-101240661D01*
X205170661Y-101059447D01*
X205235684Y-101016000D01*
X205383745Y-100917069D01*
X205383747Y-100917068D01*
X205620513Y-100818996D01*
X205871861Y-100769000D01*
X206128139Y-100769000D01*
X206379487Y-100818996D01*
X206379487Y-100818996D01*
G37*
G36*
X173301000Y-102901000D02*
G01*
X169699000Y-102901000D01*
X169699000Y-100499000D01*
X173301000Y-100499000D01*
X173301000Y-102901000D01*
X173301000Y-102901000D01*
G37*
G36*
X163651000Y-102901000D02*
G01*
X160049000Y-102901000D01*
X160049000Y-100499000D01*
X163651000Y-100499000D01*
X163651000Y-102901000D01*
X163651000Y-102901000D01*
G37*
G36*
X167098241Y-99404760D02*
G01*
X167362305Y-99514139D01*
X167599958Y-99672934D01*
X167802066Y-99875042D01*
X167960861Y-100112695D01*
X168070240Y-100376759D01*
X168126000Y-100657088D01*
X168126000Y-100942912D01*
X168070240Y-101223241D01*
X167960861Y-101487305D01*
X167802066Y-101724958D01*
X167599958Y-101927066D01*
X167362305Y-102085861D01*
X167098241Y-102195240D01*
X166817912Y-102251000D01*
X166532088Y-102251000D01*
X166251759Y-102195240D01*
X165987695Y-102085861D01*
X165750042Y-101927066D01*
X165547934Y-101724958D01*
X165389139Y-101487305D01*
X165279760Y-101223241D01*
X165224000Y-100942912D01*
X165224000Y-100657088D01*
X165279760Y-100376759D01*
X165389139Y-100112695D01*
X165547934Y-99875042D01*
X165750042Y-99672934D01*
X165987695Y-99514139D01*
X166251759Y-99404760D01*
X166532088Y-99349000D01*
X166817912Y-99349000D01*
X167098241Y-99404760D01*
X167098241Y-99404760D01*
G37*
G36*
X192926000Y-101016000D02*
G01*
X191224000Y-101016000D01*
X191224000Y-99314000D01*
X192926000Y-99314000D01*
X192926000Y-101016000D01*
X192926000Y-101016000D01*
G37*
G36*
X114967000Y-99225000D02*
G01*
X113065000Y-99225000D01*
X113065000Y-96823000D01*
X114967000Y-96823000D01*
X114967000Y-99225000D01*
X114967000Y-99225000D01*
G37*
G36*
X206379487Y-95818996D02*
G01*
X206616253Y-95917068D01*
X206616255Y-95917069D01*
X206829339Y-96059447D01*
X207010553Y-96240661D01*
X207149638Y-96448816D01*
X207152932Y-96453747D01*
X207251004Y-96690513D01*
X207301000Y-96941861D01*
X207301000Y-97198139D01*
X207251004Y-97449487D01*
X207152932Y-97686253D01*
X207152931Y-97686255D01*
X207010553Y-97899339D01*
X206829339Y-98080553D01*
X206616255Y-98222931D01*
X206616254Y-98222932D01*
X206616253Y-98222932D01*
X206379487Y-98321004D01*
X206128139Y-98371000D01*
X205871861Y-98371000D01*
X205620513Y-98321004D01*
X205383747Y-98222932D01*
X205383746Y-98222932D01*
X205383745Y-98222931D01*
X205170661Y-98080553D01*
X204989447Y-97899339D01*
X204847069Y-97686255D01*
X204847068Y-97686253D01*
X204748996Y-97449487D01*
X204699000Y-97198139D01*
X204699000Y-96941861D01*
X204748996Y-96690513D01*
X204847068Y-96453747D01*
X204850363Y-96448816D01*
X204989447Y-96240661D01*
X205170661Y-96059447D01*
X205383745Y-95917069D01*
X205383747Y-95917068D01*
X205620513Y-95818996D01*
X205871861Y-95769000D01*
X206128139Y-95769000D01*
X206379487Y-95818996D01*
X206379487Y-95818996D01*
G37*
G36*
X108217000Y-98275000D02*
G01*
X106015000Y-98275000D01*
X106015000Y-96773000D01*
X108217000Y-96773000D01*
X108217000Y-98275000D01*
X108217000Y-98275000D01*
G37*
G36*
X192323228Y-95546703D02*
G01*
X192478100Y-95610853D01*
X192617481Y-95703985D01*
X192736015Y-95822519D01*
X192829147Y-95961900D01*
X192893297Y-96116772D01*
X192926000Y-96281184D01*
X192926000Y-96448816D01*
X192893297Y-96613228D01*
X192829147Y-96768100D01*
X192736015Y-96907481D01*
X192617481Y-97026015D01*
X192478100Y-97119147D01*
X192323228Y-97183297D01*
X192158816Y-97216000D01*
X191991184Y-97216000D01*
X191826772Y-97183297D01*
X191671900Y-97119147D01*
X191532519Y-97026015D01*
X191413985Y-96907481D01*
X191320853Y-96768100D01*
X191256703Y-96613228D01*
X191224000Y-96448816D01*
X191224000Y-96281184D01*
X191256703Y-96116772D01*
X191320853Y-95961900D01*
X191413985Y-95822519D01*
X191532519Y-95703985D01*
X191671900Y-95610853D01*
X191826772Y-95546703D01*
X191991184Y-95514000D01*
X192158816Y-95514000D01*
X192323228Y-95546703D01*
X192323228Y-95546703D01*
G37*
G36*
X105459487Y-90498996D02*
G01*
X105696253Y-90597068D01*
X105696255Y-90597069D01*
X105909339Y-90739447D01*
X106090553Y-90920661D01*
X106232932Y-91133747D01*
X106331004Y-91370513D01*
X106381000Y-91621861D01*
X106381000Y-91878139D01*
X106331004Y-92129487D01*
X106232932Y-92366253D01*
X106232931Y-92366255D01*
X106090553Y-92579339D01*
X105909339Y-92760553D01*
X105696255Y-92902931D01*
X105696254Y-92902932D01*
X105696253Y-92902932D01*
X105459487Y-93001004D01*
X105208139Y-93051000D01*
X104951861Y-93051000D01*
X104700513Y-93001004D01*
X104463747Y-92902932D01*
X104463746Y-92902932D01*
X104463745Y-92902931D01*
X104250661Y-92760553D01*
X104069447Y-92579339D01*
X103927069Y-92366255D01*
X103927068Y-92366253D01*
X103828996Y-92129487D01*
X103779000Y-91878139D01*
X103779000Y-91621861D01*
X103828996Y-91370513D01*
X103927068Y-91133747D01*
X104069447Y-90920661D01*
X104250661Y-90739447D01*
X104463745Y-90597069D01*
X104463747Y-90597068D01*
X104700513Y-90498996D01*
X104951861Y-90449000D01*
X105208139Y-90449000D01*
X105459487Y-90498996D01*
X105459487Y-90498996D01*
G37*
G36*
X207346000Y-88766000D02*
G01*
X204744000Y-88766000D01*
X204744000Y-86164000D01*
X207346000Y-86164000D01*
X207346000Y-88766000D01*
X207346000Y-88766000D01*
G37*
G36*
X151521000Y-87706000D02*
G01*
X146579000Y-87706000D01*
X146579000Y-84404000D01*
X151521000Y-84404000D01*
X151521000Y-87706000D01*
X151521000Y-87706000D01*
G37*
G36*
X139781000Y-87706000D02*
G01*
X134839000Y-87706000D01*
X134839000Y-84404000D01*
X139781000Y-84404000D01*
X139781000Y-87706000D01*
X139781000Y-87706000D01*
G37*
G36*
X128911000Y-87341000D02*
G01*
X126309000Y-87341000D01*
X126309000Y-81239000D01*
X128911000Y-81239000D01*
X128911000Y-87341000D01*
X128911000Y-87341000D01*
G37*
G36*
X124161000Y-87341000D02*
G01*
X121559000Y-87341000D01*
X121559000Y-81239000D01*
X124161000Y-81239000D01*
X124161000Y-87341000D01*
X124161000Y-87341000D01*
G37*
G36*
X206424487Y-81213996D02*
G01*
X206661253Y-81312068D01*
X206661255Y-81312069D01*
X206689587Y-81331000D01*
X206874339Y-81454447D01*
X207055553Y-81635661D01*
X207197932Y-81848747D01*
X207296004Y-82085513D01*
X207346000Y-82336861D01*
X207346000Y-82593139D01*
X207296004Y-82844487D01*
X207210463Y-83051000D01*
X207197931Y-83081255D01*
X207055553Y-83294339D01*
X206874339Y-83475553D01*
X206661255Y-83617931D01*
X206661254Y-83617932D01*
X206661253Y-83617932D01*
X206424487Y-83716004D01*
X206173139Y-83766000D01*
X205916861Y-83766000D01*
X205665513Y-83716004D01*
X205428747Y-83617932D01*
X205428746Y-83617932D01*
X205428745Y-83617931D01*
X205215661Y-83475553D01*
X205034447Y-83294339D01*
X204892069Y-83081255D01*
X204879537Y-83051000D01*
X204793996Y-82844487D01*
X204744000Y-82593139D01*
X204744000Y-82336861D01*
X204793996Y-82085513D01*
X204892068Y-81848747D01*
X205034447Y-81635661D01*
X205215661Y-81454447D01*
X205400413Y-81331000D01*
X205428745Y-81312069D01*
X205428747Y-81312068D01*
X205665513Y-81213996D01*
X205916861Y-81164000D01*
X206173139Y-81164000D01*
X206424487Y-81213996D01*
X206424487Y-81213996D01*
G37*
G36*
X106381000Y-83051000D02*
G01*
X103779000Y-83051000D01*
X103779000Y-80449000D01*
X106381000Y-80449000D01*
X106381000Y-83051000D01*
X106381000Y-83051000D01*
G37*
G36*
X192926000Y-81331000D02*
G01*
X191224000Y-81331000D01*
X191224000Y-79629000D01*
X192926000Y-79629000D01*
X192926000Y-81331000D01*
X192926000Y-81331000D01*
G37*
G36*
X163016000Y-81311000D02*
G01*
X159414000Y-81311000D01*
X159414000Y-78909000D01*
X163016000Y-78909000D01*
X163016000Y-81311000D01*
X163016000Y-81311000D01*
G37*
G36*
X172666000Y-81311000D02*
G01*
X169064000Y-81311000D01*
X169064000Y-78909000D01*
X172666000Y-78909000D01*
X172666000Y-81311000D01*
X172666000Y-81311000D01*
G37*
G36*
X166463241Y-77814760D02*
G01*
X166727305Y-77924139D01*
X166964958Y-78082934D01*
X167167066Y-78285042D01*
X167325861Y-78522695D01*
X167435240Y-78786759D01*
X167491000Y-79067088D01*
X167491000Y-79352912D01*
X167435240Y-79633241D01*
X167325861Y-79897305D01*
X167167066Y-80134958D01*
X166964958Y-80337066D01*
X166727305Y-80495861D01*
X166463241Y-80605240D01*
X166182912Y-80661000D01*
X165897088Y-80661000D01*
X165616759Y-80605240D01*
X165352695Y-80495861D01*
X165115042Y-80337066D01*
X164912934Y-80134958D01*
X164754139Y-79897305D01*
X164644760Y-79633241D01*
X164589000Y-79352912D01*
X164589000Y-79067088D01*
X164644760Y-78786759D01*
X164754139Y-78522695D01*
X164912934Y-78285042D01*
X165115042Y-78082934D01*
X165352695Y-77924139D01*
X165616759Y-77814760D01*
X165897088Y-77759000D01*
X166182912Y-77759000D01*
X166463241Y-77814760D01*
X166463241Y-77814760D01*
G37*
G36*
X206424487Y-76213996D02*
G01*
X206576357Y-76276903D01*
X206661255Y-76312069D01*
X206874339Y-76454447D01*
X207055553Y-76635661D01*
X207141183Y-76763815D01*
X207197932Y-76848747D01*
X207296004Y-77085513D01*
X207346000Y-77336861D01*
X207346000Y-77593139D01*
X207296004Y-77844487D01*
X207197932Y-78081253D01*
X207197931Y-78081255D01*
X207055553Y-78294339D01*
X206874339Y-78475553D01*
X206661255Y-78617931D01*
X206661254Y-78617932D01*
X206661253Y-78617932D01*
X206424487Y-78716004D01*
X206173139Y-78766000D01*
X205916861Y-78766000D01*
X205665513Y-78716004D01*
X205428747Y-78617932D01*
X205428746Y-78617932D01*
X205428745Y-78617931D01*
X205215661Y-78475553D01*
X205034447Y-78294339D01*
X204892069Y-78081255D01*
X204892068Y-78081253D01*
X204793996Y-77844487D01*
X204744000Y-77593139D01*
X204744000Y-77336861D01*
X204793996Y-77085513D01*
X204892068Y-76848747D01*
X204948818Y-76763815D01*
X205034447Y-76635661D01*
X205215661Y-76454447D01*
X205428745Y-76312069D01*
X205513643Y-76276903D01*
X205665513Y-76213996D01*
X205916861Y-76164000D01*
X206173139Y-76164000D01*
X206424487Y-76213996D01*
X206424487Y-76213996D01*
G37*
G36*
X192323228Y-75861703D02*
G01*
X192478100Y-75925853D01*
X192617481Y-76018985D01*
X192736015Y-76137519D01*
X192829147Y-76276900D01*
X192893297Y-76431772D01*
X192926000Y-76596184D01*
X192926000Y-76763816D01*
X192893297Y-76928228D01*
X192829147Y-77083100D01*
X192736015Y-77222481D01*
X192617481Y-77341015D01*
X192478100Y-77434147D01*
X192323228Y-77498297D01*
X192158816Y-77531000D01*
X191991184Y-77531000D01*
X191826772Y-77498297D01*
X191671900Y-77434147D01*
X191532519Y-77341015D01*
X191413985Y-77222481D01*
X191320853Y-77083100D01*
X191256703Y-76928228D01*
X191224000Y-76763816D01*
X191224000Y-76596184D01*
X191256703Y-76431772D01*
X191320853Y-76276900D01*
X191413985Y-76137519D01*
X191532519Y-76018985D01*
X191671900Y-75925853D01*
X191826772Y-75861703D01*
X191991184Y-75829000D01*
X192158816Y-75829000D01*
X192323228Y-75861703D01*
X192323228Y-75861703D01*
G37*
G36*
X142309272Y-69273428D02*
G01*
X142495991Y-69350770D01*
X142495993Y-69350771D01*
X142664037Y-69463054D01*
X142806946Y-69605963D01*
X142919229Y-69774007D01*
X142919230Y-69774009D01*
X142996572Y-69960728D01*
X143036000Y-70158947D01*
X143036000Y-70361053D01*
X142996572Y-70559272D01*
X142919230Y-70745991D01*
X142919229Y-70745993D01*
X142806946Y-70914037D01*
X142664037Y-71056946D01*
X142495993Y-71169229D01*
X142495992Y-71169230D01*
X142495991Y-71169230D01*
X142309272Y-71246572D01*
X142111053Y-71286000D01*
X141908947Y-71286000D01*
X141710728Y-71246572D01*
X141524009Y-71169230D01*
X141524008Y-71169230D01*
X141524007Y-71169229D01*
X141355963Y-71056946D01*
X141213054Y-70914037D01*
X141100771Y-70745993D01*
X141100770Y-70745991D01*
X141023428Y-70559272D01*
X140984000Y-70361053D01*
X140984000Y-70158947D01*
X141023428Y-69960728D01*
X141100770Y-69774009D01*
X141100771Y-69774007D01*
X141213054Y-69605963D01*
X141355963Y-69463054D01*
X141524007Y-69350771D01*
X141524009Y-69350770D01*
X141710728Y-69273428D01*
X141908947Y-69234000D01*
X142111053Y-69234000D01*
X142309272Y-69273428D01*
X142309272Y-69273428D01*
G37*
G36*
X118036000Y-71286000D02*
G01*
X115984000Y-71286000D01*
X115984000Y-69234000D01*
X118036000Y-69234000D01*
X118036000Y-71286000D01*
X118036000Y-71286000D01*
G37*
G36*
X137309272Y-69273428D02*
G01*
X137495991Y-69350770D01*
X137495993Y-69350771D01*
X137664037Y-69463054D01*
X137806946Y-69605963D01*
X137919229Y-69774007D01*
X137919230Y-69774009D01*
X137996572Y-69960728D01*
X138036000Y-70158947D01*
X138036000Y-70361053D01*
X137996572Y-70559272D01*
X137919230Y-70745991D01*
X137919229Y-70745993D01*
X137806946Y-70914037D01*
X137664037Y-71056946D01*
X137495993Y-71169229D01*
X137495992Y-71169230D01*
X137495991Y-71169230D01*
X137309272Y-71246572D01*
X137111053Y-71286000D01*
X136908947Y-71286000D01*
X136710728Y-71246572D01*
X136524009Y-71169230D01*
X136524008Y-71169230D01*
X136524007Y-71169229D01*
X136355963Y-71056946D01*
X136213054Y-70914037D01*
X136100771Y-70745993D01*
X136100770Y-70745991D01*
X136023428Y-70559272D01*
X135984000Y-70361053D01*
X135984000Y-70158947D01*
X136023428Y-69960728D01*
X136100770Y-69774009D01*
X136100771Y-69774007D01*
X136213054Y-69605963D01*
X136355963Y-69463054D01*
X136524007Y-69350771D01*
X136524009Y-69350770D01*
X136710728Y-69273428D01*
X136908947Y-69234000D01*
X137111053Y-69234000D01*
X137309272Y-69273428D01*
X137309272Y-69273428D01*
G37*
G36*
X207301000Y-65801000D02*
G01*
X204699000Y-65801000D01*
X204699000Y-63199000D01*
X207301000Y-63199000D01*
X207301000Y-65801000D01*
X207301000Y-65801000D01*
G37*
G36*
X137309272Y-61773428D02*
G01*
X137495991Y-61850770D01*
X137495993Y-61850771D01*
X137664037Y-61963054D01*
X137806946Y-62105963D01*
X137919229Y-62274007D01*
X137919230Y-62274009D01*
X137996572Y-62460728D01*
X138036000Y-62658947D01*
X138036000Y-62861053D01*
X137996572Y-63059272D01*
X137938694Y-63199000D01*
X137919229Y-63245993D01*
X137806946Y-63414037D01*
X137664037Y-63556946D01*
X137495993Y-63669229D01*
X137495992Y-63669230D01*
X137495991Y-63669230D01*
X137309272Y-63746572D01*
X137111053Y-63786000D01*
X136908947Y-63786000D01*
X136710728Y-63746572D01*
X136524009Y-63669230D01*
X136524008Y-63669230D01*
X136524007Y-63669229D01*
X136355963Y-63556946D01*
X136213054Y-63414037D01*
X136100771Y-63245993D01*
X136081306Y-63199000D01*
X136023428Y-63059272D01*
X135984000Y-62861053D01*
X135984000Y-62658947D01*
X136023428Y-62460728D01*
X136100770Y-62274009D01*
X136100771Y-62274007D01*
X136213054Y-62105963D01*
X136355963Y-61963054D01*
X136524007Y-61850771D01*
X136524009Y-61850770D01*
X136710728Y-61773428D01*
X136908947Y-61734000D01*
X137111053Y-61734000D01*
X137309272Y-61773428D01*
X137309272Y-61773428D01*
G37*
G36*
X142309272Y-61773428D02*
G01*
X142495991Y-61850770D01*
X142495993Y-61850771D01*
X142664037Y-61963054D01*
X142806946Y-62105963D01*
X142919229Y-62274007D01*
X142919230Y-62274009D01*
X142996572Y-62460728D01*
X143036000Y-62658947D01*
X143036000Y-62861053D01*
X142996572Y-63059272D01*
X142938694Y-63199000D01*
X142919229Y-63245993D01*
X142806946Y-63414037D01*
X142664037Y-63556946D01*
X142495993Y-63669229D01*
X142495992Y-63669230D01*
X142495991Y-63669230D01*
X142309272Y-63746572D01*
X142111053Y-63786000D01*
X141908947Y-63786000D01*
X141710728Y-63746572D01*
X141524009Y-63669230D01*
X141524008Y-63669230D01*
X141524007Y-63669229D01*
X141355963Y-63556946D01*
X141213054Y-63414037D01*
X141100771Y-63245993D01*
X141081306Y-63199000D01*
X141023428Y-63059272D01*
X140984000Y-62861053D01*
X140984000Y-62658947D01*
X141023428Y-62460728D01*
X141100770Y-62274009D01*
X141100771Y-62274007D01*
X141213054Y-62105963D01*
X141355963Y-61963054D01*
X141524007Y-61850771D01*
X141524009Y-61850770D01*
X141710728Y-61773428D01*
X141908947Y-61734000D01*
X142111053Y-61734000D01*
X142309272Y-61773428D01*
X142309272Y-61773428D01*
G37*
G36*
X117309272Y-61773428D02*
G01*
X117495991Y-61850770D01*
X117495993Y-61850771D01*
X117664037Y-61963054D01*
X117806946Y-62105963D01*
X117919229Y-62274007D01*
X117919230Y-62274009D01*
X117996572Y-62460728D01*
X118036000Y-62658947D01*
X118036000Y-62861053D01*
X117996572Y-63059272D01*
X117938694Y-63199000D01*
X117919229Y-63245993D01*
X117806946Y-63414037D01*
X117664037Y-63556946D01*
X117495993Y-63669229D01*
X117495992Y-63669230D01*
X117495991Y-63669230D01*
X117309272Y-63746572D01*
X117111053Y-63786000D01*
X116908947Y-63786000D01*
X116710728Y-63746572D01*
X116524009Y-63669230D01*
X116524008Y-63669230D01*
X116524007Y-63669229D01*
X116355963Y-63556946D01*
X116213054Y-63414037D01*
X116100771Y-63245993D01*
X116081306Y-63199000D01*
X116023428Y-63059272D01*
X115984000Y-62861053D01*
X115984000Y-62658947D01*
X116023428Y-62460728D01*
X116100770Y-62274009D01*
X116100771Y-62274007D01*
X116213054Y-62105963D01*
X116355963Y-61963054D01*
X116524007Y-61850771D01*
X116524009Y-61850770D01*
X116710728Y-61773428D01*
X116908947Y-61734000D01*
X117111053Y-61734000D01*
X117309272Y-61773428D01*
X117309272Y-61773428D01*
G37*
G36*
X192926000Y-61011000D02*
G01*
X191224000Y-61011000D01*
X191224000Y-59309000D01*
X192926000Y-59309000D01*
X192926000Y-61011000D01*
X192926000Y-61011000D01*
G37*
G36*
X206379487Y-58248996D02*
G01*
X206520259Y-58307306D01*
X206616255Y-58347069D01*
X206829339Y-58489447D01*
X207010553Y-58670661D01*
X207152932Y-58883747D01*
X207251004Y-59120513D01*
X207301000Y-59371861D01*
X207301000Y-59628139D01*
X207251004Y-59879487D01*
X207152932Y-60116253D01*
X207152931Y-60116255D01*
X207010553Y-60329339D01*
X206829339Y-60510553D01*
X206616255Y-60652931D01*
X206616254Y-60652932D01*
X206616253Y-60652932D01*
X206379487Y-60751004D01*
X206128139Y-60801000D01*
X205871861Y-60801000D01*
X205620513Y-60751004D01*
X205383747Y-60652932D01*
X205383746Y-60652932D01*
X205383745Y-60652931D01*
X205170661Y-60510553D01*
X204989447Y-60329339D01*
X204847069Y-60116255D01*
X204847068Y-60116253D01*
X204748996Y-59879487D01*
X204699000Y-59628139D01*
X204699000Y-59371861D01*
X204748996Y-59120513D01*
X204847068Y-58883747D01*
X204989447Y-58670661D01*
X205170661Y-58489447D01*
X205383745Y-58347069D01*
X205479741Y-58307306D01*
X205620513Y-58248996D01*
X205871861Y-58199000D01*
X206128139Y-58199000D01*
X206379487Y-58248996D01*
X206379487Y-58248996D01*
G37*
G36*
X172666000Y-59721000D02*
G01*
X169064000Y-59721000D01*
X169064000Y-57319000D01*
X172666000Y-57319000D01*
X172666000Y-59721000D01*
X172666000Y-59721000D01*
G37*
G36*
X163016000Y-59721000D02*
G01*
X159414000Y-59721000D01*
X159414000Y-57319000D01*
X163016000Y-57319000D01*
X163016000Y-59721000D01*
X163016000Y-59721000D01*
G37*
G36*
X166463241Y-56224760D02*
G01*
X166727305Y-56334139D01*
X166964958Y-56492934D01*
X167167066Y-56695042D01*
X167325861Y-56932695D01*
X167435240Y-57196759D01*
X167491000Y-57477088D01*
X167491000Y-57762912D01*
X167435240Y-58043241D01*
X167325861Y-58307305D01*
X167167066Y-58544958D01*
X166964958Y-58747066D01*
X166727305Y-58905861D01*
X166463241Y-59015240D01*
X166182912Y-59071000D01*
X165897088Y-59071000D01*
X165616759Y-59015240D01*
X165352695Y-58905861D01*
X165115042Y-58747066D01*
X164912934Y-58544958D01*
X164754139Y-58307305D01*
X164644760Y-58043241D01*
X164589000Y-57762912D01*
X164589000Y-57477088D01*
X164644760Y-57196759D01*
X164754139Y-56932695D01*
X164912934Y-56695042D01*
X165115042Y-56492934D01*
X165352695Y-56334139D01*
X165616759Y-56224760D01*
X165897088Y-56169000D01*
X166182912Y-56169000D01*
X166463241Y-56224760D01*
X166463241Y-56224760D01*
G37*
G36*
X192323228Y-55541703D02*
G01*
X192478100Y-55605853D01*
X192617481Y-55698985D01*
X192736015Y-55817519D01*
X192829147Y-55956900D01*
X192893297Y-56111772D01*
X192926000Y-56276184D01*
X192926000Y-56443816D01*
X192893297Y-56608228D01*
X192829147Y-56763100D01*
X192736015Y-56902481D01*
X192617481Y-57021015D01*
X192478100Y-57114147D01*
X192323228Y-57178297D01*
X192158816Y-57211000D01*
X191991184Y-57211000D01*
X191826772Y-57178297D01*
X191671900Y-57114147D01*
X191532519Y-57021015D01*
X191413985Y-56902481D01*
X191320853Y-56763100D01*
X191256703Y-56608228D01*
X191224000Y-56443816D01*
X191224000Y-56276184D01*
X191256703Y-56111772D01*
X191320853Y-55956900D01*
X191413985Y-55817519D01*
X191532519Y-55698985D01*
X191671900Y-55605853D01*
X191826772Y-55541703D01*
X191991184Y-55509000D01*
X192158816Y-55509000D01*
X192323228Y-55541703D01*
X192323228Y-55541703D01*
G37*
G36*
X206379487Y-53248996D02*
G01*
X206616253Y-53347068D01*
X206616255Y-53347069D01*
X206829339Y-53489447D01*
X207010553Y-53670661D01*
X207152932Y-53883747D01*
X207251004Y-54120513D01*
X207301000Y-54371861D01*
X207301000Y-54628139D01*
X207251004Y-54879487D01*
X207152932Y-55116253D01*
X207152931Y-55116255D01*
X207010553Y-55329339D01*
X206829339Y-55510553D01*
X206616255Y-55652931D01*
X206616254Y-55652932D01*
X206616253Y-55652932D01*
X206379487Y-55751004D01*
X206128139Y-55801000D01*
X205871861Y-55801000D01*
X205620513Y-55751004D01*
X205383747Y-55652932D01*
X205383746Y-55652932D01*
X205383745Y-55652931D01*
X205170661Y-55510553D01*
X204989447Y-55329339D01*
X204847069Y-55116255D01*
X204847068Y-55116253D01*
X204748996Y-54879487D01*
X204699000Y-54628139D01*
X204699000Y-54371861D01*
X204748996Y-54120513D01*
X204847068Y-53883747D01*
X204989447Y-53670661D01*
X205170661Y-53489447D01*
X205383745Y-53347069D01*
X205383747Y-53347068D01*
X205620513Y-53248996D01*
X205871861Y-53199000D01*
X206128139Y-53199000D01*
X206379487Y-53248996D01*
X206379487Y-53248996D01*
G37*
M02*
