G04 #@! TF.GenerationSoftware,KiCad,Pcbnew,5.1.6+dfsg1-1*
G04 #@! TF.CreationDate,2020-10-10T18:43:38+02:00*
G04 #@! TF.ProjectId,ledStripDriver,6c656453-7472-4697-9044-72697665722e,rev?*
G04 #@! TF.SameCoordinates,Original*
G04 #@! TF.FileFunction,Soldermask,Top*
G04 #@! TF.FilePolarity,Negative*
%FSLAX46Y46*%
G04 Gerber Fmt 4.6, Leading zero omitted, Abs format (unit mm)*
G04 Created by KiCad (PCBNEW 5.1.6+dfsg1-1) date 2020-10-10 18:43:38*
%MOMM*%
%LPD*%
G01*
G04 APERTURE LIST*
%ADD10C,0.100000*%
G04 APERTURE END LIST*
D10*
G36*
X202551000Y-139237000D02*
G01*
X199449000Y-139237000D01*
X199449000Y-136635000D01*
X202551000Y-136635000D01*
X202551000Y-139237000D01*
G37*
G36*
X160488674Y-137053465D02*
G01*
X160526367Y-137064899D01*
X160561103Y-137083466D01*
X160591548Y-137108452D01*
X160616534Y-137138897D01*
X160635101Y-137173633D01*
X160646535Y-137211326D01*
X160651000Y-137256661D01*
X160651000Y-138343339D01*
X160646535Y-138388674D01*
X160635101Y-138426367D01*
X160616534Y-138461103D01*
X160591548Y-138491548D01*
X160561103Y-138516534D01*
X160526367Y-138535101D01*
X160488674Y-138546535D01*
X160443339Y-138551000D01*
X159606661Y-138551000D01*
X159561326Y-138546535D01*
X159523633Y-138535101D01*
X159488897Y-138516534D01*
X159458452Y-138491548D01*
X159433466Y-138461103D01*
X159414899Y-138426367D01*
X159403465Y-138388674D01*
X159399000Y-138343339D01*
X159399000Y-137256661D01*
X159403465Y-137211326D01*
X159414899Y-137173633D01*
X159433466Y-137138897D01*
X159458452Y-137108452D01*
X159488897Y-137083466D01*
X159523633Y-137064899D01*
X159561326Y-137053465D01*
X159606661Y-137049000D01*
X160443339Y-137049000D01*
X160488674Y-137053465D01*
G37*
G36*
X158438674Y-137053465D02*
G01*
X158476367Y-137064899D01*
X158511103Y-137083466D01*
X158541548Y-137108452D01*
X158566534Y-137138897D01*
X158585101Y-137173633D01*
X158596535Y-137211326D01*
X158601000Y-137256661D01*
X158601000Y-138343339D01*
X158596535Y-138388674D01*
X158585101Y-138426367D01*
X158566534Y-138461103D01*
X158541548Y-138491548D01*
X158511103Y-138516534D01*
X158476367Y-138535101D01*
X158438674Y-138546535D01*
X158393339Y-138551000D01*
X157556661Y-138551000D01*
X157511326Y-138546535D01*
X157473633Y-138535101D01*
X157438897Y-138516534D01*
X157408452Y-138491548D01*
X157383466Y-138461103D01*
X157364899Y-138426367D01*
X157353465Y-138388674D01*
X157349000Y-138343339D01*
X157349000Y-137256661D01*
X157353465Y-137211326D01*
X157364899Y-137173633D01*
X157383466Y-137138897D01*
X157408452Y-137108452D01*
X157438897Y-137083466D01*
X157473633Y-137064899D01*
X157511326Y-137053465D01*
X157556661Y-137049000D01*
X158393339Y-137049000D01*
X158438674Y-137053465D01*
G37*
G36*
X172568228Y-136801703D02*
G01*
X172723100Y-136865853D01*
X172862481Y-136958985D01*
X172981015Y-137077519D01*
X173074147Y-137216900D01*
X173138297Y-137371772D01*
X173171000Y-137536184D01*
X173171000Y-137703816D01*
X173138297Y-137868228D01*
X173074147Y-138023100D01*
X172981015Y-138162481D01*
X172862481Y-138281015D01*
X172723100Y-138374147D01*
X172568228Y-138438297D01*
X172403816Y-138471000D01*
X172236184Y-138471000D01*
X172071772Y-138438297D01*
X171916900Y-138374147D01*
X171777519Y-138281015D01*
X171658985Y-138162481D01*
X171565853Y-138023100D01*
X171501703Y-137868228D01*
X171469000Y-137703816D01*
X171469000Y-137536184D01*
X171501703Y-137371772D01*
X171565853Y-137216900D01*
X171658985Y-137077519D01*
X171777519Y-136958985D01*
X171916900Y-136865853D01*
X172071772Y-136801703D01*
X172236184Y-136769000D01*
X172403816Y-136769000D01*
X172568228Y-136801703D01*
G37*
G36*
X164948228Y-136801703D02*
G01*
X165103100Y-136865853D01*
X165242481Y-136958985D01*
X165361015Y-137077519D01*
X165454147Y-137216900D01*
X165518297Y-137371772D01*
X165551000Y-137536184D01*
X165551000Y-137703816D01*
X165518297Y-137868228D01*
X165454147Y-138023100D01*
X165361015Y-138162481D01*
X165242481Y-138281015D01*
X165103100Y-138374147D01*
X164948228Y-138438297D01*
X164783816Y-138471000D01*
X164616184Y-138471000D01*
X164451772Y-138438297D01*
X164296900Y-138374147D01*
X164157519Y-138281015D01*
X164038985Y-138162481D01*
X163945853Y-138023100D01*
X163881703Y-137868228D01*
X163849000Y-137703816D01*
X163849000Y-137536184D01*
X163881703Y-137371772D01*
X163945853Y-137216900D01*
X164038985Y-137077519D01*
X164157519Y-136958985D01*
X164296900Y-136865853D01*
X164451772Y-136801703D01*
X164616184Y-136769000D01*
X164783816Y-136769000D01*
X164948228Y-136801703D01*
G37*
G36*
X114922394Y-136830934D02*
G01*
X115049216Y-136883466D01*
X115073626Y-136893577D01*
X115209732Y-136984520D01*
X115325480Y-137100268D01*
X115399686Y-137211326D01*
X115416424Y-137236376D01*
X115479066Y-137387606D01*
X115511000Y-137548152D01*
X115511000Y-137711848D01*
X115479066Y-137872394D01*
X115416642Y-138023097D01*
X115416423Y-138023626D01*
X115325480Y-138159732D01*
X115209732Y-138275480D01*
X115073626Y-138366423D01*
X115073625Y-138366424D01*
X115073624Y-138366424D01*
X114922394Y-138429066D01*
X114761848Y-138461000D01*
X114598152Y-138461000D01*
X114437606Y-138429066D01*
X114286376Y-138366424D01*
X114286375Y-138366424D01*
X114286374Y-138366423D01*
X114150268Y-138275480D01*
X114034520Y-138159732D01*
X113943577Y-138023626D01*
X113943358Y-138023097D01*
X113880934Y-137872394D01*
X113849000Y-137711848D01*
X113849000Y-137548152D01*
X113880934Y-137387606D01*
X113943576Y-137236376D01*
X113960314Y-137211326D01*
X114034520Y-137100268D01*
X114150268Y-136984520D01*
X114286374Y-136893577D01*
X114310784Y-136883466D01*
X114437606Y-136830934D01*
X114598152Y-136799000D01*
X114761848Y-136799000D01*
X114922394Y-136830934D01*
G37*
G36*
X135242394Y-136830934D02*
G01*
X135369216Y-136883466D01*
X135393626Y-136893577D01*
X135529732Y-136984520D01*
X135645480Y-137100268D01*
X135719686Y-137211326D01*
X135736424Y-137236376D01*
X135799066Y-137387606D01*
X135831000Y-137548152D01*
X135831000Y-137711848D01*
X135799066Y-137872394D01*
X135736642Y-138023097D01*
X135736423Y-138023626D01*
X135645480Y-138159732D01*
X135529732Y-138275480D01*
X135393626Y-138366423D01*
X135393625Y-138366424D01*
X135393624Y-138366424D01*
X135242394Y-138429066D01*
X135081848Y-138461000D01*
X134918152Y-138461000D01*
X134757606Y-138429066D01*
X134606376Y-138366424D01*
X134606375Y-138366424D01*
X134606374Y-138366423D01*
X134470268Y-138275480D01*
X134354520Y-138159732D01*
X134263577Y-138023626D01*
X134263358Y-138023097D01*
X134200934Y-137872394D01*
X134169000Y-137711848D01*
X134169000Y-137548152D01*
X134200934Y-137387606D01*
X134263576Y-137236376D01*
X134280314Y-137211326D01*
X134354520Y-137100268D01*
X134470268Y-136984520D01*
X134606374Y-136893577D01*
X134630784Y-136883466D01*
X134757606Y-136830934D01*
X134918152Y-136799000D01*
X135081848Y-136799000D01*
X135242394Y-136830934D01*
G37*
G36*
X132702394Y-136830934D02*
G01*
X132829216Y-136883466D01*
X132853626Y-136893577D01*
X132989732Y-136984520D01*
X133105480Y-137100268D01*
X133179686Y-137211326D01*
X133196424Y-137236376D01*
X133259066Y-137387606D01*
X133291000Y-137548152D01*
X133291000Y-137711848D01*
X133259066Y-137872394D01*
X133196642Y-138023097D01*
X133196423Y-138023626D01*
X133105480Y-138159732D01*
X132989732Y-138275480D01*
X132853626Y-138366423D01*
X132853625Y-138366424D01*
X132853624Y-138366424D01*
X132702394Y-138429066D01*
X132541848Y-138461000D01*
X132378152Y-138461000D01*
X132217606Y-138429066D01*
X132066376Y-138366424D01*
X132066375Y-138366424D01*
X132066374Y-138366423D01*
X131930268Y-138275480D01*
X131814520Y-138159732D01*
X131723577Y-138023626D01*
X131723358Y-138023097D01*
X131660934Y-137872394D01*
X131629000Y-137711848D01*
X131629000Y-137548152D01*
X131660934Y-137387606D01*
X131723576Y-137236376D01*
X131740314Y-137211326D01*
X131814520Y-137100268D01*
X131930268Y-136984520D01*
X132066374Y-136893577D01*
X132090784Y-136883466D01*
X132217606Y-136830934D01*
X132378152Y-136799000D01*
X132541848Y-136799000D01*
X132702394Y-136830934D01*
G37*
G36*
X130162394Y-136830934D02*
G01*
X130289216Y-136883466D01*
X130313626Y-136893577D01*
X130449732Y-136984520D01*
X130565480Y-137100268D01*
X130639686Y-137211326D01*
X130656424Y-137236376D01*
X130719066Y-137387606D01*
X130751000Y-137548152D01*
X130751000Y-137711848D01*
X130719066Y-137872394D01*
X130656642Y-138023097D01*
X130656423Y-138023626D01*
X130565480Y-138159732D01*
X130449732Y-138275480D01*
X130313626Y-138366423D01*
X130313625Y-138366424D01*
X130313624Y-138366424D01*
X130162394Y-138429066D01*
X130001848Y-138461000D01*
X129838152Y-138461000D01*
X129677606Y-138429066D01*
X129526376Y-138366424D01*
X129526375Y-138366424D01*
X129526374Y-138366423D01*
X129390268Y-138275480D01*
X129274520Y-138159732D01*
X129183577Y-138023626D01*
X129183358Y-138023097D01*
X129120934Y-137872394D01*
X129089000Y-137711848D01*
X129089000Y-137548152D01*
X129120934Y-137387606D01*
X129183576Y-137236376D01*
X129200314Y-137211326D01*
X129274520Y-137100268D01*
X129390268Y-136984520D01*
X129526374Y-136893577D01*
X129550784Y-136883466D01*
X129677606Y-136830934D01*
X129838152Y-136799000D01*
X130001848Y-136799000D01*
X130162394Y-136830934D01*
G37*
G36*
X127622394Y-136830934D02*
G01*
X127749216Y-136883466D01*
X127773626Y-136893577D01*
X127909732Y-136984520D01*
X128025480Y-137100268D01*
X128099686Y-137211326D01*
X128116424Y-137236376D01*
X128179066Y-137387606D01*
X128211000Y-137548152D01*
X128211000Y-137711848D01*
X128179066Y-137872394D01*
X128116642Y-138023097D01*
X128116423Y-138023626D01*
X128025480Y-138159732D01*
X127909732Y-138275480D01*
X127773626Y-138366423D01*
X127773625Y-138366424D01*
X127773624Y-138366424D01*
X127622394Y-138429066D01*
X127461848Y-138461000D01*
X127298152Y-138461000D01*
X127137606Y-138429066D01*
X126986376Y-138366424D01*
X126986375Y-138366424D01*
X126986374Y-138366423D01*
X126850268Y-138275480D01*
X126734520Y-138159732D01*
X126643577Y-138023626D01*
X126643358Y-138023097D01*
X126580934Y-137872394D01*
X126549000Y-137711848D01*
X126549000Y-137548152D01*
X126580934Y-137387606D01*
X126643576Y-137236376D01*
X126660314Y-137211326D01*
X126734520Y-137100268D01*
X126850268Y-136984520D01*
X126986374Y-136893577D01*
X127010784Y-136883466D01*
X127137606Y-136830934D01*
X127298152Y-136799000D01*
X127461848Y-136799000D01*
X127622394Y-136830934D01*
G37*
G36*
X125082394Y-136830934D02*
G01*
X125209216Y-136883466D01*
X125233626Y-136893577D01*
X125369732Y-136984520D01*
X125485480Y-137100268D01*
X125559686Y-137211326D01*
X125576424Y-137236376D01*
X125639066Y-137387606D01*
X125671000Y-137548152D01*
X125671000Y-137711848D01*
X125639066Y-137872394D01*
X125576642Y-138023097D01*
X125576423Y-138023626D01*
X125485480Y-138159732D01*
X125369732Y-138275480D01*
X125233626Y-138366423D01*
X125233625Y-138366424D01*
X125233624Y-138366424D01*
X125082394Y-138429066D01*
X124921848Y-138461000D01*
X124758152Y-138461000D01*
X124597606Y-138429066D01*
X124446376Y-138366424D01*
X124446375Y-138366424D01*
X124446374Y-138366423D01*
X124310268Y-138275480D01*
X124194520Y-138159732D01*
X124103577Y-138023626D01*
X124103358Y-138023097D01*
X124040934Y-137872394D01*
X124009000Y-137711848D01*
X124009000Y-137548152D01*
X124040934Y-137387606D01*
X124103576Y-137236376D01*
X124120314Y-137211326D01*
X124194520Y-137100268D01*
X124310268Y-136984520D01*
X124446374Y-136893577D01*
X124470784Y-136883466D01*
X124597606Y-136830934D01*
X124758152Y-136799000D01*
X124921848Y-136799000D01*
X125082394Y-136830934D01*
G37*
G36*
X122542394Y-136830934D02*
G01*
X122669216Y-136883466D01*
X122693626Y-136893577D01*
X122829732Y-136984520D01*
X122945480Y-137100268D01*
X123019686Y-137211326D01*
X123036424Y-137236376D01*
X123099066Y-137387606D01*
X123131000Y-137548152D01*
X123131000Y-137711848D01*
X123099066Y-137872394D01*
X123036642Y-138023097D01*
X123036423Y-138023626D01*
X122945480Y-138159732D01*
X122829732Y-138275480D01*
X122693626Y-138366423D01*
X122693625Y-138366424D01*
X122693624Y-138366424D01*
X122542394Y-138429066D01*
X122381848Y-138461000D01*
X122218152Y-138461000D01*
X122057606Y-138429066D01*
X121906376Y-138366424D01*
X121906375Y-138366424D01*
X121906374Y-138366423D01*
X121770268Y-138275480D01*
X121654520Y-138159732D01*
X121563577Y-138023626D01*
X121563358Y-138023097D01*
X121500934Y-137872394D01*
X121469000Y-137711848D01*
X121469000Y-137548152D01*
X121500934Y-137387606D01*
X121563576Y-137236376D01*
X121580314Y-137211326D01*
X121654520Y-137100268D01*
X121770268Y-136984520D01*
X121906374Y-136893577D01*
X121930784Y-136883466D01*
X122057606Y-136830934D01*
X122218152Y-136799000D01*
X122381848Y-136799000D01*
X122542394Y-136830934D01*
G37*
G36*
X120002394Y-136830934D02*
G01*
X120129216Y-136883466D01*
X120153626Y-136893577D01*
X120289732Y-136984520D01*
X120405480Y-137100268D01*
X120479686Y-137211326D01*
X120496424Y-137236376D01*
X120559066Y-137387606D01*
X120591000Y-137548152D01*
X120591000Y-137711848D01*
X120559066Y-137872394D01*
X120496642Y-138023097D01*
X120496423Y-138023626D01*
X120405480Y-138159732D01*
X120289732Y-138275480D01*
X120153626Y-138366423D01*
X120153625Y-138366424D01*
X120153624Y-138366424D01*
X120002394Y-138429066D01*
X119841848Y-138461000D01*
X119678152Y-138461000D01*
X119517606Y-138429066D01*
X119366376Y-138366424D01*
X119366375Y-138366424D01*
X119366374Y-138366423D01*
X119230268Y-138275480D01*
X119114520Y-138159732D01*
X119023577Y-138023626D01*
X119023358Y-138023097D01*
X118960934Y-137872394D01*
X118929000Y-137711848D01*
X118929000Y-137548152D01*
X118960934Y-137387606D01*
X119023576Y-137236376D01*
X119040314Y-137211326D01*
X119114520Y-137100268D01*
X119230268Y-136984520D01*
X119366374Y-136893577D01*
X119390784Y-136883466D01*
X119517606Y-136830934D01*
X119678152Y-136799000D01*
X119841848Y-136799000D01*
X120002394Y-136830934D01*
G37*
G36*
X137782394Y-136830934D02*
G01*
X137909216Y-136883466D01*
X137933626Y-136893577D01*
X138069732Y-136984520D01*
X138185480Y-137100268D01*
X138259686Y-137211326D01*
X138276424Y-137236376D01*
X138339066Y-137387606D01*
X138371000Y-137548152D01*
X138371000Y-137711848D01*
X138339066Y-137872394D01*
X138276642Y-138023097D01*
X138276423Y-138023626D01*
X138185480Y-138159732D01*
X138069732Y-138275480D01*
X137933626Y-138366423D01*
X137933625Y-138366424D01*
X137933624Y-138366424D01*
X137782394Y-138429066D01*
X137621848Y-138461000D01*
X137458152Y-138461000D01*
X137297606Y-138429066D01*
X137146376Y-138366424D01*
X137146375Y-138366424D01*
X137146374Y-138366423D01*
X137010268Y-138275480D01*
X136894520Y-138159732D01*
X136803577Y-138023626D01*
X136803358Y-138023097D01*
X136740934Y-137872394D01*
X136709000Y-137711848D01*
X136709000Y-137548152D01*
X136740934Y-137387606D01*
X136803576Y-137236376D01*
X136820314Y-137211326D01*
X136894520Y-137100268D01*
X137010268Y-136984520D01*
X137146374Y-136893577D01*
X137170784Y-136883466D01*
X137297606Y-136830934D01*
X137458152Y-136799000D01*
X137621848Y-136799000D01*
X137782394Y-136830934D01*
G37*
G36*
X112382394Y-136830934D02*
G01*
X112509216Y-136883466D01*
X112533626Y-136893577D01*
X112669732Y-136984520D01*
X112785480Y-137100268D01*
X112859686Y-137211326D01*
X112876424Y-137236376D01*
X112939066Y-137387606D01*
X112971000Y-137548152D01*
X112971000Y-137711848D01*
X112939066Y-137872394D01*
X112876642Y-138023097D01*
X112876423Y-138023626D01*
X112785480Y-138159732D01*
X112669732Y-138275480D01*
X112533626Y-138366423D01*
X112533625Y-138366424D01*
X112533624Y-138366424D01*
X112382394Y-138429066D01*
X112221848Y-138461000D01*
X112058152Y-138461000D01*
X111897606Y-138429066D01*
X111746376Y-138366424D01*
X111746375Y-138366424D01*
X111746374Y-138366423D01*
X111610268Y-138275480D01*
X111494520Y-138159732D01*
X111403577Y-138023626D01*
X111403358Y-138023097D01*
X111340934Y-137872394D01*
X111309000Y-137711848D01*
X111309000Y-137548152D01*
X111340934Y-137387606D01*
X111403576Y-137236376D01*
X111420314Y-137211326D01*
X111494520Y-137100268D01*
X111610268Y-136984520D01*
X111746374Y-136893577D01*
X111770784Y-136883466D01*
X111897606Y-136830934D01*
X112058152Y-136799000D01*
X112221848Y-136799000D01*
X112382394Y-136830934D01*
G37*
G36*
X109842394Y-136830934D02*
G01*
X109969216Y-136883466D01*
X109993626Y-136893577D01*
X110129732Y-136984520D01*
X110245480Y-137100268D01*
X110319686Y-137211326D01*
X110336424Y-137236376D01*
X110399066Y-137387606D01*
X110431000Y-137548152D01*
X110431000Y-137711848D01*
X110399066Y-137872394D01*
X110336642Y-138023097D01*
X110336423Y-138023626D01*
X110245480Y-138159732D01*
X110129732Y-138275480D01*
X109993626Y-138366423D01*
X109993625Y-138366424D01*
X109993624Y-138366424D01*
X109842394Y-138429066D01*
X109681848Y-138461000D01*
X109518152Y-138461000D01*
X109357606Y-138429066D01*
X109206376Y-138366424D01*
X109206375Y-138366424D01*
X109206374Y-138366423D01*
X109070268Y-138275480D01*
X108954520Y-138159732D01*
X108863577Y-138023626D01*
X108863358Y-138023097D01*
X108800934Y-137872394D01*
X108769000Y-137711848D01*
X108769000Y-137548152D01*
X108800934Y-137387606D01*
X108863576Y-137236376D01*
X108880314Y-137211326D01*
X108954520Y-137100268D01*
X109070268Y-136984520D01*
X109206374Y-136893577D01*
X109230784Y-136883466D01*
X109357606Y-136830934D01*
X109518152Y-136799000D01*
X109681848Y-136799000D01*
X109842394Y-136830934D01*
G37*
G36*
X107302394Y-136830934D02*
G01*
X107429216Y-136883466D01*
X107453626Y-136893577D01*
X107589732Y-136984520D01*
X107705480Y-137100268D01*
X107779686Y-137211326D01*
X107796424Y-137236376D01*
X107859066Y-137387606D01*
X107891000Y-137548152D01*
X107891000Y-137711848D01*
X107859066Y-137872394D01*
X107796642Y-138023097D01*
X107796423Y-138023626D01*
X107705480Y-138159732D01*
X107589732Y-138275480D01*
X107453626Y-138366423D01*
X107453625Y-138366424D01*
X107453624Y-138366424D01*
X107302394Y-138429066D01*
X107141848Y-138461000D01*
X106978152Y-138461000D01*
X106817606Y-138429066D01*
X106666376Y-138366424D01*
X106666375Y-138366424D01*
X106666374Y-138366423D01*
X106530268Y-138275480D01*
X106414520Y-138159732D01*
X106323577Y-138023626D01*
X106323358Y-138023097D01*
X106260934Y-137872394D01*
X106229000Y-137711848D01*
X106229000Y-137548152D01*
X106260934Y-137387606D01*
X106323576Y-137236376D01*
X106340314Y-137211326D01*
X106414520Y-137100268D01*
X106530268Y-136984520D01*
X106666374Y-136893577D01*
X106690784Y-136883466D01*
X106817606Y-136830934D01*
X106978152Y-136799000D01*
X107141848Y-136799000D01*
X107302394Y-136830934D01*
G37*
G36*
X104762394Y-136830934D02*
G01*
X104889216Y-136883466D01*
X104913626Y-136893577D01*
X105049732Y-136984520D01*
X105165480Y-137100268D01*
X105239686Y-137211326D01*
X105256424Y-137236376D01*
X105319066Y-137387606D01*
X105351000Y-137548152D01*
X105351000Y-137711848D01*
X105319066Y-137872394D01*
X105256642Y-138023097D01*
X105256423Y-138023626D01*
X105165480Y-138159732D01*
X105049732Y-138275480D01*
X104913626Y-138366423D01*
X104913625Y-138366424D01*
X104913624Y-138366424D01*
X104762394Y-138429066D01*
X104601848Y-138461000D01*
X104438152Y-138461000D01*
X104277606Y-138429066D01*
X104126376Y-138366424D01*
X104126375Y-138366424D01*
X104126374Y-138366423D01*
X103990268Y-138275480D01*
X103874520Y-138159732D01*
X103783577Y-138023626D01*
X103783358Y-138023097D01*
X103720934Y-137872394D01*
X103689000Y-137711848D01*
X103689000Y-137548152D01*
X103720934Y-137387606D01*
X103783576Y-137236376D01*
X103800314Y-137211326D01*
X103874520Y-137100268D01*
X103990268Y-136984520D01*
X104126374Y-136893577D01*
X104150784Y-136883466D01*
X104277606Y-136830934D01*
X104438152Y-136799000D01*
X104601848Y-136799000D01*
X104762394Y-136830934D01*
G37*
G36*
X102222394Y-136830934D02*
G01*
X102349216Y-136883466D01*
X102373626Y-136893577D01*
X102509732Y-136984520D01*
X102625480Y-137100268D01*
X102699686Y-137211326D01*
X102716424Y-137236376D01*
X102779066Y-137387606D01*
X102811000Y-137548152D01*
X102811000Y-137711848D01*
X102779066Y-137872394D01*
X102716642Y-138023097D01*
X102716423Y-138023626D01*
X102625480Y-138159732D01*
X102509732Y-138275480D01*
X102373626Y-138366423D01*
X102373625Y-138366424D01*
X102373624Y-138366424D01*
X102222394Y-138429066D01*
X102061848Y-138461000D01*
X101898152Y-138461000D01*
X101737606Y-138429066D01*
X101586376Y-138366424D01*
X101586375Y-138366424D01*
X101586374Y-138366423D01*
X101450268Y-138275480D01*
X101334520Y-138159732D01*
X101243577Y-138023626D01*
X101243358Y-138023097D01*
X101180934Y-137872394D01*
X101149000Y-137711848D01*
X101149000Y-137548152D01*
X101180934Y-137387606D01*
X101243576Y-137236376D01*
X101260314Y-137211326D01*
X101334520Y-137100268D01*
X101450268Y-136984520D01*
X101586374Y-136893577D01*
X101610784Y-136883466D01*
X101737606Y-136830934D01*
X101898152Y-136799000D01*
X102061848Y-136799000D01*
X102222394Y-136830934D01*
G37*
G36*
X147942394Y-136830934D02*
G01*
X148069216Y-136883466D01*
X148093626Y-136893577D01*
X148229732Y-136984520D01*
X148345480Y-137100268D01*
X148419686Y-137211326D01*
X148436424Y-137236376D01*
X148499066Y-137387606D01*
X148531000Y-137548152D01*
X148531000Y-137711848D01*
X148499066Y-137872394D01*
X148436642Y-138023097D01*
X148436423Y-138023626D01*
X148345480Y-138159732D01*
X148229732Y-138275480D01*
X148093626Y-138366423D01*
X148093625Y-138366424D01*
X148093624Y-138366424D01*
X147942394Y-138429066D01*
X147781848Y-138461000D01*
X147618152Y-138461000D01*
X147457606Y-138429066D01*
X147306376Y-138366424D01*
X147306375Y-138366424D01*
X147306374Y-138366423D01*
X147170268Y-138275480D01*
X147054520Y-138159732D01*
X146963577Y-138023626D01*
X146963358Y-138023097D01*
X146900934Y-137872394D01*
X146869000Y-137711848D01*
X146869000Y-137548152D01*
X146900934Y-137387606D01*
X146963576Y-137236376D01*
X146980314Y-137211326D01*
X147054520Y-137100268D01*
X147170268Y-136984520D01*
X147306374Y-136893577D01*
X147330784Y-136883466D01*
X147457606Y-136830934D01*
X147618152Y-136799000D01*
X147781848Y-136799000D01*
X147942394Y-136830934D01*
G37*
G36*
X145402394Y-136830934D02*
G01*
X145529216Y-136883466D01*
X145553626Y-136893577D01*
X145689732Y-136984520D01*
X145805480Y-137100268D01*
X145879686Y-137211326D01*
X145896424Y-137236376D01*
X145959066Y-137387606D01*
X145991000Y-137548152D01*
X145991000Y-137711848D01*
X145959066Y-137872394D01*
X145896642Y-138023097D01*
X145896423Y-138023626D01*
X145805480Y-138159732D01*
X145689732Y-138275480D01*
X145553626Y-138366423D01*
X145553625Y-138366424D01*
X145553624Y-138366424D01*
X145402394Y-138429066D01*
X145241848Y-138461000D01*
X145078152Y-138461000D01*
X144917606Y-138429066D01*
X144766376Y-138366424D01*
X144766375Y-138366424D01*
X144766374Y-138366423D01*
X144630268Y-138275480D01*
X144514520Y-138159732D01*
X144423577Y-138023626D01*
X144423358Y-138023097D01*
X144360934Y-137872394D01*
X144329000Y-137711848D01*
X144329000Y-137548152D01*
X144360934Y-137387606D01*
X144423576Y-137236376D01*
X144440314Y-137211326D01*
X144514520Y-137100268D01*
X144630268Y-136984520D01*
X144766374Y-136893577D01*
X144790784Y-136883466D01*
X144917606Y-136830934D01*
X145078152Y-136799000D01*
X145241848Y-136799000D01*
X145402394Y-136830934D01*
G37*
G36*
X140322394Y-136830934D02*
G01*
X140449216Y-136883466D01*
X140473626Y-136893577D01*
X140609732Y-136984520D01*
X140725480Y-137100268D01*
X140799686Y-137211326D01*
X140816424Y-137236376D01*
X140879066Y-137387606D01*
X140911000Y-137548152D01*
X140911000Y-137711848D01*
X140879066Y-137872394D01*
X140816642Y-138023097D01*
X140816423Y-138023626D01*
X140725480Y-138159732D01*
X140609732Y-138275480D01*
X140473626Y-138366423D01*
X140473625Y-138366424D01*
X140473624Y-138366424D01*
X140322394Y-138429066D01*
X140161848Y-138461000D01*
X139998152Y-138461000D01*
X139837606Y-138429066D01*
X139686376Y-138366424D01*
X139686375Y-138366424D01*
X139686374Y-138366423D01*
X139550268Y-138275480D01*
X139434520Y-138159732D01*
X139343577Y-138023626D01*
X139343358Y-138023097D01*
X139280934Y-137872394D01*
X139249000Y-137711848D01*
X139249000Y-137548152D01*
X139280934Y-137387606D01*
X139343576Y-137236376D01*
X139360314Y-137211326D01*
X139434520Y-137100268D01*
X139550268Y-136984520D01*
X139686374Y-136893577D01*
X139710784Y-136883466D01*
X139837606Y-136830934D01*
X139998152Y-136799000D01*
X140161848Y-136799000D01*
X140322394Y-136830934D01*
G37*
G36*
X142862394Y-136830934D02*
G01*
X142989216Y-136883466D01*
X143013626Y-136893577D01*
X143149732Y-136984520D01*
X143265480Y-137100268D01*
X143339686Y-137211326D01*
X143356424Y-137236376D01*
X143419066Y-137387606D01*
X143451000Y-137548152D01*
X143451000Y-137711848D01*
X143419066Y-137872394D01*
X143356642Y-138023097D01*
X143356423Y-138023626D01*
X143265480Y-138159732D01*
X143149732Y-138275480D01*
X143013626Y-138366423D01*
X143013625Y-138366424D01*
X143013624Y-138366424D01*
X142862394Y-138429066D01*
X142701848Y-138461000D01*
X142538152Y-138461000D01*
X142377606Y-138429066D01*
X142226376Y-138366424D01*
X142226375Y-138366424D01*
X142226374Y-138366423D01*
X142090268Y-138275480D01*
X141974520Y-138159732D01*
X141883577Y-138023626D01*
X141883358Y-138023097D01*
X141820934Y-137872394D01*
X141789000Y-137711848D01*
X141789000Y-137548152D01*
X141820934Y-137387606D01*
X141883576Y-137236376D01*
X141900314Y-137211326D01*
X141974520Y-137100268D01*
X142090268Y-136984520D01*
X142226374Y-136893577D01*
X142250784Y-136883466D01*
X142377606Y-136830934D01*
X142538152Y-136799000D01*
X142701848Y-136799000D01*
X142862394Y-136830934D01*
G37*
G36*
X117462394Y-136830934D02*
G01*
X117589216Y-136883466D01*
X117613626Y-136893577D01*
X117749732Y-136984520D01*
X117865480Y-137100268D01*
X117939686Y-137211326D01*
X117956424Y-137236376D01*
X118019066Y-137387606D01*
X118051000Y-137548152D01*
X118051000Y-137711848D01*
X118019066Y-137872394D01*
X117956642Y-138023097D01*
X117956423Y-138023626D01*
X117865480Y-138159732D01*
X117749732Y-138275480D01*
X117613626Y-138366423D01*
X117613625Y-138366424D01*
X117613624Y-138366424D01*
X117462394Y-138429066D01*
X117301848Y-138461000D01*
X117138152Y-138461000D01*
X116977606Y-138429066D01*
X116826376Y-138366424D01*
X116826375Y-138366424D01*
X116826374Y-138366423D01*
X116690268Y-138275480D01*
X116574520Y-138159732D01*
X116483577Y-138023626D01*
X116483358Y-138023097D01*
X116420934Y-137872394D01*
X116389000Y-137711848D01*
X116389000Y-137548152D01*
X116420934Y-137387606D01*
X116483576Y-137236376D01*
X116500314Y-137211326D01*
X116574520Y-137100268D01*
X116690268Y-136984520D01*
X116826374Y-136893577D01*
X116850784Y-136883466D01*
X116977606Y-136830934D01*
X117138152Y-136799000D01*
X117301848Y-136799000D01*
X117462394Y-136830934D01*
G37*
G36*
X176038674Y-136853465D02*
G01*
X176076367Y-136864899D01*
X176111103Y-136883466D01*
X176141548Y-136908452D01*
X176166534Y-136938897D01*
X176185101Y-136973633D01*
X176196535Y-137011326D01*
X176201000Y-137056661D01*
X176201000Y-138143339D01*
X176196535Y-138188674D01*
X176185101Y-138226367D01*
X176166534Y-138261103D01*
X176141548Y-138291548D01*
X176111103Y-138316534D01*
X176076367Y-138335101D01*
X176038674Y-138346535D01*
X175993339Y-138351000D01*
X175156661Y-138351000D01*
X175111326Y-138346535D01*
X175073633Y-138335101D01*
X175038897Y-138316534D01*
X175008452Y-138291548D01*
X174983466Y-138261103D01*
X174964899Y-138226367D01*
X174953465Y-138188674D01*
X174949000Y-138143339D01*
X174949000Y-137056661D01*
X174953465Y-137011326D01*
X174964899Y-136973633D01*
X174983466Y-136938897D01*
X175008452Y-136908452D01*
X175038897Y-136883466D01*
X175073633Y-136864899D01*
X175111326Y-136853465D01*
X175156661Y-136849000D01*
X175993339Y-136849000D01*
X176038674Y-136853465D01*
G37*
G36*
X178088674Y-136853465D02*
G01*
X178126367Y-136864899D01*
X178161103Y-136883466D01*
X178191548Y-136908452D01*
X178216534Y-136938897D01*
X178235101Y-136973633D01*
X178246535Y-137011326D01*
X178251000Y-137056661D01*
X178251000Y-138143339D01*
X178246535Y-138188674D01*
X178235101Y-138226367D01*
X178216534Y-138261103D01*
X178191548Y-138291548D01*
X178161103Y-138316534D01*
X178126367Y-138335101D01*
X178088674Y-138346535D01*
X178043339Y-138351000D01*
X177206661Y-138351000D01*
X177161326Y-138346535D01*
X177123633Y-138335101D01*
X177088897Y-138316534D01*
X177058452Y-138291548D01*
X177033466Y-138261103D01*
X177014899Y-138226367D01*
X177003465Y-138188674D01*
X176999000Y-138143339D01*
X176999000Y-137056661D01*
X177003465Y-137011326D01*
X177014899Y-136973633D01*
X177033466Y-136938897D01*
X177058452Y-136908452D01*
X177088897Y-136883466D01*
X177123633Y-136864899D01*
X177161326Y-136853465D01*
X177206661Y-136849000D01*
X178043339Y-136849000D01*
X178088674Y-136853465D01*
G37*
G36*
X160488674Y-134853465D02*
G01*
X160526367Y-134864899D01*
X160561103Y-134883466D01*
X160591548Y-134908452D01*
X160616534Y-134938897D01*
X160635101Y-134973633D01*
X160646535Y-135011326D01*
X160651000Y-135056661D01*
X160651000Y-136143339D01*
X160646535Y-136188674D01*
X160635101Y-136226367D01*
X160616534Y-136261103D01*
X160591548Y-136291548D01*
X160561103Y-136316534D01*
X160526367Y-136335101D01*
X160488674Y-136346535D01*
X160443339Y-136351000D01*
X159606661Y-136351000D01*
X159561326Y-136346535D01*
X159523633Y-136335101D01*
X159488897Y-136316534D01*
X159458452Y-136291548D01*
X159433466Y-136261103D01*
X159414899Y-136226367D01*
X159403465Y-136188674D01*
X159399000Y-136143339D01*
X159399000Y-135056661D01*
X159403465Y-135011326D01*
X159414899Y-134973633D01*
X159433466Y-134938897D01*
X159458452Y-134908452D01*
X159488897Y-134883466D01*
X159523633Y-134864899D01*
X159561326Y-134853465D01*
X159606661Y-134849000D01*
X160443339Y-134849000D01*
X160488674Y-134853465D01*
G37*
G36*
X158438674Y-134853465D02*
G01*
X158476367Y-134864899D01*
X158511103Y-134883466D01*
X158541548Y-134908452D01*
X158566534Y-134938897D01*
X158585101Y-134973633D01*
X158596535Y-135011326D01*
X158601000Y-135056661D01*
X158601000Y-136143339D01*
X158596535Y-136188674D01*
X158585101Y-136226367D01*
X158566534Y-136261103D01*
X158541548Y-136291548D01*
X158511103Y-136316534D01*
X158476367Y-136335101D01*
X158438674Y-136346535D01*
X158393339Y-136351000D01*
X157556661Y-136351000D01*
X157511326Y-136346535D01*
X157473633Y-136335101D01*
X157438897Y-136316534D01*
X157408452Y-136291548D01*
X157383466Y-136261103D01*
X157364899Y-136226367D01*
X157353465Y-136188674D01*
X157349000Y-136143339D01*
X157349000Y-135056661D01*
X157353465Y-135011326D01*
X157364899Y-134973633D01*
X157383466Y-134938897D01*
X157408452Y-134908452D01*
X157438897Y-134883466D01*
X157473633Y-134864899D01*
X157511326Y-134853465D01*
X157556661Y-134849000D01*
X158393339Y-134849000D01*
X158438674Y-134853465D01*
G37*
G36*
X190806564Y-133989389D02*
G01*
X190997833Y-134068615D01*
X190997835Y-134068616D01*
X191169973Y-134183635D01*
X191316365Y-134330027D01*
X191422370Y-134488674D01*
X191431385Y-134502167D01*
X191510611Y-134693436D01*
X191551000Y-134896484D01*
X191551000Y-135103516D01*
X191510611Y-135306564D01*
X191431385Y-135497833D01*
X191431384Y-135497835D01*
X191316365Y-135669973D01*
X191169973Y-135816365D01*
X190997835Y-135931384D01*
X190997834Y-135931385D01*
X190997833Y-135931385D01*
X190806564Y-136010611D01*
X190603516Y-136051000D01*
X190396484Y-136051000D01*
X190193436Y-136010611D01*
X190002167Y-135931385D01*
X190002166Y-135931385D01*
X190002165Y-135931384D01*
X189830027Y-135816365D01*
X189683635Y-135669973D01*
X189568616Y-135497835D01*
X189568615Y-135497833D01*
X189489389Y-135306564D01*
X189449000Y-135103516D01*
X189449000Y-134896484D01*
X189489389Y-134693436D01*
X189568615Y-134502167D01*
X189577631Y-134488674D01*
X189683635Y-134330027D01*
X189830027Y-134183635D01*
X190002165Y-134068616D01*
X190002167Y-134068615D01*
X190193436Y-133989389D01*
X190396484Y-133949000D01*
X190603516Y-133949000D01*
X190806564Y-133989389D01*
G37*
G36*
X184306564Y-133989389D02*
G01*
X184497833Y-134068615D01*
X184497835Y-134068616D01*
X184669973Y-134183635D01*
X184816365Y-134330027D01*
X184922370Y-134488674D01*
X184931385Y-134502167D01*
X185010611Y-134693436D01*
X185051000Y-134896484D01*
X185051000Y-135103516D01*
X185010611Y-135306564D01*
X184931385Y-135497833D01*
X184931384Y-135497835D01*
X184816365Y-135669973D01*
X184669973Y-135816365D01*
X184497835Y-135931384D01*
X184497834Y-135931385D01*
X184497833Y-135931385D01*
X184306564Y-136010611D01*
X184103516Y-136051000D01*
X183896484Y-136051000D01*
X183693436Y-136010611D01*
X183502167Y-135931385D01*
X183502166Y-135931385D01*
X183502165Y-135931384D01*
X183330027Y-135816365D01*
X183183635Y-135669973D01*
X183068616Y-135497835D01*
X183068615Y-135497833D01*
X182989389Y-135306564D01*
X182949000Y-135103516D01*
X182949000Y-134896484D01*
X182989389Y-134693436D01*
X183068615Y-134502167D01*
X183077631Y-134488674D01*
X183183635Y-134330027D01*
X183330027Y-134183635D01*
X183502165Y-134068616D01*
X183502167Y-134068615D01*
X183693436Y-133989389D01*
X183896484Y-133949000D01*
X184103516Y-133949000D01*
X184306564Y-133989389D01*
G37*
G36*
X164948228Y-134261703D02*
G01*
X165103100Y-134325853D01*
X165242481Y-134418985D01*
X165361015Y-134537519D01*
X165454147Y-134676900D01*
X165518297Y-134831772D01*
X165551000Y-134996184D01*
X165551000Y-135163816D01*
X165518297Y-135328228D01*
X165454147Y-135483100D01*
X165361015Y-135622481D01*
X165242481Y-135741015D01*
X165103100Y-135834147D01*
X164948228Y-135898297D01*
X164783816Y-135931000D01*
X164616184Y-135931000D01*
X164451772Y-135898297D01*
X164296900Y-135834147D01*
X164157519Y-135741015D01*
X164038985Y-135622481D01*
X163945853Y-135483100D01*
X163881703Y-135328228D01*
X163849000Y-135163816D01*
X163849000Y-134996184D01*
X163881703Y-134831772D01*
X163945853Y-134676900D01*
X164038985Y-134537519D01*
X164157519Y-134418985D01*
X164296900Y-134325853D01*
X164451772Y-134261703D01*
X164616184Y-134229000D01*
X164783816Y-134229000D01*
X164948228Y-134261703D01*
G37*
G36*
X172568228Y-134261703D02*
G01*
X172723100Y-134325853D01*
X172862481Y-134418985D01*
X172981015Y-134537519D01*
X173074147Y-134676900D01*
X173138297Y-134831772D01*
X173171000Y-134996184D01*
X173171000Y-135163816D01*
X173138297Y-135328228D01*
X173074147Y-135483100D01*
X172981015Y-135622481D01*
X172862481Y-135741015D01*
X172723100Y-135834147D01*
X172568228Y-135898297D01*
X172403816Y-135931000D01*
X172236184Y-135931000D01*
X172071772Y-135898297D01*
X171916900Y-135834147D01*
X171777519Y-135741015D01*
X171658985Y-135622481D01*
X171565853Y-135483100D01*
X171501703Y-135328228D01*
X171469000Y-135163816D01*
X171469000Y-134996184D01*
X171501703Y-134831772D01*
X171565853Y-134676900D01*
X171658985Y-134537519D01*
X171777519Y-134418985D01*
X171916900Y-134325853D01*
X172071772Y-134261703D01*
X172236184Y-134229000D01*
X172403816Y-134229000D01*
X172568228Y-134261703D01*
G37*
G36*
X209551000Y-135887000D02*
G01*
X207449000Y-135887000D01*
X207449000Y-133785000D01*
X209551000Y-133785000D01*
X209551000Y-135887000D01*
G37*
G36*
X194306564Y-133825389D02*
G01*
X194497833Y-133904615D01*
X194497835Y-133904616D01*
X194669973Y-134019635D01*
X194816365Y-134166027D01*
X194923157Y-134325852D01*
X194931385Y-134338167D01*
X195010611Y-134529436D01*
X195051000Y-134732484D01*
X195051000Y-134939516D01*
X195010611Y-135142564D01*
X194933706Y-135328229D01*
X194931384Y-135333835D01*
X194816365Y-135505973D01*
X194669973Y-135652365D01*
X194497835Y-135767384D01*
X194497834Y-135767385D01*
X194497833Y-135767385D01*
X194306564Y-135846611D01*
X194103516Y-135887000D01*
X193896484Y-135887000D01*
X193693436Y-135846611D01*
X193502167Y-135767385D01*
X193502166Y-135767385D01*
X193502165Y-135767384D01*
X193330027Y-135652365D01*
X193183635Y-135505973D01*
X193068616Y-135333835D01*
X193066294Y-135328229D01*
X192989389Y-135142564D01*
X192949000Y-134939516D01*
X192949000Y-134732484D01*
X192989389Y-134529436D01*
X193068615Y-134338167D01*
X193076844Y-134325852D01*
X193183635Y-134166027D01*
X193330027Y-134019635D01*
X193502165Y-133904616D01*
X193502167Y-133904615D01*
X193693436Y-133825389D01*
X193896484Y-133785000D01*
X194103516Y-133785000D01*
X194306564Y-133825389D01*
G37*
G36*
X181588674Y-134428465D02*
G01*
X181626367Y-134439899D01*
X181661103Y-134458466D01*
X181691548Y-134483452D01*
X181716534Y-134513897D01*
X181735101Y-134548633D01*
X181746535Y-134586326D01*
X181751000Y-134631661D01*
X181751000Y-135468339D01*
X181746535Y-135513674D01*
X181735101Y-135551367D01*
X181716534Y-135586103D01*
X181691548Y-135616548D01*
X181661103Y-135641534D01*
X181626367Y-135660101D01*
X181588674Y-135671535D01*
X181543339Y-135676000D01*
X180456661Y-135676000D01*
X180411326Y-135671535D01*
X180373633Y-135660101D01*
X180338897Y-135641534D01*
X180308452Y-135616548D01*
X180283466Y-135586103D01*
X180264899Y-135551367D01*
X180253465Y-135513674D01*
X180249000Y-135468339D01*
X180249000Y-134631661D01*
X180253465Y-134586326D01*
X180264899Y-134548633D01*
X180283466Y-134513897D01*
X180308452Y-134483452D01*
X180338897Y-134458466D01*
X180373633Y-134439899D01*
X180411326Y-134428465D01*
X180456661Y-134424000D01*
X181543339Y-134424000D01*
X181588674Y-134428465D01*
G37*
G36*
X175938674Y-133153465D02*
G01*
X175976367Y-133164899D01*
X176011103Y-133183466D01*
X176041548Y-133208452D01*
X176066534Y-133238897D01*
X176085101Y-133273633D01*
X176096535Y-133311326D01*
X176101000Y-133356661D01*
X176101000Y-134443339D01*
X176096535Y-134488674D01*
X176085101Y-134526367D01*
X176066534Y-134561103D01*
X176041548Y-134591548D01*
X176011103Y-134616534D01*
X175976367Y-134635101D01*
X175938674Y-134646535D01*
X175893339Y-134651000D01*
X175056661Y-134651000D01*
X175011326Y-134646535D01*
X174973633Y-134635101D01*
X174938897Y-134616534D01*
X174908452Y-134591548D01*
X174883466Y-134561103D01*
X174864899Y-134526367D01*
X174853465Y-134488674D01*
X174849000Y-134443339D01*
X174849000Y-133356661D01*
X174853465Y-133311326D01*
X174864899Y-133273633D01*
X174883466Y-133238897D01*
X174908452Y-133208452D01*
X174938897Y-133183466D01*
X174973633Y-133164899D01*
X175011326Y-133153465D01*
X175056661Y-133149000D01*
X175893339Y-133149000D01*
X175938674Y-133153465D01*
G37*
G36*
X177988674Y-133153465D02*
G01*
X178026367Y-133164899D01*
X178061103Y-133183466D01*
X178091548Y-133208452D01*
X178116534Y-133238897D01*
X178135101Y-133273633D01*
X178146535Y-133311326D01*
X178151000Y-133356661D01*
X178151000Y-134443339D01*
X178146535Y-134488674D01*
X178135101Y-134526367D01*
X178116534Y-134561103D01*
X178091548Y-134591548D01*
X178061103Y-134616534D01*
X178026367Y-134635101D01*
X177988674Y-134646535D01*
X177943339Y-134651000D01*
X177106661Y-134651000D01*
X177061326Y-134646535D01*
X177023633Y-134635101D01*
X176988897Y-134616534D01*
X176958452Y-134591548D01*
X176933466Y-134561103D01*
X176914899Y-134526367D01*
X176903465Y-134488674D01*
X176899000Y-134443339D01*
X176899000Y-133356661D01*
X176903465Y-133311326D01*
X176914899Y-133273633D01*
X176933466Y-133238897D01*
X176958452Y-133208452D01*
X176988897Y-133183466D01*
X177023633Y-133164899D01*
X177061326Y-133153465D01*
X177106661Y-133149000D01*
X177943339Y-133149000D01*
X177988674Y-133153465D01*
G37*
G36*
X181588674Y-132378465D02*
G01*
X181626367Y-132389899D01*
X181661103Y-132408466D01*
X181691548Y-132433452D01*
X181716534Y-132463897D01*
X181735101Y-132498633D01*
X181746535Y-132536326D01*
X181751000Y-132581661D01*
X181751000Y-133418339D01*
X181746535Y-133463674D01*
X181735101Y-133501367D01*
X181716534Y-133536103D01*
X181691548Y-133566548D01*
X181661103Y-133591534D01*
X181626367Y-133610101D01*
X181588674Y-133621535D01*
X181543339Y-133626000D01*
X180456661Y-133626000D01*
X180411326Y-133621535D01*
X180373633Y-133610101D01*
X180338897Y-133591534D01*
X180308452Y-133566548D01*
X180283466Y-133536103D01*
X180264899Y-133501367D01*
X180253465Y-133463674D01*
X180249000Y-133418339D01*
X180249000Y-132581661D01*
X180253465Y-132536326D01*
X180264899Y-132498633D01*
X180283466Y-132463897D01*
X180308452Y-132433452D01*
X180338897Y-132408466D01*
X180373633Y-132389899D01*
X180411326Y-132378465D01*
X180456661Y-132374000D01*
X181543339Y-132374000D01*
X181588674Y-132378465D01*
G37*
G36*
X164948228Y-131721703D02*
G01*
X165103100Y-131785853D01*
X165242481Y-131878985D01*
X165361015Y-131997519D01*
X165454147Y-132136900D01*
X165518297Y-132291772D01*
X165551000Y-132456184D01*
X165551000Y-132623816D01*
X165518297Y-132788228D01*
X165454147Y-132943100D01*
X165361015Y-133082481D01*
X165242481Y-133201015D01*
X165103100Y-133294147D01*
X164948228Y-133358297D01*
X164783816Y-133391000D01*
X164616184Y-133391000D01*
X164451772Y-133358297D01*
X164296900Y-133294147D01*
X164157519Y-133201015D01*
X164038985Y-133082481D01*
X163945853Y-132943100D01*
X163881703Y-132788228D01*
X163849000Y-132623816D01*
X163849000Y-132456184D01*
X163881703Y-132291772D01*
X163945853Y-132136900D01*
X164038985Y-131997519D01*
X164157519Y-131878985D01*
X164296900Y-131785853D01*
X164451772Y-131721703D01*
X164616184Y-131689000D01*
X164783816Y-131689000D01*
X164948228Y-131721703D01*
G37*
G36*
X172568228Y-131721703D02*
G01*
X172723100Y-131785853D01*
X172862481Y-131878985D01*
X172981015Y-131997519D01*
X173074147Y-132136900D01*
X173138297Y-132291772D01*
X173171000Y-132456184D01*
X173171000Y-132623816D01*
X173138297Y-132788228D01*
X173074147Y-132943100D01*
X172981015Y-133082481D01*
X172862481Y-133201015D01*
X172723100Y-133294147D01*
X172568228Y-133358297D01*
X172403816Y-133391000D01*
X172236184Y-133391000D01*
X172071772Y-133358297D01*
X171916900Y-133294147D01*
X171777519Y-133201015D01*
X171658985Y-133082481D01*
X171565853Y-132943100D01*
X171501703Y-132788228D01*
X171469000Y-132623816D01*
X171469000Y-132456184D01*
X171501703Y-132291772D01*
X171565853Y-132136900D01*
X171658985Y-131997519D01*
X171777519Y-131878985D01*
X171916900Y-131785853D01*
X172071772Y-131721703D01*
X172236184Y-131689000D01*
X172403816Y-131689000D01*
X172568228Y-131721703D01*
G37*
G36*
X208806564Y-131325389D02*
G01*
X208997833Y-131404615D01*
X208997835Y-131404616D01*
X209169973Y-131519635D01*
X209316365Y-131666027D01*
X209396430Y-131785852D01*
X209431385Y-131838167D01*
X209510611Y-132029436D01*
X209551000Y-132232484D01*
X209551000Y-132439516D01*
X209510611Y-132642564D01*
X209431385Y-132833833D01*
X209431384Y-132833835D01*
X209316365Y-133005973D01*
X209169973Y-133152365D01*
X208997835Y-133267384D01*
X208997834Y-133267385D01*
X208997833Y-133267385D01*
X208806564Y-133346611D01*
X208603516Y-133387000D01*
X208396484Y-133387000D01*
X208193436Y-133346611D01*
X208002167Y-133267385D01*
X208002166Y-133267385D01*
X208002165Y-133267384D01*
X207830027Y-133152365D01*
X207683635Y-133005973D01*
X207568616Y-132833835D01*
X207568615Y-132833833D01*
X207489389Y-132642564D01*
X207449000Y-132439516D01*
X207449000Y-132232484D01*
X207489389Y-132029436D01*
X207568615Y-131838167D01*
X207603571Y-131785852D01*
X207683635Y-131666027D01*
X207830027Y-131519635D01*
X208002165Y-131404616D01*
X208002167Y-131404615D01*
X208193436Y-131325389D01*
X208396484Y-131285000D01*
X208603516Y-131285000D01*
X208806564Y-131325389D01*
G37*
G36*
X161588674Y-131528465D02*
G01*
X161626367Y-131539899D01*
X161661103Y-131558466D01*
X161691548Y-131583452D01*
X161716534Y-131613897D01*
X161735101Y-131648633D01*
X161746535Y-131686326D01*
X161751000Y-131731661D01*
X161751000Y-132568339D01*
X161746535Y-132613674D01*
X161735101Y-132651367D01*
X161716534Y-132686103D01*
X161691548Y-132716548D01*
X161661103Y-132741534D01*
X161626367Y-132760101D01*
X161588674Y-132771535D01*
X161543339Y-132776000D01*
X160456661Y-132776000D01*
X160411326Y-132771535D01*
X160373633Y-132760101D01*
X160338897Y-132741534D01*
X160308452Y-132716548D01*
X160283466Y-132686103D01*
X160264899Y-132651367D01*
X160253465Y-132613674D01*
X160249000Y-132568339D01*
X160249000Y-131731661D01*
X160253465Y-131686326D01*
X160264899Y-131648633D01*
X160283466Y-131613897D01*
X160308452Y-131583452D01*
X160338897Y-131558466D01*
X160373633Y-131539899D01*
X160411326Y-131528465D01*
X160456661Y-131524000D01*
X161543339Y-131524000D01*
X161588674Y-131528465D01*
G37*
G36*
X190806564Y-129489389D02*
G01*
X190996529Y-129568075D01*
X190997835Y-129568616D01*
X191076492Y-129621173D01*
X191169973Y-129683635D01*
X191316365Y-129830027D01*
X191431385Y-130002167D01*
X191510611Y-130193436D01*
X191551000Y-130396484D01*
X191551000Y-130603516D01*
X191510611Y-130806564D01*
X191494023Y-130846610D01*
X191431384Y-130997835D01*
X191316365Y-131169973D01*
X191169973Y-131316365D01*
X190997835Y-131431384D01*
X190997834Y-131431385D01*
X190997833Y-131431385D01*
X190806564Y-131510611D01*
X190603516Y-131551000D01*
X190396484Y-131551000D01*
X190193436Y-131510611D01*
X190002167Y-131431385D01*
X190002166Y-131431385D01*
X190002165Y-131431384D01*
X189830027Y-131316365D01*
X189683635Y-131169973D01*
X189568616Y-130997835D01*
X189505977Y-130846610D01*
X189489389Y-130806564D01*
X189449000Y-130603516D01*
X189449000Y-130396484D01*
X189489389Y-130193436D01*
X189568615Y-130002167D01*
X189683635Y-129830027D01*
X189830027Y-129683635D01*
X189923508Y-129621173D01*
X190002165Y-129568616D01*
X190003471Y-129568075D01*
X190193436Y-129489389D01*
X190396484Y-129449000D01*
X190603516Y-129449000D01*
X190806564Y-129489389D01*
G37*
G36*
X184306564Y-129489389D02*
G01*
X184496529Y-129568075D01*
X184497835Y-129568616D01*
X184576492Y-129621173D01*
X184669973Y-129683635D01*
X184816365Y-129830027D01*
X184931385Y-130002167D01*
X185010611Y-130193436D01*
X185051000Y-130396484D01*
X185051000Y-130603516D01*
X185010611Y-130806564D01*
X184994023Y-130846610D01*
X184931384Y-130997835D01*
X184816365Y-131169973D01*
X184669973Y-131316365D01*
X184497835Y-131431384D01*
X184497834Y-131431385D01*
X184497833Y-131431385D01*
X184306564Y-131510611D01*
X184103516Y-131551000D01*
X183896484Y-131551000D01*
X183693436Y-131510611D01*
X183502167Y-131431385D01*
X183502166Y-131431385D01*
X183502165Y-131431384D01*
X183330027Y-131316365D01*
X183183635Y-131169973D01*
X183068616Y-130997835D01*
X183005977Y-130846610D01*
X182989389Y-130806564D01*
X182949000Y-130603516D01*
X182949000Y-130396484D01*
X182989389Y-130193436D01*
X183068615Y-130002167D01*
X183183635Y-129830027D01*
X183330027Y-129683635D01*
X183423508Y-129621173D01*
X183502165Y-129568616D01*
X183503471Y-129568075D01*
X183693436Y-129489389D01*
X183896484Y-129449000D01*
X184103516Y-129449000D01*
X184306564Y-129489389D01*
G37*
G36*
X194306564Y-128825389D02*
G01*
X194497833Y-128904615D01*
X194497835Y-128904616D01*
X194669973Y-129019635D01*
X194816365Y-129166027D01*
X194931385Y-129338167D01*
X195010611Y-129529436D01*
X195051000Y-129732484D01*
X195051000Y-129939516D01*
X195010611Y-130142564D01*
X194966843Y-130248229D01*
X194931384Y-130333835D01*
X194816365Y-130505973D01*
X194669973Y-130652365D01*
X194497835Y-130767384D01*
X194497834Y-130767385D01*
X194497833Y-130767385D01*
X194306564Y-130846611D01*
X194103516Y-130887000D01*
X193896484Y-130887000D01*
X193693436Y-130846611D01*
X193502167Y-130767385D01*
X193502166Y-130767385D01*
X193502165Y-130767384D01*
X193330027Y-130652365D01*
X193183635Y-130505973D01*
X193068616Y-130333835D01*
X193033157Y-130248229D01*
X192989389Y-130142564D01*
X192949000Y-129939516D01*
X192949000Y-129732484D01*
X192989389Y-129529436D01*
X193068615Y-129338167D01*
X193183635Y-129166027D01*
X193330027Y-129019635D01*
X193502165Y-128904616D01*
X193502167Y-128904615D01*
X193693436Y-128825389D01*
X193896484Y-128785000D01*
X194103516Y-128785000D01*
X194306564Y-128825389D01*
G37*
G36*
X208806564Y-128825389D02*
G01*
X208997833Y-128904615D01*
X208997835Y-128904616D01*
X209169973Y-129019635D01*
X209316365Y-129166027D01*
X209431385Y-129338167D01*
X209510611Y-129529436D01*
X209551000Y-129732484D01*
X209551000Y-129939516D01*
X209510611Y-130142564D01*
X209466843Y-130248229D01*
X209431384Y-130333835D01*
X209316365Y-130505973D01*
X209169973Y-130652365D01*
X208997835Y-130767384D01*
X208997834Y-130767385D01*
X208997833Y-130767385D01*
X208806564Y-130846611D01*
X208603516Y-130887000D01*
X208396484Y-130887000D01*
X208193436Y-130846611D01*
X208002167Y-130767385D01*
X208002166Y-130767385D01*
X208002165Y-130767384D01*
X207830027Y-130652365D01*
X207683635Y-130505973D01*
X207568616Y-130333835D01*
X207533157Y-130248229D01*
X207489389Y-130142564D01*
X207449000Y-129939516D01*
X207449000Y-129732484D01*
X207489389Y-129529436D01*
X207568615Y-129338167D01*
X207683635Y-129166027D01*
X207830027Y-129019635D01*
X208002165Y-128904616D01*
X208002167Y-128904615D01*
X208193436Y-128825389D01*
X208396484Y-128785000D01*
X208603516Y-128785000D01*
X208806564Y-128825389D01*
G37*
G36*
X172568228Y-129181703D02*
G01*
X172723100Y-129245853D01*
X172862481Y-129338985D01*
X172981015Y-129457519D01*
X173074147Y-129596900D01*
X173138297Y-129751772D01*
X173171000Y-129916184D01*
X173171000Y-130083816D01*
X173138297Y-130248228D01*
X173074147Y-130403100D01*
X172981015Y-130542481D01*
X172862481Y-130661015D01*
X172723100Y-130754147D01*
X172568228Y-130818297D01*
X172403816Y-130851000D01*
X172236184Y-130851000D01*
X172071772Y-130818297D01*
X171916900Y-130754147D01*
X171777519Y-130661015D01*
X171658985Y-130542481D01*
X171565853Y-130403100D01*
X171501703Y-130248228D01*
X171469000Y-130083816D01*
X171469000Y-129916184D01*
X171501703Y-129751772D01*
X171565853Y-129596900D01*
X171658985Y-129457519D01*
X171777519Y-129338985D01*
X171916900Y-129245853D01*
X172071772Y-129181703D01*
X172236184Y-129149000D01*
X172403816Y-129149000D01*
X172568228Y-129181703D01*
G37*
G36*
X165551000Y-130851000D02*
G01*
X163849000Y-130851000D01*
X163849000Y-129149000D01*
X165551000Y-129149000D01*
X165551000Y-130851000D01*
G37*
G36*
X177888674Y-129353465D02*
G01*
X177926367Y-129364899D01*
X177961103Y-129383466D01*
X177991548Y-129408452D01*
X178016534Y-129438897D01*
X178035101Y-129473633D01*
X178046535Y-129511326D01*
X178051000Y-129556661D01*
X178051000Y-130643339D01*
X178046535Y-130688674D01*
X178035101Y-130726367D01*
X178016534Y-130761103D01*
X177991548Y-130791548D01*
X177961103Y-130816534D01*
X177926367Y-130835101D01*
X177888674Y-130846535D01*
X177843339Y-130851000D01*
X177006661Y-130851000D01*
X176961326Y-130846535D01*
X176923633Y-130835101D01*
X176888897Y-130816534D01*
X176858452Y-130791548D01*
X176833466Y-130761103D01*
X176814899Y-130726367D01*
X176803465Y-130688674D01*
X176799000Y-130643339D01*
X176799000Y-129556661D01*
X176803465Y-129511326D01*
X176814899Y-129473633D01*
X176833466Y-129438897D01*
X176858452Y-129408452D01*
X176888897Y-129383466D01*
X176923633Y-129364899D01*
X176961326Y-129353465D01*
X177006661Y-129349000D01*
X177843339Y-129349000D01*
X177888674Y-129353465D01*
G37*
G36*
X175838674Y-129353465D02*
G01*
X175876367Y-129364899D01*
X175911103Y-129383466D01*
X175941548Y-129408452D01*
X175966534Y-129438897D01*
X175985101Y-129473633D01*
X175996535Y-129511326D01*
X176001000Y-129556661D01*
X176001000Y-130643339D01*
X175996535Y-130688674D01*
X175985101Y-130726367D01*
X175966534Y-130761103D01*
X175941548Y-130791548D01*
X175911103Y-130816534D01*
X175876367Y-130835101D01*
X175838674Y-130846535D01*
X175793339Y-130851000D01*
X174956661Y-130851000D01*
X174911326Y-130846535D01*
X174873633Y-130835101D01*
X174838897Y-130816534D01*
X174808452Y-130791548D01*
X174783466Y-130761103D01*
X174764899Y-130726367D01*
X174753465Y-130688674D01*
X174749000Y-130643339D01*
X174749000Y-129556661D01*
X174753465Y-129511326D01*
X174764899Y-129473633D01*
X174783466Y-129438897D01*
X174808452Y-129408452D01*
X174838897Y-129383466D01*
X174873633Y-129364899D01*
X174911326Y-129353465D01*
X174956661Y-129349000D01*
X175793339Y-129349000D01*
X175838674Y-129353465D01*
G37*
G36*
X161588674Y-129478465D02*
G01*
X161626367Y-129489899D01*
X161661103Y-129508466D01*
X161691548Y-129533452D01*
X161716534Y-129563897D01*
X161735101Y-129598633D01*
X161746535Y-129636326D01*
X161751000Y-129681661D01*
X161751000Y-130518339D01*
X161746535Y-130563674D01*
X161735101Y-130601367D01*
X161716534Y-130636103D01*
X161691548Y-130666548D01*
X161661103Y-130691534D01*
X161626367Y-130710101D01*
X161588674Y-130721535D01*
X161543339Y-130726000D01*
X160456661Y-130726000D01*
X160411326Y-130721535D01*
X160373633Y-130710101D01*
X160338897Y-130691534D01*
X160308452Y-130666548D01*
X160283466Y-130636103D01*
X160264899Y-130601367D01*
X160253465Y-130563674D01*
X160249000Y-130518339D01*
X160249000Y-129681661D01*
X160253465Y-129636326D01*
X160264899Y-129598633D01*
X160283466Y-129563897D01*
X160308452Y-129533452D01*
X160338897Y-129508466D01*
X160373633Y-129489899D01*
X160411326Y-129478465D01*
X160456661Y-129474000D01*
X161543339Y-129474000D01*
X161588674Y-129478465D01*
G37*
G36*
X202551000Y-128037000D02*
G01*
X199449000Y-128037000D01*
X199449000Y-125435000D01*
X202551000Y-125435000D01*
X202551000Y-128037000D01*
G37*
G36*
X112772923Y-125959607D02*
G01*
X112801611Y-125971491D01*
X112818420Y-125978453D01*
X112859366Y-126005812D01*
X112894188Y-126040634D01*
X112921547Y-126081580D01*
X112940393Y-126127078D01*
X112950000Y-126175377D01*
X112950000Y-126224623D01*
X112940393Y-126272922D01*
X112921547Y-126318420D01*
X112894188Y-126359366D01*
X112859366Y-126394188D01*
X112818420Y-126421547D01*
X112801611Y-126428509D01*
X112772923Y-126440393D01*
X112724624Y-126450000D01*
X112675376Y-126450000D01*
X112627077Y-126440393D01*
X112598389Y-126428509D01*
X112581580Y-126421547D01*
X112540634Y-126394188D01*
X112505812Y-126359366D01*
X112478453Y-126318420D01*
X112459607Y-126272922D01*
X112450000Y-126224623D01*
X112450000Y-126175377D01*
X112459607Y-126127078D01*
X112478453Y-126081580D01*
X112505812Y-126040634D01*
X112540634Y-126005812D01*
X112581580Y-125978453D01*
X112598389Y-125971491D01*
X112627077Y-125959607D01*
X112675376Y-125950000D01*
X112724624Y-125950000D01*
X112772923Y-125959607D01*
G37*
G36*
X112772923Y-123419607D02*
G01*
X112798694Y-123430282D01*
X112818420Y-123438453D01*
X112859366Y-123465812D01*
X112894188Y-123500634D01*
X112921547Y-123541580D01*
X112940393Y-123587078D01*
X112950000Y-123635377D01*
X112950000Y-123684623D01*
X112940393Y-123732922D01*
X112921547Y-123778420D01*
X112894188Y-123819366D01*
X112859366Y-123854188D01*
X112818420Y-123881547D01*
X112801611Y-123888509D01*
X112772923Y-123900393D01*
X112724624Y-123910000D01*
X112675376Y-123910000D01*
X112627077Y-123900393D01*
X112598389Y-123888509D01*
X112581580Y-123881547D01*
X112540634Y-123854188D01*
X112505812Y-123819366D01*
X112478453Y-123778420D01*
X112459607Y-123732922D01*
X112450000Y-123684623D01*
X112450000Y-123635377D01*
X112459607Y-123587078D01*
X112478453Y-123541580D01*
X112505812Y-123500634D01*
X112540634Y-123465812D01*
X112581580Y-123438453D01*
X112601306Y-123430282D01*
X112627077Y-123419607D01*
X112675376Y-123410000D01*
X112724624Y-123410000D01*
X112772923Y-123419607D01*
G37*
G36*
X209188674Y-122203465D02*
G01*
X209226367Y-122214899D01*
X209261103Y-122233466D01*
X209291548Y-122258452D01*
X209316534Y-122288897D01*
X209335101Y-122323633D01*
X209346535Y-122361326D01*
X209351000Y-122406661D01*
X209351000Y-123243339D01*
X209346535Y-123288674D01*
X209335101Y-123326367D01*
X209316534Y-123361103D01*
X209291548Y-123391548D01*
X209261103Y-123416534D01*
X209226367Y-123435101D01*
X209188674Y-123446535D01*
X209143339Y-123451000D01*
X208056661Y-123451000D01*
X208011326Y-123446535D01*
X207973633Y-123435101D01*
X207938897Y-123416534D01*
X207908452Y-123391548D01*
X207883466Y-123361103D01*
X207864899Y-123326367D01*
X207853465Y-123288674D01*
X207849000Y-123243339D01*
X207849000Y-122406661D01*
X207853465Y-122361326D01*
X207864899Y-122323633D01*
X207883466Y-122288897D01*
X207908452Y-122258452D01*
X207938897Y-122233466D01*
X207973633Y-122214899D01*
X208011326Y-122203465D01*
X208056661Y-122199000D01*
X209143339Y-122199000D01*
X209188674Y-122203465D01*
G37*
G36*
X206388674Y-122203465D02*
G01*
X206426367Y-122214899D01*
X206461103Y-122233466D01*
X206491548Y-122258452D01*
X206516534Y-122288897D01*
X206535101Y-122323633D01*
X206546535Y-122361326D01*
X206551000Y-122406661D01*
X206551000Y-123243339D01*
X206546535Y-123288674D01*
X206535101Y-123326367D01*
X206516534Y-123361103D01*
X206491548Y-123391548D01*
X206461103Y-123416534D01*
X206426367Y-123435101D01*
X206388674Y-123446535D01*
X206343339Y-123451000D01*
X205256661Y-123451000D01*
X205211326Y-123446535D01*
X205173633Y-123435101D01*
X205138897Y-123416534D01*
X205108452Y-123391548D01*
X205083466Y-123361103D01*
X205064899Y-123326367D01*
X205053465Y-123288674D01*
X205049000Y-123243339D01*
X205049000Y-122406661D01*
X205053465Y-122361326D01*
X205064899Y-122323633D01*
X205083466Y-122288897D01*
X205108452Y-122258452D01*
X205138897Y-122233466D01*
X205173633Y-122214899D01*
X205211326Y-122203465D01*
X205256661Y-122199000D01*
X206343339Y-122199000D01*
X206388674Y-122203465D01*
G37*
G36*
X209188674Y-120153465D02*
G01*
X209226367Y-120164899D01*
X209261103Y-120183466D01*
X209291548Y-120208452D01*
X209316534Y-120238897D01*
X209335101Y-120273633D01*
X209346535Y-120311326D01*
X209351000Y-120356661D01*
X209351000Y-121193339D01*
X209346535Y-121238674D01*
X209335101Y-121276367D01*
X209316534Y-121311103D01*
X209291548Y-121341548D01*
X209261103Y-121366534D01*
X209226367Y-121385101D01*
X209188674Y-121396535D01*
X209143339Y-121401000D01*
X208056661Y-121401000D01*
X208011326Y-121396535D01*
X207973633Y-121385101D01*
X207938897Y-121366534D01*
X207908452Y-121341548D01*
X207883466Y-121311103D01*
X207864899Y-121276367D01*
X207853465Y-121238674D01*
X207849000Y-121193339D01*
X207849000Y-120356661D01*
X207853465Y-120311326D01*
X207864899Y-120273633D01*
X207883466Y-120238897D01*
X207908452Y-120208452D01*
X207938897Y-120183466D01*
X207973633Y-120164899D01*
X208011326Y-120153465D01*
X208056661Y-120149000D01*
X209143339Y-120149000D01*
X209188674Y-120153465D01*
G37*
G36*
X206388674Y-120153465D02*
G01*
X206426367Y-120164899D01*
X206461103Y-120183466D01*
X206491548Y-120208452D01*
X206516534Y-120238897D01*
X206535101Y-120273633D01*
X206546535Y-120311326D01*
X206551000Y-120356661D01*
X206551000Y-121193339D01*
X206546535Y-121238674D01*
X206535101Y-121276367D01*
X206516534Y-121311103D01*
X206491548Y-121341548D01*
X206461103Y-121366534D01*
X206426367Y-121385101D01*
X206388674Y-121396535D01*
X206343339Y-121401000D01*
X205256661Y-121401000D01*
X205211326Y-121396535D01*
X205173633Y-121385101D01*
X205138897Y-121366534D01*
X205108452Y-121341548D01*
X205083466Y-121311103D01*
X205064899Y-121276367D01*
X205053465Y-121238674D01*
X205049000Y-121193339D01*
X205049000Y-120356661D01*
X205053465Y-120311326D01*
X205064899Y-120273633D01*
X205083466Y-120238897D01*
X205108452Y-120208452D01*
X205138897Y-120183466D01*
X205173633Y-120164899D01*
X205211326Y-120153465D01*
X205256661Y-120149000D01*
X206343339Y-120149000D01*
X206388674Y-120153465D01*
G37*
G36*
X200530674Y-119865465D02*
G01*
X200568367Y-119876899D01*
X200603103Y-119895466D01*
X200633548Y-119920452D01*
X200658534Y-119950897D01*
X200677101Y-119985633D01*
X200688535Y-120023326D01*
X200693000Y-120068661D01*
X200693000Y-121155339D01*
X200688535Y-121200674D01*
X200677101Y-121238367D01*
X200658534Y-121273103D01*
X200633548Y-121303548D01*
X200603103Y-121328534D01*
X200568367Y-121347101D01*
X200530674Y-121358535D01*
X200485339Y-121363000D01*
X199648661Y-121363000D01*
X199603326Y-121358535D01*
X199565633Y-121347101D01*
X199530897Y-121328534D01*
X199500452Y-121303548D01*
X199475466Y-121273103D01*
X199456899Y-121238367D01*
X199445465Y-121200674D01*
X199441000Y-121155339D01*
X199441000Y-120068661D01*
X199445465Y-120023326D01*
X199456899Y-119985633D01*
X199475466Y-119950897D01*
X199500452Y-119920452D01*
X199530897Y-119895466D01*
X199565633Y-119876899D01*
X199603326Y-119865465D01*
X199648661Y-119861000D01*
X200485339Y-119861000D01*
X200530674Y-119865465D01*
G37*
G36*
X202580674Y-119865465D02*
G01*
X202618367Y-119876899D01*
X202653103Y-119895466D01*
X202683548Y-119920452D01*
X202708534Y-119950897D01*
X202727101Y-119985633D01*
X202738535Y-120023326D01*
X202743000Y-120068661D01*
X202743000Y-121155339D01*
X202738535Y-121200674D01*
X202727101Y-121238367D01*
X202708534Y-121273103D01*
X202683548Y-121303548D01*
X202653103Y-121328534D01*
X202618367Y-121347101D01*
X202580674Y-121358535D01*
X202535339Y-121363000D01*
X201698661Y-121363000D01*
X201653326Y-121358535D01*
X201615633Y-121347101D01*
X201580897Y-121328534D01*
X201550452Y-121303548D01*
X201525466Y-121273103D01*
X201506899Y-121238367D01*
X201495465Y-121200674D01*
X201491000Y-121155339D01*
X201491000Y-120068661D01*
X201495465Y-120023326D01*
X201506899Y-119985633D01*
X201525466Y-119950897D01*
X201550452Y-119920452D01*
X201580897Y-119895466D01*
X201615633Y-119876899D01*
X201653326Y-119865465D01*
X201698661Y-119861000D01*
X202535339Y-119861000D01*
X202580674Y-119865465D01*
G37*
G36*
X188356674Y-119865465D02*
G01*
X188394367Y-119876899D01*
X188429103Y-119895466D01*
X188459548Y-119920452D01*
X188484534Y-119950897D01*
X188503101Y-119985633D01*
X188514535Y-120023326D01*
X188519000Y-120068661D01*
X188519000Y-121155339D01*
X188514535Y-121200674D01*
X188503101Y-121238367D01*
X188484534Y-121273103D01*
X188459548Y-121303548D01*
X188429103Y-121328534D01*
X188394367Y-121347101D01*
X188356674Y-121358535D01*
X188311339Y-121363000D01*
X187474661Y-121363000D01*
X187429326Y-121358535D01*
X187391633Y-121347101D01*
X187356897Y-121328534D01*
X187326452Y-121303548D01*
X187301466Y-121273103D01*
X187282899Y-121238367D01*
X187271465Y-121200674D01*
X187267000Y-121155339D01*
X187267000Y-120068661D01*
X187271465Y-120023326D01*
X187282899Y-119985633D01*
X187301466Y-119950897D01*
X187326452Y-119920452D01*
X187356897Y-119895466D01*
X187391633Y-119876899D01*
X187429326Y-119865465D01*
X187474661Y-119861000D01*
X188311339Y-119861000D01*
X188356674Y-119865465D01*
G37*
G36*
X186306674Y-119865465D02*
G01*
X186344367Y-119876899D01*
X186379103Y-119895466D01*
X186409548Y-119920452D01*
X186434534Y-119950897D01*
X186453101Y-119985633D01*
X186464535Y-120023326D01*
X186469000Y-120068661D01*
X186469000Y-121155339D01*
X186464535Y-121200674D01*
X186453101Y-121238367D01*
X186434534Y-121273103D01*
X186409548Y-121303548D01*
X186379103Y-121328534D01*
X186344367Y-121347101D01*
X186306674Y-121358535D01*
X186261339Y-121363000D01*
X185424661Y-121363000D01*
X185379326Y-121358535D01*
X185341633Y-121347101D01*
X185306897Y-121328534D01*
X185276452Y-121303548D01*
X185251466Y-121273103D01*
X185232899Y-121238367D01*
X185221465Y-121200674D01*
X185217000Y-121155339D01*
X185217000Y-120068661D01*
X185221465Y-120023326D01*
X185232899Y-119985633D01*
X185251466Y-119950897D01*
X185276452Y-119920452D01*
X185306897Y-119895466D01*
X185341633Y-119876899D01*
X185379326Y-119865465D01*
X185424661Y-119861000D01*
X186261339Y-119861000D01*
X186306674Y-119865465D01*
G37*
G36*
X163063674Y-118602465D02*
G01*
X163101367Y-118613899D01*
X163136103Y-118632466D01*
X163166548Y-118657452D01*
X163191534Y-118687897D01*
X163210101Y-118722633D01*
X163221535Y-118760326D01*
X163226000Y-118805661D01*
X163226000Y-119642339D01*
X163221535Y-119687674D01*
X163210101Y-119725367D01*
X163191534Y-119760103D01*
X163166548Y-119790548D01*
X163136103Y-119815534D01*
X163101367Y-119834101D01*
X163063674Y-119845535D01*
X163018339Y-119850000D01*
X161931661Y-119850000D01*
X161886326Y-119845535D01*
X161848633Y-119834101D01*
X161813897Y-119815534D01*
X161783452Y-119790548D01*
X161758466Y-119760103D01*
X161739899Y-119725367D01*
X161728465Y-119687674D01*
X161724000Y-119642339D01*
X161724000Y-118805661D01*
X161728465Y-118760326D01*
X161739899Y-118722633D01*
X161758466Y-118687897D01*
X161783452Y-118657452D01*
X161813897Y-118632466D01*
X161848633Y-118613899D01*
X161886326Y-118602465D01*
X161931661Y-118598000D01*
X163018339Y-118598000D01*
X163063674Y-118602465D01*
G37*
G36*
X171708674Y-117967465D02*
G01*
X171746367Y-117978899D01*
X171781103Y-117997466D01*
X171811548Y-118022452D01*
X171836534Y-118052897D01*
X171855101Y-118087633D01*
X171866535Y-118125326D01*
X171871000Y-118170661D01*
X171871000Y-119007339D01*
X171866535Y-119052674D01*
X171855101Y-119090367D01*
X171836534Y-119125103D01*
X171811548Y-119155548D01*
X171781103Y-119180534D01*
X171746367Y-119199101D01*
X171708674Y-119210535D01*
X171663339Y-119215000D01*
X170576661Y-119215000D01*
X170531326Y-119210535D01*
X170493633Y-119199101D01*
X170458897Y-119180534D01*
X170428452Y-119155548D01*
X170403466Y-119125103D01*
X170384899Y-119090367D01*
X170373465Y-119052674D01*
X170369000Y-119007339D01*
X170369000Y-118170661D01*
X170373465Y-118125326D01*
X170384899Y-118087633D01*
X170403466Y-118052897D01*
X170428452Y-118022452D01*
X170458897Y-117997466D01*
X170493633Y-117978899D01*
X170531326Y-117967465D01*
X170576661Y-117963000D01*
X171663339Y-117963000D01*
X171708674Y-117967465D01*
G37*
G36*
X209088674Y-117728465D02*
G01*
X209126367Y-117739899D01*
X209161103Y-117758466D01*
X209191548Y-117783452D01*
X209216534Y-117813897D01*
X209235101Y-117848633D01*
X209246535Y-117886326D01*
X209251000Y-117931661D01*
X209251000Y-118768339D01*
X209246535Y-118813674D01*
X209235101Y-118851367D01*
X209216534Y-118886103D01*
X209191548Y-118916548D01*
X209161103Y-118941534D01*
X209126367Y-118960101D01*
X209088674Y-118971535D01*
X209043339Y-118976000D01*
X207956661Y-118976000D01*
X207911326Y-118971535D01*
X207873633Y-118960101D01*
X207838897Y-118941534D01*
X207808452Y-118916548D01*
X207783466Y-118886103D01*
X207764899Y-118851367D01*
X207753465Y-118813674D01*
X207749000Y-118768339D01*
X207749000Y-117931661D01*
X207753465Y-117886326D01*
X207764899Y-117848633D01*
X207783466Y-117813897D01*
X207808452Y-117783452D01*
X207838897Y-117758466D01*
X207873633Y-117739899D01*
X207911326Y-117728465D01*
X207956661Y-117724000D01*
X209043339Y-117724000D01*
X209088674Y-117728465D01*
G37*
G36*
X168811000Y-118965000D02*
G01*
X167809000Y-118965000D01*
X167809000Y-118063000D01*
X168811000Y-118063000D01*
X168811000Y-118965000D01*
G37*
G36*
X206288674Y-117703465D02*
G01*
X206326367Y-117714899D01*
X206361103Y-117733466D01*
X206391548Y-117758452D01*
X206416534Y-117788897D01*
X206435101Y-117823633D01*
X206446535Y-117861326D01*
X206451000Y-117906661D01*
X206451000Y-118743339D01*
X206446535Y-118788674D01*
X206435101Y-118826367D01*
X206416534Y-118861103D01*
X206391548Y-118891548D01*
X206361103Y-118916534D01*
X206326367Y-118935101D01*
X206288674Y-118946535D01*
X206243339Y-118951000D01*
X205156661Y-118951000D01*
X205111326Y-118946535D01*
X205073633Y-118935101D01*
X205038897Y-118916534D01*
X205008452Y-118891548D01*
X204983466Y-118861103D01*
X204964899Y-118826367D01*
X204953465Y-118788674D01*
X204949000Y-118743339D01*
X204949000Y-117906661D01*
X204953465Y-117861326D01*
X204964899Y-117823633D01*
X204983466Y-117788897D01*
X205008452Y-117758452D01*
X205038897Y-117733466D01*
X205073633Y-117714899D01*
X205111326Y-117703465D01*
X205156661Y-117699000D01*
X206243339Y-117699000D01*
X206288674Y-117703465D01*
G37*
G36*
X181868674Y-116951465D02*
G01*
X181906367Y-116962899D01*
X181941103Y-116981466D01*
X181971548Y-117006452D01*
X181996534Y-117036897D01*
X182015101Y-117071633D01*
X182026535Y-117109326D01*
X182031000Y-117154661D01*
X182031000Y-117991339D01*
X182026535Y-118036674D01*
X182015101Y-118074367D01*
X181996534Y-118109103D01*
X181971548Y-118139548D01*
X181941103Y-118164534D01*
X181906367Y-118183101D01*
X181868674Y-118194535D01*
X181823339Y-118199000D01*
X180736661Y-118199000D01*
X180691326Y-118194535D01*
X180653633Y-118183101D01*
X180618897Y-118164534D01*
X180588452Y-118139548D01*
X180563466Y-118109103D01*
X180544899Y-118074367D01*
X180533465Y-118036674D01*
X180529000Y-117991339D01*
X180529000Y-117154661D01*
X180533465Y-117109326D01*
X180544899Y-117071633D01*
X180563466Y-117036897D01*
X180588452Y-117006452D01*
X180618897Y-116981466D01*
X180653633Y-116962899D01*
X180691326Y-116951465D01*
X180736661Y-116947000D01*
X181823339Y-116947000D01*
X181868674Y-116951465D01*
G37*
G36*
X166811000Y-118015000D02*
G01*
X165809000Y-118015000D01*
X165809000Y-117113000D01*
X166811000Y-117113000D01*
X166811000Y-118015000D01*
G37*
G36*
X163063674Y-116552465D02*
G01*
X163101367Y-116563899D01*
X163136103Y-116582466D01*
X163166548Y-116607452D01*
X163191534Y-116637897D01*
X163210101Y-116672633D01*
X163221535Y-116710326D01*
X163226000Y-116755661D01*
X163226000Y-117592339D01*
X163221535Y-117637674D01*
X163210101Y-117675367D01*
X163191534Y-117710103D01*
X163166548Y-117740548D01*
X163136103Y-117765534D01*
X163101367Y-117784101D01*
X163063674Y-117795535D01*
X163018339Y-117800000D01*
X161931661Y-117800000D01*
X161886326Y-117795535D01*
X161848633Y-117784101D01*
X161813897Y-117765534D01*
X161783452Y-117740548D01*
X161758466Y-117710103D01*
X161739899Y-117675367D01*
X161728465Y-117637674D01*
X161724000Y-117592339D01*
X161724000Y-116755661D01*
X161728465Y-116710326D01*
X161739899Y-116672633D01*
X161758466Y-116637897D01*
X161783452Y-116607452D01*
X161813897Y-116582466D01*
X161848633Y-116563899D01*
X161886326Y-116552465D01*
X161931661Y-116548000D01*
X163018339Y-116548000D01*
X163063674Y-116552465D01*
G37*
G36*
X195584674Y-116443465D02*
G01*
X195622367Y-116454899D01*
X195657103Y-116473466D01*
X195687548Y-116498452D01*
X195712534Y-116528897D01*
X195731101Y-116563633D01*
X195742535Y-116601326D01*
X195747000Y-116646661D01*
X195747000Y-117483339D01*
X195742535Y-117528674D01*
X195731101Y-117566367D01*
X195712534Y-117601103D01*
X195687548Y-117631548D01*
X195657103Y-117656534D01*
X195622367Y-117675101D01*
X195584674Y-117686535D01*
X195539339Y-117691000D01*
X194452661Y-117691000D01*
X194407326Y-117686535D01*
X194369633Y-117675101D01*
X194334897Y-117656534D01*
X194304452Y-117631548D01*
X194279466Y-117601103D01*
X194260899Y-117566367D01*
X194249465Y-117528674D01*
X194245000Y-117483339D01*
X194245000Y-116646661D01*
X194249465Y-116601326D01*
X194260899Y-116563633D01*
X194279466Y-116528897D01*
X194304452Y-116498452D01*
X194334897Y-116473466D01*
X194369633Y-116454899D01*
X194407326Y-116443465D01*
X194452661Y-116439000D01*
X195539339Y-116439000D01*
X195584674Y-116443465D01*
G37*
G36*
X200593000Y-117541000D02*
G01*
X199691000Y-117541000D01*
X199691000Y-116539000D01*
X200593000Y-116539000D01*
X200593000Y-117541000D01*
G37*
G36*
X188269000Y-117541000D02*
G01*
X187367000Y-117541000D01*
X187367000Y-116539000D01*
X188269000Y-116539000D01*
X188269000Y-117541000D01*
G37*
G36*
X202493000Y-117541000D02*
G01*
X201591000Y-117541000D01*
X201591000Y-116539000D01*
X202493000Y-116539000D01*
X202493000Y-117541000D01*
G37*
G36*
X186369000Y-117541000D02*
G01*
X185467000Y-117541000D01*
X185467000Y-116539000D01*
X186369000Y-116539000D01*
X186369000Y-117541000D01*
G37*
G36*
X171708674Y-115917465D02*
G01*
X171746367Y-115928899D01*
X171781103Y-115947466D01*
X171811548Y-115972452D01*
X171836534Y-116002897D01*
X171855101Y-116037633D01*
X171866535Y-116075326D01*
X171871000Y-116120661D01*
X171871000Y-116957339D01*
X171866535Y-117002674D01*
X171855101Y-117040367D01*
X171836534Y-117075103D01*
X171811548Y-117105548D01*
X171781103Y-117130534D01*
X171746367Y-117149101D01*
X171708674Y-117160535D01*
X171663339Y-117165000D01*
X170576661Y-117165000D01*
X170531326Y-117160535D01*
X170493633Y-117149101D01*
X170458897Y-117130534D01*
X170428452Y-117105548D01*
X170403466Y-117075103D01*
X170384899Y-117040367D01*
X170373465Y-117002674D01*
X170369000Y-116957339D01*
X170369000Y-116120661D01*
X170373465Y-116075326D01*
X170384899Y-116037633D01*
X170403466Y-116002897D01*
X170428452Y-115972452D01*
X170458897Y-115947466D01*
X170493633Y-115928899D01*
X170531326Y-115917465D01*
X170576661Y-115913000D01*
X171663339Y-115913000D01*
X171708674Y-115917465D01*
G37*
G36*
X168811000Y-117065000D02*
G01*
X167809000Y-117065000D01*
X167809000Y-116163000D01*
X168811000Y-116163000D01*
X168811000Y-117065000D01*
G37*
G36*
X209088674Y-115678465D02*
G01*
X209126367Y-115689899D01*
X209161103Y-115708466D01*
X209191548Y-115733452D01*
X209216534Y-115763897D01*
X209235101Y-115798633D01*
X209246535Y-115836326D01*
X209251000Y-115881661D01*
X209251000Y-116718339D01*
X209246535Y-116763674D01*
X209235101Y-116801367D01*
X209216534Y-116836103D01*
X209191548Y-116866548D01*
X209161103Y-116891534D01*
X209126367Y-116910101D01*
X209088674Y-116921535D01*
X209043339Y-116926000D01*
X207956661Y-116926000D01*
X207911326Y-116921535D01*
X207873633Y-116910101D01*
X207838897Y-116891534D01*
X207808452Y-116866548D01*
X207783466Y-116836103D01*
X207764899Y-116801367D01*
X207753465Y-116763674D01*
X207749000Y-116718339D01*
X207749000Y-115881661D01*
X207753465Y-115836326D01*
X207764899Y-115798633D01*
X207783466Y-115763897D01*
X207808452Y-115733452D01*
X207838897Y-115708466D01*
X207873633Y-115689899D01*
X207911326Y-115678465D01*
X207956661Y-115674000D01*
X209043339Y-115674000D01*
X209088674Y-115678465D01*
G37*
G36*
X206288674Y-115653465D02*
G01*
X206326367Y-115664899D01*
X206361103Y-115683466D01*
X206391548Y-115708452D01*
X206416534Y-115738897D01*
X206435101Y-115773633D01*
X206446535Y-115811326D01*
X206451000Y-115856661D01*
X206451000Y-116693339D01*
X206446535Y-116738674D01*
X206435101Y-116776367D01*
X206416534Y-116811103D01*
X206391548Y-116841548D01*
X206361103Y-116866534D01*
X206326367Y-116885101D01*
X206288674Y-116896535D01*
X206243339Y-116901000D01*
X205156661Y-116901000D01*
X205111326Y-116896535D01*
X205073633Y-116885101D01*
X205038897Y-116866534D01*
X205008452Y-116841548D01*
X204983466Y-116811103D01*
X204964899Y-116776367D01*
X204953465Y-116738674D01*
X204949000Y-116693339D01*
X204949000Y-115856661D01*
X204953465Y-115811326D01*
X204964899Y-115773633D01*
X204983466Y-115738897D01*
X205008452Y-115708452D01*
X205038897Y-115683466D01*
X205073633Y-115664899D01*
X205111326Y-115653465D01*
X205156661Y-115649000D01*
X206243339Y-115649000D01*
X206288674Y-115653465D01*
G37*
G36*
X181868674Y-114901465D02*
G01*
X181906367Y-114912899D01*
X181941103Y-114931466D01*
X181971548Y-114956452D01*
X181996534Y-114986897D01*
X182015101Y-115021633D01*
X182026535Y-115059326D01*
X182031000Y-115104661D01*
X182031000Y-115941339D01*
X182026535Y-115986674D01*
X182015101Y-116024367D01*
X181996534Y-116059103D01*
X181971548Y-116089548D01*
X181941103Y-116114534D01*
X181906367Y-116133101D01*
X181868674Y-116144535D01*
X181823339Y-116149000D01*
X180736661Y-116149000D01*
X180691326Y-116144535D01*
X180653633Y-116133101D01*
X180618897Y-116114534D01*
X180588452Y-116089548D01*
X180563466Y-116059103D01*
X180544899Y-116024367D01*
X180533465Y-115986674D01*
X180529000Y-115941339D01*
X180529000Y-115104661D01*
X180533465Y-115059326D01*
X180544899Y-115021633D01*
X180563466Y-114986897D01*
X180588452Y-114956452D01*
X180618897Y-114931466D01*
X180653633Y-114912899D01*
X180691326Y-114901465D01*
X180736661Y-114897000D01*
X181823339Y-114897000D01*
X181868674Y-114901465D01*
G37*
G36*
X195584674Y-114393465D02*
G01*
X195622367Y-114404899D01*
X195657103Y-114423466D01*
X195687548Y-114448452D01*
X195712534Y-114478897D01*
X195731101Y-114513633D01*
X195742535Y-114551326D01*
X195747000Y-114596661D01*
X195747000Y-115433339D01*
X195742535Y-115478674D01*
X195731101Y-115516367D01*
X195712534Y-115551103D01*
X195687548Y-115581548D01*
X195657103Y-115606534D01*
X195622367Y-115625101D01*
X195584674Y-115636535D01*
X195539339Y-115641000D01*
X194452661Y-115641000D01*
X194407326Y-115636535D01*
X194369633Y-115625101D01*
X194334897Y-115606534D01*
X194304452Y-115581548D01*
X194279466Y-115551103D01*
X194260899Y-115516367D01*
X194249465Y-115478674D01*
X194245000Y-115433339D01*
X194245000Y-114596661D01*
X194249465Y-114551326D01*
X194260899Y-114513633D01*
X194279466Y-114478897D01*
X194304452Y-114448452D01*
X194334897Y-114423466D01*
X194369633Y-114404899D01*
X194407326Y-114393465D01*
X194452661Y-114389000D01*
X195539339Y-114389000D01*
X195584674Y-114393465D01*
G37*
G36*
X187319000Y-115541000D02*
G01*
X186417000Y-115541000D01*
X186417000Y-114539000D01*
X187319000Y-114539000D01*
X187319000Y-115541000D01*
G37*
G36*
X201543000Y-115541000D02*
G01*
X200641000Y-115541000D01*
X200641000Y-114539000D01*
X201543000Y-114539000D01*
X201543000Y-115541000D01*
G37*
G36*
X102222394Y-111430934D02*
G01*
X102373624Y-111493576D01*
X102373626Y-111493577D01*
X102509732Y-111584520D01*
X102625480Y-111700268D01*
X102716423Y-111836374D01*
X102716424Y-111836376D01*
X102779066Y-111987606D01*
X102811000Y-112148152D01*
X102811000Y-112311848D01*
X102779066Y-112472394D01*
X102716424Y-112623624D01*
X102716423Y-112623626D01*
X102625480Y-112759732D01*
X102509732Y-112875480D01*
X102373626Y-112966423D01*
X102373625Y-112966424D01*
X102373624Y-112966424D01*
X102222394Y-113029066D01*
X102061848Y-113061000D01*
X101898152Y-113061000D01*
X101737606Y-113029066D01*
X101586376Y-112966424D01*
X101586375Y-112966424D01*
X101586374Y-112966423D01*
X101450268Y-112875480D01*
X101334520Y-112759732D01*
X101243577Y-112623626D01*
X101243576Y-112623624D01*
X101180934Y-112472394D01*
X101149000Y-112311848D01*
X101149000Y-112148152D01*
X101180934Y-111987606D01*
X101243576Y-111836376D01*
X101243577Y-111836374D01*
X101334520Y-111700268D01*
X101450268Y-111584520D01*
X101586374Y-111493577D01*
X101586376Y-111493576D01*
X101737606Y-111430934D01*
X101898152Y-111399000D01*
X102061848Y-111399000D01*
X102222394Y-111430934D01*
G37*
G36*
X127622394Y-111430934D02*
G01*
X127773624Y-111493576D01*
X127773626Y-111493577D01*
X127909732Y-111584520D01*
X128025480Y-111700268D01*
X128116423Y-111836374D01*
X128116424Y-111836376D01*
X128179066Y-111987606D01*
X128211000Y-112148152D01*
X128211000Y-112311848D01*
X128179066Y-112472394D01*
X128116424Y-112623624D01*
X128116423Y-112623626D01*
X128025480Y-112759732D01*
X127909732Y-112875480D01*
X127773626Y-112966423D01*
X127773625Y-112966424D01*
X127773624Y-112966424D01*
X127622394Y-113029066D01*
X127461848Y-113061000D01*
X127298152Y-113061000D01*
X127137606Y-113029066D01*
X126986376Y-112966424D01*
X126986375Y-112966424D01*
X126986374Y-112966423D01*
X126850268Y-112875480D01*
X126734520Y-112759732D01*
X126643577Y-112623626D01*
X126643576Y-112623624D01*
X126580934Y-112472394D01*
X126549000Y-112311848D01*
X126549000Y-112148152D01*
X126580934Y-111987606D01*
X126643576Y-111836376D01*
X126643577Y-111836374D01*
X126734520Y-111700268D01*
X126850268Y-111584520D01*
X126986374Y-111493577D01*
X126986376Y-111493576D01*
X127137606Y-111430934D01*
X127298152Y-111399000D01*
X127461848Y-111399000D01*
X127622394Y-111430934D01*
G37*
G36*
X107302394Y-111430934D02*
G01*
X107453624Y-111493576D01*
X107453626Y-111493577D01*
X107589732Y-111584520D01*
X107705480Y-111700268D01*
X107796423Y-111836374D01*
X107796424Y-111836376D01*
X107859066Y-111987606D01*
X107891000Y-112148152D01*
X107891000Y-112311848D01*
X107859066Y-112472394D01*
X107796424Y-112623624D01*
X107796423Y-112623626D01*
X107705480Y-112759732D01*
X107589732Y-112875480D01*
X107453626Y-112966423D01*
X107453625Y-112966424D01*
X107453624Y-112966424D01*
X107302394Y-113029066D01*
X107141848Y-113061000D01*
X106978152Y-113061000D01*
X106817606Y-113029066D01*
X106666376Y-112966424D01*
X106666375Y-112966424D01*
X106666374Y-112966423D01*
X106530268Y-112875480D01*
X106414520Y-112759732D01*
X106323577Y-112623626D01*
X106323576Y-112623624D01*
X106260934Y-112472394D01*
X106229000Y-112311848D01*
X106229000Y-112148152D01*
X106260934Y-111987606D01*
X106323576Y-111836376D01*
X106323577Y-111836374D01*
X106414520Y-111700268D01*
X106530268Y-111584520D01*
X106666374Y-111493577D01*
X106666376Y-111493576D01*
X106817606Y-111430934D01*
X106978152Y-111399000D01*
X107141848Y-111399000D01*
X107302394Y-111430934D01*
G37*
G36*
X109842394Y-111430934D02*
G01*
X109993624Y-111493576D01*
X109993626Y-111493577D01*
X110129732Y-111584520D01*
X110245480Y-111700268D01*
X110336423Y-111836374D01*
X110336424Y-111836376D01*
X110399066Y-111987606D01*
X110431000Y-112148152D01*
X110431000Y-112311848D01*
X110399066Y-112472394D01*
X110336424Y-112623624D01*
X110336423Y-112623626D01*
X110245480Y-112759732D01*
X110129732Y-112875480D01*
X109993626Y-112966423D01*
X109993625Y-112966424D01*
X109993624Y-112966424D01*
X109842394Y-113029066D01*
X109681848Y-113061000D01*
X109518152Y-113061000D01*
X109357606Y-113029066D01*
X109206376Y-112966424D01*
X109206375Y-112966424D01*
X109206374Y-112966423D01*
X109070268Y-112875480D01*
X108954520Y-112759732D01*
X108863577Y-112623626D01*
X108863576Y-112623624D01*
X108800934Y-112472394D01*
X108769000Y-112311848D01*
X108769000Y-112148152D01*
X108800934Y-111987606D01*
X108863576Y-111836376D01*
X108863577Y-111836374D01*
X108954520Y-111700268D01*
X109070268Y-111584520D01*
X109206374Y-111493577D01*
X109206376Y-111493576D01*
X109357606Y-111430934D01*
X109518152Y-111399000D01*
X109681848Y-111399000D01*
X109842394Y-111430934D01*
G37*
G36*
X112382394Y-111430934D02*
G01*
X112533624Y-111493576D01*
X112533626Y-111493577D01*
X112669732Y-111584520D01*
X112785480Y-111700268D01*
X112876423Y-111836374D01*
X112876424Y-111836376D01*
X112939066Y-111987606D01*
X112971000Y-112148152D01*
X112971000Y-112311848D01*
X112939066Y-112472394D01*
X112876424Y-112623624D01*
X112876423Y-112623626D01*
X112785480Y-112759732D01*
X112669732Y-112875480D01*
X112533626Y-112966423D01*
X112533625Y-112966424D01*
X112533624Y-112966424D01*
X112382394Y-113029066D01*
X112221848Y-113061000D01*
X112058152Y-113061000D01*
X111897606Y-113029066D01*
X111746376Y-112966424D01*
X111746375Y-112966424D01*
X111746374Y-112966423D01*
X111610268Y-112875480D01*
X111494520Y-112759732D01*
X111403577Y-112623626D01*
X111403576Y-112623624D01*
X111340934Y-112472394D01*
X111309000Y-112311848D01*
X111309000Y-112148152D01*
X111340934Y-111987606D01*
X111403576Y-111836376D01*
X111403577Y-111836374D01*
X111494520Y-111700268D01*
X111610268Y-111584520D01*
X111746374Y-111493577D01*
X111746376Y-111493576D01*
X111897606Y-111430934D01*
X112058152Y-111399000D01*
X112221848Y-111399000D01*
X112382394Y-111430934D01*
G37*
G36*
X114922394Y-111430934D02*
G01*
X115073624Y-111493576D01*
X115073626Y-111493577D01*
X115209732Y-111584520D01*
X115325480Y-111700268D01*
X115416423Y-111836374D01*
X115416424Y-111836376D01*
X115479066Y-111987606D01*
X115511000Y-112148152D01*
X115511000Y-112311848D01*
X115479066Y-112472394D01*
X115416424Y-112623624D01*
X115416423Y-112623626D01*
X115325480Y-112759732D01*
X115209732Y-112875480D01*
X115073626Y-112966423D01*
X115073625Y-112966424D01*
X115073624Y-112966424D01*
X114922394Y-113029066D01*
X114761848Y-113061000D01*
X114598152Y-113061000D01*
X114437606Y-113029066D01*
X114286376Y-112966424D01*
X114286375Y-112966424D01*
X114286374Y-112966423D01*
X114150268Y-112875480D01*
X114034520Y-112759732D01*
X113943577Y-112623626D01*
X113943576Y-112623624D01*
X113880934Y-112472394D01*
X113849000Y-112311848D01*
X113849000Y-112148152D01*
X113880934Y-111987606D01*
X113943576Y-111836376D01*
X113943577Y-111836374D01*
X114034520Y-111700268D01*
X114150268Y-111584520D01*
X114286374Y-111493577D01*
X114286376Y-111493576D01*
X114437606Y-111430934D01*
X114598152Y-111399000D01*
X114761848Y-111399000D01*
X114922394Y-111430934D01*
G37*
G36*
X117462394Y-111430934D02*
G01*
X117613624Y-111493576D01*
X117613626Y-111493577D01*
X117749732Y-111584520D01*
X117865480Y-111700268D01*
X117956423Y-111836374D01*
X117956424Y-111836376D01*
X118019066Y-111987606D01*
X118051000Y-112148152D01*
X118051000Y-112311848D01*
X118019066Y-112472394D01*
X117956424Y-112623624D01*
X117956423Y-112623626D01*
X117865480Y-112759732D01*
X117749732Y-112875480D01*
X117613626Y-112966423D01*
X117613625Y-112966424D01*
X117613624Y-112966424D01*
X117462394Y-113029066D01*
X117301848Y-113061000D01*
X117138152Y-113061000D01*
X116977606Y-113029066D01*
X116826376Y-112966424D01*
X116826375Y-112966424D01*
X116826374Y-112966423D01*
X116690268Y-112875480D01*
X116574520Y-112759732D01*
X116483577Y-112623626D01*
X116483576Y-112623624D01*
X116420934Y-112472394D01*
X116389000Y-112311848D01*
X116389000Y-112148152D01*
X116420934Y-111987606D01*
X116483576Y-111836376D01*
X116483577Y-111836374D01*
X116574520Y-111700268D01*
X116690268Y-111584520D01*
X116826374Y-111493577D01*
X116826376Y-111493576D01*
X116977606Y-111430934D01*
X117138152Y-111399000D01*
X117301848Y-111399000D01*
X117462394Y-111430934D01*
G37*
G36*
X120002394Y-111430934D02*
G01*
X120153624Y-111493576D01*
X120153626Y-111493577D01*
X120289732Y-111584520D01*
X120405480Y-111700268D01*
X120496423Y-111836374D01*
X120496424Y-111836376D01*
X120559066Y-111987606D01*
X120591000Y-112148152D01*
X120591000Y-112311848D01*
X120559066Y-112472394D01*
X120496424Y-112623624D01*
X120496423Y-112623626D01*
X120405480Y-112759732D01*
X120289732Y-112875480D01*
X120153626Y-112966423D01*
X120153625Y-112966424D01*
X120153624Y-112966424D01*
X120002394Y-113029066D01*
X119841848Y-113061000D01*
X119678152Y-113061000D01*
X119517606Y-113029066D01*
X119366376Y-112966424D01*
X119366375Y-112966424D01*
X119366374Y-112966423D01*
X119230268Y-112875480D01*
X119114520Y-112759732D01*
X119023577Y-112623626D01*
X119023576Y-112623624D01*
X118960934Y-112472394D01*
X118929000Y-112311848D01*
X118929000Y-112148152D01*
X118960934Y-111987606D01*
X119023576Y-111836376D01*
X119023577Y-111836374D01*
X119114520Y-111700268D01*
X119230268Y-111584520D01*
X119366374Y-111493577D01*
X119366376Y-111493576D01*
X119517606Y-111430934D01*
X119678152Y-111399000D01*
X119841848Y-111399000D01*
X120002394Y-111430934D01*
G37*
G36*
X148531000Y-113061000D02*
G01*
X146869000Y-113061000D01*
X146869000Y-111399000D01*
X148531000Y-111399000D01*
X148531000Y-113061000D01*
G37*
G36*
X122542394Y-111430934D02*
G01*
X122693624Y-111493576D01*
X122693626Y-111493577D01*
X122829732Y-111584520D01*
X122945480Y-111700268D01*
X123036423Y-111836374D01*
X123036424Y-111836376D01*
X123099066Y-111987606D01*
X123131000Y-112148152D01*
X123131000Y-112311848D01*
X123099066Y-112472394D01*
X123036424Y-112623624D01*
X123036423Y-112623626D01*
X122945480Y-112759732D01*
X122829732Y-112875480D01*
X122693626Y-112966423D01*
X122693625Y-112966424D01*
X122693624Y-112966424D01*
X122542394Y-113029066D01*
X122381848Y-113061000D01*
X122218152Y-113061000D01*
X122057606Y-113029066D01*
X121906376Y-112966424D01*
X121906375Y-112966424D01*
X121906374Y-112966423D01*
X121770268Y-112875480D01*
X121654520Y-112759732D01*
X121563577Y-112623626D01*
X121563576Y-112623624D01*
X121500934Y-112472394D01*
X121469000Y-112311848D01*
X121469000Y-112148152D01*
X121500934Y-111987606D01*
X121563576Y-111836376D01*
X121563577Y-111836374D01*
X121654520Y-111700268D01*
X121770268Y-111584520D01*
X121906374Y-111493577D01*
X121906376Y-111493576D01*
X122057606Y-111430934D01*
X122218152Y-111399000D01*
X122381848Y-111399000D01*
X122542394Y-111430934D01*
G37*
G36*
X145402394Y-111430934D02*
G01*
X145553624Y-111493576D01*
X145553626Y-111493577D01*
X145689732Y-111584520D01*
X145805480Y-111700268D01*
X145896423Y-111836374D01*
X145896424Y-111836376D01*
X145959066Y-111987606D01*
X145991000Y-112148152D01*
X145991000Y-112311848D01*
X145959066Y-112472394D01*
X145896424Y-112623624D01*
X145896423Y-112623626D01*
X145805480Y-112759732D01*
X145689732Y-112875480D01*
X145553626Y-112966423D01*
X145553625Y-112966424D01*
X145553624Y-112966424D01*
X145402394Y-113029066D01*
X145241848Y-113061000D01*
X145078152Y-113061000D01*
X144917606Y-113029066D01*
X144766376Y-112966424D01*
X144766375Y-112966424D01*
X144766374Y-112966423D01*
X144630268Y-112875480D01*
X144514520Y-112759732D01*
X144423577Y-112623626D01*
X144423576Y-112623624D01*
X144360934Y-112472394D01*
X144329000Y-112311848D01*
X144329000Y-112148152D01*
X144360934Y-111987606D01*
X144423576Y-111836376D01*
X144423577Y-111836374D01*
X144514520Y-111700268D01*
X144630268Y-111584520D01*
X144766374Y-111493577D01*
X144766376Y-111493576D01*
X144917606Y-111430934D01*
X145078152Y-111399000D01*
X145241848Y-111399000D01*
X145402394Y-111430934D01*
G37*
G36*
X125082394Y-111430934D02*
G01*
X125233624Y-111493576D01*
X125233626Y-111493577D01*
X125369732Y-111584520D01*
X125485480Y-111700268D01*
X125576423Y-111836374D01*
X125576424Y-111836376D01*
X125639066Y-111987606D01*
X125671000Y-112148152D01*
X125671000Y-112311848D01*
X125639066Y-112472394D01*
X125576424Y-112623624D01*
X125576423Y-112623626D01*
X125485480Y-112759732D01*
X125369732Y-112875480D01*
X125233626Y-112966423D01*
X125233625Y-112966424D01*
X125233624Y-112966424D01*
X125082394Y-113029066D01*
X124921848Y-113061000D01*
X124758152Y-113061000D01*
X124597606Y-113029066D01*
X124446376Y-112966424D01*
X124446375Y-112966424D01*
X124446374Y-112966423D01*
X124310268Y-112875480D01*
X124194520Y-112759732D01*
X124103577Y-112623626D01*
X124103576Y-112623624D01*
X124040934Y-112472394D01*
X124009000Y-112311848D01*
X124009000Y-112148152D01*
X124040934Y-111987606D01*
X124103576Y-111836376D01*
X124103577Y-111836374D01*
X124194520Y-111700268D01*
X124310268Y-111584520D01*
X124446374Y-111493577D01*
X124446376Y-111493576D01*
X124597606Y-111430934D01*
X124758152Y-111399000D01*
X124921848Y-111399000D01*
X125082394Y-111430934D01*
G37*
G36*
X130162394Y-111430934D02*
G01*
X130313624Y-111493576D01*
X130313626Y-111493577D01*
X130449732Y-111584520D01*
X130565480Y-111700268D01*
X130656423Y-111836374D01*
X130656424Y-111836376D01*
X130719066Y-111987606D01*
X130751000Y-112148152D01*
X130751000Y-112311848D01*
X130719066Y-112472394D01*
X130656424Y-112623624D01*
X130656423Y-112623626D01*
X130565480Y-112759732D01*
X130449732Y-112875480D01*
X130313626Y-112966423D01*
X130313625Y-112966424D01*
X130313624Y-112966424D01*
X130162394Y-113029066D01*
X130001848Y-113061000D01*
X129838152Y-113061000D01*
X129677606Y-113029066D01*
X129526376Y-112966424D01*
X129526375Y-112966424D01*
X129526374Y-112966423D01*
X129390268Y-112875480D01*
X129274520Y-112759732D01*
X129183577Y-112623626D01*
X129183576Y-112623624D01*
X129120934Y-112472394D01*
X129089000Y-112311848D01*
X129089000Y-112148152D01*
X129120934Y-111987606D01*
X129183576Y-111836376D01*
X129183577Y-111836374D01*
X129274520Y-111700268D01*
X129390268Y-111584520D01*
X129526374Y-111493577D01*
X129526376Y-111493576D01*
X129677606Y-111430934D01*
X129838152Y-111399000D01*
X130001848Y-111399000D01*
X130162394Y-111430934D01*
G37*
G36*
X104762394Y-111430934D02*
G01*
X104913624Y-111493576D01*
X104913626Y-111493577D01*
X105049732Y-111584520D01*
X105165480Y-111700268D01*
X105256423Y-111836374D01*
X105256424Y-111836376D01*
X105319066Y-111987606D01*
X105351000Y-112148152D01*
X105351000Y-112311848D01*
X105319066Y-112472394D01*
X105256424Y-112623624D01*
X105256423Y-112623626D01*
X105165480Y-112759732D01*
X105049732Y-112875480D01*
X104913626Y-112966423D01*
X104913625Y-112966424D01*
X104913624Y-112966424D01*
X104762394Y-113029066D01*
X104601848Y-113061000D01*
X104438152Y-113061000D01*
X104277606Y-113029066D01*
X104126376Y-112966424D01*
X104126375Y-112966424D01*
X104126374Y-112966423D01*
X103990268Y-112875480D01*
X103874520Y-112759732D01*
X103783577Y-112623626D01*
X103783576Y-112623624D01*
X103720934Y-112472394D01*
X103689000Y-112311848D01*
X103689000Y-112148152D01*
X103720934Y-111987606D01*
X103783576Y-111836376D01*
X103783577Y-111836374D01*
X103874520Y-111700268D01*
X103990268Y-111584520D01*
X104126374Y-111493577D01*
X104126376Y-111493576D01*
X104277606Y-111430934D01*
X104438152Y-111399000D01*
X104601848Y-111399000D01*
X104762394Y-111430934D01*
G37*
G36*
X132702394Y-111430934D02*
G01*
X132853624Y-111493576D01*
X132853626Y-111493577D01*
X132989732Y-111584520D01*
X133105480Y-111700268D01*
X133196423Y-111836374D01*
X133196424Y-111836376D01*
X133259066Y-111987606D01*
X133291000Y-112148152D01*
X133291000Y-112311848D01*
X133259066Y-112472394D01*
X133196424Y-112623624D01*
X133196423Y-112623626D01*
X133105480Y-112759732D01*
X132989732Y-112875480D01*
X132853626Y-112966423D01*
X132853625Y-112966424D01*
X132853624Y-112966424D01*
X132702394Y-113029066D01*
X132541848Y-113061000D01*
X132378152Y-113061000D01*
X132217606Y-113029066D01*
X132066376Y-112966424D01*
X132066375Y-112966424D01*
X132066374Y-112966423D01*
X131930268Y-112875480D01*
X131814520Y-112759732D01*
X131723577Y-112623626D01*
X131723576Y-112623624D01*
X131660934Y-112472394D01*
X131629000Y-112311848D01*
X131629000Y-112148152D01*
X131660934Y-111987606D01*
X131723576Y-111836376D01*
X131723577Y-111836374D01*
X131814520Y-111700268D01*
X131930268Y-111584520D01*
X132066374Y-111493577D01*
X132066376Y-111493576D01*
X132217606Y-111430934D01*
X132378152Y-111399000D01*
X132541848Y-111399000D01*
X132702394Y-111430934D01*
G37*
G36*
X137782394Y-111430934D02*
G01*
X137933624Y-111493576D01*
X137933626Y-111493577D01*
X138069732Y-111584520D01*
X138185480Y-111700268D01*
X138276423Y-111836374D01*
X138276424Y-111836376D01*
X138339066Y-111987606D01*
X138371000Y-112148152D01*
X138371000Y-112311848D01*
X138339066Y-112472394D01*
X138276424Y-112623624D01*
X138276423Y-112623626D01*
X138185480Y-112759732D01*
X138069732Y-112875480D01*
X137933626Y-112966423D01*
X137933625Y-112966424D01*
X137933624Y-112966424D01*
X137782394Y-113029066D01*
X137621848Y-113061000D01*
X137458152Y-113061000D01*
X137297606Y-113029066D01*
X137146376Y-112966424D01*
X137146375Y-112966424D01*
X137146374Y-112966423D01*
X137010268Y-112875480D01*
X136894520Y-112759732D01*
X136803577Y-112623626D01*
X136803576Y-112623624D01*
X136740934Y-112472394D01*
X136709000Y-112311848D01*
X136709000Y-112148152D01*
X136740934Y-111987606D01*
X136803576Y-111836376D01*
X136803577Y-111836374D01*
X136894520Y-111700268D01*
X137010268Y-111584520D01*
X137146374Y-111493577D01*
X137146376Y-111493576D01*
X137297606Y-111430934D01*
X137458152Y-111399000D01*
X137621848Y-111399000D01*
X137782394Y-111430934D01*
G37*
G36*
X135242394Y-111430934D02*
G01*
X135393624Y-111493576D01*
X135393626Y-111493577D01*
X135529732Y-111584520D01*
X135645480Y-111700268D01*
X135736423Y-111836374D01*
X135736424Y-111836376D01*
X135799066Y-111987606D01*
X135831000Y-112148152D01*
X135831000Y-112311848D01*
X135799066Y-112472394D01*
X135736424Y-112623624D01*
X135736423Y-112623626D01*
X135645480Y-112759732D01*
X135529732Y-112875480D01*
X135393626Y-112966423D01*
X135393625Y-112966424D01*
X135393624Y-112966424D01*
X135242394Y-113029066D01*
X135081848Y-113061000D01*
X134918152Y-113061000D01*
X134757606Y-113029066D01*
X134606376Y-112966424D01*
X134606375Y-112966424D01*
X134606374Y-112966423D01*
X134470268Y-112875480D01*
X134354520Y-112759732D01*
X134263577Y-112623626D01*
X134263576Y-112623624D01*
X134200934Y-112472394D01*
X134169000Y-112311848D01*
X134169000Y-112148152D01*
X134200934Y-111987606D01*
X134263576Y-111836376D01*
X134263577Y-111836374D01*
X134354520Y-111700268D01*
X134470268Y-111584520D01*
X134606374Y-111493577D01*
X134606376Y-111493576D01*
X134757606Y-111430934D01*
X134918152Y-111399000D01*
X135081848Y-111399000D01*
X135242394Y-111430934D01*
G37*
G36*
X142862394Y-111430934D02*
G01*
X143013624Y-111493576D01*
X143013626Y-111493577D01*
X143149732Y-111584520D01*
X143265480Y-111700268D01*
X143356423Y-111836374D01*
X143356424Y-111836376D01*
X143419066Y-111987606D01*
X143451000Y-112148152D01*
X143451000Y-112311848D01*
X143419066Y-112472394D01*
X143356424Y-112623624D01*
X143356423Y-112623626D01*
X143265480Y-112759732D01*
X143149732Y-112875480D01*
X143013626Y-112966423D01*
X143013625Y-112966424D01*
X143013624Y-112966424D01*
X142862394Y-113029066D01*
X142701848Y-113061000D01*
X142538152Y-113061000D01*
X142377606Y-113029066D01*
X142226376Y-112966424D01*
X142226375Y-112966424D01*
X142226374Y-112966423D01*
X142090268Y-112875480D01*
X141974520Y-112759732D01*
X141883577Y-112623626D01*
X141883576Y-112623624D01*
X141820934Y-112472394D01*
X141789000Y-112311848D01*
X141789000Y-112148152D01*
X141820934Y-111987606D01*
X141883576Y-111836376D01*
X141883577Y-111836374D01*
X141974520Y-111700268D01*
X142090268Y-111584520D01*
X142226374Y-111493577D01*
X142226376Y-111493576D01*
X142377606Y-111430934D01*
X142538152Y-111399000D01*
X142701848Y-111399000D01*
X142862394Y-111430934D01*
G37*
G36*
X140322394Y-111430934D02*
G01*
X140473624Y-111493576D01*
X140473626Y-111493577D01*
X140609732Y-111584520D01*
X140725480Y-111700268D01*
X140816423Y-111836374D01*
X140816424Y-111836376D01*
X140879066Y-111987606D01*
X140911000Y-112148152D01*
X140911000Y-112311848D01*
X140879066Y-112472394D01*
X140816424Y-112623624D01*
X140816423Y-112623626D01*
X140725480Y-112759732D01*
X140609732Y-112875480D01*
X140473626Y-112966423D01*
X140473625Y-112966424D01*
X140473624Y-112966424D01*
X140322394Y-113029066D01*
X140161848Y-113061000D01*
X139998152Y-113061000D01*
X139837606Y-113029066D01*
X139686376Y-112966424D01*
X139686375Y-112966424D01*
X139686374Y-112966423D01*
X139550268Y-112875480D01*
X139434520Y-112759732D01*
X139343577Y-112623626D01*
X139343576Y-112623624D01*
X139280934Y-112472394D01*
X139249000Y-112311848D01*
X139249000Y-112148152D01*
X139280934Y-111987606D01*
X139343576Y-111836376D01*
X139343577Y-111836374D01*
X139434520Y-111700268D01*
X139550268Y-111584520D01*
X139686374Y-111493577D01*
X139686376Y-111493576D01*
X139837606Y-111430934D01*
X139998152Y-111399000D01*
X140161848Y-111399000D01*
X140322394Y-111430934D01*
G37*
G36*
X147463674Y-108753465D02*
G01*
X147501367Y-108764899D01*
X147536103Y-108783466D01*
X147566548Y-108808452D01*
X147591534Y-108838897D01*
X147610101Y-108873633D01*
X147621535Y-108911326D01*
X147626000Y-108956661D01*
X147626000Y-110043339D01*
X147621535Y-110088674D01*
X147610101Y-110126367D01*
X147591534Y-110161103D01*
X147566548Y-110191548D01*
X147536103Y-110216534D01*
X147501367Y-110235101D01*
X147463674Y-110246535D01*
X147418339Y-110251000D01*
X146581661Y-110251000D01*
X146536326Y-110246535D01*
X146498633Y-110235101D01*
X146463897Y-110216534D01*
X146433452Y-110191548D01*
X146408466Y-110161103D01*
X146389899Y-110126367D01*
X146378465Y-110088674D01*
X146374000Y-110043339D01*
X146374000Y-108956661D01*
X146378465Y-108911326D01*
X146389899Y-108873633D01*
X146408466Y-108838897D01*
X146433452Y-108808452D01*
X146463897Y-108783466D01*
X146498633Y-108764899D01*
X146536326Y-108753465D01*
X146581661Y-108749000D01*
X147418339Y-108749000D01*
X147463674Y-108753465D01*
G37*
G36*
X140438674Y-108753465D02*
G01*
X140476367Y-108764899D01*
X140511103Y-108783466D01*
X140541548Y-108808452D01*
X140566534Y-108838897D01*
X140585101Y-108873633D01*
X140596535Y-108911326D01*
X140601000Y-108956661D01*
X140601000Y-110043339D01*
X140596535Y-110088674D01*
X140585101Y-110126367D01*
X140566534Y-110161103D01*
X140541548Y-110191548D01*
X140511103Y-110216534D01*
X140476367Y-110235101D01*
X140438674Y-110246535D01*
X140393339Y-110251000D01*
X139556661Y-110251000D01*
X139511326Y-110246535D01*
X139473633Y-110235101D01*
X139438897Y-110216534D01*
X139408452Y-110191548D01*
X139383466Y-110161103D01*
X139364899Y-110126367D01*
X139353465Y-110088674D01*
X139349000Y-110043339D01*
X139349000Y-108956661D01*
X139353465Y-108911326D01*
X139364899Y-108873633D01*
X139383466Y-108838897D01*
X139408452Y-108808452D01*
X139438897Y-108783466D01*
X139473633Y-108764899D01*
X139511326Y-108753465D01*
X139556661Y-108749000D01*
X140393339Y-108749000D01*
X140438674Y-108753465D01*
G37*
G36*
X142488674Y-108753465D02*
G01*
X142526367Y-108764899D01*
X142561103Y-108783466D01*
X142591548Y-108808452D01*
X142616534Y-108838897D01*
X142635101Y-108873633D01*
X142646535Y-108911326D01*
X142651000Y-108956661D01*
X142651000Y-110043339D01*
X142646535Y-110088674D01*
X142635101Y-110126367D01*
X142616534Y-110161103D01*
X142591548Y-110191548D01*
X142561103Y-110216534D01*
X142526367Y-110235101D01*
X142488674Y-110246535D01*
X142443339Y-110251000D01*
X141606661Y-110251000D01*
X141561326Y-110246535D01*
X141523633Y-110235101D01*
X141488897Y-110216534D01*
X141458452Y-110191548D01*
X141433466Y-110161103D01*
X141414899Y-110126367D01*
X141403465Y-110088674D01*
X141399000Y-110043339D01*
X141399000Y-108956661D01*
X141403465Y-108911326D01*
X141414899Y-108873633D01*
X141433466Y-108838897D01*
X141458452Y-108808452D01*
X141488897Y-108783466D01*
X141523633Y-108764899D01*
X141561326Y-108753465D01*
X141606661Y-108749000D01*
X142443339Y-108749000D01*
X142488674Y-108753465D01*
G37*
G36*
X145413674Y-108753465D02*
G01*
X145451367Y-108764899D01*
X145486103Y-108783466D01*
X145516548Y-108808452D01*
X145541534Y-108838897D01*
X145560101Y-108873633D01*
X145571535Y-108911326D01*
X145576000Y-108956661D01*
X145576000Y-110043339D01*
X145571535Y-110088674D01*
X145560101Y-110126367D01*
X145541534Y-110161103D01*
X145516548Y-110191548D01*
X145486103Y-110216534D01*
X145451367Y-110235101D01*
X145413674Y-110246535D01*
X145368339Y-110251000D01*
X144531661Y-110251000D01*
X144486326Y-110246535D01*
X144448633Y-110235101D01*
X144413897Y-110216534D01*
X144383452Y-110191548D01*
X144358466Y-110161103D01*
X144339899Y-110126367D01*
X144328465Y-110088674D01*
X144324000Y-110043339D01*
X144324000Y-108956661D01*
X144328465Y-108911326D01*
X144339899Y-108873633D01*
X144358466Y-108838897D01*
X144383452Y-108808452D01*
X144413897Y-108783466D01*
X144448633Y-108764899D01*
X144486326Y-108753465D01*
X144531661Y-108749000D01*
X145368339Y-108749000D01*
X145413674Y-108753465D01*
G37*
G36*
X119513674Y-107153465D02*
G01*
X119551367Y-107164899D01*
X119586103Y-107183466D01*
X119616548Y-107208452D01*
X119641534Y-107238897D01*
X119660101Y-107273633D01*
X119671535Y-107311326D01*
X119676000Y-107356661D01*
X119676000Y-108443339D01*
X119671535Y-108488674D01*
X119660101Y-108526367D01*
X119641534Y-108561103D01*
X119616548Y-108591548D01*
X119586103Y-108616534D01*
X119551367Y-108635101D01*
X119513674Y-108646535D01*
X119468339Y-108651000D01*
X118631661Y-108651000D01*
X118586326Y-108646535D01*
X118548633Y-108635101D01*
X118513897Y-108616534D01*
X118483452Y-108591548D01*
X118458466Y-108561103D01*
X118439899Y-108526367D01*
X118428465Y-108488674D01*
X118424000Y-108443339D01*
X118424000Y-107356661D01*
X118428465Y-107311326D01*
X118439899Y-107273633D01*
X118458466Y-107238897D01*
X118483452Y-107208452D01*
X118513897Y-107183466D01*
X118548633Y-107164899D01*
X118586326Y-107153465D01*
X118631661Y-107149000D01*
X119468339Y-107149000D01*
X119513674Y-107153465D01*
G37*
G36*
X117463674Y-107153465D02*
G01*
X117501367Y-107164899D01*
X117536103Y-107183466D01*
X117566548Y-107208452D01*
X117591534Y-107238897D01*
X117610101Y-107273633D01*
X117621535Y-107311326D01*
X117626000Y-107356661D01*
X117626000Y-108443339D01*
X117621535Y-108488674D01*
X117610101Y-108526367D01*
X117591534Y-108561103D01*
X117566548Y-108591548D01*
X117536103Y-108616534D01*
X117501367Y-108635101D01*
X117463674Y-108646535D01*
X117418339Y-108651000D01*
X116581661Y-108651000D01*
X116536326Y-108646535D01*
X116498633Y-108635101D01*
X116463897Y-108616534D01*
X116433452Y-108591548D01*
X116408466Y-108561103D01*
X116389899Y-108526367D01*
X116378465Y-108488674D01*
X116374000Y-108443339D01*
X116374000Y-107356661D01*
X116378465Y-107311326D01*
X116389899Y-107273633D01*
X116408466Y-107238897D01*
X116433452Y-107208452D01*
X116463897Y-107183466D01*
X116498633Y-107164899D01*
X116536326Y-107153465D01*
X116581661Y-107149000D01*
X117418339Y-107149000D01*
X117463674Y-107153465D01*
G37*
G36*
X108001000Y-108651000D02*
G01*
X105799000Y-108651000D01*
X105799000Y-107149000D01*
X108001000Y-107149000D01*
X108001000Y-108651000D01*
G37*
G36*
X114751000Y-108601000D02*
G01*
X112849000Y-108601000D01*
X112849000Y-106199000D01*
X114751000Y-106199000D01*
X114751000Y-108601000D01*
G37*
G36*
X207301000Y-108371000D02*
G01*
X204699000Y-108371000D01*
X204699000Y-105769000D01*
X207301000Y-105769000D01*
X207301000Y-108371000D01*
G37*
G36*
X151591000Y-107201000D02*
G01*
X146649000Y-107201000D01*
X146649000Y-103899000D01*
X151591000Y-103899000D01*
X151591000Y-107201000D01*
G37*
G36*
X139851000Y-107201000D02*
G01*
X134909000Y-107201000D01*
X134909000Y-103899000D01*
X139851000Y-103899000D01*
X139851000Y-107201000D01*
G37*
G36*
X129638674Y-105653465D02*
G01*
X129676367Y-105664899D01*
X129711103Y-105683466D01*
X129741548Y-105708452D01*
X129766534Y-105738897D01*
X129785101Y-105773633D01*
X129796535Y-105811326D01*
X129801000Y-105856661D01*
X129801000Y-106943339D01*
X129796535Y-106988674D01*
X129785101Y-107026367D01*
X129766534Y-107061103D01*
X129741548Y-107091548D01*
X129711103Y-107116534D01*
X129676367Y-107135101D01*
X129638674Y-107146535D01*
X129593339Y-107151000D01*
X128756661Y-107151000D01*
X128711326Y-107146535D01*
X128673633Y-107135101D01*
X128638897Y-107116534D01*
X128608452Y-107091548D01*
X128583466Y-107061103D01*
X128564899Y-107026367D01*
X128553465Y-106988674D01*
X128549000Y-106943339D01*
X128549000Y-105856661D01*
X128553465Y-105811326D01*
X128564899Y-105773633D01*
X128583466Y-105738897D01*
X128608452Y-105708452D01*
X128638897Y-105683466D01*
X128673633Y-105664899D01*
X128711326Y-105653465D01*
X128756661Y-105649000D01*
X129593339Y-105649000D01*
X129638674Y-105653465D01*
G37*
G36*
X131688674Y-105653465D02*
G01*
X131726367Y-105664899D01*
X131761103Y-105683466D01*
X131791548Y-105708452D01*
X131816534Y-105738897D01*
X131835101Y-105773633D01*
X131846535Y-105811326D01*
X131851000Y-105856661D01*
X131851000Y-106943339D01*
X131846535Y-106988674D01*
X131835101Y-107026367D01*
X131816534Y-107061103D01*
X131791548Y-107091548D01*
X131761103Y-107116534D01*
X131726367Y-107135101D01*
X131688674Y-107146535D01*
X131643339Y-107151000D01*
X130806661Y-107151000D01*
X130761326Y-107146535D01*
X130723633Y-107135101D01*
X130688897Y-107116534D01*
X130658452Y-107091548D01*
X130633466Y-107061103D01*
X130614899Y-107026367D01*
X130603465Y-106988674D01*
X130599000Y-106943339D01*
X130599000Y-105856661D01*
X130603465Y-105811326D01*
X130614899Y-105773633D01*
X130633466Y-105738897D01*
X130658452Y-105708452D01*
X130688897Y-105683466D01*
X130723633Y-105664899D01*
X130761326Y-105653465D01*
X130806661Y-105649000D01*
X131643339Y-105649000D01*
X131688674Y-105653465D01*
G37*
G36*
X119463674Y-104853465D02*
G01*
X119501367Y-104864899D01*
X119536103Y-104883466D01*
X119566548Y-104908452D01*
X119591534Y-104938897D01*
X119610101Y-104973633D01*
X119621535Y-105011326D01*
X119626000Y-105056661D01*
X119626000Y-106143339D01*
X119621535Y-106188674D01*
X119610101Y-106226367D01*
X119591534Y-106261103D01*
X119566548Y-106291548D01*
X119536103Y-106316534D01*
X119501367Y-106335101D01*
X119463674Y-106346535D01*
X119418339Y-106351000D01*
X118581661Y-106351000D01*
X118536326Y-106346535D01*
X118498633Y-106335101D01*
X118463897Y-106316534D01*
X118433452Y-106291548D01*
X118408466Y-106261103D01*
X118389899Y-106226367D01*
X118378465Y-106188674D01*
X118374000Y-106143339D01*
X118374000Y-105056661D01*
X118378465Y-105011326D01*
X118389899Y-104973633D01*
X118408466Y-104938897D01*
X118433452Y-104908452D01*
X118463897Y-104883466D01*
X118498633Y-104864899D01*
X118536326Y-104853465D01*
X118581661Y-104849000D01*
X119418339Y-104849000D01*
X119463674Y-104853465D01*
G37*
G36*
X117413674Y-104853465D02*
G01*
X117451367Y-104864899D01*
X117486103Y-104883466D01*
X117516548Y-104908452D01*
X117541534Y-104938897D01*
X117560101Y-104973633D01*
X117571535Y-105011326D01*
X117576000Y-105056661D01*
X117576000Y-106143339D01*
X117571535Y-106188674D01*
X117560101Y-106226367D01*
X117541534Y-106261103D01*
X117516548Y-106291548D01*
X117486103Y-106316534D01*
X117451367Y-106335101D01*
X117413674Y-106346535D01*
X117368339Y-106351000D01*
X116531661Y-106351000D01*
X116486326Y-106346535D01*
X116448633Y-106335101D01*
X116413897Y-106316534D01*
X116383452Y-106291548D01*
X116358466Y-106261103D01*
X116339899Y-106226367D01*
X116328465Y-106188674D01*
X116324000Y-106143339D01*
X116324000Y-105056661D01*
X116328465Y-105011326D01*
X116339899Y-104973633D01*
X116358466Y-104938897D01*
X116383452Y-104908452D01*
X116413897Y-104883466D01*
X116448633Y-104864899D01*
X116486326Y-104853465D01*
X116531661Y-104849000D01*
X117368339Y-104849000D01*
X117413674Y-104853465D01*
G37*
G36*
X103451000Y-104301000D02*
G01*
X101549000Y-104301000D01*
X101549000Y-101899000D01*
X103451000Y-101899000D01*
X103451000Y-104301000D01*
G37*
G36*
X117438674Y-102553465D02*
G01*
X117476367Y-102564899D01*
X117511103Y-102583466D01*
X117541548Y-102608452D01*
X117566534Y-102638897D01*
X117585101Y-102673633D01*
X117596535Y-102711326D01*
X117601000Y-102756661D01*
X117601000Y-103843339D01*
X117596535Y-103888674D01*
X117585101Y-103926367D01*
X117566534Y-103961103D01*
X117541548Y-103991548D01*
X117511103Y-104016534D01*
X117476367Y-104035101D01*
X117438674Y-104046535D01*
X117393339Y-104051000D01*
X116556661Y-104051000D01*
X116511326Y-104046535D01*
X116473633Y-104035101D01*
X116438897Y-104016534D01*
X116408452Y-103991548D01*
X116383466Y-103961103D01*
X116364899Y-103926367D01*
X116353465Y-103888674D01*
X116349000Y-103843339D01*
X116349000Y-102756661D01*
X116353465Y-102711326D01*
X116364899Y-102673633D01*
X116383466Y-102638897D01*
X116408452Y-102608452D01*
X116438897Y-102583466D01*
X116473633Y-102564899D01*
X116511326Y-102553465D01*
X116556661Y-102549000D01*
X117393339Y-102549000D01*
X117438674Y-102553465D01*
G37*
G36*
X119488674Y-102553465D02*
G01*
X119526367Y-102564899D01*
X119561103Y-102583466D01*
X119591548Y-102608452D01*
X119616534Y-102638897D01*
X119635101Y-102673633D01*
X119646535Y-102711326D01*
X119651000Y-102756661D01*
X119651000Y-103843339D01*
X119646535Y-103888674D01*
X119635101Y-103926367D01*
X119616534Y-103961103D01*
X119591548Y-103991548D01*
X119561103Y-104016534D01*
X119526367Y-104035101D01*
X119488674Y-104046535D01*
X119443339Y-104051000D01*
X118606661Y-104051000D01*
X118561326Y-104046535D01*
X118523633Y-104035101D01*
X118488897Y-104016534D01*
X118458452Y-103991548D01*
X118433466Y-103961103D01*
X118414899Y-103926367D01*
X118403465Y-103888674D01*
X118399000Y-103843339D01*
X118399000Y-102756661D01*
X118403465Y-102711326D01*
X118414899Y-102673633D01*
X118433466Y-102638897D01*
X118458452Y-102608452D01*
X118488897Y-102583466D01*
X118523633Y-102564899D01*
X118561326Y-102553465D01*
X118606661Y-102549000D01*
X119443339Y-102549000D01*
X119488674Y-102553465D01*
G37*
G36*
X206379487Y-100818996D02*
G01*
X206616253Y-100917068D01*
X206616255Y-100917069D01*
X206829339Y-101059447D01*
X207010553Y-101240661D01*
X207152274Y-101452761D01*
X207152932Y-101453747D01*
X207251004Y-101690513D01*
X207301000Y-101941861D01*
X207301000Y-102198139D01*
X207251004Y-102449487D01*
X207159680Y-102669962D01*
X207152931Y-102686255D01*
X207010553Y-102899339D01*
X206829339Y-103080553D01*
X206616255Y-103222931D01*
X206616254Y-103222932D01*
X206616253Y-103222932D01*
X206379487Y-103321004D01*
X206128139Y-103371000D01*
X205871861Y-103371000D01*
X205620513Y-103321004D01*
X205383747Y-103222932D01*
X205383746Y-103222932D01*
X205383745Y-103222931D01*
X205170661Y-103080553D01*
X204989447Y-102899339D01*
X204847069Y-102686255D01*
X204840320Y-102669962D01*
X204748996Y-102449487D01*
X204699000Y-102198139D01*
X204699000Y-101941861D01*
X204748996Y-101690513D01*
X204847068Y-101453747D01*
X204847727Y-101452761D01*
X204989447Y-101240661D01*
X205170661Y-101059447D01*
X205383745Y-100917069D01*
X205383747Y-100917068D01*
X205620513Y-100818996D01*
X205871861Y-100769000D01*
X206128139Y-100769000D01*
X206379487Y-100818996D01*
G37*
G36*
X154377585Y-99778802D02*
G01*
X154527410Y-99808604D01*
X154809674Y-99925521D01*
X155063705Y-100095259D01*
X155279741Y-100311295D01*
X155449479Y-100565326D01*
X155533843Y-100769000D01*
X155566396Y-100847591D01*
X155624341Y-101138897D01*
X155626000Y-101147240D01*
X155626000Y-101452760D01*
X155566396Y-101752410D01*
X155449479Y-102034674D01*
X155279741Y-102288705D01*
X155063705Y-102504741D01*
X154809674Y-102674479D01*
X154527410Y-102791396D01*
X154377711Y-102821173D01*
X154227761Y-102851000D01*
X153922239Y-102851000D01*
X153772289Y-102821173D01*
X153622590Y-102791396D01*
X153340326Y-102674479D01*
X153086295Y-102504741D01*
X152870259Y-102288705D01*
X152700521Y-102034674D01*
X152583604Y-101752410D01*
X152524000Y-101452760D01*
X152524000Y-101147240D01*
X152525660Y-101138897D01*
X152583604Y-100847591D01*
X152616157Y-100769000D01*
X152700521Y-100565326D01*
X152870259Y-100311295D01*
X153086295Y-100095259D01*
X153340326Y-99925521D01*
X153622590Y-99808604D01*
X153772415Y-99778802D01*
X153922239Y-99749000D01*
X154227761Y-99749000D01*
X154377585Y-99778802D01*
G37*
G36*
X176977585Y-99778802D02*
G01*
X177127410Y-99808604D01*
X177409674Y-99925521D01*
X177663705Y-100095259D01*
X177879741Y-100311295D01*
X178049479Y-100565326D01*
X178133843Y-100769000D01*
X178166396Y-100847591D01*
X178224341Y-101138897D01*
X178226000Y-101147240D01*
X178226000Y-101452760D01*
X178166396Y-101752410D01*
X178049479Y-102034674D01*
X177879741Y-102288705D01*
X177663705Y-102504741D01*
X177409674Y-102674479D01*
X177127410Y-102791396D01*
X176977711Y-102821173D01*
X176827761Y-102851000D01*
X176522239Y-102851000D01*
X176372289Y-102821173D01*
X176222590Y-102791396D01*
X175940326Y-102674479D01*
X175686295Y-102504741D01*
X175470259Y-102288705D01*
X175300521Y-102034674D01*
X175183604Y-101752410D01*
X175124000Y-101452760D01*
X175124000Y-101147240D01*
X175125660Y-101138897D01*
X175183604Y-100847591D01*
X175216157Y-100769000D01*
X175300521Y-100565326D01*
X175470259Y-100311295D01*
X175686295Y-100095259D01*
X175940326Y-99925521D01*
X176222590Y-99808604D01*
X176372415Y-99778802D01*
X176522239Y-99749000D01*
X176827761Y-99749000D01*
X176977585Y-99778802D01*
G37*
G36*
X199913674Y-101053465D02*
G01*
X199951367Y-101064899D01*
X199986103Y-101083466D01*
X200016548Y-101108452D01*
X200041534Y-101138897D01*
X200060101Y-101173633D01*
X200071535Y-101211326D01*
X200076000Y-101256661D01*
X200076000Y-102343339D01*
X200071535Y-102388674D01*
X200060101Y-102426367D01*
X200041534Y-102461103D01*
X200016548Y-102491548D01*
X199986103Y-102516534D01*
X199951367Y-102535101D01*
X199913674Y-102546535D01*
X199868339Y-102551000D01*
X199031661Y-102551000D01*
X198986326Y-102546535D01*
X198948633Y-102535101D01*
X198913897Y-102516534D01*
X198883452Y-102491548D01*
X198858466Y-102461103D01*
X198839899Y-102426367D01*
X198828465Y-102388674D01*
X198824000Y-102343339D01*
X198824000Y-101256661D01*
X198828465Y-101211326D01*
X198839899Y-101173633D01*
X198858466Y-101138897D01*
X198883452Y-101108452D01*
X198913897Y-101083466D01*
X198948633Y-101064899D01*
X198986326Y-101053465D01*
X199031661Y-101049000D01*
X199868339Y-101049000D01*
X199913674Y-101053465D01*
G37*
G36*
X197863674Y-101053465D02*
G01*
X197901367Y-101064899D01*
X197936103Y-101083466D01*
X197966548Y-101108452D01*
X197991534Y-101138897D01*
X198010101Y-101173633D01*
X198021535Y-101211326D01*
X198026000Y-101256661D01*
X198026000Y-102343339D01*
X198021535Y-102388674D01*
X198010101Y-102426367D01*
X197991534Y-102461103D01*
X197966548Y-102491548D01*
X197936103Y-102516534D01*
X197901367Y-102535101D01*
X197863674Y-102546535D01*
X197818339Y-102551000D01*
X196981661Y-102551000D01*
X196936326Y-102546535D01*
X196898633Y-102535101D01*
X196863897Y-102516534D01*
X196833452Y-102491548D01*
X196808466Y-102461103D01*
X196789899Y-102426367D01*
X196778465Y-102388674D01*
X196774000Y-102343339D01*
X196774000Y-101256661D01*
X196778465Y-101211326D01*
X196789899Y-101173633D01*
X196808466Y-101138897D01*
X196833452Y-101108452D01*
X196863897Y-101083466D01*
X196898633Y-101064899D01*
X196936326Y-101053465D01*
X196981661Y-101049000D01*
X197818339Y-101049000D01*
X197863674Y-101053465D01*
G37*
G36*
X129066000Y-102386000D02*
G01*
X125464000Y-102386000D01*
X125464000Y-100484000D01*
X129066000Y-100484000D01*
X129066000Y-102386000D01*
G37*
G36*
X124066000Y-102386000D02*
G01*
X120464000Y-102386000D01*
X120464000Y-100484000D01*
X124066000Y-100484000D01*
X124066000Y-102386000D01*
G37*
G36*
X110601000Y-101451000D02*
G01*
X108199000Y-101451000D01*
X108199000Y-99549000D01*
X110601000Y-99549000D01*
X110601000Y-101451000D01*
G37*
G36*
X192926000Y-101016000D02*
G01*
X191224000Y-101016000D01*
X191224000Y-99314000D01*
X192926000Y-99314000D01*
X192926000Y-101016000D01*
G37*
G36*
X111501000Y-98651000D02*
G01*
X109299000Y-98651000D01*
X109299000Y-97149000D01*
X111501000Y-97149000D01*
X111501000Y-98651000D01*
G37*
G36*
X116838674Y-97153465D02*
G01*
X116876367Y-97164899D01*
X116911103Y-97183466D01*
X116941548Y-97208452D01*
X116966534Y-97238897D01*
X116985101Y-97273633D01*
X116996535Y-97311326D01*
X117001000Y-97356661D01*
X117001000Y-98443339D01*
X116996535Y-98488674D01*
X116985101Y-98526367D01*
X116966534Y-98561103D01*
X116941548Y-98591548D01*
X116911103Y-98616534D01*
X116876367Y-98635101D01*
X116838674Y-98646535D01*
X116793339Y-98651000D01*
X115956661Y-98651000D01*
X115911326Y-98646535D01*
X115873633Y-98635101D01*
X115838897Y-98616534D01*
X115808452Y-98591548D01*
X115783466Y-98561103D01*
X115764899Y-98526367D01*
X115753465Y-98488674D01*
X115749000Y-98443339D01*
X115749000Y-97356661D01*
X115753465Y-97311326D01*
X115764899Y-97273633D01*
X115783466Y-97238897D01*
X115808452Y-97208452D01*
X115838897Y-97183466D01*
X115873633Y-97164899D01*
X115911326Y-97153465D01*
X115956661Y-97149000D01*
X116793339Y-97149000D01*
X116838674Y-97153465D01*
G37*
G36*
X118888674Y-97153465D02*
G01*
X118926367Y-97164899D01*
X118961103Y-97183466D01*
X118991548Y-97208452D01*
X119016534Y-97238897D01*
X119035101Y-97273633D01*
X119046535Y-97311326D01*
X119051000Y-97356661D01*
X119051000Y-98443339D01*
X119046535Y-98488674D01*
X119035101Y-98526367D01*
X119016534Y-98561103D01*
X118991548Y-98591548D01*
X118961103Y-98616534D01*
X118926367Y-98635101D01*
X118888674Y-98646535D01*
X118843339Y-98651000D01*
X118006661Y-98651000D01*
X117961326Y-98646535D01*
X117923633Y-98635101D01*
X117888897Y-98616534D01*
X117858452Y-98591548D01*
X117833466Y-98561103D01*
X117814899Y-98526367D01*
X117803465Y-98488674D01*
X117799000Y-98443339D01*
X117799000Y-97356661D01*
X117803465Y-97311326D01*
X117814899Y-97273633D01*
X117833466Y-97238897D01*
X117858452Y-97208452D01*
X117888897Y-97183466D01*
X117923633Y-97164899D01*
X117961326Y-97153465D01*
X118006661Y-97149000D01*
X118843339Y-97149000D01*
X118888674Y-97153465D01*
G37*
G36*
X206379487Y-95818996D02*
G01*
X206616253Y-95917068D01*
X206616255Y-95917069D01*
X206829339Y-96059447D01*
X207010553Y-96240661D01*
X207149638Y-96448816D01*
X207152932Y-96453747D01*
X207251004Y-96690513D01*
X207301000Y-96941861D01*
X207301000Y-97198139D01*
X207251004Y-97449487D01*
X207152932Y-97686253D01*
X207152931Y-97686255D01*
X207010553Y-97899339D01*
X206829339Y-98080553D01*
X206616255Y-98222931D01*
X206616254Y-98222932D01*
X206616253Y-98222932D01*
X206379487Y-98321004D01*
X206128139Y-98371000D01*
X205871861Y-98371000D01*
X205620513Y-98321004D01*
X205383747Y-98222932D01*
X205383746Y-98222932D01*
X205383745Y-98222931D01*
X205170661Y-98080553D01*
X204989447Y-97899339D01*
X204847069Y-97686255D01*
X204847068Y-97686253D01*
X204748996Y-97449487D01*
X204699000Y-97198139D01*
X204699000Y-96941861D01*
X204748996Y-96690513D01*
X204847068Y-96453747D01*
X204850363Y-96448816D01*
X204989447Y-96240661D01*
X205170661Y-96059447D01*
X205383745Y-95917069D01*
X205383747Y-95917068D01*
X205620513Y-95818996D01*
X205871861Y-95769000D01*
X206128139Y-95769000D01*
X206379487Y-95818996D01*
G37*
G36*
X192323228Y-95546703D02*
G01*
X192478100Y-95610853D01*
X192617481Y-95703985D01*
X192736015Y-95822519D01*
X192829147Y-95961900D01*
X192893297Y-96116772D01*
X192926000Y-96281184D01*
X192926000Y-96448816D01*
X192893297Y-96613228D01*
X192829147Y-96768100D01*
X192736015Y-96907481D01*
X192617481Y-97026015D01*
X192478100Y-97119147D01*
X192323228Y-97183297D01*
X192158816Y-97216000D01*
X191991184Y-97216000D01*
X191826772Y-97183297D01*
X191671900Y-97119147D01*
X191532519Y-97026015D01*
X191413985Y-96907481D01*
X191320853Y-96768100D01*
X191256703Y-96613228D01*
X191224000Y-96448816D01*
X191224000Y-96281184D01*
X191256703Y-96116772D01*
X191320853Y-95961900D01*
X191413985Y-95822519D01*
X191532519Y-95703985D01*
X191671900Y-95610853D01*
X191826772Y-95546703D01*
X191991184Y-95514000D01*
X192158816Y-95514000D01*
X192323228Y-95546703D01*
G37*
G36*
X127655997Y-94753051D02*
G01*
X127689652Y-94763261D01*
X127720665Y-94779838D01*
X127747851Y-94802149D01*
X127770162Y-94829335D01*
X127786739Y-94860348D01*
X127796949Y-94894003D01*
X127801000Y-94935138D01*
X127801000Y-96264862D01*
X127796949Y-96305997D01*
X127786739Y-96339652D01*
X127770162Y-96370665D01*
X127747851Y-96397851D01*
X127720665Y-96420162D01*
X127689652Y-96436739D01*
X127655997Y-96446949D01*
X127614862Y-96451000D01*
X124385138Y-96451000D01*
X124344003Y-96446949D01*
X124310348Y-96436739D01*
X124279335Y-96420162D01*
X124252149Y-96397851D01*
X124229838Y-96370665D01*
X124213261Y-96339652D01*
X124203051Y-96305997D01*
X124199000Y-96264862D01*
X124199000Y-94935138D01*
X124203051Y-94894003D01*
X124213261Y-94860348D01*
X124229838Y-94829335D01*
X124252149Y-94802149D01*
X124279335Y-94779838D01*
X124310348Y-94763261D01*
X124344003Y-94753051D01*
X124385138Y-94749000D01*
X127614862Y-94749000D01*
X127655997Y-94753051D01*
G37*
G36*
X133255997Y-94753051D02*
G01*
X133289652Y-94763261D01*
X133320665Y-94779838D01*
X133347851Y-94802149D01*
X133370162Y-94829335D01*
X133386739Y-94860348D01*
X133396949Y-94894003D01*
X133401000Y-94935138D01*
X133401000Y-96264862D01*
X133396949Y-96305997D01*
X133386739Y-96339652D01*
X133370162Y-96370665D01*
X133347851Y-96397851D01*
X133320665Y-96420162D01*
X133289652Y-96436739D01*
X133255997Y-96446949D01*
X133214862Y-96451000D01*
X129985138Y-96451000D01*
X129944003Y-96446949D01*
X129910348Y-96436739D01*
X129879335Y-96420162D01*
X129852149Y-96397851D01*
X129829838Y-96370665D01*
X129813261Y-96339652D01*
X129803051Y-96305997D01*
X129799000Y-96264862D01*
X129799000Y-94935138D01*
X129803051Y-94894003D01*
X129813261Y-94860348D01*
X129829838Y-94829335D01*
X129852149Y-94802149D01*
X129879335Y-94779838D01*
X129910348Y-94763261D01*
X129944003Y-94753051D01*
X129985138Y-94749000D01*
X133214862Y-94749000D01*
X133255997Y-94753051D01*
G37*
G36*
X112215331Y-92338211D02*
G01*
X112543092Y-92473974D01*
X112838070Y-92671072D01*
X113088928Y-92921930D01*
X113286026Y-93216908D01*
X113421789Y-93544669D01*
X113491000Y-93892616D01*
X113491000Y-94247384D01*
X113421789Y-94595331D01*
X113286026Y-94923092D01*
X113088928Y-95218070D01*
X112838070Y-95468928D01*
X112543092Y-95666026D01*
X112215331Y-95801789D01*
X111867384Y-95871000D01*
X111512616Y-95871000D01*
X111164669Y-95801789D01*
X110836908Y-95666026D01*
X110541930Y-95468928D01*
X110291072Y-95218070D01*
X110093974Y-94923092D01*
X109958211Y-94595331D01*
X109889000Y-94247384D01*
X109889000Y-93892616D01*
X109958211Y-93544669D01*
X110093974Y-93216908D01*
X110291072Y-92921930D01*
X110541930Y-92671072D01*
X110836908Y-92473974D01*
X111164669Y-92338211D01*
X111512616Y-92269000D01*
X111867384Y-92269000D01*
X112215331Y-92338211D01*
G37*
G36*
X119688674Y-92653465D02*
G01*
X119726367Y-92664899D01*
X119761103Y-92683466D01*
X119791548Y-92708452D01*
X119816534Y-92738897D01*
X119835101Y-92773633D01*
X119846535Y-92811326D01*
X119851000Y-92856661D01*
X119851000Y-93943339D01*
X119846535Y-93988674D01*
X119835101Y-94026367D01*
X119816534Y-94061103D01*
X119791548Y-94091548D01*
X119761103Y-94116534D01*
X119726367Y-94135101D01*
X119688674Y-94146535D01*
X119643339Y-94151000D01*
X118806661Y-94151000D01*
X118761326Y-94146535D01*
X118723633Y-94135101D01*
X118688897Y-94116534D01*
X118658452Y-94091548D01*
X118633466Y-94061103D01*
X118614899Y-94026367D01*
X118603465Y-93988674D01*
X118599000Y-93943339D01*
X118599000Y-92856661D01*
X118603465Y-92811326D01*
X118614899Y-92773633D01*
X118633466Y-92738897D01*
X118658452Y-92708452D01*
X118688897Y-92683466D01*
X118723633Y-92664899D01*
X118761326Y-92653465D01*
X118806661Y-92649000D01*
X119643339Y-92649000D01*
X119688674Y-92653465D01*
G37*
G36*
X117638674Y-92653465D02*
G01*
X117676367Y-92664899D01*
X117711103Y-92683466D01*
X117741548Y-92708452D01*
X117766534Y-92738897D01*
X117785101Y-92773633D01*
X117796535Y-92811326D01*
X117801000Y-92856661D01*
X117801000Y-93943339D01*
X117796535Y-93988674D01*
X117785101Y-94026367D01*
X117766534Y-94061103D01*
X117741548Y-94091548D01*
X117711103Y-94116534D01*
X117676367Y-94135101D01*
X117638674Y-94146535D01*
X117593339Y-94151000D01*
X116756661Y-94151000D01*
X116711326Y-94146535D01*
X116673633Y-94135101D01*
X116638897Y-94116534D01*
X116608452Y-94091548D01*
X116583466Y-94061103D01*
X116564899Y-94026367D01*
X116553465Y-93988674D01*
X116549000Y-93943339D01*
X116549000Y-92856661D01*
X116553465Y-92811326D01*
X116564899Y-92773633D01*
X116583466Y-92738897D01*
X116608452Y-92708452D01*
X116638897Y-92683466D01*
X116673633Y-92664899D01*
X116711326Y-92653465D01*
X116756661Y-92649000D01*
X117593339Y-92649000D01*
X117638674Y-92653465D01*
G37*
G36*
X114637142Y-90218242D02*
G01*
X114785101Y-90279529D01*
X114918255Y-90368499D01*
X115031501Y-90481745D01*
X115120471Y-90614899D01*
X115181758Y-90762858D01*
X115213000Y-90919925D01*
X115213000Y-91080075D01*
X115181758Y-91237142D01*
X115120471Y-91385101D01*
X115031501Y-91518255D01*
X114918255Y-91631501D01*
X114785101Y-91720471D01*
X114637142Y-91781758D01*
X114480075Y-91813000D01*
X114319925Y-91813000D01*
X114162858Y-91781758D01*
X114014899Y-91720471D01*
X113881745Y-91631501D01*
X113768499Y-91518255D01*
X113679529Y-91385101D01*
X113618242Y-91237142D01*
X113587000Y-91080075D01*
X113587000Y-90919925D01*
X113618242Y-90762858D01*
X113679529Y-90614899D01*
X113768499Y-90481745D01*
X113881745Y-90368499D01*
X114014899Y-90279529D01*
X114162858Y-90218242D01*
X114319925Y-90187000D01*
X114480075Y-90187000D01*
X114637142Y-90218242D01*
G37*
G36*
X114637142Y-87718242D02*
G01*
X114785101Y-87779529D01*
X114918255Y-87868499D01*
X115031501Y-87981745D01*
X115120471Y-88114899D01*
X115181758Y-88262858D01*
X115213000Y-88419925D01*
X115213000Y-88580075D01*
X115181758Y-88737142D01*
X115120471Y-88885101D01*
X115031501Y-89018255D01*
X114918255Y-89131501D01*
X114785101Y-89220471D01*
X114637142Y-89281758D01*
X114480075Y-89313000D01*
X114319925Y-89313000D01*
X114162858Y-89281758D01*
X114014899Y-89220471D01*
X113881745Y-89131501D01*
X113768499Y-89018255D01*
X113679529Y-88885101D01*
X113618242Y-88737142D01*
X113587000Y-88580075D01*
X113587000Y-88419925D01*
X113618242Y-88262858D01*
X113679529Y-88114899D01*
X113768499Y-87981745D01*
X113881745Y-87868499D01*
X114014899Y-87779529D01*
X114162858Y-87718242D01*
X114319925Y-87687000D01*
X114480075Y-87687000D01*
X114637142Y-87718242D01*
G37*
G36*
X207346000Y-88766000D02*
G01*
X204744000Y-88766000D01*
X204744000Y-86164000D01*
X207346000Y-86164000D01*
X207346000Y-88766000D01*
G37*
G36*
X127655997Y-86953051D02*
G01*
X127689652Y-86963261D01*
X127720665Y-86979838D01*
X127747851Y-87002149D01*
X127770162Y-87029335D01*
X127786739Y-87060348D01*
X127796949Y-87094003D01*
X127801000Y-87135138D01*
X127801000Y-88464862D01*
X127796949Y-88505997D01*
X127786739Y-88539652D01*
X127770162Y-88570665D01*
X127747851Y-88597851D01*
X127720665Y-88620162D01*
X127689652Y-88636739D01*
X127655997Y-88646949D01*
X127614862Y-88651000D01*
X124385138Y-88651000D01*
X124344003Y-88646949D01*
X124310348Y-88636739D01*
X124279335Y-88620162D01*
X124252149Y-88597851D01*
X124229838Y-88570665D01*
X124213261Y-88539652D01*
X124203051Y-88505997D01*
X124199000Y-88464862D01*
X124199000Y-87135138D01*
X124203051Y-87094003D01*
X124213261Y-87060348D01*
X124229838Y-87029335D01*
X124252149Y-87002149D01*
X124279335Y-86979838D01*
X124310348Y-86963261D01*
X124344003Y-86953051D01*
X124385138Y-86949000D01*
X127614862Y-86949000D01*
X127655997Y-86953051D01*
G37*
G36*
X133255997Y-86953051D02*
G01*
X133289652Y-86963261D01*
X133320665Y-86979838D01*
X133347851Y-87002149D01*
X133370162Y-87029335D01*
X133386739Y-87060348D01*
X133396949Y-87094003D01*
X133401000Y-87135138D01*
X133401000Y-88464862D01*
X133396949Y-88505997D01*
X133386739Y-88539652D01*
X133370162Y-88570665D01*
X133347851Y-88597851D01*
X133320665Y-88620162D01*
X133289652Y-88636739D01*
X133255997Y-88646949D01*
X133214862Y-88651000D01*
X129985138Y-88651000D01*
X129944003Y-88646949D01*
X129910348Y-88636739D01*
X129879335Y-88620162D01*
X129852149Y-88597851D01*
X129829838Y-88570665D01*
X129813261Y-88539652D01*
X129803051Y-88505997D01*
X129799000Y-88464862D01*
X129799000Y-87135138D01*
X129803051Y-87094003D01*
X129813261Y-87060348D01*
X129829838Y-87029335D01*
X129852149Y-87002149D01*
X129879335Y-86979838D01*
X129910348Y-86963261D01*
X129944003Y-86953051D01*
X129985138Y-86949000D01*
X133214862Y-86949000D01*
X133255997Y-86953051D01*
G37*
G36*
X121388674Y-87228465D02*
G01*
X121426367Y-87239899D01*
X121461103Y-87258466D01*
X121491548Y-87283452D01*
X121516534Y-87313897D01*
X121535101Y-87348633D01*
X121546535Y-87386326D01*
X121551000Y-87431661D01*
X121551000Y-88268339D01*
X121546535Y-88313674D01*
X121535101Y-88351367D01*
X121516534Y-88386103D01*
X121491548Y-88416548D01*
X121461103Y-88441534D01*
X121426367Y-88460101D01*
X121388674Y-88471535D01*
X121343339Y-88476000D01*
X120256661Y-88476000D01*
X120211326Y-88471535D01*
X120173633Y-88460101D01*
X120138897Y-88441534D01*
X120108452Y-88416548D01*
X120083466Y-88386103D01*
X120064899Y-88351367D01*
X120053465Y-88313674D01*
X120049000Y-88268339D01*
X120049000Y-87431661D01*
X120053465Y-87386326D01*
X120064899Y-87348633D01*
X120083466Y-87313897D01*
X120108452Y-87283452D01*
X120138897Y-87258466D01*
X120173633Y-87239899D01*
X120211326Y-87228465D01*
X120256661Y-87224000D01*
X121343339Y-87224000D01*
X121388674Y-87228465D01*
G37*
G36*
X114637142Y-85718242D02*
G01*
X114785101Y-85779529D01*
X114918255Y-85868499D01*
X115031501Y-85981745D01*
X115120471Y-86114899D01*
X115181758Y-86262858D01*
X115213000Y-86419925D01*
X115213000Y-86580075D01*
X115181758Y-86737142D01*
X115120471Y-86885101D01*
X115031501Y-87018255D01*
X114918255Y-87131501D01*
X114785101Y-87220471D01*
X114637142Y-87281758D01*
X114480075Y-87313000D01*
X114319925Y-87313000D01*
X114162858Y-87281758D01*
X114014899Y-87220471D01*
X113881745Y-87131501D01*
X113768499Y-87018255D01*
X113679529Y-86885101D01*
X113618242Y-86737142D01*
X113587000Y-86580075D01*
X113587000Y-86419925D01*
X113618242Y-86262858D01*
X113679529Y-86114899D01*
X113768499Y-85981745D01*
X113881745Y-85868499D01*
X114014899Y-85779529D01*
X114162858Y-85718242D01*
X114319925Y-85687000D01*
X114480075Y-85687000D01*
X114637142Y-85718242D01*
G37*
G36*
X139851000Y-86601000D02*
G01*
X134909000Y-86601000D01*
X134909000Y-83299000D01*
X139851000Y-83299000D01*
X139851000Y-86601000D01*
G37*
G36*
X151591000Y-86601000D02*
G01*
X146649000Y-86601000D01*
X146649000Y-83299000D01*
X151591000Y-83299000D01*
X151591000Y-86601000D01*
G37*
G36*
X121388674Y-85178465D02*
G01*
X121426367Y-85189899D01*
X121461103Y-85208466D01*
X121491548Y-85233452D01*
X121516534Y-85263897D01*
X121535101Y-85298633D01*
X121546535Y-85336326D01*
X121551000Y-85381661D01*
X121551000Y-86218339D01*
X121546535Y-86263674D01*
X121535101Y-86301367D01*
X121516534Y-86336103D01*
X121491548Y-86366548D01*
X121461103Y-86391534D01*
X121426367Y-86410101D01*
X121388674Y-86421535D01*
X121343339Y-86426000D01*
X120256661Y-86426000D01*
X120211326Y-86421535D01*
X120173633Y-86410101D01*
X120138897Y-86391534D01*
X120108452Y-86366548D01*
X120083466Y-86336103D01*
X120064899Y-86301367D01*
X120053465Y-86263674D01*
X120049000Y-86218339D01*
X120049000Y-85381661D01*
X120053465Y-85336326D01*
X120064899Y-85298633D01*
X120083466Y-85263897D01*
X120108452Y-85233452D01*
X120138897Y-85208466D01*
X120173633Y-85189899D01*
X120211326Y-85178465D01*
X120256661Y-85174000D01*
X121343339Y-85174000D01*
X121388674Y-85178465D01*
G37*
G36*
X115213000Y-84813000D02*
G01*
X113587000Y-84813000D01*
X113587000Y-83187000D01*
X115213000Y-83187000D01*
X115213000Y-84813000D01*
G37*
G36*
X206424487Y-81213996D02*
G01*
X206661253Y-81312068D01*
X206661255Y-81312069D01*
X206689587Y-81331000D01*
X206874339Y-81454447D01*
X207055553Y-81635661D01*
X207197932Y-81848747D01*
X207296004Y-82085513D01*
X207346000Y-82336861D01*
X207346000Y-82593139D01*
X207296004Y-82844487D01*
X207197932Y-83081253D01*
X207197931Y-83081255D01*
X207055553Y-83294339D01*
X206874339Y-83475553D01*
X206661255Y-83617931D01*
X206661254Y-83617932D01*
X206661253Y-83617932D01*
X206424487Y-83716004D01*
X206173139Y-83766000D01*
X205916861Y-83766000D01*
X205665513Y-83716004D01*
X205428747Y-83617932D01*
X205428746Y-83617932D01*
X205428745Y-83617931D01*
X205215661Y-83475553D01*
X205034447Y-83294339D01*
X204892069Y-83081255D01*
X204892068Y-83081253D01*
X204793996Y-82844487D01*
X204744000Y-82593139D01*
X204744000Y-82336861D01*
X204793996Y-82085513D01*
X204892068Y-81848747D01*
X205034447Y-81635661D01*
X205215661Y-81454447D01*
X205400413Y-81331000D01*
X205428745Y-81312069D01*
X205428747Y-81312068D01*
X205665513Y-81213996D01*
X205916861Y-81164000D01*
X206173139Y-81164000D01*
X206424487Y-81213996D01*
G37*
G36*
X112215331Y-79198211D02*
G01*
X112543092Y-79333974D01*
X112838070Y-79531072D01*
X113088928Y-79781930D01*
X113286026Y-80076908D01*
X113421789Y-80404669D01*
X113491000Y-80752616D01*
X113491000Y-81107384D01*
X113421789Y-81455331D01*
X113286026Y-81783092D01*
X113088928Y-82078070D01*
X112838070Y-82328928D01*
X112543092Y-82526026D01*
X112215331Y-82661789D01*
X111867384Y-82731000D01*
X111512616Y-82731000D01*
X111164669Y-82661789D01*
X110836908Y-82526026D01*
X110541930Y-82328928D01*
X110291072Y-82078070D01*
X110093974Y-81783092D01*
X109958211Y-81455331D01*
X109889000Y-81107384D01*
X109889000Y-80752616D01*
X109958211Y-80404669D01*
X110093974Y-80076908D01*
X110291072Y-79781930D01*
X110541930Y-79531072D01*
X110836908Y-79333974D01*
X111164669Y-79198211D01*
X111512616Y-79129000D01*
X111867384Y-79129000D01*
X112215331Y-79198211D01*
G37*
G36*
X120451000Y-81701000D02*
G01*
X119549000Y-81701000D01*
X119549000Y-80699000D01*
X120451000Y-80699000D01*
X120451000Y-81701000D01*
G37*
G36*
X192926000Y-81331000D02*
G01*
X191224000Y-81331000D01*
X191224000Y-79629000D01*
X192926000Y-79629000D01*
X192926000Y-81331000D01*
G37*
G36*
X153742585Y-78188802D02*
G01*
X153892410Y-78218604D01*
X154174674Y-78335521D01*
X154428705Y-78505259D01*
X154644741Y-78721295D01*
X154814479Y-78975326D01*
X154931396Y-79257590D01*
X154991000Y-79557240D01*
X154991000Y-79862760D01*
X154931396Y-80162410D01*
X154814479Y-80444674D01*
X154644741Y-80698705D01*
X154428705Y-80914741D01*
X154174674Y-81084479D01*
X153892410Y-81201396D01*
X153829065Y-81213996D01*
X153592761Y-81261000D01*
X153287239Y-81261000D01*
X153050935Y-81213996D01*
X152987590Y-81201396D01*
X152705326Y-81084479D01*
X152451295Y-80914741D01*
X152235259Y-80698705D01*
X152065521Y-80444674D01*
X151948604Y-80162410D01*
X151889000Y-79862760D01*
X151889000Y-79557240D01*
X151948604Y-79257590D01*
X152065521Y-78975326D01*
X152235259Y-78721295D01*
X152451295Y-78505259D01*
X152705326Y-78335521D01*
X152987590Y-78218604D01*
X153137415Y-78188802D01*
X153287239Y-78159000D01*
X153592761Y-78159000D01*
X153742585Y-78188802D01*
G37*
G36*
X176342585Y-78188802D02*
G01*
X176492410Y-78218604D01*
X176774674Y-78335521D01*
X177028705Y-78505259D01*
X177244741Y-78721295D01*
X177414479Y-78975326D01*
X177531396Y-79257590D01*
X177591000Y-79557240D01*
X177591000Y-79862760D01*
X177531396Y-80162410D01*
X177414479Y-80444674D01*
X177244741Y-80698705D01*
X177028705Y-80914741D01*
X176774674Y-81084479D01*
X176492410Y-81201396D01*
X176429065Y-81213996D01*
X176192761Y-81261000D01*
X175887239Y-81261000D01*
X175650935Y-81213996D01*
X175587590Y-81201396D01*
X175305326Y-81084479D01*
X175051295Y-80914741D01*
X174835259Y-80698705D01*
X174665521Y-80444674D01*
X174548604Y-80162410D01*
X174489000Y-79862760D01*
X174489000Y-79557240D01*
X174548604Y-79257590D01*
X174665521Y-78975326D01*
X174835259Y-78721295D01*
X175051295Y-78505259D01*
X175305326Y-78335521D01*
X175587590Y-78218604D01*
X175737415Y-78188802D01*
X175887239Y-78159000D01*
X176192761Y-78159000D01*
X176342585Y-78188802D01*
G37*
G36*
X132901000Y-80951000D02*
G01*
X129299000Y-80951000D01*
X129299000Y-79049000D01*
X132901000Y-79049000D01*
X132901000Y-80951000D01*
G37*
G36*
X137901000Y-80951000D02*
G01*
X134299000Y-80951000D01*
X134299000Y-79049000D01*
X137901000Y-79049000D01*
X137901000Y-80951000D01*
G37*
G36*
X199813674Y-79353465D02*
G01*
X199851367Y-79364899D01*
X199886103Y-79383466D01*
X199916548Y-79408452D01*
X199941534Y-79438897D01*
X199960101Y-79473633D01*
X199971535Y-79511326D01*
X199976000Y-79556661D01*
X199976000Y-80643339D01*
X199971535Y-80688674D01*
X199960101Y-80726367D01*
X199941534Y-80761103D01*
X199916548Y-80791548D01*
X199886103Y-80816534D01*
X199851367Y-80835101D01*
X199813674Y-80846535D01*
X199768339Y-80851000D01*
X198931661Y-80851000D01*
X198886326Y-80846535D01*
X198848633Y-80835101D01*
X198813897Y-80816534D01*
X198783452Y-80791548D01*
X198758466Y-80761103D01*
X198739899Y-80726367D01*
X198728465Y-80688674D01*
X198724000Y-80643339D01*
X198724000Y-79556661D01*
X198728465Y-79511326D01*
X198739899Y-79473633D01*
X198758466Y-79438897D01*
X198783452Y-79408452D01*
X198813897Y-79383466D01*
X198848633Y-79364899D01*
X198886326Y-79353465D01*
X198931661Y-79349000D01*
X199768339Y-79349000D01*
X199813674Y-79353465D01*
G37*
G36*
X197763674Y-79353465D02*
G01*
X197801367Y-79364899D01*
X197836103Y-79383466D01*
X197866548Y-79408452D01*
X197891534Y-79438897D01*
X197910101Y-79473633D01*
X197921535Y-79511326D01*
X197926000Y-79556661D01*
X197926000Y-80643339D01*
X197921535Y-80688674D01*
X197910101Y-80726367D01*
X197891534Y-80761103D01*
X197866548Y-80791548D01*
X197836103Y-80816534D01*
X197801367Y-80835101D01*
X197763674Y-80846535D01*
X197718339Y-80851000D01*
X196881661Y-80851000D01*
X196836326Y-80846535D01*
X196798633Y-80835101D01*
X196763897Y-80816534D01*
X196733452Y-80791548D01*
X196708466Y-80761103D01*
X196689899Y-80726367D01*
X196678465Y-80688674D01*
X196674000Y-80643339D01*
X196674000Y-79556661D01*
X196678465Y-79511326D01*
X196689899Y-79473633D01*
X196708466Y-79438897D01*
X196733452Y-79408452D01*
X196763897Y-79383466D01*
X196798633Y-79364899D01*
X196836326Y-79353465D01*
X196881661Y-79349000D01*
X197718339Y-79349000D01*
X197763674Y-79353465D01*
G37*
G36*
X119501000Y-79701000D02*
G01*
X118599000Y-79701000D01*
X118599000Y-78699000D01*
X119501000Y-78699000D01*
X119501000Y-79701000D01*
G37*
G36*
X121401000Y-79701000D02*
G01*
X120499000Y-79701000D01*
X120499000Y-78699000D01*
X121401000Y-78699000D01*
X121401000Y-79701000D01*
G37*
G36*
X206424487Y-76213996D02*
G01*
X206576357Y-76276903D01*
X206661255Y-76312069D01*
X206874339Y-76454447D01*
X207055553Y-76635661D01*
X207141183Y-76763815D01*
X207197932Y-76848747D01*
X207296004Y-77085513D01*
X207346000Y-77336861D01*
X207346000Y-77593139D01*
X207296004Y-77844487D01*
X207197932Y-78081253D01*
X207197931Y-78081255D01*
X207055553Y-78294339D01*
X206874339Y-78475553D01*
X206661255Y-78617931D01*
X206661254Y-78617932D01*
X206661253Y-78617932D01*
X206424487Y-78716004D01*
X206173139Y-78766000D01*
X205916861Y-78766000D01*
X205665513Y-78716004D01*
X205428747Y-78617932D01*
X205428746Y-78617932D01*
X205428745Y-78617931D01*
X205215661Y-78475553D01*
X205034447Y-78294339D01*
X204892069Y-78081255D01*
X204892068Y-78081253D01*
X204793996Y-77844487D01*
X204744000Y-77593139D01*
X204744000Y-77336861D01*
X204793996Y-77085513D01*
X204892068Y-76848747D01*
X204948818Y-76763815D01*
X205034447Y-76635661D01*
X205215661Y-76454447D01*
X205428745Y-76312069D01*
X205513643Y-76276903D01*
X205665513Y-76213996D01*
X205916861Y-76164000D01*
X206173139Y-76164000D01*
X206424487Y-76213996D01*
G37*
G36*
X192323228Y-75861703D02*
G01*
X192478100Y-75925853D01*
X192617481Y-76018985D01*
X192736015Y-76137519D01*
X192829147Y-76276900D01*
X192893297Y-76431772D01*
X192926000Y-76596184D01*
X192926000Y-76763816D01*
X192893297Y-76928228D01*
X192829147Y-77083100D01*
X192736015Y-77222481D01*
X192617481Y-77341015D01*
X192478100Y-77434147D01*
X192323228Y-77498297D01*
X192158816Y-77531000D01*
X191991184Y-77531000D01*
X191826772Y-77498297D01*
X191671900Y-77434147D01*
X191532519Y-77341015D01*
X191413985Y-77222481D01*
X191320853Y-77083100D01*
X191256703Y-76928228D01*
X191224000Y-76763816D01*
X191224000Y-76596184D01*
X191256703Y-76431772D01*
X191320853Y-76276900D01*
X191413985Y-76137519D01*
X191532519Y-76018985D01*
X191671900Y-75925853D01*
X191826772Y-75861703D01*
X191991184Y-75829000D01*
X192158816Y-75829000D01*
X192323228Y-75861703D01*
G37*
G36*
X137099272Y-73513428D02*
G01*
X137285991Y-73590770D01*
X137285993Y-73590771D01*
X137454037Y-73703054D01*
X137596946Y-73845963D01*
X137709229Y-74014007D01*
X137709230Y-74014009D01*
X137786572Y-74200728D01*
X137826000Y-74398947D01*
X137826000Y-74601053D01*
X137786572Y-74799272D01*
X137709230Y-74985991D01*
X137709229Y-74985993D01*
X137596946Y-75154037D01*
X137454037Y-75296946D01*
X137285993Y-75409229D01*
X137285992Y-75409230D01*
X137285991Y-75409230D01*
X137099272Y-75486572D01*
X136901053Y-75526000D01*
X136698947Y-75526000D01*
X136500728Y-75486572D01*
X136314009Y-75409230D01*
X136314008Y-75409230D01*
X136314007Y-75409229D01*
X136145963Y-75296946D01*
X136003054Y-75154037D01*
X135890771Y-74985993D01*
X135890770Y-74985991D01*
X135813428Y-74799272D01*
X135774000Y-74601053D01*
X135774000Y-74398947D01*
X135813428Y-74200728D01*
X135890770Y-74014009D01*
X135890771Y-74014007D01*
X136003054Y-73845963D01*
X136145963Y-73703054D01*
X136314007Y-73590771D01*
X136314009Y-73590770D01*
X136500728Y-73513428D01*
X136698947Y-73474000D01*
X136901053Y-73474000D01*
X137099272Y-73513428D01*
G37*
G36*
X142099272Y-73513428D02*
G01*
X142285991Y-73590770D01*
X142285993Y-73590771D01*
X142454037Y-73703054D01*
X142596946Y-73845963D01*
X142709229Y-74014007D01*
X142709230Y-74014009D01*
X142786572Y-74200728D01*
X142826000Y-74398947D01*
X142826000Y-74601053D01*
X142786572Y-74799272D01*
X142709230Y-74985991D01*
X142709229Y-74985993D01*
X142596946Y-75154037D01*
X142454037Y-75296946D01*
X142285993Y-75409229D01*
X142285992Y-75409230D01*
X142285991Y-75409230D01*
X142099272Y-75486572D01*
X141901053Y-75526000D01*
X141698947Y-75526000D01*
X141500728Y-75486572D01*
X141314009Y-75409230D01*
X141314008Y-75409230D01*
X141314007Y-75409229D01*
X141145963Y-75296946D01*
X141003054Y-75154037D01*
X140890771Y-74985993D01*
X140890770Y-74985991D01*
X140813428Y-74799272D01*
X140774000Y-74601053D01*
X140774000Y-74398947D01*
X140813428Y-74200728D01*
X140890770Y-74014009D01*
X140890771Y-74014007D01*
X141003054Y-73845963D01*
X141145963Y-73703054D01*
X141314007Y-73590771D01*
X141314009Y-73590770D01*
X141500728Y-73513428D01*
X141698947Y-73474000D01*
X141901053Y-73474000D01*
X142099272Y-73513428D01*
G37*
G36*
X117826000Y-75526000D02*
G01*
X115774000Y-75526000D01*
X115774000Y-73474000D01*
X117826000Y-73474000D01*
X117826000Y-75526000D01*
G37*
G36*
X113151000Y-73801000D02*
G01*
X111249000Y-73801000D01*
X111249000Y-70199000D01*
X113151000Y-70199000D01*
X113151000Y-73801000D01*
G37*
G36*
X113151000Y-68801000D02*
G01*
X111249000Y-68801000D01*
X111249000Y-65199000D01*
X113151000Y-65199000D01*
X113151000Y-68801000D01*
G37*
G36*
X104802585Y-64978802D02*
G01*
X104952410Y-65008604D01*
X105234674Y-65125521D01*
X105488705Y-65295259D01*
X105704741Y-65511295D01*
X105874479Y-65765326D01*
X105991396Y-66047590D01*
X106051000Y-66347240D01*
X106051000Y-66652760D01*
X105991396Y-66952410D01*
X105874479Y-67234674D01*
X105704741Y-67488705D01*
X105488705Y-67704741D01*
X105234674Y-67874479D01*
X104952410Y-67991396D01*
X104802585Y-68021198D01*
X104652761Y-68051000D01*
X104347239Y-68051000D01*
X104197415Y-68021198D01*
X104047590Y-67991396D01*
X103765326Y-67874479D01*
X103511295Y-67704741D01*
X103295259Y-67488705D01*
X103125521Y-67234674D01*
X103008604Y-66952410D01*
X102949000Y-66652760D01*
X102949000Y-66347240D01*
X103008604Y-66047590D01*
X103125521Y-65765326D01*
X103295259Y-65511295D01*
X103511295Y-65295259D01*
X103765326Y-65125521D01*
X104047590Y-65008604D01*
X104197415Y-64978802D01*
X104347239Y-64949000D01*
X104652761Y-64949000D01*
X104802585Y-64978802D01*
G37*
G36*
X142099272Y-66013428D02*
G01*
X142285991Y-66090770D01*
X142285993Y-66090771D01*
X142454037Y-66203054D01*
X142596946Y-66345963D01*
X142597799Y-66347240D01*
X142709230Y-66514009D01*
X142786572Y-66700728D01*
X142826000Y-66898947D01*
X142826000Y-67101053D01*
X142786572Y-67299272D01*
X142709230Y-67485991D01*
X142709229Y-67485993D01*
X142596946Y-67654037D01*
X142454037Y-67796946D01*
X142285993Y-67909229D01*
X142285992Y-67909230D01*
X142285991Y-67909230D01*
X142099272Y-67986572D01*
X141901053Y-68026000D01*
X141698947Y-68026000D01*
X141500728Y-67986572D01*
X141314009Y-67909230D01*
X141314008Y-67909230D01*
X141314007Y-67909229D01*
X141145963Y-67796946D01*
X141003054Y-67654037D01*
X140890771Y-67485993D01*
X140890770Y-67485991D01*
X140813428Y-67299272D01*
X140774000Y-67101053D01*
X140774000Y-66898947D01*
X140813428Y-66700728D01*
X140890770Y-66514009D01*
X141002201Y-66347240D01*
X141003054Y-66345963D01*
X141145963Y-66203054D01*
X141314007Y-66090771D01*
X141314009Y-66090770D01*
X141500728Y-66013428D01*
X141698947Y-65974000D01*
X141901053Y-65974000D01*
X142099272Y-66013428D01*
G37*
G36*
X137099272Y-66013428D02*
G01*
X137285991Y-66090770D01*
X137285993Y-66090771D01*
X137454037Y-66203054D01*
X137596946Y-66345963D01*
X137597799Y-66347240D01*
X137709230Y-66514009D01*
X137786572Y-66700728D01*
X137826000Y-66898947D01*
X137826000Y-67101053D01*
X137786572Y-67299272D01*
X137709230Y-67485991D01*
X137709229Y-67485993D01*
X137596946Y-67654037D01*
X137454037Y-67796946D01*
X137285993Y-67909229D01*
X137285992Y-67909230D01*
X137285991Y-67909230D01*
X137099272Y-67986572D01*
X136901053Y-68026000D01*
X136698947Y-68026000D01*
X136500728Y-67986572D01*
X136314009Y-67909230D01*
X136314008Y-67909230D01*
X136314007Y-67909229D01*
X136145963Y-67796946D01*
X136003054Y-67654037D01*
X135890771Y-67485993D01*
X135890770Y-67485991D01*
X135813428Y-67299272D01*
X135774000Y-67101053D01*
X135774000Y-66898947D01*
X135813428Y-66700728D01*
X135890770Y-66514009D01*
X136002201Y-66347240D01*
X136003054Y-66345963D01*
X136145963Y-66203054D01*
X136314007Y-66090771D01*
X136314009Y-66090770D01*
X136500728Y-66013428D01*
X136698947Y-65974000D01*
X136901053Y-65974000D01*
X137099272Y-66013428D01*
G37*
G36*
X117099272Y-66013428D02*
G01*
X117285991Y-66090770D01*
X117285993Y-66090771D01*
X117454037Y-66203054D01*
X117596946Y-66345963D01*
X117597799Y-66347240D01*
X117709230Y-66514009D01*
X117786572Y-66700728D01*
X117826000Y-66898947D01*
X117826000Y-67101053D01*
X117786572Y-67299272D01*
X117709230Y-67485991D01*
X117709229Y-67485993D01*
X117596946Y-67654037D01*
X117454037Y-67796946D01*
X117285993Y-67909229D01*
X117285992Y-67909230D01*
X117285991Y-67909230D01*
X117099272Y-67986572D01*
X116901053Y-68026000D01*
X116698947Y-68026000D01*
X116500728Y-67986572D01*
X116314009Y-67909230D01*
X116314008Y-67909230D01*
X116314007Y-67909229D01*
X116145963Y-67796946D01*
X116003054Y-67654037D01*
X115890771Y-67485993D01*
X115890770Y-67485991D01*
X115813428Y-67299272D01*
X115774000Y-67101053D01*
X115774000Y-66898947D01*
X115813428Y-66700728D01*
X115890770Y-66514009D01*
X116002201Y-66347240D01*
X116003054Y-66345963D01*
X116145963Y-66203054D01*
X116314007Y-66090771D01*
X116314009Y-66090770D01*
X116500728Y-66013428D01*
X116698947Y-65974000D01*
X116901053Y-65974000D01*
X117099272Y-66013428D01*
G37*
G36*
X207301000Y-65801000D02*
G01*
X204699000Y-65801000D01*
X204699000Y-63199000D01*
X207301000Y-63199000D01*
X207301000Y-65801000D01*
G37*
G36*
X192926000Y-61011000D02*
G01*
X191224000Y-61011000D01*
X191224000Y-59309000D01*
X192926000Y-59309000D01*
X192926000Y-61011000D01*
G37*
G36*
X126101000Y-60951000D02*
G01*
X123499000Y-60951000D01*
X123499000Y-53849000D01*
X126101000Y-53849000D01*
X126101000Y-60951000D01*
G37*
G36*
X133101000Y-60951000D02*
G01*
X130499000Y-60951000D01*
X130499000Y-53849000D01*
X133101000Y-53849000D01*
X133101000Y-60951000D01*
G37*
G36*
X206379487Y-58248996D02*
G01*
X206616253Y-58347068D01*
X206616255Y-58347069D01*
X206829339Y-58489447D01*
X207010553Y-58670661D01*
X207152932Y-58883747D01*
X207251004Y-59120513D01*
X207301000Y-59371861D01*
X207301000Y-59628139D01*
X207251004Y-59879487D01*
X207152932Y-60116253D01*
X207152931Y-60116255D01*
X207010553Y-60329339D01*
X206829339Y-60510553D01*
X206616255Y-60652931D01*
X206616254Y-60652932D01*
X206616253Y-60652932D01*
X206379487Y-60751004D01*
X206128139Y-60801000D01*
X205871861Y-60801000D01*
X205620513Y-60751004D01*
X205383747Y-60652932D01*
X205383746Y-60652932D01*
X205383745Y-60652931D01*
X205170661Y-60510553D01*
X204989447Y-60329339D01*
X204847069Y-60116255D01*
X204847068Y-60116253D01*
X204748996Y-59879487D01*
X204699000Y-59628139D01*
X204699000Y-59371861D01*
X204748996Y-59120513D01*
X204847068Y-58883747D01*
X204989447Y-58670661D01*
X205170661Y-58489447D01*
X205383745Y-58347069D01*
X205383747Y-58347068D01*
X205620513Y-58248996D01*
X205871861Y-58199000D01*
X206128139Y-58199000D01*
X206379487Y-58248996D01*
G37*
G36*
X200063674Y-58953465D02*
G01*
X200101367Y-58964899D01*
X200136103Y-58983466D01*
X200166548Y-59008452D01*
X200191534Y-59038897D01*
X200210101Y-59073633D01*
X200221535Y-59111326D01*
X200226000Y-59156661D01*
X200226000Y-60243339D01*
X200221535Y-60288674D01*
X200210101Y-60326367D01*
X200191534Y-60361103D01*
X200166548Y-60391548D01*
X200136103Y-60416534D01*
X200101367Y-60435101D01*
X200063674Y-60446535D01*
X200018339Y-60451000D01*
X199181661Y-60451000D01*
X199136326Y-60446535D01*
X199098633Y-60435101D01*
X199063897Y-60416534D01*
X199033452Y-60391548D01*
X199008466Y-60361103D01*
X198989899Y-60326367D01*
X198978465Y-60288674D01*
X198974000Y-60243339D01*
X198974000Y-59156661D01*
X198978465Y-59111326D01*
X198989899Y-59073633D01*
X199008466Y-59038897D01*
X199033452Y-59008452D01*
X199063897Y-58983466D01*
X199098633Y-58964899D01*
X199136326Y-58953465D01*
X199181661Y-58949000D01*
X200018339Y-58949000D01*
X200063674Y-58953465D01*
G37*
G36*
X198013674Y-58953465D02*
G01*
X198051367Y-58964899D01*
X198086103Y-58983466D01*
X198116548Y-59008452D01*
X198141534Y-59038897D01*
X198160101Y-59073633D01*
X198171535Y-59111326D01*
X198176000Y-59156661D01*
X198176000Y-60243339D01*
X198171535Y-60288674D01*
X198160101Y-60326367D01*
X198141534Y-60361103D01*
X198116548Y-60391548D01*
X198086103Y-60416534D01*
X198051367Y-60435101D01*
X198013674Y-60446535D01*
X197968339Y-60451000D01*
X197131661Y-60451000D01*
X197086326Y-60446535D01*
X197048633Y-60435101D01*
X197013897Y-60416534D01*
X196983452Y-60391548D01*
X196958466Y-60361103D01*
X196939899Y-60326367D01*
X196928465Y-60288674D01*
X196924000Y-60243339D01*
X196924000Y-59156661D01*
X196928465Y-59111326D01*
X196939899Y-59073633D01*
X196958466Y-59038897D01*
X196983452Y-59008452D01*
X197013897Y-58983466D01*
X197048633Y-58964899D01*
X197086326Y-58953465D01*
X197131661Y-58949000D01*
X197968339Y-58949000D01*
X198013674Y-58953465D01*
G37*
G36*
X176342585Y-56598802D02*
G01*
X176492410Y-56628604D01*
X176774674Y-56745521D01*
X177028705Y-56915259D01*
X177244741Y-57131295D01*
X177414479Y-57385326D01*
X177531396Y-57667590D01*
X177591000Y-57967240D01*
X177591000Y-58272760D01*
X177531396Y-58572410D01*
X177414479Y-58854674D01*
X177244741Y-59108705D01*
X177028705Y-59324741D01*
X176774674Y-59494479D01*
X176492410Y-59611396D01*
X176408247Y-59628137D01*
X176192761Y-59671000D01*
X175887239Y-59671000D01*
X175671753Y-59628137D01*
X175587590Y-59611396D01*
X175305326Y-59494479D01*
X175051295Y-59324741D01*
X174835259Y-59108705D01*
X174665521Y-58854674D01*
X174548604Y-58572410D01*
X174489000Y-58272760D01*
X174489000Y-57967240D01*
X174548604Y-57667590D01*
X174665521Y-57385326D01*
X174835259Y-57131295D01*
X175051295Y-56915259D01*
X175305326Y-56745521D01*
X175587590Y-56628604D01*
X175737415Y-56598802D01*
X175887239Y-56569000D01*
X176192761Y-56569000D01*
X176342585Y-56598802D01*
G37*
G36*
X153742585Y-56598802D02*
G01*
X153892410Y-56628604D01*
X154174674Y-56745521D01*
X154428705Y-56915259D01*
X154644741Y-57131295D01*
X154814479Y-57385326D01*
X154931396Y-57667590D01*
X154991000Y-57967240D01*
X154991000Y-58272760D01*
X154931396Y-58572410D01*
X154814479Y-58854674D01*
X154644741Y-59108705D01*
X154428705Y-59324741D01*
X154174674Y-59494479D01*
X153892410Y-59611396D01*
X153808247Y-59628137D01*
X153592761Y-59671000D01*
X153287239Y-59671000D01*
X153071753Y-59628137D01*
X152987590Y-59611396D01*
X152705326Y-59494479D01*
X152451295Y-59324741D01*
X152235259Y-59108705D01*
X152065521Y-58854674D01*
X151948604Y-58572410D01*
X151889000Y-58272760D01*
X151889000Y-57967240D01*
X151948604Y-57667590D01*
X152065521Y-57385326D01*
X152235259Y-57131295D01*
X152451295Y-56915259D01*
X152705326Y-56745521D01*
X152987590Y-56628604D01*
X153137415Y-56598802D01*
X153287239Y-56569000D01*
X153592761Y-56569000D01*
X153742585Y-56598802D01*
G37*
G36*
X106051000Y-58051000D02*
G01*
X102949000Y-58051000D01*
X102949000Y-54949000D01*
X106051000Y-54949000D01*
X106051000Y-58051000D01*
G37*
G36*
X192323228Y-55541703D02*
G01*
X192478100Y-55605853D01*
X192617481Y-55698985D01*
X192736015Y-55817519D01*
X192829147Y-55956900D01*
X192893297Y-56111772D01*
X192926000Y-56276184D01*
X192926000Y-56443816D01*
X192893297Y-56608228D01*
X192829147Y-56763100D01*
X192736015Y-56902481D01*
X192617481Y-57021015D01*
X192478100Y-57114147D01*
X192323228Y-57178297D01*
X192158816Y-57211000D01*
X191991184Y-57211000D01*
X191826772Y-57178297D01*
X191671900Y-57114147D01*
X191532519Y-57021015D01*
X191413985Y-56902481D01*
X191320853Y-56763100D01*
X191256703Y-56608228D01*
X191224000Y-56443816D01*
X191224000Y-56276184D01*
X191256703Y-56111772D01*
X191320853Y-55956900D01*
X191413985Y-55817519D01*
X191532519Y-55698985D01*
X191671900Y-55605853D01*
X191826772Y-55541703D01*
X191991184Y-55509000D01*
X192158816Y-55509000D01*
X192323228Y-55541703D01*
G37*
G36*
X206379487Y-53248996D02*
G01*
X206616253Y-53347068D01*
X206616255Y-53347069D01*
X206829339Y-53489447D01*
X207010553Y-53670661D01*
X207152932Y-53883747D01*
X207251004Y-54120513D01*
X207301000Y-54371861D01*
X207301000Y-54628139D01*
X207251004Y-54879487D01*
X207152932Y-55116253D01*
X207152931Y-55116255D01*
X207010553Y-55329339D01*
X206829339Y-55510553D01*
X206616255Y-55652931D01*
X206616254Y-55652932D01*
X206616253Y-55652932D01*
X206379487Y-55751004D01*
X206128139Y-55801000D01*
X205871861Y-55801000D01*
X205620513Y-55751004D01*
X205383747Y-55652932D01*
X205383746Y-55652932D01*
X205383745Y-55652931D01*
X205170661Y-55510553D01*
X204989447Y-55329339D01*
X204847069Y-55116255D01*
X204847068Y-55116253D01*
X204748996Y-54879487D01*
X204699000Y-54628139D01*
X204699000Y-54371861D01*
X204748996Y-54120513D01*
X204847068Y-53883747D01*
X204989447Y-53670661D01*
X205170661Y-53489447D01*
X205383745Y-53347069D01*
X205383747Y-53347068D01*
X205620513Y-53248996D01*
X205871861Y-53199000D01*
X206128139Y-53199000D01*
X206379487Y-53248996D01*
G37*
M02*
