M48
; DRILL file {KiCad 5.1.6+dfsg1-1} date Sun Aug 30 09:22:17 2020
; FORMAT={-:-/ absolute / inch / decimal}
; #@! TF.CreationDate,2020-08-30T09:22:17+02:00
; #@! TF.GenerationSoftware,Kicad,Pcbnew,5.1.6+dfsg1-1
; #@! TF.FileFunction,Plated,1,2,PTH
FMAT,2
INCH
T1C0.0157
T2C0.0315
T3C0.0394
T4C0.0409
T5C0.0433
T6C0.0472
T7C0.0512
T8C0.0591
T9C0.0709
T10C0.0787
%
G90
G05
T1
X4.137Y-2.1685
X4.6067Y-2.9188
X4.6067Y-3.6188
X4.6614Y-3.8504
X4.8858Y-3.8504
X6.1417Y-4.7677
X6.1417Y-5.0394
X6.2087Y-5.189
X6.317Y-4.5451
X6.3386Y-5.2087
X6.557Y-4.5285
X6.5669Y-4.6757
X6.5709Y-4.9291
X6.6264Y-4.6659
X6.9921Y-5.2717
X6.9921Y-5.4094
X7.0Y-4.7746
X7.0472Y-5.0945
X7.0551Y-4.8937
X7.2793Y-4.6772
X7.3583Y-4.4685
X7.3937Y-4.9606
X7.3974Y-4.7485
X7.4348Y-4.6772
X7.7677Y-3.1535
X7.7776Y-2.3504
X7.7825Y-4.0079
X7.7956Y-4.8337
X7.8346Y-4.8031
X7.8484Y-3.1535
X7.8803Y-4.8417
X7.917Y-4.4685
X7.9251Y-4.8083
X8.1024Y-5.0236
X8.1024Y-5.1024
X8.2077Y-4.5778
T2
X6.4843Y-5.1181
X6.4843Y-5.2181
X6.4843Y-5.3181
X6.4843Y-5.4181
X6.7843Y-5.1181
X6.7843Y-5.2181
X6.7843Y-5.3181
X6.7843Y-5.4181
X7.562Y-3.7939
X7.562Y-3.9435
X7.562Y-3.0189
X7.562Y-3.1685
X7.562Y-2.2189
X7.562Y-2.3685
T3
X7.6378Y-5.1117
X7.6378Y-5.3085
X8.2087Y-5.1117
X8.2087Y-5.2101
X8.2087Y-5.3085
T4
X4.015Y-4.4185
X4.015Y-5.4185
X4.115Y-4.4185
X4.115Y-5.4185
X4.215Y-4.4185
X4.215Y-5.4185
X4.315Y-4.4185
X4.315Y-5.4185
X4.415Y-4.4185
X4.415Y-5.4185
X4.515Y-4.4185
X4.515Y-5.4185
X4.615Y-4.4185
X4.615Y-5.4185
X4.715Y-4.4185
X4.715Y-5.4185
X4.815Y-4.4185
X4.815Y-5.4185
X4.915Y-4.4185
X4.915Y-5.4185
X5.015Y-4.4185
X5.015Y-5.4185
X5.115Y-4.4185
X5.115Y-5.4185
X5.215Y-4.4185
X5.215Y-5.4185
X5.315Y-4.4185
X5.315Y-5.4185
X5.415Y-4.4185
X5.415Y-5.4185
X5.515Y-4.4185
X5.515Y-5.4185
X5.615Y-4.4185
X5.615Y-5.4185
X5.715Y-4.4185
X5.715Y-5.4185
X5.815Y-4.4185
X5.815Y-5.4185
T5
X7.2441Y-5.1378
X7.2441Y-5.315
X7.5Y-5.1378
X7.5Y-5.315
T6
X5.3559Y-3.4234
X5.3559Y-4.1636
X5.4559Y-3.4234
X5.4559Y-4.1636
X5.8181Y-3.4234
X5.8181Y-4.1636
X5.9181Y-3.4234
X5.9181Y-4.1636
T7
X8.1102Y-3.8217
X8.1102Y-4.0185
X8.1102Y-4.2154
X8.112Y-3.0498
X8.112Y-3.2467
X8.112Y-3.4435
X8.1102Y-2.1457
X8.1102Y-2.3425
X8.1102Y-2.5394
X4.6067Y-2.4709
X4.6067Y-2.7661
X5.3941Y-2.4709
X5.3941Y-2.7661
X5.5909Y-2.4709
X5.5909Y-2.7661
T8
X6.0409Y-3.1382
X6.9307Y-3.1382
X6.0659Y-3.9882
X6.9557Y-3.9882
X6.0409Y-2.2882
X6.9307Y-2.2882
T9
X4.137Y-3.2185
X4.137Y-3.6122
T2
G00X4.1909Y-4.248
M15
G01X4.2264Y-4.248
M16
G05
G00X4.3287Y-3.8543
M15
G01X4.3642Y-3.8543
M16
G05
T3
G00X4.8976Y-3.3583
M15
G01X4.8976Y-3.1614
M16
G05
G00X5.1732Y-3.3583
M15
G01X5.1732Y-3.1614
M16
G05
T7
G00X4.0354Y-4.0453
M15
G01X4.0354Y-4.0728
M16
G05
G00X4.3209Y-3.9567
M15
G01X4.2933Y-3.9567
M16
G05
G00X4.4803Y-4.2421
M15
G01X4.4803Y-4.2146
M16
G05
T10
G00X7.9232Y-4.9896
M15
G01X7.9035Y-4.9896
M16
G05
G00X7.9232Y-5.4306
M15
G01X7.9035Y-5.4306
M16
G05
T0
M30
