G04 #@! TF.GenerationSoftware,KiCad,Pcbnew,5.1.6+dfsg1-1*
G04 #@! TF.CreationDate,2020-08-30T09:22:09+02:00*
G04 #@! TF.ProjectId,ledStripDriver,6c656453-7472-4697-9044-72697665722e,rev?*
G04 #@! TF.SameCoordinates,Original*
G04 #@! TF.FileFunction,Copper,L1,Top*
G04 #@! TF.FilePolarity,Positive*
%FSLAX46Y46*%
G04 Gerber Fmt 4.6, Leading zero omitted, Abs format (unit mm)*
G04 Created by KiCad (PCBNEW 5.1.6+dfsg1-1) date 2020-08-30 09:22:09*
%MOMM*%
%LPD*%
G01*
G04 APERTURE LIST*
G04 #@! TA.AperFunction,ComponentPad*
%ADD10R,2.500000X7.000000*%
G04 #@! TD*
G04 #@! TA.AperFunction,ComponentPad*
%ADD11C,3.000000*%
G04 #@! TD*
G04 #@! TA.AperFunction,ComponentPad*
%ADD12R,3.000000X3.000000*%
G04 #@! TD*
G04 #@! TA.AperFunction,ComponentPad*
%ADD13O,1.600000X1.600000*%
G04 #@! TD*
G04 #@! TA.AperFunction,ComponentPad*
%ADD14R,1.600000X1.600000*%
G04 #@! TD*
G04 #@! TA.AperFunction,ComponentPad*
%ADD15C,1.600000*%
G04 #@! TD*
G04 #@! TA.AperFunction,ComponentPad*
%ADD16C,2.000000*%
G04 #@! TD*
G04 #@! TA.AperFunction,ComponentPad*
%ADD17R,2.000000X2.000000*%
G04 #@! TD*
G04 #@! TA.AperFunction,ComponentPad*
%ADD18R,3.000000X2.500000*%
G04 #@! TD*
G04 #@! TA.AperFunction,ComponentPad*
%ADD19R,2.100000X1.400000*%
G04 #@! TD*
G04 #@! TA.AperFunction,ComponentPad*
%ADD20R,1.800000X2.300000*%
G04 #@! TD*
G04 #@! TA.AperFunction,ComponentPad*
%ADD21R,2.300000X1.800000*%
G04 #@! TD*
G04 #@! TA.AperFunction,ComponentPad*
%ADD22R,2.300000X3.200000*%
G04 #@! TD*
G04 #@! TA.AperFunction,ComponentPad*
%ADD23C,1.560000*%
G04 #@! TD*
G04 #@! TA.AperFunction,ComponentPad*
%ADD24R,1.560000X1.560000*%
G04 #@! TD*
G04 #@! TA.AperFunction,SMDPad,CuDef*
%ADD25R,0.800000X0.900000*%
G04 #@! TD*
G04 #@! TA.AperFunction,SMDPad,CuDef*
%ADD26R,0.900000X0.800000*%
G04 #@! TD*
G04 #@! TA.AperFunction,ComponentPad*
%ADD27C,1.950000*%
G04 #@! TD*
G04 #@! TA.AperFunction,ComponentPad*
%ADD28R,1.950000X1.950000*%
G04 #@! TD*
G04 #@! TA.AperFunction,ComponentPad*
%ADD29C,2.500000*%
G04 #@! TD*
G04 #@! TA.AperFunction,ComponentPad*
%ADD30R,2.500000X2.500000*%
G04 #@! TD*
G04 #@! TA.AperFunction,SMDPad,CuDef*
%ADD31R,1.800000X3.500000*%
G04 #@! TD*
G04 #@! TA.AperFunction,SMDPad,CuDef*
%ADD32R,3.500000X1.800000*%
G04 #@! TD*
G04 #@! TA.AperFunction,ViaPad*
%ADD33C,0.800000*%
G04 #@! TD*
G04 #@! TA.AperFunction,ViaPad*
%ADD34C,2.000000*%
G04 #@! TD*
G04 #@! TA.AperFunction,Conductor*
%ADD35C,0.250000*%
G04 #@! TD*
G04 #@! TA.AperFunction,Conductor*
%ADD36C,0.500000*%
G04 #@! TD*
G04 #@! TA.AperFunction,Conductor*
%ADD37C,5.000000*%
G04 #@! TD*
G04 #@! TA.AperFunction,Conductor*
%ADD38C,0.600000*%
G04 #@! TD*
G04 #@! TA.AperFunction,Conductor*
%ADD39C,0.254000*%
G04 #@! TD*
G04 APERTURE END LIST*
D10*
X131400000Y-82800000D03*
X124400000Y-82800000D03*
D11*
X154075000Y-101300000D03*
X176675000Y-101300000D03*
X153440000Y-79710000D03*
X176040000Y-79710000D03*
X153440000Y-58120000D03*
X176040000Y-58120000D03*
X105080000Y-91750000D03*
D12*
X105080000Y-81750000D03*
D13*
X172320000Y-130000000D03*
X164700000Y-137620000D03*
X172320000Y-132540000D03*
X164700000Y-135080000D03*
X172320000Y-135080000D03*
X164700000Y-132540000D03*
X172320000Y-137620000D03*
D14*
X164700000Y-130000000D03*
G04 #@! TA.AperFunction,SMDPad,CuDef*
G36*
G01*
X118450000Y-103750001D02*
X118450000Y-102849999D01*
G75*
G02*
X118699999Y-102600000I249999J0D01*
G01*
X119350001Y-102600000D01*
G75*
G02*
X119600000Y-102849999I0J-249999D01*
G01*
X119600000Y-103750001D01*
G75*
G02*
X119350001Y-104000000I-249999J0D01*
G01*
X118699999Y-104000000D01*
G75*
G02*
X118450000Y-103750001I0J249999D01*
G01*
G37*
G04 #@! TD.AperFunction*
G04 #@! TA.AperFunction,SMDPad,CuDef*
G36*
G01*
X116400000Y-103750001D02*
X116400000Y-102849999D01*
G75*
G02*
X116649999Y-102600000I249999J0D01*
G01*
X117300001Y-102600000D01*
G75*
G02*
X117550000Y-102849999I0J-249999D01*
G01*
X117550000Y-103750001D01*
G75*
G02*
X117300001Y-104000000I-249999J0D01*
G01*
X116649999Y-104000000D01*
G75*
G02*
X116400000Y-103750001I0J249999D01*
G01*
G37*
G04 #@! TD.AperFunction*
G04 #@! TA.AperFunction,SMDPad,CuDef*
G36*
G01*
X118425000Y-106050001D02*
X118425000Y-105149999D01*
G75*
G02*
X118674999Y-104900000I249999J0D01*
G01*
X119325001Y-104900000D01*
G75*
G02*
X119575000Y-105149999I0J-249999D01*
G01*
X119575000Y-106050001D01*
G75*
G02*
X119325001Y-106300000I-249999J0D01*
G01*
X118674999Y-106300000D01*
G75*
G02*
X118425000Y-106050001I0J249999D01*
G01*
G37*
G04 #@! TD.AperFunction*
G04 #@! TA.AperFunction,SMDPad,CuDef*
G36*
G01*
X116375000Y-106050001D02*
X116375000Y-105149999D01*
G75*
G02*
X116624999Y-104900000I249999J0D01*
G01*
X117275001Y-104900000D01*
G75*
G02*
X117525000Y-105149999I0J-249999D01*
G01*
X117525000Y-106050001D01*
G75*
G02*
X117275001Y-106300000I-249999J0D01*
G01*
X116624999Y-106300000D01*
G75*
G02*
X116375000Y-106050001I0J249999D01*
G01*
G37*
G04 #@! TD.AperFunction*
G04 #@! TA.AperFunction,SMDPad,CuDef*
G36*
G01*
X176850000Y-130550001D02*
X176850000Y-129649999D01*
G75*
G02*
X177099999Y-129400000I249999J0D01*
G01*
X177750001Y-129400000D01*
G75*
G02*
X178000000Y-129649999I0J-249999D01*
G01*
X178000000Y-130550001D01*
G75*
G02*
X177750001Y-130800000I-249999J0D01*
G01*
X177099999Y-130800000D01*
G75*
G02*
X176850000Y-130550001I0J249999D01*
G01*
G37*
G04 #@! TD.AperFunction*
G04 #@! TA.AperFunction,SMDPad,CuDef*
G36*
G01*
X174800000Y-130550001D02*
X174800000Y-129649999D01*
G75*
G02*
X175049999Y-129400000I249999J0D01*
G01*
X175700001Y-129400000D01*
G75*
G02*
X175950000Y-129649999I0J-249999D01*
G01*
X175950000Y-130550001D01*
G75*
G02*
X175700001Y-130800000I-249999J0D01*
G01*
X175049999Y-130800000D01*
G75*
G02*
X174800000Y-130550001I0J249999D01*
G01*
G37*
G04 #@! TD.AperFunction*
G04 #@! TA.AperFunction,SMDPad,CuDef*
G36*
G01*
X206250001Y-121350000D02*
X205349999Y-121350000D01*
G75*
G02*
X205100000Y-121100001I0J249999D01*
G01*
X205100000Y-120449999D01*
G75*
G02*
X205349999Y-120200000I249999J0D01*
G01*
X206250001Y-120200000D01*
G75*
G02*
X206500000Y-120449999I0J-249999D01*
G01*
X206500000Y-121100001D01*
G75*
G02*
X206250001Y-121350000I-249999J0D01*
G01*
G37*
G04 #@! TD.AperFunction*
G04 #@! TA.AperFunction,SMDPad,CuDef*
G36*
G01*
X206250001Y-123400000D02*
X205349999Y-123400000D01*
G75*
G02*
X205100000Y-123150001I0J249999D01*
G01*
X205100000Y-122499999D01*
G75*
G02*
X205349999Y-122250000I249999J0D01*
G01*
X206250001Y-122250000D01*
G75*
G02*
X206500000Y-122499999I0J-249999D01*
G01*
X206500000Y-123150001D01*
G75*
G02*
X206250001Y-123400000I-249999J0D01*
G01*
G37*
G04 #@! TD.AperFunction*
G04 #@! TA.AperFunction,SMDPad,CuDef*
G36*
G01*
X209050001Y-121350000D02*
X208149999Y-121350000D01*
G75*
G02*
X207900000Y-121100001I0J249999D01*
G01*
X207900000Y-120449999D01*
G75*
G02*
X208149999Y-120200000I249999J0D01*
G01*
X209050001Y-120200000D01*
G75*
G02*
X209300000Y-120449999I0J-249999D01*
G01*
X209300000Y-121100001D01*
G75*
G02*
X209050001Y-121350000I-249999J0D01*
G01*
G37*
G04 #@! TD.AperFunction*
G04 #@! TA.AperFunction,SMDPad,CuDef*
G36*
G01*
X209050001Y-123400000D02*
X208149999Y-123400000D01*
G75*
G02*
X207900000Y-123150001I0J249999D01*
G01*
X207900000Y-122499999D01*
G75*
G02*
X208149999Y-122250000I249999J0D01*
G01*
X209050001Y-122250000D01*
G75*
G02*
X209300000Y-122499999I0J-249999D01*
G01*
X209300000Y-123150001D01*
G75*
G02*
X209050001Y-123400000I-249999J0D01*
G01*
G37*
G04 #@! TD.AperFunction*
G04 #@! TA.AperFunction,SMDPad,CuDef*
G36*
G01*
X117575000Y-107449999D02*
X117575000Y-108350001D01*
G75*
G02*
X117325001Y-108600000I-249999J0D01*
G01*
X116674999Y-108600000D01*
G75*
G02*
X116425000Y-108350001I0J249999D01*
G01*
X116425000Y-107449999D01*
G75*
G02*
X116674999Y-107200000I249999J0D01*
G01*
X117325001Y-107200000D01*
G75*
G02*
X117575000Y-107449999I0J-249999D01*
G01*
G37*
G04 #@! TD.AperFunction*
G04 #@! TA.AperFunction,SMDPad,CuDef*
G36*
G01*
X119625000Y-107449999D02*
X119625000Y-108350001D01*
G75*
G02*
X119375001Y-108600000I-249999J0D01*
G01*
X118724999Y-108600000D01*
G75*
G02*
X118475000Y-108350001I0J249999D01*
G01*
X118475000Y-107449999D01*
G75*
G02*
X118724999Y-107200000I249999J0D01*
G01*
X119375001Y-107200000D01*
G75*
G02*
X119625000Y-107449999I0J-249999D01*
G01*
G37*
G04 #@! TD.AperFunction*
G04 #@! TA.AperFunction,SMDPad,CuDef*
G36*
G01*
X116950000Y-97449999D02*
X116950000Y-98350001D01*
G75*
G02*
X116700001Y-98600000I-249999J0D01*
G01*
X116049999Y-98600000D01*
G75*
G02*
X115800000Y-98350001I0J249999D01*
G01*
X115800000Y-97449999D01*
G75*
G02*
X116049999Y-97200000I249999J0D01*
G01*
X116700001Y-97200000D01*
G75*
G02*
X116950000Y-97449999I0J-249999D01*
G01*
G37*
G04 #@! TD.AperFunction*
G04 #@! TA.AperFunction,SMDPad,CuDef*
G36*
G01*
X119000000Y-97449999D02*
X119000000Y-98350001D01*
G75*
G02*
X118750001Y-98600000I-249999J0D01*
G01*
X118099999Y-98600000D01*
G75*
G02*
X117850000Y-98350001I0J249999D01*
G01*
X117850000Y-97449999D01*
G75*
G02*
X118099999Y-97200000I249999J0D01*
G01*
X118750001Y-97200000D01*
G75*
G02*
X119000000Y-97449999I0J-249999D01*
G01*
G37*
G04 #@! TD.AperFunction*
G04 #@! TA.AperFunction,SMDPad,CuDef*
G36*
G01*
X161450001Y-130675000D02*
X160549999Y-130675000D01*
G75*
G02*
X160300000Y-130425001I0J249999D01*
G01*
X160300000Y-129774999D01*
G75*
G02*
X160549999Y-129525000I249999J0D01*
G01*
X161450001Y-129525000D01*
G75*
G02*
X161700000Y-129774999I0J-249999D01*
G01*
X161700000Y-130425001D01*
G75*
G02*
X161450001Y-130675000I-249999J0D01*
G01*
G37*
G04 #@! TD.AperFunction*
G04 #@! TA.AperFunction,SMDPad,CuDef*
G36*
G01*
X161450001Y-132725000D02*
X160549999Y-132725000D01*
G75*
G02*
X160300000Y-132475001I0J249999D01*
G01*
X160300000Y-131824999D01*
G75*
G02*
X160549999Y-131575000I249999J0D01*
G01*
X161450001Y-131575000D01*
G75*
G02*
X161700000Y-131824999I0J-249999D01*
G01*
X161700000Y-132475001D01*
G75*
G02*
X161450001Y-132725000I-249999J0D01*
G01*
G37*
G04 #@! TD.AperFunction*
G04 #@! TA.AperFunction,SMDPad,CuDef*
G36*
G01*
X176150000Y-137149999D02*
X176150000Y-138050001D01*
G75*
G02*
X175900001Y-138300000I-249999J0D01*
G01*
X175249999Y-138300000D01*
G75*
G02*
X175000000Y-138050001I0J249999D01*
G01*
X175000000Y-137149999D01*
G75*
G02*
X175249999Y-136900000I249999J0D01*
G01*
X175900001Y-136900000D01*
G75*
G02*
X176150000Y-137149999I0J-249999D01*
G01*
G37*
G04 #@! TD.AperFunction*
G04 #@! TA.AperFunction,SMDPad,CuDef*
G36*
G01*
X178200000Y-137149999D02*
X178200000Y-138050001D01*
G75*
G02*
X177950001Y-138300000I-249999J0D01*
G01*
X177299999Y-138300000D01*
G75*
G02*
X177050000Y-138050001I0J249999D01*
G01*
X177050000Y-137149999D01*
G75*
G02*
X177299999Y-136900000I249999J0D01*
G01*
X177950001Y-136900000D01*
G75*
G02*
X178200000Y-137149999I0J-249999D01*
G01*
G37*
G04 #@! TD.AperFunction*
G04 #@! TA.AperFunction,SMDPad,CuDef*
G36*
G01*
X176950000Y-134350001D02*
X176950000Y-133449999D01*
G75*
G02*
X177199999Y-133200000I249999J0D01*
G01*
X177850001Y-133200000D01*
G75*
G02*
X178100000Y-133449999I0J-249999D01*
G01*
X178100000Y-134350001D01*
G75*
G02*
X177850001Y-134600000I-249999J0D01*
G01*
X177199999Y-134600000D01*
G75*
G02*
X176950000Y-134350001I0J249999D01*
G01*
G37*
G04 #@! TD.AperFunction*
G04 #@! TA.AperFunction,SMDPad,CuDef*
G36*
G01*
X174900000Y-134350001D02*
X174900000Y-133449999D01*
G75*
G02*
X175149999Y-133200000I249999J0D01*
G01*
X175800001Y-133200000D01*
G75*
G02*
X176050000Y-133449999I0J-249999D01*
G01*
X176050000Y-134350001D01*
G75*
G02*
X175800001Y-134600000I-249999J0D01*
G01*
X175149999Y-134600000D01*
G75*
G02*
X174900000Y-134350001I0J249999D01*
G01*
G37*
G04 #@! TD.AperFunction*
G04 #@! TA.AperFunction,SMDPad,CuDef*
G36*
G01*
X157349999Y-131675000D02*
X158250001Y-131675000D01*
G75*
G02*
X158500000Y-131924999I0J-249999D01*
G01*
X158500000Y-132575001D01*
G75*
G02*
X158250001Y-132825000I-249999J0D01*
G01*
X157349999Y-132825000D01*
G75*
G02*
X157100000Y-132575001I0J249999D01*
G01*
X157100000Y-131924999D01*
G75*
G02*
X157349999Y-131675000I249999J0D01*
G01*
G37*
G04 #@! TD.AperFunction*
G04 #@! TA.AperFunction,SMDPad,CuDef*
G36*
G01*
X157349999Y-129625000D02*
X158250001Y-129625000D01*
G75*
G02*
X158500000Y-129874999I0J-249999D01*
G01*
X158500000Y-130525001D01*
G75*
G02*
X158250001Y-130775000I-249999J0D01*
G01*
X157349999Y-130775000D01*
G75*
G02*
X157100000Y-130525001I0J249999D01*
G01*
X157100000Y-129874999D01*
G75*
G02*
X157349999Y-129625000I249999J0D01*
G01*
G37*
G04 #@! TD.AperFunction*
G04 #@! TA.AperFunction,SMDPad,CuDef*
G36*
G01*
X206150001Y-116850000D02*
X205249999Y-116850000D01*
G75*
G02*
X205000000Y-116600001I0J249999D01*
G01*
X205000000Y-115949999D01*
G75*
G02*
X205249999Y-115700000I249999J0D01*
G01*
X206150001Y-115700000D01*
G75*
G02*
X206400000Y-115949999I0J-249999D01*
G01*
X206400000Y-116600001D01*
G75*
G02*
X206150001Y-116850000I-249999J0D01*
G01*
G37*
G04 #@! TD.AperFunction*
G04 #@! TA.AperFunction,SMDPad,CuDef*
G36*
G01*
X206150001Y-118900000D02*
X205249999Y-118900000D01*
G75*
G02*
X205000000Y-118650001I0J249999D01*
G01*
X205000000Y-117999999D01*
G75*
G02*
X205249999Y-117750000I249999J0D01*
G01*
X206150001Y-117750000D01*
G75*
G02*
X206400000Y-117999999I0J-249999D01*
G01*
X206400000Y-118650001D01*
G75*
G02*
X206150001Y-118900000I-249999J0D01*
G01*
G37*
G04 #@! TD.AperFunction*
G04 #@! TA.AperFunction,SMDPad,CuDef*
G36*
G01*
X208950001Y-116875000D02*
X208049999Y-116875000D01*
G75*
G02*
X207800000Y-116625001I0J249999D01*
G01*
X207800000Y-115974999D01*
G75*
G02*
X208049999Y-115725000I249999J0D01*
G01*
X208950001Y-115725000D01*
G75*
G02*
X209200000Y-115974999I0J-249999D01*
G01*
X209200000Y-116625001D01*
G75*
G02*
X208950001Y-116875000I-249999J0D01*
G01*
G37*
G04 #@! TD.AperFunction*
G04 #@! TA.AperFunction,SMDPad,CuDef*
G36*
G01*
X208950001Y-118925000D02*
X208049999Y-118925000D01*
G75*
G02*
X207800000Y-118675001I0J249999D01*
G01*
X207800000Y-118024999D01*
G75*
G02*
X208049999Y-117775000I249999J0D01*
G01*
X208950001Y-117775000D01*
G75*
G02*
X209200000Y-118024999I0J-249999D01*
G01*
X209200000Y-118675001D01*
G75*
G02*
X208950001Y-118925000I-249999J0D01*
G01*
G37*
G04 #@! TD.AperFunction*
G04 #@! TA.AperFunction,SMDPad,CuDef*
G36*
G01*
X198875000Y-102250001D02*
X198875000Y-101349999D01*
G75*
G02*
X199124999Y-101100000I249999J0D01*
G01*
X199775001Y-101100000D01*
G75*
G02*
X200025000Y-101349999I0J-249999D01*
G01*
X200025000Y-102250001D01*
G75*
G02*
X199775001Y-102500000I-249999J0D01*
G01*
X199124999Y-102500000D01*
G75*
G02*
X198875000Y-102250001I0J249999D01*
G01*
G37*
G04 #@! TD.AperFunction*
G04 #@! TA.AperFunction,SMDPad,CuDef*
G36*
G01*
X196825000Y-102250001D02*
X196825000Y-101349999D01*
G75*
G02*
X197074999Y-101100000I249999J0D01*
G01*
X197725001Y-101100000D01*
G75*
G02*
X197975000Y-101349999I0J-249999D01*
G01*
X197975000Y-102250001D01*
G75*
G02*
X197725001Y-102500000I-249999J0D01*
G01*
X197074999Y-102500000D01*
G75*
G02*
X196825000Y-102250001I0J249999D01*
G01*
G37*
G04 #@! TD.AperFunction*
G04 #@! TA.AperFunction,SMDPad,CuDef*
G36*
G01*
X198775000Y-80550001D02*
X198775000Y-79649999D01*
G75*
G02*
X199024999Y-79400000I249999J0D01*
G01*
X199675001Y-79400000D01*
G75*
G02*
X199925000Y-79649999I0J-249999D01*
G01*
X199925000Y-80550001D01*
G75*
G02*
X199675001Y-80800000I-249999J0D01*
G01*
X199024999Y-80800000D01*
G75*
G02*
X198775000Y-80550001I0J249999D01*
G01*
G37*
G04 #@! TD.AperFunction*
G04 #@! TA.AperFunction,SMDPad,CuDef*
G36*
G01*
X196725000Y-80550001D02*
X196725000Y-79649999D01*
G75*
G02*
X196974999Y-79400000I249999J0D01*
G01*
X197625001Y-79400000D01*
G75*
G02*
X197875000Y-79649999I0J-249999D01*
G01*
X197875000Y-80550001D01*
G75*
G02*
X197625001Y-80800000I-249999J0D01*
G01*
X196974999Y-80800000D01*
G75*
G02*
X196725000Y-80550001I0J249999D01*
G01*
G37*
G04 #@! TD.AperFunction*
G04 #@! TA.AperFunction,SMDPad,CuDef*
G36*
G01*
X199025000Y-60150001D02*
X199025000Y-59249999D01*
G75*
G02*
X199274999Y-59000000I249999J0D01*
G01*
X199925001Y-59000000D01*
G75*
G02*
X200175000Y-59249999I0J-249999D01*
G01*
X200175000Y-60150001D01*
G75*
G02*
X199925001Y-60400000I-249999J0D01*
G01*
X199274999Y-60400000D01*
G75*
G02*
X199025000Y-60150001I0J249999D01*
G01*
G37*
G04 #@! TD.AperFunction*
G04 #@! TA.AperFunction,SMDPad,CuDef*
G36*
G01*
X196975000Y-60150001D02*
X196975000Y-59249999D01*
G75*
G02*
X197224999Y-59000000I249999J0D01*
G01*
X197875001Y-59000000D01*
G75*
G02*
X198125000Y-59249999I0J-249999D01*
G01*
X198125000Y-60150001D01*
G75*
G02*
X197875001Y-60400000I-249999J0D01*
G01*
X197224999Y-60400000D01*
G75*
G02*
X196975000Y-60150001I0J249999D01*
G01*
G37*
G04 #@! TD.AperFunction*
G04 #@! TA.AperFunction,SMDPad,CuDef*
G36*
G01*
X145525000Y-109049999D02*
X145525000Y-109950001D01*
G75*
G02*
X145275001Y-110200000I-249999J0D01*
G01*
X144624999Y-110200000D01*
G75*
G02*
X144375000Y-109950001I0J249999D01*
G01*
X144375000Y-109049999D01*
G75*
G02*
X144624999Y-108800000I249999J0D01*
G01*
X145275001Y-108800000D01*
G75*
G02*
X145525000Y-109049999I0J-249999D01*
G01*
G37*
G04 #@! TD.AperFunction*
G04 #@! TA.AperFunction,SMDPad,CuDef*
G36*
G01*
X147575000Y-109049999D02*
X147575000Y-109950001D01*
G75*
G02*
X147325001Y-110200000I-249999J0D01*
G01*
X146674999Y-110200000D01*
G75*
G02*
X146425000Y-109950001I0J249999D01*
G01*
X146425000Y-109049999D01*
G75*
G02*
X146674999Y-108800000I249999J0D01*
G01*
X147325001Y-108800000D01*
G75*
G02*
X147575000Y-109049999I0J-249999D01*
G01*
G37*
G04 #@! TD.AperFunction*
G04 #@! TA.AperFunction,SMDPad,CuDef*
G36*
G01*
X140550000Y-109049999D02*
X140550000Y-109950001D01*
G75*
G02*
X140300001Y-110200000I-249999J0D01*
G01*
X139649999Y-110200000D01*
G75*
G02*
X139400000Y-109950001I0J249999D01*
G01*
X139400000Y-109049999D01*
G75*
G02*
X139649999Y-108800000I249999J0D01*
G01*
X140300001Y-108800000D01*
G75*
G02*
X140550000Y-109049999I0J-249999D01*
G01*
G37*
G04 #@! TD.AperFunction*
G04 #@! TA.AperFunction,SMDPad,CuDef*
G36*
G01*
X142600000Y-109049999D02*
X142600000Y-109950001D01*
G75*
G02*
X142350001Y-110200000I-249999J0D01*
G01*
X141699999Y-110200000D01*
G75*
G02*
X141450000Y-109950001I0J249999D01*
G01*
X141450000Y-109049999D01*
G75*
G02*
X141699999Y-108800000I249999J0D01*
G01*
X142350001Y-108800000D01*
G75*
G02*
X142600000Y-109049999I0J-249999D01*
G01*
G37*
G04 #@! TD.AperFunction*
D15*
X192075000Y-76680000D03*
D14*
X192075000Y-80480000D03*
D16*
X190500000Y-130500000D03*
X190500000Y-135000000D03*
X184000000Y-130500000D03*
X184000000Y-135000000D03*
D17*
X208500000Y-134836000D03*
D16*
X208500000Y-132336000D03*
X208500000Y-129836000D03*
D18*
X201000000Y-137936000D03*
X201000000Y-126736000D03*
D16*
X194000000Y-134836000D03*
X194000000Y-129836000D03*
D19*
X110400000Y-97900000D03*
X106900000Y-107900000D03*
D20*
X113800000Y-107400000D03*
D21*
X109400000Y-100500000D03*
D20*
X102500000Y-103100000D03*
D15*
X192075000Y-96365000D03*
D14*
X192075000Y-100165000D03*
D15*
X192075000Y-56360000D03*
D14*
X192075000Y-60160000D03*
D22*
X138580000Y-86055000D03*
X136040000Y-86055000D03*
X150320000Y-106655000D03*
X147780000Y-86055000D03*
X136040000Y-106655000D03*
X138580000Y-106655000D03*
X150320000Y-86055000D03*
X147780000Y-106655000D03*
D23*
X101980000Y-137630000D03*
X104520000Y-137630000D03*
X107060000Y-137630000D03*
X109600000Y-137630000D03*
X112140000Y-137630000D03*
X114680000Y-137630000D03*
X117220000Y-137630000D03*
X119760000Y-137630000D03*
X122300000Y-137630000D03*
X124840000Y-137630000D03*
X127380000Y-137630000D03*
X129920000Y-137630000D03*
X132460000Y-137630000D03*
X135000000Y-137630000D03*
X137540000Y-137630000D03*
X140080000Y-137630000D03*
X142620000Y-137630000D03*
X145160000Y-137630000D03*
X147700000Y-137630000D03*
X104520000Y-112230000D03*
X107060000Y-112230000D03*
X109600000Y-112230000D03*
X112140000Y-112230000D03*
X114680000Y-112230000D03*
X117220000Y-112230000D03*
X119760000Y-112230000D03*
X122300000Y-112230000D03*
X124840000Y-112230000D03*
X127380000Y-112230000D03*
X129920000Y-112230000D03*
X132460000Y-112230000D03*
X135000000Y-112230000D03*
X137540000Y-112230000D03*
X140080000Y-112230000D03*
X142620000Y-112230000D03*
X101980000Y-112230000D03*
X145160000Y-112230000D03*
D24*
X147700000Y-112230000D03*
G04 #@! TA.AperFunction,SMDPad,CuDef*
G36*
G01*
X195446001Y-115590000D02*
X194545999Y-115590000D01*
G75*
G02*
X194296000Y-115340001I0J249999D01*
G01*
X194296000Y-114689999D01*
G75*
G02*
X194545999Y-114440000I249999J0D01*
G01*
X195446001Y-114440000D01*
G75*
G02*
X195696000Y-114689999I0J-249999D01*
G01*
X195696000Y-115340001D01*
G75*
G02*
X195446001Y-115590000I-249999J0D01*
G01*
G37*
G04 #@! TD.AperFunction*
G04 #@! TA.AperFunction,SMDPad,CuDef*
G36*
G01*
X195446001Y-117640000D02*
X194545999Y-117640000D01*
G75*
G02*
X194296000Y-117390001I0J249999D01*
G01*
X194296000Y-116739999D01*
G75*
G02*
X194545999Y-116490000I249999J0D01*
G01*
X195446001Y-116490000D01*
G75*
G02*
X195696000Y-116739999I0J-249999D01*
G01*
X195696000Y-117390001D01*
G75*
G02*
X195446001Y-117640000I-249999J0D01*
G01*
G37*
G04 #@! TD.AperFunction*
G04 #@! TA.AperFunction,SMDPad,CuDef*
G36*
G01*
X181730001Y-116098000D02*
X180829999Y-116098000D01*
G75*
G02*
X180580000Y-115848001I0J249999D01*
G01*
X180580000Y-115197999D01*
G75*
G02*
X180829999Y-114948000I249999J0D01*
G01*
X181730001Y-114948000D01*
G75*
G02*
X181980000Y-115197999I0J-249999D01*
G01*
X181980000Y-115848001D01*
G75*
G02*
X181730001Y-116098000I-249999J0D01*
G01*
G37*
G04 #@! TD.AperFunction*
G04 #@! TA.AperFunction,SMDPad,CuDef*
G36*
G01*
X181730001Y-118148000D02*
X180829999Y-118148000D01*
G75*
G02*
X180580000Y-117898001I0J249999D01*
G01*
X180580000Y-117247999D01*
G75*
G02*
X180829999Y-116998000I249999J0D01*
G01*
X181730001Y-116998000D01*
G75*
G02*
X181980000Y-117247999I0J-249999D01*
G01*
X181980000Y-117898001D01*
G75*
G02*
X181730001Y-118148000I-249999J0D01*
G01*
G37*
G04 #@! TD.AperFunction*
G04 #@! TA.AperFunction,SMDPad,CuDef*
G36*
G01*
X162925001Y-117749000D02*
X162024999Y-117749000D01*
G75*
G02*
X161775000Y-117499001I0J249999D01*
G01*
X161775000Y-116848999D01*
G75*
G02*
X162024999Y-116599000I249999J0D01*
G01*
X162925001Y-116599000D01*
G75*
G02*
X163175000Y-116848999I0J-249999D01*
G01*
X163175000Y-117499001D01*
G75*
G02*
X162925001Y-117749000I-249999J0D01*
G01*
G37*
G04 #@! TD.AperFunction*
G04 #@! TA.AperFunction,SMDPad,CuDef*
G36*
G01*
X162925001Y-119799000D02*
X162024999Y-119799000D01*
G75*
G02*
X161775000Y-119549001I0J249999D01*
G01*
X161775000Y-118898999D01*
G75*
G02*
X162024999Y-118649000I249999J0D01*
G01*
X162925001Y-118649000D01*
G75*
G02*
X163175000Y-118898999I0J-249999D01*
G01*
X163175000Y-119549001D01*
G75*
G02*
X162925001Y-119799000I-249999J0D01*
G01*
G37*
G04 #@! TD.AperFunction*
G04 #@! TA.AperFunction,SMDPad,CuDef*
G36*
G01*
X201542000Y-121062001D02*
X201542000Y-120161999D01*
G75*
G02*
X201791999Y-119912000I249999J0D01*
G01*
X202442001Y-119912000D01*
G75*
G02*
X202692000Y-120161999I0J-249999D01*
G01*
X202692000Y-121062001D01*
G75*
G02*
X202442001Y-121312000I-249999J0D01*
G01*
X201791999Y-121312000D01*
G75*
G02*
X201542000Y-121062001I0J249999D01*
G01*
G37*
G04 #@! TD.AperFunction*
G04 #@! TA.AperFunction,SMDPad,CuDef*
G36*
G01*
X199492000Y-121062001D02*
X199492000Y-120161999D01*
G75*
G02*
X199741999Y-119912000I249999J0D01*
G01*
X200392001Y-119912000D01*
G75*
G02*
X200642000Y-120161999I0J-249999D01*
G01*
X200642000Y-121062001D01*
G75*
G02*
X200392001Y-121312000I-249999J0D01*
G01*
X199741999Y-121312000D01*
G75*
G02*
X199492000Y-121062001I0J249999D01*
G01*
G37*
G04 #@! TD.AperFunction*
G04 #@! TA.AperFunction,SMDPad,CuDef*
G36*
G01*
X187318000Y-121062001D02*
X187318000Y-120161999D01*
G75*
G02*
X187567999Y-119912000I249999J0D01*
G01*
X188218001Y-119912000D01*
G75*
G02*
X188468000Y-120161999I0J-249999D01*
G01*
X188468000Y-121062001D01*
G75*
G02*
X188218001Y-121312000I-249999J0D01*
G01*
X187567999Y-121312000D01*
G75*
G02*
X187318000Y-121062001I0J249999D01*
G01*
G37*
G04 #@! TD.AperFunction*
G04 #@! TA.AperFunction,SMDPad,CuDef*
G36*
G01*
X185268000Y-121062001D02*
X185268000Y-120161999D01*
G75*
G02*
X185517999Y-119912000I249999J0D01*
G01*
X186168001Y-119912000D01*
G75*
G02*
X186418000Y-120161999I0J-249999D01*
G01*
X186418000Y-121062001D01*
G75*
G02*
X186168001Y-121312000I-249999J0D01*
G01*
X185517999Y-121312000D01*
G75*
G02*
X185268000Y-121062001I0J249999D01*
G01*
G37*
G04 #@! TD.AperFunction*
G04 #@! TA.AperFunction,SMDPad,CuDef*
G36*
G01*
X171570001Y-117114000D02*
X170669999Y-117114000D01*
G75*
G02*
X170420000Y-116864001I0J249999D01*
G01*
X170420000Y-116213999D01*
G75*
G02*
X170669999Y-115964000I249999J0D01*
G01*
X171570001Y-115964000D01*
G75*
G02*
X171820000Y-116213999I0J-249999D01*
G01*
X171820000Y-116864001D01*
G75*
G02*
X171570001Y-117114000I-249999J0D01*
G01*
G37*
G04 #@! TD.AperFunction*
G04 #@! TA.AperFunction,SMDPad,CuDef*
G36*
G01*
X171570001Y-119164000D02*
X170669999Y-119164000D01*
G75*
G02*
X170420000Y-118914001I0J249999D01*
G01*
X170420000Y-118263999D01*
G75*
G02*
X170669999Y-118014000I249999J0D01*
G01*
X171570001Y-118014000D01*
G75*
G02*
X171820000Y-118263999I0J-249999D01*
G01*
X171820000Y-118914001D01*
G75*
G02*
X171570001Y-119164000I-249999J0D01*
G01*
G37*
G04 #@! TD.AperFunction*
G04 #@! TA.AperFunction,SMDPad,CuDef*
G36*
G01*
X102724999Y-56800000D02*
X103625001Y-56800000D01*
G75*
G02*
X103875000Y-57049999I0J-249999D01*
G01*
X103875000Y-57700001D01*
G75*
G02*
X103625001Y-57950000I-249999J0D01*
G01*
X102724999Y-57950000D01*
G75*
G02*
X102475000Y-57700001I0J249999D01*
G01*
X102475000Y-57049999D01*
G75*
G02*
X102724999Y-56800000I249999J0D01*
G01*
G37*
G04 #@! TD.AperFunction*
G04 #@! TA.AperFunction,SMDPad,CuDef*
G36*
G01*
X102724999Y-54750000D02*
X103625001Y-54750000D01*
G75*
G02*
X103875000Y-54999999I0J-249999D01*
G01*
X103875000Y-55650001D01*
G75*
G02*
X103625001Y-55900000I-249999J0D01*
G01*
X102724999Y-55900000D01*
G75*
G02*
X102475000Y-55650001I0J249999D01*
G01*
X102475000Y-54999999D01*
G75*
G02*
X102724999Y-54750000I249999J0D01*
G01*
G37*
G04 #@! TD.AperFunction*
D25*
X201092000Y-115040000D03*
X202042000Y-117040000D03*
X200142000Y-117040000D03*
X186868000Y-115040000D03*
X187818000Y-117040000D03*
X185918000Y-117040000D03*
D26*
X166310000Y-117564000D03*
X168310000Y-116614000D03*
X168310000Y-118514000D03*
D25*
X107620000Y-57350000D03*
X106670000Y-55350000D03*
X108570000Y-55350000D03*
D27*
X142010000Y-70260000D03*
X137010000Y-70260000D03*
X137010000Y-62760000D03*
X142010000Y-62760000D03*
D28*
X117010000Y-70260000D03*
D27*
X117010000Y-62760000D03*
D29*
X206000000Y-97070000D03*
X206000000Y-102070000D03*
D30*
X206000000Y-107070000D03*
D29*
X206045000Y-77465000D03*
X206045000Y-82465000D03*
D30*
X206045000Y-87465000D03*
D29*
X206000000Y-54500000D03*
X206000000Y-59500000D03*
D30*
X206000000Y-64500000D03*
D31*
X108890000Y-64010000D03*
X108890000Y-69010000D03*
D32*
X127265000Y-101435000D03*
X122265000Y-101435000D03*
X137505000Y-79210000D03*
X142505000Y-79210000D03*
D33*
X161000000Y-132300000D03*
X177600000Y-133900000D03*
X105080000Y-55080000D03*
X208475000Y-116275000D03*
X157700000Y-131800000D03*
X117010000Y-91918000D03*
X117010000Y-74138000D03*
X166900000Y-125200000D03*
X166800000Y-118764010D03*
X168310000Y-118514000D03*
X199350000Y-80100000D03*
X187893000Y-120612000D03*
X187800000Y-126000000D03*
D34*
X160452000Y-115445000D03*
D33*
X184893000Y-118800000D03*
X188843000Y-118800000D03*
X156000000Y-128000000D03*
X156000000Y-121100000D03*
X179000000Y-129400000D03*
X179200000Y-124300000D03*
X118400000Y-97800000D03*
X124100000Y-97800000D03*
X166548000Y-115024000D03*
X197550000Y-59700000D03*
X186900000Y-113499999D03*
X197300000Y-80100000D03*
X201092000Y-113500000D03*
X197675000Y-101800000D03*
X177600000Y-137400000D03*
X177800000Y-121275000D03*
X201296866Y-122129663D03*
X199000000Y-122000000D03*
X205800000Y-127600000D03*
X205800000Y-129600000D03*
X200159354Y-122979451D03*
X198007925Y-122776750D03*
D35*
X105350000Y-55350000D02*
X105080000Y-55080000D01*
X106670000Y-55350000D02*
X105350000Y-55350000D01*
X147623372Y-105911628D02*
X147780000Y-105755000D01*
X147623372Y-108876628D02*
X147623372Y-105911628D01*
X147000000Y-109500000D02*
X147623372Y-108876628D01*
X145770000Y-105755000D02*
X147780000Y-105755000D01*
X142025000Y-109500000D02*
X145770000Y-105755000D01*
X205700000Y-116275000D02*
X208475000Y-116275000D01*
X208475000Y-116275000D02*
X208500000Y-116300000D01*
X161390000Y-132540000D02*
X161000000Y-132150000D01*
X164700000Y-132540000D02*
X161390000Y-132540000D01*
X190664000Y-134836000D02*
X190500000Y-135000000D01*
X194000000Y-134836000D02*
X190664000Y-134836000D01*
X182900000Y-133900000D02*
X184000000Y-135000000D01*
X177525000Y-133900000D02*
X182900000Y-133900000D01*
X140045000Y-85490000D02*
X138580000Y-86955000D01*
X142505000Y-83030000D02*
X142505000Y-79210000D01*
X138580000Y-86955000D02*
X142505000Y-83030000D01*
X136040000Y-86955000D02*
X138580000Y-86955000D01*
D36*
X115760000Y-69010000D02*
X117010000Y-70260000D01*
X108890000Y-69010000D02*
X115760000Y-69010000D01*
X117010000Y-92030000D02*
X117010000Y-91918000D01*
X126415000Y-101435000D02*
X117010000Y-92030000D01*
X127265000Y-101435000D02*
X126415000Y-101435000D01*
X138580000Y-105755000D02*
X136040000Y-105755000D01*
X136000000Y-101500000D02*
X127265000Y-101435000D01*
X136040000Y-105755000D02*
X136000000Y-101500000D01*
X117010000Y-74138000D02*
X117010000Y-70260000D01*
X110140000Y-62760000D02*
X108890000Y-64010000D01*
X117010000Y-62760000D02*
X110140000Y-62760000D01*
X107620000Y-62740000D02*
X108890000Y-64010000D01*
X107620000Y-57350000D02*
X107620000Y-62740000D01*
D35*
X107624999Y-54354999D02*
X104145001Y-54354999D01*
X108570000Y-55300000D02*
X107624999Y-54354999D01*
X104145001Y-54354999D02*
X103175000Y-55325000D01*
X108570000Y-55350000D02*
X108570000Y-55300000D01*
X205730000Y-101800000D02*
X206000000Y-102070000D01*
X199725000Y-101800000D02*
X205730000Y-101800000D01*
X171045000Y-116614000D02*
X171120000Y-116539000D01*
X168310000Y-116614000D02*
X171045000Y-116614000D01*
X168310000Y-116614000D02*
X168260000Y-116614000D01*
X147430000Y-125200000D02*
X166900000Y-125200000D01*
X135000000Y-137630000D02*
X147430000Y-125200000D01*
X168310000Y-117078998D02*
X168310000Y-116614000D01*
X166800000Y-118588998D02*
X168310000Y-117078998D01*
X166800000Y-118764010D02*
X166800000Y-118588998D01*
X147700000Y-113260000D02*
X148260000Y-113820000D01*
X147700000Y-112230000D02*
X147700000Y-113260000D01*
X171045000Y-118514000D02*
X171120000Y-118589000D01*
X171120000Y-118589000D02*
X172644000Y-117065000D01*
X172644000Y-114008000D02*
X172456000Y-113820000D01*
X172644000Y-117065000D02*
X172644000Y-114008000D01*
X148260000Y-113820000D02*
X172456000Y-113820000D01*
X185918000Y-120537000D02*
X185843000Y-120612000D01*
X185918000Y-117040000D02*
X185918000Y-120537000D01*
X172456000Y-113820000D02*
X173501001Y-112774999D01*
X188609001Y-114734001D02*
X188609001Y-112774999D01*
X187528001Y-115815001D02*
X188609001Y-114734001D01*
X187092999Y-115815001D02*
X187528001Y-115815001D01*
X185918000Y-116990000D02*
X187092999Y-115815001D01*
X185918000Y-117040000D02*
X185918000Y-116990000D01*
X173501001Y-112774999D02*
X188609001Y-112774999D01*
X200142000Y-116990000D02*
X200142000Y-117040000D01*
X200792000Y-116340000D02*
X200142000Y-116990000D01*
X201227002Y-116340000D02*
X200792000Y-116340000D01*
X201817001Y-115750001D02*
X201227002Y-116340000D01*
X201817001Y-113151999D02*
X201817001Y-115750001D01*
X201440001Y-112774999D02*
X201817001Y-113151999D01*
X188609001Y-112774999D02*
X201440001Y-112774999D01*
X200142000Y-120537000D02*
X200067000Y-120612000D01*
X200142000Y-117040000D02*
X200142000Y-120537000D01*
X164600000Y-130100000D02*
X164700000Y-130000000D01*
X161000000Y-130100000D02*
X164600000Y-130100000D01*
X176399999Y-131125001D02*
X177425000Y-130100000D01*
X162025001Y-131125001D02*
X176399999Y-131125001D01*
X161000000Y-130100000D02*
X162025001Y-131125001D01*
X168310000Y-118514000D02*
X171045000Y-118514000D01*
X157900000Y-130100000D02*
X157800000Y-130200000D01*
X161000000Y-130100000D02*
X157900000Y-130100000D01*
X202165000Y-82465000D02*
X206045000Y-82465000D01*
X199350000Y-80100000D02*
X202165000Y-82465000D01*
X187818000Y-120537000D02*
X187893000Y-120612000D01*
X187818000Y-117040000D02*
X187818000Y-120537000D01*
X154224999Y-126025001D02*
X142620000Y-137630000D01*
X184599999Y-126025001D02*
X154224999Y-126025001D01*
X187800000Y-126000000D02*
X184599999Y-126025001D01*
X202042000Y-120537000D02*
X202117000Y-120612000D01*
X202042000Y-117040000D02*
X202042000Y-120537000D01*
X193700000Y-126900000D02*
X202117000Y-120612000D01*
X155700000Y-126900000D02*
X193700000Y-126900000D01*
X145160000Y-137630000D02*
X155700000Y-126900000D01*
X100874999Y-128904999D02*
X109600000Y-137630000D01*
X100874999Y-59675001D02*
X100874999Y-128904999D01*
X103175000Y-57375000D02*
X100874999Y-59675001D01*
X164700000Y-137620000D02*
X164700000Y-139000000D01*
X164700000Y-139000000D02*
X163400000Y-140300000D01*
X125030000Y-137630000D02*
X124840000Y-137630000D01*
X127700000Y-140300000D02*
X125030000Y-137630000D01*
X163400000Y-140300000D02*
X127700000Y-140300000D01*
X168365001Y-136494999D02*
X172320000Y-132540000D01*
X164159999Y-136494999D02*
X168365001Y-136494999D01*
X161469988Y-139185010D02*
X164159999Y-136494999D01*
X128935010Y-139185010D02*
X161469988Y-139185010D01*
X127380000Y-137630000D02*
X128935010Y-139185010D01*
X161044999Y-138735001D02*
X164700000Y-135080000D01*
X131025001Y-138735001D02*
X161044999Y-138735001D01*
X129920000Y-137630000D02*
X131025001Y-138735001D01*
X199800000Y-59500000D02*
X199600000Y-59700000D01*
X206000000Y-59500000D02*
X199800000Y-59500000D01*
D37*
X199060000Y-87465000D02*
X206045000Y-87465000D01*
X192075000Y-80480000D02*
X199060000Y-87465000D01*
X176810000Y-80480000D02*
X176040000Y-79710000D01*
X192075000Y-80480000D02*
X176810000Y-80480000D01*
X190250999Y-61960001D02*
X192075000Y-61960001D01*
X192895998Y-64605000D02*
X206680000Y-64605000D01*
X190250999Y-61960001D02*
X192895998Y-64605000D01*
X179880001Y-61960001D02*
X176040000Y-58120000D01*
X190250999Y-61960001D02*
X179880001Y-61960001D01*
X192075000Y-103789002D02*
X192075000Y-101965001D01*
X188014002Y-107850000D02*
X192075000Y-103789002D01*
X195355998Y-107070000D02*
X206680000Y-107070000D01*
X192075000Y-103789002D02*
X195355998Y-107070000D01*
X183225000Y-107850000D02*
X176675000Y-101300000D01*
X188014002Y-107850000D02*
X183225000Y-107850000D01*
D35*
X161149990Y-117557203D02*
X161149990Y-117898990D01*
X160452000Y-116859213D02*
X161149990Y-117557203D01*
X161149990Y-117898990D02*
X162475000Y-119224000D01*
X160452000Y-115445000D02*
X160452000Y-116859213D01*
X179063990Y-119789010D02*
X181280000Y-117573000D01*
X163040010Y-119789010D02*
X179063990Y-119789010D01*
X162475000Y-119224000D02*
X163040010Y-119789010D01*
X181280000Y-117573000D02*
X184073000Y-117573000D01*
X184893000Y-118393000D02*
X184893000Y-118800000D01*
X184073000Y-117573000D02*
X184893000Y-118393000D01*
X190578000Y-117065000D02*
X188843000Y-118800000D01*
X194996000Y-117065000D02*
X190578000Y-117065000D01*
X194000000Y-129836000D02*
X192164000Y-128000000D01*
X192164000Y-128000000D02*
X156000000Y-128000000D01*
X127380000Y-112230000D02*
X136250000Y-121100000D01*
X136250000Y-121100000D02*
X156000000Y-121100000D01*
X131500000Y-124200000D02*
X119760000Y-112230000D01*
X179200000Y-124300000D02*
X131500000Y-124200000D01*
X180100000Y-130500000D02*
X179000000Y-129400000D01*
X184000000Y-130500000D02*
X180100000Y-130500000D01*
X184000000Y-130500000D02*
X190500000Y-130500000D01*
X140080000Y-109605000D02*
X139975000Y-109500000D01*
X140080000Y-112230000D02*
X140080000Y-109605000D01*
X120650000Y-109500000D02*
X139975000Y-109500000D01*
X119050000Y-107900000D02*
X120650000Y-109500000D01*
X144950000Y-109900000D02*
X144950000Y-109500000D01*
X142620000Y-112230000D02*
X144950000Y-109900000D01*
X133115669Y-97800000D02*
X124100000Y-97800000D01*
X140875010Y-105559341D02*
X133115669Y-97800000D01*
X140875010Y-110485010D02*
X140875010Y-105559341D01*
X142620000Y-112230000D02*
X140875010Y-110485010D01*
X165920000Y-117174000D02*
X166310000Y-117564000D01*
X162475000Y-117174000D02*
X165920000Y-117174000D01*
X166548000Y-117326000D02*
X166310000Y-117564000D01*
X166548000Y-115024000D02*
X166548000Y-117326000D01*
X186900000Y-115008000D02*
X186868000Y-115040000D01*
X186900000Y-113499999D02*
X186900000Y-115008000D01*
X181763000Y-115040000D02*
X181280000Y-115523000D01*
X186868000Y-115040000D02*
X181763000Y-115040000D01*
D36*
X201092000Y-113500000D02*
X201092000Y-115040000D01*
D35*
X201067000Y-115015000D02*
X201092000Y-115040000D01*
X194996000Y-115015000D02*
X201067000Y-115015000D01*
X208500000Y-120675000D02*
X208600000Y-120775000D01*
X208500000Y-118350000D02*
X208500000Y-120675000D01*
X205700000Y-120675000D02*
X205800000Y-120775000D01*
X205700000Y-118325000D02*
X205700000Y-120675000D01*
X174295000Y-135080000D02*
X175475000Y-133900000D01*
X172320000Y-135080000D02*
X174295000Y-135080000D01*
X175555000Y-137620000D02*
X175575000Y-137600000D01*
X172320000Y-137620000D02*
X175555000Y-137620000D01*
X119025000Y-105575000D02*
X119000000Y-105600000D01*
X119025000Y-103300000D02*
X119025000Y-105575000D01*
X118149990Y-106450010D02*
X119000000Y-105600000D01*
X126735412Y-109950010D02*
X119511820Y-109950010D01*
X128485001Y-111699599D02*
X126735412Y-109950010D01*
X118149990Y-108588180D02*
X118149990Y-106450010D01*
X128485001Y-112685001D02*
X128485001Y-111699599D01*
X134600000Y-118800000D02*
X128485001Y-112685001D01*
X154773002Y-118800000D02*
X134600000Y-118800000D01*
X119511820Y-109950010D02*
X118149990Y-108588180D01*
X157248002Y-121275000D02*
X154773002Y-118800000D01*
X177800000Y-121275000D02*
X157248002Y-121275000D01*
X103725001Y-110484999D02*
X101980000Y-112230000D01*
X103725001Y-102239997D02*
X103725001Y-110484999D01*
X109540018Y-96424980D02*
X103725001Y-102239997D01*
X116488170Y-96424980D02*
X109540018Y-96424980D01*
X117425010Y-97361820D02*
X116488170Y-96424980D01*
X117425010Y-98595010D02*
X117425010Y-97361820D01*
X120265000Y-101435000D02*
X117425010Y-98595010D01*
X122265000Y-101435000D02*
X120265000Y-101435000D01*
X115349990Y-96874990D02*
X116375000Y-97900000D01*
X111425010Y-96874990D02*
X115349990Y-96874990D01*
X110400000Y-97900000D02*
X111425010Y-96874990D01*
X116975000Y-98500000D02*
X116375000Y-97900000D01*
X116975000Y-103300000D02*
X116975000Y-98500000D01*
X116024999Y-108875001D02*
X117000000Y-107900000D01*
X107875001Y-108875001D02*
X116024999Y-108875001D01*
X106900000Y-107900000D02*
X107875001Y-108875001D01*
X116950000Y-107850000D02*
X117000000Y-107900000D01*
X116950000Y-105600000D02*
X116950000Y-107850000D01*
X208500000Y-122925000D02*
X208600000Y-122825000D01*
X208500000Y-129836000D02*
X208500000Y-122925000D01*
X201501539Y-121924990D02*
X201296866Y-122129663D01*
X207699990Y-121924990D02*
X201501539Y-121924990D01*
X208600000Y-122825000D02*
X207699990Y-121924990D01*
X134610000Y-122000000D02*
X124840000Y-112230000D01*
X199000000Y-122000000D02*
X134610000Y-122000000D01*
X205800000Y-122825000D02*
X205800000Y-127600000D01*
X208500000Y-134297002D02*
X208500000Y-134836000D01*
X205800000Y-131597002D02*
X208500000Y-134297002D01*
X205800000Y-129600000D02*
X205800000Y-131597002D01*
X122300000Y-112230000D02*
X132570000Y-122500000D01*
X205645549Y-122979451D02*
X200159354Y-122979451D01*
X205800000Y-122825000D02*
X205645549Y-122979451D01*
X132846750Y-122776750D02*
X122300000Y-112230000D01*
X198007925Y-122776750D02*
X132846750Y-122776750D01*
X175275000Y-130000000D02*
X175375000Y-130100000D01*
X172320000Y-130000000D02*
X175275000Y-130000000D01*
D38*
G36*
X114960000Y-73239038D02*
G01*
X114960000Y-73338260D01*
X114894545Y-73496284D01*
X114810000Y-73921319D01*
X114810000Y-74354681D01*
X114894545Y-74779716D01*
X115060385Y-75180091D01*
X115301148Y-75540418D01*
X115607582Y-75846852D01*
X115967909Y-76087615D01*
X116368284Y-76253455D01*
X116793319Y-76338000D01*
X117226681Y-76338000D01*
X117651716Y-76253455D01*
X118052091Y-76087615D01*
X118412418Y-75846852D01*
X118718852Y-75540418D01*
X118959615Y-75180091D01*
X119125455Y-74779716D01*
X119210000Y-74354681D01*
X119210000Y-73921319D01*
X119125455Y-73496284D01*
X119060000Y-73338261D01*
X119060000Y-73260698D01*
X126200000Y-73298419D01*
X126200000Y-89201387D01*
X107285954Y-89289050D01*
X107183627Y-89186723D01*
X106643136Y-88825578D01*
X106042574Y-88576817D01*
X105405022Y-88450000D01*
X104754978Y-88450000D01*
X104117426Y-88576817D01*
X103516864Y-88825578D01*
X102976373Y-89186723D01*
X102853502Y-89309594D01*
X102799999Y-89309842D01*
X102799999Y-73174796D01*
X114960000Y-73239038D01*
G37*
X114960000Y-73239038D02*
X114960000Y-73338260D01*
X114894545Y-73496284D01*
X114810000Y-73921319D01*
X114810000Y-74354681D01*
X114894545Y-74779716D01*
X115060385Y-75180091D01*
X115301148Y-75540418D01*
X115607582Y-75846852D01*
X115967909Y-76087615D01*
X116368284Y-76253455D01*
X116793319Y-76338000D01*
X117226681Y-76338000D01*
X117651716Y-76253455D01*
X118052091Y-76087615D01*
X118412418Y-75846852D01*
X118718852Y-75540418D01*
X118959615Y-75180091D01*
X119125455Y-74779716D01*
X119210000Y-74354681D01*
X119210000Y-73921319D01*
X119125455Y-73496284D01*
X119060000Y-73338261D01*
X119060000Y-73260698D01*
X126200000Y-73298419D01*
X126200000Y-89201387D01*
X107285954Y-89289050D01*
X107183627Y-89186723D01*
X106643136Y-88825578D01*
X106042574Y-88576817D01*
X105405022Y-88450000D01*
X104754978Y-88450000D01*
X104117426Y-88576817D01*
X103516864Y-88825578D01*
X102976373Y-89186723D01*
X102853502Y-89309594D01*
X102799999Y-89309842D01*
X102799999Y-73174796D01*
X114960000Y-73239038D01*
D39*
G36*
X138373000Y-82820128D02*
G01*
X137430000Y-82820128D01*
X137310000Y-82831947D01*
X137190000Y-82820128D01*
X134890000Y-82820128D01*
X134571052Y-82851542D01*
X134264362Y-82944575D01*
X133981714Y-83095654D01*
X133733971Y-83298971D01*
X133530654Y-83546714D01*
X133379575Y-83829362D01*
X133286542Y-84136052D01*
X133255128Y-84455000D01*
X133255128Y-87655000D01*
X133286542Y-87973948D01*
X133379575Y-88280638D01*
X133530654Y-88563286D01*
X133733971Y-88811029D01*
X133981714Y-89014346D01*
X134264362Y-89165425D01*
X134571052Y-89258458D01*
X134890000Y-89289872D01*
X137190000Y-89289872D01*
X137310000Y-89278053D01*
X137430000Y-89289872D01*
X138373000Y-89289872D01*
X138373000Y-89373000D01*
X128627000Y-89373000D01*
X128627000Y-59127000D01*
X138373000Y-59127000D01*
X138373000Y-82820128D01*
G37*
X138373000Y-82820128D02*
X137430000Y-82820128D01*
X137310000Y-82831947D01*
X137190000Y-82820128D01*
X134890000Y-82820128D01*
X134571052Y-82851542D01*
X134264362Y-82944575D01*
X133981714Y-83095654D01*
X133733971Y-83298971D01*
X133530654Y-83546714D01*
X133379575Y-83829362D01*
X133286542Y-84136052D01*
X133255128Y-84455000D01*
X133255128Y-87655000D01*
X133286542Y-87973948D01*
X133379575Y-88280638D01*
X133530654Y-88563286D01*
X133733971Y-88811029D01*
X133981714Y-89014346D01*
X134264362Y-89165425D01*
X134571052Y-89258458D01*
X134890000Y-89289872D01*
X137190000Y-89289872D01*
X137310000Y-89278053D01*
X137430000Y-89289872D01*
X138373000Y-89289872D01*
X138373000Y-89373000D01*
X128627000Y-89373000D01*
X128627000Y-59127000D01*
X138373000Y-59127000D01*
X138373000Y-82820128D01*
G36*
X165913000Y-106337976D02*
G01*
X140258758Y-97660806D01*
X140236260Y-89201638D01*
X140355638Y-89165425D01*
X140638286Y-89014346D01*
X140886029Y-88811029D01*
X141089346Y-88563286D01*
X141240425Y-88280638D01*
X141333458Y-87973948D01*
X141364872Y-87655000D01*
X141364872Y-86647830D01*
X143557702Y-84455000D01*
X144995128Y-84455000D01*
X144995128Y-87655000D01*
X145026542Y-87973948D01*
X145119575Y-88280638D01*
X145270654Y-88563286D01*
X145473971Y-88811029D01*
X145721714Y-89014346D01*
X146004362Y-89165425D01*
X146311052Y-89258458D01*
X146630000Y-89289872D01*
X148930000Y-89289872D01*
X149050000Y-89278053D01*
X149170000Y-89289872D01*
X151470000Y-89289872D01*
X151788948Y-89258458D01*
X152095638Y-89165425D01*
X152378286Y-89014346D01*
X152626029Y-88811029D01*
X152829346Y-88563286D01*
X152980425Y-88280638D01*
X153073458Y-87973948D01*
X153104872Y-87655000D01*
X153104872Y-84455000D01*
X153073458Y-84136052D01*
X152980425Y-83829362D01*
X152829346Y-83546714D01*
X152626029Y-83298971D01*
X152378286Y-83095654D01*
X152095638Y-82944575D01*
X151788948Y-82851542D01*
X151470000Y-82820128D01*
X149170000Y-82820128D01*
X149050000Y-82831947D01*
X148930000Y-82820128D01*
X146630000Y-82820128D01*
X146311052Y-82851542D01*
X146004362Y-82944575D01*
X145721714Y-83095654D01*
X145473971Y-83298971D01*
X145270654Y-83546714D01*
X145119575Y-83829362D01*
X145026542Y-84136052D01*
X144995128Y-84455000D01*
X143557702Y-84455000D01*
X143682993Y-84329709D01*
X143749845Y-84274845D01*
X143968783Y-84008069D01*
X144131469Y-83703705D01*
X144231650Y-83373452D01*
X144257000Y-83116069D01*
X144257000Y-83116059D01*
X144265476Y-83030001D01*
X144257000Y-82943943D01*
X144257000Y-81744675D01*
X144573948Y-81713458D01*
X144880638Y-81620425D01*
X145163286Y-81469346D01*
X145411029Y-81266029D01*
X145614346Y-81018286D01*
X145765425Y-80735638D01*
X145858458Y-80428948D01*
X145889872Y-80110000D01*
X145889872Y-78310000D01*
X145858458Y-77991052D01*
X145765425Y-77684362D01*
X145614346Y-77401714D01*
X145411029Y-77153971D01*
X145163286Y-76950654D01*
X144880638Y-76799575D01*
X144573948Y-76706542D01*
X144255000Y-76675128D01*
X140755000Y-76675128D01*
X140436052Y-76706542D01*
X140203217Y-76777172D01*
X140136395Y-51652000D01*
X165913000Y-51652000D01*
X165913000Y-106337976D01*
G37*
X165913000Y-106337976D02*
X140258758Y-97660806D01*
X140236260Y-89201638D01*
X140355638Y-89165425D01*
X140638286Y-89014346D01*
X140886029Y-88811029D01*
X141089346Y-88563286D01*
X141240425Y-88280638D01*
X141333458Y-87973948D01*
X141364872Y-87655000D01*
X141364872Y-86647830D01*
X143557702Y-84455000D01*
X144995128Y-84455000D01*
X144995128Y-87655000D01*
X145026542Y-87973948D01*
X145119575Y-88280638D01*
X145270654Y-88563286D01*
X145473971Y-88811029D01*
X145721714Y-89014346D01*
X146004362Y-89165425D01*
X146311052Y-89258458D01*
X146630000Y-89289872D01*
X148930000Y-89289872D01*
X149050000Y-89278053D01*
X149170000Y-89289872D01*
X151470000Y-89289872D01*
X151788948Y-89258458D01*
X152095638Y-89165425D01*
X152378286Y-89014346D01*
X152626029Y-88811029D01*
X152829346Y-88563286D01*
X152980425Y-88280638D01*
X153073458Y-87973948D01*
X153104872Y-87655000D01*
X153104872Y-84455000D01*
X153073458Y-84136052D01*
X152980425Y-83829362D01*
X152829346Y-83546714D01*
X152626029Y-83298971D01*
X152378286Y-83095654D01*
X152095638Y-82944575D01*
X151788948Y-82851542D01*
X151470000Y-82820128D01*
X149170000Y-82820128D01*
X149050000Y-82831947D01*
X148930000Y-82820128D01*
X146630000Y-82820128D01*
X146311052Y-82851542D01*
X146004362Y-82944575D01*
X145721714Y-83095654D01*
X145473971Y-83298971D01*
X145270654Y-83546714D01*
X145119575Y-83829362D01*
X145026542Y-84136052D01*
X144995128Y-84455000D01*
X143557702Y-84455000D01*
X143682993Y-84329709D01*
X143749845Y-84274845D01*
X143968783Y-84008069D01*
X144131469Y-83703705D01*
X144231650Y-83373452D01*
X144257000Y-83116069D01*
X144257000Y-83116059D01*
X144265476Y-83030001D01*
X144257000Y-82943943D01*
X144257000Y-81744675D01*
X144573948Y-81713458D01*
X144880638Y-81620425D01*
X145163286Y-81469346D01*
X145411029Y-81266029D01*
X145614346Y-81018286D01*
X145765425Y-80735638D01*
X145858458Y-80428948D01*
X145889872Y-80110000D01*
X145889872Y-78310000D01*
X145858458Y-77991052D01*
X145765425Y-77684362D01*
X145614346Y-77401714D01*
X145411029Y-77153971D01*
X145163286Y-76950654D01*
X144880638Y-76799575D01*
X144573948Y-76706542D01*
X144255000Y-76675128D01*
X140755000Y-76675128D01*
X140436052Y-76706542D01*
X140203217Y-76777172D01*
X140136395Y-51652000D01*
X165913000Y-51652000D01*
X165913000Y-106337976D01*
G36*
X205160810Y-51733561D02*
G01*
X204637229Y-51950435D01*
X204166019Y-52265288D01*
X203765288Y-52666019D01*
X203450435Y-53137229D01*
X203233561Y-53660810D01*
X203123000Y-54216640D01*
X203123000Y-54783360D01*
X203233561Y-55339190D01*
X203450435Y-55862771D01*
X203765288Y-56333981D01*
X204166019Y-56734712D01*
X204563050Y-57000000D01*
X204166019Y-57265288D01*
X203765288Y-57666019D01*
X203710510Y-57748000D01*
X201051642Y-57748000D01*
X200972179Y-57682786D01*
X200646310Y-57508605D01*
X200292721Y-57401345D01*
X199925001Y-57365128D01*
X199274999Y-57365128D01*
X198907279Y-57401345D01*
X198575000Y-57502141D01*
X198242721Y-57401345D01*
X197875001Y-57365128D01*
X197224999Y-57365128D01*
X196857279Y-57401345D01*
X196503690Y-57508605D01*
X196177821Y-57682786D01*
X195892194Y-57917194D01*
X195657786Y-58202821D01*
X195483605Y-58528690D01*
X195376345Y-58882279D01*
X195340128Y-59249999D01*
X195340128Y-60150001D01*
X195376345Y-60517721D01*
X195483605Y-60871310D01*
X195657786Y-61197179D01*
X195892194Y-61482806D01*
X196177821Y-61717214D01*
X196503690Y-61891395D01*
X196857279Y-61998655D01*
X197224999Y-62034872D01*
X197875001Y-62034872D01*
X198242721Y-61998655D01*
X198575000Y-61897859D01*
X198907279Y-61998655D01*
X199274999Y-62034872D01*
X199925001Y-62034872D01*
X200292721Y-61998655D01*
X200646310Y-61891395D01*
X200972179Y-61717214D01*
X201257806Y-61482806D01*
X201447224Y-61252000D01*
X203710510Y-61252000D01*
X203765288Y-61333981D01*
X204166019Y-61734712D01*
X204637229Y-62049565D01*
X205160810Y-62266439D01*
X205716640Y-62377000D01*
X206283360Y-62377000D01*
X206839190Y-62266439D01*
X207362771Y-62049565D01*
X207833981Y-61734712D01*
X208234712Y-61333981D01*
X208348001Y-61164433D01*
X208348001Y-69558000D01*
X168707000Y-69558000D01*
X168707000Y-56120961D01*
X189648000Y-56120961D01*
X189648000Y-56599039D01*
X189741268Y-57067930D01*
X189924221Y-57509615D01*
X190189826Y-57907122D01*
X190527878Y-58245174D01*
X190925385Y-58510779D01*
X191367070Y-58693732D01*
X191835961Y-58787000D01*
X192314039Y-58787000D01*
X192782930Y-58693732D01*
X193224615Y-58510779D01*
X193622122Y-58245174D01*
X193960174Y-57907122D01*
X194225779Y-57509615D01*
X194408732Y-57067930D01*
X194502000Y-56599039D01*
X194502000Y-56120961D01*
X194408732Y-55652070D01*
X194225779Y-55210385D01*
X193960174Y-54812878D01*
X193622122Y-54474826D01*
X193224615Y-54209221D01*
X192782930Y-54026268D01*
X192314039Y-53933000D01*
X191835961Y-53933000D01*
X191367070Y-54026268D01*
X190925385Y-54209221D01*
X190527878Y-54474826D01*
X190189826Y-54812878D01*
X189924221Y-55210385D01*
X189741268Y-55652070D01*
X189648000Y-56120961D01*
X168707000Y-56120961D01*
X168707000Y-51652000D01*
X205570847Y-51652000D01*
X205160810Y-51733561D01*
G37*
X205160810Y-51733561D02*
X204637229Y-51950435D01*
X204166019Y-52265288D01*
X203765288Y-52666019D01*
X203450435Y-53137229D01*
X203233561Y-53660810D01*
X203123000Y-54216640D01*
X203123000Y-54783360D01*
X203233561Y-55339190D01*
X203450435Y-55862771D01*
X203765288Y-56333981D01*
X204166019Y-56734712D01*
X204563050Y-57000000D01*
X204166019Y-57265288D01*
X203765288Y-57666019D01*
X203710510Y-57748000D01*
X201051642Y-57748000D01*
X200972179Y-57682786D01*
X200646310Y-57508605D01*
X200292721Y-57401345D01*
X199925001Y-57365128D01*
X199274999Y-57365128D01*
X198907279Y-57401345D01*
X198575000Y-57502141D01*
X198242721Y-57401345D01*
X197875001Y-57365128D01*
X197224999Y-57365128D01*
X196857279Y-57401345D01*
X196503690Y-57508605D01*
X196177821Y-57682786D01*
X195892194Y-57917194D01*
X195657786Y-58202821D01*
X195483605Y-58528690D01*
X195376345Y-58882279D01*
X195340128Y-59249999D01*
X195340128Y-60150001D01*
X195376345Y-60517721D01*
X195483605Y-60871310D01*
X195657786Y-61197179D01*
X195892194Y-61482806D01*
X196177821Y-61717214D01*
X196503690Y-61891395D01*
X196857279Y-61998655D01*
X197224999Y-62034872D01*
X197875001Y-62034872D01*
X198242721Y-61998655D01*
X198575000Y-61897859D01*
X198907279Y-61998655D01*
X199274999Y-62034872D01*
X199925001Y-62034872D01*
X200292721Y-61998655D01*
X200646310Y-61891395D01*
X200972179Y-61717214D01*
X201257806Y-61482806D01*
X201447224Y-61252000D01*
X203710510Y-61252000D01*
X203765288Y-61333981D01*
X204166019Y-61734712D01*
X204637229Y-62049565D01*
X205160810Y-62266439D01*
X205716640Y-62377000D01*
X206283360Y-62377000D01*
X206839190Y-62266439D01*
X207362771Y-62049565D01*
X207833981Y-61734712D01*
X208234712Y-61333981D01*
X208348001Y-61164433D01*
X208348001Y-69558000D01*
X168707000Y-69558000D01*
X168707000Y-56120961D01*
X189648000Y-56120961D01*
X189648000Y-56599039D01*
X189741268Y-57067930D01*
X189924221Y-57509615D01*
X190189826Y-57907122D01*
X190527878Y-58245174D01*
X190925385Y-58510779D01*
X191367070Y-58693732D01*
X191835961Y-58787000D01*
X192314039Y-58787000D01*
X192782930Y-58693732D01*
X193224615Y-58510779D01*
X193622122Y-58245174D01*
X193960174Y-57907122D01*
X194225779Y-57509615D01*
X194408732Y-57067930D01*
X194502000Y-56599039D01*
X194502000Y-56120961D01*
X194408732Y-55652070D01*
X194225779Y-55210385D01*
X193960174Y-54812878D01*
X193622122Y-54474826D01*
X193224615Y-54209221D01*
X192782930Y-54026268D01*
X192314039Y-53933000D01*
X191835961Y-53933000D01*
X191367070Y-54026268D01*
X190925385Y-54209221D01*
X190527878Y-54474826D01*
X190189826Y-54812878D01*
X189924221Y-55210385D01*
X189741268Y-55652070D01*
X189648000Y-56120961D01*
X168707000Y-56120961D01*
X168707000Y-51652000D01*
X205570847Y-51652000D01*
X205160810Y-51733561D01*
G36*
X208348001Y-75733220D02*
G01*
X208279712Y-75631019D01*
X207878981Y-75230288D01*
X207407771Y-74915435D01*
X206884190Y-74698561D01*
X206328360Y-74588000D01*
X205761640Y-74588000D01*
X205205810Y-74698561D01*
X204682229Y-74915435D01*
X204211019Y-75230288D01*
X203810288Y-75631019D01*
X203495435Y-76102229D01*
X203278561Y-76625810D01*
X203168000Y-77181640D01*
X203168000Y-77748360D01*
X203278561Y-78304190D01*
X203495435Y-78827771D01*
X203810288Y-79298981D01*
X204211019Y-79699712D01*
X204608050Y-79965000D01*
X204211019Y-80230288D01*
X203810288Y-80631019D01*
X203755510Y-80713000D01*
X202803282Y-80713000D01*
X201559872Y-79668359D01*
X201559872Y-79649999D01*
X201523655Y-79282279D01*
X201416395Y-78928690D01*
X201242214Y-78602821D01*
X201007806Y-78317194D01*
X200722179Y-78082786D01*
X200396310Y-77908605D01*
X200042721Y-77801345D01*
X199675001Y-77765128D01*
X199024999Y-77765128D01*
X198657279Y-77801345D01*
X198325000Y-77902141D01*
X197992721Y-77801345D01*
X197625001Y-77765128D01*
X196974999Y-77765128D01*
X196607279Y-77801345D01*
X196253690Y-77908605D01*
X195927821Y-78082786D01*
X195642194Y-78317194D01*
X195407786Y-78602821D01*
X195233605Y-78928690D01*
X195126345Y-79282279D01*
X195090128Y-79649999D01*
X195090128Y-80550001D01*
X195126345Y-80917721D01*
X195233605Y-81271310D01*
X195407786Y-81597179D01*
X195642194Y-81882806D01*
X195927821Y-82117214D01*
X196253690Y-82291395D01*
X196607279Y-82398655D01*
X196974999Y-82434872D01*
X197625001Y-82434872D01*
X197992721Y-82398655D01*
X198325000Y-82297859D01*
X198657279Y-82398655D01*
X199024999Y-82434872D01*
X199405496Y-82434872D01*
X200913696Y-83701975D01*
X200920155Y-83709845D01*
X201045723Y-83812896D01*
X201103914Y-83861785D01*
X201112259Y-83867501D01*
X201186931Y-83928783D01*
X201254286Y-83964785D01*
X201317286Y-84007938D01*
X201406094Y-84045928D01*
X201491295Y-84091469D01*
X201564377Y-84113638D01*
X201634586Y-84143672D01*
X201729102Y-84163607D01*
X201821548Y-84191650D01*
X201897555Y-84199136D01*
X201972272Y-84214895D01*
X202068854Y-84216008D01*
X202078931Y-84217000D01*
X202155018Y-84217000D01*
X202317362Y-84218870D01*
X202327364Y-84217000D01*
X203755510Y-84217000D01*
X203810288Y-84298981D01*
X204211019Y-84699712D01*
X204682229Y-85014565D01*
X205205810Y-85231439D01*
X205761640Y-85342000D01*
X206328360Y-85342000D01*
X206884190Y-85231439D01*
X207407771Y-85014565D01*
X207878981Y-84699712D01*
X208279712Y-84298981D01*
X208348001Y-84196780D01*
X208348001Y-91148000D01*
X168707000Y-91148000D01*
X168707000Y-76440961D01*
X189648000Y-76440961D01*
X189648000Y-76919039D01*
X189741268Y-77387930D01*
X189924221Y-77829615D01*
X190189826Y-78227122D01*
X190527878Y-78565174D01*
X190925385Y-78830779D01*
X191367070Y-79013732D01*
X191835961Y-79107000D01*
X192314039Y-79107000D01*
X192782930Y-79013732D01*
X193224615Y-78830779D01*
X193622122Y-78565174D01*
X193960174Y-78227122D01*
X194225779Y-77829615D01*
X194408732Y-77387930D01*
X194502000Y-76919039D01*
X194502000Y-76440961D01*
X194408732Y-75972070D01*
X194225779Y-75530385D01*
X193960174Y-75132878D01*
X193622122Y-74794826D01*
X193224615Y-74529221D01*
X192782930Y-74346268D01*
X192314039Y-74253000D01*
X191835961Y-74253000D01*
X191367070Y-74346268D01*
X190925385Y-74529221D01*
X190527878Y-74794826D01*
X190189826Y-75132878D01*
X189924221Y-75530385D01*
X189741268Y-75972070D01*
X189648000Y-76440961D01*
X168707000Y-76440961D01*
X168707000Y-71717000D01*
X208348001Y-71717000D01*
X208348001Y-75733220D01*
G37*
X208348001Y-75733220D02*
X208279712Y-75631019D01*
X207878981Y-75230288D01*
X207407771Y-74915435D01*
X206884190Y-74698561D01*
X206328360Y-74588000D01*
X205761640Y-74588000D01*
X205205810Y-74698561D01*
X204682229Y-74915435D01*
X204211019Y-75230288D01*
X203810288Y-75631019D01*
X203495435Y-76102229D01*
X203278561Y-76625810D01*
X203168000Y-77181640D01*
X203168000Y-77748360D01*
X203278561Y-78304190D01*
X203495435Y-78827771D01*
X203810288Y-79298981D01*
X204211019Y-79699712D01*
X204608050Y-79965000D01*
X204211019Y-80230288D01*
X203810288Y-80631019D01*
X203755510Y-80713000D01*
X202803282Y-80713000D01*
X201559872Y-79668359D01*
X201559872Y-79649999D01*
X201523655Y-79282279D01*
X201416395Y-78928690D01*
X201242214Y-78602821D01*
X201007806Y-78317194D01*
X200722179Y-78082786D01*
X200396310Y-77908605D01*
X200042721Y-77801345D01*
X199675001Y-77765128D01*
X199024999Y-77765128D01*
X198657279Y-77801345D01*
X198325000Y-77902141D01*
X197992721Y-77801345D01*
X197625001Y-77765128D01*
X196974999Y-77765128D01*
X196607279Y-77801345D01*
X196253690Y-77908605D01*
X195927821Y-78082786D01*
X195642194Y-78317194D01*
X195407786Y-78602821D01*
X195233605Y-78928690D01*
X195126345Y-79282279D01*
X195090128Y-79649999D01*
X195090128Y-80550001D01*
X195126345Y-80917721D01*
X195233605Y-81271310D01*
X195407786Y-81597179D01*
X195642194Y-81882806D01*
X195927821Y-82117214D01*
X196253690Y-82291395D01*
X196607279Y-82398655D01*
X196974999Y-82434872D01*
X197625001Y-82434872D01*
X197992721Y-82398655D01*
X198325000Y-82297859D01*
X198657279Y-82398655D01*
X199024999Y-82434872D01*
X199405496Y-82434872D01*
X200913696Y-83701975D01*
X200920155Y-83709845D01*
X201045723Y-83812896D01*
X201103914Y-83861785D01*
X201112259Y-83867501D01*
X201186931Y-83928783D01*
X201254286Y-83964785D01*
X201317286Y-84007938D01*
X201406094Y-84045928D01*
X201491295Y-84091469D01*
X201564377Y-84113638D01*
X201634586Y-84143672D01*
X201729102Y-84163607D01*
X201821548Y-84191650D01*
X201897555Y-84199136D01*
X201972272Y-84214895D01*
X202068854Y-84216008D01*
X202078931Y-84217000D01*
X202155018Y-84217000D01*
X202317362Y-84218870D01*
X202327364Y-84217000D01*
X203755510Y-84217000D01*
X203810288Y-84298981D01*
X204211019Y-84699712D01*
X204682229Y-85014565D01*
X205205810Y-85231439D01*
X205761640Y-85342000D01*
X206328360Y-85342000D01*
X206884190Y-85231439D01*
X207407771Y-85014565D01*
X207878981Y-84699712D01*
X208279712Y-84298981D01*
X208348001Y-84196780D01*
X208348001Y-91148000D01*
X168707000Y-91148000D01*
X168707000Y-76440961D01*
X189648000Y-76440961D01*
X189648000Y-76919039D01*
X189741268Y-77387930D01*
X189924221Y-77829615D01*
X190189826Y-78227122D01*
X190527878Y-78565174D01*
X190925385Y-78830779D01*
X191367070Y-79013732D01*
X191835961Y-79107000D01*
X192314039Y-79107000D01*
X192782930Y-79013732D01*
X193224615Y-78830779D01*
X193622122Y-78565174D01*
X193960174Y-78227122D01*
X194225779Y-77829615D01*
X194408732Y-77387930D01*
X194502000Y-76919039D01*
X194502000Y-76440961D01*
X194408732Y-75972070D01*
X194225779Y-75530385D01*
X193960174Y-75132878D01*
X193622122Y-74794826D01*
X193224615Y-74529221D01*
X192782930Y-74346268D01*
X192314039Y-74253000D01*
X191835961Y-74253000D01*
X191367070Y-74346268D01*
X190925385Y-74529221D01*
X190527878Y-74794826D01*
X190189826Y-75132878D01*
X189924221Y-75530385D01*
X189741268Y-75972070D01*
X189648000Y-76440961D01*
X168707000Y-76440961D01*
X168707000Y-71717000D01*
X208348001Y-71717000D01*
X208348001Y-75733220D01*
G36*
X208348001Y-95405567D02*
G01*
X208234712Y-95236019D01*
X207833981Y-94835288D01*
X207362771Y-94520435D01*
X206839190Y-94303561D01*
X206283360Y-94193000D01*
X205716640Y-94193000D01*
X205160810Y-94303561D01*
X204637229Y-94520435D01*
X204166019Y-94835288D01*
X203765288Y-95236019D01*
X203450435Y-95707229D01*
X203233561Y-96230810D01*
X203123000Y-96786640D01*
X203123000Y-97353360D01*
X203233561Y-97909190D01*
X203450435Y-98432771D01*
X203765288Y-98903981D01*
X204166019Y-99304712D01*
X204563050Y-99570000D01*
X204166019Y-99835288D01*
X203953307Y-100048000D01*
X201133088Y-100048000D01*
X201107806Y-100017194D01*
X200822179Y-99782786D01*
X200496310Y-99608605D01*
X200142721Y-99501345D01*
X199775001Y-99465128D01*
X199124999Y-99465128D01*
X198757279Y-99501345D01*
X198425000Y-99602141D01*
X198092721Y-99501345D01*
X197725001Y-99465128D01*
X197074999Y-99465128D01*
X196707279Y-99501345D01*
X196353690Y-99608605D01*
X196027821Y-99782786D01*
X195742194Y-100017194D01*
X195507786Y-100302821D01*
X195333605Y-100628690D01*
X195226345Y-100982279D01*
X195190128Y-101349999D01*
X195190128Y-102250001D01*
X195226345Y-102617721D01*
X195333605Y-102971310D01*
X195507786Y-103297179D01*
X195742194Y-103582806D01*
X196027821Y-103817214D01*
X196353690Y-103991395D01*
X196707279Y-104098655D01*
X197074999Y-104134872D01*
X197725001Y-104134872D01*
X198092721Y-104098655D01*
X198425000Y-103997859D01*
X198757279Y-104098655D01*
X199124999Y-104134872D01*
X199775001Y-104134872D01*
X200142721Y-104098655D01*
X200496310Y-103991395D01*
X200822179Y-103817214D01*
X201107806Y-103582806D01*
X201133088Y-103552000D01*
X203530101Y-103552000D01*
X203765288Y-103903981D01*
X204166019Y-104304712D01*
X204637229Y-104619565D01*
X205160810Y-104836439D01*
X205716640Y-104947000D01*
X206283360Y-104947000D01*
X206839190Y-104836439D01*
X207362771Y-104619565D01*
X207833981Y-104304712D01*
X208234712Y-103903981D01*
X208348000Y-103734433D01*
X208348000Y-112103000D01*
X203222573Y-112103000D01*
X203061846Y-111907154D01*
X202994990Y-111852287D01*
X202739712Y-111597008D01*
X202684846Y-111530154D01*
X202418070Y-111311216D01*
X202113706Y-111148530D01*
X201783453Y-111048349D01*
X201526070Y-111022999D01*
X201526062Y-111022999D01*
X201440001Y-111014523D01*
X201353940Y-111022999D01*
X188695070Y-111022999D01*
X188609001Y-111014522D01*
X188522933Y-111022999D01*
X173587062Y-111022999D01*
X173501001Y-111014523D01*
X173414940Y-111022999D01*
X173414932Y-111022999D01*
X173157549Y-111048349D01*
X172827296Y-111148530D01*
X172522932Y-111311216D01*
X172256156Y-111530154D01*
X172201287Y-111597012D01*
X171730298Y-112068000D01*
X168707000Y-112068000D01*
X168707000Y-96125961D01*
X189648000Y-96125961D01*
X189648000Y-96604039D01*
X189741268Y-97072930D01*
X189924221Y-97514615D01*
X190189826Y-97912122D01*
X190527878Y-98250174D01*
X190925385Y-98515779D01*
X191367070Y-98698732D01*
X191835961Y-98792000D01*
X192314039Y-98792000D01*
X192782930Y-98698732D01*
X193224615Y-98515779D01*
X193622122Y-98250174D01*
X193960174Y-97912122D01*
X194225779Y-97514615D01*
X194408732Y-97072930D01*
X194502000Y-96604039D01*
X194502000Y-96125961D01*
X194408732Y-95657070D01*
X194225779Y-95215385D01*
X193960174Y-94817878D01*
X193622122Y-94479826D01*
X193224615Y-94214221D01*
X192782930Y-94031268D01*
X192314039Y-93938000D01*
X191835961Y-93938000D01*
X191367070Y-94031268D01*
X190925385Y-94214221D01*
X190527878Y-94479826D01*
X190189826Y-94817878D01*
X189924221Y-95215385D01*
X189741268Y-95657070D01*
X189648000Y-96125961D01*
X168707000Y-96125961D01*
X168707000Y-93307000D01*
X208348001Y-93307000D01*
X208348001Y-95405567D01*
G37*
X208348001Y-95405567D02*
X208234712Y-95236019D01*
X207833981Y-94835288D01*
X207362771Y-94520435D01*
X206839190Y-94303561D01*
X206283360Y-94193000D01*
X205716640Y-94193000D01*
X205160810Y-94303561D01*
X204637229Y-94520435D01*
X204166019Y-94835288D01*
X203765288Y-95236019D01*
X203450435Y-95707229D01*
X203233561Y-96230810D01*
X203123000Y-96786640D01*
X203123000Y-97353360D01*
X203233561Y-97909190D01*
X203450435Y-98432771D01*
X203765288Y-98903981D01*
X204166019Y-99304712D01*
X204563050Y-99570000D01*
X204166019Y-99835288D01*
X203953307Y-100048000D01*
X201133088Y-100048000D01*
X201107806Y-100017194D01*
X200822179Y-99782786D01*
X200496310Y-99608605D01*
X200142721Y-99501345D01*
X199775001Y-99465128D01*
X199124999Y-99465128D01*
X198757279Y-99501345D01*
X198425000Y-99602141D01*
X198092721Y-99501345D01*
X197725001Y-99465128D01*
X197074999Y-99465128D01*
X196707279Y-99501345D01*
X196353690Y-99608605D01*
X196027821Y-99782786D01*
X195742194Y-100017194D01*
X195507786Y-100302821D01*
X195333605Y-100628690D01*
X195226345Y-100982279D01*
X195190128Y-101349999D01*
X195190128Y-102250001D01*
X195226345Y-102617721D01*
X195333605Y-102971310D01*
X195507786Y-103297179D01*
X195742194Y-103582806D01*
X196027821Y-103817214D01*
X196353690Y-103991395D01*
X196707279Y-104098655D01*
X197074999Y-104134872D01*
X197725001Y-104134872D01*
X198092721Y-104098655D01*
X198425000Y-103997859D01*
X198757279Y-104098655D01*
X199124999Y-104134872D01*
X199775001Y-104134872D01*
X200142721Y-104098655D01*
X200496310Y-103991395D01*
X200822179Y-103817214D01*
X201107806Y-103582806D01*
X201133088Y-103552000D01*
X203530101Y-103552000D01*
X203765288Y-103903981D01*
X204166019Y-104304712D01*
X204637229Y-104619565D01*
X205160810Y-104836439D01*
X205716640Y-104947000D01*
X206283360Y-104947000D01*
X206839190Y-104836439D01*
X207362771Y-104619565D01*
X207833981Y-104304712D01*
X208234712Y-103903981D01*
X208348000Y-103734433D01*
X208348000Y-112103000D01*
X203222573Y-112103000D01*
X203061846Y-111907154D01*
X202994990Y-111852287D01*
X202739712Y-111597008D01*
X202684846Y-111530154D01*
X202418070Y-111311216D01*
X202113706Y-111148530D01*
X201783453Y-111048349D01*
X201526070Y-111022999D01*
X201526062Y-111022999D01*
X201440001Y-111014523D01*
X201353940Y-111022999D01*
X188695070Y-111022999D01*
X188609001Y-111014522D01*
X188522933Y-111022999D01*
X173587062Y-111022999D01*
X173501001Y-111014523D01*
X173414940Y-111022999D01*
X173414932Y-111022999D01*
X173157549Y-111048349D01*
X172827296Y-111148530D01*
X172522932Y-111311216D01*
X172256156Y-111530154D01*
X172201287Y-111597012D01*
X171730298Y-112068000D01*
X168707000Y-112068000D01*
X168707000Y-96125961D01*
X189648000Y-96125961D01*
X189648000Y-96604039D01*
X189741268Y-97072930D01*
X189924221Y-97514615D01*
X190189826Y-97912122D01*
X190527878Y-98250174D01*
X190925385Y-98515779D01*
X191367070Y-98698732D01*
X191835961Y-98792000D01*
X192314039Y-98792000D01*
X192782930Y-98698732D01*
X193224615Y-98515779D01*
X193622122Y-98250174D01*
X193960174Y-97912122D01*
X194225779Y-97514615D01*
X194408732Y-97072930D01*
X194502000Y-96604039D01*
X194502000Y-96125961D01*
X194408732Y-95657070D01*
X194225779Y-95215385D01*
X193960174Y-94817878D01*
X193622122Y-94479826D01*
X193224615Y-94214221D01*
X192782930Y-94031268D01*
X192314039Y-93938000D01*
X191835961Y-93938000D01*
X191367070Y-94031268D01*
X190925385Y-94214221D01*
X190527878Y-94479826D01*
X190189826Y-94817878D01*
X189924221Y-95215385D01*
X189741268Y-95657070D01*
X189648000Y-96125961D01*
X168707000Y-96125961D01*
X168707000Y-93307000D01*
X208348001Y-93307000D01*
X208348001Y-95405567D01*
M02*
